<?xml version="1.0" encoding="UTF-8" standalone="no"?>
<!-- Created with Inkscape (http://www.inkscape.org/) -->

<svg
   xmlns:dc="http://purl.org/dc/elements/1.1/"
   xmlns:cc="http://creativecommons.org/ns#"
   xmlns:rdf="http://www.w3.org/1999/02/22-rdf-syntax-ns#"
   xmlns:svg="http://www.w3.org/2000/svg"
   xmlns="http://www.w3.org/2000/svg"
   xmlns:sodipodi="http://sodipodi.sourceforge.net/DTD/sodipodi-0.dtd"
   xmlns:inkscape="http://www.inkscape.org/namespaces/inkscape"
   width="256mm"
   height="256mm"
   viewBox="0 0 256 256"
   version="1.1"
   id="svg8"
   inkscape:version="0.92.5 (2060ec1f9f, 2020-04-08)"
   sodipodi:docname="civ6_japanese.svg">
  <defs
     id="defs2" />
  <sodipodi:namedview
     id="base"
     pagecolor="#ffffff"
     bordercolor="#666666"
     borderopacity="1.0"
     inkscape:pageopacity="0.0"
     inkscape:pageshadow="2"
     inkscape:zoom="0.7"
     inkscape:cx="-568.64335"
     inkscape:cy="654.68937"
     inkscape:document-units="mm"
     inkscape:current-layer="layer1"
     showgrid="false"
     inkscape:window-width="3840"
     inkscape:window-height="2056"
     inkscape:window-x="0"
     inkscape:window-y="50"
     inkscape:window-maximized="1" />
  <metadata
     id="metadata5">
    <rdf:RDF>
      <cc:Work
         rdf:about="">
        <dc:format>image/svg+xml</dc:format>
        <dc:type
           rdf:resource="http://purl.org/dc/dcmitype/StillImage" />
        <dc:title></dc:title>
      </cc:Work>
    </rdf:RDF>
  </metadata>
  <g
     inkscape:label="Layer 1"
     inkscape:groupmode="layer"
     id="layer1"
     transform="translate(0,-41)">
    <rect
       style="fill:#000000;fill-opacity:1;stroke:none;stroke-width:0.73613685;stroke-miterlimit:4;stroke-dasharray:none;stroke-opacity:1;paint-order:stroke fill markers"
       id="rect4747"
       width="256"
       height="256"
       x="-1.4210855e-14"
       y="41" />
    <path
       style="fill:#ffffff;stroke-width:1.31971312"
       d="m 71.252342,276.73901 c 0,-3.21904 -0.567373,-7.34507 -1.260805,-9.16894 -0.693467,-1.82393 -2.874872,-4.37379 -4.847633,-5.6664 -2.036108,-1.33406 -5.812341,-2.29179 -8.734398,-2.21517 -2.831128,0.0743 -5.816382,0.8038 -6.633848,1.62131 -0.817465,0.81747 -2.528362,1.48629 -3.802021,1.48629 -1.641764,0 -2.568315,-1.44025 -3.183771,-4.94888 -0.477342,-2.72195 -1.692093,-8.99641 -2.699198,-13.94331 -1.007156,-4.94684 -1.831156,-11.81906 -1.831156,-15.27153 0,-3.45242 0.946004,-9.05347 2.102198,-12.44673 1.38808,-4.07382 4.075706,-7.90676 7.911895,-11.28351 l 5.809697,-5.11389 -6.783633,-0.89992 c -3.730994,-0.4948 -8.980751,-2.02074 -11.666082,-3.39067 -2.685332,-1.36997 -6.849674,-4.73141 -9.254087,-7.46991 -2.404464,-2.73851 -6.997268,-10.63599 -10.206278,-17.55 -3.20901,-6.91397 -6.5131399,-12.99027 -7.3425199,-13.50288 -0.82939,-0.5126 -1.08048,-1.35955 -0.55795,-1.88208 0.52253,-0.52253 4.0685699,-2.18799 7.8800699,-3.70097 5.384282,-2.13731 7.447075,-3.8081 9.248303,-7.49077 1.529287,-3.12671 2.035858,-6.15206 1.488437,-8.88932 -0.456393,-2.28216 -2.242008,-5.67313 -3.967969,-7.53546 -1.72596,-1.86233 -3.138081,-4.11067 -3.138081,-4.99632 0,-0.8857 6.663125,-5.10974 14.806957,-9.38686 13.161252,-6.91212 15.859652,-7.84401 24.278167,-8.3843 6.629807,-0.42547 10.600868,-0.0399 13.236934,1.27974 2.071173,1.03813 5.518804,3.04077 7.661403,4.45025 3.874346,2.54871 3.889559,2.54831 2.785888,-0.0733 -0.610368,-1.44968 -1.391672,-5.99809 -1.736285,-10.10747 -0.505174,-6.023823 2.49e-4,-8.836845 2.608268,-14.516858 2.223104,-4.841697 7.117873,-10.893856 15.649912,-19.350429 12.412874,-12.303038 12.415414,-12.304684 14.384784,-9.237978 1.08332,1.686955 3.67318,4.700391 5.75523,6.696445 2.76868,2.654357 5.1285,3.629191 8.78527,3.629191 3.65673,0 6.01655,-0.974834 8.78523,-3.629191 2.08205,-1.996054 4.67191,-5.00949 5.75523,-6.696445 1.96937,-3.066706 1.97191,-3.06506 14.38478,9.237976 8.53204,8.456573 13.42681,14.508732 15.64991,19.350429 2.60802,5.680013 3.11345,8.493035 2.60827,14.51686 -0.34466,4.10938 -1.12591,8.65779 -1.73628,10.10747 -1.10372,2.62144 -1.08846,2.62183 2.78588,0.0733 2.1426,-1.40948 5.59023,-3.41212 7.66141,-4.45025 2.63605,-1.32129 6.60711,-1.70521 13.23697,-1.27974 8.41846,0.54029 11.11686,1.47217 24.27806,8.3843 8.14383,4.27711 14.80701,8.50116 14.80701,9.38686 0,0.88565 -1.41212,3.13399 -3.13808,4.99632 -1.72596,1.86233 -3.51153,5.2533 -3.96797,7.53546 -0.54742,2.73726 -0.0399,5.76261 1.48844,8.88932 1.80122,3.68266 3.86402,5.35346 9.2483,7.49077 3.81149,1.51298 7.35754,3.17844 7.88007,3.70097 0.52253,0.52253 0.27134,1.36948 -0.55795,1.88208 -0.82938,0.51261 -4.13351,6.58891 -7.34252,13.50288 -3.20901,6.91401 -7.80182,14.81149 -10.20628,17.55 -2.40441,2.7385 -6.56875,6.09994 -9.25408,7.46991 -2.68534,1.36993 -7.93509,2.89577 -11.66609,3.39067 l -6.78363,0.89992 5.8097,5.11389 c 3.83624,3.37675 6.52381,7.20969 7.91189,11.28351 1.1562,3.39326 2.1022,8.99431 2.1022,12.44673 0,3.45247 -0.824,10.32469 -1.83115,15.27153 -1.00711,4.9469 -2.22176,11.22136 -2.6992,13.94331 -0.61546,3.50863 -1.54201,4.94888 -3.18377,4.94888 -1.27361,0 -2.98456,-0.66882 -3.80203,-1.48629 -0.81746,-0.81751 -3.80271,-1.54709 -6.63384,-1.62131 -2.92206,-0.0768 -6.69829,0.88111 -8.7344,2.21517 -1.97276,1.29261 -4.15417,3.84247 -4.84763,5.6664 -0.69347,1.82387 -1.26079,5.9499 -1.26079,9.16894 0,3.82531 -0.57147,5.83793 -1.64965,5.8099 -0.9073,-0.0249 -7.88531,-0.82964 -15.50666,-1.79111 -7.85458,-0.99094 -16.85334,-3.04146 -20.77442,-4.73385 -3.80462,-1.64212 -8.98594,-5.2752 -11.514,-8.07346 -2.52812,-2.7983 -4.97293,-6.58746 -5.43297,-8.42036 -0.45988,-1.8329 -1.30154,-3.33256 -1.86996,-3.33256 -0.56847,0 -1.40997,1.49966 -1.87001,3.33256 -0.45988,1.8329 -2.90485,5.62206 -5.43296,8.42036 -2.52806,2.79826 -7.70939,6.43134 -11.514,8.07346 -3.92108,1.69239 -12.919839,3.74291 -20.774423,4.73385 -7.62135,0.96147 -14.599362,1.76751 -15.50666,1.79111 -1.078183,0.0299 -1.649645,-1.98459 -1.649645,-5.8099 z m 33.120008,-57.05895 c 2.4705,-1.21275 5.96397,-3.73673 7.7633,-5.60878 1.79929,-1.87211 4.33807,-5.35949 5.64181,-7.74974 1.30368,-2.3903 2.678,-6.84434 3.05398,-9.89787 0.37609,-3.05354 0.11074,-6.40226 -0.58917,-7.44154 -1.06316,-1.57837 -2.16294,-1.62291 -6.67724,-0.27034 -2.97248,0.89058 -7.56638,3.51741 -10.20877,5.83743 -2.64233,2.32001 -5.88576,6.59878 -7.207551,9.50841 -1.321792,2.90959 -2.416285,8.11107 -2.432246,11.5588 -0.02494,5.7055 0.249394,6.26863 3.067554,6.26863 1.703066,0 5.117823,-0.99224 7.588333,-2.20495 z m 57.91123,-4.06368 c -0.015,-3.44773 -1.11046,-8.64921 -2.43225,-11.55879 -1.32179,-2.90964 -4.56522,-7.18841 -7.20756,-9.50842 -2.64238,-2.32002 -7.23628,-4.94685 -10.20876,-5.83743 -4.5143,-1.35252 -5.61408,-1.30798 -6.67725,0.27034 -0.7,1.03928 -0.96515,4.388 -0.58917,7.44154 0.37609,3.05353 1.73779,7.51101 3.02616,9.9055 1.28842,2.39444 3.79603,5.83479 5.57247,7.64519 1.77649,1.81041 5.04276,4.26665 7.25843,5.4583 2.21567,1.19166 5.66161,2.23094 7.65771,2.3095 3.47362,0.13667 3.62795,-0.1257 3.60022,-6.12578 z m -51.35215,-43.26593 c 3.12536,-1.61618 3.66146,-2.48198 2.65595,-4.28909 -0.69292,-1.24528 -2.86854,-3.96532 -4.83477,-6.04458 -1.96622,-2.0792 -6.01175,-4.88708 -8.990123,-6.23965 -2.978321,-1.35257 -8.255112,-2.4723 -11.726186,-2.48821 -3.471075,-0.015 -8.370482,0.83153 -10.887622,1.88323 -2.51714,1.05175 -4.576591,2.19707 -4.576591,2.54517 0,0.34816 0.750029,1.41771 1.666754,2.37683 0.916675,0.95917 2.658397,3.29525 3.870405,5.19135 1.212058,1.89605 4.767578,4.7165 7.901171,6.26759 3.839929,1.90068 8.192913,2.8205 13.351391,2.8212 4.300461,6e-4 9.369511,-0.8861 11.569621,-2.02384 z m 58.95115,-0.76539 c 3.17015,-1.53463 6.76473,-4.35553 7.98791,-6.26864 1.22318,-1.9131 2.97403,-4.2631 3.89071,-5.22227 0.91672,-0.95912 1.66675,-2.02872 1.66675,-2.37683 0,-0.34815 -2.05945,-1.49342 -4.57659,-2.54517 -2.51714,-1.0517 -7.41655,-1.89919 -10.88762,-1.88323 -3.47108,0.015 -8.74787,1.13564 -11.72619,2.48821 -2.97837,1.35257 -7.0239,4.16045 -8.99013,6.23965 -1.96622,2.07926 -4.1403,4.79636 -4.83127,6.038 -0.99174,1.78222 -0.48831,2.67421 2.39155,4.23621 2.03027,1.10128 7.12066,2.00209 11.47943,2.03152 5.36283,0.0349 9.64843,-0.82674 13.59545,-2.73745 z M 132.93023,154.3461 c 3.18541,-4.81346 3.64794,-6.79181 3.64794,-15.60302 0,-8.81122 -0.46238,-10.78951 -3.64794,-15.60298 -2.00638,-3.03184 -4.22495,-5.51242 -4.93019,-5.51242 -0.70528,0 -2.92385,2.48058 -4.93023,5.51242 -3.18542,4.81347 -3.64794,6.79176 -3.64794,15.60298 0,8.81121 0.46237,10.78956 3.64794,15.60302 2.00638,3.03179 4.22495,5.51242 4.93023,5.51242 0.70524,0 2.92381,-2.48063 4.93019,-5.51242 z"
       id="path5017"
       inkscape:connector-curvature="0" />
  </g>
</svg>
