<?xml version="1.0" encoding="UTF-8" standalone="no"?>
<!-- Created with Inkscape (http://www.inkscape.org/) -->

<svg
   xmlns:dc="http://purl.org/dc/elements/1.1/"
   xmlns:cc="http://creativecommons.org/ns#"
   xmlns:rdf="http://www.w3.org/1999/02/22-rdf-syntax-ns#"
   xmlns:svg="http://www.w3.org/2000/svg"
   xmlns="http://www.w3.org/2000/svg"
   xmlns:sodipodi="http://sodipodi.sourceforge.net/DTD/sodipodi-0.dtd"
   xmlns:inkscape="http://www.inkscape.org/namespaces/inkscape"
   width="256mm"
   height="256mm"
   viewBox="0 0 256 256"
   version="1.1"
   id="svg8"
   inkscape:version="0.92.5 (2060ec1f9f, 2020-04-08)"
   sodipodi:docname="civ6_zulu.svg">
  <defs
     id="defs2" />
  <sodipodi:namedview
     id="base"
     pagecolor="#ffffff"
     bordercolor="#666666"
     borderopacity="1.0"
     inkscape:pageopacity="0.0"
     inkscape:pageshadow="2"
     inkscape:zoom="1.4"
     inkscape:cx="309.22821"
     inkscape:cy="383.77074"
     inkscape:document-units="mm"
     inkscape:current-layer="layer1"
     showgrid="false"
     inkscape:window-width="3840"
     inkscape:window-height="2056"
     inkscape:window-x="0"
     inkscape:window-y="50"
     inkscape:window-maximized="1" />
  <metadata
     id="metadata5">
    <rdf:RDF>
      <cc:Work
         rdf:about="">
        <dc:format>image/svg+xml</dc:format>
        <dc:type
           rdf:resource="http://purl.org/dc/dcmitype/StillImage" />
        <dc:title></dc:title>
      </cc:Work>
    </rdf:RDF>
  </metadata>
  <g
     inkscape:label="Layer 1"
     inkscape:groupmode="layer"
     id="layer1"
     transform="translate(0,-41)">
    <rect
       style="fill:#000000;fill-opacity:1;stroke:none;stroke-width:0.73613685;stroke-miterlimit:4;stroke-dasharray:none;stroke-opacity:1;paint-order:stroke fill markers"
       id="rect4747"
       width="256"
       height="256"
       x="-1.4210855e-14"
       y="41" />
    <g
       id="g5134" />
    <path
       style="fill:#ffffff;stroke-width:1.26757467"
       d="m 117.85948,282.87354 c -4.5316,-3.35904 -12.07266,-10.18819 -16.75796,-15.17587 -4.685286,-4.98769 -11.151953,-13.06552 -14.370339,-17.95073 -3.218339,-4.88517 -6.43294,-9.24147 -7.143564,-9.68065 -0.710577,-0.43932 -6.518408,4.40628 -12.906362,10.76764 -6.387906,6.36137 -12.480696,11.56608 -13.539567,11.56608 -1.058869,0 -4.61319,-2.729 -7.898551,-6.06452 -3.285314,-3.33548 -5.973308,-6.60709 -5.973308,-7.27024 0,-0.66314 6.874368,-8.09665 15.276387,-16.51884 l 15.276387,-15.31318 -1.97732,-9.42285 c -1.087518,-5.18258 -2.555957,-15.96105 -3.263181,-23.95216 -0.877776,-9.91826 -0.868626,-19.33417 0.02875,-29.66943 0.723034,-8.32709 2.121286,-18.61598 3.107191,-22.86416 0.985906,-4.24822 2.363462,-9.22393 3.0612,-11.05715 1.139883,-2.99484 0.624915,-4.05539 -5.074068,-10.44948 -5.155368,-5.78421 -7.63012,-7.49061 -13.220114,-9.11566 -3.782555,-1.099638 -6.882846,-2.671846 -6.889505,-3.493857 -0.0048,-0.821964 -2.003095,-7.683204 -4.436503,-15.247115 -2.433409,-7.56396 -4.424431,-15.407081 -4.424431,-17.429148 0,-2.022115 0.248644,-3.676534 0.552813,-3.676534 0.304219,0 7.576752,2.93932 16.161591,6.53187 8.584838,3.592551 16.259753,7.033375 17.055414,7.646266 0.795663,0.61294 1.828422,3.660197 2.295049,6.771652 0.480616,3.205163 2.237415,7.308033 4.053189,9.465968 1.762691,2.094792 3.86716,3.803731 4.67662,3.797646 0.809507,-0.0048 3.753426,-3.567303 6.542122,-7.913786 2.788649,-4.346484 8.962931,-12.010284 13.72061,-17.030695 4.75768,-5.02041 12.6008,-11.827226 17.42915,-15.12629 L 128,49.000002 l 8.77882,5.998315 c 4.82834,3.299064 12.67147,10.10588 17.42915,15.12629 4.75768,5.020411 10.93196,12.684211 13.72066,17.030695 2.78865,4.346483 5.73256,7.907702 6.54207,7.913786 0.80946,0.0048 2.91398,-1.702854 4.67662,-3.797646 1.81578,-2.157935 3.57257,-6.260805 4.05324,-9.465968 0.46663,-3.111455 1.49934,-6.158712 2.295,-6.771652 0.79566,-0.612891 8.47062,-4.053715 17.05546,-7.646266 8.58479,-3.59255 15.85752,-6.53187 16.16154,-6.53187 0.30422,0 0.55282,1.654419 0.55282,3.676534 0,2.022067 -1.99098,9.865188 -4.42443,17.429148 -2.43342,7.563911 -4.42985,14.425151 -4.43651,15.247115 -0.005,0.822011 -3.1069,2.394219 -6.88951,3.493857 -5.58999,1.62505 -8.06469,3.33145 -13.22011,9.11566 -5.69898,6.39409 -6.21395,7.45464 -5.07407,10.44948 0.69774,1.83322 2.0753,6.80893 3.0612,11.05715 0.98595,4.24818 2.38416,14.53707 3.10724,22.86416 0.89742,10.33526 0.90652,19.75117 0.0287,29.66943 -0.70722,7.99111 -2.17561,18.76958 -3.26313,23.95216 l -1.97732,9.42285 15.27638,15.31318 c 8.40198,8.42219 15.27634,15.89675 15.27634,16.61006 0,0.71331 -2.729,3.98492 -6.06447,7.27023 -3.33553,3.28532 -6.88985,5.97331 -7.89856,5.97331 -1.00871,0 -7.06049,-5.20471 -13.44839,-11.56608 -6.38791,-6.36136 -12.19579,-11.20676 -12.90636,-10.76764 -0.71058,0.43932 -3.9442,4.82437 -7.18587,9.74485 -3.24157,4.92047 -9.99095,13.25949 -14.99852,18.53118 -5.00762,5.27169 -12.6021,12.08057 -16.87667,15.13084 -4.27457,3.05028 -8.55513,5.53734 -9.51234,5.5268 -0.95721,-0.01 -5.44804,-2.76742 -9.9796,-6.12642 z m 22.67472,-22.39451 c 5.48417,-5.23954 12.72326,-13.62824 16.08681,-18.64156 3.36355,-5.01332 8.34108,-14.27362 11.06112,-20.57845 2.72005,-6.30484 5.8236,-15.45619 6.89679,-20.33637 1.2872,-5.85311 1.96999,-15.77564 2.00621,-29.15419 0.0288,-11.15469 -0.64087,-24.50674 -1.49129,-29.67121 -0.85037,-5.16452 -3.72219,-14.67485 -6.38182,-21.13409 -2.65958,-6.45924 -7.52621,-16.06103 -10.81478,-21.337271 -3.28852,-5.276288 -8.75664,-12.632182 -12.15128,-16.346467 -3.39464,-3.714334 -8.47431,-8.348746 -11.28816,-10.298711 -3.78189,-2.620826 -5.96962,-3.331211 -8.38899,-2.72402 -1.80011,0.451775 -7.41817,4.938534 -12.48462,9.970443 -5.06641,5.031908 -11.96765,13.613632 -15.336085,19.07044 -3.368435,5.456806 -8.300455,15.206346 -10.960038,21.665586 -2.659583,6.45924 -5.5314,15.96957 -6.381821,21.13409 -0.850373,5.16447 -1.521474,18.51652 -1.491243,29.67121 0.03833,13.37855 0.719008,23.30108 2.006161,29.15419 1.073195,4.88018 4.176745,14.03153 6.896836,20.33637 2.720044,6.30483 7.697529,15.56513 11.061076,20.57845 3.363594,5.01332 10.602644,13.40202 16.086804,18.64156 5.68155,5.42811 11.07382,9.52643 12.53416,9.52643 1.46034,0 6.85262,-4.09832 12.53416,-9.52643 z M 90.254839,203.38595 c -1.765806,-1.23685 -2.817154,-3.29226 -2.817154,-5.50764 0,-1.94393 1.043108,-4.47842 2.318044,-5.6322 1.87451,-1.69643 5.111292,-2.09786 16.915811,-2.09786 12.53224,0 14.89456,0.32817 16.69553,2.3181 1.15382,1.27493 2.09786,3.80943 2.09786,5.63219 0,1.98782 -1.12748,4.10388 -2.81721,5.28741 -2.11783,1.48334 -6.13873,1.9732 -16.19642,1.9732 -10.057727,0 -14.078625,-0.48986 -16.196461,-1.9732 z m 43.097571,0 c -1.76585,-1.23685 -2.8172,-3.29226 -2.8172,-5.50764 0,-1.94393 1.04311,-4.47842 2.31804,-5.6322 1.87451,-1.69643 5.1113,-2.09786 16.91581,-2.09786 12.53225,0 14.89456,0.32817 16.69558,2.3181 1.15378,1.27493 2.09781,3.80943 2.09781,5.63219 0,1.98782 -1.12748,4.10388 -2.8172,5.28741 -2.11779,1.48334 -6.13869,1.9732 -16.19642,1.9732 -10.05773,0 -14.07863,-0.48986 -16.19642,-1.9732 z M 90.254839,180.56961 c -1.765806,-1.23685 -2.817154,-3.29226 -2.817154,-5.50764 0,-1.94393 1.043108,-4.47842 2.318044,-5.6322 1.87451,-1.69643 5.111292,-2.09786 16.915811,-2.09786 12.53224,0 14.89456,0.32817 16.69553,2.3181 1.15382,1.27493 2.09786,3.75337 2.09786,5.50763 0,1.75426 -1.04316,4.13358 -2.3181,5.28736 -1.85985,1.68316 -5.06127,2.09781 -16.19642,2.09781 -10.509455,0 -14.562214,-0.47908 -16.695571,-1.9732 z m 42.378181,-0.34494 c -1.15383,-1.27494 -2.09781,-3.75338 -2.09781,-5.50764 0,-1.75426 1.04311,-4.13358 2.31804,-5.28736 1.87451,-1.69643 5.1113,-2.09785 16.91581,-2.09785 12.53225,0 14.89456,0.32817 16.69558,2.31809 1.15378,1.27494 2.09781,3.80943 2.09781,5.6322 0,1.98781 -1.12748,4.10387 -2.8172,5.2874 -2.13983,1.49877 -6.20701,1.9732 -16.91581,1.9732 -12.04866,0 -14.40364,-0.33727 -16.19642,-2.31804 z m -42.378181,-22.4715 c -1.638322,-1.14755 -2.817154,-3.30405 -2.817154,-5.15365 0,-1.74922 0.590469,-4.28372 1.312161,-5.6322 1.188223,-2.22021 2.786253,-2.4518 16.915814,-2.4518 13.5067,0 15.88554,0.3114 17.70141,2.31804 1.15382,1.27494 2.09786,3.75338 2.09786,5.50764 0,1.75426 -1.04316,4.13358 -2.3181,5.28736 -1.85985,1.68316 -5.06127,2.09786 -16.19642,2.09786 -10.509455,0 -14.562213,-0.47909 -16.695571,-1.97325 z m 42.378181,-0.34494 c -1.15383,-1.27494 -2.09781,-3.75338 -2.09781,-5.50764 0,-1.75426 1.04311,-4.13358 2.31804,-5.28736 1.88893,-1.70946 5.16591,-2.09781 17.70146,-2.09781 13.91177,0 15.50889,0.23475 16.69558,2.45181 0.72169,1.34847 1.31216,3.88297 1.31216,5.6322 0,1.8496 -1.17883,4.00609 -2.8172,5.15364 -2.13983,1.49877 -6.20701,1.97325 -16.91581,1.97325 -12.04866,0 -14.40364,-0.33727 -16.19642,-2.31809 z"
       id="path5198"
       inkscape:connector-curvature="0" />
  </g>
</svg>
