<?xml version="1.0" encoding="UTF-8" standalone="no"?>
<!-- Created with Inkscape (http://www.inkscape.org/) -->

<svg
   xmlns:dc="http://purl.org/dc/elements/1.1/"
   xmlns:cc="http://creativecommons.org/ns#"
   xmlns:rdf="http://www.w3.org/1999/02/22-rdf-syntax-ns#"
   xmlns:svg="http://www.w3.org/2000/svg"
   xmlns="http://www.w3.org/2000/svg"
   xmlns:sodipodi="http://sodipodi.sourceforge.net/DTD/sodipodi-0.dtd"
   xmlns:inkscape="http://www.inkscape.org/namespaces/inkscape"
   width="256mm"
   height="256mm"
   viewBox="0 0 256 256"
   version="1.1"
   id="svg8"
   inkscape:version="0.92.5 (2060ec1f9f, 2020-04-08)"
   sodipodi:docname="civ6_persia.svg">
  <defs
     id="defs2" />
  <sodipodi:namedview
     id="base"
     pagecolor="#ffffff"
     bordercolor="#666666"
     borderopacity="1.0"
     inkscape:pageopacity="0.0"
     inkscape:pageshadow="2"
     inkscape:zoom="0.7"
     inkscape:cx="91.291414"
     inkscape:cy="742.25796"
     inkscape:document-units="mm"
     inkscape:current-layer="layer1"
     showgrid="false"
     inkscape:window-width="3840"
     inkscape:window-height="2056"
     inkscape:window-x="0"
     inkscape:window-y="50"
     inkscape:window-maximized="1" />
  <metadata
     id="metadata5">
    <rdf:RDF>
      <cc:Work
         rdf:about="">
        <dc:format>image/svg+xml</dc:format>
        <dc:type
           rdf:resource="http://purl.org/dc/dcmitype/StillImage" />
        <dc:title></dc:title>
      </cc:Work>
    </rdf:RDF>
  </metadata>
  <g
     inkscape:label="Layer 1"
     inkscape:groupmode="layer"
     id="layer1"
     transform="translate(0,-41)">
    <rect
       style="fill:#000000;fill-opacity:1;stroke:none;stroke-width:0.32538173;stroke-opacity:1"
       id="rect816"
       width="256"
       height="256"
       x="0"
       y="41" />
    <g
       id="g4932">
      <g
         id="g4918">
        <path
           style="fill:#ffffff;stroke-width:4.63245869"
           d="M 515.25391 373.93945 C 462.22967 374.02475 403.22114 413.56733 391.36719 471.03906 C 388.64672 484.22893 380.66396 564.85591 373.62695 650.20898 L 360.83203 805.39648 L 430.42969 807.89648 L 430.43359 807.89648 C 468.71261 809.27159 523.48507 810.83531 552.14844 811.37109 L 604.26172 812.34375 L 604.21094 797.28906 C 604.18452 789.00857 600.01476 735.36494 594.94531 678.08008 C 589.87591 620.79525 585.72852 556.88098 585.72852 536.04883 L 585.72852 498.17188 L 615.83984 487.37305 C 632.40079 481.43363 645.89824 475.5142 645.8457 474.2168 C 645.78844 472.92012 635.40855 464.56214 622.7793 455.64453 C 608.76356 445.74837 597.9411 433.88556 595.00195 425.19922 C 592.35345 417.37189 583.45128 404.48274 575.21875 396.55469 C 558.96449 380.90181 537.64192 373.90344 515.25391 373.93945 z M 545.6875 423.5332 C 552.60267 423.48126 559.19173 426.19382 564.10156 431.61914 C 569.96675 438.10009 570.44814 441.27842 566.20898 445.51758 C 558.57755 453.14886 538.31954 452.38746 527.54883 444.06445 C 518.64751 437.18605 518.64751 437.0446 527.54883 430.16602 C 533.22873 425.77703 539.58588 423.57903 545.6875 423.5332 z "
           transform="matrix(0.26458333,0,0,0.26458333,0,41)"
           id="path4891" />
        <g
           id="g4908">
          <g
             id="g4896">
            <path
               style="fill:#ffffff;stroke-width:1.22567141"
               d="M 75.838492,249.76634 C 36.564876,246.53399 9.5765873,226.88278 8.0818783,200.43014 c -0.586192,-10.37412 1.9411387,-17.63943 8.6788187,-24.9489 10.469311,-11.35791 30.442065,-12.95458 39.321006,-3.14349 2.192126,2.42231 2.115506,2.47067 -6.131244,3.87 -12.195458,2.06937 -18.788883,5.73814 -22.139958,12.31929 -3.065529,6.02034 -3.36474,9.40264 -1.443706,16.32071 4.032093,14.52039 26.350678,25.30235 59.044442,28.5239 7.857716,0.77427 8.426304,1.02451 7.781975,3.42492 -0.382177,1.42434 -0.702605,5.20952 -0.711823,8.41157 -0.0139,5.26771 -0.279337,5.80535 -2.774473,5.64729 -1.516806,-0.0959 -7.757562,-0.58615 -13.868424,-1.08909 z"
               id="path4887" />
            <path
               style="fill:#ffffff;stroke-width:1.22567141"
               d="M 75.30525,228.3225 C 40.658256,222.88923 23.086598,208.07643 30.432566,190.495 c 1.769414,-4.23477 8.438255,-8.30554 16.21041,-9.89507 3.482729,-0.71229 3.880889,-0.46649 4.534019,2.7992 1.16548,5.82736 7.968339,7.88167 28.269349,8.5367 l 17.010668,0.5489 -0.821335,13.03255 c -0.451665,7.16789 -1.145237,15.65238 -1.54122,18.85447 -0.690236,5.58189 -0.877665,5.81703 -4.545461,5.70321 -2.104063,-0.0653 -8.513718,-0.8539 -14.243746,-1.75246 z"
               id="path4883" />
          </g>
          <g
             id="g4900">
            <path
               style="fill:#ffffff;stroke-width:1.22567141"
               d="m 163.55359,248.12135 c 0,-1.58258 -0.33631,-5.3301 -0.74703,-8.32782 l -0.74707,-5.45032 12.82695,-1.491 c 37.58769,-4.36924 58.28764,-18.39244 55.642,-37.69469 -1.46687,-10.70191 -8.56949,-16.17618 -24.61244,-18.96997 -8.05571,-1.40284 -8.14285,-1.45922 -5.96731,-3.86319 3.7088,-4.09815 9.23963,-6.25085 16.30876,-6.34767 19.06531,-0.26127 32.79666,14.67285 31.67894,34.45345 -1.59626,28.25003 -29.29646,46.70973 -74.88385,49.90326 -9.33968,0.65429 -9.49895,0.61718 -9.49895,-2.21205 z"
               id="path4885" />
            <path
               style="fill:#ffffff;stroke-width:1.22567141"
               d="m 161.88572,226.82307 c -0.35021,-1.85382 -0.95952,-7.783 -1.35379,-13.17597 -0.39422,-5.39292 -1.02192,-12.36278 -1.39483,-15.48849 l -0.67805,-5.68319 17.56174,-0.53968 c 20.8816,-0.64174 27.64198,-2.64416 28.82048,-8.53661 0.65313,-3.26569 1.05129,-3.51149 4.53402,-2.7992 15.56154,3.18259 21.41729,12.95402 15.53161,25.91754 -4.7289,10.41576 -20.88262,18.20751 -45.41445,21.90569 -16.26072,2.45127 -16.85122,2.39763 -17.60673,-1.60009 z"
               id="path4881" />
          </g>
        </g>
      </g>
      <circle
         r="24.3025"
         cy="106.3695"
         cx="132.9565"
         id="path4920"
         style="fill:#ffffff;fill-opacity:1;stroke:none;stroke-width:0.44014585;stroke-miterlimit:4;stroke-dasharray:none;stroke-opacity:1;paint-order:stroke fill markers" />
    </g>
  </g>
</svg>
