<?xml version="1.0" encoding="UTF-8" standalone="no"?>
<!-- Created with Inkscape (http://www.inkscape.org/) -->

<svg
   xmlns:dc="http://purl.org/dc/elements/1.1/"
   xmlns:cc="http://creativecommons.org/ns#"
   xmlns:rdf="http://www.w3.org/1999/02/22-rdf-syntax-ns#"
   xmlns:svg="http://www.w3.org/2000/svg"
   xmlns="http://www.w3.org/2000/svg"
   xmlns:sodipodi="http://sodipodi.sourceforge.net/DTD/sodipodi-0.dtd"
   xmlns:inkscape="http://www.inkscape.org/namespaces/inkscape"
   width="256mm"
   height="256mm"
   viewBox="0 0 256 256"
   version="1.1"
   id="svg8"
   inkscape:version="0.92.5 (2060ec1f9f, 2020-04-08)"
   sodipodi:docname="civ6_aztec.svg">
  <defs
     id="defs2" />
  <sodipodi:namedview
     id="base"
     pagecolor="#ffffff"
     bordercolor="#666666"
     borderopacity="1.0"
     inkscape:pageopacity="0.0"
     inkscape:pageshadow="2"
     inkscape:zoom="0.7"
     inkscape:cx="337.07094"
     inkscape:cy="626.11794"
     inkscape:document-units="mm"
     inkscape:current-layer="layer1"
     showgrid="false"
     inkscape:window-width="3840"
     inkscape:window-height="2056"
     inkscape:window-x="0"
     inkscape:window-y="50"
     inkscape:window-maximized="1" />
  <metadata
     id="metadata5">
    <rdf:RDF>
      <cc:Work
         rdf:about="">
        <dc:format>image/svg+xml</dc:format>
        <dc:type
           rdf:resource="http://purl.org/dc/dcmitype/StillImage" />
        <dc:title></dc:title>
      </cc:Work>
    </rdf:RDF>
  </metadata>
  <g
     inkscape:label="Layer 1"
     inkscape:groupmode="layer"
     id="layer1"
     transform="translate(0,-41)">
    <rect
       style="fill:#000000;fill-opacity:1;stroke:none;stroke-width:0.73613685;stroke-miterlimit:4;stroke-dasharray:none;stroke-opacity:1;paint-order:stroke fill markers"
       id="rect4747"
       width="256"
       height="256"
       x="-1.4210855e-14"
       y="41" />
    <path
       style="fill:#ffffff;stroke-width:1.24031603"
       d="m 66.396574,244.36756 c -3.52514,-1.25563 -8.44706,-3.8372 -10.93755,-5.7368 -2.4905,-1.89959 -6.1806,-5.73488 -8.2002,-8.52286 -2.0196,-2.78798 -4.9117,-9.00954 -6.42685,-13.82575 -2.34451,-7.4523 -2.72192,-11.25093 -2.53371,-25.50094 0.15095,-11.40975 0.97924,-20.01835 2.6007,-27.02114 1.30879,-5.65223 2.03728,-10.48836 1.61894,-10.74689 -0.41815,-0.25877 -6.89099,-1.40044 -14.3837,-2.53751 -7.49271,-1.13708 -14.90283,-2.31761 -16.46691,-2.62344 -1.56409,-0.30565 -3.1604298,-1.38112 -3.5474098,-2.38957 -0.38721,-1.00848 0.19501,-3.72737 1.29341,-6.04202 1.0983598,-2.3146 1.9970098,-4.91732 1.9970098,-5.78377 0,-0.86645 0.97127,-2.64857 2.15832,-3.96026 2.09493,-2.31484 2.1967,-2.22662 3.46518,3.0031 1.23945,5.11 1.62414,5.47072 7.45413,6.99037 3.38103,0.88131 10.48963,1.7185 15.79693,1.8605 7.42211,0.19829 9.92897,-0.17111 10.85987,-1.60234 0.66562,-1.02326 1.06751,-2.97676 0.89303,-4.3411 -0.20955,-1.64017 -2.83852,-3.76445 -7.75907,-6.2699 -4.09302,-2.08406 -9.70203,-6.08431 -12.46447,-8.8894 -3.40672,-3.45937 -6.56865,-5.39023 -9.8285,-6.0018 -4.10671,-0.77039 -5.13545,-0.49466 -7.07053,1.89505 -1.24551,1.53811 -2.28231,3.99059 -2.30401,5.4499 -0.0375,2.59982 -0.076,2.60478 -1.86045,0.24565 -1.2556798,-1.66015 -1.8210298,-5.54967 -1.8210298,-12.52817 0,-5.56631 0.63478,-11.941448 1.4106098,-14.167032 1.32848,-3.810954 1.6893,-4.009155 6.19822,-3.404381 2.63319,0.353461 8.4367,2.349765 12.89663,4.436824 l 8.10902,3.794689 3.9874,-2.43124 c 2.1931,-1.337197 6.13564,-2.433348 8.76124,-2.435879 2.62559,-0.0026 6.7188,0.918295 9.09594,2.046369 2.37719,1.128028 6.59429,5.0604 9.3714,8.73864 3.51262,4.65246 5.44386,6.29301 6.34598,5.39089 0.7132,-0.71321 3.11899,-1.29675 5.34612,-1.29675 2.73416,0 4.46645,0.77926 5.33336,2.39908 0.70618,1.31953 1.284,3.57746 1.284,5.01765 0,1.44023 -1.37002,3.98853 -3.04446,5.66296 -1.94004,1.9401 -4.45763,3.04441 -6.94044,3.04441 -2.14279,0 -5.52308,-0.9611 -7.51169,-2.13582 -1.98862,-1.17471 -5.85414,-5.32694 -8.58999,-9.2272 -2.7359,-3.90025 -6.1272,-7.45727 -7.53631,-7.90449 -1.40906,-0.44721 -4.42332,-0.46409 -6.69827,-0.0375 -3.38057,0.63422 -4.48877,0.27283 -6.06523,-1.97792 -1.0609,-1.51463 -2.23641,-2.44634 -2.61228,-2.07052 -0.37596,0.37597 -0.12329,2.15616 0.5609,3.95623 0.68442,1.80003 1.80879,3.2728 2.49869,3.2728 0.68991,0 2.05186,1.90859 3.0265,4.24125 0.97469,2.3327 2.98627,4.89112 4.47029,5.68532 2.06395,1.10459 3.54867,1.0917 6.31654,-0.0549 3.30847,-1.37038 3.84007,-1.21695 6.20629,1.79122 1.42336,1.80949 4.74547,4.39074 7.38255,5.73605 2.63703,1.3453 6.23989,2.446 8.0064,2.446 1.76646,0 4.85849,-0.85154 6.87111,-1.89233 2.01266,-1.04074 3.6594,-1.6863 3.6594,-1.43447 0,0.25174 -1.05837,3.47545 -2.35193,7.16368 -1.29355,3.68818 -4.0715,10.33376 -6.17318,14.76786 -2.10174,4.43415 -4.97297,12.52719 -6.38063,17.98459 -1.40761,5.45741 -2.89889,15.34527 -3.31395,21.97303 -0.61129,9.76209 -0.34643,13.11893 1.39401,17.67661 1.18175,3.09433 3.34255,6.46233 4.80187,7.48446 1.45927,1.02213 4.24012,1.85839 6.1797,1.85839 1.93958,0 4.54741,-0.54637 5.79516,-1.21415 1.24776,-0.66773 2.88549,-2.9836 3.63943,-5.14632 0.7539,-2.16272 1.37076,-7.04048 1.37076,-10.83948 0,-3.79896 -0.93596,-14.42256 -2.07993,-23.60795 -1.70735,-13.70922 -1.82764,-18.43176 -0.67139,-26.36475 0.77471,-5.31518 2.85492,-12.72136 4.6227,-16.4581 1.90451,-4.02585 5.76478,-9.08741 9.474106,-12.42237 3.97662,-3.57539 8.56013,-6.31134 12.56614,-7.50101 3.46842,-1.03 8.89428,-1.87273 12.05756,-1.87273 3.16324,0 8.5891,0.84273 12.05752,1.87273 4.00601,1.18967 8.58951,3.92562 12.56614,7.50101 3.70932,3.33496 7.56959,8.39652 9.4741,12.42237 1.76778,3.73674 3.84799,11.14292 4.6227,16.4581 1.15625,7.93299 1.03596,12.65553 -0.67139,26.36475 -1.14396,9.18539 -2.07993,19.80899 -2.07993,23.60795 0,3.799 0.61687,8.67676 1.37076,10.83948 0.75394,2.16272 2.39167,4.47859 3.63943,5.14632 1.24775,0.66778 3.85553,1.21415 5.79516,1.21415 1.93958,0 4.72044,-0.83626 6.1797,-1.85839 1.45932,-1.02213 3.62012,-4.39013 4.80187,-7.48446 1.74058,-4.55768 2.0053,-7.91452 1.39401,-17.67661 -0.41487,-6.62776 -1.90634,-16.51562 -3.31395,-21.97303 -1.40766,-5.4574 -4.27889,-13.55044 -6.38062,-17.98459 -2.10169,-4.4341 -4.87964,-11.07968 -6.17319,-14.76786 -1.29356,-3.68823 -2.35192,-6.91185 -2.35192,-7.16368 0,-0.25173 1.64673,0.39378 3.65939,1.43447 2.01262,1.04079 5.10465,1.89233 6.87111,1.89233 1.76651,0 5.36937,-1.1007 8.00641,-2.446 2.63703,-1.34531 5.95919,-3.92656 7.38254,-5.73605 2.36627,-3.00817 2.89787,-3.1616 6.20629,-1.79122 2.76787,1.1465 4.25259,1.15939 6.31654,0.0549 1.48397,-0.7942 3.49561,-3.35258 4.47029,-5.68528 0.97465,-2.3327 2.3366,-4.24129 3.0265,-4.24129 0.68991,0 1.81428,-1.47277 2.4987,-3.2728 0.68432,-1.80007 0.93676,-3.58036 0.56089,-3.95623 -0.37596,-0.37596 -1.55138,0.55589 -2.61228,2.07052 -1.57646,2.25071 -2.68466,2.61214 -6.06523,1.97792 -2.27494,-0.42659 -5.2892,-0.41018 -6.69827,0.0375 -1.4091,0.44722 -4.80041,4.00424 -7.5363,7.90449 -2.73586,3.90026 -6.60138,8.05249 -8.58999,9.2272 -1.98862,1.17472 -5.3689,2.13582 -7.5117,2.13582 -2.48281,0 -5.00039,-1.10431 -6.94044,-3.04441 -1.67444,-1.67443 -3.04445,-4.22273 -3.04445,-5.66296 0,-1.44019 0.57782,-3.69812 1.28399,-5.01765 0.86691,-1.61982 2.5992,-2.39908 5.33332,-2.39908 2.22718,0 4.63296,0.58354 5.34616,1.29675 0.90217,0.90212 2.83336,-0.73843 6.34603,-5.39089 2.77706,-3.67824 6.99416,-7.610612 9.37135,-8.73864 2.37714,-1.128074 6.47035,-2.048901 9.09595,-2.046369 2.62559,0.0026 6.56813,1.098682 8.76123,2.435879 l 3.9874,2.43124 8.10902,-3.794689 c 4.45994,-2.087059 10.26344,-4.083597 12.89663,-4.436824 4.50892,-0.604774 4.86975,-0.406433 6.19822,3.404381 0.77584,2.225584 1.41061,8.600722 1.41061,14.167032 0,6.9785 -0.56535,10.86802 -1.82102,12.52817 -1.78432,2.35909 -1.82183,2.35412 -1.86045,-0.24565 -0.0234,-1.45931 -1.05851,-3.91179 -2.30402,-5.4499 -1.93508,-2.38971 -2.96382,-2.66544 -7.07052,-1.89505 -3.25986,0.61157 -6.42179,2.54243 -9.82851,6.0018 -2.76243,2.80509 -8.37144,6.80534 -12.46446,8.8894 -4.92056,2.50545 -7.54935,4.62973 -7.75908,6.2699 -0.17438,1.36434 0.22736,3.31784 0.89308,4.3411 0.93085,1.431 3.43766,1.80087 10.85982,1.60234 5.3073,-0.14204 12.4159,-0.97919 15.79693,-1.8605 5.83,-1.51965 6.21468,-1.88037 7.45414,-6.99037 1.26847,-5.22972 1.37024,-5.31794 3.46518,-3.0031 1.18704,1.31169 2.15831,3.09381 2.15831,3.96026 0,0.86645 0.89865,3.46917 1.99701,5.78377 1.09835,2.31465 1.68044,5.03354 1.29346,6.04202 -0.38722,1.00845 -1.98337,2.08378 -3.54745,2.38957 -1.56409,0.30564 -8.97421,1.48636 -16.46692,2.62344 -7.49271,1.13707 -13.96536,2.27893 -14.3837,2.53751 -0.41815,0.2583 0.24471,5.09466 1.47385,10.74689 1.22896,5.65228 2.60422,15.30012 3.05622,21.4397 0.48181,6.5454 0.24564,14.87081 -0.57088,20.12702 -0.76594,4.93031 -2.52444,11.98916 -3.90776,15.68639 -1.38333,3.69723 -4.74889,9.25997 -7.47912,12.36166 -2.78925,3.16877 -8.06912,7.16424 -12.0517,9.1199 -6.51882,3.20116 -8.23259,3.48051 -21.35137,3.48051 -12.23748,0 -14.96837,-0.37925 -19.2249,-2.66999 -2.72868,-1.46851 -6.15411,-3.98014 -7.61197,-5.5814 -1.45791,-1.60131 -3.96954,-5.42309 -5.58144,-8.49286 -2.81813,-5.36702 -2.91296,-6.41517 -2.46931,-27.28694 0.25361,-11.93807 0.53282,-27.94492 0.62015,-35.57081 0.14111,-12.31319 -0.13407,-14.25694 -2.4557,-17.36445 -2.15733,-2.88731 -3.54361,-3.49916 -7.92817,-3.49916 -4.3846,0 -5.77088,0.61185 -7.92821,3.49916 -2.32182,3.10751 -2.59672,5.05126 -2.45571,17.36445 0.0872,7.62589 0.36659,23.63274 0.62015,35.57081 0.44347,20.87177 0.34878,21.91992 -2.4693,27.28694 -1.6119,3.06977 -4.12354,6.89155 -5.58145,8.49286 -1.45786,1.60126 -4.88329,4.08266 -7.61197,5.51427 -3.854596,2.02223 -7.727986,2.6931 -17.364436,3.0076 -9.67241,0.31549 -13.81427,-0.098 -18.81255,-1.87817 z"
       id="path4976"
       inkscape:connector-curvature="0" />
  </g>
</svg>
