<?xml version="1.0" encoding="UTF-8" standalone="no"?>
<!-- Created with Inkscape (http://www.inkscape.org/) -->

<svg
   xmlns:dc="http://purl.org/dc/elements/1.1/"
   xmlns:cc="http://creativecommons.org/ns#"
   xmlns:rdf="http://www.w3.org/1999/02/22-rdf-syntax-ns#"
   xmlns:svg="http://www.w3.org/2000/svg"
   xmlns="http://www.w3.org/2000/svg"
   xmlns:sodipodi="http://sodipodi.sourceforge.net/DTD/sodipodi-0.dtd"
   xmlns:inkscape="http://www.inkscape.org/namespaces/inkscape"
   width="256mm"
   height="256mm"
   viewBox="0 0 256 256"
   version="1.1"
   id="svg8"
   inkscape:version="0.92.5 (2060ec1f9f, 2020-04-08)"
   sodipodi:docname="civ6_scottish.svg">
  <defs
     id="defs2" />
  <sodipodi:namedview
     id="base"
     pagecolor="#ffffff"
     bordercolor="#666666"
     borderopacity="1.0"
     inkscape:pageopacity="0.0"
     inkscape:pageshadow="2"
     inkscape:zoom="0.49497475"
     inkscape:cx="-677.63207"
     inkscape:cy="324.19062"
     inkscape:document-units="mm"
     inkscape:current-layer="layer1"
     showgrid="false"
     inkscape:window-width="3840"
     inkscape:window-height="2056"
     inkscape:window-x="0"
     inkscape:window-y="50"
     inkscape:window-maximized="1" />
  <metadata
     id="metadata5">
    <rdf:RDF>
      <cc:Work
         rdf:about="">
        <dc:format>image/svg+xml</dc:format>
        <dc:type
           rdf:resource="http://purl.org/dc/dcmitype/StillImage" />
        <dc:title></dc:title>
      </cc:Work>
    </rdf:RDF>
  </metadata>
  <g
     inkscape:label="Layer 1"
     inkscape:groupmode="layer"
     id="layer1"
     transform="translate(0,-41)">
    <rect
       style="fill:#000000;fill-opacity:1;stroke:none;stroke-width:0.73613685;stroke-miterlimit:4;stroke-dasharray:none;stroke-opacity:1;paint-order:stroke fill markers"
       id="rect4747"
       width="256"
       height="256"
       x="-1.4210855e-14"
       y="41" />
    <path
       style="fill:#ffffff;stroke-width:1.34078598"
       d="m 109.22893,288.28701 c 0,-0.39224 0.95622,-2.95667 2.12492,-5.69835 1.16871,-2.7417 2.46163,-9.66091 2.87317,-15.37598 0.5102,-7.08528 0.28155,-10.39109 -0.71873,-10.39109 -0.80682,0 -4.9416,0.90501 -9.18839,2.01117 -4.2468,1.10613 -8.871592,2.01119 -10.277327,2.01119 -2.132131,0 -1.75198,-0.88986 2.292878,-5.36703 2.692474,-2.98022 4.848769,-6.77763 4.848769,-8.53905 v -3.17213 l -7.70952,1.81423 c -4.240237,0.9978 -11.329646,1.81697 -15.75424,1.82031 l -8.044711,0.005 4.357551,-3.43427 c 2.396656,-1.88888 4.357555,-3.88473 4.357555,-4.43531 0,-0.55059 -4.11294,-1.07731 -9.139867,-1.17056 -5.603592,-0.10388 -12.033522,-1.25212 -16.618807,-2.9677 -4.113411,-1.539 -9.918975,-4.56575 -12.901226,-6.72613 -2.982297,-2.16034 -7.872572,-7.17321 -10.867334,-11.13971 -2.994763,-3.96718 -5.444968,-7.55277 -5.444968,-7.96866 0,-0.41604 2.564225,-0.41452 5.698344,0.003 l 5.698295,0.75907 -6.328139,-6.16037 c -3.480537,-3.38819 -8.35571,-9.3682 -10.833787,-13.2889 -2.478077,-3.9207 -4.9034,-8.21727 -5.38963,-9.54795 -0.486484,-1.33063 -1.527103,-6.44489 -2.3131292,-11.36497 -0.785975,-4.92012 -1.024453,-12.72352 -0.530013,-17.34091 0.494591,-4.61738 1.4329472,-8.06534 2.0853932,-7.66206 0.652496,0.40337 1.186361,1.79071 1.186361,3.08299 0,1.29232 1.324857,3.77171 2.944138,5.50978 l 2.944087,3.16016 1.768115,-10.61684 c 0.97246,-5.83927 3.87474,-16.04707 6.449506,-22.68392 2.574765,-6.6369 5.223161,-12.91396 5.885286,-13.94906 0.815569,-1.27484 1.512913,1.00383 2.161913,7.0639 0.526922,4.92017 0.593408,14.5157 0.147972,21.32333 -0.445437,6.80763 -1.187172,16.39511 -1.648014,21.30545 -0.626652,6.6775 -0.248816,10.73315 1.497913,16.08943 1.284722,3.93885 3.679337,9.454 5.321422,12.25584 l 2.985549,5.0944 1.468598,-3.75358 c 0.80773,-2.06446 1.647497,-5.24627 1.866151,-7.07068 0.337144,-2.81294 1.055893,-2.07865 4.728702,4.83088 2.382133,4.48143 5.29205,12.30931 6.466482,17.39539 1.205116,5.2189 3.406946,10.61705 5.054352,12.3915 1.605462,1.7293 4.634314,4.03635 6.730779,5.12683 2.096471,1.09043 4.155381,1.63904 4.575354,1.21905 0.419997,-0.4201 0.07515,-2.27452 -0.766248,-4.12123 -0.841409,-1.84671 -1.192508,-3.35765 -0.780213,-3.35765 0.412295,0 3.873565,2.07359 7.691716,4.60791 3.818147,2.53438 11.462319,5.82321 16.987045,7.30861 5.524717,1.4854 14.720947,3.32755 20.436037,4.09371 7.1872,0.96354 13.595,0.96354 20.78219,0 5.7151,-0.76617 14.91132,-2.60831 20.43604,-4.09371 5.52473,-1.4854 13.16889,-4.77423 16.98705,-7.30861 3.81814,-2.53432 7.27942,-4.60791 7.69171,-4.60791 0.4123,0 0.0611,1.51094 -0.78021,3.35765 -0.84142,1.84671 -1.18623,3.70123 -0.76625,4.12123 0.42,0.42009 2.47888,-0.12872 4.57535,-1.21905 2.09647,-1.09048 5.12532,-3.39753 6.73079,-5.12683 1.64739,-1.77445 3.84923,-7.17259 5.05434,-12.3915 1.17443,-5.08608 4.08435,-12.91396 6.46648,-17.39539 3.67281,-6.90953 4.39158,-7.64382 4.7287,-4.83088 0.21867,1.82441 1.05843,5.00622 1.86615,7.07068 l 1.46861,3.75358 2.98556,-5.0944 c 1.64206,-2.80184 4.03668,-8.31699 5.32138,-12.25584 1.74702,-5.35628 2.12461,-9.41193 1.49794,-16.08943 -0.46084,-4.91034 -1.20245,-14.49782 -1.64804,-21.30545 -0.44558,-6.80763 -0.37905,-16.40316 0.14782,-21.32333 0.64898,-6.06007 1.34637,-8.33874 2.1619,-7.0639 0.66214,1.0351 3.31051,7.31216 5.88529,13.94906 2.57476,6.63685 5.47704,16.84465 6.4495,22.68392 l 1.76811,10.61684 2.94412,-3.16016 c 1.61927,-1.73807 2.94413,-4.21746 2.94413,-5.50978 0,-1.29228 0.53384,-2.67957 1.18634,-3.08279 0.65248,-0.40338 1.59091,3.04468 2.08539,7.66207 0.49449,4.61738 0.25596,12.42078 -0.53002,17.34091 -0.78598,4.92007 -1.82688,10.03433 -2.3131,11.36496 -0.48623,1.33064 -2.91156,5.62725 -5.38963,9.54795 -2.47808,3.92071 -7.35327,9.90071 -10.83378,13.28892 l -6.32817,6.1603 5.69834,-0.75902 c 3.13408,-0.41756 5.69834,-0.41858 5.69834,-0.003 0,0.41604 -2.45025,4.00148 -5.445,7.96799 -2.99474,3.96651 -7.88503,8.97942 -10.86731,11.13976 -2.98227,2.16035 -8.78783,5.18709 -12.90124,6.7261 -4.58528,1.71561 -11.01522,2.86381 -16.6188,2.96775 -5.02693,0.0932 -9.13987,0.61991 -9.13987,1.1705 0,0.55059 1.9609,2.54649 4.35756,4.43531 l 4.35755,3.43427 -8.04471,-0.005 c -4.4246,-0.003 -11.51401,-0.82246 -15.75424,-1.82031 l -7.70952,-1.81417 v 3.17207 c 0,1.76143 2.15629,5.55884 4.84876,8.53906 4.04486,4.47716 4.42501,5.36702 2.29288,5.36702 -1.40573,0 -6.03053,-0.90501 -10.27732,-2.01115 -4.2468,-1.10619 -8.38158,-2.0112 -9.1884,-2.0112 -1.00026,0 -1.22892,3.3058 -0.71873,10.39108 0.41154,5.71512 1.70447,12.63429 2.87318,15.37598 1.16869,2.74169 2.12491,5.30596 2.12491,5.69834 0,0.39223 -8.44695,0.71346 -18.771,0.71346 -10.32405,0 -18.771,-0.32129 -18.771,-0.71346 z"
       id="path5128" />
    <g
       id="g5134">
      <path
         id="path5126"
         d="m 105.44259,218.66172 c -5.40092,-1.74866 -12.188653,-4.74702 -15.083833,-6.66295 -2.895186,-1.91594 -5.263971,-4.02804 -5.263971,-4.69356 0,-0.66552 0.685729,-1.43862 1.523839,-1.71799 0.838115,-0.27923 -2.477053,-2.47757 -7.367034,-4.88491 -4.889981,-2.40733 -10.788899,-5.97407 -13.108711,-7.92603 -2.319807,-1.95196 -5.947526,-7.19514 -8.061596,-11.65143 l -3.843768,-8.10239 2.967444,-0.46469 c 1.632092,-0.2554 5.266535,0.22399 8.07654,1.06606 2.810005,0.84192 7.210832,3.37609 9.779623,5.6315 l 4.670516,4.10076 v -7.5965 -7.59654 l 6.209674,4.44084 c 3.415318,2.4425 7.10483,5.79842 8.198922,7.45764 1.094081,1.65921 2.523213,3.01675 3.175825,3.01675 0.652618,0 1.228995,-2.26255 1.280831,-5.02791 0.05189,-2.7654 0.536662,-6.15346 1.077399,-7.52909 0.85344,-2.17104 1.81414,-1.57687 7.28009,4.50261 3.46331,3.85199 6.29691,7.54176 6.29691,8.19943 0,0.65766 0.53621,1.19578 1.19157,1.19578 0.65536,0 1.61252,-2.2626 2.12702,-5.02796 0.5145,-2.76535 2.14582,-7.85083 3.62516,-11.30106 1.47935,-3.45024 3.84063,-7.31469 5.2473,-8.58771 2.42242,-2.19226 2.69277,-2.19226 5.11519,0 1.40667,1.27302 3.76795,5.13747 5.24729,8.58771 1.47934,3.45023 3.11067,8.53571 3.62517,11.30106 0.5145,2.76536 1.47166,5.02796 2.12702,5.02796 0.65536,0 1.19157,-0.53812 1.19157,-1.19578 0,-0.65767 2.8336,-4.34744 6.29691,-8.19943 5.46595,-6.07948 6.42665,-6.67365 7.28009,-4.50261 0.54074,1.37563 1.02558,4.76369 1.0774,7.52909 0.0519,2.76536 0.62821,5.02791 1.28083,5.02791 0.65261,0 2.08174,-1.35754 3.17582,-3.01675 1.0941,-1.65922 4.7836,-5.01514 8.19892,-7.45764 l 6.20968,-4.44084 v 7.59654 7.5965 l 4.67052,-4.10076 c 2.56878,-2.25541 6.96962,-4.78958 9.77962,-5.6315 2.81001,-0.84192 6.44445,-1.32162 8.07653,-1.06606 l 2.96744,0.46469 -3.84376,8.10239 c -2.11407,4.45629 -5.74178,9.69947 -8.0616,11.65143 -2.31979,1.95196 -8.21872,5.5187 -13.1087,7.92603 -4.88999,2.40734 -8.20515,4.60553 -7.36704,4.88491 0.83811,0.27922 1.52384,1.0393 1.52384,1.68865 0,0.64941 -2.26257,2.72624 -5.02794,4.61516 -2.76537,1.88892 -9.73509,4.92747 -15.48825,6.75229 -8.08427,2.56418 -13.26173,3.30419 -22.79337,3.25782 -9.19646,-0.0456 -14.83048,-0.86858 -22.15293,-3.23942 z"
         style="fill:#ffffff;stroke-width:1.34078598" />
      <path
         id="path5124"
         d="m 69.005355,168.88842 c -1.843581,-1.02299 -4.883708,-1.86886 -6.755839,-1.87976 -2.664653,-0.0152 -4.325118,-1.54843 -7.645946,-7.05887 -2.333145,-3.8715 -4.859287,-9.7542 -5.613656,-13.07263 -0.754369,-3.31847 -1.386332,-8.59784 -1.404357,-11.7319 -0.01824,-3.13407 0.582564,-5.69835 1.334653,-5.69835 0.752083,0 3.717029,1.48327 6.588756,3.29608 2.871733,1.81286 6.119245,4.57806 7.216696,6.1449 1.959075,2.79697 2.011802,2.76748 2.899006,-1.62015 0.497025,-2.45785 1.844625,-7.03313 2.994713,-10.1672 1.150087,-3.13407 2.542246,-5.69835 3.093686,-5.69835 0.551434,0 3.158424,2.38626 5.793305,5.30273 2.634881,2.91652 6.127094,7.89421 7.760462,11.06152 l 2.969765,5.75875 1.668669,-8.89956 c 0.917772,-4.89473 2.639767,-10.77744 3.82667,-13.07268 1.186893,-2.29519 2.695155,-4.17311 3.351685,-4.17311 0.656529,0 2.969387,2.2626 5.139677,5.02796 2.17029,2.76535 5.81252,8.31937 8.09385,12.34229 2.55863,4.51183 4.38612,6.56672 4.76967,5.36313 0.34196,-1.07316 1.63823,-4.76207 2.88055,-8.19761 1.24231,-3.43553 4.00785,-8.26236 6.14565,-10.7263 l 3.88691,-4.47986 3.88692,4.47986 c 2.1378,2.46394 4.90334,7.29077 6.14565,10.7263 1.24232,3.43554 2.53856,7.12445 2.88054,8.19761 0.38357,1.20359 2.21105,-0.8513 4.76968,-5.36313 2.28133,-4.02292 5.92356,-9.57694 8.09385,-12.34229 2.17029,-2.76536 4.48315,-5.02796 5.13968,-5.02796 0.65653,0 2.16479,1.87792 3.35168,4.17311 1.1869,2.29524 2.9089,8.17795 3.82667,13.07268 l 1.66868,8.89956 2.96975,-5.75875 c 1.63338,-3.16731 5.12559,-8.145 7.76046,-11.06152 2.63488,-2.91647 5.24188,-5.30273 5.79331,-5.30273 0.55144,0 1.9436,2.56428 3.09369,5.69835 1.15008,3.13407 2.49771,7.70935 2.99471,10.1672 0.88721,4.38763 0.93993,4.41712 2.89901,1.62015 1.09744,-1.56684 4.34496,-4.33204 7.21669,-6.1449 2.87173,-1.81281 5.83667,-3.29608 6.58876,-3.29608 0.75208,0 1.35268,2.56428 1.33464,5.69835 -0.0177,3.13406 -0.64999,8.41343 -1.40435,11.7319 -0.75437,3.31843 -3.28052,9.20113 -5.61366,13.07263 -3.32741,5.52138 -4.976,7.04094 -7.64594,7.04737 -1.87213,0.004 -5.13206,0.90962 -7.2443,2.01121 -2.11223,1.10158 -4.07313,2.00289 -4.35755,2.00289 -0.28444,0 -0.51713,-1.76072 -0.51713,-3.91265 0,-2.15203 -0.36912,-4.87461 -0.82026,-6.05028 -0.72339,-1.88513 -1.3964,-1.79371 -5.69834,0.77412 -2.68295,1.60144 -6.41947,4.32407 -8.30341,6.05028 -1.88393,1.72621 -3.74826,3.13853 -4.14295,3.13853 -0.39471,0 -1.51411,-2.41336 -2.48761,-5.36313 -0.97351,-2.94971 -2.32608,-5.36312 -3.00573,-5.36312 -0.67965,0 -3.91685,2.19698 -7.19377,4.88216 -3.27692,2.68519 -6.10559,4.64607 -6.28592,4.35753 -0.18035,-0.28835 -1.6934,-3.4478 -3.36236,-7.02067 -1.66894,-3.57282 -4.67367,-8.55046 -6.67718,-11.06142 -2.00349,-2.51097 -4.54776,-4.5654 -5.65391,-4.5654 -1.10614,0 -3.65041,2.05443 -5.6539,4.5654 -2.00351,2.51096 -5.00824,7.4886 -6.67718,11.06142 -1.66896,3.57287 -3.18201,6.73217 -3.36236,7.02067 -0.18035,0.28834 -3.009,-1.67234 -6.28593,-4.35753 -3.27691,-2.68518 -6.514107,-4.88216 -7.193765,-4.88216 -0.679648,0 -2.03222,2.41341 -3.005724,5.36312 -0.973504,2.94977 -2.092924,5.36313 -2.487614,5.36313 -0.39466,0 -2.259022,-1.41232 -4.14295,-3.13853 -1.883933,-1.72621 -5.620462,-4.44884 -8.303408,-6.05028 -4.301945,-2.56783 -4.974954,-2.65925 -5.69834,-0.77412 -0.451163,1.17567 -0.820262,3.89825 -0.820262,6.05028 0,2.15193 -0.452531,3.85351 -1.005587,3.7812 -0.553076,-0.0725 -2.513975,-0.96841 -4.357555,-1.99139 z"
         style="fill:#ffffff;stroke-width:1.34078598" />
      <path
         id="path5122"
         d="m 62.301423,124.6216 c 0,-1.91649 0.985043,-5.56035 2.188984,-8.09747 1.203935,-2.53711 4.822552,-7.54206 8.041366,-11.12218 3.218814,-3.58011 8.772647,-8.383175 12.341851,-10.67355 3.569203,-2.290324 6.957658,-4.164249 7.529905,-4.164249 0.572246,0 0.633295,2.715085 0.135658,6.033512 -0.560759,3.739387 -0.393799,6.033557 0.439051,6.033557 0.739095,0 1.75316,-0.66237 2.253483,-1.47191 0.500318,-0.80954 3.670818,-3.222956 7.045549,-5.363129 3.37475,-2.140173 6.59075,-3.891261 7.14671,-3.891261 0.55595,0 1.72677,3.639151 2.60184,8.086979 l 1.59101,8.087031 3.01263,-4.39984 c 1.65694,-2.4199 4.89314,-5.775472 7.19156,-7.45678 l 4.17893,-3.05689 4.17894,3.05689 c 2.29842,1.681308 5.53462,5.03688 7.19156,7.45678 l 3.01263,4.39984 1.59101,-8.087031 c 0.87507,-4.447828 2.04589,-8.086979 2.60184,-8.086979 0.55596,0 3.77196,1.751088 7.14671,3.891261 3.37473,2.140173 6.54523,4.553589 7.04555,5.363129 0.50032,0.80954 1.51439,1.47191 2.25348,1.47191 0.83285,0 0.99979,-2.29417 0.43905,-6.033557 -0.49763,-3.318427 -0.43657,-6.033512 0.13566,-6.033512 0.57225,0 3.96071,1.873925 7.52991,4.164249 3.56919,2.290375 9.12304,7.09344 12.34185,10.67355 3.21881,3.58012 6.87551,8.66534 8.12601,11.30056 1.25048,2.63522 2.0847,6.42989 1.85378,8.43264 -0.37738,3.27312 -0.80271,2.86168 -4.20561,-4.06812 -2.08218,-4.24026 -4.2965,-7.70955 -4.9207,-7.70955 -0.62422,0 -4.19996,3.43888 -7.9461,7.642 -3.74616,4.20306 -6.81118,6.74844 -6.81118,5.65638 0,-1.0921 -2.18924,-5.48555 -4.86497,-9.76327 l -4.86499,-7.7777 -5.95759,5.80846 c -3.27666,3.19467 -6.94937,7.46767 -8.16156,9.4956 -1.21219,2.02798 -2.52642,3.68025 -2.9205,3.67179 -0.39405,-0.0101 -1.8471,-2.37592 -3.22894,-5.26107 -1.38185,-2.88515 -4.54945,-7.22003 -7.03912,-9.63314 l -4.5267,-4.38742 -4.52669,4.38742 c -2.48967,2.41311 -5.65727,6.74799 -7.03912,9.63314 -1.38185,2.88515 -2.83487,5.2526 -3.22894,5.26107 -0.3941,0.0101 -1.70831,-1.64381 -2.9205,-3.67179 -1.21219,-2.02793 -4.8849,-6.30093 -8.16156,-9.4956 l -5.957588,-5.80846 -4.864988,7.7777 c -2.675731,4.27771 -4.864973,8.67117 -4.864973,9.76327 0,1.09206 -3.065029,-1.45332 -6.811176,-5.65638 -3.746141,-4.20312 -7.321887,-7.642 -7.946101,-7.642 -0.624209,0 -2.758489,3.31848 -4.742846,7.37433 -1.984356,4.05591 -3.838791,7.37433 -4.120972,7.37433 -0.28216,0 -0.513053,-1.56805 -0.513053,-3.48454 z"
         style="fill:#ffffff;stroke-width:1.34078598" />
      <path
         id="path5118"
         d="m 114.4522,89.893716 c -0.83559,-3.318426 -1.72276,-6.033512 -1.97147,-6.033512 -0.24872,0 -3.56865,1.837489 -7.37761,4.083371 -3.80897,2.245832 -7.168176,3.840586 -7.464896,3.543831 -0.296704,-0.296451 -0.188968,-1.452965 0.239492,-2.569394 0.42846,-1.11648 3.094494,-2.939526 5.924584,-4.051243 l 5.14562,-2.021238 -5.85525,-16.587672 c -3.220392,-9.12324 -5.872264,-16.738533 -5.893031,-16.92289 -0.02078,-0.184458 13.839361,-0.334964 30.800301,-0.334964 16.96095,0 30.82108,0.151013 30.80031,0.334964 -0.0208,0.184459 -2.67264,7.79965 -5.89303,16.92289 l -5.85525,16.587672 5.14562,2.021238 c 2.83009,1.111717 5.49615,2.934763 5.92458,4.051243 0.42846,1.116429 0.5362,2.27269 0.2395,2.569394 -0.29671,0.296958 -3.65593,-1.297999 -7.4649,-3.543831 -3.80896,-2.245882 -7.12889,-4.083371 -7.37761,-4.083371 -0.24871,0 -1.13588,2.715086 -1.97147,6.033512 -0.83561,3.318477 -1.87601,6.033562 -2.312,6.033562 -0.43601,0 -2.58535,-1.508403 -4.77632,-3.351973 -2.19097,-1.84357 -5.09771,-3.351974 -6.45942,-3.351974 -1.3617,0 -4.26844,1.508404 -6.45941,3.351974 -2.19097,1.84357 -4.34031,3.351973 -4.77632,3.351973 -0.43601,0 -1.47639,-2.715085 -2.312,-6.033562 z"
         style="fill:#ffffff;stroke-width:1.34078598" />
    </g>
  </g>
</svg>
