<?xml version="1.0" encoding="UTF-8" standalone="no"?>
<!-- Created with Inkscape (http://www.inkscape.org/) -->

<svg
   xmlns:dc="http://purl.org/dc/elements/1.1/"
   xmlns:cc="http://creativecommons.org/ns#"
   xmlns:rdf="http://www.w3.org/1999/02/22-rdf-syntax-ns#"
   xmlns:svg="http://www.w3.org/2000/svg"
   xmlns="http://www.w3.org/2000/svg"
   xmlns:sodipodi="http://sodipodi.sourceforge.net/DTD/sodipodi-0.dtd"
   xmlns:inkscape="http://www.inkscape.org/namespaces/inkscape"
   width="256mm"
   height="256mm"
   viewBox="0 0 256 256"
   version="1.1"
   id="svg8"
   inkscape:version="0.92.5 (2060ec1f9f, 2020-04-08)"
   sodipodi:docname="civ6_spain.svg">
  <defs
     id="defs2" />
  <sodipodi:namedview
     id="base"
     pagecolor="#ffffff"
     bordercolor="#666666"
     borderopacity="1.0"
     inkscape:pageopacity="0.0"
     inkscape:pageshadow="2"
     inkscape:zoom="1.4"
     inkscape:cx="75.519059"
     inkscape:cy="325.27588"
     inkscape:document-units="mm"
     inkscape:current-layer="layer1"
     showgrid="false"
     inkscape:window-width="3840"
     inkscape:window-height="2056"
     inkscape:window-x="0"
     inkscape:window-y="50"
     inkscape:window-maximized="1" />
  <metadata
     id="metadata5">
    <rdf:RDF>
      <cc:Work
         rdf:about="">
        <dc:format>image/svg+xml</dc:format>
        <dc:type
           rdf:resource="http://purl.org/dc/dcmitype/StillImage" />
        <dc:title></dc:title>
      </cc:Work>
    </rdf:RDF>
  </metadata>
  <g
     inkscape:label="Layer 1"
     inkscape:groupmode="layer"
     id="layer1"
     transform="translate(0,-41)">
    <rect
       style="fill:#000000;fill-opacity:1;stroke:none;stroke-width:0.73613685;stroke-miterlimit:4;stroke-dasharray:none;stroke-opacity:1;paint-order:stroke fill markers"
       id="rect4747"
       width="256"
       height="256"
       x="-1.4210855e-14"
       y="41" />
    <g
       id="g5134" />
    <path
       style="fill:#ffffff;stroke-width:1.23135686"
       d="m 116.59085,281.31361 c -2.55018,-0.64406 -6.78499,-2.26699 -9.4107,-3.60648 -2.62572,-1.33955 -6.75884,-4.75434 -9.184709,-7.58845 -4.398352,-5.13847 -4.408591,-5.17803 -3.654466,-14.09965 l 0.756313,-8.94674 -12.771455,-27.50111 C 69.849392,192.70539 69.543814,191.83538 69.098245,181.91139 68.847397,176.3241 68.5071,171.75266 68.342025,171.75266 c -0.165215,0 -2.083945,0.88993 -4.264179,1.97756 -2.883539,1.43849 -6.375536,1.84734 -12.810595,1.49987 -6.306936,-0.34067 -10.952549,-1.45254 -16.182709,-3.87357 -4.03492,-1.86777 -9.22719,-4.8383 -11.53843,-6.60116 -3.31818,-2.53091 -3.82411,-3.41689 -2.40475,-4.21117 0.98864,-0.55327 4.51861,-1.63675 7.84437,-2.40772 3.32576,-0.77098 11.865008,-2.37477 18.976099,-3.5639 l 12.929224,-2.16209 -7.388141,-0.95154 c -4.063454,-0.52339 -10.554408,-1.92525 -14.424352,-3.11531 -3.8699,-1.19006 -9.49717,-3.60597 -12.50502,-5.3687 -3.00784,-1.76273 -7.19518,-5.38466 -9.30519,-8.04877 -2.11001,-2.66411 -5.04427,-7.51989 -6.5206,-10.79064 -2.0125103,-4.45867 -2.6993803,-8.41201 -2.7446203,-15.79773 -0.0507,-8.23135 0.49146,-11.028787 3.2964403,-17.015764 2.04587,-4.366706 6.374,-10.179067 11.08221,-14.882579 5.8193,-5.813432 10.61156,-9.117688 19.423249,-13.392292 6.43385,-3.121076 13.083177,-6.011596 14.776283,-6.423424 l 3.0784,-0.748774 -3.0784,2.604722 c -1.693106,1.432624 -6.050364,5.479184 -9.682816,8.992449 -3.632406,3.513218 -8.190246,9.155664 -10.128526,12.538758 -1.93828,3.383094 -3.86301,8.410893 -4.27721,11.172918 -0.50519,3.368899 -0.0884,6.613166 1.26653,9.856546 1.1108,2.65913 3.514,6.42841 5.34054,8.37627 1.826488,1.94782 5.537313,4.56766 8.246329,5.8219 2.723397,1.26089 7.742632,2.29249 11.226996,2.30743 3.773048,0.014 10.854773,-1.47344 17.649118,-3.7125 6.241176,-2.05677 16.704133,-4.54696 23.25098,-5.53383 6.546895,-0.98691 19.383925,-1.79432 28.526785,-1.79432 9.14282,0 21.97985,0.80741 28.52675,1.79432 6.54682,0.98687 17.00978,3.47706 23.25096,5.53383 6.79434,2.23906 13.87611,3.72869 17.64912,3.7125 3.48436,-0.014 8.50359,-1.04654 11.22699,-2.30743 2.70902,-1.25424 6.41984,-3.87408 8.24633,-5.8219 1.82654,-1.94786 4.22974,-5.71714 5.34054,-8.37627 1.35486,-3.24338 1.77172,-6.487647 1.26653,-9.856546 -0.4142,-2.762025 -2.33893,-7.789824 -4.27721,-11.172918 -1.93828,-3.383094 -6.49612,-9.02554 -10.12853,-12.538758 -3.63245,-3.513265 -7.98971,-7.559825 -9.68281,-8.992449 l -3.0784,-2.604722 3.0784,0.748774 c 1.6931,0.411874 8.34243,3.302348 14.77628,6.423424 8.81169,4.274604 13.60395,7.57886 19.42325,13.392292 4.70821,4.703512 9.03633,10.515873 11.08216,14.882579 2.80503,5.986977 3.34698,8.784414 3.29649,17.015764 -0.0465,7.38572 -0.73207,11.33906 -2.74462,15.79773 -1.47633,3.27075 -4.41059,8.12653 -6.5206,10.79064 -2.11001,2.66411 -6.29735,6.28604 -9.30519,8.04877 -3.00785,1.76273 -8.63512,4.17864 -12.50502,5.3687 -3.86994,1.19006 -10.3609,2.59192 -14.42435,3.11531 l -7.38814,0.95154 12.92922,2.16209 c 7.11109,1.18913 15.65034,2.79292 18.9761,3.5639 3.32576,0.77097 6.85573,1.85445 7.84437,2.40772 1.41936,0.79428 0.91343,1.68026 -2.40474,4.21117 -2.31125,1.76286 -7.50352,4.73339 -11.53844,6.60116 -5.23016,2.42103 -9.87577,3.53304 -16.18271,3.87357 -6.43506,0.34765 -9.92705,-0.0614 -12.81059,-1.49987 -2.18024,-1.08763 -4.09911,-1.97756 -4.26418,-1.97756 -0.16522,0 -0.50542,4.57144 -0.75622,10.15873 -0.44539,9.92399 -0.75115,10.794 -13.22754,37.65979 l -12.77151,27.50111 0.75995,8.98989 0.75989,8.98984 -4.8513,5.51139 c -2.93106,3.3299 -7.39666,6.60642 -11.28182,8.27774 -4.21503,1.81323 -9.64005,2.91742 -15.74621,3.2049 -5.12362,0.24107 -11.40222,-0.0884 -13.95239,-0.73244 z"
       id="path5166"
       inkscape:connector-curvature="0" />
  </g>
</svg>
