<?xml version="1.0" encoding="UTF-8" standalone="no"?>
<!-- Created with Inkscape (http://www.inkscape.org/) -->

<svg
   xmlns:dc="http://purl.org/dc/elements/1.1/"
   xmlns:cc="http://creativecommons.org/ns#"
   xmlns:rdf="http://www.w3.org/1999/02/22-rdf-syntax-ns#"
   xmlns:svg="http://www.w3.org/2000/svg"
   xmlns="http://www.w3.org/2000/svg"
   xmlns:sodipodi="http://sodipodi.sourceforge.net/DTD/sodipodi-0.dtd"
   xmlns:inkscape="http://www.inkscape.org/namespaces/inkscape"
   width="256mm"
   height="256mm"
   viewBox="0 0 256 256"
   version="1.1"
   id="svg8"
   inkscape:version="0.92.5 (2060ec1f9f, 2020-04-08)"
   sodipodi:docname="civ6_rome.svg">
  <defs
     id="defs2" />
  <sodipodi:namedview
     id="base"
     pagecolor="#ffffff"
     bordercolor="#666666"
     borderopacity="1.0"
     inkscape:pageopacity="0.0"
     inkscape:pageshadow="2"
     inkscape:zoom="1.4"
     inkscape:cx="496.03842"
     inkscape:cy="497.30999"
     inkscape:document-units="mm"
     inkscape:current-layer="layer1"
     showgrid="false"
     inkscape:window-width="3840"
     inkscape:window-height="2056"
     inkscape:window-x="0"
     inkscape:window-y="50"
     inkscape:window-maximized="1" />
  <metadata
     id="metadata5">
    <rdf:RDF>
      <cc:Work
         rdf:about="">
        <dc:format>image/svg+xml</dc:format>
        <dc:type
           rdf:resource="http://purl.org/dc/dcmitype/StillImage" />
        <dc:title></dc:title>
      </cc:Work>
    </rdf:RDF>
  </metadata>
  <g
     inkscape:label="Layer 1"
     inkscape:groupmode="layer"
     id="layer1"
     transform="translate(0,-41)">
    <rect
       style="fill:#000000;fill-opacity:1;stroke:none;stroke-width:0.32538173;stroke-opacity:1"
       id="rect816"
       width="256"
       height="256"
       x="0"
       y="41" />
    <g
       id="g4845">
      <path
         id="path4841"
         d="m 54.238026,258.13611 c -9.67015,-2.7333 -18.50614,-10.17662 -23.34857,-19.66858 -3.37201,-6.6097 -3.0333,-7.66267 2.74355,-8.52896 11.62223,-1.74288 22.12242,2.31383 33.5812,12.97387 6.07931,5.65557 7.74088,6.62797 11.32569,6.62797 h 4.20114 l -6.12732,-4.04544 c -7.16234,-4.72876 -21.44341,-18.36804 -24.70486,-23.59461 -1.80348,-2.89015 -3.00694,-3.62952 -5.90764,-3.62952 -2.00353,0 -6.57093,-1.00743 -10.14979,-2.23874 -19.190459,-6.60248 -27.678824,-17.83934 -27.835202,-36.84815 -0.06834,-8.30518 -0.04542,-8.37246 2.716444,-7.98021 4.184957,0.59438 11.268865,4.43405 15.46001,8.3798 4.506178,4.2423 7.505228,9.74179 11.289458,20.70197 1.71988,4.98124 3.8081,8.88626 5.26201,9.84004 2.38308,1.56341 2.37907,1.50352 -0.35248,-5.25914 -3.80362,-9.41683 -5.92432,-20.19589 -5.94733,-30.22896 -0.0194,-8.41255 -0.0433,-8.48021 -4.76566,-13.42926 -13.83927,-14.50359 -15.025024,-32.98927 -3.07339,-47.91364 l 2.23581,-2.79193 2.20851,2.79193 c 6.72893,8.50651 8.32112,19.38882 4.70587,32.16388 -2.15965,7.63149 -2.19221,12.50692 -0.0835,12.50692 0.54259,0 0.99712,-0.87946 1.01008,-1.95439 0.0445,-3.68991 5.45915,-17.35495 9.95113,-25.11369 l 4.49536,-7.76457 -2.20956,-6.55901 c -4.71921,-14.00873 -1.48763,-26.322375 8.91133,-33.955927 2.95432,-2.168678 5.62142,-3.943043 5.92688,-3.943043 0.30546,0 1.14038,2.323245 1.85539,5.162787 1.93043,7.666475 -0.0135,15.286182 -6.1084,23.941473 -2.73756,3.88767 -4.97739,7.73334 -4.97739,8.5459 0,0.81255 3.89474,-2.45671 8.65497,-7.26508 9.23313,-9.32645 25.11142,-21.219398 25.75446,-19.290212 0.21316,0.639291 -2.11023,4.058146 -5.16297,7.597421 -8.59949,9.969971 -18.59696,25.247371 -16.89342,25.815201 1.61164,0.53723 4.4871,-2.69468 9.26071,-10.4086 3.87658,-6.26439 12.66349,-11.73749 18.86912,-11.75302 4.861044,-0.0127 5.215004,1.26465 2.49086,8.98574 -4.12517,11.69204 -13.97638,18.23424 -27.5834,18.31828 l -7.50345,0.0464 -3.78701,8.37575 c -4.05784,8.97477 -8.00704,22.33991 -7.26177,24.57575 0.79409,2.38225 7.14226,-4.02941 8.51053,-8.59562 3.0563,-10.19958 10.95871,-18.81347 20.27497,-22.10046 8.04436,-2.83819 8.27815,-2.671 7.37902,5.27641 -1.0668,9.42928 -4.39261,16.67426 -10.04682,21.88613 -5.02873,4.63531 -14.50501,8.76035 -22.70774,9.88462 l -5.02333,0.68855 0.63172,9.59883 c 0.36785,5.5896 1.84599,13.42837 3.53891,18.76755 4.68991,14.79116 6.74411,13.53068 6.75232,-4.14329 0.005,-10.13593 0.3589,-12.39003 2.61193,-16.62233 2.84432,-5.34298 7.1781,-10.18013 9.12074,-10.18013 1.80834,0 5.31041,8.62858 6.18508,15.23912 1.21391,9.17451 -1.71573,16.21338 -10.33966,24.84255 l -7.13267,7.13697 4.1251,6.26426 c 4.94472,7.50891 21.25444,23.96165 22.80401,23.00398 2.22334,-1.3741 0.98274,-7.07614 -3.36944,-15.4865 -3.68349,-7.11819 -4.46598,-9.74829 -4.46085,-14.99376 0.006,-6.41394 1.33122,-12.76599 3.30664,-15.85271 0.87998,-1.37503 2.06502,-0.69522 6.63505,3.80608 11.158694,10.99091 13.047354,23.80966 5.79233,39.3133 l -3.55886,7.6051 2.56426,1.95485 c 1.41035,1.07518 5.439004,3.60757 8.952484,5.62755 10.83799,6.23087 7.30222,6.78938 -8.594684,1.35755 l -7.79032,-2.66188 -6.74167,2.69709 c -8.39122,3.35701 -21.46326,4.50175 -28.54589,2.49984 z"
         style="fill:#ffffff;stroke-width:1.11676919" />
      <path
         id="path4837"
         d="m 143.668,258.84247 c 0.0169,-0.50946 2.90792,-2.57899 6.42141,-4.59897 3.51352,-2.01997 7.54212,-4.55236 8.95248,-5.62754 l 2.56426,-1.95485 -3.55886,-7.6051 c -7.25503,-15.50365 -5.36632,-28.3224 5.79233,-39.31331 4.57005,-4.50129 5.7551,-5.1811 6.63506,-3.80607 1.97541,3.08671 3.30038,9.43877 3.30662,15.8527 0.004,5.24548 -0.77735,7.87558 -4.46081,14.99376 -4.35217,8.41036 -5.59281,14.11241 -3.36943,15.48651 1.54952,0.95767 17.85926,-15.49507 22.804,-23.00398 l 4.12509,-6.26427 -7.13267,-7.13696 c -8.62393,-8.62917 -11.55359,-15.66805 -10.33967,-24.84255 0.87465,-6.61054 4.37674,-15.23912 6.18508,-15.23912 1.94265,0 6.27642,4.83715 9.12073,10.18012 2.25305,4.2323 2.60723,6.48641 2.61195,16.62234 0.008,17.67397 2.0624,18.93444 6.75233,4.14328 1.6929,-5.33918 3.17104,-13.17795 3.53889,-18.76755 l 0.63174,-9.59882 -5.02333,-0.68855 c -8.20274,-1.12427 -17.67903,-5.24932 -22.70777,-9.88462 -5.65422,-5.21188 -8.98,-12.45686 -10.04682,-21.88613 -0.89913,-7.94742 -0.6653,-8.11461 7.37903,-5.27642 9.31628,3.287 17.21866,11.90089 20.27499,22.10047 1.36827,4.56621 7.71645,10.97787 8.51052,8.59561 0.74527,-2.23583 -3.20393,-15.60097 -7.26178,-24.57575 l -3.787,-8.37574 -7.50347,-0.0464 c -13.60699,-0.084 -23.45819,-6.62629 -27.58336,-18.31828 -2.72418,-7.7211 -2.37022,-8.99791 2.49082,-8.98575 6.20563,0.0169 14.99253,5.48864 18.86914,11.75303 4.77362,7.71391 7.64904,10.94583 9.26069,10.4086 1.70354,-0.56784 -8.29394,-15.84524 -16.8934,-25.815248 -3.05274,-3.539234 -5.37611,-6.958088 -5.163,-7.597379 0.64305,-1.929187 16.52134,9.96372 25.75447,19.290217 4.76024,4.80836 8.655,8.07763 8.655,7.26507 0,-0.81256 -2.23984,-4.65823 -4.97741,-8.54589 -6.09475,-8.655296 -8.03884,-16.275004 -6.10839,-23.941479 0.71502,-2.839541 1.54995,-5.162787 1.85541,-5.162787 0.30559,0 2.97254,1.774365 5.92685,3.943043 10.39897,7.633552 13.63055,19.947193 8.91133,33.955933 l -2.20954,6.559 4.49535,7.76457 c 4.49196,7.75875 9.90665,21.42378 9.95114,25.1137 0.0127,1.07493 0.4675,1.95438 1.01005,1.95438 2.1087,0 2.07616,-4.87543 -0.0836,-12.50691 -3.61521,-12.77507 -2.02302,-23.65737 4.70592,-32.16388 l 2.20848,-2.79193 2.23583,2.79193 c 11.95162,14.92437 10.76585,33.41005 -3.07342,47.91364 -4.72234,4.94904 -4.74636,5.0167 -4.76564,13.42926 -0.0211,10.03306 -2.1437,20.81213 -5.94732,30.22895 -2.73158,6.76266 -2.73558,6.82256 -0.35245,5.25915 1.45392,-0.95379 3.54215,-4.8588 5.26202,-9.84005 3.78422,-10.96018 6.78326,-16.45966 11.28945,-20.70197 4.19115,-3.94574 11.27506,-7.78541 15.46,-8.3798 2.76188,-0.39211 2.7848,-0.325 2.71646,7.98022 -0.15617,19.00881 -8.64474,30.24567 -27.83522,36.84815 -3.57882,1.2313 -8.14626,2.23874 -10.14977,2.23874 -2.90071,0 -4.10416,0.73937 -5.90765,3.62952 -3.26145,5.22656 -17.54252,18.86585 -24.70486,23.5946 l -6.12729,4.04545 h 4.2011 c 3.58482,0 5.2464,-0.97241 11.32571,-6.62798 11.45879,-10.66003 21.95898,-14.71674 33.5812,-12.97387 6.08201,0.91205 6.31395,2.24255 1.77133,10.16219 -3.95503,6.89519 -10.94334,13.37063 -17.82782,16.51943 -7.78558,3.56093 -22.71624,3.21959 -32.55004,-0.74418 l -7.28605,-2.93683 -7.79032,2.66188 c -9.6114,3.28413 -15.05982,4.46023 -15.01613,3.24141 z"
         style="fill:#ffffff;stroke-width:1.11676919" />
    </g>
  </g>
</svg>
