<?xml version="1.0" encoding="UTF-8" standalone="no"?>
<!-- Created with Inkscape (http://www.inkscape.org/) -->

<svg
   width="256mm"
   height="256mm"
   viewBox="0 0 256 256"
   version="1.1"
   id="svg8"
   inkscape:version="1.1.1 (3bf5ae0d25, 2021-09-20, custom)"
   sodipodi:docname="atreides2.svg"
   xmlns:inkscape="http://www.inkscape.org/namespaces/inkscape"
   xmlns:sodipodi="http://sodipodi.sourceforge.net/DTD/sodipodi-0.dtd"
   xmlns="http://www.w3.org/2000/svg"
   xmlns:svg="http://www.w3.org/2000/svg"
   xmlns:rdf="http://www.w3.org/1999/02/22-rdf-syntax-ns#"
   xmlns:cc="http://creativecommons.org/ns#"
   xmlns:dc="http://purl.org/dc/elements/1.1/">
  <defs
     id="defs2" />
  <sodipodi:namedview
     id="base"
     pagecolor="#ffffff"
     bordercolor="#666666"
     borderopacity="1.0"
     inkscape:pageopacity="0.0"
     inkscape:pageshadow="2"
     inkscape:zoom="0.98994949"
     inkscape:cx="329.30973"
     inkscape:cy="501.03566"
     inkscape:document-units="mm"
     inkscape:current-layer="layer1"
     showgrid="false"
     inkscape:window-width="2560"
     inkscape:window-height="1372"
     inkscape:window-x="1920"
     inkscape:window-y="32"
     inkscape:window-maximized="1"
     inkscape:pagecheckerboard="0" />
  <metadata
     id="metadata5">
    <rdf:RDF>
      <cc:Work
         rdf:about="">
        <dc:format>image/svg+xml</dc:format>
        <dc:type
           rdf:resource="http://purl.org/dc/dcmitype/StillImage" />
      </cc:Work>
    </rdf:RDF>
  </metadata>
  <g
     inkscape:label="Layer 1"
     inkscape:groupmode="layer"
     id="layer1"
     transform="translate(0,-41)">
    <rect
       style="fill:#000000;fill-opacity:1;stroke:none;stroke-width:0.32538173;stroke-opacity:1"
       id="rect816"
       width="256"
       height="256"
       x="0"
       y="41" />
    <g
       id="g2593"
       transform="matrix(0.94497118,0,0,0.9445444,-0.01209569,41.04572)">
      <path
         style="fill:#ffffff;stroke-width:0.264583"
         d="m 129.29279,221.88957 -6.02128,-6.28725 0.16553,-21.03437 c 0.10789,-13.70944 0.074,-21.26472 -0.0974,-21.69583 -0.14461,-0.3638 -2.32697,-2.80904 -4.8497,-5.43386 -2.52272,-2.62482 -6.25122,-6.55388 -8.28556,-8.73125 -4.20847,-4.50437 -5.88884,-6.27034 -15.097989,-15.86702 -3.63177,-3.7846 -11.84196,-12.35548 -18.24488,-19.04641 -6.40292,-6.69092 -14.67776,-15.32317 -18.38854,-19.18279 -8.32059,-8.654311 -20.69744,-21.64014 -25.344745,-26.591796 l -3.476493,-3.704167 -0.0042,-15.742708 -0.0042,-15.742708 1.517539,1.5875 c 0.834646,0.873125 6.751979,7.064375 13.149639,13.758333 6.39765,6.693959 13.13315,13.718646 14.96778,15.610417 1.83463,1.891771 7.3748,7.724476 12.31151,12.961564 4.9367,5.237091 10.64285,11.249747 12.68033,13.361455 2.03747,2.11172 8.94091,9.31636 15.34097,16.01031 6.400059,6.69396 13.189129,13.77818 15.086839,15.74271 1.8977,1.96453 7.11801,7.40652 11.60068,12.0933 4.48268,4.68679 8.37931,8.59411 8.65918,8.68294 0.27988,0.0888 0.73785,0.0888 1.01773,0 0.27987,-0.0888 4.1765,-3.99615 8.65918,-8.68294 4.48267,-4.68678 9.70274,-10.12877 11.60016,-12.0933 1.89741,-1.96453 8.68664,-9.04592 15.08717,-15.73641 6.40054,-6.6905 14.73296,-15.38244 18.5165,-19.315432 3.78354,-3.932989 11.03817,-11.55582 16.1214,-16.939625 5.08322,-5.383807 14.42909,-15.206082 20.7686,-21.82728 6.33951,-6.621198 12.20928,-12.752917 13.04392,-13.626042 l 1.51754,-1.5875 -0.004,15.742708 -0.004,15.742708 -3.4765,3.704167 c -4.64729,4.951656 -17.02413,17.937485 -25.34472,26.591796 -3.71078,3.85962 -11.98563,12.49187 -18.38854,19.18279 -6.40292,6.69093 -14.61312,15.26181 -18.24488,19.04641 -9.20915,9.59668 -10.88953,11.36265 -15.098,15.86702 -2.03434,2.17737 -5.76284,6.10643 -8.28556,8.73125 -2.52272,2.62482 -4.70509,5.07006 -4.8497,5.43386 -0.17138,0.43114 -0.20515,7.98544 -0.097,21.69583 l 0.16594,21.03437 -5.95435,6.21392 c -3.27489,3.41766 -6.05334,6.24692 -6.17433,6.28725 -0.12099,0.0403 -2.92956,-2.75593 -6.24127,-6.21392 z"
         id="path2440" />
      <path
         style="fill:#ffffff;stroke-width:0.264583"
         d="m 129.34636,137.99656 c -3.29343,-3.44694 -6.55395,-6.89783 -7.2456,-7.66866 l -1.25754,-1.4015 2.33363,-2.43495 c 1.28349,-1.33923 4.77981,-4.9055 7.76959,-7.92506 l 5.43597,-5.4901 6.75205,0.003 c 8.02544,0.003 8.73642,0.0814 8.73642,0.95774 0,0.74243 -0.0805,0.75968 -0.93418,0.2003 -1.24994,-0.81899 -2.19229,-0.34293 -4.95307,2.50219 -2.55728,2.6354 -3.0839,3.57974 -2.65014,4.75229 0.11763,0.318 1.68191,2.12996 3.47618,4.02659 l 3.2623,3.44841 -1.13286,1.24905 c -1.88809,2.08174 -13.28894,13.94551 -13.45228,13.99849 -0.0838,0.0272 -2.84703,-2.77078 -6.14047,-6.21771 z"
         id="path2564" />
      <g
         id="g2586">
        <path
           style="fill:#ffffff;stroke-width:0.264583"
           d="m 113.33098,204.95285 c -1.75268,-1.85539 -5.26576,-5.53666 -7.80684,-8.18059 l -4.62015,-4.80715 0.10874,-8.81889 c 0.0598,-4.85039 0.007,-9.08323 -0.1179,-9.40631 -0.12466,-0.32307 -3.564209,-4.07354 -7.643439,-8.33437 -4.07923,-4.26083 -10.3869,-10.90212 -14.01705,-14.75842 -3.63015,-3.8563 -8.14969,-8.6188 -10.04343,-10.58334 -1.89374,-1.96453 -7.26227,-7.56046 -11.93008,-12.43541 -4.66781,-4.87495 -9.45598,-9.87557 -10.64039,-11.1125 l -2.15346,-2.24896 -0.005,-7.27604 -0.005,-7.276047 2.31463,2.381257 c 1.27304,1.30968 6.42086,6.6719 11.4396,11.91603 15.8302,16.54113 32.16676,33.59404 39.15519,40.87211 3.710779,3.86458 7.758899,8.09841 8.995829,9.40851 5.67101,6.00647 9.24315,9.83778 9.88479,10.60196 l 0.69854,0.83194 v 16.29983 c 0,8.9649 -0.0964,16.29982 -0.21411,16.29982 -0.11775,0 -1.64811,-1.51804 -3.40079,-3.37343 z"
           id="path2562" />
        <path
           style="fill:#ffffff;stroke-width:0.264583"
           d="m 154.25213,191.91485 v -16.67602 l 3.77032,-3.90002 c 9.94755,-10.28978 25.25082,-26.3191 30.36093,-31.80138 1.96453,-2.10761 4.94683,-5.2624 6.62734,-7.01064 1.6805,-1.74825 4.41894,-4.60772 6.08541,-6.35438 8.18406,-8.57782 21.0171,-21.97063 23.19682,-24.20862 l 2.44809,-2.513547 -0.007,7.276047 -0.007,7.27604 -2.41221,2.51354 c -1.32672,1.38245 -5.10014,5.37104 -8.38538,8.86354 -5.68756,6.04638 -8.74408,9.25069 -23.97488,25.13414 -15.04084,15.68534 -18.09913,18.88254 -19.9187,20.82341 l -1.90941,2.03671 v 9.24228 9.24226 l -3.24114,3.42318 c -1.78263,1.88276 -5.31746,5.6476 -7.85519,8.36633 -2.53771,2.71873 -4.65107,4.94315 -4.69635,4.94315 -0.0453,0 -0.0823,-7.50421 -0.0823,-16.67602 z"
           id="path2560" />
      </g>
    </g>
  </g>
</svg>
