<?xml version="1.0" encoding="UTF-8" standalone="no"?>
<!-- Created with Inkscape (http://www.inkscape.org/) -->

<svg
   xmlns:dc="http://purl.org/dc/elements/1.1/"
   xmlns:cc="http://creativecommons.org/ns#"
   xmlns:rdf="http://www.w3.org/1999/02/22-rdf-syntax-ns#"
   xmlns:svg="http://www.w3.org/2000/svg"
   xmlns="http://www.w3.org/2000/svg"
   xmlns:sodipodi="http://sodipodi.sourceforge.net/DTD/sodipodi-0.dtd"
   xmlns:inkscape="http://www.inkscape.org/namespaces/inkscape"
   width="256mm"
   height="256mm"
   viewBox="0 0 256 256"
   version="1.1"
   id="svg8"
   inkscape:version="0.92.5 (2060ec1f9f, 2020-04-08)"
   sodipodi:docname="rtw2_armenia.svg">
  <defs
     id="defs2" />
  <sodipodi:namedview
     id="base"
     pagecolor="#ffffff"
     bordercolor="#666666"
     borderopacity="1.0"
     inkscape:pageopacity="0.0"
     inkscape:pageshadow="2"
     inkscape:zoom="0.7"
     inkscape:cx="265.11838"
     inkscape:cy="790.46167"
     inkscape:document-units="mm"
     inkscape:current-layer="layer1"
     showgrid="false"
     inkscape:window-width="3840"
     inkscape:window-height="2056"
     inkscape:window-x="0"
     inkscape:window-y="50"
     inkscape:window-maximized="1" />
  <metadata
     id="metadata5">
    <rdf:RDF>
      <cc:Work
         rdf:about="">
        <dc:format>image/svg+xml</dc:format>
        <dc:type
           rdf:resource="http://purl.org/dc/dcmitype/StillImage" />
        <dc:title />
      </cc:Work>
    </rdf:RDF>
  </metadata>
  <g
     inkscape:label="Layer 1"
     inkscape:groupmode="layer"
     id="layer1"
     transform="translate(0,-41)">
    <rect
       style="fill:#000000;fill-opacity:1;stroke:none;stroke-width:0.32538173;stroke-opacity:1"
       id="rect816"
       width="256"
       height="256"
       x="0"
       y="41" />
    <g
       id="g4824"
       transform="translate(6.2482389e-5,6.9063404e-5)">
      <g
         id="g4798">
        <path
           style="fill:#ffffff;stroke-width:4.75431061"
           d="m 166.95117,413.09766 c -12.8855,0.0281 -25.63457,5.15066 -35.28906,15.22461 -13.50913,14.09529 -13.99467,16.22898 -14.92188,65.37304 -0.83017,44.0459 -2.56879,53.91085 -13.07421,74.18946 -16.184743,31.23972 -16.296904,67.50866 -0.33985,109.90234 6.47784,17.21023 13.41707,33.84014 15.42188,36.95508 2.00427,3.11478 3.65833,29.19733 3.67383,57.96093 0.0323,58.92571 6.79277,77.53378 34.54687,95.08594 8.26953,5.22973 15.11103,13.09816 15.21875,17.48438 0.22624,9.84759 -23.08012,28.89494 -31.43359,25.68945 -3.36235,-1.29018 -7.37654,-0.30135 -8.92188,2.19922 -1.54552,2.50076 -6.42797,4.5983 -10.84961,4.65234 -4.42182,0.0581 -13.38864,4.47108 -19.92578,9.80664 l -11.884765,9.70118 11.884765,-3.4336 c 17.57283,-5.07571 103.37038,-6.35866 119.32422,-1.7832 8.17447,2.3444 13.79687,2.15524 13.79687,-0.46485 0,-2.43227 3.21035,-4.42382 7.13282,-4.42382 3.92228,0 7.13086,2.26593 7.13086,5.03515 0,2.86965 2.55584,3.41351 5.94336,1.26367 8.28034,-5.25429 59.69549,-6.07495 78.96484,-1.25976 15.61225,3.90142 15.78363,3.78317 7.58398,-5.27734 -4.61355,-5.09783 -12.08956,-9.26954 -16.61328,-9.26954 -9.1406,0 -23.58203,-19.13123 -23.58203,-31.24023 0,-4.29173 5.19307,-11.88765 11.54102,-16.88086 15.44303,-12.14729 23.34546,-37.64912 19.22461,-62.04101 -2.94187,-17.41365 -2.38071,-19.27566 4.96484,-16.45704 39.37398,15.10893 83.09473,14.6348 102.54297,-1.11328 10.28496,-8.3283 10.02061,-8.64569 -86.56055,-103.38476 C 299.16819,634.32524 244.3327,580.97255 230.5957,568.0293 c -22.08143,-20.80581 -25.89595,-27.31699 -32.91015,-56.17383 -5.57741,-22.9454 -6.50016,-34.91252 -3.10743,-40.29102 6.0446,-9.58288 36.32939,-16.37778 59.80665,-13.41992 9.80572,1.23628 17.82812,1.43526 17.82812,0.44336 0,-3.62022 -26.58925,-15.25961 -42.78906,-18.73047 -9.15217,-1.96101 -22.6885,-8.63518 -30.08008,-14.83398 -9.54881,-8.00775 -21.02302,-11.95059 -32.39258,-11.92578 z m 57.71875,420.28711 21.83203,20.33007 c 12.00745,11.18158 26.15037,23.97394 31.42969,28.42774 l 9.59961,8.09765 -9.75391,9.75391 c -5.36466,5.36485 -13.66397,10.04228 -18.4414,10.39453 -4.77759,0.35199 -10.78859,1.847 -13.35742,3.32227 -10.17068,5.84296 -28.97483,7.70651 -38.82813,3.84765 -20.74904,-8.12579 -27.43045,-38.32756 -10.73828,-48.54101 5.37812,-3.29065 13.93788,-12.65476 19.01953,-20.8086 z"
           transform="matrix(0.26458333,0,0,0.26458333,0,41)"
           id="path4791"
           inkscape:connector-curvature="0" />
        <path
           style="fill:#ffffff;stroke-width:4.75431061"
           d="m 800.60742,413.09766 c -11.36958,-0.0248 -22.84572,3.91805 -32.39453,11.92578 -7.39139,6.19861 -20.92615,12.87496 -30.07812,14.83594 -16.19985,3.47089 -42.78907,15.10829 -42.78907,18.72851 0,0.99009 8.02241,0.79111 17.82813,-0.44336 23.47725,-2.95789 53.76185,3.839 59.80664,13.42188 3.39254,5.37853 2.46785,17.34366 -3.10938,40.28906 -7.01419,28.85665 -10.82872,35.36802 -32.91015,56.17383 -13.737,12.94329 -68.5708,66.29586 -121.85352,118.5625 -96.58133,94.73903 -96.84551,95.05665 -86.56054,103.38476 19.44808,15.74842 63.16883,16.22255 102.54296,1.11328 7.34536,-2.81881 7.90672,-0.9557 4.96485,16.45704 -4.12101,24.39189 3.77988,49.89372 19.22265,62.04101 6.34795,4.99321 11.54297,12.58913 11.54297,16.88086 0,12.109 -14.44169,31.24023 -23.58203,31.24023 -4.52372,0 -11.99972,4.17171 -16.61328,9.26954 v 0.002 c -8.19965,9.06051 -8.02822,9.17895 7.58398,5.27734 19.26947,-4.81572 70.68665,-3.9951 78.9668,1.25977 3.38752,2.14983 5.94141,1.60616 5.94141,-1.26367 0,-2.76923 3.21053,-5.03516 7.13281,-5.03516 3.92228,0 7.13086,1.9896 7.13086,4.42187 0,2.62009 5.6224,2.81121 13.79687,0.4668 15.95384,-4.57617 101.7512,-3.29518 119.32422,1.78125 l 11.88477,3.4336 -11.88477,-9.70118 c -6.53714,-5.33537 -15.50396,-9.75259 -19.92578,-9.80664 -4.42163,-0.058 -9.30423,-2.15162 -10.84961,-4.65234 -1.54548,-2.50076 -5.56129,-3.4894 -8.92383,-2.19922 -8.35328,3.20549 -31.65998,-15.84186 -31.43359,-25.68945 0.1008,-4.38626 6.94922,-12.25446 15.21875,-17.48438 27.75409,-17.55197 34.51103,-36.16023 34.54883,-95.08594 0.0158,-28.7636 1.66725,-54.846 3.67187,-57.96093 2.00482,-3.11475 8.94599,-19.74481 15.42383,-36.95508 15.95615,-42.39383 15.84413,-78.66262 -0.33984,-109.90234 -10.50543,-20.27864 -12.24405,-30.14352 -13.07422,-74.18946 -0.92648,-49.1441 -1.41347,-51.2758 -14.92188,-65.37109 -9.6544,-10.07397 -22.40353,-15.19845 -35.28906,-15.22656 z m -57.7207,420.28711 9.24023,14.82421 c 5.08165,8.15384 13.63943,17.51795 19.01758,20.8086 11.99146,7.33697 12.67545,25.27231 1.45899,38.24414 -4.57618,5.29224 -12.60035,10.68551 -17.83008,11.98828 -8.95631,2.22977 -13.66985,1.47409 -30.90235,-4.95508 -3.92228,-1.4632 -11.00274,-3.08421 -15.73437,-3.60351 -4.73144,-0.51897 -12.99276,-5.33242 -18.35742,-10.69727 l -9.75391,-9.75391 9.59961,-8.09765 c 5.27951,-4.4538 19.4222,-17.24616 31.42969,-28.42774 z"
           transform="matrix(0.26458333,0,0,0.26458333,0,41)"
           id="path4787"
           inkscape:connector-curvature="0" />
      </g>
      <g
         id="g4809">
        <path
           style="fill:#ffffff;stroke-width:1.25791132"
           d="m 121.90608,201.1044 c -3.23469,-10.2056 -6.44171,-20.29401 -7.12676,-22.41866 -2.49715,-7.74511 -1.59008,-13.02582 3.0314,-17.64725 3.6506,-3.65064 5.14259,-4.27693 10.18906,-4.27693 5.04646,0 6.53846,0.62629 10.18906,4.27693 4.61933,4.61929 5.5265,9.89011 3.03729,17.64725 -0.68177,2.12465 -3.84909,12.07091 -7.03848,22.10274 -3.18933,10.03182 -5.93418,18.38188 -6.09959,18.5556 -0.16545,0.174 -2.94734,-8.03412 -6.18198,-18.23968 z"
           id="path4783"
           inkscape:connector-curvature="0" />
        <path
           style="fill:#ffffff;stroke-width:1.25791132"
           d="m 74.773235,188.42689 c 4.73026,-10.67794 18.11823,-34.55832 20.18645,-36.00696 6.901745,-4.83414 17.358615,0.97106 17.276175,9.59101 -0.0475,4.94999 -1.57282,7.13232 -7.50744,10.7397 -8.158545,4.95922 -30.352875,16.57401 -29.955185,15.67625 z"
           id="path4781"
           inkscape:connector-curvature="0" />
        <path
           style="fill:#ffffff;stroke-width:1.25791132"
           d="m 177.05832,186.96669 c -2.07554,-1.16837 -9.69641,-5.38587 -16.93523,-9.37222 -7.23887,-3.98629 -13.87204,-8.18174 -14.74046,-9.3232 -2.88934,-3.79774 -1.98621,-10.11807 2.01802,-14.1223 4.13748,-4.13748 9.25326,-4.80105 13.59081,-1.76294 2.22274,1.55685 21.10795,35.80571 20.12738,36.50151 -0.15785,0.1122 -1.98498,-0.75247 -4.06052,-1.92085 z"
           id="path4779"
           inkscape:connector-curvature="0" />
        <path
           style="fill:#ffffff;stroke-width:1.25791132"
           d="m 87.746585,148.5686 c -0.69184,-0.2458 -11.30463,-3.4096 -23.58402,-7.03068 -12.27934,-3.62112 -22.10645,-6.80342 -21.83807,-7.0718 1.72216,-1.72215 45.0147,-14.18396 49.27527,-14.18396 10.201235,0 16.649935,9.75865 12.698395,19.21607 -2.78051,6.65475 -10.871075,11.08843 -16.551575,9.07037 z"
           id="path4777"
           inkscape:connector-curvature="0" />
        <path
           style="fill:#ffffff;stroke-width:1.25791132"
           d="m 119.6949,146.34149 c -11.2875,-7.58603 -5.40023,-26.05933 8.30488,-26.05933 13.74243,0 19.58842,18.44759 8.26432,26.07887 -5.3931,3.63444 -11.14249,3.62763 -16.5692,-0.019 z"
           id="path4775"
           inkscape:connector-curvature="0" />
        <path
           style="fill:#ffffff;stroke-width:1.25791132"
           d="m 157.79946,146.73087 c -12.45738,-7.78908 -7.80087,-26.44871 6.60032,-26.44871 4.26058,0 47.55309,12.46181 49.27525,14.18396 0.62129,0.6213 -42.31618,13.46839 -47.69002,14.26907 -2.71157,0.40411 -5.37803,-0.24865 -8.18555,-2.00432 z"
           id="path4773"
           inkscape:connector-curvature="0" />
        <path
           style="fill:#ffffff;stroke-width:1.25791132"
           d="m 95.685715,118.34516 c -2.39517,-1.3004 -5.96604,-6.86104 -12.23695,-19.055614 -4.87022,-9.470683 -8.72583,-17.307356 -8.56808,-17.414851 0.81513,-0.555446 34.307515,18.725945 35.691975,20.547655 0.89276,1.17474 1.64124,4.20833 1.6632,6.74123 0.0333,3.6254 -0.78351,5.29835 -3.83022,7.86197 -4.34872,3.6592 -7.75908,4.01302 -12.719925,1.31961 z"
           id="path4771"
           inkscape:connector-curvature="0" />
        <path
           style="fill:#ffffff;stroke-width:1.25791132"
           d="m 147.59391,117.02555 c -3.04671,-2.56362 -3.86174,-4.23657 -3.83022,-7.86197 0.0238,-2.5329 0.77044,-5.56649 1.66316,-6.74123 1.3845,-1.82171 34.87686,-21.103101 35.69199,-20.547655 0.15784,0.107447 -3.70019,7.948685 -8.57321,17.424835 -6.69869,13.02643 -9.74525,17.68718 -12.48896,19.10601 -5.15063,2.6635 -8.03721,2.34387 -12.46276,-1.37999 z"
           id="path4769"
           inkscape:connector-curvature="0" />
        <path
           style="fill:#ffffff;stroke-width:1.25791132"
           d="m 121.55711,110.92715 c -5.18509,-2.25668 -8.02332,-6.52653 -8.02332,-12.070389 0,-2.481988 2.89808,-13.818785 6.44014,-25.192813 3.54206,-11.37402 6.74751,-21.77046 7.12319,-23.10314 0.62096,-2.20267 0.78665,-2.14543 1.82157,0.62895 4.41019,11.82254 13.54708,43.971762 13.54708,47.667003 0,5.653449 -2.87907,9.858729 -8.30041,12.123919 -5.15667,2.15461 -7.55812,2.14439 -12.60825,-0.0537 z"
           id="path4782"
           inkscape:connector-curvature="0" />
      </g>
    </g>
  </g>
</svg>
