<?xml version="1.0" encoding="UTF-8" standalone="no"?>
<!-- Created with Inkscape (http://www.inkscape.org/) -->

<svg
   xmlns:dc="http://purl.org/dc/elements/1.1/"
   xmlns:cc="http://creativecommons.org/ns#"
   xmlns:rdf="http://www.w3.org/1999/02/22-rdf-syntax-ns#"
   xmlns:svg="http://www.w3.org/2000/svg"
   xmlns="http://www.w3.org/2000/svg"
   xmlns:sodipodi="http://sodipodi.sourceforge.net/DTD/sodipodi-0.dtd"
   xmlns:inkscape="http://www.inkscape.org/namespaces/inkscape"
   width="256mm"
   height="256mm"
   viewBox="0 0 256 256"
   version="1.1"
   id="svg8"
   inkscape:version="0.92.5 (2060ec1f9f, 2020-04-08)"
   sodipodi:docname="rtw_gaul.svg">
  <defs
     id="defs2" />
  <sodipodi:namedview
     id="base"
     pagecolor="#ffffff"
     bordercolor="#666666"
     borderopacity="1.0"
     inkscape:pageopacity="0.0"
     inkscape:pageshadow="2"
     inkscape:zoom="0.49497475"
     inkscape:cx="-58.836844"
     inkscape:cy="1104.9137"
     inkscape:document-units="mm"
     inkscape:current-layer="layer1"
     showgrid="false"
     inkscape:window-width="3840"
     inkscape:window-height="2056"
     inkscape:window-x="0"
     inkscape:window-y="50"
     inkscape:window-maximized="1" />
  <metadata
     id="metadata5">
    <rdf:RDF>
      <cc:Work
         rdf:about="">
        <dc:format>image/svg+xml</dc:format>
        <dc:type
           rdf:resource="http://purl.org/dc/dcmitype/StillImage" />
        <dc:title></dc:title>
      </cc:Work>
    </rdf:RDF>
  </metadata>
  <g
     inkscape:label="Layer 1"
     inkscape:groupmode="layer"
     id="layer1"
     transform="translate(0,-41)">
    <rect
       style="fill:#000000;fill-opacity:1;stroke:none;stroke-width:0.32538173;stroke-opacity:1"
       id="rect816"
       width="256"
       height="256"
       x="0"
       y="41" />
    <path
       style="fill:#ffffff;stroke-width:1.3291235"
       d="m 90.68571,258.1391 c -0.419961,-1.09456 1.081902,-7.00094 3.337687,-13.12524 5.191041,-14.09367 5.39841,-20.37691 0.742467,-22.49832 -4.467664,-2.0356 -6.027397,-0.30593 -6.351812,7.0449 -0.349131,7.90768 -3.771563,8.02839 -5.424833,0.1914 -1.282243,-6.07804 -2.83931,-7.00828 -5.562175,-3.32282 -2.394281,3.24068 -3.814569,1.20538 -5.796921,-8.30699 -1.755548,-8.42429 -5.991982,-16.11014 -9.366239,-16.99256 -1.111993,-0.29086 -2.801433,-3.45212 -3.759858,-7.0355 -3.378829,-12.63305 -8.859729,-14.37322 -18.511602,-5.87725 -6.98075,6.14465 -8.649844,6.44043 -12.818763,2.27151 -2.528658,-2.52861 -3.198079,-5.03662 -3.947886,-14.79127 -0.603719,-7.85423 -0.418956,-12.32958 0.558006,-13.50658 1.050863,-1.26616 4.880843,-1.68457 13.644418,-1.49046 l 12.183546,0.26976 -0.398863,-5.44046 c -0.362191,-4.94288 0.0633,-5.78853 4.651924,-9.24768 2.777822,-2.09403 6.625189,-5.46547 8.549676,-7.49214 5.262882,-5.54218 9.025252,-6.39632 28.154081,-6.39135 25.468487,0.005 45.858607,2.16868 64.554057,6.84497 l 16.45982,4.11713 20.50953,-1.43028 c 11.57343,-0.80712 21.77493,-0.93808 23.41388,-0.30041 2.70051,1.05041 7.08614,5.29111 11.5634,11.18132 1.19322,1.56978 2.15707,7.45848 2.63731,16.11269 0.68199,12.28924 1.12602,14.12271 4.48766,18.53009 4.34358,5.69474 6.81639,5.56378 6.79821,-0.36018 -0.0151,-4.69774 3.0533,-5.74272 6.09595,-2.0765 1.48248,1.78624 1.25934,3.05406 -1.42986,8.12328 -4.28155,8.07079 -7.73564,9.55462 -13.68396,5.87835 -2.51586,-1.55486 -5.21099,-2.82705 -5.98923,-2.82705 -3.33938,0 -2.79068,5.78647 1.68081,17.72488 4.35348,11.62343 4.74596,13.88112 5.04264,29.0065 l 0.32201,16.402 h -6.64559 -6.64564 l -0.67253,-12.07122 c -0.58096,-10.4273 -1.19514,-12.87096 -4.51001,-17.9432 -4.37388,-6.6927 -20.26157,-22.92551 -23.66581,-24.17981 -1.24628,-0.45915 -3.42555,-3.10691 -4.84282,-5.88388 -1.41728,-2.77692 -3.92117,-6.24516 -5.56423,-7.70719 -1.64308,-1.46203 -4.08599,-5.05069 -5.42875,-7.97474 l -2.44136,-5.31653 -0.0301,6.35603 c -0.0301,6.99467 2.34308,13.91202 5.74597,16.7341 1.20981,1.00328 2.19958,2.23383 2.19958,2.73457 0,1.67186 -20.48889,11.77559 -29.2407,14.41949 -4.75165,1.4355 -12.07841,3.02909 -16.28179,3.54138 l -7.64244,0.93135 -0.0151,-9.06719 c -0.01,-4.98699 0.94652,-13.25399 2.12417,-18.37109 1.62549,-7.06293 1.7976,-10.18426 0.71454,-12.95897 -2.12367,-5.4405 -4.63977,-4.68467 -3.56028,1.06955 0.7594,4.04785 0.30442,5.38715 -3.17487,9.35011 -3.65578,4.16364 -4.06459,5.51661 -4.09448,13.55083 -0.0452,11.91575 -5.35144,35.64169 -10.09469,45.12955 l -3.82787,7.65686 -6.992757,0.40238 c -5.253082,0.30191 -7.182793,-0.0929 -7.756472,-1.58792 z m -2.916721,-59.3166 c 6.176594,-5.09128 11.626796,-16.15675 12.599391,-25.58036 0.6313,-6.11676 0.18436,-8.51567 -2.738291,-14.69331 -1.92097,-4.06067 -3.49271,-7.99715 -3.49271,-8.74771 0,-0.7506 -1.200205,-2.00697 -2.667055,-2.79203 -2.618176,-1.4012 -2.651733,-1.15244 -1.83085,13.57675 0.976656,17.52413 -0.178333,23.10831 -6.822962,32.98192 -6.618206,9.83463 -3.988626,12.62471 4.952477,5.25474 z M 28.156752,163.0519 c -1.148764,-1.27274 -3.361342,2.45532 -2.390011,4.02701 0.771101,1.24763 1.287664,1.0174 1.976882,-0.88106 0.513146,-1.41351 0.69907,-2.82922 0.412928,-3.14595 z m 35.98038,-0.84811 c 2.933142,-2.93319 2.598735,-4.55703 -0.938438,-4.55703 -3.672394,0 -9.276314,3.68903 -8.214259,5.40746 1.213773,1.96392 6.863305,1.43897 9.152697,-0.85043 z m -51.076326,52.34304 c -5.1529644,-3.50246 -6.5345664,-7.71523 -3.3869164,-10.32748 1.3463374,-1.11742 2.0578094,-1.20266 2.0578094,-0.24665 0,0.80365 1.445802,2.40855 3.212904,3.56635 6.957642,4.55884 21.292333,-3.62306 26.133089,-14.91615 2.697195,-6.29229 6.974118,-8.34859 11.89108,-5.7171 2.547948,1.36362 2.85021,2.37117 2.266032,7.55382 -0.539319,4.785 -1.814268,7.14211 -6.378889,11.79308 -7.221925,7.35861 -11.850942,9.53302 -22.569045,10.60135 -7.635858,0.76116 -9.083167,0.50868 -13.226064,-2.30722 z M 221.75002,137.0656 c -0.93015,-1.12073 -3.90912,-2.39237 -6.61992,-2.82584 l -4.92883,-0.78819 -1.46558,-9.46851 c -0.80607,-5.20767 -1.14309,-9.78203 -0.74895,-10.16522 1.47273,-1.43179 11.83989,11.74027 14.09221,17.90506 2.50404,6.85366 2.39498,8.62483 -0.32904,5.3427 z m -53.01935,-13.64376 c -0.95576,-7.12744 -3.15343,-17.41909 -4.88371,-22.87037 -1.73022,-5.451273 -2.9647,-10.092652 -2.74316,-10.314167 0.22153,-0.221534 3.13298,0.609135 6.46992,1.845895 5.92461,2.19582 6.13189,2.469417 8.81888,11.643302 3.27193,11.17093 5.99278,28.03769 4.9579,30.73454 -0.46417,1.2096 -2.61324,1.91976 -5.80938,1.91976 h -5.07269 z m 19.87797,-0.62171 c -0.9537,-6.73836 -2.50478,-14.81278 -3.44693,-17.94317 -0.94211,-3.13039 -1.37543,-5.691619 -0.9629,-5.691619 0.56916,0 11.49687,5.983829 13.25052,7.255759 0.16778,0.12162 1.29464,6.07974 2.50439,13.24028 2.44789,14.48866 2.14382,15.33144 -5.5456,15.36997 l -4.06542,0.0201 z m -32.90686,9.01807 c -3.05598,-0.78015 -5.91221,-1.78258 -6.34719,-2.22766 -0.43503,-0.44507 -1.69773,-6.00459 -2.80611,-12.35459 -1.10837,-6.34995 -3.7473,-16.44013 -5.86433,-22.422562 -2.11704,-5.982437 -3.63799,-11.088301 -3.37989,-11.346366 0.25821,-0.258055 3.3608,0.344006 6.895,1.337958 l 6.42587,1.807169 3.70514,10.553549 c 3.4669,9.874802 8.27298,32.819892 7.3445,35.063872 -0.22907,0.55388 -2.91702,0.36872 -5.97299,-0.41142 z m -25.64622,-4.59386 c -2.89979,-0.80782 -3.48397,-2.06996 -4.9155,-10.61974 -1.79463,-10.71855 -6.09215,-24.713363 -9.94685,-32.391896 -2.45306,-4.886479 -2.45276,-4.984216 0.0151,-4.984216 7.32752,0 11.00193,1.779747 13.40399,6.492339 3.37501,6.621411 9.12582,25.811743 10.50129,35.042793 l 1.13877,7.64244 -3.45388,-0.13262 c -1.89962,-0.0728 -4.93479,-0.54504 -6.7448,-1.04925 z M 62.15814,117.14 c -1.548079,-5.13443 -5.09535,-13.70866 -7.882867,-19.053813 -1.511157,-3.178915 -4.744105,-8.301472 -4.533416,-9.536746 0.288849,-1.024795 1.55983,-1.130991 2.99036,-1.545186 1.938809,-0.749907 5.400871,-1.677227 7.693427,-2.060713 4.038962,-0.675615 4.259195,-0.455577 7.100966,7.094561 3.552635,9.438967 8.003018,26.377257 8.003018,30.459917 0,2.49154 -0.851225,3.05175 -5.278394,3.47398 l -5.2784,0.50335 z m 49.07035,8.96587 -6.16855,-0.4918 -0.94145,-7.57552 c -1.07708,-8.66678 -6.425909,-26.4721 -10.161453,-33.82574 -0.677816,-1.566219 -1.947344,-4.047944 -1.612983,-4.480604 0.258708,-0.300855 0.801996,-0.692193 2.077854,-0.890323 2.874473,-0.233289 3.253594,-0.280058 5.648932,-0.588589 2.86628,-0.358976 3.71369,0.414888 6.44911,5.827871 4.39689,8.700686 10.00935,26.844565 11.05443,35.736495 0.46919,3.99269 0.62135,7.15164 0.33808,7.01988 -0.28333,-0.13162 -3.29112,-0.46116 -6.68382,-0.73147 z m -28.367621,-8.00051 c -0.994946,-8.00544 -6.352164,-26.412113 -9.435512,-32.41912 -1.664122,-3.24204 -1.576261,-3.571187 1.14796,-4.301502 6.57078,-1.761486 8.818426,-0.942522 11.408979,4.157088 3.549927,6.988284 9.186047,25.357434 10.256747,33.428824 l 0.899049,6.77715 h -6.663719 -6.663719 z"
       id="path977"
       inkscape:connector-curvature="0"
       sodipodi:nodetypes="cccccccccccscccccccscscsccccccsscccccccscccccscccccccccscccccscscsccccccccsccccsccsccsccccccccccccccscsccscsccccsccssccccccccccsssccccscccscsscsccccccccccccccccccccc" />
  </g>
</svg>
