<?xml version="1.0" encoding="UTF-8" standalone="no"?>
<!-- Created with Inkscape (http://www.inkscape.org/) -->

<svg
   xmlns:dc="http://purl.org/dc/elements/1.1/"
   xmlns:cc="http://creativecommons.org/ns#"
   xmlns:rdf="http://www.w3.org/1999/02/22-rdf-syntax-ns#"
   xmlns:svg="http://www.w3.org/2000/svg"
   xmlns="http://www.w3.org/2000/svg"
   xmlns:sodipodi="http://sodipodi.sourceforge.net/DTD/sodipodi-0.dtd"
   xmlns:inkscape="http://www.inkscape.org/namespaces/inkscape"
   width="256mm"
   height="256mm"
   viewBox="0 0 256 256"
   version="1.1"
   id="svg8"
   inkscape:version="0.92.5 (2060ec1f9f, 2020-04-08)"
   sodipodi:docname="thrace.svg">
  <defs
     id="defs2" />
  <sodipodi:namedview
     id="base"
     pagecolor="#ffffff"
     bordercolor="#666666"
     borderopacity="1.0"
     inkscape:pageopacity="0.0"
     inkscape:pageshadow="2"
     inkscape:zoom="0.7"
     inkscape:cx="110.24827"
     inkscape:cy="409.13981"
     inkscape:document-units="mm"
     inkscape:current-layer="layer1"
     showgrid="false"
     inkscape:window-width="3840"
     inkscape:window-height="2056"
     inkscape:window-x="0"
     inkscape:window-y="50"
     inkscape:window-maximized="1" />
  <metadata
     id="metadata5">
    <rdf:RDF>
      <cc:Work
         rdf:about="">
        <dc:format>image/svg+xml</dc:format>
        <dc:type
           rdf:resource="http://purl.org/dc/dcmitype/StillImage" />
        <dc:title></dc:title>
      </cc:Work>
    </rdf:RDF>
  </metadata>
  <g
     inkscape:label="Layer 1"
     inkscape:groupmode="layer"
     id="layer1"
     transform="translate(0,-41)">
    <rect
       style="fill:#000000;fill-opacity:1;stroke:none;stroke-width:0.32538173;stroke-opacity:1"
       id="rect816"
       width="256"
       height="256"
       x="0"
       y="41" />
    <path
       style="fill:#ffffff;stroke-width:2.43066072"
       d="m 88.001715,284.51117 c -14.94894,-5.8391 -19.95094,-10.41071 -27.94543,-25.54072 -5.62707,-10.64975 -6.40703,-14.90669 -6.30413,-34.4098 0.10751,-20.27507 0.75698,-23.30459 7.30484,-34.02929 9.33216,-15.28574 25.57857,-23.94203 44.836945,-23.88967 14.59599,0.0368 26.67639,4.99978 47.37008,19.44944 14.03801,9.80227 15.73149,10.07778 23.45745,3.81617 4.84978,-3.93053 5.71766,-6.79019 5.60512,-18.46921 -0.11301,-11.70539 -1.04198,-14.51708 -6.07658,-18.38655 -7.69849,-5.91681 -13.71307,-5.81888 -32.14986,0.52365 -20.80642,7.15749 -47.585145,7.31513 -62.943845,0.37024 -16.99915,-7.6863 -25.09773,-21.21065 -25.06778,-41.86257 0.0275,-18.321677 6.26315,-37.226806 14.08887,-42.70816 11.36937,-7.963354 29.37133,-3.963718 56.685025,12.594187 17.47722,10.594996 28.92062,13.114286 34.45057,7.584307 1.6042,-1.604179 2.9168,-9.186284 2.9168,-16.849033 0,-12.604146 0.67339,-14.411534 7.05956,-18.959176 9.49487,-6.760964 15.87111,-6.327541 22.02615,1.497371 4.37657,5.563838 5.02863,9.23101 4.43003,24.914276 -0.69083,18.096131 -0.81945,18.428891 -8.08654,20.820748 -4.06154,1.33686 -10.49844,4.89168 -14.30405,7.89959 -10.11984,7.99863 -32.73597,7.77253 -43.49631,-0.43453 -8.96598,-6.83872 -29.27313,-15.972257 -35.512115,-15.972257 -6.53316,0 -12.59412,8.253917 -14.05416,19.139297 -1.14891,8.56572 -0.38401,10.72324 6.09567,17.20329 8.97454,8.97461 15.776235,9.36598 37.157375,2.1382 20.51446,-6.93479 49.26597,-7.55904 58.52794,-1.27089 8.80239,5.97628 14.31177,18.54291 17.22213,39.28337 3.25248,23.17873 -1.94455,43.09339 -12.69691,48.65367 -14.28419,7.3866 -30.38729,3.27206 -55.91313,-14.28659 -8.65961,-5.95679 -15.47086,-8.77261 -21.22019,-8.77261 -22.462515,0 -35.780735,22.48863 -26.488715,44.72772 4.4363,10.61738 12.52954,16.03887 23.943265,16.03887 7.39229,0 11.33525,-1.93503 19.75158,-9.69287 18.35265,-16.91693 33.54322,-20.61854 51.3577,-12.5149 11.73938,5.34005 15.28748,9.31819 17.30408,19.40111 2.05663,10.28328 -2.17195,9.87989 -8.7968,-0.83967 -7.59779,-12.29351 -16.37719,-11.73102 -28.45281,1.82301 -20.70859,23.24387 -28.71806,29.76719 -40.28931,32.81397 -14.83863,3.90695 -17.56727,3.75215 -31.792515,-1.80426 z"
       id="path862"
       inkscape:connector-curvature="0" />
  </g>
</svg>
