<?xml version="1.0" encoding="UTF-8" standalone="no"?>
<!-- Created with Inkscape (http://www.inkscape.org/) -->

<svg
   xmlns:dc="http://purl.org/dc/elements/1.1/"
   xmlns:cc="http://creativecommons.org/ns#"
   xmlns:rdf="http://www.w3.org/1999/02/22-rdf-syntax-ns#"
   xmlns:svg="http://www.w3.org/2000/svg"
   xmlns="http://www.w3.org/2000/svg"
   xmlns:sodipodi="http://sodipodi.sourceforge.net/DTD/sodipodi-0.dtd"
   xmlns:inkscape="http://www.inkscape.org/namespaces/inkscape"
   width="256mm"
   height="256mm"
   viewBox="0 0 256 256"
   version="1.1"
   id="svg8"
   inkscape:version="0.92.5 (2060ec1f9f, 2020-04-08)"
   sodipodi:docname="rtw_julii.svg">
  <defs
     id="defs2" />
  <sodipodi:namedview
     id="base"
     pagecolor="#ffffff"
     bordercolor="#666666"
     borderopacity="1.0"
     inkscape:pageopacity="0.0"
     inkscape:pageshadow="2"
     inkscape:zoom="0.98994949"
     inkscape:cx="86.410979"
     inkscape:cy="752.62899"
     inkscape:document-units="mm"
     inkscape:current-layer="layer1"
     showgrid="false"
     inkscape:window-width="3840"
     inkscape:window-height="2056"
     inkscape:window-x="0"
     inkscape:window-y="50"
     inkscape:window-maximized="1" />
  <metadata
     id="metadata5">
    <rdf:RDF>
      <cc:Work
         rdf:about="">
        <dc:format>image/svg+xml</dc:format>
        <dc:type
           rdf:resource="http://purl.org/dc/dcmitype/StillImage" />
        <dc:title></dc:title>
      </cc:Work>
    </rdf:RDF>
  </metadata>
  <g
     inkscape:label="Layer 1"
     inkscape:groupmode="layer"
     id="layer1"
     transform="translate(0,-41)">
    <rect
       style="fill:#000000;fill-opacity:1;stroke:none;stroke-width:0.32538173;stroke-opacity:1"
       id="rect816"
       width="256"
       height="256"
       x="0"
       y="41" />
    <path
       style="fill:#ffffff;stroke-width:1.24393344"
       d="m 85.404524,271.15792 c 5.18193,-20.20664 7.97653,-25.0589 16.927816,-29.39216 9.85703,-4.77167 7.02914,-6.858 -9.295666,-6.858 -10.47758,0 -13.05719,-0.48077 -22.75282,-4.2405 -6.014555,-2.33227 -10.492716,-4.65155 -9.951481,-5.15391 1.528545,-1.41881 13.563581,-3.66687 19.630841,-3.66687 6.38551,0 8.04339,-1.54655 3.75329,-3.50124 -2.33626,-1.06446 -3.81013,-0.96629 -6.49162,0.43254 -8.94029,4.66335 -20.515802,0.54988 -33.94554,-12.06273 l -8.085555,-7.5936 5.9824,0.8764 c 6.024054,0.88252 16.772298,3.4791 21.384121,5.16599 2.21689,0.81086 2.159391,0.54956 -0.527835,-2.39902 -2.286001,-2.50839 -4.196918,-3.309 -7.897548,-3.309 -6.470084,0 -12.602366,-3.05248 -17.104175,-8.51401 -3.882154,-4.70966 -13.073643,-21.34039 -11.794511,-21.34039 1.433857,0 8.750114,4.11609 15.802617,8.89045 l 7.088987,4.79908 -1.274759,-3.65686 c -0.886511,-2.54303 -2.364892,-3.89625 -4.853715,-4.4429 -8.57945,-1.8844 -13.825974,-9.7558 -16.775166,-25.1681 -1.016037,-5.30976 -1.847447,-10.17152 -1.847588,-10.80391 -3.29e-4,-1.90349 6.223068,4.41201 11.993572,12.17105 5.272005,7.0887 5.421277,7.18523 5.421277,3.50552 0,-2.75982 -0.981105,-4.48258 -3.625029,-6.3652 -6.177135,-4.39851 -8.81429,-11.69832 -8.81429,-24.39838 v -11.09751 l 4.966033,6.82551 c 2.731279,3.75404 5.309994,8.08114 5.7304,9.61575 0.420313,1.53466 1.264417,2.48121 1.875609,2.10349 2.139409,-1.32224 1.082845,-6.03111 -2.098271,-9.35153 -1.765269,-1.84251 -3.660009,-5.34737 -4.210599,-7.78861 -1.041425,-4.61761 0.982139,-24.449631 2.494747,-24.449631 1.484492,0 7.411273,14.458791 7.457301,18.192621 l 0.04231,3.57623 1.705603,-3.08103 c 1.519707,-2.74514 1.415428,-3.4885 -0.956281,-6.81931 -3.705754,-5.204251 -3.44012,-15.029641 0.690789,-25.551751 l 3.174346,-8.0856 1.472174,3.7318 c 0.809689,2.05252 1.758072,6.53068 2.107528,9.95148 0.990654,9.69775 1.029582,9.72906 6.931163,5.56919 2.936451,-2.06978 7.468545,-4.10881 10.071325,-4.5312 l 4.73228,-0.76794 -5.75264,8.22924 c -6.010235,8.59769 -10.940067,12.915351 -16.419925,14.380891 -1.786379,0.47772 -3.692261,2.06964 -4.235235,3.53754 -0.898876,2.42977 -0.518385,2.33837 4.246143,-1.01994 2.878383,-2.02888 7.363271,-4.03453 9.966387,-4.45696 l 4.73298,-0.76803 -3.129399,4.84078 c -8.195104,12.67708 -9.790834,14.45043 -15.127066,16.8109 -4.454931,1.97063 -5.542289,3.06931 -5.542289,5.60017 v 3.14853 l 5.069653,-4.33942 c 4.697062,-4.02047 10.636255,-6.68578 11.956431,-5.36561 0.308887,0.30889 -0.01881,1.5955 -0.726191,2.8594 -0.708137,1.26389 -2.489669,5.22395 -3.958882,8.80009 -1.598974,3.89193 -4.893019,8.54997 -8.205636,11.60349 -4.903174,4.51953 -5.439519,5.53303 -4.702938,8.88669 l 0.83141,3.7853 2.160706,-4.82602 c 2.118488,-4.73185 10.105457,-12.89024 12.619386,-12.89024 0.700709,0 1.009173,0.42877 0.685429,0.95243 -0.323932,0.52383 -1.194035,5.30501 -1.933954,10.62483 -1.367285,9.83046 -3.577686,15.66528 -7.630786,20.14302 -1.971096,2.17768 -2.042793,2.87566 -0.574756,5.59772 1.666863,3.09076 1.686233,3.07388 3.15413,-2.74745 0.812322,-3.22155 3.298888,-7.96496 5.52565,-10.54095 l 4.048728,-4.68366 1.042741,11.16291 c 1.141143,12.21661 0.913169,18.10987 -0.883455,22.83533 -0.977344,2.57063 -0.622758,3.62141 2.119474,6.2808 l 3.293154,3.19367 -0.93738,-3.10984 c -1.507438,-5.00097 -0.9544,-12.82893 1.27951,-18.11039 l 2.07354,-4.90237 1.53922,4.35375 c 0.84655,2.39456 2.92427,6.59284 4.61713,9.32948 4.78917,7.74207 6.09966,11.48934 6.09966,17.44165 0,4.85954 0.43818,5.73393 3.72724,7.43469 l 3.72729,1.92746 -2.73204,-5.24149 c -2.38769,-4.58089 -4.8382,-19.69638 -3.19315,-19.69638 0.32158,0 5.11742,4.33819 10.65774,9.64048 6.564066,6.28197 10.983036,11.69888 12.684596,15.54916 2.43038,5.49946 2.92709,5.90868 7.17107,5.90868 3.46335,0 5.20379,-0.80762 7.23789,-3.3586 2.05816,-2.58121 3.76339,-3.35864 7.36684,-3.35864 3.60345,0 5.30872,0.77743 7.36684,3.35864 1.90095,2.38393 3.82663,3.3586 6.63582,3.3586 3.56809,0 4.29184,-0.68238 7.3517,-6.93144 2.36969,-4.83952 6.32322,-9.57208 13.09964,-15.68095 l 9.70564,-8.7495 v 6.76261 c 0,4.61728 -0.92073,8.58133 -2.90254,12.49583 l -2.90251,5.73332 3.52451,-1.82263 c 3.03203,-1.56794 3.52198,-2.5568 3.50627,-7.07737 -0.0141,-3.77957 1.64566,-8.64081 5.90868,-17.31602 3.25981,-6.6337 6.30046,-12.09146 6.75697,-12.12837 0.45652,-0.0376 1.79013,2.44675 2.96349,5.51916 2.03927,5.33976 2.00052,10.29277 -0.12647,16.1826 -0.77716,2.15177 -0.46451,2.06775 2.31369,-0.62196 2.96898,-2.87439 3.11017,-3.48657 1.86479,-8.08556 -0.86869,-3.20792 -1.0205,-9.76169 -0.42736,-18.44612 l 0.92017,-13.4704 3.1475,2.89696 c 3.67914,3.38619 7.68528,11.51077 7.86882,15.95823 0.12741,3.08455 0.14152,3.08041 1.72639,-0.51128 1.46061,-3.30966 1.28666,-4.06288 -2.02211,-8.75708 -2.62456,-3.72348 -4.12024,-8.03031 -5.43835,-15.65988 -0.99999,-5.78813 -2.0771,-11.22356 -2.39361,-12.07876 -0.86921,-2.34862 1.08788,-1.8742 5.08738,1.2332 4.97276,3.86358 7.78748,7.29214 8.68928,10.58416 1.02359,3.73669 2.98482,3.57125 2.98482,-0.252 0,-1.97241 -2.08831,-5.15983 -5.90867,-9.01852 -6.55326,-6.61893 -14.09284,-22.761 -10.63113,-22.761 2.81039,0 6.84691,2.43495 11.66686,7.03784 l 4.45648,4.25582 -0.55556,-3.78549 c -0.44853,-3.05577 -1.59739,-4.24628 -5.96026,-6.17619 -4.28296,-1.89456 -6.57705,-4.21977 -11.05352,-11.20358 -3.10692,-4.84709 -5.64891,-9.08703 -5.64891,-9.4221 0,-2.03095 6.90863,0.0235 12.31434,3.66043 3.48955,2.3483 6.34466,3.99081 6.34466,3.65 0,-2.21031 -2.92066,-5.27074 -5.69444,-5.96689 -1.79973,-0.45181 -4.61652,-1.70212 -6.25955,-2.77867 -3.38709,-2.219281 -14.64775,-17.768631 -13.61544,-18.800941 1.26375,-1.26375 10.51811,2.2679 14.3154,5.46317 4.20881,3.54149 4.38501,3.35836 5.52353,-5.73928 0.38552,-3.07872 1.33625,-7.83239 2.11323,-10.56372 l 1.4127,-4.96598 3.01186,8.07583 c 4.63457,12.42709 5.09683,19.7686 1.63264,25.932281 -2.32624,4.139 -2.60157,5.60422 -1.48751,7.91655 l 1.36705,2.83748 0.0842,-2.7522 c 0.11655,-3.8059 4.80106,-16.009341 6.77431,-17.646961 1.29327,-1.07335 1.93568,0.77386 3.18167,9.148521 1.78947,12.02817 0.62731,17.79463 -4.55416,22.59663 -2.46772,2.28699 -2.89509,3.56198 -2.22169,6.62791 l 0.8338,3.79617 3.61157,-7.22745 c 1.98637,-3.97505 5.09749,-8.59346 6.91362,-10.26305 l 3.30199,-3.03565 -0.70513,11.39846 c -0.79883,12.91243 -2.7404,17.8944 -9.16567,23.51901 -3.40174,2.97787 -4.27133,4.5918 -3.94758,7.32674 0.40385,3.41055 0.54353,3.32061 5.05402,-3.2506 2.5514,-3.71704 6.39011,-8.41349 8.53056,-10.43658 l 3.89165,-3.67835 -0.90438,6.84164 c -1.66385,12.58695 -5.22555,21.81901 -10.05289,26.05749 -2.44294,2.14491 -5.97101,4.20571 -7.84008,4.57957 -2.31473,0.4631 -3.84726,1.86889 -4.80609,4.40901 -1.39084,3.68478 -1.37504,3.70589 1.32342,1.76719 4.86397,-3.49452 19.01888,-11.93457 20.0156,-11.93457 1.50141,0 -8.98054,18.84048 -12.71543,22.85498 -4.18355,4.49668 -9.95086,6.99942 -16.12964,6.99942 -3.61075,0 -5.5455,0.81924 -7.81457,3.309 -2.68718,2.94858 -2.74468,3.20989 -0.52779,2.39903 4.8603,-1.77782 15.48871,-4.30101 21.38413,-5.07666 l 5.98237,-0.78713 -8.08554,7.51988 c -13.51163,12.56621 -25.03557,16.60507 -34.01555,11.92155 -2.96809,-1.54806 -3.92023,-1.579 -5.90077,-0.19182 -3.0579,2.14185 -1.79832,3.29691 3.59516,3.29691 5.74842,0 20.15004,2.69522 20.15004,3.77101 0,0.46921 -4.61812,2.73006 -10.26244,5.02405 -8.90917,3.62094 -11.73884,4.18201 -21.45789,4.2547 -6.15744,0.047 -11.89512,0.52036 -12.75032,1.05398 -2.78769,1.73955 -1.53692,3.88507 3.78987,6.50102 7.90591,3.88248 11.30438,10.07574 16.20882,29.53841 2.36019,9.36606 3.93392,17.02078 3.4972,17.01048 -0.43677,-0.009 -3.03316,-0.82539 -5.7698,-1.81129 -2.73669,-0.9859 -8.75421,-1.81717 -13.37229,-1.84717 l -8.39656,-0.0545 v -14.37632 c 0,-16.15476 -1.38548,-23.38418 -5.46095,-28.4953 -2.67632,-3.35639 -3.21732,-3.49316 -13.82005,-3.49316 -10.60269,0 -11.14373,0.13682 -13.82001,3.49316 -4.07548,5.11112 -5.46096,12.34054 -5.46096,28.4953 v 14.37632 l -8.39656,0.0545 c -4.618076,0.0282 -10.635596,0.86127 -13.372276,1.84717 -2.73664,0.9859 -5.3445,1.801 -5.79528,1.81129 -0.45087,0.009 1.24161,-8.01866 3.76085,-17.84221 z M 55.122568,85.333479 c 1.64044,-10.03733 2.203866,-12.26259 3.98883,-15.75344 2.143217,-4.19151 11.825636,-14.81676 16.599846,-18.21626 l 3.27646,-2.33307 -4.298,10.82535 c -4.7767,12.03119 -6.96613,15.59232 -14.898754,24.2335 l -5.432185,5.91738 z m 139.598252,-2.61172 c -3.11873,-3.33419 -6.82824,-8.33163 -8.24334,-11.10546 -2.53091,-4.961 -8.85331,-21.01303 -8.85331,-22.47778 0,-1.87702 16.63242,15.86999 18.8069,20.06724 2.37102,4.57661 5.52838,18.00996 4.47958,19.05881 -0.28585,0.28585 -3.07111,-2.20861 -6.18983,-5.54281 z"
       id="path863"
       inkscape:connector-curvature="0" />
  </g>
</svg>
