<?xml version="1.0" encoding="UTF-8" standalone="no"?>
<svg
   viewBox="0 0 512 512"
   style="height: 512px; width: 512px;"
   version="1.1"
   id="svg8"
   sodipodi:docname="fire-bowl.svg"
   inkscape:version="1.2.2 (b0a8486541, 2022-12-01)"
   xmlns:inkscape="http://www.inkscape.org/namespaces/inkscape"
   xmlns:sodipodi="http://sodipodi.sourceforge.net/DTD/sodipodi-0.dtd"
   xmlns="http://www.w3.org/2000/svg"
   xmlns:svg="http://www.w3.org/2000/svg">
  <defs
     id="defs12" />
  <sodipodi:namedview
     id="namedview10"
     pagecolor="#ffffff"
     bordercolor="#000000"
     borderopacity="0.25"
     inkscape:showpageshadow="2"
     inkscape:pageopacity="0.0"
     inkscape:pagecheckerboard="0"
     inkscape:deskcolor="#d1d1d1"
     showgrid="false"
     inkscape:zoom="1.9570312"
     inkscape:cx="125.7006"
     inkscape:cy="256"
     inkscape:window-width="2560"
     inkscape:window-height="1371"
     inkscape:window-x="1920"
     inkscape:window-y="32"
     inkscape:window-maximized="1"
     inkscape:current-layer="svg8" />
  <path
     d="M0 0h512v512H0z"
     fill="#000"
     fill-opacity="1"
     id="path2" />
  <path
     d="m 255.99997,16.296998 c -1.89356,0 -3.79191,0.93539 -4.49705,2.81067 L 175.07176,222.95536 c -2.24493,5.12304 -4.32826,10.15446 -6.33335,15.00888 -15.561,37.59776 -25.79584,62.47272 -79.616549,51.22889 -1.717275,-0.35497 -3.505351,0.24944 -4.647003,1.59275 -1.132058,1.34312 -1.438865,3.19375 -0.805871,4.83427 5.410854,13.8917 16.660263,42.78969 2.567085,78.67976 -0.709934,1.80362 -0.257111,3.84718 1.124287,5.1903 1.400682,1.36231 3.433782,1.73224 5.227806,0.97434 2.139398,-0.91141 5.023364,-1.40529 8.150915,-1.40529 8.73987,0 17.50971,3.50736 22.33535,8.95659 11.26302,12.68289 52.58674,47.30756 107.77937,55.12644 0.22065,0.0288 0.43517,0.0384 0.65582,0.0384 1.11287,0 2.20955,-0.36744 3.07298,-1.08677 1.04572,-0.87303 1.65672,-2.14209 1.72388,-3.48521 0.12472,-3.00283 0.20703,-5.94541 0.16866,-7.30772 -0.0576,-1.88996 -1.24239,-3.59016 -2.99804,-4.30969 -34.85396,-14.27547 -62.72564,-58.32577 -47.08789,-98.50424 7.1761,-16.46281 47.00424,-121.72445 66.16289,-172.3121 l 3.44772,-9.16267 3.44774,9.14406 c 19.14905,50.57796 58.97899,155.86281 66.08794,172.14334 15.76247,40.47588 -11.74481,84.43801 -46.28217,98.57914 -1.80362,0.73872 -2.99804,3.22416 -2.99804,5.17169 0.01,3.12755 0.0154,3.95961 0.16866,6.50194 0.0768,1.34312 0.70648,2.58474 1.74261,3.42899 1.04572,0.84424 2.39528,1.23164 3.72881,1.04936 54.57863,-7.73254 95.77598,-42.36852 107.04859,-55.05141 4.82564,-5.43964 13.59549,-8.95669 22.33536,-8.95669 3.11796,0 6.01151,0.50367 8.15091,1.40538 1.78443,0.7579 3.82714,0.38759 5.22782,-0.97434 1.39109,-1.34312 1.81547,-3.39636 1.10552,-5.19039 -14.10273,-35.88048 -2.84377,-64.77886 2.56708,-78.66096 0.63319,-1.64052 0.32638,-3.49115 -0.80567,-4.83427 -1.14165,-1.34312 -2.94888,-1.95731 -4.64697,-1.59275 -53.79194,11.23424 -64.05556,-13.64072 -79.61657,-51.22889 -2.00507,-4.86401 -4.09066,-9.88219 -6.23965,-14.76539 L 260.49683,19.107668 c -0.70034,-1.87557 -2.60349,-2.81067 -4.49705,-2.81067 z M 87.791501,414.23 c -3.511299,1.33353 -4.987675,2.10985 -8.038476,2.82938 0,0 64.606565,79.0355 176.977725,78.64216 114.49136,-0.42213 175.51623,-77.81777 175.51623,-77.81777 -2.05307,-1.2279 -3.51085,-1.95424 -6.01482,-3.31655 C 364.55418,462.42066 279.93733,495.8629 256.35599,453.80407 243.51001,488.51412 162.88145,470.76575 87.791501,414.23 Z"
     id="path2-3"
     style="fill:#ffffff;stroke-width:9.59371" />
</svg>
