<?xml version="1.0" encoding="UTF-8" standalone="no"?>
<!-- Created with Inkscape (http://www.inkscape.org/) -->

<svg
   xmlns:dc="http://purl.org/dc/elements/1.1/"
   xmlns:cc="http://creativecommons.org/ns#"
   xmlns:rdf="http://www.w3.org/1999/02/22-rdf-syntax-ns#"
   xmlns:svg="http://www.w3.org/2000/svg"
   xmlns="http://www.w3.org/2000/svg"
   xmlns:sodipodi="http://sodipodi.sourceforge.net/DTD/sodipodi-0.dtd"
   xmlns:inkscape="http://www.inkscape.org/namespaces/inkscape"
   width="256mm"
   height="256mm"
   viewBox="0 0 256.00001 256.00002"
   version="1.1"
   id="svg952"
   inkscape:version="0.92.5 (2060ec1f9f, 2020-04-08)"
   sodipodi:docname="panem.svg">
  <defs
     id="defs946" />
  <sodipodi:namedview
     id="base"
     pagecolor="#ffffff"
     bordercolor="#666666"
     borderopacity="1.0"
     inkscape:pageopacity="0.0"
     inkscape:pageshadow="2"
     inkscape:zoom="1.2179914"
     inkscape:cx="641.31088"
     inkscape:cy="379.44876"
     inkscape:document-units="mm"
     inkscape:current-layer="layer1"
     showgrid="false"
     units="mm"
     inkscape:window-width="3840"
     inkscape:window-height="2056"
     inkscape:window-x="0"
     inkscape:window-y="50"
     inkscape:window-maximized="1"
     showguides="true"
     inkscape:guide-bbox="true" />
  <metadata
     id="metadata949">
    <rdf:RDF>
      <cc:Work
         rdf:about="">
        <dc:format>image/svg+xml</dc:format>
        <dc:type
           rdf:resource="http://purl.org/dc/dcmitype/StillImage" />
        <dc:title />
      </cc:Work>
    </rdf:RDF>
  </metadata>
  <g
     inkscape:label="Layer 1"
     inkscape:groupmode="layer"
     id="layer1"
     transform="translate(0,-40.999976)">
    <rect
       style="fill:#1a1a1a;fill-opacity:1;stroke:none;stroke-width:0.83444387;stroke-opacity:1"
       id="rect816"
       width="256"
       height="256"
       x="0"
       y="40.999977" />
    <g
       id="g4877">
      <g
         id="g4789">
        <path
           style="fill:#ffffff;stroke-width:0.97118223"
           d="m 115.28472,288.54901 c -0.25128,-0.25307 -0.15911,-2.77508 0.20556,-5.60414 0.3643,-2.82908 1.36915,-11.06464 2.2326,-18.30131 2.79324,-23.40966 4.17369,-33.16337 4.78002,-33.77404 0.7734,-0.77891 10.22085,-0.77891 10.99421,0 0.60636,0.61067 1.98681,10.36438 4.78002,33.77404 0.86348,7.23667 1.86815,15.47223 2.2326,18.30131 0.3643,2.82906 0.45694,5.35093 0.20556,5.60414 -0.59707,0.60128 -24.83343,0.60128 -25.43046,0 z"
           id="path4784" />
        <path
           style="fill:#ffffff;stroke-width:0.97118223"
           d="m 106.22574,287.41842 c -9.213577,-1.85778 -17.900574,-4.85926 -17.880457,-6.17798 0.01097,-0.81954 1.773756,-7.19168 3.913894,-14.16032 2.140139,-6.96864 5.386593,-17.77001 7.214299,-24.0031 4.017004,-13.69902 5.025034,-16.4548 6.002534,-16.40953 1.72291,0.0799 12.11516,2.80238 12.61384,3.30461 0.29809,0.30022 -0.42476,7.67609 -1.60668,16.39049 -4.58298,33.79084 -5.07968,37.35445 -5.50279,39.47926 -0.43127,2.16592 -0.96082,2.34152 -4.75464,1.57657 z"
           id="path4782" />
        <path
           style="fill:#ffffff;stroke-width:0.97118223"
           d="m 145.03682,285.9114 c -0.43968,-2.19112 -0.92387,-5.66031 -5.52009,-39.54881 -1.18192,-8.7144 -1.90496,-16.09012 -1.60672,-16.39049 0.49872,-0.50223 10.89096,-3.22482 12.61388,-3.30461 0.97746,-0.0453 1.98553,2.71051 6.00249,16.40953 1.82775,6.23309 5.0742,17.03446 7.21434,24.0031 2.14014,6.96864 3.90139,13.34078 3.91389,14.16032 0.0146,1.04907 -2.34002,2.12426 -7.96114,3.63305 -13.38768,3.59352 -14.13321,3.64631 -14.65665,1.03791 z"
           id="path4780" />
      </g>
      <g
         id="g4815">
        <g
           id="g4805">
          <g
             id="g4793">
            <path
               style="fill:#ffffff;stroke-width:0.97118223"
               d="m 116.45643,226.55739 c -2.35699,-0.47133 -4.65605,-1.2302 -5.10901,-1.68638 -0.45296,-0.45619 -0.70193,-6.93486 -0.55329,-14.39704 l 0.2703,-13.56758 5.96917,-0.28807 c 5.06114,-0.24422 6.04361,-0.0221 6.4585,1.46197 0.2692,0.96251 0.41363,7.88411 0.32113,15.38131 -0.18763,15.20652 0.15435,14.5978 -7.35683,13.09582 z"
               id="path4778" />
            <path
               style="fill:#ffffff;stroke-width:0.97118223"
               d="m 132.49983,226.86902 c -0.73778,-1.20223 -0.45837,-28.17632 0.30468,-29.41981 0.44008,-0.71717 2.80728,-1.02712 6.41419,-0.8398 l 5.7167,0.2969 0.26846,13.90247 c 0.26445,13.69161 0.23519,13.91492 -1.93549,14.72179 -3.52414,1.30998 -10.27151,2.14864 -10.76869,1.33849 z"
               id="path4776" />
          </g>
          <g
             id="g4797">
            <path
               style="fill:#ffffff;stroke-width:0.97118223"
               d="M 101.38706,221.08774 C 82.143739,211.02512 69.935455,190.42683 69.935455,168.0214 c 0,-19.91438 11.017075,-38.94384 28.604673,-49.40787 3.756762,-2.23517 7.349482,-4.06392 7.983862,-4.06392 0.87896,0 1.15339,12.98634 1.15339,54.57958 0,30.01874 -0.32663,54.55914 -0.72582,54.5342 -0.39919,-0.0258 -2.90322,-1.184 -5.5645,-2.57565 z"
               id="path4774" />
            <path
               style="fill:#ffffff;stroke-width:0.97118223"
               d="m 148.32252,169.12919 c 0,-41.59324 0.27432,-54.57958 1.15339,-54.57958 0.63434,0 4.2271,1.82875 7.98386,4.06392 17.58756,10.46403 28.60467,29.49349 28.60467,49.40787 0,22.52441 -12.37116,43.27749 -31.66137,53.11323 -2.77667,1.41578 -5.2807,2.57411 -5.5645,2.57411 -0.28383,0 -0.51605,-24.56081 -0.51605,-54.57955 z"
               id="path4772" />
          </g>
        </g>
        <path
           style="fill:#ffffff;stroke-width:0.97118223"
           d="m 110.5806,181.89587 v -11.59918 l 5.80645,-5.06607 c 5.24486,-4.57602 5.80645,-5.43376 5.80645,-8.86811 0,-3.30679 -0.28712,-3.80213 -2.20404,-3.80213 -1.2122,0 -3.17187,0.68277 -4.35482,1.51723 -1.98494,1.40019 -2.15041,1.3814 -2.1454,-0.24349 0.003,-0.96848 0.45892,-3.40559 1.01319,-5.41576 0.96177,-3.4878 2.0378,-4.19875 5.60847,-3.70569 0.71743,0.0991 2.02389,-0.46123 2.90322,-1.24511 0.87929,-0.78389 4.21162,-1.93963 7.40519,-2.56836 3.19353,-0.62873 6.62784,-1.38075 7.63178,-1.67113 1.57229,-0.45482 1.73293,-0.15729 1.15884,2.14628 -0.41416,1.66185 -0.0366,4.44003 0.99885,7.3383 1.55741,4.36186 1.5607,4.82478 0.0508,7.1456 -2.24109,3.44466 -2.08023,4.33324 1.77262,9.79091 l 3.38709,4.79793 v 11.52408 11.52407 h -17.4193 -17.41935 z"
           id="path4770" />
      </g>
      <g
         id="g4847">
        <g
           id="g4823">
          <path
             id="path4768"
             d="M 8.61583,179.78374 C 8.27714,178.07809 8,173.38746 8,169.36008 v -7.32253 l 6.04836,0.57314 c 3.32663,0.31533 14.322603,1.05854 24.435481,1.65179 10.112914,0.59326 20.564523,1.38274 23.225805,1.75438 l 4.83872,0.67574 0.630717,5.84781 c 0.346741,3.21627 0.442863,6.04352 0.213239,6.28277 -0.229698,0.23907 -10.094049,0.97264 -21.921027,1.62977 -11.826979,0.65716 -24.819235,1.47317 -28.871645,1.81335 l -7.36802,0.61856 z"
             style="fill:#ffffff;stroke-width:0.97118223" />
          <path
             id="path4764"
             d="M 53.967694,161.26052 C 49.1774,160.83786 38.072543,159.8057 29.290302,158.96678 20.50806,158.12786 12.34271,157.43968 11.14514,157.43751 c -1.83341,-0.003 -2.17741,-0.53126 -2.17741,-3.34156 0,-5.55172 3.90237,-21.02829 5.30225,-21.02829 1.20291,0 13.431714,4.446 35.342895,12.84953 5.588712,2.14341 12.242709,4.55179 14.786684,5.35192 4.60595,1.44867 4.622921,1.46982 4.037521,5.0279 -0.323332,1.96523 -0.758039,4.12135 -0.96601,4.79145 -0.408189,1.31529 -0.528597,1.3168 -13.503376,0.17203 z"
             style="fill:#ffffff;stroke-width:0.97118223" />
          <path
             id="path4760"
             d="M 65.5806,147.5029 C 63.983835,146.95009 51.928322,142.10637 38.790604,136.73906 L 14.9038,126.9803 l 2.34998,-5.35158 c 4.54981,-10.36118 7.895564,-16.34105 9.298438,-16.61902 1.280638,-0.25381 8.892957,4.76997 18.394576,12.1395 1.957843,1.51852 9.238418,6.92749 16.179061,12.01997 6.940637,5.09248 12.633115,9.80425 12.64994,10.47066 0.05304,2.09965 -3.284457,9.02556 -4.310562,8.94511 -0.539753,-0.0424 -2.287832,-0.52924 -3.884633,-1.08204 z"
             style="fill:#ffffff;stroke-width:0.97118223" />
          <path
             id="path4756"
             d="m 72.83868,132.98301 c -1.330637,-1.08303 -3.072572,-2.50504 -3.870954,-3.16003 -0.798419,-0.65495 -7.548384,-5.90767 -15.000032,-11.67267 C 32.539097,101.57185 30.258032,99.698048 30.258032,98.673948 c 0,-1.01938 10.308925,-14.31894 12.046617,-15.54136 0.55987,-0.39383 1.284039,-0.72277 1.609347,-0.73099 0.56115,-0.0147 15.094683,16.38374 25.537594,28.813522 2.661274,3.16762 6.689506,7.78111 8.951589,10.25214 2.262119,2.47108 4.100139,5.10522 4.084558,5.85371 -0.02926,1.4914 -5.302395,7.71568 -6.490276,7.6636 -0.406689,-0.0184 -1.828144,-0.91856 -3.158781,-2.00156 z"
             style="fill:#ffffff;stroke-width:0.97118223" />
          <path
             id="path4752"
             d="m 82.391505,120.1081 c -1.849029,-2.25307 -6.37956,-7.8245 -10.067926,-12.38089 -3.68833,-4.55643 -7.440594,-9.161592 -8.338354,-10.233692 -10.36259,-12.375 -15.306429,-18.70728 -15.321682,-19.62466 -0.02195,-1.3055 14.237531,-12.05099 15.991646,-12.05099 0.66188,0 4.684552,6.24984 8.939298,13.88858 4.254711,7.63869 8.72756,15.64289 9.939654,17.78707 6.155495,10.889162 10.594841,19.088732 10.594841,19.569012 0,0.56721 -5.294311,5.29286 -7.233757,6.45679 -0.683936,0.41047 -2.490171,-0.95761 -4.50372,-3.41122 z"
             style="fill:#ffffff;stroke-width:0.97118223" />
          <path
             id="path4748"
             d="M 83.880334,88.742688 C 76.380632,74.580158 70.510979,62.558458 70.836616,62.027818 72.376322,59.518778 94.760943,51.055969 103.56447,49.654628 l 4.11291,-0.65465 -0.004,31.0692 -0.004,31.069242 -4.11946,1.70562 c -2.26566,0.93807 -4.550314,1.69282 -5.077009,1.67716 -0.526659,-0.0147 -7.093634,-11.61594 -14.593336,-25.778512 z"
             style="fill:#ffffff;stroke-width:0.97118223" />
        </g>
        <g
           id="g4831">
          <path
             id="path4766"
             d="m 236.38699,182.0602 c -2.39515,-0.20518 -14.03204,-0.92036 -25.85975,-1.58902 -11.82767,-0.66862 -21.69212,-1.41084 -21.92102,-1.64932 -0.22896,-0.2387 -0.1324,-3.06518 0.2147,-6.28145 l 0.63072,-5.84781 4.83872,-0.67574 c 2.66128,-0.37164 13.11288,-1.16112 23.2258,-1.75438 10.11288,-0.59325 21.10885,-1.33658 24.43548,-1.65179 L 248,162.03755 v 7.32253 c 0,4.02738 -0.27213,8.69311 -0.60482,10.36825 -0.65625,3.30451 -0.3699,3.24384 -11.00808,2.33187 z"
             style="fill:#ffffff;stroke-width:0.97118223" />
          <path
             id="path4762"
             d="m 188.53991,161.1176 c -0.21397,-0.68609 -0.65372,-2.85532 -0.97709,-4.82055 -0.5854,-3.55809 -0.56843,-3.57923 4.03752,-5.02791 2.54397,-0.80012 9.19796,-3.2085 14.78667,-5.35191 21.91119,-8.40354 34.13999,-12.84953 35.3429,-12.84953 1.38335,0 5.30225,15.44909 5.30225,20.90242 v 3.21178 l -7.98386,0.64781 c -4.39114,0.35621 -14.51612,1.26195 -22.50002,2.01257 -27.91975,2.62486 -27.59195,2.60994 -28.00837,1.27532 z"
             style="fill:#ffffff;stroke-width:0.97118223" />
          <path
             id="path4758"
             d="m 183.87339,144.75665 c -0.92395,-2.14786 -1.66615,-4.45045 -1.64929,-5.11682 0.0183,-0.66641 5.70931,-5.37818 12.64994,-10.47066 6.94064,-5.09248 14.22121,-10.50145 16.17906,-12.01997 9.50161,-7.36953 17.11393,-12.39327 18.39454,-12.1395 1.40291,0.27811 4.74867,6.25784 9.29847,16.61902 l 2.34998,5.35158 -23.8868,9.74992 c -22.46732,9.17051 -29.65521,11.93167 -31.06098,11.93167 -0.32735,0 -1.35097,-1.75737 -2.27492,-3.90524 z"
             style="fill:#ffffff;stroke-width:0.97118223" />
          <path
             id="path4754"
             d="m 176.14509,131.64529 c -1.4637,-1.77703 -2.66128,-3.78316 -2.66128,-4.45808 0,-0.67492 1.85079,-3.24887 4.11287,-5.71995 2.26212,-2.47103 6.29035,-7.08452 8.95163,-10.25214 10.44286,-12.429782 24.97643,-28.827662 25.53758,-28.813522 0.32517,0.007 1.04948,0.33705 1.60931,0.73099 1.73773,1.22242 12.04662,14.52198 12.04662,15.54136 0,1.03305 -2.62568,3.185712 -23.70966,19.438232 -7.4516,5.74405 -13.76609,10.69385 -14.03222,10.99956 -1.21842,1.39961 -7.69656,5.8978 -8.40321,5.83488 -0.4347,-0.0387 -1.98794,-1.52429 -3.45164,-3.30133 z"
             style="fill:#ffffff;stroke-width:0.97118223" />
          <path
             id="path4750"
             d="m 166.00492,121.2188 c -2.21877,-1.79188 -4.05661,-3.58085 -4.08408,-3.97555 -0.0443,-0.634 3.64802,-7.54904 10.54492,-19.749732 1.21209,-2.14418 5.68494,-10.14838 9.93965,-17.78707 4.25475,-7.63874 8.27738,-13.88858 8.9393,-13.88858 1.75411,0 16.01336,10.74549 15.99164,12.05099 -0.0146,0.91866 -5.8231,8.34551 -15.52014,19.84675 -1.0069,1.19424 -5.43473,6.616512 -9.83965,12.049512 -4.4049,5.43299 -8.89282,10.96567 -9.9732,12.29488 l -1.96428,2.4167 z"
             style="fill:#ffffff;stroke-width:0.97118223" />
          <path
             id="path873"
             d="m 151.9565,112.75043 -3.6241,-1.61201 -0.004,-31.069242 -0.004,-31.0692 4.1129,0.65465 c 8.80349,1.401341 31.18811,9.86415 32.72786,12.37319 0.93111,1.51734 -26.42646,52.476332 -28.13109,52.399782 -0.79838,-0.0368 -3.08245,-0.79058 -5.0757,-1.67717 z"
             style="fill:#ffffff;stroke-width:0.97118223" />
        </g>
      </g>
    </g>
  </g>
</svg>
