<?xml version="1.0" encoding="UTF-8" standalone="no"?>
<svg
   viewBox="0 0 512 512"
   style="height: 512px; width: 512px;"
   version="1.1"
   id="svg2"
   sodipodi:docname="bing_6iiuhhcu8uyp.svg"
   inkscape:version="1.3 (0e150ed6c4, 2023-07-21)"
   xmlns:inkscape="http://www.inkscape.org/namespaces/inkscape"
   xmlns:sodipodi="http://sodipodi.sourceforge.net/DTD/sodipodi-0.dtd"
   xmlns="http://www.w3.org/2000/svg"
   xmlns:svg="http://www.w3.org/2000/svg">
  <defs
     id="defs2" />
  <sodipodi:namedview
     id="namedview2"
     pagecolor="#ffffff"
     bordercolor="#666666"
     borderopacity="1.0"
     inkscape:showpageshadow="2"
     inkscape:pageopacity="0.0"
     inkscape:pagecheckerboard="0"
     inkscape:deskcolor="#d1d1d1"
     inkscape:zoom="0.78710938"
     inkscape:cx="-24.774194"
     inkscape:cy="343.0273"
     inkscape:window-width="1920"
     inkscape:window-height="1011"
     inkscape:window-x="0"
     inkscape:window-y="32"
     inkscape:window-maximized="1"
     inkscape:current-layer="svg2" />
  <path
     d="M0 0h512v512H0z"
     fill="#000"
     fill-opacity="1"
     id="path1" />
  <path
     style="fill:#f9f9f9;stroke-width:4.30312"
     d="M 217.52958,489.41408 C 195.69461,486.43542 167.97773,477.66331 146.55778,466.95222 102.30839,444.82527 65.437647,407.25888 43.476657,361.92629 36.812897,348.17074 28.719743,326.5643 28.719743,322.52948 c 0,-2.13017 3.413724,-2.17372 168.752127,-2.15207 l 168.75214,0.0215 11.09907,-11.0574 c 6.10448,-6.08159 10.93407,-11.22244 10.73239,-11.42408 -0.20181,-0.20181 -46.41544,-0.3507 -102.69731,-0.33091 l -102.33059,0.0344 28.43581,-28.75982 c 15.63967,-15.81794 56.87476,-57.32116 91.63346,-92.22938 34.75865,-34.90826 70.11418,-70.65323 78.56777,-79.433256 8.4536,-8.780071 15.96648,-15.954478 16.69535,-15.943075 2.06911,0.03443 26.48909,24.622071 34.46625,34.705851 21.5092,27.18947 34.72371,52.85452 43.10711,83.72212 5.45584,20.08818 7.38079,35.3027 7.34649,58.06513 -0.0344,22.62318 -1.98562,38.44792 -7.10886,57.64535 -11.60976,43.50284 -31.71218,78.88582 -62.02399,109.17049 -36.25183,36.21943 -83.26652,59.0056 -134.92035,65.3906 -13.04355,1.61234 -48.16324,1.30325 -61.69703,-0.54301 z M 75.968807,138.3567 c -10.34372,-2.97229 -17.97805,-7.66892 -25.96515,-15.97375 -12.59274,-13.09373 -16.72979,-23.287845 -16.72979,-41.223993 0,-33.694575 25.81141,-59.901645 59.24908,-60.157288 21.639353,-0.165455 42.766753,12.011678 52.636553,30.337924 3.93192,7.30079 7.66657,21.606444 7.64044,29.266845 -0.0931,27.296022 -18.72633,51.288842 -45.18358,58.180062 -8.538013,2.22385 -23.100903,2.02608 -31.647553,-0.42988 z"
     id="path1-2" />
</svg>
