<svg xmlns="http://www.w3.org/2000/svg" viewBox="0 0 512 512" style="height: 512px; width: 512px;"><path d="M0 0h512v512H0z" fill="#000" fill-opacity="1"></path><g class="" transform="translate(0,0)" style="touch-action: none;"><path d="M256 16v72H88l48 48L16 256h72v168l48-48 120 120v-72h168l-48-48 120-120h-72V88l-48 48L256 16zm0 120c66.274 0 120 53.726 120 120s-53.726 120-120 120-120-53.726-120-120 53.726-120 120-120zm1.406 72.03A48 48 0 0 0 208 256a48 48 0 0 0 96 0 48 48 0 0 0-46.594-47.97z" fill="#fff" fill-opacity="1"></path></g></svg>