<?xml version="1.0" encoding="UTF-8" standalone="no"?>
<!-- Created with Inkscape (http://www.inkscape.org/) -->

<svg
   width="1024"
   height="1024"
   viewBox="0 0 270.93333 270.93333"
   version="1.1"
   id="svg5"
   xml:space="preserve"
   inkscape:version="1.2.2 (b0a8486541, 2022-12-01)"
   sodipodi:docname="kf5osapk9zog.svg"
   xmlns:inkscape="http://www.inkscape.org/namespaces/inkscape"
   xmlns:sodipodi="http://sodipodi.sourceforge.net/DTD/sodipodi-0.dtd"
   xmlns="http://www.w3.org/2000/svg"
   xmlns:svg="http://www.w3.org/2000/svg"><sodipodi:namedview
     id="namedview7"
     pagecolor="#ffffff"
     bordercolor="#666666"
     borderopacity="1.0"
     inkscape:showpageshadow="2"
     inkscape:pageopacity="0.0"
     inkscape:pagecheckerboard="0"
     inkscape:deskcolor="#d1d1d1"
     inkscape:document-units="mm"
     showgrid="false"
     inkscape:zoom="0.37415825"
     inkscape:cx="-40.089989"
     inkscape:cy="519.83352"
     inkscape:window-width="1920"
     inkscape:window-height="1011"
     inkscape:window-x="0"
     inkscape:window-y="32"
     inkscape:window-maximized="1"
     inkscape:current-layer="layer1" /><defs
     id="defs2" /><g
     inkscape:label="Layer 1"
     inkscape:groupmode="layer"
     id="layer1"><rect
       style="fill:#000000;stroke:#000000;stroke-width:1.56286;stop-color:#000000"
       id="rect974"
       width="269.37048"
       height="269.37048"
       x="0.78142494"
       y="0.78142494" /><path
       style="fill:#ffffff;stroke-width:0.264583"
       d="m 134.02235,241.52373 c -0.77888,-1.48472 -2.87057,-5.31887 -4.6482,-8.52033 -5.4306,-9.7803 -7.83548,-14.1747 -9.19458,-16.80104 -0.71539,-1.38245 -2.04958,-3.88276 -2.96486,-5.55625 -0.91528,-1.67349 -2.34799,-4.29287 -3.18379,-5.82083 -0.83581,-1.52797 -3.74997,-6.94532 -6.47592,-12.03855 -2.72594,-5.09322 -6.18632,-11.5226 -7.689728,-14.28749 -1.50341,-2.7649 -3.45453,-6.37506 -4.33583,-8.02259 l -1.60236,-2.9955 -3.57188,-1.58815 c -1.96453,-0.87348 -5.23449,-2.36256 -7.26657,-3.30906 -2.03208,-0.94651 -3.87755,-1.72673 -4.10104,-1.73384 -0.22349,-0.007 -1.35885,0.51616 -2.52301,1.16281 -1.16417,0.64665 -3.72401,2.07281 -5.68854,3.16925 -3.85446,2.15123 -10.796554,5.97139 -13.361462,7.35267 -1.978271,1.06535 -5.800285,3.19544 -10.451041,5.82457 -3.210547,1.81497 -6.002935,3.18254 -6.498267,3.18254 -0.37484,0 0.189556,-1.73714 1.70483,-5.24728 0.858599,-1.98894 2.454991,-5.75938 3.547541,-8.37876 1.092549,-2.61937 2.788332,-6.6675 3.76841,-8.99583 0.980074,-2.32833 2.409888,-5.79898 3.177362,-7.71256 0.767472,-1.91357 1.935141,-4.77107 2.594819,-6.35 2.806266,-6.71675 5.728221,-14.51731 5.728221,-15.29227 0,-0.21117 -1.7077,-3.21772 -3.794889,-6.68122 -3.445762,-5.71793 -6.297745,-10.52804 -10.63626,-17.93895 -0.851914,-1.45521 -2.379049,-3.95552 -3.393636,-5.556255 -1.014587,-1.60073 -2.399326,-3.92244 -3.077197,-5.15937 -1.290113,-2.3541 -2.296599,-4.07396 -6.348359,-10.84792 -4.513463,-7.54586 -9.075123,-15.39747 -11.375188,-19.57916 -3.720251,-6.76371 -5.030309,-9.25851 -5.026667,-9.57251 0.0032,-0.27813 0.05115,-0.27502 0.235002,0.0153 0.127022,0.20054 0.373869,0.27629 0.548548,0.16833 0.174678,-0.10795 5.754162,-2.03616 12.398853,-4.284908 6.644687,-2.248747 15.593596,-5.278774 19.88646,-6.733392 4.292865,-1.454618 8.817239,-2.983156 10.054166,-3.396747 2.046886,-0.684419 7.285584,-2.54662 16.139584,-5.737132 1.81901,-0.655476 5.15276,-1.828448 7.40833,-2.606603 5.407,-1.865374 12.71714,-4.553006 13.28144,-4.883029 0.34385,-0.201099 1.11918,0.06764 3.307288,1.146334 1.57198,0.774957 3.68738,1.802379 4.70089,2.283164 l 1.84275,0.874151 -1.44587,0.681093 c -0.79523,0.374603 -4.83915,2.33721 -8.986498,4.361349 -15.24167,7.438811 -16.98937,8.215593 -29.63333,13.170828 -4.926606,1.930762 -8.960705,3.403422 -18.504648,6.755152 -1.810108,0.63569 -3.33919,1.20388 -3.397962,1.26265 -0.05877,0.0588 0.429405,1.09793 1.084839,2.30924 0.655434,1.21132 1.808255,4.00428 2.561828,6.20658 l 1.370134,4.0042 2.423634,2.49306 c 1.332997,1.37119 3.136154,3.43884 4.007014,4.59477 0.870857,1.15593 2.724456,3.47091 4.119104,5.1444 2.121699,2.5459 9.551287,11.52971 11.056227,13.3691 1.97558,2.41464 2.37941,2.99363 2.21502,3.17581 -0.10357,0.11477 -0.0647,0.13859 0.0865,0.0529 0.15114,-0.0857 0.86552,0.57286 1.5875,1.463415 0.72198,0.89055 1.7336,2.10242 2.24804,2.69304 0.51445,0.59062 1.63899,1.96682 2.49898,3.05822 6.20355,7.87283 14.70047,17.26053 24.067498,26.59063 4.09071,4.07458 8.50006,8.65849 9.79856,10.18645 1.2985,1.52797 3.03077,3.55204 3.84949,4.49792 2.60167,3.00578 5.27999,6.52182 6.07405,7.97387 0.64722,1.18353 0.79764,1.32318 0.95132,0.88316 0.78611,-2.25087 1.93035,-3.93862 4.52935,-6.68078 0.26933,-0.28416 0.79324,-0.92256 2.54369,-3.09953 0.11823,-0.14704 0.81221,-1.19008 1.54217,-2.31786 0.72997,-1.12779 1.48707,-2.05053 1.68245,-2.05053 0.19538,0 0.95248,0.92274 1.68245,2.05053 0.72997,1.12778 1.42394,2.17082 1.54217,2.31786 1.75045,2.17697 2.27436,2.81537 2.54369,3.09953 2.599,2.74216 3.74324,4.42991 4.52936,6.68078 0.15367,0.44002 0.30409,0.30037 0.95131,-0.88316 0.79406,-1.45205 3.47238,-4.96809 6.07405,-7.97387 0.81872,-0.94588 2.55099,-2.96995 3.84949,-4.49792 1.2985,-1.52796 5.70785,-6.11187 9.79856,-10.18645 9.36703,-9.3301 17.86396,-18.7178 24.0675,-26.59063 0.85999,-1.0914 1.98453,-2.4676 2.49898,-3.05822 0.51444,-0.59062 1.52607,-1.80249 2.24804,-2.69304 0.72198,-0.890555 1.43636,-1.549095 1.5875,-1.463415 0.15115,0.0857 0.19007,0.0619 0.0865,-0.0529 -0.16439,-0.18218 0.23944,-0.76117 2.21502,-3.17581 1.50494,-1.83939 8.93454,-10.8232 11.05624,-13.3691 1.39464,-1.67349 3.24824,-3.98847 4.1191,-5.1444 0.87086,-1.15593 2.67402,-3.22358 4.00701,-4.59477 l 2.42364,-2.49306 1.37013,-4.0042 c 0.75358,-2.2023 1.9064,-4.99526 2.56183,-6.20658 0.65543,-1.21131 1.14361,-2.25047 1.08484,-2.30924 -0.0588,-0.0588 -1.58786,-0.62696 -3.39796,-1.26265 -9.54395,-3.35174 -13.57805,-4.82439 -18.50466,-6.75516 -12.64396,-4.955235 -14.39166,-5.732017 -29.63333,-13.170828 -4.14734,-2.024139 -8.19127,-3.986746 -8.9865,-4.361349 l -1.44587,-0.681093 1.84275,-0.874151 c 1.01351,-0.480785 3.12891,-1.508207 4.70089,-2.283164 2.18811,-1.078695 2.96344,-1.347433 3.30729,-1.146333 0.5643,0.330022 7.87444,3.017654 13.28144,4.883028 2.25557,0.778155 5.58932,1.951127 7.40833,2.606603 8.854,3.190512 14.09271,5.052713 16.13959,5.737132 1.23693,0.413591 5.7613,1.942129 10.05417,3.396747 4.29286,1.454618 13.24177,4.484645 19.88646,6.733392 6.64469,2.248746 12.22418,4.176956 12.39885,4.284916 0.17468,0.10795 0.42153,0.0322 0.54855,-0.16834 0.18386,-0.29028 0.23178,-0.29339 0.235,-0.0153 0.004,0.314 -1.30641,2.8088 -5.02666,9.57251 -2.30007,4.18169 -6.86173,12.0333 -11.37519,19.57916 -4.05176,6.77397 -5.05825,8.49382 -6.34836,10.84792 -0.67787,1.23693 -2.06261,3.55864 -3.0772,5.15937 -1.01459,1.600735 -2.54172,4.101055 -3.39363,5.556255 -4.33852,7.41091 -7.1905,12.22102 -10.63626,17.93895 -2.08719,3.46351 -3.79489,6.47006 -3.79489,6.68123 0,0.77496 2.92195,8.57552 5.72822,15.29227 0.65967,1.57893 1.82734,4.43643 2.59482,6.35 0.76747,1.91358 2.19728,5.38423 3.17736,7.71256 0.98008,2.32833 2.67586,6.37646 3.76841,8.99583 1.09255,2.61938 2.68894,6.38982 3.54754,8.37876 1.51527,3.51014 2.07967,5.24728 1.70483,5.24728 -0.49533,0 -3.28772,-1.36757 -6.49827,-3.18254 -4.65075,-2.62913 -8.47277,-4.75922 -10.45104,-5.82457 -2.56491,-1.38128 -9.50701,-5.20144 -13.36146,-7.35267 -1.96454,-1.09644 -4.52438,-2.5226 -5.68855,-3.16925 -1.16416,-0.64665 -2.29952,-1.16992 -2.52301,-1.16281 -0.22349,0.007 -2.06896,0.78733 -4.10104,1.73384 -2.03208,0.9465 -5.30204,2.43558 -7.26657,3.30906 l -3.57188,1.58815 -1.60236,2.9955 c -0.8813,1.64753 -2.83242,5.25769 -4.33583,8.02259 -1.50341,2.76489 -4.96379,9.19427 -7.68973,14.28749 -2.72595,5.09323 -5.64011,10.51058 -6.47592,12.03855 -0.8358,1.52796 -2.26851,4.14734 -3.18379,5.82083 -0.91528,1.67349 -2.24947,4.1738 -2.96486,5.55625 -1.4054,2.71583 -4.09997,7.63489 -9.20331,16.80104 -1.78244,3.20146 -3.60087,6.53521 -4.04097,7.40833 -0.4401,0.87313 -1.08611,2.0879 -1.43557,2.6995 l -0.63541,1.112 z m -4.31282,-39.0797 c 0.92771,-3.99368 0.95315,-4.24652 0.97173,-9.6573 0.0187,-5.44714 -5.3e-4,-5.64831 -0.97383,-10.24494 -0.54611,-2.57879 -1.34892,-6.06941 -1.78403,-7.75695 -0.43511,-1.68753 -0.79112,-3.09954 -0.79112,-3.1378 0,-0.0383 -0.51253,-0.43763 -1.13896,-0.8875 -0.62643,-0.44987 -1.84682,-1.67362 -2.71198,-2.71944 -1.97415,-2.38641 -4.7604,-4.33733 -6.5348,-4.57562 -0.69169,-0.0929 -1.73348,-0.41166 -2.3151,-0.70838 -0.58162,-0.29672 -1.05749,-0.49819 -1.05749,-0.4477 0,0.0505 0.53697,1.08779 1.19327,2.30512 0.6563,1.21733 1.5775,3.05367 2.0471,4.08077 1.40275,3.06803 3.28367,6.3424 4.80489,8.36454 0.78721,1.04642 1.66742,2.51963 1.95602,3.27379 0.777,2.03042 2.38444,11.3818 2.68654,15.62911 0.38834,5.45983 1.21938,9.95548 2.07864,11.2448 l 0.44083,0.66145 0.0878,-0.66145 c 0.0483,-0.36381 0.51651,-2.50693 1.04047,-4.7625 z m 13.82485,2.91735 c 0.29218,-0.98108 0.53124,-2.19241 0.53124,-2.69185 0,-0.49944 0.16428,-1.55817 0.36507,-2.35273 0.20079,-0.79456 0.44587,-2.99246 0.54462,-4.88423 0.20155,-3.86095 1.69999,-12.66752 2.54739,-14.97142 0.29893,-0.81271 1.19132,-2.33879 1.9831,-3.39129 1.52872,-2.03209 3.4082,-5.30264 4.8132,-8.37557 0.4696,-1.0271 1.3908,-2.86344 2.04709,-4.08077 0.6563,-1.21733 1.19328,-2.25463 1.19328,-2.30512 0,-0.0505 -0.47587,0.15098 -1.05749,0.4477 -0.58162,0.29672 -1.62342,0.61549 -2.31511,0.70838 -1.77439,0.23829 -4.56064,2.18921 -6.5348,4.57562 -0.86516,1.04582 -2.08555,2.26957 -2.71197,2.71944 -0.62643,0.44987 -1.13897,0.84924 -1.13897,0.8875 0,0.0383 -0.356,1.45027 -0.79111,3.1378 -0.43511,1.68754 -1.23792,5.17816 -1.78403,7.75695 -0.97341,4.59663 -0.99254,4.7978 -0.97383,10.24494 0.0187,5.43788 0.0398,5.64454 0.99027,9.70012 0.53416,2.27913 0.9712,4.40707 0.9712,4.72875 0,1.0992 0.75832,0.0347 1.32085,-1.85422 z m -12.56564,-54.5111 c 0.26339,-0.29104 0.41936,-0.52917 0.3466,-0.52917 -0.0728,0 -0.34779,0.23813 -0.61118,0.52917 -0.26339,0.29104 -0.41936,0.52917 -0.3466,0.52917 0.0728,0 0.34779,-0.23813 0.61118,-0.52917 z m 9.65729,0.43788 c 0,-0.0502 -0.26789,-0.3181 -0.59531,-0.59531 l -0.59531,-0.50403 0.50403,0.59531 c 0.47366,0.55945 0.68659,0.71576 0.68659,0.50403 z m -50.250008,-3.58222 c -0.5967,-0.87869 -1.69893,-2.34638 -2.4494,-3.26154 -1.30767,-1.59463 -7.9083,-8.3097 -9.77352,-9.94296 l -0.89477,-0.7835 -0.0601,1.02595 c -0.0998,1.70291 -3.61262,9.63671 -5.07003,11.45071 -0.4564,0.56808 -0.78133,1.08136 -0.72207,1.14062 0.0593,0.0593 1.40025,-0.1409 2.97998,-0.44481 7.56401,-1.45517 13.59954,-0.76817 16.09017,1.83148 1.15659,1.20722 1.11359,0.77151 -0.10025,-1.01595 z m 92.418668,-0.5718 c 2.71433,-1.19829 8.27816,-1.29689 13.75253,-0.24373 1.57973,0.30391 2.92072,0.50407 2.97998,0.44481 0.0593,-0.0593 -0.26567,-0.57254 -0.72208,-1.14062 -1.45741,-1.814 -4.97024,-9.7478 -5.07002,-11.45071 l -0.0601,-1.02595 -0.89477,0.7835 c -1.86522,1.63326 -8.46585,8.34833 -9.77352,9.94296 -1.44817,1.76597 -3.48692,4.67007 -3.48692,4.96694 0,0.0977 0.49144,-0.26639 1.0921,-0.80904 0.60065,-0.54266 1.58291,-1.20333 2.18281,-1.46816 z m -69.56433,-4.20308 c 0.0837,-0.13546 0.0511,-0.30882 -0.0726,-0.38523 -0.12364,-0.0764 -0.2248,0.0344 -0.2248,0.2463 0,0.44613 0.0834,0.48511 0.29738,0.13893 z m 44.76998,-0.13893 c 0,-0.21188 -0.10116,-0.32272 -0.2248,-0.2463 -0.12364,0.0764 -0.15631,0.24977 -0.0726,0.38523 0.21394,0.34618 0.29738,0.3072 0.29738,-0.13893 z M 50.331465,72.638345 c -0.08792,-0.0879 -0.316124,-0.0973 -0.507119,-0.0209 -0.211066,0.0845 -0.148373,0.14715 0.159854,0.15985 0.278913,0.0115 0.435184,-0.0511 0.347265,-0.13897 z m 170.920825,0 c -0.0879,-0.0879 -0.31612,-0.0973 -0.50712,-0.0209 -0.21106,0.0845 -0.14837,0.14715 0.15986,0.15985 0.27891,0.0115 0.43518,-0.0511 0.34726,-0.13897 z m -95.40566,68.681125 c -3.8461,-1.74521 -11.28457,-7.03604 -15.05269,-10.70667 -2.66622,-2.59723 -2.86184,-3.0638 -2.06782,-4.93177 0.5227,-1.22966 7.34702,-11.15207 7.76045,-11.28351 0.48713,-0.15487 0.95219,1.17825 1.89998,5.44642 0.46244,2.08251 1.05477,4.28553 1.31628,4.89561 0.51377,1.19858 -0.0353,0.88328 8.71323,5.00304 2.55228,1.20189 2.43927,0.6805 1.1628,5.36498 -1.34348,4.93037 -1.9563,6.74712 -2.27391,6.74107 -0.16773,-0.003 -0.82397,-0.24133 -1.45832,-0.52917 z m 16.88883,-1.38325 c -0.75979,-2.47889 -2.13767,-7.53643 -2.30104,-8.44604 -0.11867,-0.66073 0.0176,-0.77504 2.08284,-1.74759 8.74857,-4.11976 8.19945,-3.80446 8.71322,-5.00304 0.26152,-0.61008 0.85384,-2.8131 1.31628,-4.89561 0.94779,-4.26817 1.41285,-5.60129 1.89999,-5.44642 0.41342,0.13144 7.23775,10.05385 7.76044,11.28351 0.79403,1.86797 0.5984,2.33454 -2.06781,4.93177 -1.34625,1.31141 -3.63835,3.2793 -5.09356,4.37308 -4.14261,3.11373 -10.34584,6.84234 -11.41745,6.86276 -0.16773,0.003 -0.56954,-0.8574 -0.89291,-1.91242 z M 99.206732,116.67151 c -4.8278,-5.09723 -10.51287,-12.55005 -12.17424,-15.95977 -1.43933,-2.954035 -4.26286,-11.419575 -4.61042,-13.823045 -0.14216,-0.98306 -0.26083,-4.59725 -0.26371,-8.03153 l -0.005,-6.24416 0.75712,-1.03188 c 0.96208,-1.31124 3.82892,-4.03551 6.38663,-6.06903 2.14828,-1.708 4.36443,-3.29723 4.59791,-3.29723 0.0802,0 -0.0971,0.56554 -0.39404,1.25677 -0.90997,2.11852 -1.77176,6.33466 -2.23087,10.91406 -0.24073,2.40109 -0.56154,4.60375 -0.71291,4.89479 -0.15138,0.29104 -0.89406,1.24354 -1.6504,2.11667 -2.31958,2.67773 -2.35504,2.7637 -2.16412,5.2475 0.18917,2.46099 1.40493,7.10786 2.17605,8.31728 0.63684,0.99881 7.30099,8.000335 8.36024,8.783475 0.6304,0.46607 0.85563,0.51483 1.17063,0.2534 0.42309,-0.35114 4.238278,-5.403765 5.647028,-7.478615 1.36486,-2.01024 2.40657,-3.0845 2.991,-3.0845 0.29578,0 3.34931,1.12008 6.78561,2.48908 7.51206,2.99274 8.9321,3.44092 12.79301,4.03768 4.13831,0.639645 13.46299,0.639645 17.6013,0 3.86091,-0.59676 5.28095,-1.04494 12.79301,-4.03768 3.4363,-1.369 6.48983,-2.48908 6.78561,-2.48908 0.58443,0 1.62613,1.07426 2.991,3.0845 1.40875,2.07485 5.22393,7.127475 5.64703,7.478615 0.315,0.26143 0.54023,0.21267 1.17063,-0.2534 1.05925,-0.78314 7.7234,-7.784665 8.36024,-8.783475 0.77112,-1.20942 1.98688,-5.85629 2.17604,-8.31728 0.19092,-2.4838 0.15547,-2.56977 -2.16411,-5.2475 -0.75639,-0.87313 -1.49906,-1.82563 -1.65044,-2.11667 -0.15138,-0.29104 -0.47219,-2.4937 -0.71291,-4.89479 -0.45911,-4.5794 -1.32091,-8.79554 -2.23088,-10.91406 -0.2969,-0.69123 -0.47421,-1.25677 -0.39404,-1.25677 0.23349,0 2.44964,1.58923 4.59792,3.29723 2.55771,2.03352 5.42455,4.75779 6.38663,6.06903 l 0.75712,1.03188 -0.005,6.24416 c -0.003,3.43428 -0.12155,7.04847 -0.26371,8.03153 -0.34801,2.40656 -3.17245,10.87243 -4.61173,13.823045 -1.70199,3.48918 -8.97943,12.91937 -12.95712,16.78998 -1.19619,1.16399 -1.2122,1.17023 -1.2122,0.47227 0,-2.91203 -4.1383,-9.96118 -7.72407,-13.15713 l -1.47353,-1.31333 -2.61109,0.89318 c -1.43611,0.49124 -3.77682,1.32161 -5.20158,1.84525 -3.09305,1.13678 -3.74977,1.16704 -5.54831,0.25565 -0.75587,-0.38303 -2.03184,-0.92472 -2.83547,-1.20375 -1.77155,-0.6151 -7.76765,-1.89866 -8.86949,-1.89866 -1.10184,0 -7.09794,1.28356 -8.86949,1.89866 -0.80363,0.27903 -2.0796,0.82072 -2.83547,1.20375 -1.79854,0.91139 -2.45526,0.88113 -5.54831,-0.25565 -1.4248,-0.52364 -3.76551,-1.35401 -5.20162,-1.84525 l -2.61109,-0.89318 -1.44038,1.28379 c -3.50285,3.12204 -6.76964,8.44964 -7.61346,12.41631 l -0.30008,1.41064 -1.840068,-1.94276 z M 128.98437,90.492835 c -8.19759,-0.94341 -15.61174,-3.68343 -20.3779,-7.531 -8.13928,-6.57057 -11.096978,-14.35495 -12.155388,-31.99176 -0.14846,-2.473859 -0.27108,-4.754268 -0.27249,-5.067577 -0.006,-1.354966 13.353218,-9.114864 19.937748,-11.581056 5.80637,-2.174742 12.50964,-3.327413 19.35032,-3.327413 6.84067,0 13.54394,1.152671 19.35032,3.327413 4.30601,1.612789 12.40829,5.931053 17.22832,9.182169 2.03901,1.375312 2.71135,1.970587 2.70942,2.398887 -0.001,0.313309 -0.12402,2.593718 -0.27248,5.067577 -1.05841,17.63681 -4.01612,25.42119 -12.15539,31.99176 -4.87461,3.93511 -12.19781,6.5992 -20.77478,7.5576 -2.80277,0.31318 -9.74285,0.2985 -12.5677,-0.0266 z m 10.46159,-10.15799 c 4.28177,-1.08841 7.85035,-3.80273 9.45581,-7.19227 0.79175,-1.67156 0.85239,-1.99723 0.85239,-4.57771 0,-2.58049 -0.0606,-2.90616 -0.85239,-4.57772 -2.18278,-4.6084 -7.46389,-7.59312 -13.43511,-7.59312 -5.97122,0 -11.25233,2.98472 -13.43512,7.59312 -0.79174,1.67156 -0.85238,1.99723 -0.85238,4.57772 0,2.58048 0.0606,2.90615 0.85238,4.57771 1.58353,3.34321 5.13442,6.07316 9.33408,7.17611 1.94088,0.50974 6.10586,0.51806 8.08034,0.0161 z m -20.25118,-22.54586 1.45521,-0.52013 -0.0902,-2.22629 c -0.0704,-1.73594 0.0317,-2.58816 0.4632,-3.86919 0.61569,-1.827646 2.52463,-5.190878 4.32029,-7.611638 1.40401,-1.89276 4.65066,-5.423958 4.98689,-5.423958 0.13329,0 0.17407,0.959741 0.0927,2.182812 -0.0798,1.200547 -0.0437,2.718594 0.0803,3.373437 0.22225,1.173536 0.21202,1.198341 -0.71282,1.728211 -0.74319,0.425799 -0.9383,0.700884 -0.9383,1.322917 0,0.677815 0.18111,0.87589 1.32291,1.446789 1.22864,0.61432 1.59632,0.661458 5.15938,0.661458 3.56305,0 3.93073,-0.04714 5.15937,-0.661458 1.04379,-0.521896 1.34056,-0.814689 1.40651,-1.387695 0.0678,-0.588827 -0.0883,-0.827635 -0.82473,-1.262157 -0.90212,-0.532257 -0.90663,-0.544473 -0.66069,-1.787306 0.1362,-0.68826 0.18077,-2.233649 0.0991,-3.434196 -0.0834,-1.225616 -0.0443,-2.182812 0.0893,-2.182812 0.33623,0 3.58289,3.531198 4.98689,5.423958 1.79566,2.42076 3.7046,5.783992 4.32029,7.611638 0.43155,1.28103 0.53357,2.13325 0.4632,3.86919 l -0.0902,2.22629 1.45521,0.53606 c 1.17026,0.4311 2.12872,0.53973 4.89479,0.55478 3.25078,0.0177 3.53003,-0.0231 5.08739,-0.74241 2.38785,-1.10294 3.93955,-3.32061 3.70977,-5.302 -0.15664,-1.35069 -2.44666,-6.702559 -3.71913,-8.691749 -1.25072,-1.955189 -3.34234,-3.561575 -6.92382,-5.317562 -5.88868,-2.887194 -13.55127,-4.784851 -19.32087,-4.784851 -5.76961,0 -13.4322,1.897657 -19.32088,4.784851 -5.27489,2.58626 -6.72953,4.147026 -9.19765,9.868675 -1.54225,3.575276 -1.76947,4.836726 -1.10328,6.125016 1.11237,2.15112 2.14818,2.99176 4.75097,3.85578 1.57326,0.52226 6.72703,0.30262 8.59896,-0.36646 z m 15.29733,-14.301638 c -1.75889,-1.946887 -1.56609,-4.32821 0.37999,-4.693298 2.82346,-0.529686 3.7623,2.32892 1.54543,4.705529 l -0.97249,1.042551 z"
       id="path260" /></g></svg>
