<?xml version="1.0" encoding="UTF-8" standalone="no"?>
<!-- Created with Inkscape (http://www.inkscape.org/) -->

<svg
   xmlns:dc="http://purl.org/dc/elements/1.1/"
   xmlns:cc="http://creativecommons.org/ns#"
   xmlns:rdf="http://www.w3.org/1999/02/22-rdf-syntax-ns#"
   xmlns:svg="http://www.w3.org/2000/svg"
   xmlns="http://www.w3.org/2000/svg"
   xmlns:sodipodi="http://sodipodi.sourceforge.net/DTD/sodipodi-0.dtd"
   xmlns:inkscape="http://www.inkscape.org/namespaces/inkscape"
   width="256mm"
   height="256mm"
   viewBox="0 0 256 256"
   version="1.1"
   id="svg8"
   inkscape:version="0.92.5 (2060ec1f9f, 2020-04-08)"
   sodipodi:docname="altarian-republic.svg">
  <defs
     id="defs2" />
  <sodipodi:namedview
     id="base"
     pagecolor="#ffffff"
     bordercolor="#666666"
     borderopacity="1.0"
     inkscape:pageopacity="0.0"
     inkscape:pageshadow="2"
     inkscape:zoom="1.4"
     inkscape:cx="325.76505"
     inkscape:cy="408.51949"
     inkscape:document-units="mm"
     inkscape:current-layer="layer1"
     showgrid="false"
     inkscape:window-width="3840"
     inkscape:window-height="2056"
     inkscape:window-x="0"
     inkscape:window-y="50"
     inkscape:window-maximized="1" />
  <metadata
     id="metadata5">
    <rdf:RDF>
      <cc:Work
         rdf:about="">
        <dc:format>image/svg+xml</dc:format>
        <dc:type
           rdf:resource="http://purl.org/dc/dcmitype/StillImage" />
        <dc:title></dc:title>
      </cc:Work>
    </rdf:RDF>
  </metadata>
  <g
     inkscape:label="Layer 1"
     inkscape:groupmode="layer"
     id="layer1"
     transform="translate(0,-41)">
    <rect
       style="fill:#000000;fill-opacity:1;stroke:none;stroke-width:0.32538173;stroke-opacity:1"
       id="rect816"
       width="256"
       height="256"
       x="0"
       y="41" />
    <g
       id="g1059"
       transform="matrix(3.6321223,0,0,3.6321223,-336.91166,-446.05987)"
       style="fill:#ffffff">
      <path
         inkscape:connector-curvature="0"
         id="path1032"
         d="m 125.02991,187.37683 -2.8378,-4.09714 2.82509,-11.50547 c 1.5538,-6.32801 2.89606,-11.50547 2.9828,-11.50547 0.0867,0 1.42899,5.17746 2.98279,11.50547 l 2.82509,11.50547 -2.8378,4.09714 c -1.56078,2.25343 -2.89732,4.09715 -2.97008,4.09715 -0.0728,0 -1.4093,-1.84372 -2.97009,-4.09715 z"
         style="fill:#ffffff;stroke-width:0.26458332" />
      <g
         id="g1043"
         style="fill:#ffffff">
        <path
           style="fill:#ffffff;stroke-width:0.26458332"
           d="m 121.49092,159.35425 c -6.13612,-0.9532 -10.83598,-3.43738 -12.38528,-6.54641 -0.86503,-1.7359 -0.86503,-2.92146 0,-4.65735 0.80415,-1.61371 2.28232,-2.96768 4.43504,-4.06239 l 1.54797,-0.78718 -0.73404,0.96237 c -0.98695,1.29397 -1.16741,3.33423 -0.40259,4.55164 1.20756,1.92213 4.53926,3.12574 9.58173,3.46151 l 2.8098,0.1871 -0.63606,2.64583 c -1.07726,4.48116 -1.13047,4.63235 -1.6203,4.60403 -0.24905,-0.0144 -1.41737,-0.17601 -2.59627,-0.35915 z"
           id="path1034"
           inkscape:connector-curvature="0" />
        <path
           style="fill:#ffffff;stroke-width:0.26458332"
           d="m 118.78186,174.9515 c -3.77908,-1.75887 -8.85399,-5.8938 -11.58964,-9.44299 -1.61402,-2.09401 -3.3114,-5.02962 -4.50622,-7.79348 -0.89654,-2.07388 -1.01146,-2.58266 -1.00693,-4.45774 0.004,-1.80374 0.11577,-2.32831 0.75359,-3.54822 0.85355,-1.63252 2.74545,-3.57739 4.34299,-4.46462 l 1.08848,-0.6045 -0.88858,1.47563 c -1.10593,1.83658 -1.57678,3.73462 -1.3857,5.58596 0.17715,1.71639 1.12417,3.87822 2.27118,5.1846 1.0382,1.18244 4.86417,3.5881 7.17438,4.51105 1.7254,0.68931 6.49629,1.78197 7.78063,1.78197 0.48025,0 0.68347,0.13889 0.67746,0.46302 -0.018,0.97234 -2.78368,11.80059 -3.03473,11.88167 -0.14519,0.0469 -0.8998,-0.21066 -1.67691,-0.57235 z"
           id="path1036"
           inkscape:connector-curvature="0" />
        <path
           style="fill:#ffffff;stroke-width:0.26458332"
           d="m 114.45721,194.19546 c -3.58781,-3.71529 -7.81688,-9.3803 -11.20462,-15.00901 -2.3753,-3.94655 -6.450585,-12.18004 -7.235144,-14.61751 -0.777222,-2.41467 -1.18032,-5.64141 -1.021921,-8.18035 0.114598,-1.83687 0.293031,-2.52737 1.018731,-3.94226 0.868859,-1.69402 3.349336,-4.72658 3.015736,-3.68696 -1.100026,3.42809 -1.185747,6.45635 -0.283449,10.01332 1.169302,4.60952 3.375227,7.99903 9.081217,13.95369 3.26646,3.40881 6.03621,5.69401 9.15433,7.55281 l 2.22801,1.32819 -1.70143,6.84825 c -0.93579,3.76653 -1.73345,6.88025 -1.77257,6.91937 -0.0391,0.0391 -0.61462,-0.49167 -1.27889,-1.17954 z"
           id="path1038"
           inkscape:connector-curvature="0" />
      </g>
      <g
         id="g1048"
         style="fill:#ffffff">
        <path
           style="fill:#ffffff;stroke-width:0.26458332"
           d="m 134.50908,159.35425 c 6.13612,-0.9532 10.83598,-3.43738 12.38528,-6.54641 0.86503,-1.7359 0.86503,-2.92146 0,-4.65735 -0.80415,-1.61371 -2.28232,-2.96768 -4.43504,-4.06239 l -1.54797,-0.78718 0.73404,0.96237 c 0.98695,1.29397 1.16741,3.33423 0.40259,4.55164 -1.20756,1.92213 -4.53926,3.12574 -9.58173,3.46151 l -2.80979,0.1871 0.63605,2.64583 c 1.07726,4.48116 1.13047,4.63235 1.6203,4.60403 0.24905,-0.0144 1.41737,-0.17601 2.59627,-0.35915 z"
           id="path1030"
           inkscape:connector-curvature="0" />
        <path
           style="fill:#ffffff;stroke-width:0.26458332"
           d="m 137.21814,174.9515 c 3.77908,-1.75887 8.85399,-5.8938 11.58964,-9.44299 1.61402,-2.09401 3.3114,-5.02962 4.50622,-7.79348 0.89654,-2.07388 1.01146,-2.58266 1.00693,-4.45774 -0.004,-1.80374 -0.11577,-2.32831 -0.75359,-3.54822 -0.85355,-1.63252 -2.74544,-3.57739 -4.34299,-4.46462 l -1.08848,-0.6045 0.88858,1.47563 c 1.10593,1.83658 1.57678,3.73462 1.3857,5.58596 -0.17715,1.71639 -1.12417,3.87822 -2.27118,5.1846 -1.0382,1.18244 -4.86416,3.5881 -7.17438,4.51105 -1.7254,0.68931 -6.49629,1.78197 -7.78063,1.78197 -0.48025,0 -0.68347,0.13889 -0.67746,0.46302 0.018,0.97234 2.78368,11.80059 3.03473,11.88167 0.14519,0.0469 0.8998,-0.21066 1.67691,-0.57235 z"
           id="path1026"
           inkscape:connector-curvature="0" />
        <path
           style="fill:#ffffff;stroke-width:0.26458332"
           d="m 141.54279,194.19546 c 3.58781,-3.71529 7.81688,-9.3803 11.20462,-15.00901 2.3753,-3.94655 6.45059,-12.18004 7.23514,-14.61751 0.77723,-2.41467 1.18032,-5.64141 1.02193,-8.18035 -0.1146,-1.83687 -0.29304,-2.52737 -1.01873,-3.94226 -0.86886,-1.69402 -3.34934,-4.72658 -3.01574,-3.68696 1.10002,3.42809 1.18575,6.45635 0.28345,10.01332 -1.1693,4.60952 -3.37523,7.99903 -9.08122,13.95369 -3.26646,3.40881 -6.03621,5.69401 -9.15433,7.55281 l -2.22801,1.32819 1.70144,6.84825 c 0.93579,3.76653 1.73344,6.88025 1.77256,6.91937 0.0391,0.0391 0.61462,-0.49167 1.27889,-1.17954 z"
           id="path1028"
           inkscape:connector-curvature="0" />
      </g>
    </g>
  </g>
</svg>
