<?xml version="1.0" encoding="UTF-8" standalone="no"?>
<!-- Created with Inkscape (http://www.inkscape.org/) -->

<svg
   xmlns:dc="http://purl.org/dc/elements/1.1/"
   xmlns:cc="http://creativecommons.org/ns#"
   xmlns:rdf="http://www.w3.org/1999/02/22-rdf-syntax-ns#"
   xmlns:svg="http://www.w3.org/2000/svg"
   xmlns="http://www.w3.org/2000/svg"
   xmlns:sodipodi="http://sodipodi.sourceforge.net/DTD/sodipodi-0.dtd"
   xmlns:inkscape="http://www.inkscape.org/namespaces/inkscape"
   width="256mm"
   height="256mm"
   viewBox="0 0 256 256"
   version="1.1"
   id="svg8"
   inkscape:version="0.92.5 (2060ec1f9f, 2020-04-08)"
   sodipodi:docname="arcean.svg">
  <defs
     id="defs2" />
  <sodipodi:namedview
     id="base"
     pagecolor="#ffffff"
     bordercolor="#666666"
     borderopacity="1.0"
     inkscape:pageopacity="0.0"
     inkscape:pageshadow="2"
     inkscape:zoom="1.4"
     inkscape:cx="599.33647"
     inkscape:cy="517.8052"
     inkscape:document-units="mm"
     inkscape:current-layer="layer1"
     showgrid="false"
     inkscape:window-width="3840"
     inkscape:window-height="2056"
     inkscape:window-x="0"
     inkscape:window-y="50"
     inkscape:window-maximized="1" />
  <metadata
     id="metadata5">
    <rdf:RDF>
      <cc:Work
         rdf:about="">
        <dc:format>image/svg+xml</dc:format>
        <dc:type
           rdf:resource="http://purl.org/dc/dcmitype/StillImage" />
        <dc:title></dc:title>
      </cc:Work>
    </rdf:RDF>
  </metadata>
  <g
     inkscape:label="Layer 1"
     inkscape:groupmode="layer"
     id="layer1"
     transform="translate(0,-41)">
    <rect
       style="fill:#000000;fill-opacity:1;stroke:none;stroke-width:0.32538173;stroke-opacity:1"
       id="rect816"
       width="256"
       height="256"
       x="0"
       y="41" />
    <path
       style="fill:#ffffff;stroke-width:1.03324366"
       d="m 60.85143,263.92899 c 0.008,-0.38661 0.66584,-3.15803 1.46468,-6.15885 7.08851,-26.62863 -1.62596,-53.48958 -19.90002,-61.33866 -8.60595,-3.6964 -23.87357,-3.37977 -33.7557302,0.70012 -1.3499,0.5573 -0.621,-0.73363 2.1021202,-3.72288 8.96733,-9.84381 14.52728,-19.86784 18.69531,-33.70582 2.35864,-7.83069 2.74104,-10.97412 2.74104,-22.53242 0,-11.55435 -0.38271,-14.70278 -2.73776,-22.52117 -3.3128,-10.99802 -7.1271,-18.746819 -13.45442,-27.33281 -2.6174,-3.551794 -4.60884,-6.457789 -4.42538,-6.457789 1.06975,0 15.77452,5.364536 22.09086,8.059066 9.08859,3.877212 22.28604,12.477923 31.3,20.398083 21.46549,18.8607 42.34793,16.37556 54.53519,-6.49004 3.60561,-6.764857 7.45943,-20.067594 7.45943,-25.748761 0,-1.89807 0.46495,-3.45104 1.03323,-3.45104 0.56832,0 1.03327,1.55297 1.03327,3.45104 0,5.681167 3.85382,18.983904 7.45943,25.748761 12.18726,22.8656 33.06971,25.35074 54.53519,6.49004 9.01396,-7.92016 22.21141,-16.520871 31.3,-20.398083 6.31634,-2.69453 21.02112,-8.059066 22.09086,-8.059066 0.18354,0 -1.80798,2.905995 -4.42542,6.457789 -6.32728,8.585991 -10.14158,16.33479 -13.45437,27.33281 -2.35506,7.81839 -2.73776,10.96682 -2.73776,22.52117 0,11.5583 0.38231,14.70173 2.74104,22.53242 4.16803,13.83798 9.72798,23.86201 18.69531,33.70582 2.72311,2.98925 3.45201,4.28018 2.10211,3.72288 -9.88215,-4.07989 -25.14978,-4.39652 -33.75572,-0.70012 -18.38946,7.89864 -26.83963,34.07134 -19.85101,61.48448 0.84906,3.33053 1.39914,6.20005 1.22239,6.3768 -0.74667,0.74667 -11.76624,-3.8232 -16.41976,-6.80933 -9.86603,-6.33103 -19.76248,-19.98535 -21.28495,-29.36725 -0.53478,-3.2955 -0.40079,-3.44362 4.62712,-5.11363 12.53849,-4.16464 21.09063,-13.5335 31.19112,-34.16987 10.63562,-21.72975 12.3719,-37.7904 4.94278,-45.72107 -1.71613,-1.83199 -3.31342,-2.32478 -7.53534,-2.32478 -22.60088,0 -58.27253,46.73168 -61.08702,80.0271 -0.3624,4.28921 -0.98774,7.79859 -1.38927,7.79859 -0.40149,0 -1.02663,-3.50938 -1.38922,-7.79859 -1.69774,-20.08434 -15.87758,-47.05186 -34.20143,-65.04506 -10.34949,-10.16275 -18.99781,-14.98204 -26.88559,-14.98204 -4.22192,0 -5.81922,0.49279 -7.53538,2.32478 -7.42909,7.93067 -5.69281,23.99132 4.94281,45.72107 10.1005,20.63637 18.65263,30.00523 31.19113,34.16987 5.02791,1.67001 5.16189,1.81813 4.62712,5.11363 -1.72226,10.61301 -14.404,26.42603 -25.52699,31.82997 -6.4142,3.11621 -12.38943,5.03993 -12.371,3.98284 z"
       id="path1091"
       inkscape:connector-curvature="0" />
  </g>
</svg>
