<?xml version="1.0" encoding="UTF-8" standalone="no"?>
<!-- Created with Inkscape (http://www.inkscape.org/) -->

<svg
   xmlns:dc="http://purl.org/dc/elements/1.1/"
   xmlns:cc="http://creativecommons.org/ns#"
   xmlns:rdf="http://www.w3.org/1999/02/22-rdf-syntax-ns#"
   xmlns:svg="http://www.w3.org/2000/svg"
   xmlns="http://www.w3.org/2000/svg"
   xmlns:sodipodi="http://sodipodi.sourceforge.net/DTD/sodipodi-0.dtd"
   xmlns:inkscape="http://www.inkscape.org/namespaces/inkscape"
   width="256mm"
   height="256mm"
   viewBox="0 0 256 256"
   version="1.1"
   id="svg8"
   inkscape:version="0.92.5 (2060ec1f9f, 2020-04-08)"
   sodipodi:docname="drath.svg">
  <defs
     id="defs2" />
  <sodipodi:namedview
     id="base"
     pagecolor="#ffffff"
     bordercolor="#666666"
     borderopacity="1.0"
     inkscape:pageopacity="0.0"
     inkscape:pageshadow="2"
     inkscape:zoom="1.4"
     inkscape:cx="360.80377"
     inkscape:cy="519.69862"
     inkscape:document-units="mm"
     inkscape:current-layer="layer1"
     showgrid="false"
     inkscape:window-width="3840"
     inkscape:window-height="2056"
     inkscape:window-x="0"
     inkscape:window-y="50"
     inkscape:window-maximized="1" />
  <metadata
     id="metadata5">
    <rdf:RDF>
      <cc:Work
         rdf:about="">
        <dc:format>image/svg+xml</dc:format>
        <dc:type
           rdf:resource="http://purl.org/dc/dcmitype/StillImage" />
        <dc:title></dc:title>
      </cc:Work>
    </rdf:RDF>
  </metadata>
  <g
     inkscape:label="Layer 1"
     inkscape:groupmode="layer"
     id="layer1"
     transform="translate(0,-41)">
    <rect
       style="fill:#000000;fill-opacity:1;stroke:none;stroke-width:0.32538173;stroke-opacity:1"
       id="rect816"
       width="256"
       height="256"
       x="0"
       y="41" />
    <g
       transform="matrix(4.2225934,0,0,4.2225934,-321.57167,-525.36033)"
       id="g4826"
       style="fill:#ffffff">
      <g
         id="g4818"
         style="fill:#ffffff">
        <path
           inkscape:connector-curvature="0"
           style="fill:#ffffff;stroke-width:0.26458332"
           d="m 89.931689,182.6495 c -3.5316,-1.65188 -6.02992,-6.69434 -6.37643,-12.8698 l -0.14104,-2.51354 0.81453,1.62904 c 0.86585,1.73169 2.24586,3.15167 3.32654,3.4229 1.92719,0.4837 3.97596,-1.37616 5.13197,-4.65875 l 0.47211,-1.34061 0.17618,2.50642 c 0.29664,4.22004 1.6367,8.58266 3.40708,11.09187 l 0.52537,0.74462 -0.62545,0.67946 c -0.8741,0.94959 -3.07036,1.92717 -4.32961,1.92717 -0.58209,0 -1.65365,-0.27845 -2.38125,-0.61878 z"
           id="path4810" />
        <path
           inkscape:connector-curvature="0"
           style="fill:#ffffff;stroke-width:0.26458332"
           d="m 118.2421,182.6445 c -0.7276,-0.34313 -1.60436,-0.92962 -1.94836,-1.30332 l -0.62545,-0.67946 0.52537,-0.74462 c 1.77037,-2.50921 3.11044,-6.87183 3.40708,-11.09187 l 0.17618,-2.50642 0.47211,1.34061 c 1.15601,3.2826 3.20478,5.14245 5.13197,4.65875 1.08068,-0.27123 2.46069,-1.69121 3.32654,-3.4229 l 0.81453,-1.62904 -0.14104,2.51354 c -0.34651,6.17546 -2.84483,11.21793 -6.37643,12.8698 -1.67943,0.78554 -3.08915,0.78404 -4.7625,-0.005 z"
           id="path4793" />
      </g>
      <g
         id="g4814"
         style="fill:#ffffff">
        <path
           style="fill:#ffffff;stroke-width:0.26458332"
           d="m 92.098969,192.48829 c -4.71421,-1.14288 -8.67422,-4.69204 -11.20242,-10.04016 -1.79719,-3.80176 -2.34642,-6.40288 -2.34642,-11.1125 0,-4.08374 0.48919,-6.94157 1.66036,-9.69994 0.42897,-1.01029 0.43688,-0.94617 0.43706,3.54176 2.2e-4,5.07187 0.35273,7.32472 1.75064,11.18803 3.17621,8.77791 9.96065,12.31613 15.552333,8.11088 3.043538,-2.28891 5.271068,-6.18525 6.642768,-11.61938 l 0.28385,-1.12448 h 1.5671 1.5671 l 0.28385,1.12448 c 1.3717,5.43413 3.59923,9.33047 6.64277,11.61938 5.59168,4.20525 12.37612,0.66703 15.55234,-8.11088 1.3979,-3.86331 1.75042,-6.11616 1.75062,-11.18803 1.9e-4,-4.48793 0.008,-4.55205 0.43707,-3.54176 0.24028,0.56591 0.71215,2.08694 1.04861,3.38006 0.87892,3.37798 0.87956,9.2438 0.001,12.66988 -1.20724,4.7098 -3.86655,9.23529 -6.85968,11.67347 -5.84878,4.76439 -12.86333,4.64885 -18.70656,-0.30811 l -1.71745,-1.457 -1.7175,1.457 c -3.87178,3.28453 -8.293381,4.4881 -12.627771,3.4373 z"
           id="path4780"
           inkscape:connector-curvature="0" />
        <path
           style="fill:#ffffff;stroke-width:0.26458332"
           d="m 101.93464,182.18062 c -5.441929,-8.4192 -7.758699,-18.79713 -6.440739,-28.85112 0.44192,-3.37121 1.33223,-7.03697 2.38736,-9.82984 0.74949,-1.98383 3.562569,-7.63459 3.721539,-7.47562 0.0528,0.0528 -0.0774,1.3986 -0.28932,2.99077 -0.97817,7.35055 -0.0199,15.82842 2.50842,22.19324 1.08252,2.72507 2.3383,5.17556 2.65227,5.17556 0.31397,0 1.56975,-2.45049 2.65227,-5.17556 2.52837,-6.36482 3.48659,-14.84269 2.50842,-22.19324 -0.21188,-1.59217 -0.34207,-2.93801 -0.28932,-2.99077 0.15897,-0.15897 2.97205,5.49179 3.72153,7.47562 2.42614,6.42178 3.29015,13.97005 2.38737,20.85681 -0.87206,6.65244 -3.27581,13.18773 -6.73058,18.29901 l -1.073,1.5875 -8e-4,-1.78594 -8.9e-4,-1.78594 h -3.16291 -3.16291 l -0.0782,1.70796 -0.0782,1.70797 z"
           id="path4806"
           inkscape:connector-curvature="0" />
      </g>
    </g>
  </g>
</svg>
