<?xml version="1.0" encoding="UTF-8" standalone="no"?>
<!-- Created with Inkscape (http://www.inkscape.org/) -->

<svg
   xmlns:dc="http://purl.org/dc/elements/1.1/"
   xmlns:cc="http://creativecommons.org/ns#"
   xmlns:rdf="http://www.w3.org/1999/02/22-rdf-syntax-ns#"
   xmlns:svg="http://www.w3.org/2000/svg"
   xmlns="http://www.w3.org/2000/svg"
   xmlns:sodipodi="http://sodipodi.sourceforge.net/DTD/sodipodi-0.dtd"
   xmlns:inkscape="http://www.inkscape.org/namespaces/inkscape"
   width="256mm"
   height="256mm"
   viewBox="0 0 256 256"
   version="1.1"
   id="svg8"
   inkscape:version="0.92.5 (2060ec1f9f, 2020-04-08)"
   sodipodi:docname="drengin.svg">
  <defs
     id="defs2" />
  <sodipodi:namedview
     id="base"
     pagecolor="#ffffff"
     bordercolor="#666666"
     borderopacity="1.0"
     inkscape:pageopacity="0.0"
     inkscape:pageshadow="2"
     inkscape:zoom="1.4"
     inkscape:cx="670.67628"
     inkscape:cy="528.32336"
     inkscape:document-units="mm"
     inkscape:current-layer="g4872"
     showgrid="false"
     inkscape:window-width="3840"
     inkscape:window-height="2056"
     inkscape:window-x="0"
     inkscape:window-y="50"
     inkscape:window-maximized="1" />
  <metadata
     id="metadata5">
    <rdf:RDF>
      <cc:Work
         rdf:about="">
        <dc:format>image/svg+xml</dc:format>
        <dc:type
           rdf:resource="http://purl.org/dc/dcmitype/StillImage" />
        <dc:title></dc:title>
      </cc:Work>
    </rdf:RDF>
  </metadata>
  <g
     inkscape:label="Layer 1"
     inkscape:groupmode="layer"
     id="layer1"
     transform="translate(0,-41)">
    <rect
       style="fill:#000000;fill-opacity:1;stroke:none;stroke-width:0.32538173;stroke-opacity:1"
       id="rect816"
       width="256"
       height="256"
       x="0"
       y="41" />
    <g
       id="g4872"
       style="fill:#ffffff"
       transform="matrix(4.5227908,0,0,4.5227908,708.16456,-762.56936)">
      <g
         id="g4837"
         style="fill:#ffffff">
        <path
           style="fill:#ffffff;stroke-width:4.52279043"
           d="M 262.55078 78.613281 C 261.91132 78.667875 261.05217 78.918828 259.98047 79.330078 C 241.80441 86.304949 193.4987 123.11849 164.59375 152.02344 C -0.50724281 317.1246 -12.482486 576.43169 136.49219 760.54688 C 148.89236 775.87217 159.8623 787.58497 160.86914 786.57812 C 161.87632 785.57095 160.14607 777.80231 157.02539 769.31445 C 149.56961 749.02482 149.48779 642.54742 156.66797 614.48242 A 41.681111 82.205546 0 0 1 195.60938 561.30859 A 41.681111 82.205546 0 0 1 229.28516 595.24414 C 229.34485 595.35949 229.41161 595.47024 229.4707 595.58594 C 230.14047 596.89744 231.23662 600.51531 232.60352 605.70508 A 41.681111 82.205546 0 0 1 232.92383 606.96289 C 236.75514 621.73834 242.622 648.44834 248.17969 676.99609 C 266.26002 769.86599 281.81509 803.71582 327.34961 849.27734 C 346.91251 868.85188 372.62498 888.6568 393.32617 900.09766 L 393.32227 900.09766 C 411.97884 910.40842 427.66784 918.87011 428.1875 918.9043 C 428.70665 918.93712 423.17436 909.29619 415.89453 897.48047 C 379.28292 838.05637 380.70924 757.71156 419.48633 695.08594 C 435.97299 668.45979 436.31654 666.97099 437.75586 615.9375 C 438.56287 587.33084 437.14588 558.48551 434.60742 551.83594 C 431.32674 543.24209 421.42847 535.65731 400.37891 525.61133 C 354.5515 503.73993 308.71475 463.94755 277.16797 419.62891 A 266.04787 288.01614 0 0 1 217.73242 238.38867 A 266.04787 288.01614 0 0 1 262.58594 78.613281 C 262.5729 78.614242 262.56401 78.612152 262.55078 78.613281 z "
           transform="matrix(0.05850002,0,0,0.05850002,-156.5769,177.67113)"
           id="path4833" />
        <path
           inkscape:connector-curvature="0"
           style="fill:#ffffff;stroke-width:0.26458332"
           d="m -115.33392,182.31184 c 0.0374,0.003 0.0877,0.0179 0.15037,0.0419 1.0633,0.40803 3.88918,2.56163 5.58012,4.25257 9.658409,9.65842 10.358959,24.82789 1.64394,35.59863 -0.72541,0.89653 -1.36715,1.58173 -1.42605,1.52283 -0.0589,-0.0589 0.0423,-0.51339 0.22486,-1.00993 0.43616,-1.18694 0.44095,-7.41587 0.0209,-9.05768 a 2.4383457,4.8090257 0 0 0 -2.27807,-3.11067 2.4383457,4.8090257 0 0 0 -1.97004,1.98524 c -0.003,0.007 -0.007,0.0132 -0.0109,0.02 -0.0392,0.0767 -0.10331,0.28837 -0.18327,0.59197 a 2.4383457,4.8090257 0 0 0 -0.0187,0.0736 c -0.22413,0.86437 -0.56734,2.4269 -0.89247,4.09695 -1.0577,5.43289 -1.96767,7.4131 -4.63144,10.07845 -1.14443,1.14511 -2.64861,2.3037 -3.85963,2.97299 h 2.3e-4 c -1.09141,0.60318 -2.00921,1.09819 -2.03961,1.10019 -0.0304,0.002 0.29327,-0.56208 0.71914,-1.25329 2.14178,-3.47632 2.05834,-8.17649 -0.21012,-11.84009 -0.96447,-1.55763 -0.98457,-1.64472 -1.06877,-4.63018 -0.0472,-1.67349 0.0357,-3.36095 0.18418,-3.74995 0.19192,-0.50274 0.77097,-0.94645 2.00237,-1.53414 2.6809,-1.27947 5.36235,-3.60733 7.20784,-6.19997 a 15.563805,16.848949 0 0 0 3.47698,-10.60256 15.563805,16.848949 0 0 0 -2.62393,-9.34686 c 7.6e-4,6e-5 10e-4,-6e-5 0.002,0 z"
           id="path4833-7" />
      </g>
      <g
         id="g4862"
         style="fill:#ffffff">
        <path
           style="fill:#ffffff;stroke-width:0.26458332"
           d="m -133.97208,205.01258 c -3.79325,-2.76959 -6.18208,-7.6926 -6.18208,-12.74033 0,-4.22104 1.73229,-8.54931 4.50046,-11.2448 l 1.6303,-1.5875 -0.81004,1.45717 c -1.24567,2.24079 -1.72045,4.46462 -1.54298,7.22722 0.17643,2.74646 0.7242,4.01162 2.04314,4.71898 1.15173,0.61768 2.26708,0.61892 3.41404,0.004 0.93549,-0.50172 1.8622,-1.894 1.87681,-2.8197 0.005,-0.29332 0.18322,-0.76441 0.39687,-1.04689 0.38454,-0.5084 0.39239,-0.5084 0.77693,0 0.21365,0.28248 0.39224,0.75357 0.39687,1.04689 0.0146,0.9257 0.94132,2.31798 1.87681,2.8197 1.14696,0.61512 2.26231,0.61388 3.41404,-0.004 1.31894,-0.70736 1.86671,-1.97252 2.04314,-4.71898 0.17747,-2.7626 -0.29731,-4.98643 -1.54298,-7.22722 l -0.81004,-1.45717 1.63031,1.5875 c 6.59935,6.42608 5.74863,18.56003 -1.68162,23.98513 -0.56754,0.41438 -1.12761,0.75342 -1.2446,0.75342 -0.117,0 0.0783,-0.62508 0.43399,-1.38907 0.82623,-1.77469 0.82687,-2.69332 0.002,-3.51775 -1.02514,-1.02514 -2.10545,-0.87626 -3.44689,0.47505 -0.61395,0.61846 -1.19359,1.30307 -1.2881,1.52135 -0.15274,0.35278 -0.19092,0.35278 -0.34366,0 -0.0945,-0.21828 -0.67415,-0.90289 -1.2881,-1.52135 -1.34144,-1.35131 -2.42175,-1.50019 -3.44689,-0.47505 -0.82443,0.82443 -0.8238,1.74306 0.002,3.51775 0.35568,0.76399 0.55098,1.38907 0.43398,1.38907 -0.11699,0 -0.67706,-0.33904 -1.24459,-0.75342 z"
           id="path4827"
           inkscape:connector-curvature="0" />
        <g
           id="g4856"
           style="fill:#ffffff">
          <rect
             ry="1"
             y="199.20476"
             x="-129.62579"
             height="33.299774"
             width="2.7"
             id="rect4839"
             style="fill:#ffffff;fill-opacity:1;stroke:none;stroke-width:0.78528982;stroke-miterlimit:4;stroke-dasharray:none;stroke-opacity:1;paint-order:stroke fill markers" />
          <path
             inkscape:connector-curvature="0"
             id="path4852"
             d="m -129.95861,188.91612 -1.55054,-1.38724 1.54521,-3.10425 c 0.84987,-1.70734 1.60954,-3.10426 1.68816,-3.10426 0.0786,0 0.83828,1.39692 1.68815,3.10426 l 1.54521,3.10425 -1.55053,1.38724 c -0.8528,0.76299 -1.61007,1.38725 -1.68283,1.38725 -0.0728,0 -0.83004,-0.62426 -1.68283,-1.38725 z"
             style="fill:#ffffff;stroke-width:0.26458332" />
        </g>
      </g>
    </g>
  </g>
</svg>
