<?xml version="1.0" encoding="UTF-8" standalone="no"?>
<!-- Created with Inkscape (http://www.inkscape.org/) -->

<svg
   xmlns:dc="http://purl.org/dc/elements/1.1/"
   xmlns:cc="http://creativecommons.org/ns#"
   xmlns:rdf="http://www.w3.org/1999/02/22-rdf-syntax-ns#"
   xmlns:svg="http://www.w3.org/2000/svg"
   xmlns="http://www.w3.org/2000/svg"
   xmlns:sodipodi="http://sodipodi.sourceforge.net/DTD/sodipodi-0.dtd"
   xmlns:inkscape="http://www.inkscape.org/namespaces/inkscape"
   width="256mm"
   height="256mm"
   viewBox="0 0 256 256"
   version="1.1"
   id="svg8"
   inkscape:version="0.92.5 (2060ec1f9f, 2020-04-08)"
   sodipodi:docname="iconian.svg">
  <defs
     id="defs2" />
  <sodipodi:namedview
     id="base"
     pagecolor="#ffffff"
     bordercolor="#666666"
     borderopacity="1.0"
     inkscape:pageopacity="0.0"
     inkscape:pageshadow="2"
     inkscape:zoom="1.4"
     inkscape:cx="503.26377"
     inkscape:cy="474.84467"
     inkscape:document-units="mm"
     inkscape:current-layer="layer1"
     showgrid="false"
     inkscape:window-width="3840"
     inkscape:window-height="2056"
     inkscape:window-x="0"
     inkscape:window-y="50"
     inkscape:window-maximized="1" />
  <metadata
     id="metadata5">
    <rdf:RDF>
      <cc:Work
         rdf:about="">
        <dc:format>image/svg+xml</dc:format>
        <dc:type
           rdf:resource="http://purl.org/dc/dcmitype/StillImage" />
        <dc:title></dc:title>
      </cc:Work>
    </rdf:RDF>
  </metadata>
  <g
     inkscape:label="Layer 1"
     inkscape:groupmode="layer"
     id="layer1"
     transform="translate(0,-41)">
    <rect
       style="fill:#000000;fill-opacity:1;stroke:none;stroke-width:0.32538173;stroke-opacity:1"
       id="rect816"
       width="256"
       height="256"
       x="0"
       y="41" />
    <g
       id="g4979">
      <g
         id="g4941">
        <path
           style="fill:#ffffff;stroke-width:4.05120277"
           d="M 483.87695 235.60938 C 420.03857 235.72095 356.89042 267.95283 324.25781 328.18359 C 267.53111 432.88516 321.52302 562.90316 434.68945 594.11133 C 459.78862 601.03232 505.37661 601.13741 530.93555 594.33203 C 665.82035 558.41768 711.86253 386.99909 613.14062 288.27734 C 577.41312 252.54977 530.46172 235.52795 483.87695 235.60938 z M 483.74023 285.77734 C 517.42097 285.77734 551.10179 298.68578 576.91797 324.50195 C 641.71804 389.30199 621.9504 499.47493 538.68359 537.5957 C 487.62082 560.97303 430.11259 550.40747 389.98047 510.27539 C 338.93761 459.23208 339.19872 375.86573 390.5625 324.50195 C 416.37868 298.68578 450.0595 285.77734 483.74023 285.77734 z "
           transform="matrix(0.26458333,0,0,0.26458333,0,41)"
           id="path4932" />
        <path
           style="fill:#ffffff;stroke-width:1.0718807"
           d="m 116.73489,175.75327 c -9.78426,-4.6255 -15.4952,-13.56035 -15.4952,-24.2424 0,-14.86305 11.90142,-26.7761 26.74997,-26.7761 14.84077,0 26.73,11.89506 26.76298,26.7761 0.0433,19.54531 -20.39096,32.57548 -38.01775,24.2424 z"
           id="path4928" />
      </g>
      <g
         id="g4964">
        <g
           id="g4953">
          <path
             id="path4936"
             d="m 119.60715,288.04107 c -11.7783,-6.00352 -13.22924,-23.12297 -2.64409,-31.19665 4.84588,-3.69612 13.35855,-4.53342 18.9783,-1.86667 12.16876,5.77442 13.85252,23.08035 3.0474,31.32179 -4.75688,3.62826 -14.04309,4.46264 -19.38161,1.74153 z"
             style="fill:#ffffff;stroke-width:1.0718807" />
          <path
             id="path4934"
             d="m 89.464099,261.11066 c -5.59771,-6.48885 -10.29002,-15.78717 -11.9167,-23.6141 -2.44632,-11.77105 0.23173,-28.62455 5.93088,-37.3224 l 1.72946,-2.63948 4.56968,3.74449 c 9.07514,7.43643 26.137141,13.43541 38.212241,13.43541 12.07506,0 29.13706,-5.99898 38.2122,-13.43541 l 4.56968,-3.74449 1.72946,2.63948 c 5.69903,8.69785 8.3772,25.55135 5.93084,37.3224 -1.62664,7.82693 -6.31895,17.12525 -11.91666,23.6141 -4.41115,5.11343 -7.441,6.51454 -7.441,3.44093 0,-2.85687 -4.35906,-10.51214 -8.42071,-14.78827 -6.46216,-6.80339 -13.23658,-9.7051 -22.66381,-9.70757 -9.23038,-0.002 -14.91394,2.30294 -21.79823,8.84191 -4.14041,3.93279 -9.286331,12.61111 -9.286331,15.66098 0,3.06688 -3.03354,1.66119 -7.441,-3.44798 z"
             style="fill:#ffffff;stroke-width:1.0718807" />
        </g>
        <g
           id="g4945">
          <path
             id="path4926"
             d="m 48.782609,162.67716 c -17.46806,-4.69745 -32.68345,-20.48082 -36.43632,-37.79651 -0.96982,-4.47471 -0.91857,-4.62894 1.31129,-3.94676 14.56574,4.456 24.54563,2.48209 34.30158,-6.78455 6.80339,-6.46216 9.70506,-13.23661 9.70757,-22.663845 0.002,-9.414883 -2.33094,-14.990796 -9.28985,-22.199061 l -4.35691,-4.513016 3.12915,-1.329585 c 1.87964,-0.798654 8.05144,-1.331322 15.45579,-1.333935 10.3556,-0.0036 13.32489,0.390617 18.56949,2.465777 8.93534,3.535464 18.57424,11.27233 24.044951,19.300275 l 4.67541,6.860842 -8.76032,4.117764 c -11.910741,5.598564 -23.951041,17.448534 -29.411291,28.946284 -5.15171,10.84795 -7.35346,21.75229 -6.51498,32.26553 l 0.66253,8.30707 -5.65244,-0.0705 c -3.10885,-0.0405 -8.25489,-0.77038 -11.43565,-1.62575 z"
             style="fill:#ffffff;stroke-width:1.0718807" />
          <path
             id="path4922"
             d="M 17.778469,107.96514 C 6.0001993,101.96159 4.5492193,84.842089 15.134369,76.768398 c 4.84588,-3.696115 13.3586,-4.533418 18.9783,-1.866673 12.1688,5.774463 13.85252,23.08036 3.0474,31.321835 -4.75684,3.62826 -14.04305,4.46269 -19.3816,1.74158 z"
             style="fill:#ffffff;stroke-width:1.0718807" />
        </g>
        <g
           id="g4949">
          <path
             id="path4924"
             d="m 190.77111,156.06637 c 0.83848,-10.51324 -1.36327,-21.41758 -6.51498,-32.26553 -5.46025,-11.49775 -17.50055,-23.34772 -29.41129,-28.946284 l -8.76032,-4.117764 4.67541,-6.860842 c 5.47071,-8.027945 15.10957,-15.764811 24.04494,-19.300275 5.24461,-2.075148 8.2139,-2.469431 18.5695,-2.465777 7.40435,0.0026 13.57615,0.535281 15.45579,1.333935 l 3.12915,1.329585 -4.35691,4.513016 c -6.95891,7.208265 -9.29232,12.784178 -9.28985,22.199061 0.002,9.427235 2.90418,16.201685 9.70757,22.663845 9.75595,9.26664 19.73584,11.24055 34.30158,6.78455 2.22986,-0.68218 2.28111,-0.52795 1.31129,3.94676 -2.75599,12.71604 -13.60994,27.06909 -25.17746,33.29417 -6.71073,3.6114 -16.38894,6.19862 -23.18771,6.19862 h -5.15924 z"
             style="fill:#ffffff;stroke-width:1.0718807" />
          <path
             id="path4918"
             d="m 221.4358,107.96514 c -11.77826,-6.00355 -13.22924,-23.123051 -2.6441,-31.196742 4.84589,-3.696115 13.3586,-4.533418 18.97835,-1.866673 12.16876,5.774463 13.85248,23.08036 3.04735,31.321835 -4.75684,3.62826 -14.04305,4.46269 -19.3816,1.74158 z"
             style="fill:#ffffff;stroke-width:1.0718807" />
        </g>
      </g>
    </g>
  </g>
</svg>
