<?xml version="1.0" encoding="UTF-8" standalone="no"?>
<!-- Created with Inkscape (http://www.inkscape.org/) -->

<svg
   xmlns:dc="http://purl.org/dc/elements/1.1/"
   xmlns:cc="http://creativecommons.org/ns#"
   xmlns:rdf="http://www.w3.org/1999/02/22-rdf-syntax-ns#"
   xmlns:svg="http://www.w3.org/2000/svg"
   xmlns="http://www.w3.org/2000/svg"
   xmlns:sodipodi="http://sodipodi.sourceforge.net/DTD/sodipodi-0.dtd"
   xmlns:inkscape="http://www.inkscape.org/namespaces/inkscape"
   width="256mm"
   height="256mm"
   viewBox="0 0 256 256"
   version="1.1"
   id="svg8"
   inkscape:version="0.92.5 (2060ec1f9f, 2020-04-08)"
   sodipodi:docname="krynn.svg">
  <defs
     id="defs2" />
  <sodipodi:namedview
     id="base"
     pagecolor="#ffffff"
     bordercolor="#666666"
     borderopacity="1.0"
     inkscape:pageopacity="0.0"
     inkscape:pageshadow="2"
     inkscape:zoom="0.7"
     inkscape:cx="8.0687456"
     inkscape:cy="624.39921"
     inkscape:document-units="mm"
     inkscape:current-layer="layer1"
     showgrid="false"
     inkscape:window-width="3840"
     inkscape:window-height="2056"
     inkscape:window-x="0"
     inkscape:window-y="50"
     inkscape:window-maximized="1" />
  <metadata
     id="metadata5">
    <rdf:RDF>
      <cc:Work
         rdf:about="">
        <dc:format>image/svg+xml</dc:format>
        <dc:type
           rdf:resource="http://purl.org/dc/dcmitype/StillImage" />
        <dc:title></dc:title>
      </cc:Work>
    </rdf:RDF>
  </metadata>
  <g
     inkscape:label="Layer 1"
     inkscape:groupmode="layer"
     id="layer1"
     transform="translate(0,-41)">
    <rect
       style="fill:#1a1a1a;fill-opacity:1;stroke:none;stroke-width:0.32538173;stroke-opacity:1"
       id="rect816"
       width="256"
       height="256"
       x="0"
       y="41" />
    <g
       id="g1226"
       transform="matrix(4.0066658,0,0,4.0066658,-384.64416,-507.91745)"
       style="fill:#ffffff">
      <g
         id="g1215"
         style="fill:#ffffff">
        <path
           style="fill:#ffffff;stroke-width:0.26458332"
           d="m 101.68438,195.20419 -3.686646,-3.69372 7.103346,-3.45441 c 3.90683,-1.89993 7.14697,-3.41079 7.20031,-3.35746 0.10072,0.10073 -6.69645,14.19931 -6.84574,14.19931 -0.0465,0 -1.74361,-1.66217 -3.77127,-3.69372 z"
           id="path1189"
           inkscape:connector-curvature="0" />
        <path
           style="fill:#ffffff;stroke-width:0.26458332"
           d="m 143.61041,153.28798 c 0,-0.0559 1.55252,-3.29405 3.45003,-7.19593 l 3.45003,-7.09432 3.69372,3.68665 c 2.03155,2.02766 3.69372,3.72473 3.69372,3.77127 0,0.0878 -14.00629,6.93393 -14.1859,6.93393 -0.0559,0 -0.1016,-0.0457 -0.1016,-0.1016 z"
           id="path1199"
           inkscape:connector-curvature="0" />
      </g>
      <g
         id="g1207"
         style="fill:#ffffff">
        <path
           style="fill:#ffffff;stroke-width:0.26458332"
           d="m 122.31145,193.44154 c -2.91041,-2.12157 -5.51296,-4.0145 -5.78344,-4.20651 -0.4749,-0.33712 -0.46688,-0.42469 0.23396,-2.553 0.39915,-1.21215 0.77178,-2.28589 0.82806,-2.38608 0.0563,-0.10019 0.99548,0.27459 2.08711,0.83286 5.2158,2.66738 11.42991,2.66738 16.64571,0 1.09163,-0.55827 2.03083,-0.93305 2.08711,-0.83286 0.0563,0.10019 0.42891,1.17393 0.82806,2.38608 0.70084,2.12831 0.70887,2.21588 0.23396,2.553 -0.27048,0.19201 -2.87303,2.08494 -5.78344,4.20651 -2.91042,2.12157 -5.47026,3.8574 -5.68854,3.8574 -0.21829,0 -2.77813,-1.73583 -5.68855,-3.8574 z"
           id="path1191"
           inkscape:connector-curvature="0" />
        <path
           style="fill:#ffffff;stroke-width:0.26458332"
           d="m 103.92291,175.21368 c -2.25557,-3.12161 -4.130826,-5.88601 -4.167234,-6.14311 -0.03651,-0.25783 1.666164,-2.84038 3.796994,-5.75912 2.12475,-2.91041 4.02028,-5.51296 4.21229,-5.78344 0.33712,-0.4749 0.42469,-0.46688 2.553,0.23396 1.21215,0.39915 2.28589,0.77178 2.38608,0.82806 0.10019,0.0563 -0.27459,0.99548 -0.83286,2.08711 -2.67093,5.22273 -2.66773,11.42924 0.009,16.66252 0.702,1.37269 0.92212,2.03899 0.70056,2.12065 -1.14023,0.42026 -4.27833,1.44448 -4.40429,1.43748 -0.0837,-0.005 -1.99756,-2.5625 -4.25314,-5.68411 z"
           id="path1195"
           inkscape:connector-curvature="0" />
        <path
           style="fill:#ffffff;stroke-width:0.26458332"
           d="m 145.59479,180.22403 c -1.01865,-0.35355 -1.99746,-0.69682 -2.17514,-0.7628 -0.22174,-0.0824 -0.002,-0.74773 0.70056,-2.12157 2.67633,-5.23328 2.67953,-11.43979 0.009,-16.66252 -0.55826,-1.09163 -0.93305,-2.03083 -0.83286,-2.08711 0.1002,-0.0563 1.17393,-0.42891 2.38608,-0.82806 2.12832,-0.70084 2.21588,-0.70886 2.55301,-0.23396 0.192,0.27048 2.08753,2.87303 4.21229,5.78344 2.13082,2.91874 3.8335,5.50129 3.79699,5.75912 -0.0866,0.61165 -8.18805,11.82218 -8.53286,11.80753 -0.14552,-0.006 -1.09802,-0.30052 -2.11667,-0.65407 z"
           id="path1197"
           inkscape:connector-curvature="0" />
        <path
           style="fill:#ffffff;stroke-width:0.26458332"
           d="m 117.59003,153.70404 c -0.0563,-0.10019 -0.42891,-1.17393 -0.82806,-2.38608 -0.70084,-2.12831 -0.70886,-2.21588 -0.23396,-2.553 0.27048,-0.19201 2.87303,-2.08494 5.78344,-4.20651 2.91042,-2.12157 5.47026,-3.8574 5.68855,-3.8574 0.21828,0 2.77812,1.73583 5.68854,3.8574 2.91041,2.12157 5.51296,4.0145 5.78344,4.20651 0.47491,0.33712 0.46688,0.42469 -0.23396,2.553 -0.39915,1.21215 -0.77177,2.28589 -0.82806,2.38608 -0.0563,0.10019 -0.99548,-0.27459 -2.08711,-0.83286 -5.2158,-2.66738 -11.42991,-2.66738 -16.64571,0 -1.09163,0.55827 -2.03082,0.93305 -2.08711,0.83286 z"
           id="path1201"
           inkscape:connector-curvature="0" />
      </g>
      <path
         inkscape:connector-curvature="0"
         id="path1193"
         d="m 124.4778,182.09642 c -2.24279,-0.61652 -4.23053,-1.79915 -6.0028,-3.57143 -2.68872,-2.68871 -3.96247,-5.75057 -3.96247,-9.52499 0,-3.77443 1.27375,-6.83629 3.96247,-9.525 2.68871,-2.68872 5.75057,-3.96247 9.525,-3.96247 3.77442,0 6.83628,1.27375 9.525,3.96247 2.68871,2.68871 3.96246,5.75057 3.96246,9.525 0,6.16677 -4.11885,11.52208 -10.08265,13.1094 -1.74438,0.46429 -5.21449,0.45778 -6.92701,-0.013 z"
         style="fill:#ffffff;stroke-width:0.26458332" />
    </g>
  </g>
</svg>
