<?xml version="1.0" encoding="UTF-8" standalone="no"?>
<!-- Created with Inkscape (http://www.inkscape.org/) -->

<svg
   xmlns:dc="http://purl.org/dc/elements/1.1/"
   xmlns:cc="http://creativecommons.org/ns#"
   xmlns:rdf="http://www.w3.org/1999/02/22-rdf-syntax-ns#"
   xmlns:svg="http://www.w3.org/2000/svg"
   xmlns="http://www.w3.org/2000/svg"
   xmlns:sodipodi="http://sodipodi.sourceforge.net/DTD/sodipodi-0.dtd"
   xmlns:inkscape="http://www.inkscape.org/namespaces/inkscape"
   width="256mm"
   height="256mm"
   viewBox="0 0 256 256"
   version="1.1"
   id="svg8"
   inkscape:version="0.92.5 (2060ec1f9f, 2020-04-08)"
   sodipodi:docname="thalan.svg">
  <defs
     id="defs2" />
  <sodipodi:namedview
     id="base"
     pagecolor="#ffffff"
     bordercolor="#666666"
     borderopacity="1.0"
     inkscape:pageopacity="0.0"
     inkscape:pageshadow="2"
     inkscape:zoom="0.98994949"
     inkscape:cx="449.96586"
     inkscape:cy="386.69817"
     inkscape:document-units="mm"
     inkscape:current-layer="layer1"
     showgrid="false"
     inkscape:window-width="3840"
     inkscape:window-height="2056"
     inkscape:window-x="0"
     inkscape:window-y="50"
     inkscape:window-maximized="1" />
  <metadata
     id="metadata5">
    <rdf:RDF>
      <cc:Work
         rdf:about="">
        <dc:format>image/svg+xml</dc:format>
        <dc:type
           rdf:resource="http://purl.org/dc/dcmitype/StillImage" />
        <dc:title></dc:title>
      </cc:Work>
    </rdf:RDF>
  </metadata>
  <g
     inkscape:label="Layer 1"
     inkscape:groupmode="layer"
     id="layer1"
     transform="translate(0,-41)">
    <rect
       style="fill:#1a1a1a;fill-opacity:1;stroke:none;stroke-width:0.32538173;stroke-opacity:1"
       id="rect816"
       width="256"
       height="256"
       x="-1.0658141e-14"
       y="41" />
    <g
       id="g1372"
       transform="matrix(3.7956219,0,0,3.7956219,-357.83958,-472.95764)"
       style="fill:#ffffff">
      <g
         id="g1356"
         style="fill:#ffffff">
        <path
           style="fill:#ffffff;stroke-width:0.26458332"
           d="m 130.82222,184.96319 c -0.097,-0.097 -0.17639,-5.33576 -0.17639,-11.64167 v -11.46527 l 0.59531,-0.007 c 0.32742,-0.004 1.42875,-0.29242 2.4474,-0.64148 1.20721,-0.41367 1.9442,-0.54488 2.11666,-0.37685 0.47222,0.46009 0.31392,10.08113 -0.21277,12.93141 -0.91208,4.93592 -3.25603,11.37708 -4.14015,11.37708 -0.24952,0 -0.53305,-0.0794 -0.63006,-0.17639 z"
           id="path1341"
           inkscape:connector-curvature="0" />
        <path
           style="fill:#ffffff;stroke-width:0.26458332"
           d="m 123.16679,182.97029 c -1.2114,-2.83388 -2.17663,-6.05493 -2.75923,-9.2078 -0.52669,-2.85027 -0.68499,-12.47131 -0.21277,-12.93141 0.17246,-0.16803 0.90945,-0.0368 2.11666,0.37686 1.01865,0.34905 2.12123,0.63772 2.45018,0.64147 l 0.59809,0.007 -0.0689,11.57552 c -0.0688,11.54892 -0.0702,11.5757 -0.62703,11.65519 -0.47062,0.0672 -0.70528,-0.26462 -1.49698,-2.11666 z"
           id="path1337"
           inkscape:connector-curvature="0" />
      </g>
      <g
         id="g1360"
         style="fill:#ffffff">
        <path
           style="fill:#ffffff;stroke-width:0.26458332"
           d="m 137.95036,193.14322 c -0.22076,-1.9509 -1.15437,-3.95403 -2.5471,-5.46496 l -1.10134,-1.19481 1.04826,-2.59016 c 1.97153,-4.87146 2.92532,-9.58733 3.14596,-15.55475 0.0848,-2.29356 0.0213,-5.02971 -0.15055,-6.48229 l -0.29729,-2.51355 1.12741,-0.9185 c 2.82731,-2.30341 4.85923,-5.00094 6.02614,-8.00015 l 0.70328,-1.80756 1.20074,1.05693 c 3.55141,3.12608 6.64536,8.77138 7.90945,14.43178 0.46514,2.08284 0.46514,8.76508 0,10.84792 -1.62459,7.27471 -5.50847,13.18184 -11.19508,17.02702 -1.3587,0.91872 -4.90646,2.68444 -5.39371,2.68444 -0.17376,0 -0.37778,-0.65183 -0.47617,-1.52136 z"
           id="path1339"
           inkscape:connector-curvature="0" />
        <path
           style="fill:#ffffff;stroke-width:0.26458332"
           d="m 115.34729,193.74341 c -7.3903,-3.5417 -12.4296,-10.13452 -14.36262,-18.79029 -0.46514,-2.08284 -0.46514,-8.76508 0,-10.84792 1.26409,-5.6604 4.35804,-11.3057 7.90946,-14.43178 l 1.20074,-1.05693 0.70327,1.80756 c 1.16691,2.99921 3.19884,5.69674 6.02614,8.00015 l 1.12741,0.9185 -0.29729,2.51355 c -0.17181,1.45258 -0.23535,4.18873 -0.15055,6.48229 0.22065,5.96742 1.17443,10.68329 3.14596,15.55475 l 1.04826,2.59016 -1.10133,1.19481 c -1.39273,1.51093 -2.32635,3.51406 -2.54711,5.46496 -0.0984,0.86953 -0.30241,1.52136 -0.47617,1.52136 -0.16721,0 -1.16899,-0.41453 -2.22617,-0.92117 z"
           id="path1335"
           inkscape:connector-curvature="0" />
      </g>
      <g
         id="g1352"
         style="fill:#ffffff">
        <path
           style="fill:#ffffff;stroke-width:0.26458332"
           d="m 124.825,156.40808 c -2.47311,-0.65644 -4.27324,-1.69686 -6.10474,-3.52835 -2.79047,-2.79048 -4.14609,-6.3211 -3.86782,-10.07348 0.13892,-1.87318 1.08527,-5.293 1.46403,-5.29054 0.0958,6.3e-4 0.63649,0.90171 1.20158,2.00241 1.36597,2.66071 3.72436,5.05165 6.14271,6.2275 1.67986,0.81678 2.02647,0.88769 4.33924,0.88769 2.31276,0 2.65937,-0.0709 4.33923,-0.88769 2.41835,-1.17585 4.77675,-3.56679 6.14272,-6.2275 0.56508,-1.1007 1.10579,-2.00178 1.20157,-2.00241 0.37876,-0.002 1.32511,3.41736 1.46403,5.29054 0.27827,3.75238 -1.07734,7.283 -3.86782,10.07348 -3.34727,3.34726 -8.08277,4.6888 -12.45473,3.52835 z"
           id="path1343"
           inkscape:connector-curvature="0" />
        <path
           style="fill:#ffffff;stroke-width:0.26458332"
           d="m 126.07854,189.47992 c -0.37502,-0.37501 -0.19009,-0.96092 0.46625,-1.4772 l 0.66146,-0.5203 v -15.02104 c 0,-13.97174 -0.0323,-15.04994 -0.46302,-15.4348 -0.25467,-0.22756 -0.76068,-0.45438 -1.12448,-0.50402 l -0.66146,-0.0903 0.59531,-0.59532 c 0.50397,-0.50396 0.87949,-0.59531 2.4474,-0.59531 1.5679,0 1.94342,0.0914 2.44739,0.59531 l 0.59531,0.59532 -0.66145,0.0903 c -0.36381,0.0496 -0.86982,0.27646 -1.12448,0.50402 -0.43068,0.38486 -0.46302,1.46306 -0.46302,15.4348 v 15.02104 l 0.683,0.53725 c 0.92681,0.72903 0.76511,1.50952 -0.29339,1.41617 -1.28615,-0.11344 -1.5482,-0.10514 -2.24493,0.0711 -0.36558,0.0925 -0.75253,0.0803 -0.85989,-0.0271 z"
           id="path1347"
           inkscape:connector-curvature="0" />
        <path
           style="fill:#ffffff;fill-opacity:1;stroke:none;stroke-width:0.3256382;stroke-opacity:1"
           id="path828"
           d="m 134.38171,194.38145 a 6.3649998,6.3649998 0 0 1 -6.36334,6.365 6.3649998,6.3649998 0 0 1 -6.36666,-6.36166 6.3649998,6.3649998 0 0 1 6.36,-6.36833 6.3649998,6.3649998 0 0 1 6.36999,6.35833 l -6.36499,0.007 z"
           sodipodi:type="arc"
           sodipodi:start="0"
           sodipodi:end="6.2821381"
           sodipodi:ry="6.3649998"
           sodipodi:rx="6.3649998"
           sodipodi:cy="194.38145"
           sodipodi:cx="128.01671" />
      </g>
    </g>
  </g>
</svg>
