<?xml version="1.0" encoding="UTF-8" standalone="no"?>
<!-- Created with Inkscape (http://www.inkscape.org/) -->

<svg
   xmlns:dc="http://purl.org/dc/elements/1.1/"
   xmlns:cc="http://creativecommons.org/ns#"
   xmlns:rdf="http://www.w3.org/1999/02/22-rdf-syntax-ns#"
   xmlns:svg="http://www.w3.org/2000/svg"
   xmlns="http://www.w3.org/2000/svg"
   xmlns:sodipodi="http://sodipodi.sourceforge.net/DTD/sodipodi-0.dtd"
   xmlns:inkscape="http://www.inkscape.org/namespaces/inkscape"
   width="256mm"
   height="256mm"
   viewBox="0 0 256 256"
   version="1.1"
   id="svg8"
   inkscape:version="0.92.5 (2060ec1f9f, 2020-04-08)"
   sodipodi:docname="scientific.svg">
  <defs
     id="defs2" />
  <sodipodi:namedview
     id="base"
     pagecolor="#ffffff"
     bordercolor="#666666"
     borderopacity="1.0"
     inkscape:pageopacity="0.0"
     inkscape:pageshadow="2"
     inkscape:zoom="0.98994949"
     inkscape:cx="131.03538"
     inkscape:cy="601.72382"
     inkscape:document-units="mm"
     inkscape:current-layer="layer1"
     showgrid="false"
     inkscape:window-width="3840"
     inkscape:window-height="2056"
     inkscape:window-x="0"
     inkscape:window-y="50"
     inkscape:window-maximized="1" />
  <metadata
     id="metadata5">
    <rdf:RDF>
      <cc:Work
         rdf:about="">
        <dc:format>image/svg+xml</dc:format>
        <dc:type
           rdf:resource="http://purl.org/dc/dcmitype/StillImage" />
        <dc:title></dc:title>
      </cc:Work>
    </rdf:RDF>
  </metadata>
  <g
     inkscape:label="Layer 1"
     inkscape:groupmode="layer"
     id="layer1"
     transform="translate(0,-41)">
    <rect
       style="fill:#000000;fill-opacity:1;stroke:none;stroke-width:0.73613685;stroke-miterlimit:4;stroke-dasharray:none;stroke-opacity:1;paint-order:stroke fill markers"
       id="rect4747"
       width="256"
       height="256"
       x="-1.4210855e-14"
       y="41" />
    <path
       style="fill:#ffffff;stroke-width:0.96774191"
       d="M 110.81219,272.29637 94.12904,255.59273 v -28.55847 -28.55848 l -8.709678,-8.66933 -8.709678,-8.66932 v 28.5231 28.5231 L 42.354838,203.83871 7.9999915,169.49409 V 132.95673 96.419359 H 44.074353 80.148677 l 6.506298,6.556541 6.506335,6.55655 v 10.86281 10.86281 h 8.70968 8.70968 V 104.08488 76.911699 l 8.35382,-13.95585 c 4.59458,-7.67571 8.67409,-13.95585 9.06553,-13.95585 0.3914,0 4.47091,6.28014 9.06549,13.95585 l 8.35383,13.95585 v 27.173181 27.17319 h 8.70968 8.70968 v -10.91305 -10.91305 l 6.55655,-6.50631 6.55655,-6.506301 h 36.02411 36.0241 v 36.537371 36.53736 l -34.35484,34.34462 -34.35485,34.34462 v -28.5231 -28.5231 l -8.70968,8.66932 -8.70967,8.66933 v 28.57893 28.57893 l -16.70364,16.68319 C 135.98034,281.49257 128.24581,289 127.97954,289 c -0.26628,0 -7.99158,-7.51663 -17.16735,-16.70363 z"
       id="path4906"
       inkscape:connector-curvature="0" />
  </g>
</svg>
