<?xml version="1.0" encoding="UTF-8" standalone="no"?>
<!-- Created with Inkscape (http://www.inkscape.org/) -->

<svg
   xmlns:dc="http://purl.org/dc/elements/1.1/"
   xmlns:cc="http://creativecommons.org/ns#"
   xmlns:rdf="http://www.w3.org/1999/02/22-rdf-syntax-ns#"
   xmlns:svg="http://www.w3.org/2000/svg"
   xmlns="http://www.w3.org/2000/svg"
   xmlns:sodipodi="http://sodipodi.sourceforge.net/DTD/sodipodi-0.dtd"
   xmlns:inkscape="http://www.inkscape.org/namespaces/inkscape"
   width="256mm"
   height="256mm"
   viewBox="0 0 256 256"
   version="1.1"
   id="svg8"
   inkscape:version="0.92.5 (2060ec1f9f, 2020-04-08)"
   sodipodi:docname="al-falah.svg">
  <defs
     id="defs2" />
  <sodipodi:namedview
     id="base"
     pagecolor="#ffffff"
     bordercolor="#666666"
     borderopacity="1.0"
     inkscape:pageopacity="0.0"
     inkscape:pageshadow="2"
     inkscape:zoom="0.7"
     inkscape:cx="1290.317"
     inkscape:cy="852.92978"
     inkscape:document-units="mm"
     inkscape:current-layer="layer1"
     showgrid="false"
     inkscape:window-width="3840"
     inkscape:window-height="2056"
     inkscape:window-x="0"
     inkscape:window-y="50"
     inkscape:window-maximized="1" />
  <metadata
     id="metadata5">
    <rdf:RDF>
      <cc:Work
         rdf:about="">
        <dc:format>image/svg+xml</dc:format>
        <dc:type
           rdf:resource="http://purl.org/dc/dcmitype/StillImage" />
        <dc:title></dc:title>
      </cc:Work>
    </rdf:RDF>
  </metadata>
  <g
     inkscape:label="Layer 1"
     inkscape:groupmode="layer"
     id="layer1"
     transform="translate(0,-41)">
    <rect
       style="fill:#000000;fill-opacity:1;stroke:none;stroke-width:0.32538173;stroke-opacity:1"
       id="rect816"
       width="256"
       height="256"
       x="-1.0658141e-14"
       y="41" />
    <g
       id="g1041"
       transform="matrix(1.1815358,0,0,1.1815358,-23.332573,-30.951681)"
       style="fill:#ffffff">
      <path
         inkscape:connector-curvature="0"
         id="path1032"
         d="m 108.42083,194.76727 c 5.55555,-2.95322 11.81564,-6.90224 16.34589,-10.31138 l 2.19068,-1.64855 -2.45526,-1.29751 c -1.3504,-0.71363 -4.47846,-2.59989 -6.95125,-4.19169 -8.01473,-5.15928 -11.55124,-9.47712 -15.69793,-19.16605 -3.355001,-7.83914 -4.508293,-11.76859 -6.828567,-23.26607 -2.595097,-12.85926 -3.866396,-17.32858 -6.445991,-22.6612 -1.045258,-2.16079 -1.598261,-2.95277 -2.909387,-4.16664 -1.989638,-1.84205 -4.967992,-3.32125 -8.668865,-4.30539 -2.629434,-0.69922 -2.699363,-0.73704 -2.26006,-1.22247 0.844278,-0.93291 4.168878,-2.812462 6.296367,-3.559619 1.989807,-0.698802 2.378315,-0.743456 6.482291,-0.745048 3.738896,-0.0013 4.688486,0.08605 6.614584,0.609478 5.13302,1.394939 9.419478,4.839609 13.431238,10.793569 0.59855,0.88833 2.47812,4.04349 4.1768,7.01146 4.71702,8.24165 7.41575,12.01392 10.1875,14.24005 l 1.12837,0.90624 -0.19016,-32.060935 c -0.10459,-17.633514 -0.0938,-32.059581 0.024,-32.057928 1.05258,0.01477 8.90262,2.523132 10.1008,3.227551 2.14962,1.26378 6.3525,5.520617 7.65142,7.749652 2.679,4.597328 2.83172,6.43394 2.40914,28.97188 -0.34152,18.21528 -0.22295,25.88324 0.44185,28.575 0.97132,3.9328 4.74898,10.30429 8.94169,15.08125 2.0993,2.39183 3.54676,4.89316 2.96151,5.11774 -0.91349,0.35053 -7.3639,0.75153 -9.60254,0.59695 -6.17366,-0.42631 -10.66425,-1.98025 -17.53035,-6.06629 -1.09141,-0.6495 -2.02215,-1.14559 -2.06831,-1.10242 -0.0462,0.0432 0.21222,0.66292 0.57419,1.37723 1.60274,3.16285 4.55201,5.87154 9.78233,8.98434 3.98259,2.37023 6.54544,3.53212 14.48053,6.56491 7.14493,2.73079 12.50946,5.19021 15.33084,7.02857 3.66819,2.39012 7.58478,5.93558 10.36329,9.38126 1.60605,1.99171 4.71838,6.45899 4.71838,6.77253 0,0.10507 -0.62508,0.0222 -1.38906,-0.18415 -2.30859,-0.62355 -8.04414,-1.63247 -11.9724,-2.10603 -4.48235,-0.54036 -13.98722,-0.62022 -16.53646,-0.13894 -2.31122,0.43635 -5.02513,1.79288 -7.30202,3.64988 -1.03294,0.84244 -2.86054,2.33538 -4.06134,3.31765 l -2.18328,1.78594 -16.17928,-0.004 -16.17929,-0.004 2.77813,-1.47679 z"
         style="fill:#ffffff;stroke-width:0.26458335" />
      <path
         inkscape:connector-curvature="0"
         id="path1036"
         d="m 123.86332,270.48641 c -3.89406,-0.88742 -7.0333,-2.62415 -9.86903,-5.45987 -3.02785,-3.02786 -4.69072,-6.17267 -5.49196,-10.38642 -0.47274,-2.48617 -0.33752,-6.26937 0.31009,-8.67594 1.79571,-6.67295 7.26091,-12.13089 14.04318,-14.02452 4.15163,-1.15915 9.92323,-0.63656 13.65184,1.2361 8.61205,4.32532 12.89638,13.48744 10.6734,22.82522 -1.5186,6.37898 -6.92611,12.02029 -13.4923,14.07566 -2.37938,0.7448 -7.43066,0.95547 -9.82522,0.40977 z"
         style="fill:#ffffff;stroke-width:0.26458335" />
      <path
         inkscape:connector-curvature="0"
         id="path1034"
         d="m 55.675559,210.25302 c -6.963492,-7.86479 -12.608857,-14.35167 -12.545252,-14.41527 0.06361,-0.0636 38.317667,-0.0857 85.009023,-0.0491 l 84.89338,0.0666 -12.68458,14.34037 L 187.66354,224.536 128,224.544 68.336456,224.552 55.675559,210.25237 Z"
         style="fill:#ffffff;stroke-width:0.26458335" />
    </g>
  </g>
</svg>
