<?xml version="1.0" encoding="UTF-8" standalone="no"?>
<!-- Created with Inkscape (http://www.inkscape.org/) -->

<svg
   xmlns:dc="http://purl.org/dc/elements/1.1/"
   xmlns:cc="http://creativecommons.org/ns#"
   xmlns:rdf="http://www.w3.org/1999/02/22-rdf-syntax-ns#"
   xmlns:svg="http://www.w3.org/2000/svg"
   xmlns="http://www.w3.org/2000/svg"
   xmlns:sodipodi="http://sodipodi.sourceforge.net/DTD/sodipodi-0.dtd"
   xmlns:inkscape="http://www.inkscape.org/namespaces/inkscape"
   width="256mm"
   height="256mm"
   viewBox="0 0 256 256"
   version="1.1"
   id="svg8"
   inkscape:version="0.92.5 (2060ec1f9f, 2020-04-08)"
   sodipodi:docname="brasilia.svg">
  <defs
     id="defs2" />
  <sodipodi:namedview
     id="base"
     pagecolor="#ffffff"
     bordercolor="#666666"
     borderopacity="1.0"
     inkscape:pageopacity="0.0"
     inkscape:pageshadow="2"
     inkscape:zoom="0.7"
     inkscape:cx="508.94384"
     inkscape:cy="841.8677"
     inkscape:document-units="mm"
     inkscape:current-layer="layer1"
     showgrid="false"
     inkscape:window-width="3840"
     inkscape:window-height="2056"
     inkscape:window-x="0"
     inkscape:window-y="50"
     inkscape:window-maximized="1" />
  <metadata
     id="metadata5">
    <rdf:RDF>
      <cc:Work
         rdf:about="">
        <dc:format>image/svg+xml</dc:format>
        <dc:type
           rdf:resource="http://purl.org/dc/dcmitype/StillImage" />
        <dc:title></dc:title>
      </cc:Work>
    </rdf:RDF>
  </metadata>
  <g
     inkscape:label="Layer 1"
     inkscape:groupmode="layer"
     id="layer1"
     transform="translate(0,-41)">
    <rect
       style="fill:#000000;fill-opacity:1;stroke:none;stroke-width:0.32538173;stroke-opacity:1"
       id="rect816"
       width="256"
       height="256"
       x="-1.0658141e-14"
       y="41" />
    <g
       id="g4831"
       transform="matrix(1.6345146,0,0,1.6345146,605.97591,-39.038189)"
       style="fill:#ffffff">
      <path
         id="path4770"
         d="m -292.74958,188.86562 c -0.0908,-0.76398 -0.93607,-7.69937 -1.87849,-15.41198 -0.94242,-7.7126 -3.51363,-29.14362 -5.7138,-47.62449 -2.20018,-18.48086 -4.02039,-33.612538 -4.04492,-33.625937 -0.51775,-0.28276 -17.08777,-13.713351 -17.01216,-13.788958 0.0597,-0.0597 4.24686,-1.171083 9.30481,-2.469737 5.05794,-1.298655 9.22399,-2.393182 9.25789,-2.432282 0.0339,-0.0391 2.09838,-4.119217 4.58773,-9.066925 2.48936,-4.947709 4.82526,-9.353021 5.19089,-9.789583 l 0.66478,-0.79375 0.66477,0.79375 c 0.36563,0.436562 2.70153,4.841874 5.19089,9.789583 2.48935,4.947708 4.55383,9.027824 4.58773,9.066925 0.0339,0.0391 4.19995,1.133627 9.25789,2.432282 5.05795,1.298654 9.24511,2.410036 9.30481,2.469737 0.0756,0.07561 -16.49441,13.506198 -17.01216,13.788958 -0.0245,0.01339 -1.84474,15.145077 -4.04492,33.625937 -2.20017,18.48087 -4.77138,39.91189 -5.7138,47.62449 -0.94242,7.71261 -1.78774,14.648 -1.87849,15.41198 -0.0908,0.76399 -0.25128,1.38906 -0.35672,1.38906 -0.10545,0 -0.26598,-0.62507 -0.35673,-1.38906 z"
         style="fill:#ffffff;stroke-width:0.26458332"
         inkscape:connector-curvature="0" />
      <g
         id="g4786"
         style="fill:#ffffff">
        <path
           style="fill:#ffffff;stroke-width:0.26458332"
           d="m -325.31408,126.22105 -2.84253,-2.91488 0.18008,-1.12001 c 0.62769,-3.90414 5.51989,-31.353637 5.85827,-32.870017 0.22731,-1.018645 0.50302,-1.948603 0.61269,-2.066575 0.31682,-0.340791 4.2379,3.040372 4.23757,3.654075 -7.9e-4,1.322753 -4.24661,35.580487 -4.64833,37.504687 -0.0835,0.40018 -0.24265,0.72761 -0.35357,0.72761 -0.11091,0 -1.48079,-1.3117 -3.04418,-2.91489 z"
           id="path4768"
           inkscape:connector-curvature="0" />
        <path
           style="fill:#ffffff;stroke-width:0.26458332"
           d="m -262.86938,128.40833 c -0.40172,-1.9242 -4.64763,-36.181934 -4.64833,-37.504687 -2.7e-4,-0.613703 3.92075,-3.994866 4.23757,-3.654075 0.10967,0.117972 0.38538,1.04793 0.61269,2.066575 0.33838,1.51638 5.23058,28.965877 5.85827,32.870017 l 0.18007,1.12001 -2.84252,2.91488 c -1.56339,1.60319 -2.93327,2.91489 -3.04418,2.91489 -0.11092,0 -0.27003,-0.32743 -0.35357,-0.72761 z"
           id="path4766"
           inkscape:connector-curvature="0" />
      </g>
      <g
         id="g4818"
         style="fill:#ffffff">
        <g
           id="g4778"
           style="fill:#ffffff">
          <path
             id="path4774"
             d="m -305.8866,199.72865 c -0.50933,-0.4561 -3.253,-2.98269 -6.09706,-5.61464 -10.62806,-9.83542 -12.84715,-11.66797 -19.36197,-15.98932 -5.87868,-3.89938 -11.84099,-7.34987 -17.72597,-10.25831 -1.6251,-0.80315 -2.45276,-1.34626 -2.24896,-1.47576 0.56292,-0.35768 7.02661,-0.22893 9.89582,0.19711 5.24103,0.77822 9.58051,2.35579 14.45297,5.25423 3.15344,1.87586 12.0253,8.16259 13.97612,9.90369 1.47141,1.31323 1.78525,1.12088 1.28866,-0.7898 -1.42733,-5.49182 -4.73565,-10.59069 -9.95596,-15.3444 -2.24283,-2.04237 -3.20284,-2.73298 -16.87897,-12.14253 -8.70691,-5.99059 -11.01255,-7.70895 -13.12371,-9.7809 -2.24967,-2.20789 -2.70761,-2.8192 -3.76587,-5.02708 -1.58157,-3.29968 -3.60452,-9.7528 -3.32253,-10.59876 0.0541,-0.16233 1.72174,1.59043 3.70585,3.89503 3.56787,4.14418 4.9287,5.46564 8.01887,7.78685 3.11509,2.33993 10.06831,6.53155 10.35658,6.24328 0.0785,-0.0785 0.0698,-0.37257 -0.0193,-0.65344 -0.31337,-0.98737 -4.32253,-6.84101 -6.92608,-10.11255 -3.03908,-3.81882 -4.82368,-6.53839 -6.55469,-9.98879 -2.87299,-5.72667 -3.94868,-9.51529 -3.9625,-13.956 -0.011,-3.53506 0.48406,-5.67588 2.08024,-8.99583 1.17907,-2.452395 3.7647,-6.376335 4.02807,-6.112971 0.0816,0.08165 -0.005,1.046805 -0.19304,2.144789 -0.63426,3.707972 0.0876,9.392282 1.64626,12.964012 1.93421,4.43224 3.63192,6.44364 16.07901,19.05 12.68189,12.84418 14.07806,14.47478 16.87752,19.71146 3.74383,7.00325 7.06473,19.04668 8.13471,29.50104 0.38268,3.73899 0.89712,21.04711 0.62496,21.02662 -0.0566,-0.004 -0.5197,-0.38093 -1.02902,-0.83703 z"
             style="fill:#ffffff;stroke-width:0.26458332"
             inkscape:connector-curvature="0" />
          <path
             id="path4764"
             d="m -360.80382,105.4179 c -0.50113,-4.01091 0.55668,-11.84423 2.14156,-15.858726 2.08724,-5.286978 6.66023,-11.209295 10.84619,-14.046529 0.86928,-0.589194 4.55707,-2.567458 8.19509,-4.396143 6.63566,-3.335474 9.42696,-4.945434 10.78177,-6.218685 1.0586,-0.994868 0.91398,-0.311539 -0.47949,2.265677 -2.51371,4.649078 -6.11511,9.737134 -8.49029,11.995071 -0.70555,0.670726 -3.30688,2.945553 -5.78074,5.055174 -5.01175,4.273854 -10.0048,9.286747 -11.34628,11.391376 -1.43327,2.248643 -3.76882,6.782055 -4.66597,9.056865 -0.45913,1.16417 -0.87414,2.15646 -0.92225,2.20509 -0.0481,0.0486 -0.17393,-0.60349 -0.27959,-1.44917 z"
             style="fill:#ffffff;stroke-width:0.26458332"
             inkscape:connector-curvature="0" />
        </g>
        <g
           id="g4782"
           style="fill:#ffffff">
          <path
             inkscape:connector-curvature="0"
             id="path4772"
             d="m -279.8847,192.23348 c 0.21156,-12.07402 0.85368,-17.54116 3.13796,-26.71734 1.60966,-6.46616 3.36634,-11.34044 5.57828,-15.47812 2.79946,-5.23668 4.19563,-6.86728 16.87752,-19.71146 12.44708,-12.60636 14.14479,-14.61776 16.07901,-19.05 1.55869,-3.57173 2.28052,-9.25604 1.64625,-12.964012 -0.18782,-1.097984 -0.27468,-2.063141 -0.19303,-2.144789 0.26336,-0.263364 2.849,3.660576 4.02807,6.112971 1.59618,3.31995 2.09123,5.46077 2.08024,8.99583 -0.022,7.08752 -3.61894,15.27665 -10.5172,23.94479 -2.60355,3.27154 -6.6127,9.12518 -6.92608,10.11255 -0.0891,0.28087 -0.0978,0.57491 -0.0193,0.65344 0.28827,0.28827 7.24149,-3.90335 10.35658,-6.24328 3.09017,-2.32121 4.451,-3.64267 8.01887,-7.78685 1.98411,-2.3046 3.65174,-4.05736 3.70585,-3.89503 0.28199,0.84596 -1.74096,7.29908 -3.32252,10.59876 -1.05827,2.20788 -1.51621,2.81919 -3.76588,5.02708 -2.11115,2.07195 -4.4168,3.79031 -13.12371,9.7809 -13.67613,9.40955 -14.63614,10.10016 -16.87896,12.14253 -5.22031,4.75371 -8.52863,9.85258 -9.95597,15.3444 -0.49658,1.91068 -0.18274,2.10303 1.28867,0.7898 1.95082,-1.7411 10.82267,-8.02783 13.97611,-9.90369 4.87246,-2.89844 9.21194,-4.47601 14.45297,-5.25423 2.86921,-0.42604 9.3329,-0.55479 9.89582,-0.19711 0.2038,0.1295 -0.62386,0.67261 -2.24896,1.47576 -5.88498,2.90844 -11.84729,6.35893 -17.72597,10.25831 -6.51853,4.32381 -8.75907,6.17439 -19.36196,15.99199 -2.84406,2.63341 -5.63449,5.19074 -6.20096,5.68295 l -1.02995,0.89493 0.14826,-8.46108 z"
             style="fill:#ffffff;stroke-width:0.26458332" />
          <path
             inkscape:connector-curvature="0"
             id="path4760"
             d="m -225.02888,105.03644 c -0.82971,-2.16508 -3.43934,-7.272868 -4.8186,-9.431325 -1.34721,-2.108298 -6.34225,-7.122213 -11.3485,-11.391376 -2.47386,-2.109621 -5.07519,-4.384448 -5.78075,-5.055174 -2.37517,-2.257937 -5.97657,-7.345993 -8.49028,-11.995071 -1.39348,-2.577216 -1.53809,-3.260545 -0.4795,-2.265677 1.35482,1.273251 4.14612,2.883211 10.78178,6.218685 7.49922,3.769557 9.04974,4.741554 11.54661,7.238425 6.28049,6.280494 9.27703,13.3414 9.64846,22.735173 0.0834,2.11006 0.0484,4.30263 -0.0778,4.87238 l -0.22953,1.03593 z"
             style="fill:#ffffff;stroke-width:0.26458332" />
        </g>
      </g>
    </g>
  </g>
</svg>
