<?xml version="1.0" encoding="UTF-8" standalone="no"?>
<!-- Created with Inkscape (http://www.inkscape.org/) -->

<svg
   xmlns:dc="http://purl.org/dc/elements/1.1/"
   xmlns:cc="http://creativecommons.org/ns#"
   xmlns:rdf="http://www.w3.org/1999/02/22-rdf-syntax-ns#"
   xmlns:svg="http://www.w3.org/2000/svg"
   xmlns="http://www.w3.org/2000/svg"
   xmlns:sodipodi="http://sodipodi.sourceforge.net/DTD/sodipodi-0.dtd"
   xmlns:inkscape="http://www.inkscape.org/namespaces/inkscape"
   width="256mm"
   height="256mm"
   viewBox="0 0 256 256"
   version="1.1"
   id="svg8"
   inkscape:version="0.92.5 (2060ec1f9f, 2020-04-08)"
   sodipodi:docname="kavithan.svg">
  <defs
     id="defs2" />
  <sodipodi:namedview
     id="base"
     pagecolor="#ffffff"
     bordercolor="#666666"
     borderopacity="1.0"
     inkscape:pageopacity="0.0"
     inkscape:pageshadow="2"
     inkscape:zoom="0.7"
     inkscape:cx="752.16096"
     inkscape:cy="643.94449"
     inkscape:document-units="mm"
     inkscape:current-layer="layer1"
     showgrid="false"
     inkscape:window-width="3840"
     inkscape:window-height="2056"
     inkscape:window-x="0"
     inkscape:window-y="50"
     inkscape:window-maximized="1" />
  <metadata
     id="metadata5">
    <rdf:RDF>
      <cc:Work
         rdf:about="">
        <dc:format>image/svg+xml</dc:format>
        <dc:type
           rdf:resource="http://purl.org/dc/dcmitype/StillImage" />
        <dc:title></dc:title>
      </cc:Work>
    </rdf:RDF>
  </metadata>
  <g
     inkscape:label="Layer 1"
     inkscape:groupmode="layer"
     id="layer1"
     transform="translate(0,-41)">
    <rect
       style="fill:#000000;fill-opacity:1;stroke:none;stroke-width:0.32538173;stroke-opacity:1"
       id="rect816"
       width="256"
       height="256"
       x="-1.0658141e-14"
       y="41" />
    <g
       id="g4791"
       style="fill:#ffffff"
       transform="matrix(1.5029196,0,0,1.5029196,317.78178,-47.074195)">
      <g
         id="g4779"
         style="fill:#ffffff">
        <path
           style="fill:#ffffff;stroke-width:0.26458332"
           d="m -127.34117,219.53354 c -2.4553,-9.97777 -4.49171,-16.10179 -7.23645,-21.76198 -7.66951,-15.816 -18.04888,-24.86738 -31.97598,-27.8848 -3.12219,-0.67645 -5.33747,-0.92588 -14.35826,-1.61666 -11.34332,-0.86865 -14.19222,-1.30751 -17.55876,-2.7049 -3.42511,-1.4217 -5.93281,-4.29835 -7.09826,-8.1426 -0.55354,-1.82587 -0.7275,-5.45039 -0.34921,-7.27604 0.45252,-2.18397 1.03485,-3.21997 2.68764,-4.78151 2.85239,-2.69492 5.38758,-3.67757 9.4863,-3.67694 5.06496,8e-4 7.79222,1.48819 15.35384,8.37367 11.72542,10.67698 19.1952,15.04093 30.41907,17.77124 7.19408,1.75003 13.00817,2.39069 21.69584,2.39069 8.68766,0 14.50175,-0.64066 21.69583,-2.39069 11.223871,-2.73031 18.693651,-7.09426 30.419071,-17.77124 7.56162,-6.88548 10.28889,-8.37288 15.35384,-8.37367 4.09872,-5.2e-4 6.63391,0.98202 9.4863,3.67694 1.65279,1.56154 2.23512,2.59754 2.68764,4.78151 0.37829,1.82565 0.20432,5.45017 -0.34922,7.27604 -1.16544,3.84425 -3.67314,6.7209 -7.09824,8.1426 -3.36655,1.39739 -6.21545,1.83625 -17.55877,2.7049 -9.02079,0.69078 -11.23607,0.94021 -14.35826,1.61666 -13.9271,3.01742 -24.306471,12.0688 -31.975981,27.8848 -2.74474,5.66019 -4.78115,11.78421 -7.23645,21.76198 -0.47447,1.92815 -0.95407,3.50572 -1.06576,3.50572 -0.1117,0 -0.5913,-1.57757 -1.06577,-3.50572 z"
           id="path4873"
           inkscape:connector-curvature="0" />
        <path
           style="fill:#ffffff;stroke-width:0.26458332"
           d="m -136.06435,149.18625 c -5.65422,-0.38105 -11.97648,-1.75148 -16.27251,-3.52727 -4.88681,-2.01998 -11.57625,-6.43912 -18.65313,-12.32249 -4.61289,-3.83494 -8.31796,-7.96036 -9.85327,-10.97118 -2.39034,-4.68755 -2.12799,-11.41279 0.56485,-14.47976 3.55909,-4.05358 11.95314,-2.08133 15.98509,3.75583 1.31859,1.90895 3.05786,6.23546 3.62454,9.01618 1.40409,6.88999 5.54459,12.79428 11.76085,16.77077 8.04324,5.14519 25.71508,6.44403 38.66536,2.84181 3.93124,-1.0935 6.66775,-2.5766 9.92182,-5.3773 4.540839,-3.90817 7.273649,-8.51815 8.438719,-14.23528 0.56668,-2.78072 2.30595,-7.10723 3.62454,-9.01618 4.03195,-5.83716 12.426,-7.80941 15.98509,-3.75583 2.69284,3.06697 2.95519,9.79221 0.56485,14.47976 -2.17042,4.25629 -7.3972,9.39559 -16.20327,15.93208 -8.34396,6.19348 -13.803399,8.62567 -23.018749,10.25492 -4.88424,0.86351 -17.14105,1.17265 -25.13478,0.63394 z"
           id="path4871"
           inkscape:connector-curvature="0" />
      </g>
      <g
         id="g4783"
         style="fill:#ffffff">
        <circle
           style="fill:#ffffff;fill-opacity:1;stroke:none;stroke-width:0.40788692;stroke-miterlimit:4;stroke-dasharray:none;stroke-opacity:1;paint-order:stroke fill markers"
           id="path4865"
           cx="-126.27541"
           cy="107.17447"
           r="19.5" />
        <circle
           style="fill:#ffffff;fill-opacity:1;stroke:none;stroke-width:0.14642094;stroke-miterlimit:4;stroke-dasharray:none;stroke-opacity:1;paint-order:stroke fill markers"
           id="path4865-2"
           cx="-126.27541"
           cy="71.5"
           r="7" />
      </g>
    </g>
  </g>
</svg>
