<?xml version="1.0" encoding="UTF-8" standalone="no"?>
<!-- Created with Inkscape (http://www.inkscape.org/) -->

<svg
   xmlns:dc="http://purl.org/dc/elements/1.1/"
   xmlns:cc="http://creativecommons.org/ns#"
   xmlns:rdf="http://www.w3.org/1999/02/22-rdf-syntax-ns#"
   xmlns:svg="http://www.w3.org/2000/svg"
   xmlns="http://www.w3.org/2000/svg"
   xmlns:sodipodi="http://sodipodi.sourceforge.net/DTD/sodipodi-0.dtd"
   xmlns:inkscape="http://www.inkscape.org/namespaces/inkscape"
   width="256mm"
   height="256mm"
   viewBox="0 0 256 256"
   version="1.1"
   id="svg8"
   inkscape:version="0.92.5 (2060ec1f9f, 2020-04-08)"
   sodipodi:docname="polystralia.svg">
  <defs
     id="defs2" />
  <sodipodi:namedview
     id="base"
     pagecolor="#ffffff"
     bordercolor="#666666"
     borderopacity="1.0"
     inkscape:pageopacity="0.0"
     inkscape:pageshadow="2"
     inkscape:zoom="0.70000001"
     inkscape:cx="607.14172"
     inkscape:cy="394.36944"
     inkscape:document-units="mm"
     inkscape:current-layer="layer1"
     showgrid="false"
     inkscape:window-width="3840"
     inkscape:window-height="2056"
     inkscape:window-x="0"
     inkscape:window-y="50"
     inkscape:window-maximized="1" />
  <metadata
     id="metadata5">
    <rdf:RDF>
      <cc:Work
         rdf:about="">
        <dc:format>image/svg+xml</dc:format>
        <dc:type
           rdf:resource="http://purl.org/dc/dcmitype/StillImage" />
        <dc:title />
      </cc:Work>
    </rdf:RDF>
  </metadata>
  <g
     inkscape:label="Layer 1"
     inkscape:groupmode="layer"
     id="layer1"
     transform="translate(0,-41)">
    <rect
       style="fill:#000000;fill-opacity:1;stroke:none;stroke-width:0.32538173;stroke-opacity:1"
       id="rect816"
       width="256"
       height="256"
       x="-1.0658141e-14"
       y="41" />
    <g
       id="g4789">
      <g
         id="g4779">
        <circle
           style="fill:#ffffff;fill-opacity:1;stroke:none;stroke-width:0.5000605;stroke-miterlimit:4;stroke-dasharray:none;stroke-opacity:1;paint-order:stroke fill markers"
           id="path4871"
           cx="94.600998"
           cy="206.10201"
           r="12.5" />
        <circle
           style="fill:#ffffff;fill-opacity:1;stroke:none;stroke-width:0.5000605;stroke-miterlimit:4;stroke-dasharray:none;stroke-opacity:1;paint-order:stroke fill markers"
           id="path4871-2"
           cx="161.399"
           cy="206.10201"
           r="12.5" />
        <circle
           style="fill:#ffffff;fill-opacity:1;stroke:none;stroke-width:0.5000605;stroke-miterlimit:4;stroke-dasharray:none;stroke-opacity:1;paint-order:stroke fill markers"
           id="path4871-8"
           cx="128"
           cy="152.828"
           r="12.5" />
      </g>
      <g
         id="g4771">
        <path
           inkscape:connector-curvature="0"
           id="path4869"
           d="m 42.001569,143.83196 c -0.822748,0 -5.004355,3.77798 -7.511685,6.78667 -3.430439,4.11636 -9.535026,13.36081 -11.798246,17.86713 -4.31753,8.59675 -7.836562,18.22432 -10.431921,28.53934 -3.3040102,13.13161 -4.2546886,20.08378 -4.2596887,31.15469 -0.00568,12.26651 1.4779422,21.76264 4.0498817,25.924 5.07254,8.20722 21.067115,18.60288 37.011695,24.05537 12.635809,4.32099 17.671076,5.58972 24.914756,6.27972 3.850611,0.36681 8.054279,0.72901 9.341549,0.80461 6.239518,0.36642 16.376155,0.22773 24.25588,-0.33177 13.87866,-0.98542 17.09739,-1.62036 17.35708,-3.42356 0.24649,-1.71141 -6.17359,-7.78504 -18.42058,-17.42633 C 84.123293,246.43794 71.356717,231.69098 62.660257,213.4086 57.470637,202.49858 55.647917,196.54709 50.343696,173.19451 45.592806,152.27802 43.19344,143.83196 42.001569,143.83196 Z m -3.370852,26.38392 c 0.1589,0 1.391211,3.97344 2.73885,8.82996 5.20692,18.76442 12.320092,38.40053 17.110583,47.23587 4.19065,7.729 16.632975,21.57495 34.838184,38.76818 3.744799,3.53663 6.617123,6.42793 6.383073,6.42493 -0.77674,-0.01 -30.986904,-15.5086 -35.491375,-18.20819 -5.539578,-3.31995 -8.628753,-5.77928 -13.264821,-10.56163 -6.872261,-7.08912 -9.072404,-11.57029 -11.228771,-22.86682 -1.153682,-6.04381 -1.911581,-18.64589 -1.922881,-31.96239 -0.0067,-8.23507 0.440256,-17.65991 0.837158,-17.65991 z m -6.37377,0.21291 -0.227378,2.76572 c -0.12504,1.52131 -0.399045,4.58542 -0.609264,6.80889 -0.210222,2.22348 -0.616313,9.81477 -0.902272,16.86977 -0.401341,9.90111 -0.405791,13.84322 -0.01913,17.27957 0.877631,7.79943 3.798067,18.33625 6.543789,23.60992 3.07354,5.90333 13.827654,16.43365 21.333063,20.88917 2.366729,1.40499 11.771579,6.29511 20.8995,10.86652 16.80314,8.4153 17.302914,8.75739 11.489738,7.86619 -27.558973,-4.22498 -37.396533,-7.01276 -53.840633,-15.25592 -11.8454,-5.93794 -16.346149,-9.42055 -17.648018,-13.65601 -1.75261,-5.70211 -1.76025,-24.82456 -0.01447,-36.26084 1.7831,-11.68089 7.170244,-29.70557 11.661304,-39.01726 z"
           style="fill:#ffffff;stroke-width:0.42554417" />
        <path
           inkscape:connector-curvature="0"
           id="path4869-7"
           d="m 213.99882,143.76995 c -1.19187,0 -3.59175,8.44606 -8.34264,29.36255 -5.30422,23.35258 -7.12694,29.30407 -12.31656,40.21408 -8.69646,18.28238 -21.46304,33.02936 -43.85004,50.65324 -12.24699,9.64129 -18.66706,15.71492 -18.42058,17.42633 0.25969,1.8032 3.47842,2.43814 17.35708,3.42356 7.87973,0.5595 18.01637,0.69818 24.25588,0.33176 1.28727,-0.0756 5.49094,-0.4378 9.34155,-0.8046 7.24368,-0.69 12.27895,-1.95924 24.91476,-6.28023 15.94458,-5.45249 31.93916,-15.84764 37.01169,-24.05486 2.57194,-4.16136 4.05557,-13.65801 4.04989,-25.92452 -0.005,-11.07091 -0.95568,-18.02256 -4.25969,-31.15417 -2.59536,-10.31502 -6.11439,-19.94259 -10.43192,-28.53935 -2.26322,-4.50632 -8.36781,-13.75076 -11.79825,-17.86712 -2.50733,-3.00869 -6.68842,-6.78667 -7.51117,-6.78667 z m 3.37086,26.38392 c 0.39689,0 0.84333,9.42483 0.83664,17.65991 -0.0113,13.3165 -0.76869,25.91858 -1.92237,31.96238 -2.15637,11.29654 -4.35703,15.77719 -11.22928,22.86631 -4.63608,4.78235 -7.72473,7.2422 -13.26431,10.56214 -4.50447,2.6996 -34.71515,18.19836 -35.49189,18.2082 -0.23405,0.003 2.63827,-2.8883 6.38307,-6.42493 18.20521,-17.19323 30.64805,-31.03918 34.8387,-38.76818 4.79049,-8.83534 11.90315,-28.47146 17.11007,-47.23588 1.34764,-4.85652 2.58046,-8.82995 2.73937,-8.82995 z m 6.37325,0.21291 1.33429,2.76572 c 4.49105,9.31169 9.8782,27.33637 11.6613,39.01726 1.74578,11.43628 1.73814,30.55872 -0.0145,36.26083 -1.30187,4.23547 -5.80314,7.71808 -17.64854,13.65602 -16.4441,8.24316 -26.28166,11.03094 -53.84064,15.25591 -5.81318,0.89121 -5.3134,0.5486 11.48974,-7.8667 9.12792,-4.57141 18.53277,-9.46101 20.8995,-10.866 7.50541,-4.45552 18.25952,-14.98584 21.33306,-20.88917 2.74572,-5.27367 5.66616,-15.81101 6.54379,-23.61044 0.38667,-3.43635 0.38222,-7.37794 -0.0191,-17.27905 -0.28596,-7.055 -0.69153,-14.64629 -0.90175,-16.86977 -0.21022,-2.22347 -0.48474,-5.28758 -0.60979,-6.80889 z"
           style="fill:#ffffff;stroke-width:0.42554417" />
        <path
           inkscape:connector-curvature="0"
           id="path4869-7-9"
           d="m 127.47078,50.587527 c -4.98149,0.07559 -13.71739,3.511464 -24.00577,9.457821 -9.585192,5.539785 -15.13038,9.839361 -24.850682,19.266524 -7.635389,7.405159 -14.213346,15.266538 -19.499586,23.304008 -2.770976,4.21316 -7.724958,14.12174 -9.57461,19.15077 -1.351936,3.67575 -2.532692,9.18609 -2.121318,9.89862 0.595937,1.03219 9.110089,-1.11254 29.599745,-7.4564 22.876037,-7.0827 28.941421,-8.4801 40.984581,-9.44076 20.18123,-1.60984 39.33561,2.07255 65.79185,12.64832 14.4731,5.78556 22.94351,8.30903 24.30239,7.23987 1.43178,-1.1265 0.37207,-4.23118 -5.71386,-16.74317 -3.45532,-7.10379 -8.40353,-15.95198 -11.84062,-21.172346 -0.70911,-1.077011 -3.12467,-4.536578 -5.36763,-7.687903 -4.2194,-5.928212 -7.83607,-9.654165 -17.89607,-18.436601 -12.69428,-11.082169 -29.69423,-19.736319 -39.33817,-20.025653 -0.1528,-0.0046 -0.30956,-0.0055 -0.47025,-0.0031 z m 1.31878,8.850623 c 3.99393,0.03508 9.20222,2.531169 18.53841,8.68164 15.36083,10.119429 22.69349,17.245394 40.13191,38.99969 3.6784,4.58875 3.13258,4.32709 -12.55685,-6.01721 -8.52292,-5.619302 -17.46017,-11.319253 -19.86029,-12.666406 -7.6113,-4.272116 -22.10821,-8.319902 -28.75742,-8.030001 -5.93999,0.258972 -16.52513,2.997944 -23.71845,6.137609 -3.169301,1.38331 -6.581215,3.358195 -14.955158,8.65632 -5.966831,3.775149 -12.337828,7.922178 -14.15831,9.215978 -1.820471,1.29379 -4.336934,3.06363 -5.591905,3.93257 l -2.282032,1.57975 1.728576,-2.53834 c 5.81863,-8.545222 18.735136,-22.222844 27.959535,-29.6075 9.031224,-7.230031 25.594974,-16.784507 31.409454,-18.117758 0.67483,-0.154731 1.37291,-0.232839 2.11253,-0.226342 z m -1.37046,29.007533 c 3.0758,0.02561 6.20754,0.550746 10.09758,1.528588 6.45967,1.62378 10.13444,3.069415 15.7794,6.206855 4.59014,2.551192 33.11786,20.964514 33.51475,21.632274 0.11962,0.20119 -3.82085,-0.84084 -8.75606,-2.31562 -23.99238,-7.16956 -42.20443,-11.02171 -50.99327,-10.78642 -10.04687,0.26898 -30.608688,3.92709 -49.462614,8.79998 -4.87969,1.26117 -8.937054,2.18038 -9.016506,2.04277 -0.198448,-0.34373 7.740455,-5.44323 14.87558,-9.55498 11.538077,-6.648462 22.83021,-12.293131 28.64115,-14.31592 6.44887,-2.244845 10.8246,-3.274957 15.31999,-3.237527 z"
           style="fill:#ffffff;stroke-width:0.4255442" />
      </g>
    </g>
  </g>
</svg>
