<?xml version="1.0" encoding="UTF-8" standalone="no"?>
<!-- Created with Inkscape (http://www.inkscape.org/) -->

<svg
   xmlns:dc="http://purl.org/dc/elements/1.1/"
   xmlns:cc="http://creativecommons.org/ns#"
   xmlns:rdf="http://www.w3.org/1999/02/22-rdf-syntax-ns#"
   xmlns:svg="http://www.w3.org/2000/svg"
   xmlns="http://www.w3.org/2000/svg"
   xmlns:sodipodi="http://sodipodi.sourceforge.net/DTD/sodipodi-0.dtd"
   xmlns:inkscape="http://www.inkscape.org/namespaces/inkscape"
   width="256mm"
   height="256mm"
   viewBox="0 0 256 256"
   version="1.1"
   id="svg8"
   inkscape:version="0.92.5 (2060ec1f9f, 2020-04-08)"
   sodipodi:docname="polystralia_alt.svg">
  <defs
     id="defs2" />
  <sodipodi:namedview
     id="base"
     pagecolor="#ffffff"
     bordercolor="#666666"
     borderopacity="1.0"
     inkscape:pageopacity="0.0"
     inkscape:pageshadow="2"
     inkscape:zoom="0.98994949"
     inkscape:cx="723.22671"
     inkscape:cy="432.31605"
     inkscape:document-units="mm"
     inkscape:current-layer="g5073"
     showgrid="false"
     inkscape:window-width="3840"
     inkscape:window-height="2056"
     inkscape:window-x="0"
     inkscape:window-y="50"
     inkscape:window-maximized="1" />
  <metadata
     id="metadata5">
    <rdf:RDF>
      <cc:Work
         rdf:about="">
        <dc:format>image/svg+xml</dc:format>
        <dc:type
           rdf:resource="http://purl.org/dc/dcmitype/StillImage" />
        <dc:title></dc:title>
      </cc:Work>
    </rdf:RDF>
  </metadata>
  <g
     inkscape:label="Layer 1"
     inkscape:groupmode="layer"
     id="layer1"
     transform="translate(0,-41)">
    <rect
       style="fill:#000000;fill-opacity:1;stroke:none;stroke-width:0.32538173;stroke-opacity:1"
       id="rect816"
       width="256"
       height="256"
       x="-1.0658141e-14"
       y="41" />
    <g
       id="g4920">
      <path
         id="path4861"
         d="m 168.97212,276.78896 c 23.04691,-3.42725 34.17922,-6.68724 50.15115,-14.68632 11.78346,-5.9014 16.3002,-9.3992 17.60065,-13.63009 1.75266,-5.70211 1.76033,-24.8244 0.0145,-36.26068 -1.7831,-11.68089 -7.17022,-29.7055 -11.66128,-39.01719 l -1.33407,-2.76603 0.22732,2.76603 c 0.12497,1.52131 0.39933,4.58523 0.60956,6.8087 0.21021,2.22348 0.61619,9.81495 0.90214,16.86995 0.40133,9.90111 0.40566,13.84285 0.019,17.2792 -0.87763,7.79943 -3.79804,18.33635 -6.54374,23.61002 -3.07354,5.90333 -13.82778,16.43383 -21.33318,20.88935 -2.36675,1.40499 -11.77147,6.2948 -20.8994,10.86621 -9.12792,4.57143 -16.25503,8.32265 -15.83803,8.33606 0.41702,0.0129 4.05542,-0.46594 8.08535,-1.06521 z"
         style="fill:#000000;stroke-width:0.4255442" />
      <path
         id="path4859"
         d="m 169.38692,265.05893 c 22.21257,-11.10882 27.16447,-14.11682 33.86631,-20.57186 8.21947,-7.91676 10.75069,-12.70485 13.03068,-24.64899 1.15367,-6.04381 1.91166,-18.64563 1.92248,-31.96213 0.006,-8.23507 -0.43992,-17.66009 -0.83683,-17.66009 -0.1589,0 -1.39151,3.97353 -2.73916,8.83005 -5.20692,18.76442 -12.31973,38.4006 -17.11022,47.23594 -4.19065,7.729 -16.63312,21.57505 -34.83832,38.76828 -3.7448,3.53663 -6.66386,6.43362 -6.48681,6.43775 0.17705,0.005 6.1134,-2.8889 13.19187,-6.42895 z"
         style="fill:#000000;stroke-width:0.4255442" />
    </g>
    <g
       id="g4924">
      <path
         id="path4849"
         d="m 73.818369,117.26925 c 3.00125,-0.80069 7.85049,-2.12893 10.776109,-2.95164 19.030762,-5.35156 33.156312,-7.93334 43.405522,-7.93334 10.24921,0 24.37476,2.58178 43.40552,7.93334 9.46971,2.66296 16.29189,4.42808 16.46096,4.25901 0.28844,-0.28844 -19.11285,-12.62559 -29.12024,-18.51736 -16.63527,-9.79389 -30.73041,-11.96041 -46.07783,-7.0825 -7.37831,2.34507 -12.39949,4.99536 -28.073932,14.81796 -9.614949,6.02533 -16.596219,10.55316 -16.596219,10.76377 0,0.26098 0.0555,0.2487 5.82011,-1.28924 z"
         style="fill:#000000;stroke-width:0.4255442" />
      <path
         id="path4845"
         d="M 78.211319,103.1865 C 101.61396,88.01819 104.43563,86.57888 116.72308,83.54188 120.80066,82.53405 122.2543,82.38493 128,82.38493 c 5.7457,0 7.19933,0.14909 11.27692,1.15695 12.37298,3.05813 14.21141,3.99413 37.99491,19.34426 7.79043,5.02804 14.25797,9.04834 14.3723,8.934 0.50175,-0.50173 -13.34702,-16.51429 -19.97496,-23.09596 C 160.97412,78.10385 149.8007,69.80119 139.18302,64.5847 L 133.7489,61.91489 H 128 122.2511 l -5.43412,2.66981 c -10.62028,5.21778 -21.795011,13.52198 -32.483892,24.13948 -5.849779,5.81073 -18.182399,19.87475 -19.933999,22.73255 -0.6411,1.04601 0.40434,0.42004 13.81223,-8.27023 z"
         style="fill:#000000;stroke-width:0.4255442" />
    </g>
    <g
       id="g5081">
      <circle
         r="12.5"
         cy="206.10201"
         cx="94.600998"
         id="path4871"
         style="fill:#ffffff;fill-opacity:1;stroke:none;stroke-width:0.5000605;stroke-miterlimit:4;stroke-dasharray:none;stroke-opacity:1;paint-order:stroke fill markers" />
      <circle
         r="12.5"
         cy="206.10201"
         cx="161.399"
         id="path4871-2"
         style="fill:#ffffff;fill-opacity:1;stroke:none;stroke-width:0.5000605;stroke-miterlimit:4;stroke-dasharray:none;stroke-opacity:1;paint-order:stroke fill markers" />
      <circle
         r="12.5"
         cy="152.828"
         cx="128"
         id="path4871-8"
         style="fill:#ffffff;fill-opacity:1;stroke:none;stroke-width:0.5000605;stroke-miterlimit:4;stroke-dasharray:none;stroke-opacity:1;paint-order:stroke fill markers" />
    </g>
    <g
       id="g5073">
      <path
         id="path4869"
         transform="matrix(0.26458333,0,0,0.26458333,0,41)"
         d="M 158.74609 388.65625 C 155.63649 388.65625 139.83199 402.93521 130.35547 414.30664 C 117.39003 429.86454 94.317574 464.80418 85.763672 481.83594 C 69.445448 514.32759 56.145172 550.71527 46.335938 589.70117 C 33.848341 639.33245 30.255226 665.60836 30.236328 707.45117 C 30.21486 753.81278 35.822251 789.7037 45.542969 805.43164 C 64.714773 836.45109 125.16671 875.74177 185.42969 896.34961 C 233.18708 912.68091 252.21801 917.47611 279.5957 920.08398 C 294.14919 921.47032 310.03707 922.83927 314.90234 923.125 C 338.48477 924.50989 376.79645 923.98574 406.57812 921.87109 C 459.0329 918.14667 471.19818 915.74688 472.17969 908.93164 C 473.11123 902.46332 448.84643 879.50788 402.55859 843.06836 C 317.94633 776.45838 269.69468 720.72181 236.82617 651.62305 C 217.21186 610.38836 210.32284 587.89453 190.27539 499.63281 C 172.31927 420.57836 163.2508 388.65625 158.74609 388.65625 z "
         style="fill:#ffffff;stroke-width:1.608356" />
      <path
         id="path4869-7"
         transform="matrix(0.26458333,0,0,0.26458333,0,41)"
         d="M 808.81445 388.42188 C 804.30975 388.42188 795.23932 420.34399 777.2832 499.39844 C 757.23576 587.66016 750.34673 610.15399 730.73242 651.38867 C 697.86391 720.48743 649.61228 776.22401 565 842.83398 C 518.71216 879.27351 494.44733 902.22894 495.37891 908.69727 C 496.36041 915.51251 508.52569 917.9123 560.98047 921.63672 C 590.76213 923.75136 629.07381 924.27552 652.65625 922.89062 C 657.52152 922.60489 673.4094 921.23594 687.96289 919.84961 C 715.34058 917.24174 734.37151 912.44458 782.12891 896.11328 C 842.39189 875.50545 902.84382 836.21672 922.01562 805.19727 C 931.73634 789.46933 937.34373 753.57646 937.32227 707.21484 C 937.30337 665.37203 933.71025 639.09808 921.22266 589.4668 C 911.41342 550.48089 898.11315 514.09322 881.79492 481.60156 C 873.24102 464.5698 850.16857 429.63016 837.20312 414.07227 C 827.7266 402.70084 811.92406 388.42188 808.81445 388.42188 z "
         style="fill:#ffffff;stroke-width:1.608356" />
      <path
         id="path4869-7-9"
         transform="matrix(0.26458333,0,0,0.26458333,0,41)"
         d="M 481.7793 36.236328 C 462.95159 36.522023 429.93407 49.508005 391.04883 71.982422 C 354.82135 92.920192 333.86315 109.17057 297.125 144.80078 C 268.26684 172.78878 243.40527 202.50109 223.42578 232.87891 C 212.95279 248.8027 194.22909 286.25241 187.23828 305.25977 C 182.1286 319.15236 177.6659 339.97889 179.2207 342.67188 C 181.47306 346.57307 213.65253 338.46699 291.09375 314.49023 C 377.55436 287.72097 400.47868 282.43943 445.99609 278.80859 C 522.27165 272.72416 594.66615 286.64187 694.6582 326.61328 C 749.35968 348.47996 781.37384 358.01748 786.50977 353.97656 C 791.92118 349.71892 787.91604 337.98472 764.91406 290.69531 C 751.85459 263.84634 733.15265 230.40436 720.16211 210.67383 C 717.48201 206.60324 708.35237 193.52771 699.875 181.61719 C 683.9277 159.21135 670.25834 145.12901 632.23633 111.93555 C 584.25791 70.050191 520.00614 37.341593 483.55664 36.248047 C 482.9791 36.230721 482.38664 36.227112 481.7793 36.236328 z "
         style="fill:#ffffff;stroke-width:1.608356" />
    </g>
  </g>
</svg>
