<?xml version="1.0" encoding="UTF-8" standalone="no"?>
<svg
   viewBox="0 0 512 512"
   style="height: 512px; width: 512px;"
   version="1.1"
   id="svg2"
   sodipodi:docname="bing_buwuh5wgoybz.svg"
   inkscape:version="1.3 (0e150ed6c4, 2023-07-21)"
   xmlns:inkscape="http://www.inkscape.org/namespaces/inkscape"
   xmlns:sodipodi="http://sodipodi.sourceforge.net/DTD/sodipodi-0.dtd"
   xmlns="http://www.w3.org/2000/svg"
   xmlns:svg="http://www.w3.org/2000/svg">
  <defs
     id="defs2" />
  <sodipodi:namedview
     id="namedview2"
     pagecolor="#ffffff"
     bordercolor="#666666"
     borderopacity="1.0"
     inkscape:showpageshadow="2"
     inkscape:pageopacity="0.0"
     inkscape:pagecheckerboard="0"
     inkscape:deskcolor="#d1d1d1"
     inkscape:zoom="0.55657038"
     inkscape:cx="-270.40606"
     inkscape:cy="397.07467"
     inkscape:window-width="1920"
     inkscape:window-height="1011"
     inkscape:window-x="0"
     inkscape:window-y="32"
     inkscape:window-maximized="1"
     inkscape:current-layer="svg2" />
  <path
     d="M0 0h512v512H0z"
     fill="#000"
     fill-opacity="1"
     id="path1" />
  <path
     style="fill:#f9f9f9;stroke-width:3.5386"
     d="M 228.38047,445.59163 V 400.18327 H 144.58563 60.790798 V 295.95403 191.7248 l 2.106584,-1.91901 c 1.987258,-1.81036 37.605138,-26.28018 48.200958,-33.11456 l 4.89917,-3.15997 0.25025,-22.45441 0.25024,-22.45445 7.95817,-5.5711 c 4.37699,-3.064148 17.22709,-11.783582 28.55578,-19.376572 l 20.59761,-13.80543 0.23924,80.894032 0.23925,80.89403 H 312.64863 451.2092 l -0.0248,25.04481 -0.0247,25.04484 -28.06395,18.63629 -28.06394,18.63633 v 11.59235 11.5924 l 7.25598,-5.03848 c 7.07337,-4.91165 45.41689,-30.53006 47.749,-31.90244 0.92874,-0.54657 1.17032,7.59257 1.17032,39.43333 v 40.12205 l -32.53486,21.63936 c -17.89418,11.90167 -43.11163,28.75037 -56.03882,37.44156 l -23.50392,15.80219 -0.60121,-13.1408 c -0.33051,-7.22746 -0.60273,-45.68739 -0.60464,-85.46655 l -0.004,-72.3257 H 228.04274 118.16319 l -0.5904,4.91537 c -0.32471,2.70343 -0.59407,14.92155 -0.59855,27.15138 l -0.008,22.23607 h 83.32671 83.32669 V 417.03586 491 h -27.61949 -27.61953 z m 0,-346.414323 V 21.000002 H 256 283.6195 v 28.555775 28.555774 h 83.79482 83.79484 v 49.621539 49.62149 h -28.08765 -28.08765 v -22.47012 -22.47013 h -30.15225 -30.15225 l -19.2352,12.86166 c -10.57937,7.07391 -25.52524,17.18547 -33.21304,22.47012 l -13.97787,9.60847 h -19.96139 -19.96139 z"
     id="path1-2" />
</svg>
