<?xml version="1.0" encoding="UTF-8" standalone="no"?>
<!-- Created with Inkscape (http://www.inkscape.org/) -->

<svg
   xmlns:dc="http://purl.org/dc/elements/1.1/"
   xmlns:cc="http://creativecommons.org/ns#"
   xmlns:rdf="http://www.w3.org/1999/02/22-rdf-syntax-ns#"
   xmlns:svg="http://www.w3.org/2000/svg"
   xmlns="http://www.w3.org/2000/svg"
   xmlns:sodipodi="http://sodipodi.sourceforge.net/DTD/sodipodi-0.dtd"
   xmlns:inkscape="http://www.inkscape.org/namespaces/inkscape"
   width="256mm"
   height="256mm"
   viewBox="0 0 256.00001 256.00002"
   version="1.1"
   id="svg952"
   inkscape:version="0.92.5 (2060ec1f9f, 2020-04-08)"
   sodipodi:docname="alinor.svg">
  <defs
     id="defs946" />
  <sodipodi:namedview
     id="base"
     pagecolor="#ffffff"
     bordercolor="#666666"
     borderopacity="1.0"
     inkscape:pageopacity="0.0"
     inkscape:pageshadow="2"
     inkscape:zoom="1.7225"
     inkscape:cx="325.56174"
     inkscape:cy="488.74124"
     inkscape:document-units="mm"
     inkscape:current-layer="layer1"
     showgrid="false"
     units="mm"
     inkscape:window-width="3840"
     inkscape:window-height="2056"
     inkscape:window-x="0"
     inkscape:window-y="50"
     inkscape:window-maximized="1"
     showguides="true"
     inkscape:guide-bbox="true" />
  <metadata
     id="metadata949">
    <rdf:RDF>
      <cc:Work
         rdf:about="">
        <dc:format>image/svg+xml</dc:format>
        <dc:type
           rdf:resource="http://purl.org/dc/dcmitype/StillImage" />
        <dc:title />
      </cc:Work>
    </rdf:RDF>
  </metadata>
  <g
     inkscape:label="Layer 1"
     inkscape:groupmode="layer"
     id="layer1"
     transform="translate(0,-40.999976)">
    <rect
       style="fill:#1a1a1a;fill-opacity:1;stroke:none;stroke-width:0.83444387;stroke-opacity:1"
       id="rect816"
       width="256"
       height="256"
       x="0"
       y="40.999977" />
    <path
       style="fill:#ffffff;stroke-width:1;stroke:none;stroke-opacity:1;stroke-miterlimit:4;stroke-dasharray:none"
       d="m 120.30652,285.69303 -4.8687,-3.28896 1.27994,-4.25291 c 1.64296,-5.45913 0.85282,-5.45945 -1.56188,-6.1e-4 -2.0922,4.72977 -2.37226,4.87542 -5.3561,2.78546 l -2.09417,-1.46683 1.88391,-3.69276 c 2.78879,-5.46649 2.26695,-5.80517 -1.07388,-0.69697 -3.11076,4.75637 -4.05969,5.19799 -6.76309,3.14739 -1.5728,-1.19301 -1.36177,-1.68848 3.07226,-7.2134 2.61858,-3.26282 4.61321,-6.08024 4.4325,-6.26096 -0.18071,-0.18072 -1.86848,0.315 -3.75062,1.1013 -3.47728,1.45291 -15.785051,2.01656 -15.745472,0.72111 0.01179,-0.38979 2.320304,-3.46761 5.12977,-6.83961 2.809467,-3.372 4.967069,-6.27192 4.794674,-6.44435 -0.172395,-0.17251 -2.054205,0.57464 -4.181799,1.66005 -5.52275,2.81749 -11.415304,3.44911 -14.818323,1.58837 -3.73688,-2.0433 -7.372424,-5.28327 -9.262269,-8.25437 l -1.566,-2.46203 5.452631,-0.57272 c 2.998948,-0.315 6.94093,-1.12065 8.759961,-1.7903 3.198635,-1.17752 3.022279,-1.23338 -5.366338,-1.70002 -7.711563,-0.42901 -9.112099,-0.79583 -12.626327,-3.30733 -4.063427,-2.90399 -9.784596,-11.21623 -10.882994,-15.81181 l -0.619646,-2.59257 5.061905,2.28792 c 4.589418,2.07438 14.038939,4.20066 14.038939,3.15897 0,-0.23394 -2.445058,-1.66124 -5.433466,-3.1719 -2.988408,-1.51066 -8.23619,-5.51356 -11.661738,-8.89531 -6.965584,-6.87654 -9.041131,-11.37341 -10.034399,-21.74034 l -0.588486,-6.14218 5.329534,6.27925 c 6.011548,7.08279 10.587091,10.94337 16.553202,13.96665 5.457656,2.76564 6.896479,2.07195 2.373444,-1.1443 -8.1902,-5.82384 -18.324611,-17.05468 -21.879832,-24.24694 -3.080698,-6.23232 -3.479256,-7.85623 -3.479256,-14.17594 0,-3.92554 0.359375,-8.41302 0.798609,-9.97218 0.798508,-2.8345 0.799012,-2.83407 3.984436,3.455 1.752205,3.45947 4.281572,7.92434 5.620815,9.922 3.346562,4.99184 12.890398,14.58556 16.696615,16.78387 2.856288,1.64966 2.708005,1.3528 -1.652,-3.30733 C 52.005901,163.54891 45.889477,146.64862 51.738784,131.81095 l 1.439698,-3.65204 3.09098,8.6571 c 3.681505,10.31097 9.942752,20.66962 16.031758,26.523 l 4.42343,4.2523 -4.432838,-6.54532 C 62.594481,146.7274 56.636837,131.58292 56.705588,121.42541 c 0.03943,-5.82349 2.539553,-14.85559 4.271951,-15.43306 0.508741,-0.16964 1.451726,2.46838 2.095519,5.86214 2.316489,12.21145 7.699906,24.84545 13.482201,31.64056 2.673779,3.1421 2.623543,2.92967 -1.005583,-4.25226 -5.485477,-10.85566 -9.419438,-23.97266 -10.080917,-33.61284 -0.512006,-7.461829 -0.349539,-8.558589 2.064598,-13.938005 1.441183,-3.211393 2.894099,-5.838886 3.228699,-5.838886 0.334611,0 1.109884,4.145974 1.722844,9.213242 1.224203,10.120399 4.375148,20.423009 8.288366,27.100409 1.392172,2.37559 2.652775,4.31922 2.801338,4.31922 0.148573,0 -0.936543,-3.50814 -2.411345,-7.79583 -5.099195,-14.82499 -6.9172,-31.695171 -4.234885,-39.297647 1.383593,-3.921507 5.079498,-9.603569 6.246664,-9.603569 0.351826,0 0.870589,5.209057 1.15282,11.575662 0.374251,8.442378 1.151602,13.703895 2.871878,19.438424 2.622911,8.74342 4.018312,11.13662 3.129059,5.36652 -1.385051,-8.987159 -1.765412,-31.730341 -0.627403,-37.514726 1.690911,-8.594737 7.783199,-19.654786 10.826578,-19.654786 1.5117,0 4.7115,8.501414 6.57978,17.481584 2.58125,12.4071 3.36489,27.386439 3.41788,65.333358 l 0.053,37.92981 -4.2985,2.51906 c -5.26892,3.08782 -9.07036,8.60445 -9.628548,13.97297 -0.817841,7.86584 6.173458,16.52154 16.067608,19.89283 l 4.23602,1.44337 2.46091,-6.76154 c 1.36862,-3.7604 2.45888,-8.76274 2.45635,-11.27026 -0.004,-3.89708 -0.3269,-4.65566 -2.3805,-5.59135 -1.65083,-0.75219 -2.21442,-1.59152 -1.84666,-2.75021 0.43614,-1.37416 -0.2339,-1.78209 -3.80717,-2.31795 -2.53849,-0.38065 -4.19103,-1.08655 -3.98572,-1.70249 0.1929,-0.57872 3.6929,-2.0097 7.77775,-3.17999 6.14291,-1.75988 7.68229,-1.9167 8.90347,-0.90698 2.36728,1.95738 6.54112,3.47615 9.553,3.47615 2.11998,0 2.79039,0.43511 2.79039,1.81116 0,0.99612 -0.48621,1.9732 -1.08046,2.17131 -0.81019,0.27 -0.80955,0.86633 0.003,2.38374 0.74124,1.38501 0.77236,2.21563 0.0986,2.63203 -0.6236,0.38539 -0.10503,2.1817 1.41487,4.90112 2.52146,4.51137 3.0367,6.45011 1.45431,5.47213 -1.34234,-0.82961 -1.17095,0.93723 0.47247,4.87049 0.77959,1.8658 1.41743,3.81775 1.41743,4.33765 0,0.52765 -0.62619,0.42554 -1.41743,-0.23107 -1.16088,-0.96344 -1.41742,-0.89891 -1.41742,0.35679 0,1.96373 1.44627,1.90923 6.14218,-0.23144 16.04097,-7.31236 18.21715,-23.00371 4.4728,-32.25113 l -4.91944,-3.3099 0.0282,-37.79802 c 0.0297,-39.838075 0.8178,-53.514082 3.83484,-66.553403 1.97792,-8.548344 4.93332,-16.129784 6.28769,-16.129784 2.67336,0 7.92843,9.143922 10.14433,17.651301 1.73364,6.655894 1.80463,25.838107 0.1366,36.915976 -0.6453,4.28569 -0.86098,7.4749 -0.47928,7.08711 0.3817,-0.38779 1.82754,-4.53212 3.21297,-9.20964 1.88817,-6.374819 2.64498,-11.412334 3.02214,-20.115964 0.34293,-7.914337 0.83818,-11.501091 1.55539,-11.264981 0.57873,0.190359 2.43423,3.007747 4.12332,6.260497 2.60977,5.025698 3.07109,6.908504 3.07109,12.533994 0,7.757475 -2.88624,22.795604 -6.04572,31.499884 -1.22335,3.37028 -2.10502,6.12778 -1.95927,6.12778 0.14575,0 1.58125,-2.33231 3.19002,-5.18288 3.76083,-6.66382 7.54563,-19.75793 8.30394,-28.728779 l 0.59486,-7.037112 2.12973,2.670957 c 7.04873,8.839955 4.72415,28.738174 -5.82405,49.853474 -2.27174,4.54755 -3.918,8.2683 -3.65833,8.2683 0.25965,0 2.5848,-3.23628 5.16695,-7.19175 4.60228,-7.04997 9.59129,-20.10487 10.96414,-28.69028 0.3384,-2.11627 0.9718,-4.06812 1.40752,-4.33741 1.46464,-0.90518 3.84032,6.61336 4.34809,13.76083 0.4264,6.00218 0.12422,8.21299 -1.97379,14.44148 -3.04588,9.04242 -7.56753,18.13099 -13.30333,26.73987 l -4.3565,6.53868 5.94134,-6.23475 c 6.29166,-6.60232 11.41057,-15.62349 15.31796,-26.99515 l 2.21904,-6.45804 1.13128,2.83485 c 6.19073,15.51321 0.20211,32.61443 -18.33145,52.34747 -5.079,5.40774 -3.47897,5.24013 3.19339,-0.33429 6.0981,-5.09481 12.20943,-13.00429 16.67922,-21.58681 4.76704,-9.15324 5.52079,-8.59545 5.55446,4.11048 0.0197,7.42747 -0.25907,8.64509 -3.46099,15.1192 -3.56137,7.20083 -13.72616,18.47177 -21.87669,24.25737 -4.80119,3.40807 -2.96378,3.83733 3.15452,0.73697 4.90815,-2.48717 12.21682,-9.08074 17.78217,-16.04232 l 3.00497,-3.7589 -0.0146,3.7589 c -0.0229,5.83717 -2.32699,14.26016 -5.00973,18.31406 -3.11869,4.71262 -10.43424,11.03959 -17.3937,15.04317 l -5.45787,3.13974 4.72476,-0.6095 c 2.59861,-0.33536 7.00262,-1.63909 9.78666,-2.89746 l 5.06191,-2.28792 -0.61965,2.59256 c -1.09683,4.58902 -6.81717,12.90611 -10.86769,15.80107 -3.41833,2.4431 -5.02047,2.88507 -12.15385,3.35271 -7.0981,0.46533 -7.88657,0.68105 -5.79263,1.58463 1.33312,0.57529 4.84125,1.34798 7.79584,1.71712 3.07133,0.38376 5.37198,1.14223 5.37198,1.77106 0,1.72338 -6.28703,7.76108 -9.83447,9.44446 -4.34164,2.06024 -6.66127,1.89713 -13.31682,-0.93637 -9.58407,-4.08029 -9.77897,-3.78854 -2.45943,3.68154 l 6.99007,7.13387 -4.15522,1.12072 c -5.64011,1.52127 -11.7205,0.63669 -17.37324,-2.52742 l -4.71346,-2.63831 4.61658,5.87617 c 2.53912,3.23189 5.20244,6.36239 5.91849,6.95665 1.09594,0.90954 1.05072,1.35801 -0.28582,2.83489 -2.33622,2.58149 -3.59581,2.18163 -6.37987,-2.02538 -3.06304,-4.62859 -3.91629,-4.88574 -1.85272,-0.55837 3.43421,7.20162 -2.01683,8.82299 -5.84833,1.73956 -1.34845,-2.49296 -2.18039,-3.43822 -1.87124,-2.12617 1.91327,8.11991 1.95413,7.96998 -3.04571,11.17834 -2.56781,1.64777 -5.05675,2.98796 -5.53097,2.97817 -0.47422,-0.0107 -3.05313,-1.49776 -5.73092,-3.30668 z"
       id="path2016"
       inkscape:connector-curvature="0" />
  </g>
</svg>
