<?xml version="1.0" encoding="UTF-8" standalone="no"?>
<!-- Created with Inkscape (http://www.inkscape.org/) -->

<svg
   xmlns:dc="http://purl.org/dc/elements/1.1/"
   xmlns:cc="http://creativecommons.org/ns#"
   xmlns:rdf="http://www.w3.org/1999/02/22-rdf-syntax-ns#"
   xmlns:svg="http://www.w3.org/2000/svg"
   xmlns="http://www.w3.org/2000/svg"
   xmlns:sodipodi="http://sodipodi.sourceforge.net/DTD/sodipodi-0.dtd"
   xmlns:inkscape="http://www.inkscape.org/namespaces/inkscape"
   width="256mm"
   height="256mm"
   viewBox="0 0 256.00001 256.00002"
   version="1.1"
   id="svg952"
   inkscape:version="0.92.5 (2060ec1f9f, 2020-04-08)"
   sodipodi:docname="bruma.svg">
  <defs
     id="defs946" />
  <sodipodi:namedview
     id="base"
     pagecolor="#ffffff"
     bordercolor="#666666"
     borderopacity="1.0"
     inkscape:pageopacity="0.0"
     inkscape:pageshadow="2"
     inkscape:zoom="1.2179914"
     inkscape:cx="293.95085"
     inkscape:cy="425.54793"
     inkscape:document-units="mm"
     inkscape:current-layer="layer1"
     showgrid="false"
     units="mm"
     inkscape:window-width="3840"
     inkscape:window-height="2056"
     inkscape:window-x="0"
     inkscape:window-y="50"
     inkscape:window-maximized="1"
     showguides="true"
     inkscape:guide-bbox="true" />
  <metadata
     id="metadata949">
    <rdf:RDF>
      <cc:Work
         rdf:about="">
        <dc:format>image/svg+xml</dc:format>
        <dc:type
           rdf:resource="http://purl.org/dc/dcmitype/StillImage" />
        <dc:title></dc:title>
      </cc:Work>
    </rdf:RDF>
  </metadata>
  <g
     inkscape:label="Layer 1"
     inkscape:groupmode="layer"
     id="layer1"
     transform="translate(0,-40.999976)">
    <rect
       style="fill:#1a1a1a;fill-opacity:1;stroke:none;stroke-width:0.83444387;stroke-opacity:1"
       id="rect816"
       width="256"
       height="256"
       x="0"
       y="40.999977" />
    <path
       style="fill:#ffffff;stroke-width:0.52719796"
       d="m 121.95822,287.68173 c -0.66367,-0.89765 -1.96008,-2.08427 -2.88095,-2.63699 -0.92088,-0.55272 -2.15738,-1.90266 -2.74779,-2.99986 -0.92097,-1.71149 -1.31424,-1.98391 -2.76781,-1.91722 -1.25553,0.0576 -1.69274,-0.14725 -1.68827,-0.79081 0.006,-0.9891 2.40414,-8.96133 4.46227,-14.83926 2.22874,-6.36517 3.4326,-12.10486 3.42792,-16.34313 -0.008,-6.58007 -1.64902,-6.94712 -2.35803,-0.52721 -0.95143,8.61467 -7.92395,31.63187 -9.58216,31.63187 -0.3472,0 -2.33251,-1.27982 -4.4118,-2.84404 -2.07928,-1.56421 -5.356981,-3.49917 -7.283731,-4.29988 -1.92676,-0.80073 -3.68948,-1.61694 -3.91713,-1.81381 -0.22765,-0.19686 0.9432,-1.25903 2.60189,-2.36032 4.11724,-2.73371 7.790801,-6.25726 10.460611,-10.03345 3.8047,-5.38141 3.71609,-5.9557 -0.30047,-1.94757 -8.938011,8.91929 -18.307001,13.05553 -30.931841,13.65582 -3.68516,0.17535 -6.44945,0.10441 -6.43788,-0.16498 0.012,-0.25965 0.7822,-0.9594 1.71341,-1.55497 0.98643,-0.63091 1.63808,-1.45605 1.56129,-1.97698 -0.43476,-2.94933 -0.77352,-2.75276 4.42569,-2.56809 3.04943,0.1082 4.94979,-0.0371 5.17129,-0.3954 0.19268,-0.31166 0.0849,-0.56663 -0.23923,-0.56663 -0.32417,0 -0.4668,-0.19846 -0.3169,-0.44095 0.14984,-0.24252 1.12255,-0.4729 2.16149,-0.51195 3.52669,-0.1325 14.37743,-5.9986 12.52156,-6.76928 -1.16449,-0.48358 -0.70614,-1.11384 1.05439,-1.44993 3.16677,-0.60448 7.280371,-2.90887 10.307031,-5.7739 1.65261,-1.56433 3.79532,-3.24657 4.76162,-3.73832 0.96627,-0.49172 3.61043,-2.66496 5.87593,-4.82938 3.78051,-3.61187 4.18858,-3.86583 4.9649,-3.0895 0.46521,0.4652 0.84582,1.41696 0.84582,2.11506 0,0.69807 0.58675,3.01713 1.30388,5.15343 0.71714,2.13631 1.44386,5.28473 1.61492,6.99648 0.53955,5.39872 0.58034,5.48466 2.60294,5.48466 2.04319,0 2.07438,-0.0851 2.61444,-7.12775 0.15602,-2.03552 0.69056,-5.001 1.18769,-6.58997 0.49712,-1.58897 0.83779,-3.76036 0.75703,-4.82534 -0.11577,-1.52588 0.0917,-2.06389 0.97799,-2.5383 0.97227,-0.52034 1.27689,-0.40071 2.24575,0.88193 1.85872,2.46063 5.99942,6.34634 8.41193,7.89394 1.24901,0.80121 3.35678,2.44539 4.68391,3.65373 3.153,2.87078 6.41008,4.89991 9.40456,5.85896 1.32926,0.42571 2.76603,0.88516 3.19284,1.02097 0.66063,0.21024 0.66567,0.31516 0.0339,0.70561 -0.60437,0.37352 -0.6178,0.60848 -0.0723,1.26575 1.6758,2.01922 10.66041,6.08219 13.64054,6.16847 0.79077,0.0229 1.14122,0.16119 0.77877,0.30753 -1.88327,0.7599 -0.093,1.23243 4.66938,1.23243 4.5271,0 5.28027,0.11896 5.00838,0.79081 -0.17594,0.43494 -0.45695,1.12831 -0.62437,1.54083 -0.29996,0.7392 0.74972,2.03103 2.72303,3.3512 0.83643,0.55959 -0.20402,0.638 -6.10904,0.46032 -5.96961,-0.17952 -7.79603,-0.44322 -11.32738,-1.63507 -8.40697,-2.8374 -17.03216,-8.45385 -21.02816,-13.69289 -2.32902,-3.05349 -2.2228,-1.82488 0.16977,1.96347 2.38629,3.77843 8.41352,9.79078 12.2648,12.23453 2.41624,1.5332 3.10757,2.36758 1.96167,2.36758 -1.46088,0 -8.85192,3.94882 -11.95414,6.38675 -3.1746,2.49483 -3.52483,2.64802 -4.13779,1.80977 -2.16934,-2.96675 -8.19228,-23.96726 -8.928,-31.12964 -0.69927,-6.80762 -2.34347,-6.4378 -2.34394,0.52721 -3.4e-4,5.16882 0.79483,8.65514 4.44908,19.50632 1.56235,4.63934 3.00343,9.32942 3.20242,10.42238 l 0.36179,1.98722 -1.75325,-0.14207 c -1.54073,-0.12473 -1.88355,0.096 -2.82838,1.8217 -0.59131,1.08005 -2.07106,2.67395 -3.28832,3.54203 -1.21725,0.86808 -2.49142,2.09821 -2.83145,2.73357 -0.86447,1.61529 -1.32724,0.56033 -1.76423,-4.02174 -0.19348,-2.0297 -0.77239,-5.35106 -1.28631,-7.38076 -0.8896,-3.51362 -1.00814,-3.6904 -2.47444,-3.6904 -1.4484,0 -1.59557,0.20398 -2.47223,3.42681 -0.51271,1.88472 -1.08493,5.08744 -1.27165,7.11716 -0.5051,5.49084 -0.75088,5.92739 -2.21918,3.94142 z M 63.051349,257.94896 c -3.76374,-0.85811 -8.35703,-2.74527 -9.2237,-3.78951 -0.50063,-0.60324 -0.26596,-0.73302 1.32536,-0.73302 1.91086,0 3.49277,-1.10699 4.78537,-3.34868 0.49574,-0.85972 0.71594,-0.84773 3.69039,0.20093 6.0369,2.1284 16.68677,0.63175 17.4612,-2.45383 0.76443,-3.04573 -2.10602,-3.70349 -11.10041,-2.54364 -9.31762,1.20151 -13.74796,0.0853 -15.8583,-3.99572 -0.69419,-1.34239 -1.1349,-6.311 -0.55981,-6.311 0.12274,0 0.9535,0.73048 1.84629,1.62324 1.3224,1.3224 1.90425,1.56153 3.13943,1.29024 1.14005,-0.2504 2.02255,0.012 3.55748,1.05947 1.62011,1.10513 2.46244,1.33703 4.08215,1.12376 3.01805,-0.39737 3.47367,-1.18202 1.29078,-2.22296 l -1.83108,-0.8732 0.68263,-2.63159 c 0.77318,-2.98069 0.42069,-6.97013 -0.71628,-8.10713 -0.87737,-0.87734 -2.84633,-0.96254 -5.38944,-0.2332 -2.41878,0.69369 -2.62258,0.30659 -0.82591,-1.56873 3.1174,-3.25387 8.36482,-3.95796 12.18472,-1.63493 1.55838,0.9477 1.59622,1.06488 1.36705,4.23295 -0.37617,5.20076 0.70897,9.15874 3.19172,11.64151 1.91766,1.91764 3.34348,2.5753 7.37951,3.40383 1.38184,0.28366 1.44978,0.44171 1.44978,3.37223 0,2.26024 0.34621,3.72572 1.30704,5.53284 l 1.30704,2.4582 -1.3123,-0.32937 c -0.95842,-0.24055 -2.16563,0.17893 -4.47648,1.55551 -1.7403,1.03669 -4.25184,2.25416 -5.58122,2.70549 -3.48293,1.18249 -9.38228,1.44058 -13.17301,0.57631 z m 118.142571,0.008 c -2.7813,-0.68733 -5.08747,-1.76445 -8.23762,-3.84741 -1.387,-0.91712 -2.29571,-1.16726 -3.31293,-0.91196 l -1.40171,0.35181 1.33595,-2.51258 c 0.98987,-1.86168 1.33593,-3.30906 1.33593,-5.58719 0,-2.93052 0.0679,-3.08857 1.44981,-3.37223 6.74778,-1.38519 9.11526,-3.47223 10.14811,-8.94603 0.36587,-1.93904 0.53143,-4.82178 0.36792,-6.40604 -0.28755,-2.78608 -0.24371,-2.9131 1.33683,-3.87429 3.79147,-2.30571 8.80445,-1.7247 11.9095,1.38036 0.99855,0.99855 1.69991,1.93117 1.55858,2.07248 -0.14128,0.14128 -1.48655,-0.006 -2.98938,-0.32903 -2.2667,-0.48612 -2.94134,-0.44908 -3.9583,0.21725 -1.63059,1.06839 -2.18912,5.01216 -1.18322,8.35454 l 0.72485,2.40855 -1.77437,0.84616 c -2.06515,0.98478 -2.25476,1.66586 -0.58817,2.11249 2.34325,0.62797 4.27909,0.31 5.97145,-0.98084 1.29267,-0.98596 2.10998,-1.23544 3.28035,-1.00138 1.8571,0.37143 3.5968,-0.44384 4.05978,-1.90251 0.60669,-1.91153 1.31815,-1.10026 1.31815,1.50306 0,3.05125 -1.47525,5.556 -4.21936,7.16381 -2.09035,1.22479 -5.66028,1.36128 -15.5777,0.59562 -6.55126,-0.50577 -8.14443,-0.0992 -8.14443,2.0781 0,1.70399 1.55671,2.65626 6.06926,3.71261 4.06665,0.95199 7.10075,0.79055 11.55986,-0.61506 l 2.84619,-0.89719 1.81835,1.928 c 1.32645,1.40645 2.25662,1.92802 3.43838,1.92802 2.77715,0 2.32006,0.84799 -1.36245,2.5276 -5.81447,2.652 -12.22969,3.37482 -17.77961,2.00328 z m -93.236871,-6.77817 c -1.59068,-1.59068 -2.29824,-5.40555 -1.45254,-7.83153 0.32152,-0.92228 0.58458,-1.76009 0.58458,-1.86181 0,-0.10162 -0.71936,-0.18491 -1.59853,-0.18491 -2.94873,0 -7.89104,-2.79572 -7.89104,-4.46373 0,-0.32425 1.12688,-0.8879 2.50419,-1.25254 4.00991,-1.06164 10.69022,-4.55559 13.95814,-7.30046 3.68627,-3.09624 6.960731,-7.27115 9.514411,-12.1308 2.65616,-5.05471 5.63741,-6.22771 9.39936,-3.69829 2.71803,1.82751 3.14675,3.69827 2.80481,12.2391 -0.27039,6.75366 -0.20348,7.55688 0.78734,9.45359 0.59557,1.14007 0.9908,2.16488 0.87832,2.27738 -0.40669,0.40666 -4.29977,-1.9233 -5.97411,-3.57545 l -1.71339,-1.69067 v 2.16982 c 0,1.73933 0.36612,2.57508 1.84519,4.21225 2.11246,2.33823 2.25341,2.97704 0.82546,3.74125 -2.55191,1.36576 -5.93033,-0.13808 -8.27729,-3.68464 -1.22018,-1.84383 -1.5044,-2.03203 -1.92736,-1.27623 -0.91975,1.64348 -0.12135,5.95305 1.3962,7.53711 1.76525,1.84252 1.759,2.60236 -0.0251,3.05015 -1.99609,0.50099 -4.885381,-1.18962 -6.272781,-3.67037 -1.02605,-1.83465 -1.15491,-1.91276 -1.42862,-0.86603 -0.41071,1.57048 0.337,3.32355 1.96303,4.60259 1.84666,1.45258 1.70593,2.12076 -0.5352,2.54121 -2.35232,0.4413 -4.4615,-0.92982 -5.20184,-3.38157 -0.60731,-2.01125 -1.20359,-2.13706 -1.65245,-0.34864 -0.31048,1.23712 -0.0576,1.80355 2.13824,4.7896 0.64901,0.8826 0.32984,1.18073 -1.69826,1.58635 -1.30772,0.26155 -1.90557,0.0624 -2.9507,-0.98271 z m 75.575741,0.68624 c -0.56059,-0.36701 -0.63732,-0.73077 -0.2636,-1.24959 2.57273,-3.57149 2.54781,-3.50418 1.8473,-4.98712 l -0.67462,-1.42821 -0.42738,1.51871 c -0.92435,3.28474 -4.35448,5.05204 -6.80198,3.5046 -0.65284,-0.41276 -0.4978,-0.79217 0.92259,-2.25761 1.27863,-1.31922 1.69952,-2.2185 1.67628,-3.58159 -0.0279,-1.64446 -0.0917,-1.71958 -0.65898,-0.77835 -0.34541,0.57294 -1.3753,1.81845 -2.28867,2.76778 -1.27789,1.32818 -2.10197,1.72606 -3.57513,1.72606 -2.47874,0 -2.89634,-1.10157 -1.13693,-2.99903 1.5956,-1.72079 2.16182,-4.1171 1.62706,-6.88594 -0.34818,-1.80277 -0.43466,-1.88407 -0.98128,-0.9226 -0.32968,0.57992 -1.62521,2.07545 -2.87892,3.32339 -2.03979,2.0304 -2.50539,2.25217 -4.42749,2.10881 -3.2994,-0.2461 -3.68084,-1.43873 -1.30222,-4.07156 1.46154,-1.61776 1.94643,-2.61348 1.94643,-3.99705 v -1.84258 l -3.22119,2.37128 c -3.96274,2.91723 -5.12247,3.1192 -3.77773,0.65793 0.79075,-1.4473 0.93614,-3.07819 0.93614,-10.50101 0,-8.11334 0.0853,-8.90214 1.11103,-10.28001 1.63117,-2.19108 4.45047,-3.12818 7.05948,-2.3465 1.87084,0.56051 2.29147,1.04145 4.31881,4.93828 4.59261,8.82758 10.57089,14.18115 19.93335,17.8504 3.04457,1.19319 5.63537,2.26261 5.75734,2.37651 0.44047,0.41132 -2.36931,2.99131 -4.027,3.69765 -0.93306,0.39756 -2.53894,0.72284 -3.56864,0.72284 -1.7892,0 -1.85419,0.0644 -1.46672,1.44981 0.73017,2.61095 0.36639,6.43272 -0.75608,7.94296 -1.11977,1.50663 -3.51509,2.07927 -4.90125,1.17174 z m -36.68011,-8.72663 c -1.00909,-2.8878 -2.49702,-5.90796 -3.66513,-7.43944 -1.29449,-1.69716 -1.29784,-1.73215 -0.67343,-7.05412 0.85023,-7.24658 0.0962,-12.61447 -2.46643,-17.55923 l -1.86129,-3.59143 1.13311,-4.05294 c 1.66349,-5.95002 7.3692,-22.95201 7.89448,-23.52414 0.24845,-0.27063 0.57681,-0.36699 0.72966,-0.21416 0.27776,0.27778 4.45472,13.48383 7.01853,22.19008 l 1.35858,4.61353 -1.6755,3.36661 c -2.47311,4.96924 -2.93871,7.91751 -2.58042,16.33966 l 0.31129,7.31821 -1.40662,1.8442 c -0.77366,1.01431 -1.93412,3.41156 -2.57879,5.32722 -0.90845,2.69946 -1.25446,3.24748 -1.53804,2.43595 z m 45.32022,-16.35822 c -1.77202,-0.36978 -4.16058,-1.15126 -5.30796,-1.73659 -5.56976,-2.84147 -10.23522,-11.29741 -12.12843,-21.98217 -0.4864,-2.74513 -1.0746,-4.99113 -1.30714,-4.99113 -0.23253,0 -1.02387,1.18619 -1.75855,2.636 -0.73465,1.44979 -1.44355,2.63598 -1.5753,2.63598 -0.1317,0 -0.77797,-1.71998 -1.43603,-3.82219 -1.59903,-5.10805 -1.63898,-15.3217 -0.0789,-20.16532 l 1.01883,-3.16318 4.91943,-2.636 c 6.35639,-3.40596 11.36797,-7.93497 13.10492,-11.84304 1.68047,-3.78102 3.82901,-12.238 3.88478,-15.29109 0.0757,-4.15112 -3.32265,-15.4645 -5.23109,-17.4141 -0.68402,-0.69877 -0.7336,-0.63742 -0.42597,0.52722 1.41781,5.36761 2.51674,11.95641 2.55,15.28872 0.0508,5.08428 -1.42022,8.68475 -4.74297,11.60955 -2.29292,2.0183 -3.55291,2.34453 -2.94592,0.76273 0.2032,-0.52952 -0.0538,-0.77391 -0.81382,-0.77391 -1.23367,0 -1.44496,1.16119 -0.61062,3.35571 0.39337,1.03464 0.2726,1.60487 -0.56547,2.67031 -1.4459,1.83818 -2.5707,1.75538 -2.5707,-0.18929 0,-1.40862 -1.13829,-3.21255 -2.01465,-3.19278 -0.97052,0.0219 -1.54491,0.9913 -1.81562,3.06424 -0.49749,3.80949 -2.99438,5.45228 -5.22238,3.43597 -0.91698,-0.82987 -0.9641,-0.78015 -0.9641,1.01672 0,3.59089 3.24426,4.76766 4.68943,1.70097 0.89226,-1.89345 1.66468,-2.47847 2.43178,-1.84185 0.3577,0.29688 0.8032,0.0915 1.20834,-0.55735 0.72235,-1.15664 2.01464,-1.36327 2.34413,-0.37478 0.41995,1.25985 2.9521,-0.45943 3.45456,-2.34561 0.34613,-1.29922 0.71475,-1.6916 1.47021,-1.56493 2.96321,0.49678 3.90787,0.78455 3.90787,1.19043 0,1.4909 -7.04751,7.41274 -11.54069,9.69733 -2.33801,1.18878 -7.31795,1.43907 -8.91176,0.44791 -0.66535,-0.41378 -1.44614,-1.37409 -1.73506,-2.13403 -0.47999,-1.26245 -0.59765,-1.30943 -1.36281,-0.54425 -1.22054,1.22052 -0.52139,3.08946 1.68578,4.50639 2.7324,1.75413 2.91123,2.76314 1.46302,8.2542 -1.41252,5.35572 -2.07521,13.60463 -1.51399,18.84532 0.36865,3.44227 0.39501,3.48907 2.15093,3.8185 1.81339,0.34019 7.13508,4.64474 6.52045,5.27417 -0.18032,0.18471 -1.49968,-0.39279 -2.93201,-1.28317 -1.43231,-0.89037 -3.42877,-1.75267 -4.43659,-1.91622 -1.5745,-0.25551 -2.07077,-0.0536 -3.52617,1.4351 -1.61047,1.64721 -1.6938,1.67315 -1.6938,0.52751 0,-0.66273 0.37426,-1.83854 0.83172,-2.61292 0.79668,-1.34871 0.68783,-1.84037 -2.58591,-11.67969 -3.46404,-10.41124 -9.41468,-25.03328 -10.18765,-25.03328 -0.76596,0 -6.89474,15.10996 -10.19378,25.13189 -3.13445,9.52186 -3.21326,9.89527 -2.41424,11.44038 0.84608,1.63613 1.08845,3.23119 0.491,3.23119 -0.18411,0 -0.91161,-0.62223 -1.61642,-1.38275 -1.66161,-1.79291 -4.10321,-1.5323 -7.9774,0.8515 -1.52722,0.93971 -2.90328,1.58207 -3.0579,1.42745 -0.15463,-0.15462 0.63845,-1.20074 1.76239,-2.32468 1.82214,-1.82214 3.10148,-2.56317 6.03218,-3.49401 0.6911,-0.21952 0.94784,-1.30607 1.24495,-5.26901 0.45984,-6.13329 -0.012,-11.28946 -1.59771,-17.43732 -1.36021,-5.27552 -1.16521,-6.40082 1.36841,-7.89747 1.87164,-1.10561 2.76325,-2.65245 2.32493,-4.03348 -0.4072,-1.28301 -1.23693,-1.33852 -1.67193,-0.11198 -0.78728,2.21995 -1.82292,2.76778 -5.2322,2.76778 -1.82616,0 -3.98386,-0.2871 -4.79489,-0.63801 -3.977761,-1.72108 -12.282151,-8.40944 -12.282151,-9.89206 0,-0.29759 0.36762,-0.54108 0.81697,-0.54108 0.44934,0 1.49878,-0.35257 2.33211,-0.7835 1.48794,-0.76944 1.5213,-0.75538 1.85947,0.78437 0.3132,1.42592 2.43539,3.68953 3.45905,3.68953 0.22958,0 0.49998,-0.41517 0.60084,-0.92262 0.1582,-0.79626 0.38009,-0.72738 1.620241,0.50324 0.79028,0.78421 1.43686,1.19938 1.43686,0.9226 0,-1.30077 1.67321,-0.28163 2.636,1.60556 1.17574,2.30468 1.80028,2.52981 3.57308,1.28811 0.8313,-0.58228 1.1717,-1.35677 1.1717,-2.6659 0,-1.80148 -0.0277,-1.82575 -1.1717,-1.0245 -2.53165,1.77324 -4.67305,0.18033 -5.13405,-3.81884 -0.20944,-1.81677 -0.53367,-2.51333 -1.23214,-2.64695 -1.45772,-0.27888 -2.478861,0.90334 -2.478861,2.86986 0,2.12805 -0.63991,2.24306 -2.44377,0.4392 -0.87711,-0.87712 -1.22102,-1.65267 -0.99351,-2.24059 0.19128,-0.49454 0.47958,-1.55157 0.6405,-2.34895 0.2459,-1.21855 0.11378,-1.44979 -0.82771,-1.44979 -0.64435,0 -1.12029,0.33595 -1.12029,0.79079 0,1.15293 -0.58036,0.98353 -2.74597,-0.80155 -1.06249,-0.87581 -2.58604,-2.92956 -3.38566,-4.56393 -1.24628,-2.54731 -1.44564,-3.58073 -1.3963,-7.23821 0.0486,-3.6105 1.38853,-11.51076 2.59895,-15.32442 0.28793,-0.90715 0.21934,-0.96247 -0.4769,-0.38462 -1.04537,0.86758 -3.35311,7.09733 -4.57836,12.35932 -0.8833,3.79346 -0.89633,4.45616 -0.17116,8.71161 1.14351,6.71066 3.48048,12.76013 6.06258,15.69356 2.69912,3.06635 8.43532,7.12806 12.257631,8.67943 l 2.91418,1.18278 1.16042,3.75936 c 1.50036,4.86061 1.59194,14.13699 0.19069,19.31171 -1.32037,4.87591 -1.65016,5.33085 -2.47587,3.4153 -0.37225,-0.86355 -1.15039,-2.26562 -1.72921,-3.11566 l -1.05237,-1.54555 -1.13823,5.76314 c -1.883201,9.53511 -5.383371,16.82264 -9.735341,20.26947 -2.38934,1.89237 -7.28193,3.69093 -9.95692,3.66027 l -1.89445,-0.0217 2.36427,-1.16447 c 6.08516,-2.99707 10.32134,-14.88669 6.62206,-18.58596 -1.66437,-1.66436 -3.83598,-1.6646 -6.14057,-5.4e-4 -3.93553,2.84149 -6.14739,3.9224 -9.13716,4.46513 -3.80944,0.69154 -8.90579,0.74554 -8.5007,0.0901 0.16239,-0.26277 1.78902,-1.17678 3.61468,-2.03111 6.49116,-3.03758 9.35429,-6.76157 9.30276,-12.09986 -0.0285,-2.94871 -1.44129,-7.5935 -2.40181,-7.89609 -0.80099,-0.25234 -1.54616,0.52022 -3.5596,3.69048 -2.22902,3.50957 -4.14347,4.57987 -8.19221,4.57987 -2.90715,0 -5.76041,-0.86164 -5.01368,-1.51404 0.26467,-0.23126 1.64998,-0.85114 3.07842,-1.37754 5.06262,-1.86555 8.73758,-7.2363 8.73758,-12.76949 0,-1.43538 -0.26914,-1.86667 -1.44979,-2.32337 -1.66654,-0.64465 -7.19896,-0.23554 -11.33962,0.83853 -1.51045,0.3918 -2.9189,0.6057 -3.12987,0.47531 -0.8818,-0.54499 0.91891,-3.30476 4.09162,-6.27084 3.12165,-2.91833 3.39249,-3.34691 3.39249,-5.36826 0,-2.85882 -0.52798,-3.01299 -8.70431,-2.54139 -7.14602,0.41218 -8.60802,0.0404 -10.80583,-2.74724 l -1.15132,-1.46033 3.76026,-0.34307 c 4.29994,-0.39232 8.45646,-2.17909 10.82834,-4.65478 1.40005,-1.46137 1.46433,-1.68182 0.71011,-2.43603 -0.45608,-0.45609 -2.93534,-1.4179 -5.50943,-2.13737 -5.12693,-1.43299 -7.55957,-2.8033 -8.8477,-4.98393 -1.16441,-1.97122 -1.05948,-4.7946 0.23959,-6.44609 l 1.08042,-1.37355 2.16187,1.56605 c 1.75033,1.26792 2.69404,1.56605 4.95753,1.56605 1.53764,0 3.394,-0.27262 4.12525,-0.6058 1.31346,-0.59844 1.29616,-0.62124 -1.42497,-1.87844 -5.04164,-2.32932 -7.95601,-6.26172 -7.65974,-10.33539 0.13609,-1.87061 0.3205,-2.1794 1.21478,-2.03354 4.72827,0.77124 7.44227,0.63754 9.18154,-0.45233 l 1.80073,-1.12839 -2.06887,-0.92626 c -1.13787,-0.50946 -2.86313,-1.83088 -3.83391,-2.93654 -1.67438,-1.90703 -1.75417,-2.18101 -1.55337,-5.33452 0.11636,-1.82831 0.34046,-3.453 0.49788,-3.61043 0.15741,-0.15742 1.05296,-0.0179 1.99012,0.30779 1.67722,0.58467 6.09237,0.39634 6.77783,-0.2891 0.19288,-0.19288 0.0731,-0.75451 -0.26594,-1.24802 -4.48378,-6.52456 -5.68097,-10.46741 -5.63498,-18.55844 0.0341,-5.999456 0.18013,-6.968458 1.63069,-10.813639 0.87627,-2.323026 1.99521,-4.932661 2.48652,-5.799185 0.87937,-1.550988 0.88846,-1.505737 0.58328,2.90567 -0.17057,2.464656 -0.0564,6.238045 0.25353,8.385327 0.57752,4.00092 2.47474,11.036427 3.18903,11.825937 0.2196,0.24276 0.8461,-1.05494 1.3922,-2.883729 0.96522,-3.23231 0.96602,-3.404786 0.0287,-6.181158 -4.3934,-13.013704 2.17043,-29.741685 13.99057,-35.655057 2.04769,-1.024419 3.83526,-1.7504 3.97237,-1.613292 0.13709,0.137108 -1.32675,1.951547 -3.25302,4.032087 -7.15414,7.727141 -9.2209,16.199561 -6.30376,25.841455 l 0.85876,2.838402 0.92403,-4.744783 c 2.69563,-13.841572 10.95891,-24.553446 23.89606,-30.977011 2.791881,-1.386228 7.191911,-3.14488 7.185711,-2.872069 -10e-4,0.05964 -3.04013,3.19252 -6.752821,6.961986 -7.32033,7.432242 -10.57298,11.778075 -12.81648,17.123933 -1.42283,3.390379 -2.86837,9.9241 -2.464,11.13719 0.11437,0.34286 1.34773,-1.407683 2.74098,-3.890113 5.45732,-9.72353 13.41851,-17.645056 22.141501,-22.031186 2.29059,-1.151765 4.27591,-1.982905 4.41183,-1.846978 0.13589,0.135932 -1.17862,1.859932 -2.92124,3.831129 -12.235231,13.840273 -18.001871,27.811302 -19.354761,46.891414 -0.32608,4.599 -0.28689,4.86047 0.84779,5.65524 0.65434,0.45831 1.27763,0.74536 1.38513,0.63786 0.1074,-0.1074 0.41477,-1.74423 0.68285,-3.63722 0.76495,-5.40159 2.36258,-8.99342 5.51451,-12.397863 3.244421,-3.504374 6.514351,-5.440624 11.249951,-6.661504 4.4174,-1.138848 5.01389,-0.823565 2.16324,1.14341 -3.14864,2.172587 -8.02888,7.364579 -9.33789,9.934417 -1.85274,3.63724 -2.760111,7.64165 -2.760111,12.1809 0,4.15829 0.0654,4.4029 1.357651,5.07999 l 1.35763,0.71134 -2.059731,1.36307 c -1.88735,1.249 -2.1535,1.7314 -3.17983,5.76368 -1.65639,6.50778 -1.81685,8.11545 -1.13986,11.42011 1.42504,6.95613 4.516161,10.80125 12.202041,15.17842 2.09025,1.19044 3.85914,2.37663 3.93084,2.636 0.0717,0.25937 -0.86567,0.96189 -2.08306,1.56115 -2.44898,1.20552 -3.69921,3.43537 -2.56317,4.57143 0.51147,0.51145 0.71236,0.39797 0.95792,-0.54102 0.24562,-0.93925 0.46293,-1.06192 1.03713,-0.58535 0.39952,0.33156 0.7264,0.92966 0.7264,1.32909 0,1.10876 0.89526,0.86453 1.20748,-0.32939 0.16498,-0.6312 -0.0462,-1.23602 -0.52564,-1.50428 -1.57377,-0.88073 1.48601,-4.26121 3.24574,-3.58595 0.37511,0.14386 1.21121,1.35488 1.85799,2.69097 1.19263,2.46366 3.2081,3.98209 5.28559,3.98209 1.22321,0 3.8288,-1.22247 5.68126,-2.66552 1.17115,-0.91232 1.26458,-0.89146 3.87517,0.86532 4.62296,3.11103 8.21614,2.18066 10.2345,-2.64998 0.95047,-2.27477 1.42831,-2.56116 3.04453,-1.82475 1.70525,0.77696 2.79512,3.02009 1.67602,3.44952 -1.05719,0.40571 -0.99526,1.48294 0.1351,2.34809 0.50742,0.38839 0.75301,0.50486 0.54574,0.25884 -0.45363,-0.53847 0.46837,-2.4175 1.18619,-2.4175 0.27976,0 0.50866,0.37562 0.50866,0.83473 0,1.10461 1.26757,0.65595 1.49751,-0.53006 0.22255,-1.1479 -1.62208,-3.17317 -3.65838,-4.01662 -0.84124,-0.34846 -1.52953,-0.82058 -1.52953,-1.04915 0,-0.22856 1.73096,-1.36558 3.84654,-2.52668 5.23003,-2.8704 8.95795,-6.33819 10.75344,-10.00307 1.32693,-2.70844 1.47318,-3.55468 1.47621,-8.54186 0.004,-7.52888 -1.45622,-12.34532 -4.29763,-14.16977 l -1.95207,-1.2534 1.41314,-0.74041 c 1.3349,-0.69943 1.41312,-0.95224 1.41312,-4.56681 0,-9.24559 -3.51545,-15.744243 -12.38913,-22.902413 l -2.10881,-1.701108 1.5816,0.295357 c 11.87643,2.217878 18.85463,9.443835 19.74223,20.443164 l 0.2913,3.60968 1.46708,-1.15736 c 1.43558,-1.13251 1.4603,-1.24394 1.15154,-5.19128 -1.4844,-18.977588 -6.61016,-32.377231 -17.15558,-44.847765 -1.57332,-1.860532 -3.53109,-4.174625 -4.35061,-5.142429 l -1.49002,-1.759643 1.32529,0.503877 c 10.51563,3.998038 20.89205,13.817073 26.63211,25.201521 0.91373,1.812232 1.80387,3.294995 1.97808,3.294995 0.50282,0 -0.30905,-5.804325 -1.21672,-8.698776 -2.18777,-6.976468 -7.72392,-14.778635 -16.04351,-22.610365 -2.65275,-2.497181 -4.49595,-4.537432 -4.09601,-4.533891 1.57311,0.01395 8.92805,3.641099 12.77319,6.299231 9.36094,6.471216 15.36859,15.706015 17.67623,27.1714 l 0.95499,4.744783 0.84794,-2.77996 c 2.93208,-9.613002 0.57224,-18.768262 -6.75418,-26.203686 -3.71027,-3.765467 -3.42067,-4.239672 1.2148,-1.989234 11.52199,5.593708 18.2673,22.798504 13.951,35.583841 -0.93077,2.757045 -0.93019,2.945441 0.0199,6.168724 0.5385,1.828647 1.176,3.116797 1.41661,2.862547 0.24062,-0.25425 0.98233,-2.360202 1.64826,-4.67986 0.90359,-3.147507 1.28606,-6.157128 1.50749,-11.861965 l 0.29671,-7.644374 1.45595,3.125648 c 2.63017,5.646594 3.25709,8.540647 3.26297,15.062693 0.006,6.990498 -0.722,9.769658 -4.05771,15.483538 -2.55725,4.38046 -2.30531,4.73267 3.09576,4.3277 4.28877,-0.32154 4.40153,-0.22518 4.40153,3.76175 0,3.22715 -1.46226,5.43062 -4.81462,7.25523 -2.54201,1.38351 -2.6634,1.5375 -1.74294,2.21057 1.91625,1.40116 4.62332,1.78814 7.42508,1.06137 1.4513,-0.37645 2.91738,-0.59159 3.25799,-0.47805 0.88362,0.29454 0.76566,4.13189 -0.18889,6.14338 -1.21511,2.56063 -4.48912,5.48491 -7.36177,6.57534 -2.26622,0.86025 -2.44147,1.03382 -1.53397,1.51949 3.18614,1.70517 7.29053,1.19009 10.23073,-1.28393 l 1.55446,-1.30799 1.06616,1.74871 c 2.95247,4.84265 -0.27129,9.15902 -8.39609,11.2417 -3.61919,0.92773 -6.34975,2.13297 -6.34975,2.80269 0,0.85178 4.04519,4.29879 6.06278,5.16623 1.15983,0.49866 3.87511,1.04402 6.03393,1.21193 l 3.92514,0.30528 -1.73345,1.97049 c -2.34079,2.66086 -4.74496,3.33913 -9.12948,2.5756 -4.2441,-0.73908 -7.5573,-0.75638 -8.88397,-0.0464 -0.75141,0.40216 -1.01973,1.10957 -1.01973,2.6887 0,2.23977 0.28984,2.61517 5.484,7.10321 1.32033,1.14084 1.89678,2.07946 1.89678,3.08855 0,1.24338 -0.17017,1.40695 -1.19536,1.14963 -4.39545,-1.1032 -7.01552,-1.42646 -10.44705,-1.28895 l -3.90994,0.15662 0.048,3.16318 c 0.0839,5.53521 3.00432,9.45898 8.84037,11.87789 1.63547,0.67787 2.97358,1.40906 2.97358,1.62485 0,0.21582 -1.29108,0.68132 -2.86907,1.03446 -5.20741,1.16537 -8.02334,-0.25774 -11.55261,-5.83844 -0.64178,-1.01485 -1.65285,-1.9158 -2.24679,-2.0021 -2.29433,-0.33338 -3.74719,8.62527 -1.99692,12.31367 1.23325,2.59888 5.03954,5.86271 9.06769,7.77539 l 3.53494,1.67847 -3.61628,0.15941 c -5.55915,0.24512 -8.7699,-0.6386 -12.58501,-3.46385 -3.98558,-2.95148 -6.67603,-3.32532 -8.42118,-1.17015 -0.87579,1.08156 -1.01851,1.90887 -0.8619,4.9964 0.31417,6.19399 4.20028,12.56423 8.39936,13.76851 2.91706,0.83659 1.01917,1.1835 -2.47998,0.45329 z m -39.76335,-66.63352 c 1.56151,-2.91766 0.13091,-4.41808 -4.15471,-4.35731 -3.46275,0.049 -6.21051,1.01453 -8.59281,3.01913 -2.4594,2.06943 -2.33406,1.17712 0.28659,-2.04032 2.23673,-2.74611 3.3695,-4.88747 2.85669,-5.40028 -0.12633,-0.12613 -1.24529,0.12892 -2.48681,0.56693 -5.11384,1.80428 -10.7588,0.70618 -14.64569,-2.84896 -2.50514,-2.29133 -2.09727,-2.81121 1.05438,-1.34389 4.46174,2.07723 10.93937,1.60539 10.93937,-0.79686 0,-0.86846 0.34396,-1.06743 1.84519,-1.06743 1.99692,0 2.45906,-0.94304 1.03948,-2.12116 -0.65842,-0.54646 -1.51743,-0.46188 -4.69927,0.46263 -4.43508,1.28867 -5.93508,1.37903 -8.77378,0.52853 -2.58367,-0.77407 -4.6637,-2.95991 -5.23744,-5.50383 -0.63931,-2.83458 -0.19927,-3.10999 2.08205,-1.30316 2.59248,2.0533 4.28486,2.66501 7.37304,2.66501 4.83068,0 9.50708,-2.59586 12.31169,-6.83422 l 1.67674,-2.53387 2.91292,0.26228 c 2.46073,0.22157 3.06272,0.096 3.8779,-0.80807 1.44584,-1.60373 0.94003,-3.37149 -1.27464,-4.45474 -3.17839,-1.55462 -6.28031,0.14247 -6.28031,3.43585 0,1.0881 -0.37723,1.34918 -2.73616,1.89369 -1.5049,0.34738 -3.46213,1.1833 -4.3494,1.8576 -3.80571,2.8923 -6.72108,3.61657 -9.48624,2.35668 -1.60915,-0.73318 -2.14194,-2.13608 -1.36358,-3.59045 0.72911,-1.36238 1.42739,-1.36987 1.85585,-0.0199 0.50286,1.58434 2.28725,1.29873 5.53016,-0.88518 1.58405,-1.06675 3.95328,-2.32992 5.26494,-2.80701 2.09765,-0.76302 2.37212,-1.04291 2.27927,-2.32421 -0.28067,-3.87277 -1.97975,-3.86775 -15.18316,0.0448 l -1.0544,0.31246 1.0544,-1.18699 c 1.85256,-2.08555 7.29422,-5.66134 10.01675,-6.58216 2.25417,-0.76239 3.89602,-0.83865 11.33476,-0.52638 9.06084,0.38038 12.46184,-0.0289 14.36615,-1.72852 0.50743,-0.45291 0.9226,-1.26862 0.9226,-1.81269 0,-1.40956 1.43952,-1.77531 2.65562,-0.67478 1.38662,1.25489 1.30349,2.86588 -0.26734,5.18065 l -1.30212,1.91876 1.96112,-0.002 c 1.07859,-0.001 2.74638,-0.48075 3.70618,-1.06592 2.05391,-1.25209 2.7361,-0.9958 2.7361,1.02806 0,2.71333 -3.51374,5.83915 -6.56379,5.83915 -3.28187,0 0.16638,1.86231 5.3776,2.90436 0.94236,0.18849 1.71338,0.53524 1.71338,0.77068 0,0.77483 -4.19286,2.12415 -6.60065,2.12415 -1.29893,0 -2.36172,0.20497 -2.36172,0.4555 0,0.88697 3.99056,3.18845 6.58999,3.80065 1.44979,0.34144 3.11046,0.80254 3.69038,1.02463 2.07112,0.79322 -1.78934,1.79257 -7.012,1.81516 -4.85941,0.0211 -4.89243,0.0299 -3.69542,0.99917 1.75712,1.42277 5.63436,3.30322 8.27913,4.01539 1.58231,0.42606 2.12899,0.78883 1.75393,1.16389 -0.67164,0.67163 -5.90651,0.83944 -8.98812,0.28814 -2.0182,-0.36107 -2.26096,-0.30034 -2.10185,0.52576 0.11497,0.59667 1.54862,1.49099 3.96989,2.47633 2.08452,0.84831 3.65029,1.76848 3.47951,2.04483 -0.17375,0.28095 -1.79205,0.38352 -3.67129,0.23267 -1.84842,-0.14845 -3.49062,-0.0596 -3.64935,0.19726 -0.15881,0.25684 -1.43542,0.46698 -2.83709,0.46698 -2.87141,0 -3.57883,0.78967 -2.31888,2.58849 1.70354,2.43214 -0.84586,6.37388 -4.12242,6.37388 -1.34837,0 -1.46455,-0.12055 -0.98331,-1.01975 z"
       id="path1115"
       inkscape:connector-curvature="0" />
  </g>
</svg>
