<?xml version="1.0" encoding="UTF-8" standalone="no"?>
<!-- Created with Inkscape (http://www.inkscape.org/) -->

<svg
   xmlns:dc="http://purl.org/dc/elements/1.1/"
   xmlns:cc="http://creativecommons.org/ns#"
   xmlns:rdf="http://www.w3.org/1999/02/22-rdf-syntax-ns#"
   xmlns:svg="http://www.w3.org/2000/svg"
   xmlns="http://www.w3.org/2000/svg"
   xmlns:sodipodi="http://sodipodi.sourceforge.net/DTD/sodipodi-0.dtd"
   xmlns:inkscape="http://www.inkscape.org/namespaces/inkscape"
   width="256mm"
   height="256mm"
   viewBox="0 0 256.00001 256.00002"
   version="1.1"
   id="svg952"
   inkscape:version="0.92.5 (2060ec1f9f, 2020-04-08)"
   sodipodi:docname="camlorn.svg">
  <defs
     id="defs946" />
  <sodipodi:namedview
     id="base"
     pagecolor="#ffffff"
     bordercolor="#666666"
     borderopacity="1.0"
     inkscape:pageopacity="0.0"
     inkscape:pageshadow="2"
     inkscape:zoom="1.7225"
     inkscape:cx="363.13118"
     inkscape:cy="576.87425"
     inkscape:document-units="mm"
     inkscape:current-layer="layer1"
     showgrid="false"
     units="mm"
     inkscape:window-width="3840"
     inkscape:window-height="2056"
     inkscape:window-x="0"
     inkscape:window-y="50"
     inkscape:window-maximized="1"
     showguides="true"
     inkscape:guide-bbox="true" />
  <metadata
     id="metadata949">
    <rdf:RDF>
      <cc:Work
         rdf:about="">
        <dc:format>image/svg+xml</dc:format>
        <dc:type
           rdf:resource="http://purl.org/dc/dcmitype/StillImage" />
        <dc:title></dc:title>
      </cc:Work>
    </rdf:RDF>
  </metadata>
  <g
     inkscape:label="Layer 1"
     inkscape:groupmode="layer"
     id="layer1"
     transform="translate(0,-40.999976)">
    <rect
       style="fill:#1a1a1a;fill-opacity:1;stroke:none;stroke-width:0.83444387;stroke-opacity:1"
       id="rect816"
       width="256"
       height="256"
       x="0"
       y="40.999977" />
    <path
       style="fill:#ffffff;stroke-width:1.2277931"
       d="m 99.054424,287.80351 c -0.78735,-0.78734 -1.43149,-2.36158 -1.43149,-3.49831 0,-1.13678 -1.10504,-2.35583 -2.45561,-2.70902 -1.74681,-0.45662 -2.4556,-1.6747 -2.4556,-4.21945 0,-2.3284 -1.53363,-5.36908 -4.39295,-8.70948 -3.11321,-3.63711 -3.82854,-5.13218 -2.45556,-5.13218 2.77626,0 2.42688,-1.60083 -1.79971,-8.24497 -3.65313,-5.74269 -3.67791,-5.88385 -1.10411,-6.28321 2.17077,-0.3369 2.49922,-0.98346 1.87099,-3.68338 -2.77621,-11.93058 -2.81236,-11.80449 4.60679,-16.04932 7.6515,-4.37774 8.71347,-6.27416 6.95218,-12.41532 -0.67213,-2.34354 -1.22203,-6.06511 -1.22203,-8.27008 0,-2.48934 -1.37056,-5.90111 -3.61562,-9.0003 -6.28516,-8.67644 -7.09098,-15.896 -3.94334,-35.32944 3.05496,-18.86095 3.2345,-24.62985 0.96434,-30.98081 -8.32103,-23.27854 -44.88999,-27.96134 -58.41731,-7.48059 -3.45934,5.23752 -4.86564,16.70804 -2.57347,20.99097 2.42562,4.53226 8.60692,7.46319 15.75057,7.46825 8.11517,0.005 13.55456,-2.21917 17.82092,-7.2894 1.82547,-2.16952 3.3191,-3.31335 3.3191,-2.54183 0,2.64656 -2.74586,6.77297 -8.38339,12.59835 -6.23829,6.44622 -4.55087,8.29197 2.30594,2.52237 l 3.93332,-3.30968 -1.97309,3.81554 c -1.08522,2.09852 -3.77967,5.23929 -5.98774,6.97942 -3.97467,3.13237 -3.98409,3.16444 -0.94518,3.21655 3.01093,0.0515 3.02262,0.0891 0.61389,1.95271 -1.71289,1.32541 -4.23411,1.73805 -8.33597,1.36435 -7.34128,-0.66879 -13.77001,-5.50978 -18.06157,-13.60064 -2.51667,-4.74466 -3.54584,-5.66992 -5.71438,-5.13729 -2.4582,0.60382 -2.60285,0.28168 -2.04914,-4.56233 1.22671,-10.73241 2.84948,-18.34056 4.77927,-22.40729 2.77157,-5.84065 11.82111,-13.83995 19.06063,-16.84856 5.5804,-2.31912 5.92983,-2.70048 4.21281,-4.59778 -2.49551,-2.75747 -2.37064,-4.17523 0.27657,-3.13794 1.18174,0.46312 6.94253,1.87364 12.80173,3.1345 23.2604,5.00555 33.52328,14.49412 36.70424,33.93485 1.18415,7.23705 1.02178,10.2065 -1.1785,21.55033 -1.57252,8.10738 -2.29017,15.38212 -1.86988,18.95542 0.68725,5.84362 3.14374,11.91146 5.382256,13.29497 2.00501,1.23915 20.67899,-15.11538 24.30817,-21.28893 3.13404,-5.33117 3.35158,-6.63305 3.35158,-20.05568 v -14.35444 l 4.21333,-4.35101 c 5.3281,-5.50216 4.21782,-7.01413 -1.47818,-2.01299 -5.32741,4.67751 -6.87042,10.36423 -6.09416,22.45991 0.3253,5.06666 0.091,9.5212 -0.52024,9.89903 -2.39894,1.48258 -6.61022,-7.29966 -7.29191,-15.20666 -0.5743,-6.66113 -0.2413,-8.7061 2.17713,-13.37804 1.57029,-3.03325 5.16165,-7.17706 7.98079,-9.20847 6.83259,-4.92336 7.84324,-7.4786 1.72305,-4.3563 -7.61591,3.88534 -13.05408,11.21873 -14.86484,20.0452 -1.3231,6.44943 -1.70723,7.15446 -2.48414,4.55959 -0.50549,-1.6882 -0.97209,-6.66075 -1.03687,-11.05014 -0.15871,-10.75435 2.09216,-14.31926 14.50423,-22.97143 0.28121,-0.19629 0.25105,-0.617 -0.0668,-0.93519 -0.31834,-0.31834 -2.88309,0.56159 -5.69967,1.95512 -5.53474,2.73839 -9.49525,8.102 -11.96988,16.21054 l -1.56468,5.12708 -2.08863,-4.86726 c -1.34342,-3.13065 -1.85837,-6.58414 -1.44324,-9.67925 0.88002,-6.56089 8.95019,-14.75375 17.33901,-17.60259 4.03764,-1.37121 5.41187,-2.27791 3.92803,-2.5918 -3.82199,-0.808415 -13.23302,3.53633 -18.82512,8.69097 l -5.290146,4.87626 0.002,-4.76057 c 0.003,-6.32126 3.342766,-12.669809 8.467296,-16.093229 3.20652,-2.142091 6.04761,-2.818116 12.27791,-2.921506 l 8.10599,-0.134574 -5.52509,-1.148054 c -7.7651,-1.61354 -14.13638,-0.5576 -18.99483,3.148101 -5.347676,4.078933 -5.709826,4.007331 -4.099296,-0.810182 2.898526,-8.670222 10.011126,-13.173389 20.906046,-13.236082 5.30369,-0.03248 6.0632,-0.282605 4.16831,-1.383048 -3.07594,-1.786491 -15.26188,-0.621267 -20.19801,1.931321 -5.059786,2.616487 -4.906696,1.127636 0.53802,-5.233299 6.10668,-7.134318 10.51806,-9.215572 17.35868,-8.189748 3.51595,0.527251 5.22388,0.386088 4.74303,-0.39212 -1.23367,-1.996102 -9.78918,-2.888559 -13.68546,-1.427597 l -3.6283,1.360495 2.57718,-2.610408 c 3.59336,-3.639666 10.79083,-5.026241 18.03054,-3.47363 3.27761,0.70294 6.27401,0.963317 6.65871,0.578575 1.44811,-1.448061 -6.66906,-3.511821 -13.74292,-3.494002 l -7.34893,0.01856 4.27949,-2.278196 c 5.51929,-2.938258 8.34623,-2.92545 16.23727,0.07378 7.4539,2.833104 7.07297,2.75468 7.07297,1.45581 0,-0.550175 -2.00218,-1.955126 -4.44929,-3.122067 -2.44711,-1.166941 -4.19421,-2.376806 -3.88246,-2.688554 1.17214,-1.172138 9.14582,2.381911 14.47073,6.449847 4.09452,3.128054 6.35309,4.056335 8.72307,3.585234 1.92984,-0.383768 4.36424,0.185619 6.13894,1.436042 1.61753,1.139469 4.56558,2.905218 6.55124,3.923942 3.90928,2.005615 6.21695,5.892989 2.69622,4.541961 -1.10504,-0.42414 -2.00919,-0.218567 -2.00919,0.456623 0,0.675282 0.82874,1.545789 1.84166,1.934522 2.51616,0.965498 2.32716,6.939186 -0.32297,10.212068 l -2.16474,2.67338 -2.96044,-3.151256 c -3.46101,-3.684029 -6.29801,-4.000092 -8.99933,-1.002622 -3.44699,3.824961 -3.85624,8.400704 -1.00624,11.2507 3.24332,3.243323 5.62547,3.248196 7.88923,0.01856 2.14233,-3.058586 3.19804,-1.866818 5.20653,5.877119 l 1.3417,5.173064 -5.01691,0.61319 c -6.54833,0.80039 -9.87416,0.3318 -12.37477,-1.74352 -1.73512,-1.44003 -2.2033,-1.4294 -3.15311,0.0715 -1.69795,2.68336 -1.36751,6.80916 0.68159,8.50976 1.78,1.47725 5.10805,1.274 9.5225,-0.5815 1.65224,-0.69449 2.14863,-0.30534 2.14863,1.6838 0,2.84976 1.23906,3.31232 3.31423,1.23715 0.74707,-0.74707 2.5414,-0.97153 4.01856,-0.5027 2.45045,0.77774 2.51083,1.02174 0.73751,2.98118 -2.41931,2.67329 -2.46887,6.28585 -0.12854,9.3798 2.95733,3.90997 2.26469,5.45279 -2.44804,5.45279 h -4.32882 l 1.88635,3.64779 c 2.29235,4.43295 6.43217,8.49351 10.13439,9.94041 1.51205,0.59092 7.63582,1.86102 13.60844,2.82243 5.97252,0.96137 13.13914,2.91112 15.9257,4.33273 3.5682,1.82036 7.36031,2.58474 12.82289,2.58474 8.63681,0 12.1316,1.71234 15.06262,7.38031 2.64684,5.1184 2.45073,7.76932 -0.4594,6.21179 -3.143,-1.68208 -3.72543,-0.70373 -2.58675,4.34511 0.95469,4.23291 0.91167,4.29537 -2.44994,3.55707 -3.14768,-0.69139 -3.48722,-0.40187 -4.24047,3.61312 l -0.81881,4.36465 -3.5405,-1.83085 c -2.10121,-1.08657 -5.00118,-1.53874 -7.13348,-1.11228 -2.86062,0.57212 -4.47555,-0.0562 -7.92259,-3.08281 -4.89863,-4.30107 -6.124,-4.58484 -8.32836,-1.92877 -1.39294,1.67837 -1.76891,1.67837 -3.62347,0 -2.73984,-2.4795 -3.53317,-2.37244 -6.12335,0.82629 l -2.18548,2.69894 -0.88016,-2.77315 c -0.96656,-3.0454 -0.0139,-3.08401 -17.12239,0.69571 -5.3933,1.19167 -9.30759,2.82554 -10.76656,4.49411 -1.26086,1.44194 -4.58279,5.26829 -7.38212,8.50308 -2.79932,3.23478 -8.36079,7.90046 -12.35884,10.36817 -8.16794,5.04155 -8.16038,5.00383 -3.51122,17.51474 2.96856,7.98826 3.24179,14.47931 0.85046,20.20251 -3.40903,8.15898 -11.66871,10.51026 -19.88714,5.66129 -2.36372,-1.39465 -4.62447,-2.53574 -5.02378,-2.53574 -1.64849,0 0.81663,21.3494 2.6834,23.23993 1.04805,1.06141 7.00745,4.41611 13.24309,7.45493 7.69888,3.75187 11.91805,6.58632 13.14647,8.83185 1.95119,3.56681 1.072,5.81368 -1.47237,3.76282 -0.86044,-0.69356 -3.36008,-1.64496 -5.55475,-2.1142 -3.85531,-0.82438 -3.9903,-0.71886 -3.9903,3.11798 0,3.7955 -0.10116,3.87967 -2.28641,1.90204 -1.25752,-1.13803 -4.02009,-2.56637 -6.13898,-3.17404 -3.63447,-1.04239 -3.85271,-0.91863 -3.85498,2.18581 -0.002,3.16234 -0.28168,3.30105 -7.16309,3.55581 -4.16673,0.15406 -7.759106,-0.33365 -8.592076,-1.16639 z m 5.018586,-36.23944 c -1.03757,-22.03856 2.86099,-32.96929 12.63379,-35.42207 4.99302,-1.2532 9.15534,3.84473 9.15534,11.2133 0,4.39546 -0.56837,5.80074 -2.98712,7.38555 -5.30727,3.47749 -11.1784,-2.53319 -7.4521,-7.62922 1.34718,-1.84236 1.87317,-1.91517 3.58319,-0.49602 2.31987,1.92533 3.79897,1.0332 2.76303,-1.66649 -1.16206,-3.02828 -6.69927,-3.77299 -9.46221,-1.27256 -3.26045,2.9507 -3.25028,10.77505 0.0186,14.04362 5.40054,5.40054 14.53482,4.05903 17.26653,-2.53588 2.09814,-5.06541 0.92475,-16.41927 -2.1181,-20.49481 -3.9142,-5.24267 -8.95724,-6.05541 -15.97647,-2.57472 -4.76582,2.3632 -6.53974,4.19805 -9.27006,9.58852 -2.868406,5.66315 -3.376406,8.18367 -3.376406,16.75282 0,6.68438 0.84494,12.82239 2.504926,18.19676 1.37771,4.46047 2.69255,8.10998 2.92183,8.10998 0.22924,0 0.13736,-5.93945 -0.20464,-13.19878 z M 155.32917,68.953233 c 0,-1.756236 -5.61729,-4.023759 -6.86851,-2.772593 -0.94011,0.940114 3.12708,4.590871 5.11455,4.590871 0.96467,0 1.75396,-0.818209 1.75396,-1.818278 z m 37.46008,187.235077 c -0.42414,-0.68628 -4.29393,-1.24783 -8.59945,-1.24783 -8.48085,0 -13.35377,-1.36917 -17.19659,-4.8318 -1.35057,-1.21697 -3.96655,-2.56985 -5.81332,-3.00638 -2.25346,-0.53273 -3.62046,-1.84051 -4.15657,-3.97666 -0.53291,-2.1232 -2.27639,-3.80389 -5.23683,-5.04814 -4.21081,-1.76983 -4.29657,-1.9181 -1.67544,-2.8978 3.59888,-1.34513 3.55386,-3.56727 -0.0724,-3.56727 -1.55916,0 -3.90728,-0.78772 -5.21813,-1.75048 -2.32038,-1.70426 -2.291,-1.8471 1.11247,-5.40982 2.46047,-2.5757 3.26374,-4.39031 2.71235,-6.12757 -0.76915,-2.42349 -6.33805,-5.12903 -10.55722,-5.12903 -2.13226,0 -3.6315,-2.3194 -3.6315,-5.61799 0,-0.95357 4.74591,-4.85937 10.54651,-8.6796 5.80765,-3.82482 11.73827,-8.81347 13.19877,-11.10229 2.39657,-3.75578 3.06657,-4.08687 6.94954,-3.43414 5.3048,0.89176 9.58574,3.86821 13.19877,9.17687 4.41045,6.48028 3.67419,10.24566 -3.48314,17.81345 -7.02133,7.42402 -7.16305,9.46314 -1.01734,14.63444 4.73761,3.9864 10.81803,5.61085 21.03404,5.61929 8.58757,0.009 15.2061,2.164 20.30023,6.61547 3.35943,2.93556 3.77726,6.35857 0.61389,5.02888 -7.94594,-3.33993 -11.55535,-1.53284 -10.45704,5.23544 l 0.72099,4.44288 -4.33188,-2.67723 c -6.19991,-3.83178 -7.54315,-3.52138 -6.59658,1.52426 0.76257,4.06478 -0.77297,6.95543 -2.34423,4.41305 z m -12.2903,-115.95306 c -2.02585,-0.87979 -4.73589,-2.78011 -6.02232,-4.22293 -2.33416,-2.61802 -2.33119,-2.62336 1.4623,-2.62336 5.34133,0 5.89735,-1.85549 2.2207,-7.4113 -3.77089,-5.69819 -4.01155,-8.12242 -0.90424,-9.10866 2.61797,-0.83088 5.60022,-6.89492 8.17875,-16.63045 2.30599,-8.7067 2.27453,-15.173624 -0.13643,-28.040973 -1.97169,-10.522238 -1.68862,-16.318984 0.95223,-19.501053 1.18346,-1.425972 1.67266,-1.031717 2.75523,2.22084 1.96135,5.892526 4.5325,6.968838 9.01789,3.774936 3.85898,-2.747812 8.22488,-3.469499 9.40801,-1.555163 0.37356,0.604515 -0.14617,1.415949 -1.15534,1.803151 -1.25413,0.481264 -1.83461,2.464325 -1.83461,6.267615 v 5.563608 h 5.52505 c 5.41789,0 7.32573,1.501891 3.68338,2.899603 -2.36869,0.90893 -2.3357,3.633773 0.10116,8.345853 1.87874,3.633124 1.83299,3.871226 -1.38904,7.23432 l -3.33172,3.477574 2.61681,5.020441 c 3.1991,6.137728 3.20003,6.172628 0.16103,6.172628 -2.87093,0 -3.05738,1.86459 -0.61394,6.13898 2.30906,4.03926 2.27648,5.34072 -0.11091,4.42465 -2.69611,-1.0346 -4.62484,0.32065 -3.0893,2.17081 0.66902,0.8061 1.78036,2.94903 2.46966,4.76206 1.21144,3.18634 1.13246,3.27224 -2.36567,2.57259 -4.4975,-0.89946 -6.21508,2.20929 -3.11385,5.63614 1.95197,2.15689 1.91039,2.39639 -0.73821,4.25151 -1.5437,1.08123 -3.78881,1.96589 -4.98912,1.96589 -2.91714,0 -2.76168,1.76882 0.33737,3.84056 2.26037,1.51103 1.59655,1.70848 -6.44591,1.91712 -5.18647,0.13457 -10.51847,-0.44178 -12.6492,-1.36699 z m -9.91466,-51.148839 c -1.75146,-1.935311 -3.44073,-2.450219 -6.94318,-2.116197 -5.30955,0.506369 -5.55275,0.343395 -2.18232,-1.460127 1.8922,-1.012691 3.83934,-0.709854 8.59815,1.33734 4.17931,1.797907 7.37989,2.40089 9.98144,1.8806 3.30583,-0.661175 3.62055,-0.514165 2.30163,1.075059 -2.26047,2.723683 -9.01487,2.311933 -11.75572,-0.716675 z"
       id="path1001"
       inkscape:connector-curvature="0" />
  </g>
</svg>
