<?xml version="1.0" encoding="UTF-8" standalone="no"?>
<!-- Created with Inkscape (http://www.inkscape.org/) -->

<svg
   xmlns:dc="http://purl.org/dc/elements/1.1/"
   xmlns:cc="http://creativecommons.org/ns#"
   xmlns:rdf="http://www.w3.org/1999/02/22-rdf-syntax-ns#"
   xmlns:svg="http://www.w3.org/2000/svg"
   xmlns="http://www.w3.org/2000/svg"
   xmlns:sodipodi="http://sodipodi.sourceforge.net/DTD/sodipodi-0.dtd"
   xmlns:inkscape="http://www.inkscape.org/namespaces/inkscape"
   width="256mm"
   height="256mm"
   viewBox="0 0 256.00001 256.00002"
   version="1.1"
   id="svg952"
   inkscape:version="0.92.5 (2060ec1f9f, 2020-04-08)"
   sodipodi:docname="dragonstar.svg">
  <defs
     id="defs946" />
  <sodipodi:namedview
     id="base"
     pagecolor="#ffffff"
     bordercolor="#666666"
     borderopacity="1.0"
     inkscape:pageopacity="0.0"
     inkscape:pageshadow="2"
     inkscape:zoom="0.86124998"
     inkscape:cx="-157.3327"
     inkscape:cy="497.98737"
     inkscape:document-units="mm"
     inkscape:current-layer="layer1"
     showgrid="false"
     units="mm"
     inkscape:window-width="3840"
     inkscape:window-height="2056"
     inkscape:window-x="0"
     inkscape:window-y="50"
     inkscape:window-maximized="1"
     showguides="true"
     inkscape:guide-bbox="true" />
  <metadata
     id="metadata949">
    <rdf:RDF>
      <cc:Work
         rdf:about="">
        <dc:format>image/svg+xml</dc:format>
        <dc:type
           rdf:resource="http://purl.org/dc/dcmitype/StillImage" />
        <dc:title></dc:title>
      </cc:Work>
    </rdf:RDF>
  </metadata>
  <g
     inkscape:label="Layer 1"
     inkscape:groupmode="layer"
     id="layer1"
     transform="translate(0,-40.999976)">
    <rect
       style="fill:#1a1a1a;fill-opacity:1;stroke:none;stroke-width:0.83444387;stroke-opacity:1"
       id="rect816"
       width="256"
       height="256"
       x="0"
       y="40.999977" />
    <path
       style="fill:#ffffff;stroke-width:3.4414432"
       d="m 103.35076,283.57238 c -22.549114,-6.564 -23.230032,-12.93367 -1.7207,-16.09724 42.09113,-6.19096 47.36275,-8.40788 15.83255,-6.6583 -22.07046,1.22396 -32.234282,0.53849 -33.985028,-2.29431 -1.715367,-2.77531 -0.421428,-3.38248 4.128821,-1.93818 4.214798,1.33777 10.877518,-1.03276 18.306747,-6.51418 7.66335,-5.65389 16.48029,-8.71393 25.63776,-8.89811 l 13.95758,-0.28095 -10.85307,-4.75589 c -10.56716,-4.63076 -52.890083,-41.39798 -52.737121,-45.81452 0.03902,-1.21616 3.005144,-6.02135 6.584549,-10.67916 l 6.508066,-8.46888 31.584316,30.83824 c 33.06425,32.28318 41.28262,43.813 41.28262,57.9173 0,13.15193 -3.43555,19.20045 -14.01196,24.66978 -11.94019,6.17457 -26.81801,5.87241 -50.51513,-1.02626 z m 39.57661,-8.56552 c -0.78822,-2.36598 -5.82181,-4.30182 -11.18474,-4.30182 -5.36293,0 -10.39599,1.93584 -11.18461,4.30182 -0.97293,2.91994 2.61922,4.30181 11.18461,4.30181 8.56539,0 12.15806,-1.38187 11.18474,-4.30181 z m 32.45475,-16.34177 c -0.10406,-7.87498 -3.5993,-23.87402 -7.75687,-35.55355 -7.13188,-20.03459 -7.25103,-21.96509 -2.10831,-34.14084 3.73484,-8.84218 7.63526,-12.90531 12.38854,-12.90531 7.84077,0 15.34505,11.04309 10.75018,15.81966 -1.64461,1.70952 -3.50799,18.90767 -4.14078,38.21803 -0.65426,19.97698 -2.82825,36.78427 -5.04283,38.99494 -2.89419,2.88899 -3.94295,0.21332 -4.08993,-10.43293 z M 53.493134,246.52901 c -12.17562,-6.78616 -19.83156,-21.85805 -19.83156,-39.04111 0,-11.37491 2.82695,-16.97093 16.91148,-33.47632 l 16.91161,-19.81816 1.15632,-35.35948 c 0.65946,-20.157514 2.82942,-37.029322 5.048419,-39.243638 2.893934,-2.888081 3.94217,-0.260141 4.087198,10.247848 0.104057,7.77261 3.388852,22.66826 7.292521,33.10146 10.967657,29.31381 9.055624,37.77319 -15.062138,66.64021 -12.59536,15.07579 -15.38042,26.72216 -8.12523,33.97747 5.99312,5.99312 8.97836,5.19397 18.34238,-4.91001 8.072812,-8.71068 8.695329,-8.83165 17.101121,-3.32395 9.765285,6.39841 8.515965,11.76615 -5.868641,25.21607 -10.853325,10.14822 -26.16702,12.56427 -37.96309,5.98961 z m 140.390706,-9.28338 c -2.94661,-4.20673 -5.35734,-11.96321 -5.35734,-17.23639 0,-8.65188 0.65686,-9.17776 6.72633,-5.38712 8.47044,5.28996 11.61137,2.21978 11.23599,-10.98287 -0.39932,-14.0502 -11.82976,-29.14811 -30.23224,-39.93262 -8.39395,-4.91926 -15.26166,-10.10542 -15.26166,-11.52501 0,-1.41959 3.11531,-5.40039 6.92286,-8.84608 6.73998,-6.09965 7.26247,-5.99169 19.78824,4.0911 7.07608,5.69591 18.06065,17.12557 24.41029,25.39934 10.64144,13.86589 11.4324,16.59736 10.10815,34.90489 -1.07308,14.83659 -3.4929,22.05055 -9.56354,28.51257 -9.95337,10.59488 -11.98234,10.70309 -18.77708,1.00154 z M 140.97099,186.3931 c -6.55516,-5.46387 -9.15487,-5.91586 -14.57047,-2.53377 -5.3827,3.36153 -7.69405,3.01412 -12.60251,-1.89435 -5.13128,-5.13127 -5.35149,-7.06685 -1.50466,-13.22658 3.95349,-6.33052 3.47314,-8.32905 -3.91511,-16.29118 -6.99037,-7.53341 -15.612599,-31.44501 -11.338749,-31.44501 0.693274,0 8.575919,6.04554 17.517609,13.43444 l 16.25748,13.43444 15.49943,-17.73625 c 22.01544,-25.19241 28.45847,-29.61818 43.24369,-29.70468 34.20849,-0.2003 46.58871,23.50435 25.96749,49.72015 -6.77861,8.61768 -7.45367,8.77571 -13.62395,3.1918 -7.76611,-7.02822 -8.24984,-12.83092 -1.53431,-18.4043 5.67796,-4.71232 3.79662,-12.48102 -3.72092,-15.36585 -8.38095,-3.21599 -23.66759,6.96474 -38.58002,25.69395 l -14.00948,17.59513 8.93258,7.68338 c 7.70953,6.63138 8.38121,8.71341 4.90664,15.20574 -4.87594,9.1109 -6.68301,9.17945 -16.92474,0.64255 z M 37.169434,146.92067 c -10.34631,-16.74083 -8.54184,-36.33462 3.89262,-42.26439 5.01668,-2.39226 11.59837,-3.39913 14.62614,-2.23734 7.25051,2.78233 7.54993,22.0248 0.34339,22.0248 -7.31464,0 -6.39712,8.13993 1.74853,15.51166 6.46892,5.85434 6.54488,6.65843 1.18754,12.57845 -8.30655,9.17854 -13.47879,7.84662 -21.79744,-5.61318 z M 112.24822,118.44698 C 93.010173,98.568337 88.724617,90.656682 88.724617,75.018852 c 0,-23.703749 24.155873,-31.935508 63.662633,-21.694814 24.32926,6.306328 24.79999,14.385514 1.02886,17.663285 -10.0279,1.382777 -23.96258,2.748515 -30.96583,3.0348 -7.85598,0.321274 -11.50667,1.747364 -9.53077,3.723262 1.9759,1.975898 12.78539,1.716928 28.21992,-0.676366 15.73538,-2.439598 26.2301,-2.670213 28.28651,-0.621736 2.06084,2.05303 0.98984,3.25696 -2.89861,3.25696 -3.39237,0 -10.12962,3.116354 -14.97174,6.925073 -4.842,3.808718 -14.99659,7.915297 -22.56563,9.125601 l -13.76196,2.200659 12.33586,6.328704 c 16.87142,8.65552 18.43994,12.62358 8.80043,22.26309 l -8.27156,8.27156 z m 23.65015,-57.247836 c -1.70483,-5.114624 -20.41439,-4.988456 -22.1269,0.14958 -1.5148,4.544136 8.00128,7.407503 17.25161,5.191236 3.38976,-0.81294 5.58366,-3.215338 4.87529,-5.340426 z"
       id="path1256"
       inkscape:connector-curvature="0" />
  </g>
</svg>
