<?xml version="1.0" encoding="UTF-8" standalone="no"?>
<!-- Created with Inkscape (http://www.inkscape.org/) -->

<svg
   xmlns:dc="http://purl.org/dc/elements/1.1/"
   xmlns:cc="http://creativecommons.org/ns#"
   xmlns:rdf="http://www.w3.org/1999/02/22-rdf-syntax-ns#"
   xmlns:svg="http://www.w3.org/2000/svg"
   xmlns="http://www.w3.org/2000/svg"
   xmlns:sodipodi="http://sodipodi.sourceforge.net/DTD/sodipodi-0.dtd"
   xmlns:inkscape="http://www.inkscape.org/namespaces/inkscape"
   width="256mm"
   height="256mm"
   viewBox="0 0 256.00001 256.00002"
   version="1.1"
   id="svg952"
   inkscape:version="0.92.5 (2060ec1f9f, 2020-04-08)"
   sodipodi:docname="ebonheart.svg">
  <defs
     id="defs946" />
  <sodipodi:namedview
     id="base"
     pagecolor="#ffffff"
     bordercolor="#666666"
     borderopacity="1.0"
     inkscape:pageopacity="0.0"
     inkscape:pageshadow="2"
     inkscape:zoom="1.7225"
     inkscape:cx="311.89212"
     inkscape:cy="494.04866"
     inkscape:document-units="mm"
     inkscape:current-layer="layer1"
     showgrid="false"
     units="mm"
     inkscape:window-width="3840"
     inkscape:window-height="2056"
     inkscape:window-x="0"
     inkscape:window-y="50"
     inkscape:window-maximized="1"
     showguides="true"
     inkscape:guide-bbox="true" />
  <metadata
     id="metadata949">
    <rdf:RDF>
      <cc:Work
         rdf:about="">
        <dc:format>image/svg+xml</dc:format>
        <dc:type
           rdf:resource="http://purl.org/dc/dcmitype/StillImage" />
        <dc:title />
      </cc:Work>
    </rdf:RDF>
  </metadata>
  <g
     inkscape:label="Layer 1"
     inkscape:groupmode="layer"
     id="layer1"
     transform="translate(0,-40.999976)">
    <rect
       style="fill:#1a1a1a;fill-opacity:1;stroke:none;stroke-width:0.83444387;stroke-opacity:1"
       id="rect816"
       width="256"
       height="256"
       x="0"
       y="40.999977" />
    <path
       style="fill:#ffffff;stroke-width:0.38600379"
       d="m 125.17674,288.8577 c -0.31845,-0.11584 -0.83956,-0.31103 -1.15801,-0.43386 -0.31845,-0.12284 -0.75427,-0.19788 -0.9685,-0.16684 -0.21423,0.0311 -1.55148,-0.52818 -2.97167,-1.24273 -5.61343,-2.82428 -10.79401,-8.07932 -16.40533,-16.64112 -3.17737,-4.84807 -3.726867,-5.56655 -6.062206,-7.92659 -1.043063,-1.05408 -1.73787,-1.92194 -1.544024,-1.92856 0.784559,-0.0268 -2.737517,-1.86856 -4.038064,-2.11156 -0.769752,-0.14385 -1.643304,-0.46309 -1.941243,-0.70947 -0.621015,-0.51354 -4.669335,-0.67998 -4.669335,-0.19199 0,0.17766 -0.233878,0.32303 -0.519708,0.32303 -0.285831,0 -1.080252,0.27964 -1.765371,0.62142 -1.376878,0.68689 -4.810018,1.72908 -6.014015,1.82567 -0.424601,0.034 -0.858847,0.14977 -0.965012,0.25714 -0.704931,0.71295 -3.08802,2.29851 -3.08802,2.05458 0,-0.1642 -0.257644,0.0693 -0.572521,0.51885 -0.582602,0.83177 -4.786238,3.43684 -5.314043,3.29321 -0.159225,-0.0433 -0.289506,0.0751 -0.289506,0.26324 0,0.48829 -2.635233,1.67484 -3.092295,1.39235 -0.209952,-0.12969 -0.381739,-0.0782 -0.381739,0.11467 0,0.4409 -7.225641,3.86147 -8.838322,4.18402 l -1.197767,0.23955 -0.0058,-3.42579 c -0.0073,-5.20292 0.04377,-5.11964 -2.819756,-4.52849 -1.31232,0.27091 -3.080843,0.57742 -3.930046,0.68117 -0.849204,0.10373 -2.065119,0.34455 -2.702022,0.53515 -0.636917,0.19061 -1.363367,0.2759 -1.614359,0.18953 -0.250976,-0.0864 -1.032632,0.14919 -1.737009,0.52346 -1.669652,0.88716 -8.542513,1.00264 -10.099756,0.16969 -1.179457,-0.63088 -1.362828,-1.57529 -0.30589,-1.57529 1.06912,0 3.284419,-1.63635 6.216686,-4.59197 2.336098,-2.35472 5.803304,-6.89587 5.803304,-7.60086 0,-0.14799 0.746394,-1.15631 1.658637,-2.2407 0.912258,-1.08439 2.594864,-3.2744 3.739118,-4.86667 1.144269,-1.59227 2.265165,-3.10612 2.490903,-3.36413 0.738209,-0.84376 1.16977,-1.42527 3.089567,-4.16293 1.04213,-1.48612 2.428971,-3.32231 3.081864,-4.08043 2.14708,-2.49315 2.724693,-3.25207 3.256072,-4.27803 0.288748,-0.55752 0.940123,-1.23584 1.447518,-1.50739 0.50738,-0.27155 0.922514,-0.66248 0.922514,-0.86874 0,-0.20628 0.825087,-1.18227 1.833516,-2.16892 2.359046,-2.30804 6.419081,-6.83626 6.590474,-7.35042 0.0728,-0.2185 -0.316306,-0.39728 -0.864755,-0.39728 -0.548434,0 -0.998757,-0.13028 -1.000682,-0.2895 -0.0015,-0.15923 -1.24845,-0.33706 -2.770036,-0.39518 -2.6838,-0.10256 -4.005487,-0.58199 -3.565712,-1.29356 0.394679,-0.63859 4.205094,-2.9049 5.375434,-3.19712 1.043151,-0.26046 4.264881,-1.56862 7.911898,-3.21256 0.743053,-0.33494 2.4544,-1.27706 3.802989,-2.09359 1.348589,-0.81654 2.532657,-1.48462 2.631279,-1.48462 0.09862,0 0.748641,-0.43424 1.444498,-0.96499 0.695857,-0.53077 1.444658,-0.96501 1.663991,-0.96501 0.219347,0 0.613458,-0.25865 0.875814,-0.57476 0.262356,-0.31611 0.631023,-0.47957 0.819281,-0.36322 0.188244,0.11627 0.342261,0.0525 0.342261,-0.14166 0,-0.19426 0.937015,-1.05395 2.082247,-1.91042 2.37823,-1.77854 6.795845,-4.43516 6.795845,-4.08681 0,0.1281 0.360001,-0.22474 0.800023,-0.78413 0.440008,-0.55939 1.006314,-1.01707 1.258458,-1.01707 0.252129,0 0.890899,-0.39083 1.419492,-0.8685 0.528578,-0.47768 1.413331,-1.10139 1.966121,-1.38603 1.16985,-0.60237 4.20599,-3.46523 4.20599,-3.96595 0,-0.18788 -0.40397,-0.34159 -0.89772,-0.34159 -0.99123,0 -2.78951,-1.65875 -2.42962,-2.24109 0.12518,-0.20254 1.92383,-0.49418 3.99699,-0.64811 4.25776,-0.31613 8.41226,-1.02973 9.56016,-1.64212 0.42422,-0.22631 1.55297,-0.62826 2.50832,-0.89322 0.95535,-0.26495 2.76354,-0.9767 4.01819,-1.58163 1.25465,-0.60494 2.56051,-1.09991 2.90192,-1.09991 0.34142,0 1.28612,-0.45213 2.09936,-1.00473 0.81325,-0.55261 1.67864,-1.03548 1.92313,-1.07305 0.24448,-0.0375 0.87876,-0.49905 1.40953,-1.02553 0.53075,-0.52646 1.45724,-1.33938 2.05887,-1.80648 1.08477,-0.84221 1.12907,-1.81449 0.0641,-1.40581 -0.76221,0.2925 -3.95307,-0.97351 -4.22235,-1.67526 -0.25823,-0.67293 0.0423,-1.27323 0.63748,-1.27323 0.54482,0 7.07326,-3.06227 10.29862,-4.83075 1.00922,-0.55335 6.21371,-5.49844 6.22366,-5.91348 0.0131,-0.55981 2.22063,-2.72834 2.51038,-2.46642 0.17009,0.15374 0.18521,0.0639 0.0335,-0.19972 -0.15502,-0.26952 0.21611,-1.19866 0.84801,-2.12303 0.61801,-0.90407 1.55235,-2.51227 2.07632,-3.57379 0.52395,-1.0615 1.76177,-3.40648 2.75069,-5.21105 1.52804,-2.78832 1.79901,-3.60464 1.8045,-5.43604 0.007,-2.27658 0.0786,-2.20619 -1.96925,-1.93019 -0.13131,0.0177 -0.32776,0.68354 -0.43666,1.47968 -0.19574,1.43132 -2.06052,4.72853 -2.67427,4.72853 -0.17459,0 -0.31743,0.23962 -0.31743,0.53248 0,0.29285 -0.69462,1.2482 -1.54359,2.12301 -1.2932,1.33257 -1.79002,1.59056 -3.06289,1.59056 -0.83564,0 -1.96488,-0.16939 -2.50946,-0.37644 -0.54457,-0.20705 -0.99014,-0.23079 -0.99014,-0.0528 0,0.43232 -3.8722,1.20453 -6.76207,1.34851 -1.27767,0.0636 -2.75413,0.35402 -3.28103,0.64523 -0.5269,0.29121 -1.08828,0.49259 -1.24751,0.44748 -0.15922,-0.0451 -0.24608,0.0767 -0.19301,0.27092 0.0531,0.19411 -0.55123,1.13478 -1.34293,2.09039 l -1.43943,1.73744 -2.2276,-0.19278 c -1.22518,-0.10606 -2.29847,-0.26352 -2.38509,-0.35 -0.0867,-0.0865 -0.39373,0.0388 -0.68246,0.27846 -0.28874,0.23963 -0.82582,0.45525 -1.19352,0.47915 -1.19815,0.0779 -4.33623,2.66025 -5.42056,4.46065 -1.97881,3.28552 -2.75466,5.85488 -2.03799,6.74902 0.18249,0.22764 0.44725,0.93501 0.58838,1.57193 0.3928,1.77267 1.32239,2.63156 4.36713,4.03496 2.59604,1.1966 2.98271,1.26992 5.47531,1.03826 1.89706,-0.17632 2.76532,-0.11452 2.96669,0.21138 0.429,0.69412 -3.25594,3.77587 -6.29746,5.26663 -1.44434,0.70792 -2.93713,1.45204 -3.31729,1.65359 -0.38016,0.20155 -0.8502,0.26819 -1.04452,0.14809 -0.19432,-0.12007 -1.01234,0.0581 -1.81782,0.39581 -0.99244,0.41619 -1.89997,0.52452 -2.81551,0.3361 -1.16944,-0.24069 -3.83672,-0.44517 -6.85158,-0.52528 -0.47768,-0.0131 -0.8685,-0.21509 -0.8685,-0.44977 0,-0.25808 -0.34321,-0.32947 -0.86851,-0.18063 -0.47767,0.13539 -1.79691,0.32171 -2.93164,0.41414 -1.134724,0.0925 -2.263791,0.32566 -2.509019,0.51827 -0.672938,0.52849 -3.488054,0.87005 -4.878631,0.59194 -1.59977,-0.31996 -1.787225,-0.92398 -1.022041,-3.29326 0.997998,-3.09011 0.841617,-7.82842 -0.3634,-11.01118 -0.546217,-1.44271 -1.009421,-2.84021 -1.029335,-3.10559 -0.01999,-0.26538 -0.180978,-0.48251 -0.357901,-0.48251 -0.176907,0 -0.321646,-0.16299 -0.321646,-0.36219 0,-0.1992 -0.521109,-0.93271 -1.158011,-1.63002 -1.43058,-1.56629 -1.605693,-3.21995 -0.296976,-2.80457 0.473577,0.1503 1.323204,0.61497 1.88808,1.0326 1.211378,0.89561 3.035849,1.10993 4.810966,0.56513 1.240688,-0.38078 1.837397,-1.37392 3.006248,-5.00353 0.150939,-0.46869 0.620403,-0.67551 1.533404,-0.67551 0.723722,0 1.532102,-0.26055 1.796402,-0.579 0.26428,-0.31845 0.65647,-0.57901 0.8715,-0.57901 0.94002,0 2.21652,-1.99627 2.21652,-3.46636 0,-1.76519 0.6435,-2.52727 2.41459,-2.85952 0.9792,-0.18371 1.52437,-0.6264 2.23846,-1.81776 0.87741,-1.46379 1.89493,-2.80369 3.19594,-4.20848 0.29492,-0.31847 0.74008,-0.96984 0.98924,-1.44752 0.31091,-0.59606 0.80324,-0.86851 1.56944,-0.86851 1.42201,0 2.56069,-1.39627 2.9211,-3.5819 0.30673,-1.86001 0.77516,-2.58859 1.67614,-2.607 0.34554,-0.007 1.0353,-0.35202 1.53279,-0.76657 0.79124,-0.6593 0.88238,-1.00827 0.7276,-2.78568 -0.0973,-1.11758 -0.30697,-2.42068 -0.46584,-2.89578 -0.30052,-0.89862 -0.19774,-0.98233 1.72872,-1.40791 0.53077,-0.11725 1.42403,-0.64258 1.98504,-1.1674 0.56101,-0.52482 1.15339,-0.83423 1.31639,-0.68757 0.16302,0.14666 0.17446,0.0544 0.0254,-0.20494 -0.14901,-0.25939 0.0149,-0.9078 0.36418,-1.44091 0.506,-0.77225 0.55259,-1.20606 0.22913,-2.13392 -0.22328,-0.64055 -0.30796,-1.16462 -0.18814,-1.16462 0.11978,0 -0.37748,-0.65894 -1.10507,-1.4643 -1.5321,-1.69585 -3.18406,-4.89467 -2.82651,-5.4732 0.36352,-0.58818 1.73561,-0.48043 1.97963,0.15546 0.54824,1.42873 4.66652,1.7985 6.63872,0.59608 1.81566,-1.10698 2.52317,-3.04278 2.29217,-6.27151 -0.22957,-3.20812 -0.69279,-3.78841 -4.42059,-5.5378 -2.18981,-1.027641 -3.27177,-1.304926 -5.09178,-1.304926 -1.27109,0 -2.41375,0.166116 -2.53923,0.369147 -0.12547,0.203029 -0.4642,0.278559 -0.75271,0.167849 -0.64004,-0.245609 -3.07999,1.83264 -3.81974,3.25352 -1.68367,3.2339 -2.38456,4.31556 -2.79639,4.31556 -0.86876,0 -1.4428,-1.18626 -1.48122,-3.06098 -0.0212,-1.03235 -0.16872,-1.79791 -0.32794,-1.70125 -0.15923,0.0967 -0.29338,-0.22533 -0.29809,-0.71554 -0.0196,-2.03223 -2.06806,-3.401881 -5.0806,-3.396967 -1.80403,0.0031 -2.21978,0.162501 -3.44165,1.320827 -1.82019,1.72554 -2.31538,1.79018 -3.54683,0.46297 -1.527735,-1.646506 -3.942584,-1.837609 -5.599806,-0.44314 -0.680203,0.57235 -1.236734,1.37806 -1.236734,1.79046 0,1.14144 -1.191333,1.40328 -1.852702,0.40719 -0.719521,-1.08366 -1.777071,-1.07119 -2.449192,0.0289 -0.396153,0.64836 -0.470266,1.70018 -0.292439,4.14954 0.194502,2.67901 0.130135,3.36837 -0.350591,3.757 -0.400238,0.32353 -0.73837,0.35184 -1.055829,0.0884 -0.256856,-0.21318 -2.64066,-0.41882 -5.297324,-0.45698 -4.941422,-0.071 -6.982907,0.37509 -8.846302,1.93291 -0.98904,0.82684 -1.588273,0.193 -1.36827,-1.44726 0.10548,-0.78647 0.02991,-1.71931 -0.168066,-2.07298 -0.487787,-0.87161 -2.109528,-0.81077 -3.29752,0.1237 -0.536121,0.42172 -1.102558,0.68777 -1.25875,0.59124 -0.249313,-0.15409 -1.240979,1.53666 -3.064969,5.22562 -0.674908,1.36498 -1.498653,1.71426 -2.310392,0.97964 -0.34121,-0.30879 -1.141175,-0.7754 -1.777698,-1.0369 -1.284193,-0.52759 -4.824345,-0.76872 -4.824345,-0.32861 0,0.15429 -0.688125,0.55585 -1.529173,0.89237 -0.841048,0.33652 -1.79665,1.02007 -2.123563,1.519 -0.790482,1.20644 -2.463066,0.97003 -3.923758,-0.5546 -0.932026,-0.97284 -1.106205,-1.51102 -1.236763,-3.82139 -0.113358,-2.00619 -0.02655,-2.68909 0.341954,-2.68909 0.271649,0 0.383227,-0.11067 0.247971,-0.24593 -0.385065,-0.38507 1.135428,-2.35035 4.737335,-6.12313 1.82418,-1.91072 4.17987,-4.427881 5.234868,-5.593688 1.054997,-1.16581 2.061355,-2.07344 2.236366,-2.016955 0.175011,0.05647 0.215598,-0.06332 0.09016,-0.266205 -0.125321,-0.202891 -0.06594,-0.469075 0.132177,-0.591523 0.19812,-0.122446 1.154379,-1.599465 2.125007,-3.282267 0.970644,-1.6828 1.928303,-3.160683 2.12813,-3.284181 0.199827,-0.123497 1.113704,0.577746 2.03082,1.558332 0.917116,0.980584 2.154506,2.130868 2.749742,2.556186 1.027789,0.734391 1.119336,0.739745 1.819147,0.106427 0.908902,-0.82255 1.816068,-0.520459 2.305898,0.767874 0.203853,0.536198 0.489961,0.974903 0.635793,0.974903 0.491245,0 3.799882,-2.049409 4.620112,-2.86175 1.802631,-1.785296 6.33178,-5.94276 8.576447,-7.872613 1.734238,-1.491024 2.38357,-2.311185 2.38357,-3.010699 0,-0.528781 0.253603,-1.451845 0.563563,-2.051253 0.525894,-1.016968 0.670079,-1.070359 2.156506,-0.798549 1.501891,0.274642 1.635031,0.222213 2.329999,-0.917517 0.405402,-0.66484 0.737742,-1.414224 0.738545,-1.665295 0.0044,-1.43188 2.744738,-0.67935 5.769986,1.584585 0.73123,0.547211 1.54891,0.994929 1.81706,0.994929 0.26816,0 0.97264,-0.625706 1.56552,-1.390456 0.59289,-0.76475 1.73138,-2.110939 2.52998,-2.991529 0.79861,-0.880591 1.91186,-2.426158 2.47387,-3.434591 l 1.02187,-1.833518 h 2.23651 c 3.36217,0 3.76134,-0.297189 8.29556,-6.176062 3.19352,-4.140565 3.83512,-5.161094 4.2029,-6.685116 0.29605,-1.226801 0.57468,-1.613964 1.16148,-1.613964 0.6174,0 0.77996,0.270574 0.81172,1.351014 0.0219,0.743056 0.15741,2.542768 0.30124,3.999359 0.18041,1.827058 0.11934,2.819697 -0.19706,3.200889 -0.61359,0.739334 0.15684,1.6087 0.90126,1.017003 0.27438,-0.218082 1.19368,-0.520938 2.04289,-0.673012 2.688,-0.481361 5.36916,-1.591747 7.4457,-3.083593 1.10626,-0.79477 2.01139,-1.34886 2.01139,-1.231312 0,0.117544 0.73148,-0.461701 1.6255,-1.28722 0.89404,-0.825518 1.76685,-1.413593 1.9396,-1.306832 0.17273,0.106763 0.26633,0.03694 0.20799,-0.155147 -0.17358,-0.571604 3.28827,-4.340174 3.98695,-4.340174 1.26731,0 2.07568,2.586577 2.0508,6.562065 l -0.0229,3.667036 h 3.11563 c 1.99564,0 3.25436,-0.170377 3.50162,-0.473968 0.2123,-0.260683 0.99396,-0.533804 1.73701,-0.60694 0.74307,-0.07314 2.21953,-0.528346 3.28103,-1.01158 1.06152,-0.483234 2.32072,-0.904919 2.79825,-0.937075 0.47754,-0.03215 0.86836,-0.177039 0.86852,-0.321959 1.5e-4,-0.144913 0.38834,-0.386658 0.86264,-0.537197 0.47431,-0.15054 1.93983,-1.308325 3.2567,-2.572857 1.31689,-1.264531 2.57208,-2.189291 2.78933,-2.055023 0.47076,0.290946 0.22651,5.117632 -0.29163,5.762811 -0.19336,0.24077 -0.46963,0.990293 -0.61395,1.665605 -0.14429,0.675313 -0.51177,1.434813 -0.81658,1.68778 -0.30481,0.252967 -0.5542,0.606341 -0.5542,0.785274 0,0.530259 -2.32025,4.028666 -2.5946,3.912068 -0.1386,-0.05891 -0.29733,0.201413 -0.35268,0.578502 -0.0553,0.37709 -0.41363,0.946396 -0.7962,1.265126 -0.38255,0.318729 -1.19381,1.345095 -1.80278,2.280814 -0.60897,0.935718 -1.52949,2.09265 -2.04559,2.57096 -1.11472,1.033083 -0.65825,1.503115 1.15134,1.185545 1.99988,-0.350969 5.76689,-0.775209 7.11602,-0.801406 0.68998,-0.01342 1.2545,-0.135329 1.2545,-0.270973 0,-0.135635 0.21713,-0.227752 0.48251,-0.2047 0.54967,0.04775 11.70835,-3.470104 12.73812,-4.015785 0.37154,-0.196873 0.97949,-0.521356 1.35103,-0.721077 0.37152,-0.199721 2.15197,-1.070347 3.95654,-1.934724 4.56927,-2.188654 7.16625,-3.606677 8.01952,-4.378887 0.40051,-0.362459 0.87224,-0.528362 1.04827,-0.368673 0.17603,0.15969 0.19528,0.07347 0.0428,-0.191587 -0.29247,-0.508269 7.6653,-8.975159 8.43547,-8.975159 0.22773,0 0.71506,-0.694807 1.08297,-1.544016 0.46131,-1.064801 0.90889,-1.544014 1.44207,-1.544014 0.68645,0 0.77315,0.256205 0.77315,2.28474 0,1.256608 -0.25085,2.776498 -0.55745,3.377533 -0.30659,0.601037 -0.93173,2.337817 -1.38919,3.859514 -0.45745,1.521696 -1.16873,3.128436 -1.58061,3.570535 -0.41187,0.442097 -0.64029,0.803814 -0.5076,0.803814 0.32084,0 -2.56464,5.174493 -2.97762,5.339718 -0.17688,0.07077 -0.32159,0.343896 -0.32159,0.606952 0,0.263057 -1.20737,2.202725 -2.68303,4.310376 -4.13331,5.903494 -6.01409,8.042544 -6.69916,7.61914 -0.21296,-0.131609 -0.27568,-0.05887 -0.13933,0.161653 0.24157,0.390857 -1.70373,2.370037 -4.32515,4.400501 -1.57772,1.222061 -1.58366,1.208048 2.29101,5.415228 3.23416,3.511716 6.76338,6.114764 8.29042,6.114764 0.56271,0 1.48417,0.327794 2.0477,0.728432 0.56352,0.400633 1.76282,0.949232 2.66511,1.219107 0.90228,0.269874 1.64052,0.647139 1.64052,0.838365 0,0.19123 0.14783,0.256318 0.32853,0.144637 0.30527,-0.188668 4.541,0.400145 5.84753,0.812865 0.98249,0.31036 5.40449,0.32682 5.40426,0.0201 -1.2e-4,-0.15922 1.30256,-0.2895 2.89482,-0.2895 2.16776,0 2.89503,0.13043 2.89503,0.51918 0,0.60293 -1.21711,1.79684 -1.83175,1.79684 -0.23097,0 -0.47784,0.15909 -0.54861,0.35352 -0.21618,0.59397 -5.07226,4.34825 -6.30473,4.87424 -0.6369,0.27182 -1.30276,0.63981 -1.47967,0.81776 -0.17692,0.17795 -0.43749,0.33087 -0.57902,0.33983 -0.14151,0.009 -1.03899,0.36471 -1.99434,0.79056 -1.94114,0.86526 -5.61821,1.93916 -7.81659,2.28286 -0.91662,0.14331 -1.4475,0.43526 -1.4475,0.79602 0,1.0773 10.79673,11.2842 14.22656,13.44936 0.85176,0.53769 1.69038,1.2197 1.86362,1.51557 0.68034,1.16197 2.74748,1.80055 5.82852,1.80055 1.67358,0 3.15255,0.10969 3.28663,0.24375 1.17687,1.17688 -7.75447,8.27973 -11.03847,8.7786 -0.25506,0.0387 -0.71403,0.22659 -1.01995,0.41744 -0.35824,0.22347 -0.60946,0.18729 -0.70578,-0.10163 -0.1081,-0.32436 -0.45658,-0.28983 -1.25812,0.12466 -0.60972,0.31532 -1.71192,0.57329 -2.44931,0.57329 -2.16993,0 -8.15357,-1.3416 -8.90742,-1.99714 -0.74921,-0.65152 -0.92401,-0.2543 -1.04913,2.38401 -0.0705,1.48659 -0.0196,2.70251 0.11307,2.70203 0.13276,-4e-4 0.35085,0.54711 0.48479,1.21685 0.13393,0.66974 0.44602,1.46168 0.69348,1.75985 0.24746,0.29818 0.49503,0.96515 0.55016,1.48216 0.12021,1.12693 3.60589,8.21763 4.7795,9.72246 2.61823,3.35714 4.25192,5.63808 4.25192,5.93646 0,0.34755 0.30169,0.7063 2.76874,3.29244 1.15768,1.21355 1.33327,1.59236 0.95729,2.06516 -0.68574,0.8624 -2.05193,1.54401 -3.09464,1.54401 -0.5077,0 -1.59105,0.27909 -2.40742,0.6202 -1.54276,0.64461 -6.32785,1.11738 -6.33298,0.6257 -0.001,-0.15448 -1.17628,-0.29722 -2.61037,-0.3172 -2.61488,-0.0365 -5.49278,-0.71734 -5.49278,-1.29961 0,-0.17107 -0.30398,-0.39844 -0.6755,-0.50528 -0.37153,-0.10679 -0.94404,-0.30576 -1.27223,-0.44208 -0.48448,-0.20124 -0.69335,0.29603 -1.1105,2.64377 -0.29565,1.66392 -0.41301,3.84013 -0.27643,5.12561 0.13057,1.22869 0.39927,4.57895 0.59715,7.44503 0.32031,4.6394 0.56152,5.97757 1.46111,8.10608 0.13466,0.31846 0.27473,0.66586 0.31139,0.77201 0.0366,0.10621 0.19059,0.47107 0.34204,0.81092 0.15145,0.33986 0.23823,0.7741 0.19286,0.96501 -0.14846,0.62442 0.53483,2.615 1.82002,5.30214 0.69421,1.45147 1.16799,2.8845 1.05285,3.18454 -0.25119,0.65461 -5.72128,0.78812 -6.11612,0.14925 -0.13466,-0.21793 -0.44891,-0.35636 -0.69828,-0.30763 -0.84408,0.16495 -4.30826,-1.64591 -5.15314,-2.69375 -1.12071,-1.38993 -1.66586,-0.81951 -2.01053,2.10369 -0.14655,1.24285 -0.3848,2.45124 -0.52945,2.68529 -0.14473,0.23406 -0.29161,3.27366 -0.32656,6.75468 -0.0503,5.01966 0.0684,6.70351 0.57403,8.13873 0.77587,2.20215 1.44223,5.12006 1.52605,6.68246 l 0.0622,1.15801 -2.123,-0.13466 c -1.26093,-0.0799 -2.41379,-0.39345 -2.83906,-0.77201 -0.39382,-0.35055 -0.82808,-0.61746 -0.96501,-0.59312 -0.44186,0.0785 -2.14672,-0.76628 -3.37345,-1.6717 -0.65694,-0.48487 -1.41178,-0.88157 -1.67742,-0.88157 -0.53913,0 -2.41509,-1.25471 -3.87925,-2.59458 -1.28517,-1.17606 -1.57565,-1.11745 -2.70597,0.54587 -0.53076,0.78103 -1.60417,2.01235 -2.38537,2.73626 -2.44635,2.26698 -3.8056,6.76228 -3.87582,12.818 -0.0258,2.23168 -0.19739,4.2568 -0.38115,4.50026 -0.49039,0.6497 -1.51879,0.25228 -3.10318,-1.19922 -0.7711,-0.70642 -1.50236,-1.18401 -1.62504,-1.06133 -0.29457,0.29457 -2.70008,-2.0923 -3.72489,-3.69604 -0.6421,-1.00481 -0.9822,-1.21428 -1.63897,-1.00949 -0.45581,0.1421 -0.93299,0.42027 -1.0604,0.61807 -0.12736,0.19779 -0.53212,0.40373 -0.89938,0.45764 -0.36725,0.0538 -0.78412,0.27509 -0.92636,0.49152 -0.14224,0.21645 -1.04029,0.952 -1.99566,1.63457 -3.93205,2.80928 -9.64269,8.25983 -9.6476,9.20818 -0.001,0.26539 -0.13378,0.48251 -0.29427,0.48251 -0.16047,0 -0.52244,0.56454 -0.80436,1.25452 -0.28193,0.68998 -0.67435,1.60191 -0.87205,2.02651 -0.72016,1.54673 -1.18992,3.53445 -1.48915,6.30131 -0.36694,3.39277 -0.66433,3.79523 -2.36607,3.202 -1.44312,-0.50307 -1.83162,-0.31903 -1.12466,0.5328 0.2728,0.3287 0.40661,0.68706 0.29736,0.79632 -0.30532,0.30532 3.28929,3.89262 4.15178,4.14332 0.41906,0.12182 2.06467,0.60662 3.65694,1.07733 1.59227,0.47072 3.15558,0.89208 3.47403,0.93638 0.31846,0.0444 0.83956,0.18248 1.15802,0.30707 0.31845,0.12459 1.62121,0.31807 2.89503,0.42992 5.72021,0.50231 7.70082,0.55906 8.09501,0.23191 0.64542,-0.53565 1.92513,-0.21093 2.06881,0.52495 0.0703,0.35981 -0.45086,1.30163 -1.15801,2.09293 -0.70715,0.79129 -1.70464,2.04381 -2.21663,2.78337 -0.51201,0.73955 -2.66517,2.90796 -4.78482,4.81866 -2.11967,1.91073 -4.75733,4.29913 -5.86147,5.30757 -1.10415,1.00843 -2.20789,1.83352 -2.45276,1.83352 -0.24486,0 -0.4452,0.15331 -0.4452,0.3407 0,0.18739 -0.99878,0.83833 -2.21953,1.44652 -1.91428,0.95375 -2.72381,1.11744 -5.88655,1.19027 -2.01687,0.0464 -3.92759,-0.0102 -4.24604,-0.12605 z M 56.707365,110.17484 c 1.257115,-0.73672 1.754925,-1.32021 2.058291,-2.41253 0.220063,-0.79243 0.401099,-1.55569 0.402281,-1.69613 0.0044,-0.51973 -1.173607,-0.0609 -1.703221,0.66337 -0.301149,0.41182 -0.671421,0.62488 -0.822841,0.47346 -0.490384,-0.49039 -1.71765,0.47194 -1.723734,1.35162 -0.0029,0.47021 -0.165499,1.10718 -0.360541,1.4155 -0.345981,0.54692 -0.207486,1.17644 0.258811,1.17644 0.128093,0 0.978974,-0.43728 1.890954,-0.97173 z M 112.43955,90.200056 c 1.84695,-0.651228 4.58479,-2.328256 5.98212,-3.66428 0.63691,-0.608958 1.47883,-1.286262 1.87096,-1.50512 0.64304,-0.358911 0.57117,-0.481557 -0.73299,-1.251031 -2.04194,-1.204771 -4.87172,-1.67485 -6.94283,-1.153336 -1.26469,0.31845 -2.14085,0.931171 -3.53531,2.472307 -1.95414,2.159669 -3.20495,4.127464 -3.20495,5.042053 0,0.708688 4.6034,0.750356 6.563,0.05941 z M 98.619687,153.9158 c -0.498408,-0.49841 -0.597468,-2.72665 -0.222119,-4.99626 l 0.232579,-1.40642 1.789693,0.78517 c 0.98431,0.43185 1.84758,0.93446 1.91834,1.11692 0.0708,0.18246 0.37475,0.33174 0.67552,0.33174 0.6571,0 0.65426,-0.0374 0.11452,1.51077 -0.25964,0.74479 -1.02732,1.61563 -1.92235,2.18063 -1.699792,1.07303 -1.945341,1.11836 -2.586242,0.47745 z m 14.743103,-16.61747 c -0.55853,-0.90229 -1.50394,-2.16162 -2.10092,-2.79853 -1.68581,-1.7986 -1.60878,-2.23853 0.40473,-2.31154 1.52708,-0.0554 3.22639,0.55632 3.86005,1.38946 0.10621,0.13958 0.5404,0.32346 0.965,0.40864 0.59858,0.12008 0.74582,0.41194 0.65546,1.29917 -0.064,0.62936 -0.40129,1.36142 -0.74928,1.62679 -0.34801,0.26538 -0.48576,0.48251 -0.30613,0.48251 0.17964,0 0.0117,0.3474 -0.37205,0.77201 -0.97514,1.0775 -1.20455,0.99296 -2.35686,-0.86851 z m 4.47988,-5.69356 c -0.22724,-0.4246 -0.30221,-0.772 -0.1666,-0.772 0.13568,0 -0.30156,-0.62429 -0.97149,-1.38731 -1.47331,-1.678 -1.36623,-2.24217 0.45499,-2.3973 1.084,-0.0923 1.66466,0.13215 2.70533,1.04587 1.46061,1.28242 1.60281,2.27757 0.49964,3.49656 -0.90503,1.00002 -1.991,1.00613 -2.52187,0.0142 z m -55.64539,-2.85313 c -4.095545,-1.10131 -8.496805,-4.72836 -9.763987,-8.04643 l -0.697739,-1.82698 1.034894,-1.35681 c 0.56918,-0.74624 1.188429,-1.3568 1.376104,-1.3568 0.187689,0 0.830223,-0.19374 1.427881,-0.43054 1.513854,-0.59981 3.585071,-0.6273 4.060516,-0.0539 0.281089,0.33901 0.212899,0.7638 -0.2315,1.44205 -0.588481,0.89811 -0.578794,1.10806 0.146985,3.18646 0.999924,2.86342 3.308623,5.14982 6.196481,6.13663 2.506002,0.85632 2.955113,1.33492 1.803084,1.92151 -1.458956,0.74288 -3.480643,0.88822 -5.352719,0.38481 z m 60.27744,-5.05994 c -0.49863,-0.53076 -1.23513,-0.96501 -1.63668,-0.96501 -0.40155,0 -1.0773,-0.18582 -1.50166,-0.41293 -0.61613,-0.32974 -0.67925,-0.52413 -0.31336,-0.96501 0.252,-0.30364 0.86092,-0.55208 1.35316,-0.55208 0.49222,0 1.00013,-0.17015 1.12864,-0.3781 0.13364,-0.21622 0.51523,-0.24303 0.89129,-0.0626 0.36168,0.17352 1.17749,0.56676 1.81289,0.87387 1.43474,0.69345 1.64208,1.59452 0.60546,2.63114 -1.01718,1.01718 -1.2403,1.00103 -2.33974,-0.16928 z m -55.722688,-4.01473 c -1.585297,-2.56837 -1.68214,-3.25828 -0.748568,-5.33277 0.75878,-1.6861 3.124596,-4.35564 3.860077,-4.35564 0.646546,0 0.630979,0.3179 -0.115838,2.36399 -0.393278,1.07755 -0.637836,3.12147 -0.67552,5.64559 -0.03881,2.60162 -0.205502,3.95653 -0.486693,3.95653 -0.235205,1e-5 -1.060278,-1.02496 -1.833516,-2.2777 z m 24.327706,-8.78773 c -0.141514,-0.14153 -0.257337,-0.56448 -0.257337,-0.93988 0,-0.3754 -0.201695,-1.17154 -0.448192,-1.76919 -1.021837,-2.47737 -0.701693,-4.36767 0.739682,-4.36767 1.18096,0 2.551448,2.33081 1.685263,2.86615 -0.18661,0.11532 -0.248832,1.01205 -0.138305,1.99271 0.143994,1.27773 0.04873,1.87944 -0.336236,2.12321 -0.650937,0.4122 -0.907808,0.43174 -1.244875,0.0947 z m 4.194066,-0.22517 c -0.178644,-0.55105 -0.499459,-3.01572 -0.781131,-6.00099 -0.249459,-2.64381 0.561652,-3.66154 2.958061,-3.71158 1.498273,-0.0313 1.696598,0.0844 2.462628,1.43634 1.388728,2.45093 0.448298,5.24389 -2.4324,7.22394 -0.689977,0.47427 -1.254503,1.01361 -1.254503,1.19854 0,0.51743 -0.776142,0.39827 -0.952655,-0.14625 z m 8.158056,0.22517 c -0.35053,-0.35054 -0.31646,-7.93318 0.0381,-8.47568 0.56927,-0.87104 3.01759,-2.07224 4.22654,-2.07365 0.89338,-0.001 1.37052,0.24181 1.70357,0.86707 0.25445,0.47768 0.68903,1.04221 0.96573,1.25451 0.2767,0.2123 0.61789,1.12399 0.75821,2.02598 l 0.25511,1.63998 -2.10813,0.93231 c -1.15947,0.51277 -2.82501,1.64208 -3.70122,2.50956 -1.70385,1.68691 -1.74531,1.7125 -2.13789,1.31992 z"
       id="path836"
       inkscape:connector-curvature="0" />
  </g>
</svg>
