<?xml version="1.0" encoding="UTF-8" standalone="no"?>
<!-- Created with Inkscape (http://www.inkscape.org/) -->

<svg
   xmlns:dc="http://purl.org/dc/elements/1.1/"
   xmlns:cc="http://creativecommons.org/ns#"
   xmlns:rdf="http://www.w3.org/1999/02/22-rdf-syntax-ns#"
   xmlns:svg="http://www.w3.org/2000/svg"
   xmlns="http://www.w3.org/2000/svg"
   xmlns:sodipodi="http://sodipodi.sourceforge.net/DTD/sodipodi-0.dtd"
   xmlns:inkscape="http://www.inkscape.org/namespaces/inkscape"
   width="256mm"
   height="256mm"
   viewBox="0 0 256.00001 256.00002"
   version="1.1"
   id="svg952"
   inkscape:version="0.92.5 (2060ec1f9f, 2020-04-08)"
   sodipodi:docname="ebonheart.svg">
  <defs
     id="defs946" />
  <sodipodi:namedview
     id="base"
     pagecolor="#ffffff"
     bordercolor="#666666"
     borderopacity="1.0"
     inkscape:pageopacity="0.0"
     inkscape:pageshadow="2"
     inkscape:zoom="0.6089957"
     inkscape:cx="-201.86156"
     inkscape:cy="510.34645"
     inkscape:document-units="mm"
     inkscape:current-layer="layer1"
     showgrid="false"
     units="mm"
     inkscape:window-width="3840"
     inkscape:window-height="2056"
     inkscape:window-x="0"
     inkscape:window-y="50"
     inkscape:window-maximized="1"
     showguides="true"
     inkscape:guide-bbox="true" />
  <metadata
     id="metadata949">
    <rdf:RDF>
      <cc:Work
         rdf:about="">
        <dc:format>image/svg+xml</dc:format>
        <dc:type
           rdf:resource="http://purl.org/dc/dcmitype/StillImage" />
        <dc:title></dc:title>
      </cc:Work>
    </rdf:RDF>
  </metadata>
  <g
     inkscape:label="Layer 1"
     inkscape:groupmode="layer"
     id="layer1"
     transform="translate(0,-40.999976)">
    <rect
       style="fill:#1a1a1a;fill-opacity:1;stroke:none;stroke-width:0.83444387;stroke-opacity:1"
       id="rect816"
       width="256"
       height="256"
       x="0"
       y="40.999977" />
    <path
       style="fill:#ffffff;stroke-width:4.05169106"
       d="m 116.86733,279.52002 c -11.95817,-6.53932 -23.476891,-13.62456 -25.597133,-15.74471 -5.424769,-5.4248 -14.589977,-4.75728 -27.557367,2.00729 -6.128178,3.19669 -11.142147,4.06236 -11.142147,1.92368 0,-2.19825 -4.739322,-2.69915 -10.902246,-1.1531 -10.029224,2.51707 -9.137,0.62326 11.142147,-23.64401 12.124414,-14.50921 29.793257,-31.37089 39.264091,-37.47055 9.470815,-6.09966 17.219685,-12.74602 17.219685,-14.76985 0,-2.02383 3.1907,-3.7054 7.09046,-3.73679 3.89974,-0.0306 15.10063,-7.28156 24.89088,-16.11116 14.00187,-12.6281 16.42388,-16.58204 11.34985,-18.52915 -6.7944,-2.60727 -11.35325,0.26339 -33.97264,21.39476 -11.98105,11.19278 -15.05754,12.34266 -21.784168,8.14172 -9.351925,-5.84041 -10.179128,-11.04577 -1.755307,-11.04577 3.342641,0 6.077535,-2.73498 6.077535,-6.07761 0,-3.34262 1.70502,-6.07746 3.78892,-6.07746 2.08391,0 8.92114,-7.20392 15.19385,-16.00855 6.27271,-8.80464 15.05143,-16.55341 19.5083,-17.2197 10.57754,-1.58096 10.896,-16.76918 0.39401,-18.79163 -4.24015,-0.81621 -9.18605,1.15464 -10.99088,4.37904 -2.18439,3.90326 -11.11698,6.11973 -26.71766,6.62951 -19.764144,0.64623 -24.869734,2.43423 -32.585643,11.41375 -9.938125,11.56581 -9.843365,11.57638 -16.842696,-1.8736 -5.970541,-11.47301 2.739428,-26.06844 16.743143,-28.056742 13.933242,-1.978195 35.225756,-14.336171 41.696406,-24.20004 3.7466,-5.711315 8.48318,-8.057952 13.57636,-6.725986 4.30222,1.125541 12.88323,-1.271018 19.06891,-5.323577 7.4931,-4.909653 11.75793,-5.835353 12.77853,-2.773576 1.03534,3.105726 9.3445,1.533797 25.63212,-4.849319 27.28543,-10.693094 30.71824,-7.569605 9.91948,9.025763 -16.1386,12.877102 -17.71648,17.392434 -6.07766,17.392434 8.90276,0 10.41456,4.171544 3.87997,10.706111 -4.94464,4.944722 1.70432,11.697502 14.35264,14.576742 7.45999,1.69827 7.29914,2.18325 -2.02585,6.10778 -8.20146,3.45166 -8.8941,4.76449 -3.63942,6.89765 4.31188,1.75049 5.85564,5.95205 4.60015,12.51969 -1.45355,7.60406 0.30581,10.69708 7.62458,13.4045 l 9.51422,3.51949 -9.42018,2.98981 c -9.42415,2.99118 -9.69575,5.79278 -2.37446,24.49298 3.09423,7.90344 2.9635,7.92013 -5.29541,0.67686 -8.24167,-7.22811 -8.58864,-7.20116 -12.98465,1.01222 -3.23513,6.045 -3.28617,10.73888 -0.17994,16.543 4.67731,8.73955 0.40841,10.94285 -6.94824,3.58611 -6.34825,-6.34821 -18.72962,18.51093 -16.09194,32.30914 1.92982,10.0951 1.7646,10.2026 -3.87278,2.51876 -3.23872,-4.41457 -5.06035,-11.21712 -4.04805,-15.11685 1.01237,-3.89973 0.39769,-7.09045 -1.36581,-7.09045 -5.22595,0 -16.2559,19.23404 -16.76342,29.2322 -0.34838,6.86289 -0.94959,7.42398 -2.32295,2.16839 -2.12711,-8.13972 -9.13245,-9.58363 -9.82869,-2.02582 -1.94109,21.07058 7.90649,32.8687 25.36953,30.39465 13.45855,-1.90668 11.38983,4.79725 -4.2313,13.71199 -11.19349,6.38787 -12.40397,6.19691 -33.35714,-5.2614 z m 8.63378,-185.719095 c 0,-2.228417 -3.64652,-4.05164 -8.10337,-4.05164 -4.45686,0 -8.10338,1.823223 -8.10338,4.05164 0,2.228417 3.64652,4.051793 8.10338,4.051793 4.45685,0 8.10337,-1.823376 8.10337,-4.051793 z"
       id="path1312"
       inkscape:connector-curvature="0" />
  </g>
</svg>
