<?xml version="1.0" encoding="UTF-8" standalone="no"?>
<!-- Created with Inkscape (http://www.inkscape.org/) -->

<svg
   xmlns:dc="http://purl.org/dc/elements/1.1/"
   xmlns:cc="http://creativecommons.org/ns#"
   xmlns:rdf="http://www.w3.org/1999/02/22-rdf-syntax-ns#"
   xmlns:svg="http://www.w3.org/2000/svg"
   xmlns="http://www.w3.org/2000/svg"
   xmlns:sodipodi="http://sodipodi.sourceforge.net/DTD/sodipodi-0.dtd"
   xmlns:inkscape="http://www.inkscape.org/namespaces/inkscape"
   width="256mm"
   height="256mm"
   viewBox="0 0 256.00001 256.00002"
   version="1.1"
   id="svg952"
   inkscape:version="0.92.5 (2060ec1f9f, 2020-04-08)"
   sodipodi:docname="elden-root.svg">
  <defs
     id="defs946" />
  <sodipodi:namedview
     id="base"
     pagecolor="#ffffff"
     bordercolor="#666666"
     borderopacity="1.0"
     inkscape:pageopacity="0.0"
     inkscape:pageshadow="2"
     inkscape:zoom="1.2179914"
     inkscape:cx="9.8189869"
     inkscape:cy="540.37022"
     inkscape:document-units="mm"
     inkscape:current-layer="layer1"
     showgrid="false"
     units="mm"
     inkscape:window-width="3840"
     inkscape:window-height="2056"
     inkscape:window-x="0"
     inkscape:window-y="50"
     inkscape:window-maximized="1"
     showguides="true"
     inkscape:guide-bbox="true" />
  <metadata
     id="metadata949">
    <rdf:RDF>
      <cc:Work
         rdf:about="">
        <dc:format>image/svg+xml</dc:format>
        <dc:type
           rdf:resource="http://purl.org/dc/dcmitype/StillImage" />
        <dc:title></dc:title>
      </cc:Work>
    </rdf:RDF>
  </metadata>
  <g
     inkscape:label="Layer 1"
     inkscape:groupmode="layer"
     id="layer1"
     transform="translate(0,-40.999976)">
    <rect
       style="fill:#1a1a1a;fill-opacity:1;stroke:none;stroke-width:0.83444387;stroke-opacity:1"
       id="rect816"
       width="256"
       height="256"
       x="0"
       y="40.999977" />
    <path
       style="fill:#ffffff;stroke-width:0.80937105"
       d="m 117.34505,288.19189 c -11.45644,-2.22209 -22.82693,-6.99621 -33.92733,-14.24507 -8.30676,-5.4245 -14.6796,-11.55411 -21.6617,-20.8349 -3.09798,-4.1179 -7.22295,-8.58119 -9.16657,-9.91845 -7.63292,-5.25158 -13.27721,-15.03041 -14.97501,-25.94449 -1.28045,-8.23101 -0.19394,-10.17769 2.49183,-4.46417 1.28587,2.73551 2.93977,4.54444 5.92252,6.47754 4.65063,3.01404 7.78565,6.18009 9.6755,9.77119 l 1.27782,2.42811 0.0324,-2.07712 c 0.12939,-8.29232 -3.89358,-18.35861 -11.1652,-27.93781 -7.36959,-9.70826 -8.74123,-14.78 -6.09639,-22.54219 1.02653,-3.01266 1.13384,-4.49021 0.4807,-6.61835 -0.54117,-1.76333 -0.56029,-2.91322 -0.0535,-3.22634 0.43297,-0.26767 0.85405,-0.35901 0.93573,-0.20312 1.47653,2.81786 2.32303,3.77745 4.53374,5.13961 5.63365,3.47119 11.07528,8.33916 13.24509,11.8487 2.64191,4.27324 3.38905,8.6387 4.57376,26.72454 0.85307,13.02337 2.59884,20.28046 5.44729,22.64445 1.1487,0.95332 1.23368,0.72399 0.79765,-2.15203 -2.80313,-18.48819 -3.30585,-56.31255 -0.98407,-74.03902 1.99802,-15.25482 5.34338,-27.89037 9.72439,-36.72956 2.01211,-4.05965 4.52123,-8.41281 5.57586,-9.67372 l 1.91747,-2.29254 3.74983,5.25491 3.74983,5.25491 -3.58522,8.36883 c -4.6168,10.77682 -7.50478,20.85966 -8.21285,28.67355 l -0.56329,6.21618 7.6081,-7.68195 c 7.17321,-7.24283 16.7629,-14.40539 22.42925,-16.75247 2.30484,-0.95469 3.00242,-0.8275 7.81643,1.42524 2.90716,1.36045 5.28575,2.7866 5.28575,3.16929 0,0.38269 -2.45846,2.49306 -5.46326,4.68972 -12.08496,8.83472 -24.96263,24.00463 -30.21965,35.59876 -2.42741,5.3535 -5.10349,15.20795 -4.56696,16.8175 0.43726,1.31177 6.83402,-7.12212 9.67381,-12.75461 3.98532,-7.90453 8.33837,-13.75767 13.66881,-18.37917 2.7438,-2.37886 7.07846,-6.24931 9.63261,-8.60095 4.41918,-4.06889 4.66779,-4.18636 5.13882,-2.42811 0.27225,1.01618 0.49363,4.94343 0.49198,8.72725 -0.009,19.20949 -7.9617,33.75333 -23.50897,42.9898 -10.94377,6.50155 -15.29339,12.92805 -15.30783,22.61691 -0.006,3.13748 0.43001,5.90744 1.06283,6.7729 0.96476,1.3194 1.25081,0.97054 2.8896,-3.52398 2.00465,-5.49795 5.93017,-10.58091 8.17152,-10.58091 1.36418,0 1.35274,0.31814 -0.21107,5.86794 -2.25503,8.00321 -2.44176,25.38553 -0.3223,30.00138 2.33362,5.08217 7.47841,10.00728 12.55577,12.01961 4.09348,1.62243 6.03555,1.81845 18.33766,1.851 13.43169,0.0355 13.86801,-0.0184 18.32536,-2.20594 5.56146,-2.73114 10.63534,-8.06522 13.51497,-14.20802 1.9018,-4.0569 2.14594,-5.53848 2.09073,-12.687 -0.0514,-6.6613 -0.45794,-9.21514 -2.2967,-14.43032 -1.22879,-3.48513 -2.02236,-6.54839 -1.76351,-6.80725 1.23531,-1.2353 8.49826,8.47838 10.58205,14.15274 l 1.11566,3.03797 0.0572,-6.24228 c 0.10524,-11.52539 -4.67543,-19.77379 -16.10131,-27.78009 -11.43528,-8.01291 -16.76862,-15.23246 -19.40404,-26.26657 -2.99138,-12.52441 -2.74406,-23.01582 0.56809,-24.09832 0.5625,-0.18385 5.50646,4.1594 10.9866,9.65167 9.1543,9.17452 10.34546,10.72664 14.65987,19.10226 4.90829,9.52858 10.48783,17.99759 11.85715,17.99759 1.9535,0 -2.19076,-14.85782 -6.635,-23.7874 C 156.23505,166.1591 146.1271,155.54741 127.569,143.32747 102.53865,126.84579 90.16291,115.1192 84.13516,102.17197 82.24905,98.120727 81.32607,90.203074 82.74467,90.243882 c 0.33387,0.0092 2.06391,2.077669 3.84454,4.595749 4.38618,6.202719 15.79144,17.608629 23.12408,23.125399 3.30728,2.48825 10.9302,7.12343 16.93977,10.30036 6.00958,3.17694 14.56868,8.19181 19.02023,11.14415 9.05001,6.00217 23.50401,19.74035 26.17036,24.87434 2.08094,4.00679 2.19673,2.53441 0.54072,-6.87565 -2.19688,-12.48346 -5.49003,-24.28695 -8.49456,-30.44663 l -2.96146,-6.0714 3.6079,-5.22542 c 4.21416,-6.10349 4.12401,-6.12649 9.44573,2.41184 16.08581,25.8086 20.65008,67.4358 12.52475,114.22829 -0.90511,5.21233 -1.49541,9.62722 -1.31178,9.81089 0.53111,0.53108 4.46256,-9.38715 5.76541,-14.54482 1.43915,-5.69737 2.60658,-14.52995 3.28345,-24.84197 0.71034,-10.82237 2.81199,-16.77642 7.87847,-22.31995 2.2579,-2.47051 5.85564,-5.3788 7.99501,-6.4629 2.13934,-1.08409 4.28529,-2.71021 4.76877,-3.61358 1.44977,-2.7089 2.32594,-1.04307 1.85442,3.52564 -0.3182,3.0829 -0.0734,5.00608 0.86898,6.82854 2.74004,5.29865 0.79609,12.32187 -5.35528,19.34794 -8.38339,9.5755 -12.75772,18.8703 -12.75772,27.10835 v 4.23084 l 2.29703,-3.59829 c 2.14292,-3.35684 6.50581,-7.63178 12.11187,-11.8677 1.32414,-1.00049 2.59211,-2.88051 2.86583,-4.24919 0.8346,-4.17302 2.15017,-2.75586 2.15017,2.31622 0,6.03279 -2.48856,14.16656 -5.87586,19.20498 -1.4424,2.14549 -6.1655,7.00876 -10.49579,10.80729 -4.33028,3.7985 -9.65592,9.27222 -11.83472,12.16378 -4.59596,6.09948 -15.04234,16.29652 -20.64154,20.14889 -5.41622,3.72646 -17.73011,9.36094 -23.99548,10.97969 -7.12233,1.84013 -21.58199,2.29927 -28.73268,0.91233 z m 1.21407,-14.54819 c -9.2629,-2.04683 -13.91805,-5.9776 -18.39123,-15.52933 -1.98758,-4.24415 -2.24775,-5.73647 -2.24775,-12.8934 0,-7.09682 0.28908,-8.78654 2.34613,-13.71894 3.85791,-9.25005 7.69487,-15.09655 13.88569,-21.15806 6.62288,-6.48455 8.68104,-9.95898 10.17018,-17.16874 0.56968,-2.75822 1.46497,-5.0149 1.98953,-5.0149 0.52454,0 1.55953,2.41169 2.29994,5.35935 1.94519,7.74377 3.99841,11.27504 10.56764,18.17492 6.8257,7.16928 12.23693,14.8546 14.32105,20.33958 1.79973,4.73653 2.00061,16.83335 0.3803,22.89924 -3.00489,11.24907 -8.26023,16.30114 -19.3023,18.55577 -7.24053,1.47844 -9.91123,1.50419 -16.01918,0.15448 z m 6.09244,-9.42701 c 2.93687,-3.24518 -0.8208,-7.9573 -5.08072,-6.37128 -1.06871,0.39789 -1.82111,1.35758 -1.82111,2.32286 0,2.41055 -1.19135,2.02031 -3.91331,-1.28186 -3.03695,-3.68437 -4.65981,-3.05075 -2.94252,1.14888 1.77127,4.33172 3.93423,5.82466 8.43882,5.82466 2.82288,0 4.22328,-0.43264 5.31884,-1.64326 z m 14.6953,-0.98721 c 4.36592,-4.61264 5.32756,-8.32799 3.44032,-13.29184 -0.9818,-2.58232 -5.70778,-9.10541 -6.62426,-9.14319 -1.34087,-0.0554 -0.48602,4.12823 1.41642,6.93163 1.14574,1.68837 2.0234,4.13857 2.0234,5.64885 0,5.95228 -3.23493,9.56837 -5.50345,6.15182 -2.10689,-3.17311 -6.63711,-1.81777 -6.63711,1.98572 0,2.7903 2.13805,4.34748 5.96932,4.34748 2.81447,0 3.86978,-0.46929 5.91536,-2.63047 z m -1.52175,-8.40016 c 0.2022,-1.4186 -0.29306,-1.82395 -2.80484,-2.29516 -4.37103,-0.82001 -7.06421,-2.40548 -9.87158,-5.81132 -2.08945,-2.53482 -2.64806,-2.82671 -3.71502,-1.94121 -1.83904,1.52628 -1.57189,2.61153 1.53689,6.24344 3.53068,4.12481 7.23533,5.99199 11.37128,5.7312 2.60685,-0.16427 3.28538,-0.5397 3.48327,-1.92695 z m -14.57976,0.79957 c 1.75675,-0.4706 1.78186,-0.57558 0.48159,-2.01238 -0.89908,-0.99346 -2.47195,-1.51588 -4.56394,-1.51588 -4.22973,0 -8.49162,-2.11019 -9.94732,-4.92518 -1.69642,-3.28054 -1.48006,-3.97791 1.23429,-3.97791 1.89795,0 2.52096,-0.4313 2.9201,-2.0216 0.70948,-2.82683 -0.0554,-4.31683 -2.53579,-4.93937 -2.60689,-0.65427 -6.01083,1.62915 -7.04255,4.72429 -1.512,4.53594 2.18293,11.9346 7.00969,14.03619 2.61784,1.1398 9.28413,1.47828 12.44393,0.63184 z m 26.14296,-5.28357 c 1.27088,-2.37473 0.47696,-9.24531 -1.29459,-11.20282 -1.87289,-2.06956 -5.40162,-2.06399 -7.27987,0.0122 -1.21291,1.34026 -1.30802,1.97299 -0.54748,3.64219 0.72775,1.59721 1.51707,2.02012 3.77058,2.02012 3.19685,0 3.81685,1.63714 1.56313,4.12748 -0.79764,0.88137 -1.08473,2.05946 -0.755,3.09825 0.43215,1.36164 0.82203,1.5209 2.07783,0.84882 0.85019,-0.455 1.95965,-1.60049 2.4654,-2.54551 z m -33.66908,-2.27785 c 1.50814,-2.9164 4.77247,-4.72203 9.77697,-5.40799 3.75735,-0.51499 5.3487,-2.06855 3.75319,-3.66409 -1.32132,-1.32132 -9.41431,0.002 -12.42677,2.03228 -1.44515,0.97387 -3.34735,3.00321 -4.22716,4.50964 -1.55693,2.66583 -1.55938,2.76833 -0.0915,3.84175 1.94167,1.41976 1.76559,1.49159 3.21518,-1.31159 z m 17.60964,-1.63481 c 0.78122,-1.56247 1.41514,-4.64329 1.41514,-6.87728 0,-3.9472 -2.0045,-9.37384 -3.63965,-9.85344 -0.44515,-0.13062 -1.31866,0.0847 -1.94114,0.47843 -0.9598,0.6071 -0.92906,1.22236 0.2022,4.05008 1.65855,4.14512 1.6807,6.57082 0.0945,10.36669 -0.68168,1.63151 -1.04702,3.46782 -0.81184,4.0807 0.73028,1.90303 3.19841,0.71906 4.68045,-2.24518 z m -9.12653,-11.68135 c 1.84494,-4.30407 4.88168,-6.49033 9.01506,-6.49033 3.49308,0 4.67984,0.7784 3.29627,2.16201 -2.30909,2.30905 -0.52411,6.2996 2.8178,6.2996 2.22594,0 3.50878,-2.17357 3.50878,-5.94512 0,-5.60511 -7.36862,-8.76798 -14.31365,-6.14396 -4.345,1.64163 -8.23738,6.36369 -9.46464,11.48204 -0.47632,1.98654 -0.31147,2.22576 1.53393,2.22576 1.67516,0 2.35968,-0.68137 3.60645,-3.59 z m -6.91511,0.69939 c 1.47801,-1.478 1.67079,-4.48042 0.37115,-5.78005 -1.39143,-1.39147 -0.0859,-2.65779 2.7696,-2.68627 2.87063,-0.0275 6.04261,-1.91924 4.65687,-2.77568 -0.47051,-0.29092 -2.71196,-0.5431 -4.98101,-0.56066 -3.43432,-0.0275 -4.51958,0.34555 -6.4773,2.22117 -3.03154,2.9044 -3.30594,7.66513 -0.55295,9.59342 2.24041,1.56923 2.63362,1.56813 4.21364,-0.0122 z m 19.2603,-105.31204 -5.07868,-2.79159 8.72083,-6.31774 c 11.68921,-8.46816 22.66966,-18.29129 27.23485,-24.36434 2.05904,-2.739125 3.74369,-5.329857 3.74369,-5.757174 0,-0.427318 0.36424,-0.55182 0.80939,-0.276843 2.18923,1.353044 -1.39333,11.154697 -7.2053,19.713187 -5.49936,8.09817 -20.4305,23.07593 -22.61178,22.68239 -0.29397,-0.0529 -2.81973,-1.35262 -5.613,-2.88801 z M 98.82797,104.08567 c -4.69152,-4.763138 -4.74931,-4.577057 4.07712,-13.127074 5.92952,-5.743776 11.38495,-9.982902 25.27245,-19.637875 6.74359,-4.688346 14.03374,-11.60636 17.89165,-16.978413 3.65696,-5.092228 4.13035,-3.377854 0.81948,2.967801 -4.92272,9.43493 -9.94582,15.546342 -25.05883,30.488192 -8.3297,8.235365 -16.03554,16.159589 -17.1241,17.609429 l -1.9792,2.63603 z m 49.05388,-1.04797 c -8.92579,-8.171486 -14.88932,-14.043559 -16.4532,-16.200885 l -1.57705,-2.175559 2.53129,-2.883023 c 1.39223,-1.585654 3.0822,-2.883023 3.75546,-2.883023 2.06127,0 8.4379,5.187061 15.92699,12.9558 3.92248,4.068951 6.85524,6.950689 6.51731,6.403855 -0.38528,-0.623371 -0.27898,-0.786968 0.28449,-0.438544 1.60116,0.989569 -1.08654,6.018689 -4.36436,8.166379 -1.93683,1.26905 -2.09471,1.19884 -6.62105,-2.945 z M 116.77389,71.003865 C 112.81935,66.788508 104.7998,52.848239 104.7998,50.189462 c 0,-1.937875 1.13754,-1.46473 2.65516,1.104368 0.76197,1.28993 4.85371,5.992969 9.09272,10.451153 l 7.70731,8.105838 -2.14772,1.689416 c -2.72493,2.143439 -2.82918,2.132947 -5.33338,-0.536372 z"
       id="path1376"
       inkscape:connector-curvature="0" />
  </g>
</svg>
