<?xml version="1.0" encoding="UTF-8" standalone="no"?>
<!-- Created with Inkscape (http://www.inkscape.org/) -->

<svg
   xmlns:dc="http://purl.org/dc/elements/1.1/"
   xmlns:cc="http://creativecommons.org/ns#"
   xmlns:rdf="http://www.w3.org/1999/02/22-rdf-syntax-ns#"
   xmlns:svg="http://www.w3.org/2000/svg"
   xmlns="http://www.w3.org/2000/svg"
   xmlns:sodipodi="http://sodipodi.sourceforge.net/DTD/sodipodi-0.dtd"
   xmlns:inkscape="http://www.inkscape.org/namespaces/inkscape"
   width="256mm"
   height="256mm"
   viewBox="0 0 256.00001 256.00002"
   version="1.1"
   id="svg952"
   inkscape:version="0.92.5 (2060ec1f9f, 2020-04-08)"
   sodipodi:docname="empire.svg">
  <defs
     id="defs946" />
  <sodipodi:namedview
     id="base"
     pagecolor="#ffffff"
     bordercolor="#666666"
     borderopacity="1.0"
     inkscape:pageopacity="0.0"
     inkscape:pageshadow="2"
     inkscape:zoom="0.86124998"
     inkscape:cx="-29.461583"
     inkscape:cy="383.0845"
     inkscape:document-units="mm"
     inkscape:current-layer="layer1"
     showgrid="false"
     units="mm"
     inkscape:window-width="3840"
     inkscape:window-height="2056"
     inkscape:window-x="0"
     inkscape:window-y="50"
     inkscape:window-maximized="1"
     showguides="true"
     inkscape:guide-bbox="true" />
  <metadata
     id="metadata949">
    <rdf:RDF>
      <cc:Work
         rdf:about="">
        <dc:format>image/svg+xml</dc:format>
        <dc:type
           rdf:resource="http://purl.org/dc/dcmitype/StillImage" />
        <dc:title />
      </cc:Work>
    </rdf:RDF>
  </metadata>
  <g
     inkscape:label="Layer 1"
     inkscape:groupmode="layer"
     id="layer1"
     transform="translate(0,-40.999976)">
    <rect
       style="fill:#1a1a1a;fill-opacity:1;stroke:none;stroke-width:0.83444387;stroke-opacity:1"
       id="rect816"
       width="256"
       height="256"
       x="0"
       y="40.999977" />
    <path
       style="fill:#ffffff;stroke-width:0.17011118"
       d="m 127.56355,285.59492 c -1.05439,-1.94845 -3.12371,-5.7626 -4.59849,-8.47587 -1.47477,-2.71328 -4.25705,-7.84213 -6.18282,-11.39745 l -3.5014,-6.46423 7.5084,-0.0443 7.5084,-0.0443 -0.10484,-1.31657 c -0.32387,-4.06694 -2.051,-7.12239 -7.52337,-13.30942 -5.81745,-6.57717 -7.11203,-8.91777 -7.33897,-13.26867 -0.27025,-5.18155 1.71877,-9.11066 8.86984,-17.52145 3.00614,-3.53569 5.028,-6.14722 5.5473,-7.16515 0.34799,-0.68212 0.34804,-0.68598 0.0147,-1.25101 -0.18392,-0.31174 -1.30607,-1.84735 -2.49366,-3.41248 -4.6829,-6.17164 -7.15871,-10.60224 -9.09843,-16.28224 l -0.56641,-1.65858 h -1.33239 -1.3324 l -1.89385,3.78472 -1.89384,3.78471 -1.89172,-3.78797 -1.89172,-3.78798 -3.57247,0.0458 -3.572495,0.0458 0.015,3.74245 c 0.0165,4.12549 0.21591,6.37967 0.85543,9.67222 1.013225,5.2165 3.301175,9.5383 5.732345,10.82803 l 0.76133,0.40388 0.11303,3.75223 c 0.0622,2.06372 0.0893,11.67514 0.0604,21.35871 l -0.0527,17.60652 -0.9949,-2.04134 c -1.03245,-2.1184 -11.293535,-24.00276 -16.271305,-34.70268 -1.56693,-3.3682 -6.23617,-13.35799 -10.37606,-22.19952 -4.1399,-8.84153 -7.969,-17.03237 -8.50911,-18.20189 -0.54012,-1.16951 -1.34252,-2.89189 -1.78311,-3.8275 -2.71424,-5.7638 -7.74037,-16.59615 -7.74037,-16.68212 0,-0.09 0.84502,-1.97859 3.91485,-8.74951 0.44541,-0.98239 2.28162,-5.03954 4.08047,-9.01589 1.79885,-3.97635 3.84592,-8.4928 4.54904,-10.03656 2.99634,-6.57869 3.33359,-7.35672 11.98269,-27.643073 2.43327,-5.70723 4.75319,-11.14228 5.15537,-12.07789 0.40218,-0.93561 2.83801,-6.63859 5.41295,-12.67329 2.57494,-6.03469 5.955815,-13.957619 7.513055,-17.606504 1.55725,-3.648884 2.90338,-6.707058 2.99143,-6.795942 0.10002,-0.10099 0.16005,3.972148 0.16005,10.859395 v 11.021001 l -1.81048,5.89656 c -0.99578,3.2431 -1.94452,6.35585 -2.10835,6.91722 -0.16382,0.56137 -0.56765,1.90099 -0.8974,2.97695 -0.7723,2.5199 -3.309525,10.84163 -5.160645,16.926063 -0.79701,2.61971 -1.72021,5.64344 -2.05155,6.71939 -0.53904,1.75048 -1.47868,4.86789 -1.70485,5.6562 -0.0803,0.28001 0.32233,0.29769 6.77888,0.29769 h 6.864285 l -7.671605,7.69754 c -4.21939,4.23364 -7.90161,8.042 -8.18272,8.46303 -2.52133,3.77622 -3.25068,8.62997 -1.89949,12.64091 0.83824,2.48826 2.7038,5.60578 4.57758,7.64952 l 1.05705,1.15293 2.30818,-0.0472 2.30819,-0.0472 3.682405,-7.35665 c 2.02532,-4.04616 3.72937,-7.40362 3.78676,-7.46102 0.0574,-0.0574 1.793,3.27224 3.85689,7.39919 l 3.75253,7.50354 h 3.22169 c 1.99365,0 3.26232,-0.0657 3.32829,-0.17247 0.0586,-0.0949 -0.1706,-1.13905 -0.50938,-2.32044 -0.58632,-2.04457 -1.31484,-3.97083 -3.63965,-9.6236 -1.87616,-4.56188 -2.51705,-7.63475 -2.35128,-11.27378 0.14567,-3.19785 0.69592,-5.32593 2.15819,-8.34675 2.08994,-4.31751 5.01675,-7.13616 12.93127,-12.45342 5.10394,-3.42901 6.72758,-4.99776 7.15655,-6.91456 0.11321,-0.50589 0.16372,-1.02958 0.11224,-1.16375 -0.14758,-0.38457 -1.66623,-0.4657 -8.7174,-0.4657 -7.14353,0 -8.25977,0.10374 -11.0021,1.0225 -2.97479,0.99665 -6.42748,3.03699 -8.75556,5.17403 -0.67001,0.61504 -1.27494,1.11825 -1.34429,1.11825 -0.21807,0 0.0874,-4.197 0.43659,-5.99829 0.77549,-4.000443 2.44651,-7.976803 4.49038,-10.685283 1.34633,-1.78412 3.81021,-4.15815 5.21617,-5.02596 l 1.04386,-0.64431 3.74709,-7.49265 3.74708,-7.49266 3.7625,7.52729 3.7625,7.52729 2.04223,5.1e-4 c 7.72001,0.002 12.15181,2.3496 14.9307,7.90969 2.54568,5.09346 2.31387,11.017983 -0.65611,16.768393 -2.14387,4.15094 -5.15531,7.0776 -11.89214,11.55739 -3.38778,2.25278 -5.29057,3.69807 -6.46336,4.90936 -1.41158,1.45793 -1.68087,2.03058 -1.69001,3.59394 -0.008,1.4113 0.41082,2.84638 1.98703,6.80444 2.54394,6.38817 3.4506,9.20468 4.29447,13.34078 l 0.55795,2.73473 h 4.05918 4.05919 l 3.76433,-7.48288 3.76433,-7.48289 3.76347,7.52541 3.76346,7.52542 h 2.01929 2.01929 l 0.66267,-0.72297 c 3.02703,-3.30251 5.12869,-7.50495 5.46744,-10.93265 0.34901,-3.53145 -0.61056,-7.18356 -2.63196,-10.01718 -0.34014,-0.47685 -3.99213,-4.25431 -8.11552,-8.39439 l -7.49703,-7.52744 h 6.73099 c 3.70205,0 6.77032,-0.0393 6.8184,-0.0874 0.0481,-0.0481 -1.31839,-4.69849 -3.03657,-10.33426 -1.71818,-5.63577 -3.70319,-12.160603 -4.41113,-14.499633 -0.70794,-2.33903 -1.50468,-4.94173 -1.77054,-5.78378 -0.26585,-0.84205 -0.82952,-2.67925 -1.25259,-4.08267 -0.42307,-1.40342 -1.30912,-4.31542 -1.969,-6.4711 l -1.19977,-3.91944 0.0139,-11.135404 0.0139,-11.135405 0.4833,1.020667 c 0.26581,0.561367 2.83234,6.53227 5.7034,13.268673 2.87105,6.736399 5.7766,13.549359 6.45677,15.139899 1.07977,2.52498 5.63853,13.21108 12.11929,28.408573 3.99313,9.36397 5.48073,12.80919 6.39031,14.79967 0.51304,1.12273 2.02237,4.45266 3.35406,7.39984 1.33169,2.94717 3.22359,7.11915 4.20423,9.27106 0.98064,2.1519 2.57221,5.6732 3.53681,7.82511 0.9646,2.1519 2.14654,4.75077 2.62654,5.77526 l 0.87271,1.8627 -2.28694,4.94174 c -1.2578,2.71797 -4.33217,9.38165 -6.83191,14.8082 -5.39831,11.71886 -11.88126,25.78783 -18.02897,39.12558 -2.45811,5.33298 -6.09001,13.21763 -8.07088,17.52145 -7.88412,17.12972 -9.76715,21.1743 -9.82918,21.11226 -0.13634,-0.13635 -0.7597,-39.83327 -0.64678,-41.18879 0.099,-1.18829 0.17292,-1.44605 0.43902,-1.53051 0.7206,-0.2287 2.36518,-1.63972 3.18126,-2.72942 1.99632,-2.6657 3.35461,-6.51958 4.04324,-11.47195 0.15122,-1.08743 0.31558,-3.82619 0.37008,-6.16653 l 0.0981,-4.21025 h -3.93522 -3.93522 l -1.89385,3.78471 -1.89386,3.78471 -1.89009,-3.78471 -1.89009,-3.78471 h -5.65796 c -3.11188,0 -5.65797,0.0591 -5.65797,0.1315 0,0.19279 1.95949,3.68406 2.58531,4.60629 0.29515,0.43495 1.69669,2.3601 3.11452,4.2781 3.0836,4.1714 3.78413,5.19975 4.47321,6.56646 2.08346,4.13234 1.96826,8.71832 -0.33285,13.24946 -1.40634,2.76924 -2.77442,4.64519 -7.22334,9.9048 -4.87171,5.75948 -5.94165,7.3222 -5.53304,8.08144 0.11479,0.2133 1.55044,1.91881 3.19033,3.79003 3.32747,3.79684 4.82053,5.70769 6.32207,8.09107 2.94992,4.68237 4.52203,9.23823 4.97639,14.42114 l 0.17016,1.94105 -1.2601,2.74315 c -4.16121,9.05865 -9.06908,19.77729 -10.60293,23.1565 -0.97677,2.15191 -1.83734,3.97575 -1.91238,4.05298 -0.075,0.0772 -0.99911,-1.45378 -2.05351,-3.40222 z"
       id="path4757"
       inkscape:connector-curvature="0" />
  </g>
</svg>
