<?xml version="1.0" encoding="UTF-8" standalone="no"?>
<!-- Created with Inkscape (http://www.inkscape.org/) -->

<svg
   xmlns:dc="http://purl.org/dc/elements/1.1/"
   xmlns:cc="http://creativecommons.org/ns#"
   xmlns:rdf="http://www.w3.org/1999/02/22-rdf-syntax-ns#"
   xmlns:svg="http://www.w3.org/2000/svg"
   xmlns="http://www.w3.org/2000/svg"
   xmlns:sodipodi="http://sodipodi.sourceforge.net/DTD/sodipodi-0.dtd"
   xmlns:inkscape="http://www.inkscape.org/namespaces/inkscape"
   width="256mm"
   height="256mm"
   viewBox="0 0 256.00001 256.00002"
   version="1.1"
   id="svg952"
   inkscape:version="0.92.5 (2060ec1f9f, 2020-04-08)"
   sodipodi:docname="empire.svg">
  <defs
     id="defs946" />
  <sodipodi:namedview
     id="base"
     pagecolor="#ffffff"
     bordercolor="#666666"
     borderopacity="1.0"
     inkscape:pageopacity="0.0"
     inkscape:pageshadow="2"
     inkscape:zoom="1.2179914"
     inkscape:cx="207.54403"
     inkscape:cy="511.28794"
     inkscape:document-units="mm"
     inkscape:current-layer="layer1"
     showgrid="false"
     units="mm"
     inkscape:window-width="3840"
     inkscape:window-height="2056"
     inkscape:window-x="0"
     inkscape:window-y="50"
     inkscape:window-maximized="1"
     showguides="true"
     inkscape:guide-bbox="true" />
  <metadata
     id="metadata949">
    <rdf:RDF>
      <cc:Work
         rdf:about="">
        <dc:format>image/svg+xml</dc:format>
        <dc:type
           rdf:resource="http://purl.org/dc/dcmitype/StillImage" />
        <dc:title></dc:title>
      </cc:Work>
    </rdf:RDF>
  </metadata>
  <g
     inkscape:label="Layer 1"
     inkscape:groupmode="layer"
     id="layer1"
     transform="translate(0,-40.999976)">
    <rect
       style="fill:#1a1a1a;fill-opacity:1;stroke:none;stroke-width:0.83444387;stroke-opacity:1"
       id="rect816"
       width="256"
       height="256"
       x="0"
       y="40.999977" />
    <path
       style="fill:#ffffff;stroke-width:0.27839136"
       d="m 128.06139,288.43628 c -0.83265,-1.27078 -10.8749,-24.0986 -11.6867,-26.56595 -0.61393,-1.86592 -0.3082,-3.07885 1.37228,-5.44441 5.30358,-7.4657 6.3948,-9.34389 6.14741,-10.58083 -0.0903,-0.4516 -1.08972,-3.03262 -2.22088,-5.73559 -1.13118,-2.70298 -2.13267,-5.24384 -2.22555,-5.64635 -0.29605,-1.28307 0.47486,-3.01633 4.69374,-10.55298 5.40459,-9.65481 5.98909,-10.89005 5.98539,-12.64898 -0.006,-3.09883 -1.84402,-13.1421 -2.86347,-15.65097 -1.53801,-3.78505 -5.1036,-8.2829 -9.61635,-12.13064 -2.86496,-2.44276 -6.09265,-4.71012 -7.42759,-5.21766 -0.77076,-0.29305 -0.78434,-0.28457 -0.33663,0.21015 1.03001,1.13814 1.40245,2.88835 1.57017,7.37855 0.0901,2.41185 0.12981,4.38495 0.0883,4.38467 -0.0416,-2.7e-4 -0.81202,-1.53513 -1.71218,-3.41079 -1.77545,-3.69949 -3.16506,-5.51296 -5.24926,-6.85039 -1.18301,-0.75913 -5.121647,-2.54533 -5.612567,-2.54533 -0.10143,0 -0.18711,2.16102 -0.19025,4.80225 -0.004,3.73574 -0.17731,6.00788 -0.77827,10.23089 -0.80527,5.6587 -0.80936,7.66651 -0.0187,9.1954 0.57198,1.10612 2.904407,3.92288 5.255177,6.34644 2.1105,2.17585 3.49621,3.03293 6.13037,3.79174 l 1.64626,0.47422 -0.1834,18.68559 c -0.10091,10.27708 -0.28952,18.79172 -0.41921,18.92141 -0.35682,0.35681 -0.67568,-0.19559 -2.12721,-3.68526 -4.20709,-10.11436 -9.794967,-22.16895 -21.163817,-45.65619 -14.24028,-29.4194 -22.9944,-48.30237 -23.03755,-49.69286 -0.009,-0.30623 10.16498,-22.98121 22.60995,-50.38884 12.44498,-27.407626 22.784687,-50.196897 22.977157,-50.64282 l 0.34993,-0.81077 0.37295,0.671574 c 0.25017,0.45048 0.4088,2.07673 0.48184,4.939756 l 0.10888,4.268183 1.21489,1.970484 c 1.45677,2.362808 2.73518,6.057437 2.09599,6.057437 -0.14205,0 -0.8964,-0.811982 -1.67631,-1.804405 -0.78876,-1.003683 -1.71508,-1.87896 -2.08742,-1.972412 -0.94781,-0.237886 -1.76685,0.293113 -2.07329,1.344169 -4.1842,14.350897 -6.61067,23.81244 -9.762407,38.066744 -2.20116,9.95508 -2.62916,12.35193 -2.38455,13.35366 0.0985,0.40351 1.82052,2.31262 4.025917,4.46339 4.05762,3.95708 4.1311,4.07219 4.57673,7.16858 0.11652,0.80969 0.0684,1.18316 -0.15257,1.18316 -0.17757,0 -1.41826,-1.05597 -2.75707,-2.3466 -1.98147,-1.91014 -2.708117,-2.42793 -3.906837,-2.78391 -1.74986,-0.51965 -2.49863,-0.54608 -3.43135,-0.1211 -0.64222,0.29261 -0.8597,0.994 -2.9135,9.39571 -3.26867,13.37152 -3.54502,14.8031 -3.12695,16.19848 1.10955,3.70338 6.92729,6.42513 11.892097,5.56356 2.13135,-0.36987 3.94847,-1.08241 4.51707,-1.77126 0.60957,-0.73848 0.44099,-3.03908 -0.33381,-4.55535 -0.83551,-1.63508 -2.07053,-2.82443 -3.99988,-3.85195 -2.358527,-1.25611 -1.360177,-1.47124 2.45532,-0.52909 4.03883,0.99729 6.17215,2.55696 8.80617,6.43822 1.73379,2.55474 1.89073,2.53801 1.69084,-0.18023 -0.0882,-1.19857 -0.32028,-1.83524 -1.02051,-2.79885 -2.49196,-3.42929 2.74322,0.15867 5.47581,3.75288 l 0.63496,0.83517 -0.15288,-1.17028 c -0.0841,-0.64366 -0.84493,-3.08654 -1.69076,-5.42864 -2.62829,-7.27772 -2.91952,-8.8249 -2.34736,-12.47089 0.43404,-2.76584 1.70625,-5.11209 4.00116,-7.37908 2.36203,-2.33329 4.46124,-3.49416 10.1267,-5.6001 2.24582,-0.8348 4.65014,-1.84472 5.34292,-2.24425 3.22178,-1.85803 5.55203,-4.58771 6.15819,-7.21377 0.65087,-2.81974 -1.05151,-6.03603 -4.46061,-8.42738 -2.27967,-1.5991 -4.8442,-2.723394 -7.1135,-3.118572 l -1.88186,-0.327715 -2.38812,1.210894 c -3.68268,1.867293 -8.6811,7.078603 -8.6811,9.050853 0,0.8692 -0.28021,1.49942 -0.66668,1.49942 -0.1808,0 -0.74155,-0.34465 -1.24613,-0.76589 -0.84804,-0.70797 -0.93716,-0.94247 -1.17869,-3.10133 l -0.26129,-2.33545 1.24891,-2.67529 c 1.0845,-2.323111 1.24262,-2.895228 1.20123,-4.34609 -0.045,-1.576588 0.0572,-1.861602 1.81325,-5.054487 l 1.86094,-3.383685 -0.43568,-4.271624 c -0.66203,-6.491015 -0.41023,-7.925129 1.79929,-10.247817 1.47679,-1.552424 1.83149,-1.448893 1.13034,0.329929 -0.94064,2.386425 -0.77728,3.889863 1.04767,9.641852 l 1.621,5.109147 2.64471,-0.162102 c 2.57633,-0.157909 7.43037,-1.122638 10.08815,-2.004993 0.92529,-0.307186 1.64818,-0.823154 2.42259,-1.729134 0.60707,-0.710215 1.18399,-1.211069 1.28206,-1.113012 0.0981,0.09806 -0.0169,0.849885 -0.25558,1.670722 -0.4865,1.673499 -1.00002,2.153511 -3.8105,3.561837 -2.87683,1.441577 -5.4516,3.26965 -6.38377,4.532425 l -0.86563,1.17266 1.19726,0.233595 c 4.55024,0.887788 7.70274,2.351715 10.17351,4.724267 2.19871,2.11131 3.29772,4.26146 3.86837,7.56825 0.49767,2.88388 0.2683,4.80002 -0.86007,7.18521 -1.56936,3.31734 -4.31842,5.4804 -11.56694,9.10127 -4.96676,2.48106 -6.11183,3.38933 -7.23266,5.737 -0.98915,2.07186 -1.05558,3.9143 -0.20625,5.72155 0.71932,1.53062 1.53224,2.54847 5.99883,7.51111 2.99798,3.33093 4.73356,5.8249 5.65897,8.13171 0.35912,0.8952 0.76824,1.64686 0.90916,1.67035 0.14092,0.0235 0.7673,-0.79526 1.39196,-1.81944 1.38238,-2.26649 2.47478,-3.44707 3.83896,-4.14877 0.9844,-0.50635 2.16864,-0.71031 2.16864,-0.37352 0,0.0868 -0.3061,0.55907 -0.6802,1.04955 -0.71875,0.94234 -1.2504,2.76327 -1.26174,4.32153 l -0.006,0.93541 1.21956,-1.63138 c 2.89757,-3.876 6.16375,-6.13164 10.82223,-7.47386 2.09104,-0.6025 2.93971,-0.4489 1.63259,0.29547 -2.43551,1.38697 -3.58408,2.31255 -4.41786,3.56014 -0.77993,1.16702 -0.90478,1.59397 -0.90478,3.09436 0,2.14346 0.49418,2.86983 2.5649,3.77007 1.77566,0.77196 5.00462,1.03148 7.18801,0.57772 3.3696,-0.70028 6.50991,-2.89083 7.36899,-5.1403 0.4215,-1.10367 0.41261,-1.34261 -0.15181,-4.08431 -0.66911,-3.2502 -3.86756,-16.05278 -4.75586,-19.03644 -1.22596,-4.11789 -3.36639,-4.56715 -7.79535,-1.6362 -1.37363,0.90903 -3.12013,0.82522 -3.25905,-0.1564 -0.0749,-0.52978 0.57692,-1.29418 3.37281,-3.95492 1.90943,-1.81713 3.6862,-3.7628 3.95669,-4.33281 0.90308,-1.9031 0.48007,-4.68733 -2.32084,-15.2756 -1.37712,-5.205921 -4.06879,-15.541918 -5.9815,-22.968886 -1.91271,-7.426966 -3.628,-13.833552 -3.81175,-14.236858 -0.50089,-1.099336 -1.46891,-1.440729 -2.66642,-0.940376 -0.53874,0.225101 -1.3023,0.663159 -1.69678,0.973463 -1.69875,1.336232 -1.60039,0.233567 0.2275,-2.550661 l 1.42646,-2.172755 0.35516,-3.777662 c 0.19533,-2.077713 0.43636,-3.858878 0.53564,-3.958145 0.68442,-0.684432 0.002,-2.106954 34.34756,71.56468 l 12.56128,26.94385 -14.22763,31.65753 c -7.82519,17.41165 -15.7128,34.96681 -17.52802,39.01148 -1.81521,4.04468 -3.47223,7.61275 -3.68224,7.92906 -0.32942,0.49614 -0.68345,0.57858 -2.57842,0.60043 -1.58853,0.0183 -2.83156,0.23477 -4.49057,0.78193 -3.08629,1.01791 -3.27384,0.90529 -3.50829,-2.10659 -0.0989,-1.27025 -0.18053,-5.3289 -0.18145,-9.01922 l -0.002,-6.70967 1.87914,-0.5025 c 2.83261,-0.75746 4.58456,-1.68844 6.18433,-3.28636 1.61707,-1.61518 3.95623,-5.00435 5.27547,-7.64353 l 0.87239,-1.74526 -0.83094,-3.54419 c -1.23298,-5.25891 -1.48653,-7.34501 -1.34373,-11.0557 0.14888,-3.86903 0.66617,-5.54607 2.42333,-7.85656 l 1.10163,-1.44851 -1.74407,0.95866 c -0.95924,0.52727 -2.42768,1.19387 -3.26321,1.48133 -4.74111,1.63118 -6.61041,3.39511 -9.3915,8.8621 -1.52607,2.99994 -2.00108,3.72732 -2.16295,3.31215 -0.11409,-0.29259 -0.0454,-2.58412 0.15271,-5.09228 0.19806,-2.50817 0.29258,-4.62784 0.21001,-4.7104 -0.0826,-0.0826 -0.4427,0.002 -0.80032,0.18764 -3.4672,1.80099 -6.70467,7.14557 -7.89908,13.04023 -0.52399,2.58597 -0.45717,5.10171 0.26698,10.05201 0.49644,3.3937 0.57225,8.52241 0.14272,9.65598 -0.36928,0.97456 -3.6387,6.1247 -7.4201,11.6885 -1.57874,2.32288 -3.26069,5.05737 -3.73767,6.07667 -1.07992,2.30774 -1.02678,3.42213 0.45803,9.60491 0.56995,2.37328 1.05371,5.0822 1.07503,6.01982 l 0.0387,1.70476 -3.46222,4.55905 c -1.90423,2.50748 -3.83076,5.29196 -4.28117,6.18774 -0.74461,1.48089 -0.78981,1.72587 -0.49813,2.69944 0.53118,1.77293 2.71036,5.89503 3.76988,7.13103 1.29502,1.51074 3.16981,2.43616 4.39819,2.171 1.7124,-0.36963 5.53064,-2.68164 8.80065,-5.32891 2.28705,-1.8515 3.50053,-1.91187 3.44222,-0.17125 -0.0143,0.42818 -1.70909,4.47416 -3.76611,8.99107 -2.057,4.51689 -4.35079,9.6442 -5.09729,11.39402 -0.7465,1.74981 -1.50588,3.22959 -1.68752,3.28838 -0.18164,0.0588 -0.52544,-0.191 -0.76402,-0.55511 z"
       id="path1070"
       inkscape:connector-curvature="0" />
  </g>
</svg>
