<?xml version="1.0" encoding="UTF-8" standalone="no"?>
<!-- Created with Inkscape (http://www.inkscape.org/) -->

<svg
   xmlns:dc="http://purl.org/dc/elements/1.1/"
   xmlns:cc="http://creativecommons.org/ns#"
   xmlns:rdf="http://www.w3.org/1999/02/22-rdf-syntax-ns#"
   xmlns:svg="http://www.w3.org/2000/svg"
   xmlns="http://www.w3.org/2000/svg"
   xmlns:sodipodi="http://sodipodi.sourceforge.net/DTD/sodipodi-0.dtd"
   xmlns:inkscape="http://www.inkscape.org/namespaces/inkscape"
   width="256mm"
   height="256mm"
   viewBox="0 0 256.00001 256.00002"
   version="1.1"
   id="svg952"
   inkscape:version="0.92.5 (2060ec1f9f, 2020-04-08)"
   sodipodi:docname="evermore.svg">
  <defs
     id="defs946" />
  <sodipodi:namedview
     id="base"
     pagecolor="#ffffff"
     bordercolor="#666666"
     borderopacity="1.0"
     inkscape:pageopacity="0.0"
     inkscape:pageshadow="2"
     inkscape:zoom="1.2179914"
     inkscape:cx="629.88219"
     inkscape:cy="488.45422"
     inkscape:document-units="mm"
     inkscape:current-layer="layer1"
     showgrid="false"
     units="mm"
     inkscape:window-width="3840"
     inkscape:window-height="2056"
     inkscape:window-x="0"
     inkscape:window-y="50"
     inkscape:window-maximized="1"
     showguides="true"
     inkscape:guide-bbox="true" />
  <metadata
     id="metadata949">
    <rdf:RDF>
      <cc:Work
         rdf:about="">
        <dc:format>image/svg+xml</dc:format>
        <dc:type
           rdf:resource="http://purl.org/dc/dcmitype/StillImage" />
        <dc:title></dc:title>
      </cc:Work>
    </rdf:RDF>
  </metadata>
  <g
     inkscape:label="Layer 1"
     inkscape:groupmode="layer"
     id="layer1"
     transform="translate(0,-40.999976)">
    <rect
       style="fill:#1a1a1a;fill-opacity:1;stroke:none;stroke-width:0.83444387;stroke-opacity:1"
       id="rect816"
       width="256"
       height="256"
       x="0"
       y="40.999977" />
    <path
       style="fill:#ffffff;stroke-width:1.96651363"
       d="m 108.63052,286.30421 c -0.80903,-1.95846 -0.37624,-4.73873 0.99525,-6.3912 1.92757,-2.32272 1.91715,-3.53942 -0.0513,-5.91135 -2.02845,-2.44418 -1.83829,-3.6944 1.04737,-6.88279 4.18042,-4.61929 11.28779,-5.07639 14.71543,-0.94638 4.3393,5.22854 9.21173,3.43426 12.41519,-4.57195 5.26042,-13.14711 5.85746,-20.96171 2.48704,-32.55514 -2.6365,-9.0695 -4.60793,-11.8989 -11.68168,-16.76577 -27.55142,-18.9559 -38.668717,-52.09404 -29.956274,-89.29308 4.367634,-18.64819 4.084644,-26.197974 -1.138614,-30.378159 -2.351945,-1.882204 -6.608861,-5.869439 -9.460106,-8.860498 -5.479695,-5.748587 -14.852195,-9.310535 -24.499325,-9.310535 -8.289051,0 -3.715727,-3.892545 5.418339,-4.611936 3.952689,-0.311421 7.864975,-1.276902 8.694449,-2.145835 1.743707,-1.826832 -20.158831,-0.3798 -26.023172,1.719284 -2.585772,0.925494 -1.676065,-0.602032 2.655384,-4.459124 6.743174,-6.00486 18.922577,-10.167502 29.748731,-10.167502 3.344644,0 8.264271,-1.430383 10.932439,-3.178579 3.576895,-2.343688 8.100269,-2.971734 17.221349,-2.390959 17.5474,1.117327 22.37146,5.217461 34.86354,29.631491 5.67889,11.098793 13.21753,23.720512 16.75253,28.048222 16.45323,20.14228 31.74249,45.64398 34.84702,58.12269 5.26121,21.14656 7.40451,42.71298 7.22025,72.65292 -0.0963,15.68293 -0.20492,33.60282 -0.24111,39.82188 -0.0357,6.21914 -0.29225,11.3075 -0.56933,11.3075 -2.02807,0 -11.15663,-17.32224 -15.46388,-29.34393 -4.6158,-12.88266 -10.54936,-23.0185 -12.39494,-21.17287 -0.35022,0.35007 2.41705,7.87748 6.14949,16.72742 3.73244,8.84987 5.95952,16.09076 4.94912,16.09076 -2.19069,0 -14.7693,-16.5428 -23.55038,-30.97261 -3.45556,-5.67835 -7.07473,-10.32418 -8.04284,-10.32418 -0.96812,0 -1.24264,3.77741 -0.60984,8.39426 0.99212,7.23731 0.16716,10.0708 -5.97819,20.55775 -3.92084,6.68984 -7.95652,12.675 -8.96829,13.3003 -1.01177,0.62507 -1.50969,2.21473 -1.10636,3.53207 0.40314,1.31733 1.27823,4.8766 1.94469,7.90936 l 1.21157,5.51424 -6.26748,-4.53092 c -3.4471,-2.49204 -8.36831,-6.58742 -10.93579,-9.10087 -4.99317,-4.88783 -9.45401,-4.86531 -9.50259,0.0446 -0.0201,1.65306 -1.0035,4.23169 -2.19403,5.73023 -1.19053,1.49861 -2.62274,4.05204 -3.1828,5.67448 -0.84698,2.45325 -1.25936,2.36636 -2.45067,-0.51656 z m 80.39462,-60.80202 c 2.79265,-13.96343 -2.72126,-27.40308 -13.10721,-31.94783 -4.11159,-1.79918 -5.08128,-2.82814 -2.76374,-2.93227 1.96396,-0.0885 5.28245,0.75566 7.37443,1.87529 2.36965,1.26821 3.80383,1.31645 3.80383,0.12784 0,-3.59413 -4.20598,-12.97148 -7.40216,-16.50325 -3.00758,-3.32329 -3.58377,-2.59246 -9.80071,12.43129 -5.88853,14.23025 -6.36265,16.69717 -4.36959,22.73607 2.19876,6.66241 17.43786,20.46901 22.59269,20.46901 1.33171,0 2.98418,-2.81536 3.67246,-6.2563 z m -28.68121,-28.32063 c 0.32621,-2.07359 1.39268,-5.53995 2.37004,-7.70311 2.51104,-5.55749 7.85288,-19.03528 7.85288,-19.81302 0,-0.35824 -3.09726,-2.12056 -6.8828,-3.91692 -3.78554,-1.79643 -6.8828,-4.0814 -6.8828,-5.0778 0,-1.02725 1.64676,-0.93025 3.80383,0.22446 2.09198,1.11963 5.29995,2.03568 7.12861,2.03568 2.69118,0 3.08507,-1.19849 2.0672,-6.28833 -1.36732,-6.83656 -6.2364,-15.34327 -8.78205,-15.34327 -0.87511,0 -2.54565,2.876 -3.71219,6.39113 -1.16654,3.51519 -3.98828,11.25829 -6.27062,17.20704 -3.94621,10.28597 -3.97905,10.932 -0.66707,13.18829 1.91539,1.30492 5.25236,3.78425 7.41553,5.50978 3.83135,3.05616 3.80599,3.10217 -0.98326,1.78223 -2.70395,-0.74518 -6.02244,-1.77064 -7.37442,-2.27872 -3.96272,-1.48918 -2.89609,7.12412 1.67743,13.54705 4.48385,6.29711 8.29869,6.51837 9.23967,0.53589 z m -15.25248,-27.85988 c 1.07706,-2.97433 2.8188,-7.17778 3.87069,-9.34093 1.88628,-3.87984 7.83911,-20.47399 7.83911,-21.8525 0,-0.3902 -3.31849,-2.14769 -7.37442,-3.90533 -4.05594,-1.75756 -6.31723,-3.59673 -5.02523,-4.0869 1.292,-0.49055 4.18631,0.0922 6.43168,1.2937 5.92687,3.17196 7.93862,1.00822 5.84605,-6.28789 -2.22787,-7.76815 -7.00413,-12.91024 -9.57358,-10.30664 -2.161,2.18976 -14.49085,32.47241 -13.55164,33.28352 0.34769,0.30027 3.7295,2.12859 7.51503,4.0629 3.78554,1.93423 5.8256,3.87404 4.53361,4.31062 -1.292,0.43629 -4.10982,-0.14865 -6.26177,-1.30024 -5.92728,-3.17211 -8.10519,-2.54525 -8.09713,2.33061 0,5.19018 6.88418,17.20696 9.84516,17.20696 1.12425,0 2.92538,-2.43354 4.00244,-5.40788 z m -7.21671,-43.8358 c 9.85715,-23.22885 9.61507,-24.55131 -5.37723,-29.383694 -6.85055,-2.208122 -7.97422,-2.059918 -11.55819,1.5241 -2.47388,2.473914 -4.06065,6.819024 -4.2107,11.530554 -0.22967,7.20796 0.2177,7.78093 9.59167,12.28413 5.40792,2.59788 8.64892,5.13102 7.20236,5.62914 -1.44657,0.49798 -3.61465,-0.0788 -4.81796,-1.2821 -4.36133,-4.36131 -9.2672,-2.53671 -9.2672,3.4466 0,6.14213 7.46902,17.27088 9.84103,14.66267 0.80784,-0.88833 4.67597,-9.17348 8.59622,-18.4114 z M 109.80905,65.403312 c 4.75365,-4.301927 2.53346,-8.664578 -4.40932,-8.664578 -6.511123,0 -9.303377,4.419955 -5.606529,8.874397 3.111809,3.749544 5.700729,3.695287 10.015849,-0.209596 z"
       id="path6562"
       inkscape:connector-curvature="0" />
  </g>
</svg>
