<?xml version="1.0" encoding="UTF-8" standalone="no"?>
<!-- Created with Inkscape (http://www.inkscape.org/) -->

<svg
   xmlns:dc="http://purl.org/dc/elements/1.1/"
   xmlns:cc="http://creativecommons.org/ns#"
   xmlns:rdf="http://www.w3.org/1999/02/22-rdf-syntax-ns#"
   xmlns:svg="http://www.w3.org/2000/svg"
   xmlns="http://www.w3.org/2000/svg"
   xmlns:sodipodi="http://sodipodi.sourceforge.net/DTD/sodipodi-0.dtd"
   xmlns:inkscape="http://www.inkscape.org/namespaces/inkscape"
   width="256mm"
   height="256mm"
   viewBox="0 0 256.00001 256.00002"
   version="1.1"
   id="svg952"
   inkscape:version="0.92.5 (2060ec1f9f, 2020-04-08)"
   sodipodi:docname="gilane.svg">
  <defs
     id="defs946" />
  <sodipodi:namedview
     id="base"
     pagecolor="#ffffff"
     bordercolor="#666666"
     borderopacity="1.0"
     inkscape:pageopacity="0.0"
     inkscape:pageshadow="2"
     inkscape:zoom="1.7225"
     inkscape:cx="355.46962"
     inkscape:cy="496.43452"
     inkscape:document-units="mm"
     inkscape:current-layer="layer1"
     showgrid="false"
     units="mm"
     inkscape:window-width="3840"
     inkscape:window-height="2056"
     inkscape:window-x="0"
     inkscape:window-y="50"
     inkscape:window-maximized="1"
     showguides="true"
     inkscape:guide-bbox="true" />
  <metadata
     id="metadata949">
    <rdf:RDF>
      <cc:Work
         rdf:about="">
        <dc:format>image/svg+xml</dc:format>
        <dc:type
           rdf:resource="http://purl.org/dc/dcmitype/StillImage" />
        <dc:title></dc:title>
      </cc:Work>
    </rdf:RDF>
  </metadata>
  <g
     inkscape:label="Layer 1"
     inkscape:groupmode="layer"
     id="layer1"
     transform="translate(0,-40.999976)">
    <rect
       style="fill:#1a1a1a;fill-opacity:1;stroke:none;stroke-width:0.83444387;stroke-opacity:1"
       id="rect816"
       width="256"
       height="256"
       x="0"
       y="40.999977" />
    <path
       style="fill:#ffffff;stroke-width:3.27414417"
       d="m 74.529707,275.34336 c -3.005324,-7.51108 -5.464304,-19.45082 -5.464304,-26.53276 0,-12.45081 5.580379,-29.68509 9.529399,-29.43091 1.061751,0.0742 5.992829,5.99691 10.958433,13.17462 8.565408,12.38127 8.758826,13.46146 3.772804,21.07117 -2.890611,4.41147 -7.072771,14.17549 -9.293786,21.69771 l -4.038365,13.67679 z m 99.573293,7.49426 c -0.14602,-3.74658 -3.82552,-13.84471 -8.17721,-22.44045 l -7.91215,-15.62852 8.73074,-12.63236 c 4.80189,-6.94778 9.59919,-12.68817 10.66082,-12.7566 4.09183,-0.26358 9.52544,17.1797 9.44352,30.31571 -0.0866,14.42323 -12.24429,46.02789 -12.74572,33.14222 z m -51.76431,-19.19901 c -2.97662,-14.19132 -6.39971,-20.22945 -16.78952,-29.61604 -12.259884,-11.07612 -23.387232,-33.73213 -23.387232,-47.61817 0,-3.84111 -5.165454,-6.91264 -17.189226,-10.2209 l -17.189227,-4.72949 16.619618,-4.11942 c 15.534232,-3.8504 17.061644,-5.16545 23.385868,-20.13441 4.447968,-10.52804 10.532494,-18.31124 17.758829,-22.71689 17.43562,-10.62988 20.28068,-9.20889 17.67184,8.8259 -2.5826,17.85251 -9.81513,25.26175 -29.598093,30.32103 -35.454065,9.06695 -34.699826,8.24812 -11.466415,12.44822 11.701287,2.11534 21.796828,5.41134 22.434498,7.32448 0.6373,1.91325 3.99728,6.12226 7.46567,9.35367 6.48349,6.0401 12.61615,33.65961 12.65154,56.97791 0.0113,7.47643 1.33028,11.66083 3.29316,10.44773 1.80077,-1.11249 3.2741,-7.62889 3.2741,-14.47991 0,-20.21657 6.17722,-46.86033 12.30766,-53.08556 3.13513,-3.18352 7.42767,-7.88467 9.53917,-10.44698 2.11137,-2.56219 10.54895,-5.66478 18.74992,-6.89458 20.82678,-3.12313 21.28811,-7.17102 1.12239,-9.84619 -26.29157,-3.48769 -36.92727,-11.64424 -40.81381,-31.3 -2.80695,-14.19677 -2.53842,-16.36977 2.02154,-16.3548 10.40578,0.0371 24.52088,11.92032 33.13195,27.90004 4.8457,8.99209 11.56541,16.82715 15.00682,17.49736 3.42768,0.667 9.91549,2.71366 14.41742,4.54709 7.8801,3.20914 7.64274,3.47321 -6.36271,7.08317 -13.53646,3.48893 -14.80883,4.76649 -18.29689,18.37187 -5.26829,20.54934 -12.23105,32.69203 -25.39082,44.28021 -9.21211,8.11188 -11.81501,13.24071 -13.70908,27.01167 -1.28586,9.34922 -3.36878,16.99865 -4.62889,16.99865 -1.26,0 -3.97352,-8.02154 -6.02996,-17.82566 z M 62.517072,127.61026 c -2.701153,-1.72875 -12.646341,-4.8874 -22.10038,-7.01919 -9.454161,-2.13192 -17.189352,-4.94717 -17.189352,-6.25616 0,-6.58905 24.623461,-13.61232 43.0514,-12.27944 25.975277,1.87886 29.349615,5.9442 15.434863,18.59513 -12.392291,11.2668 -12.439563,11.28388 -19.196531,6.95966 z m 110.377668,-7.97897 -12.40269,-10.9692 10.43573,-3.63792 c 14.98244,-5.222884 37.79387,-4.48225 50.709,1.64645 6.12474,2.90633 11.13588,6.25295 11.13588,7.43697 0,1.18425 -8.47185,4.47779 -18.8264,7.31951 -10.35443,2.84186 -21.0364,6.06832 -23.73756,7.17016 -2.96943,1.21149 -9.81501,-2.33374 -17.31396,-8.96597 z m -69.47737,-18.28798 c -5.73543,-9.280174 14.38389,-52.343334 24.45504,-52.343334 10.12241,0 28.70911,39.0785 24.18912,50.8575 -2.39067,6.229924 -12.30394,6.168554 -17.5132,-0.11138 -2.24181,-2.70115 -5.94803,-4.91115 -8.23599,-4.91115 -2.28796,0 -5.00805,2.21 -6.04468,4.91115 -2.12932,5.549084 -13.72789,6.646344 -16.85029,1.594114 z m 14.19356,-28.039758 c 1.22014,-10.910294 -3.80486,-7.778748 -7.59436,4.732588 -1.74398,5.757956 -1.20654,7.378676 2.08761,6.295766 2.44004,-0.80189 4.91808,-5.76489 5.50675,-11.028354 z m 28.2495,4.345136 c -3.51503,-11.63434 -8.03799,-14.612811 -8.03799,-5.293162 0,8.653022 2.31518,12.66008 7.31457,12.66008 1.62207,0 1.94753,-3.315064 0.72392,-7.366918 z"
       id="path1211"
       inkscape:connector-curvature="0" />
  </g>
</svg>
