<?xml version="1.0" encoding="UTF-8" standalone="no"?>
<!-- Created with Inkscape (http://www.inkscape.org/) -->

<svg
   xmlns:dc="http://purl.org/dc/elements/1.1/"
   xmlns:cc="http://creativecommons.org/ns#"
   xmlns:rdf="http://www.w3.org/1999/02/22-rdf-syntax-ns#"
   xmlns:svg="http://www.w3.org/2000/svg"
   xmlns="http://www.w3.org/2000/svg"
   xmlns:sodipodi="http://sodipodi.sourceforge.net/DTD/sodipodi-0.dtd"
   xmlns:inkscape="http://www.inkscape.org/namespaces/inkscape"
   width="256mm"
   height="256mm"
   viewBox="0 0 256.00001 256.00002"
   version="1.1"
   id="svg952"
   inkscape:version="0.92.5 (2060ec1f9f, 2020-04-08)"
   sodipodi:docname="haugrheim.svg">
  <defs
     id="defs946" />
  <sodipodi:namedview
     id="base"
     pagecolor="#ffffff"
     bordercolor="#666666"
     borderopacity="1.0"
     inkscape:pageopacity="0.0"
     inkscape:pageshadow="2"
     inkscape:zoom="0.86124998"
     inkscape:cx="-213.66966"
     inkscape:cy="235.10827"
     inkscape:document-units="mm"
     inkscape:current-layer="layer1"
     showgrid="false"
     units="mm"
     inkscape:window-width="3840"
     inkscape:window-height="2056"
     inkscape:window-x="0"
     inkscape:window-y="50"
     inkscape:window-maximized="1"
     showguides="true"
     inkscape:guide-bbox="true" />
  <metadata
     id="metadata949">
    <rdf:RDF>
      <cc:Work
         rdf:about="">
        <dc:format>image/svg+xml</dc:format>
        <dc:type
           rdf:resource="http://purl.org/dc/dcmitype/StillImage" />
        <dc:title></dc:title>
      </cc:Work>
    </rdf:RDF>
  </metadata>
  <g
     inkscape:label="Layer 1"
     inkscape:groupmode="layer"
     id="layer1"
     transform="translate(0,-40.999976)">
    <rect
       style="fill:#1a1a1a;fill-opacity:1;stroke:none;stroke-width:0.83444387;stroke-opacity:1"
       id="rect816"
       width="256"
       height="256"
       x="0"
       y="40.999977" />
    <path
       style="fill:#ffffff;stroke-width:0.08003964"
       d="m 120.75545,272.17183 c -1.88376,-0.058 -2.21567,-0.086 -3.40072,-0.2804 -0.37419,-0.062 -1.63481,-0.2209 -2.80139,-0.3542 -1.16658,-0.1334 -2.88149,-0.3674 -3.81092,-0.5201 -0.92943,-0.1527 -2.31611,-0.3516 -3.08152,-0.442 -0.76541,-0.09 -2.18405,-0.2735 -3.15253,-0.4068 -0.96848,-0.1333 -2.54785,-0.313 -3.50971,-0.3993 -0.96186,-0.086 -1.992579,-0.2076 -2.290489,-0.2698 -0.61033,-0.1272 -1.33784,-0.4689 -2.03371,-0.9552 l -0.47029,-0.3286 0.0445,-0.5216 c 0.0825,-0.9661 1.2819,-6.5442 1.44026,-6.698 0.32004,-0.3109 1.85376,-1.1509 3.771879,-2.066 0.78908,-0.3764 1.55353,-0.775 1.69879,-0.8858 0.21361,-0.163 0.662,-1.0003 2.34602,-4.381 1.14505,-2.2988 2.25353,-4.427 2.46327,-4.7293 0.20975,-0.3023 0.53787,-0.6624 0.72919,-0.8003 0.32224,-0.2323 0.4047,-0.2529 1.12055,-0.2799 0.88709,-0.033 1.9937,0.066 4.3745,0.3925 0.92446,0.1269 2.25712,0.3053 2.96147,0.3965 0.70435,0.091 2.4152,0.3258 3.80188,0.5211 1.38669,0.1954 3.18595,0.4465 3.99835,0.558 0.81241,0.1115 1.51451,0.2402 1.56023,0.2859 0.0457,0.046 0.11108,0.3427 0.14525,0.6599 0.0342,0.3173 0.0833,5.3042 0.10916,11.0821 l 0.047,10.5052 -2.1096,-0.013 c -1.16028,-0.01 -2.93844,-0.039 -3.95147,-0.07 z m 8.47502,-10.4111 c 0.0259,-5.784 0.075,-10.776 0.10919,-11.0933 0.0342,-0.3172 0.0995,-0.6142 0.14525,-0.6599 0.0457,-0.046 0.74782,-0.1744 1.56023,-0.2859 0.8124,-0.1115 2.61166,-0.3626 3.99835,-0.558 1.38669,-0.1953 3.09753,-0.4299 3.80188,-0.5211 0.70435,-0.091 2.03701,-0.2696 2.96147,-0.3965 2.3808,-0.3266 3.48741,-0.4259 4.3745,-0.3925 0.71585,0.027 0.79831,0.048 1.12055,0.2799 0.19132,0.1379 0.51945,0.498 0.72919,0.8003 0.20974,0.3023 1.31822,2.4305 2.46327,4.7293 1.68402,3.3807 2.13241,4.218 2.34602,4.381 0.14526,0.1108 0.90971,0.5094 1.69879,0.8858 1.91812,0.9151 3.45184,1.7551 3.77188,2.066 0.15835,0.1538 1.3578,5.7319 1.44026,6.698 l 0.0445,0.5216 -0.47027,0.3286 c -0.69586,0.4863 -1.42339,0.828 -2.03372,0.9552 -0.2979,0.062 -1.32863,0.1839 -2.29049,0.2706 -0.96186,0.087 -2.81136,0.3 -4.11,0.474 -1.29865,0.1741 -2.59529,0.3402 -2.88143,0.3693 -0.28614,0.029 -1.63681,0.2286 -3.00149,0.4436 -1.36467,0.215 -2.71534,0.4132 -3.00148,0.4405 -0.28614,0.027 -1.34867,0.1538 -2.36117,0.281 -2.88515,0.3625 -3.54305,0.4044 -7.11211,0.4532 l -3.35024,0.046 z m -37.408399,5.7187 c -0.81611,-0.16 -2.34005,-0.5973 -3.70631,-1.0637 -2.94172,-1.0041 -5.67939,-1.9823 -7.10187,-2.5376 -0.77195,-0.3013 -3.12098,-1.1241 -5.22008,-1.8285 l -3.81655,-1.2806 -0.059,-0.3602 c -0.0324,-0.1981 -0.0606,-0.7924 -0.0625,-1.3206 -0.004,-1.0903 -0.13087,-0.7126 1.23597,-3.6819 0.7544,-1.6388 0.98341,-2.0268 1.33054,-2.2542 0.23992,-0.1572 4.12157,-1.4848 5.95114,-2.0354 0.72472,-0.2181 1.40305,-0.4525 1.50741,-0.5209 0.1044,-0.068 0.24026,-0.2452 0.30194,-0.3928 0.0617,-0.1476 0.14905,-0.2912 0.19412,-0.3191 0.43396,-0.2682 3.92343,-5.3403 4.62571,-6.7236 0.25551,-0.5034 0.58782,-0.7722 1.0136,-0.8202 0.79748,-0.09 1.80488,0.142 8.73476,2.0106 5.969659,1.6096 8.297619,2.2216 9.184689,2.4142 1.18763,0.258 1.3105,0.6517 0.69474,2.2264 -0.45315,1.1588 -2.34509,4.9631 -3.09458,6.2224 -0.67174,1.1288 -1.05209,1.5658 -1.84541,2.1207 -0.29903,0.2091 -0.65279,0.4815 -0.78612,0.6053 -0.13333,0.1238 -0.58355,0.398 -1.000499,0.6092 -0.7196,0.3647 -3.25147,1.9491 -3.58344,2.2426 -0.0955,0.084 -0.47346,1.0657 -0.97781,2.5388 -0.89601,2.617 -1.19332,3.315 -1.53392,3.6016 -0.44442,0.374 -1.45318,0.652 -1.98654,0.5475 z m 71.075209,-0.1468 c -0.94966,-0.3495 -1.07128,-0.5739 -2.36429,-4.3625 -0.42346,-1.2408 -0.75782,-2.095 -0.85278,-2.1786 -0.33492,-0.295 -2.86584,-1.8787 -3.58399,-2.2426 -0.41695,-0.2112 -0.86717,-0.4854 -1.0005,-0.6092 -0.13333,-0.1238 -0.48709,-0.3962 -0.78612,-0.6053 -0.79332,-0.5549 -1.17366,-0.9919 -1.84541,-2.1207 -0.74949,-1.2593 -2.64143,-5.0636 -3.09457,-6.2224 -0.61576,-1.5747 -0.4929,-1.9684 0.69473,-2.2264 0.88707,-0.1926 3.21503,-0.8046 9.18469,-2.4142 6.92988,-1.8686 7.93727,-2.1005 8.73475,-2.0106 0.4258,0.048 0.75811,0.3168 1.01362,0.8202 0.70226,1.3833 4.19174,6.4554 4.62569,6.7236 0.0451,0.028 0.13243,0.1715 0.19412,0.3191 0.0617,0.1476 0.19756,0.3244 0.30193,0.3928 0.10437,0.068 0.78272,0.3028 1.50743,0.5209 1.82958,0.5506 5.71123,1.8782 5.95114,2.0354 0.34712,0.2274 0.57612,0.6154 1.33053,2.2542 1.36683,2.9693 1.24004,2.5916 1.23599,3.6819 -0.002,0.5282 -0.0301,1.1225 -0.0625,1.3206 l -0.059,0.3602 -3.81655,1.2806 c -2.09909,0.7044 -4.44813,1.5271 -5.22007,1.8284 -0.77194,0.3013 -2.35801,0.8819 -3.52459,1.2904 -1.16657,0.4084 -2.5752,0.9048 -3.13028,1.1031 -1.75474,0.6268 -4.08963,1.2637 -4.60688,1.2567 -0.16875,0 -0.54094,-0.09 -0.82708,-0.1956 z m -96.047569,-9.7071 c -3.0584,-1.7369 -11.75462,-6.9028 -14.75194,-8.7632 -1.23032,-0.7636 -1.68723,-1.0894 -1.74876,-1.2468 -0.15389,-0.3936 -0.31791,-1.4906 -0.27414,-1.8335 0.0711,-0.5565 0.68202,-1.6232 2.07484,-3.6222 0.80786,-1.1595 1.30495,-1.754 1.5419,-1.8441 0.46932,-0.1785 3.44317,-0.4601 7.96043,-0.754 0.99317,-0.065 1.93759,-0.1638 2.0987,-0.2204 0.21554,-0.076 0.39394,-0.2442 0.67542,-0.6378 0.2104,-0.2942 0.76357,-1.0325 1.22929,-1.6408 0.46572,-0.6083 1.27479,-1.7183 1.79792,-2.4667 1.29496,-1.8524 1.23776,-1.8012 2.01149,-1.7993 0.88651,0 1.59088,0.1196 2.01879,0.3362 0.20271,0.1026 0.9088,0.4783 1.56913,0.835 0.66035,0.3566 3.27163,1.7194 5.80287,3.0284 5.2085,2.6933 6.53106,3.4115 6.96277,3.7809 0.27229,0.2329 0.30693,0.3072 0.3543,0.7603 0.11414,1.0912 -0.28687,1.7467 -3.26958,5.344 -2.11637,2.5525 -2.39462,2.7369 -6.84887,4.5388 -3.35089,1.3556 -3.00261,1.1767 -3.29481,1.6915 -0.80749,1.4224 -2.22274,3.7304 -2.57731,4.2029 -0.51321,0.684 -0.90261,0.9243 -1.58226,0.9763 l -0.50955,0.039 z m 120.204499,0.5889 c -0.31019,-0.054 -0.60839,-0.159 -0.7091,-0.2499 -0.35046,-0.3165 -1.12337,-1.4839 -2.2339,-3.374 l -1.13772,-1.9363 -0.57342,-0.2365 c -0.31537,-0.1301 -1.41983,-0.5789 -2.45435,-0.9974 -4.45424,-1.8019 -4.73249,-1.9863 -6.84885,-4.5388 -2.98271,-3.5973 -3.38374,-4.2528 -3.2696,-5.344 0.0474,-0.4531 0.082,-0.5274 0.35432,-0.7603 0.4317,-0.3694 1.75427,-1.0876 6.96275,-3.7809 2.53125,-1.309 5.14255,-2.6718 5.80287,-3.0284 0.66033,-0.3567 1.36644,-0.7324 1.56914,-0.835 0.4279,-0.2166 1.13229,-0.3339 2.01879,-0.3362 0.77374,0 0.71654,-0.053 2.01148,1.7993 0.52315,0.7484 1.33222,1.8584 1.79793,2.4667 0.46571,0.6083 1.01888,1.3466 1.22928,1.6408 0.28149,0.3936 0.4599,0.562 0.67544,0.6378 0.1611,0.057 1.10552,0.1558 2.0987,0.2204 4.51727,0.2939 7.49109,0.5755 7.96043,0.754 0.23694,0.09 0.73403,0.6846 1.5419,1.8441 1.34651,1.9326 1.98759,3.039 2.07403,3.5796 0.0524,0.3279 -0.1446,1.561 -0.30601,1.9153 -0.15343,0.3367 -1.28632,1.0554 -6.5031,4.1252 -4.47146,2.6312 -9.07889,5.2657 -10.40515,5.9496 l -1.12056,0.5778 z m 22.22604,-14.6653 c -1.16547,-0.2076 -1.39792,-0.3713 -3.88046,-2.733 -0.85763,-0.8158 -1.72349,-1.6131 -1.92414,-1.7717 l -0.36481,-0.2884 -2.63813,-0.1855 c -5.03159,-0.3538 -5.49887,-0.4675 -7.0642,-1.72 -1.1245,-0.8998 -3.93572,-3.3254 -4.47834,-3.8641 -0.48964,-0.4861 -0.50023,-0.5057 -0.49949,-0.9242 0.002,-0.9075 0.30218,-1.2399 4.80256,-5.3102 5.73826,-5.1899 6.51915,-5.8372 7.75888,-6.4307 0.50184,-0.2402 0.68193,-0.2854 1.13705,-0.2854 0.68398,0 1.17159,0.24 2.74065,1.3492 1.5378,1.0871 3.25468,2.1762 3.97021,2.5186 l 0.6003,0.2872 1.48073,-0.01 c 1.48158,-0.01 2.93815,-0.1411 6.12304,-0.5533 0.83641,-0.1082 1.63424,-0.216 1.77295,-0.2394 0.30098,-0.051 0.62828,0.1943 3.10946,2.328 1.75035,1.5052 2.64499,2.3725 2.86142,2.7741 0.18087,0.3355 0.18576,1.1013 0.009,1.4469 -0.2291,0.4485 -1.64333,1.8188 -5.82973,5.6485 -2.2438,2.0527 -4.65816,4.2724 -5.36526,4.9328 -2.57236,2.4022 -3.47139,3.1822 -3.63358,3.1528 -0.0264,0 -0.33616,-0.06 -0.68834,-0.1228 z m -163.520979,-0.083 c -0.41859,-0.2234 -0.83503,-0.5826 -2.72134,-2.3469 -1.01251,-0.947 -3.49774,-3.2324 -5.52275,-5.0787 -4.13958,-3.7742 -5.87527,-5.4398 -6.21305,-5.9622 -0.1891,-0.2924 -0.23013,-0.4424 -0.23013,-0.8416 0,-0.6142 0.12464,-0.8477 0.84041,-1.5744 0.5863,-0.5952 3.31012,-2.9647 4.39012,-3.819 0.5434,-0.4298 0.66229,-0.4912 0.88043,-0.4544 0.1387,0.024 0.93652,0.1312 1.77293,0.2394 3.18491,0.4122 4.64147,0.5438 6.12306,0.5533 l 1.48073,0.01 0.60028,-0.2876 c 0.70058,-0.3356 2.17228,-1.2639 3.92194,-2.4738 1.55492,-1.0753 1.9738,-1.2905 2.6115,-1.3416 1.0558,-0.085 1.96817,0.3833 3.79169,1.9454 1.44975,1.2419 7.98837,7.1536 8.8488,8.0005 0.90642,0.892 1.23437,1.4305 1.23543,2.0284 0,0.4185 -0.01,0.4381 -0.4995,0.9242 -0.54262,0.5387 -3.35383,2.9643 -4.47833,3.8641 -1.56469,1.252 -2.04828,1.3699 -7.02736,1.7136 l -2.6013,0.1795 -0.40019,0.2982 c -0.22011,0.1639 -1.19259,1.0448 -2.16106,1.9574 -0.96849,0.9126 -1.98907,1.8226 -2.26793,2.0222 -0.44829,0.3207 -0.58745,0.3749 -1.20061,0.4681 -0.86863,0.1319 -0.883,0.1316 -1.17377,-0.024 z m -15.74403,-18.2844 c -0.65566,-0.097 -0.65082,-0.091 -2.70143,-3.306 -0.74709,-1.1712 -1.71488,-2.6421 -2.15062,-3.2687 -0.43577,-0.6266 -1.1798,-1.8056 -1.65341,-2.62 -0.47358,-0.8144 -1.55286,-2.6153 -2.39832,-4.002 -1.84266,-3.0221 -2.19974,-3.6427 -2.48268,-4.3151 -0.27011,-0.6418 -0.23454,-0.8788 0.22567,-1.5026 0.66157,-0.8967 1.66699,-1.6751 3.06865,-2.3758 0.4048,-0.2024 0.86924,-0.4849 1.03211,-0.6279 0.26449,-0.2322 0.34463,-0.2589 0.75063,-0.2495 0.89283,0.021 2.92511,0.8492 7.31074,2.981 1.68636,0.8197 1.86109,0.8874 2.29238,0.8874 0.66299,0 1.86614,-0.3347 2.89828,-0.8062 0.48701,-0.2225 1.48479,-0.6386 2.21726,-0.9247 0.7325,-0.2861 1.87206,-0.7488 2.53239,-1.0282 0.66032,-0.2795 1.34823,-0.5316 1.52868,-0.5603 0.42207,-0.067 0.61014,0.086 1.45766,1.184 1.09385,1.4177 2.21472,3.0429 7.77613,11.2754 l 1.22708,1.8164 -0.13846,0.4935 c -0.36438,1.2986 -0.45876,1.383 -2.71112,2.4234 -0.84491,0.3903 -2.44813,1.1358 -3.56271,1.6568 l -2.0265,0.9471 -1.25512,-0.2315 c -1.67407,-0.3087 -2.28524,-0.4397 -3.11772,-0.6683 -0.97875,-0.2687 -1.28903,-0.3021 -1.94391,-0.2092 -1.05226,0.1493 -1.60595,0.3781 -4.67768,1.9338 -1.9074,0.966 -2.70177,1.2152 -3.49798,1.0972 z m 195.352979,0.027 c -0.56888,-0.056 -1.69722,-0.4943 -3.00149,-1.1648 -2.90018,-1.4911 -3.45283,-1.7228 -4.51313,-1.8922 -0.6329,-0.1011 -1.01068,-0.062 -1.98842,0.2078 -0.83047,0.2288 -1.43893,0.3593 -3.11771,0.6689 l -1.25512,0.2315 -2.0265,-0.9471 c -1.11459,-0.521 -2.7178,-1.2665 -3.56271,-1.6568 -2.25236,-1.0404 -2.34673,-1.1248 -2.71111,-2.4234 l -0.13846,-0.4935 1.22707,-1.8164 c 5.56141,-8.2324 6.68228,-9.8577 7.77612,-11.2754 0.84754,-1.0985 1.0356,-1.2513 1.45766,-1.184 0.18045,0.029 0.86836,0.2809 1.52869,0.5603 0.66032,0.2794 1.7999,0.7421 2.53239,1.0282 0.73248,0.2861 1.73025,0.7022 2.21728,0.9247 1.03211,0.4715 2.23528,0.8062 2.89827,0.8062 0.43127,0 0.606,-0.068 2.29237,-0.8874 4.38564,-2.1318 6.4179,-2.9605 7.31073,-2.981 0.40602,-0.01 0.48616,0.017 0.75065,0.2495 0.16285,0.143 0.6273,0.4255 1.0321,0.6279 1.40166,0.7007 2.4071,1.4791 3.06865,2.3759 0.70736,0.9588 0.71058,0.9505 -2.257,5.8176 -0.84548,1.3867 -1.92473,3.1876 -2.39833,4.002 -0.47361,0.8144 -1.21429,1.9886 -1.64595,2.6093 -0.43167,0.6207 -1.42786,2.1334 -2.21375,3.3617 -1.61702,2.5271 -1.82833,2.834 -2.08354,3.0265 -0.19713,0.1487 -0.79403,0.2622 -1.17876,0.224 z M 30.351631,204.21143 c -3.19737,-1.3243 -6.3012,-2.5635 -6.57428,-2.6249 -0.42941,-0.096 -1.16594,0.048 -3.15051,0.6177 -2.46699,0.7083 -3.1389,0.7605 -3.91493,0.3039 -0.66562,-0.3915 -0.75701,-0.5817 -1.33042,-2.7689 -0.22504,-0.8585 -0.63781,-2.3352 -0.91724,-3.2817 -0.27943,-0.9464 -0.63852,-2.2251 -0.79791,-2.8414 -0.15942,-0.6163 -0.44917,-1.5527 -0.6439,-2.081 -0.59062,-1.6024 -1.9659,-6.8751 -1.98293,-7.6024 -0.008,-0.3407 0.0484,-0.543 0.28388,-1.0195 0.1616,-0.327 0.37054,-0.6921 0.46435,-0.8113 0.23508,-0.2989 0.79857,-0.568 1.7716,-0.846 1.44722,-0.4135 2.25057,-0.4979 3.01006,-0.3162 0.93757,0.2243 3.41239,1.6243 6.40381,3.6226 l 1.62604,1.0862 2.73613,-0.1672 c 1.50487,-0.092 3.61855,-0.1722 4.6971,-0.1782 l 1.96097,-0.011 0.60031,0.2946 c 0.33016,0.162 0.67953,0.3601 0.77637,0.4402 0.27882,0.2306 0.84071,1.6272 3.73544,9.2845 1.92722,5.098 2.22108,5.9548 2.23233,6.5089 0.0112,0.5496 -0.27649,1.2641 -0.53139,1.32 -0.41686,0.091 -9.08698,1.5609 -9.18481,1.5566 -0.0602,0 -0.63174,-0.2211 -1.27007,-0.4854 z m 189.653929,-0.2372 c -2.24511,-0.392 -4.28005,-0.7759 -4.5221,-0.8531 -0.38225,-0.1219 -0.46609,-0.1877 -0.63804,-0.5005 -0.41419,-0.7536 -0.37089,-0.908 2.04901,-7.3093 2.89473,-7.6573 3.45661,-9.0539 3.73544,-9.2845 0.0969,-0.08 0.44622,-0.2781 0.77639,-0.4402 l 0.60029,-0.2946 1.96098,0.011 c 1.07853,0.01 3.19222,0.086 4.6971,0.1782 l 2.73612,0.1672 1.62604,-1.0862 c 2.99143,-1.9983 5.46623,-3.3983 6.40382,-3.6226 0.75947,-0.1817 1.56282,-0.097 3.01004,0.3162 0.97305,0.2781 1.53652,0.5471 1.7716,0.846 0.0938,0.1192 0.30278,0.4843 0.46437,0.8113 0.23551,0.4765 0.29183,0.6788 0.28386,1.0195 -0.017,0.7273 -1.39229,6 -1.98293,7.6024 -0.19471,0.5283 -0.48446,1.4647 -0.64387,2.081 -0.15943,0.6163 -0.51848,1.895 -0.79793,2.8415 -0.27943,0.9464 -0.6922,2.4232 -0.91724,3.2816 -0.57342,2.1872 -0.6648,2.3774 -1.33041,2.769 -0.77224,0.4543 -1.44752,0.4036 -3.87491,-0.2907 -1.953,-0.5586 -2.29348,-0.6379 -2.78895,-0.649 -0.40073,-0.01 -2.09468,0.6228 -6.26793,2.3378 -1.06435,0.4375 -2.01024,0.792 -2.10195,0.788 -0.0917,0 -2.00369,-0.328 -4.2488,-0.7201 z M 25.543141,184.38303 c -0.56282,-0.1214 -2.1501,-1.0739 -5.43426,-3.261 -1.88514,-1.2555 -1.98838,-1.3127 -2.3674,-1.3123 -0.35742,0 -3.75805,0.2483 -5.09358,0.3715 -0.47921,0.044 -0.57171,0.028 -0.88378,-0.1549 -0.19171,-0.1123 -0.66414,-0.5043 -1.04984,-0.8709 l -0.70126,-0.6668 -0.7533103,-7.16351 c -1.3247,-12.59676 -1.33762,-12.7345 -1.20603,-12.83647 0.0638,-0.0495 0.49268,-0.38708 0.95298,-0.75026 l 0.83693,-0.66032 h 3.1549303 3.15489 l 0.6926,1.0205 c 0.3809,0.56128 1.29739,1.79707 2.03661,2.7462 0.73918,0.94913 1.43405,1.85948 1.54411,2.023 0.12536,0.18624 0.35536,0.37136 0.61576,0.49559 0.94157,0.44921 5.3849,1.79925 8.41755,2.55757 0.98437,0.24613 1.92776,0.51792 2.09641,0.60397 0.85438,0.43587 1.00077,0.94246 2.23121,7.72163 1.11021,6.1168 1.14918,6.3712 1.15813,7.5638 0.008,1.0052 -0.005,1.1041 -0.18607,1.4196 -0.40845,0.7131 -1.01563,0.9125 -3.20748,1.0534 -1.75463,0.1128 -5.64899,0.1774 -6.0091,0.1 z m 200.145239,-0.017 c -2.78313,-0.1144 -3.75156,-0.323 -4.27682,-0.9212 -0.30502,-0.3474 -0.4045,-0.7209 -0.40505,-1.5206 -9.1e-4,-0.9063 0.1345,-1.7854 1.04443,-6.7943 1.22606,-6.74918 1.41434,-7.56818 1.88024,-8.17901 0.30896,-0.40506 0.65405,-0.54133 2.60877,-1.0301 3.03267,-0.75832 7.47598,-2.10836 8.41757,-2.55756 0.26039,-0.12423 0.49039,-0.30936 0.61575,-0.4956 0.11006,-0.16351 0.80491,-1.07386 1.54413,-2.023 0.73921,-0.94913 1.65568,-2.18492 2.0366,-2.74619 l 0.69258,-1.02051 h 3.15491 3.15493 l 0.83691,0.66033 c 0.46031,0.36318 0.88915,0.70079 0.95298,0.75026 0.13161,0.10197 0.11867,0.2397 -1.206,12.83646 l -0.75332,7.16352 -0.70127,0.6667 c -0.3857,0.3667 -0.85812,0.7587 -1.04983,0.871 -0.31207,0.1829 -0.40458,0.1991 -0.8838,0.1549 -1.34952,-0.1244 -4.73799,-0.3712 -5.10191,-0.3716 -0.37002,0 -0.47608,0.048 -1.24061,0.5686 -2.51783,1.7135 -4.85317,3.1855 -5.8785,3.7054 l -0.64031,0.3247 -1.56078,0.013 c -0.85842,0.01 -2.31714,-0.018 -3.2416,-0.056 z M 27.230101,164.24323 c -1.69485,-0.54549 -3.65782,-1.17299 -4.36222,-1.39445 l -1.28069,-0.40264 -0.96607,-1.22352 c -1.57506,-1.9948 -3.22841,-4.25222 -3.33147,-4.54875 -0.0133,-0.0387 -1.08702,-0.32361 -2.38567,-0.63311 -4.04075,-0.96301 -4.51744,-1.13916 -5.4664203,-2.01995 l -0.54398,-0.50491 2.2022903,-10.28509 c 1.21125,-5.6568 2.22116,-10.36239 2.24424,-10.45687 0.0344,-0.14054 0.13595,-0.18814 0.55865,-0.26174 0.75486,-0.13146 1.27094,-0.0357 3.40641,0.63202 1.17964,0.36884 3.28815,1.09326 3.31867,1.14018 0.008,0.0121 0.65709,1.64959 1.44272,3.63888 l 1.4284,3.61689 3.08819,1.45617 c 4.22993,1.99455 6.87238,3.31448 7.3341,3.66349 0.61443,0.46443 0.71823,0.70714 0.70709,1.65349 -0.0118,0.98794 -0.22631,2.46174 -1.23567,8.48421 -1.17108,6.98753 -1.2903,7.60252 -1.52263,7.85481 -0.2591,0.28132 -0.92772,0.58841 -1.27427,0.58526 -0.15407,-0.002 -1.66684,-0.44888 -3.36167,-0.99437 z m 197.489559,0.83107 c -0.18061,-0.0877 -0.42905,-0.2645 -0.55207,-0.39291 -0.27284,-0.28477 -0.33935,-0.61826 -1.4838,-7.43981 -1.05699,-6.30025 -1.28943,-7.88374 -1.30475,-8.88823 -0.0151,-0.99094 0.0814,-1.22314 0.7037,-1.69352 0.46175,-0.34901 3.10417,-1.66894 7.33412,-3.66349 l 3.08817,-1.45617 1.42842,-3.61689 c 0.78563,-1.98929 1.43485,-3.62679 1.44272,-3.63888 0.0305,-0.0469 2.13902,-0.77134 3.31865,-1.14018 2.13548,-0.66773 2.65155,-0.76348 3.40643,-0.63202 0.42268,0.0736 0.52427,0.1212 0.55863,0.26174 0.0231,0.0945 1.03301,4.80007 2.24426,10.45687 l 2.20228,10.28509 -0.54398,0.50491 c -0.94897,0.88079 -1.42567,1.05694 -5.46643,2.01995 -1.29864,0.3095 -2.37218,0.5944 -2.38565,0.63311 -0.10308,0.29653 -1.75641,2.55395 -3.3315,4.54875 l -0.96607,1.22352 -1.28068,0.40251 c -0.70437,0.22138 -2.6782,0.85038 -4.38627,1.39778 -1.77016,0.5673 -3.23293,0.99357 -3.40169,0.99129 -0.16285,-0.002 -0.44387,-0.0757 -0.62449,-0.16342 z m -2.65142,-20.30465 c -0.4649,-0.075 -0.92173,-0.96318 -2.64406,-5.14063 -1.03888,-2.51976 -2.6371,-6.58451 -3.11561,-7.92392 -0.19658,-0.55027 -0.44602,-1.39669 -0.55431,-1.88093 l -0.19688,-0.88044 0.27404,-0.24011 c 0.15072,-0.13207 0.55726,-0.49304 0.90343,-0.80217 0.34618,-0.30913 1.25972,-1.06959 2.0301,-1.68991 0.77038,-0.62032 1.70684,-1.41302 2.08103,-1.76156 0.37418,-0.34854 0.91852,-0.82086 1.20962,-1.04961 0.29111,-0.22874 0.6565,-0.5567 0.81197,-0.7288 0.61928,-0.68546 1.00312,-1.88422 1.22087,-3.81283 0.22856,-2.0243 0.26172,-2.21928 0.56601,-3.32843 0.10368,-0.37792 0.24049,-1.10876 0.30402,-1.62409 0.0691,-0.56017 0.16869,-1.01814 0.24775,-1.1388 0.21539,-0.32873 0.76932,-0.62597 2.30918,-1.23914 0.80003,-0.31857 1.6687,-0.68552 1.93037,-0.81545 0.54436,-0.27029 1.27705,-0.37204 1.62249,-0.22534 0.12259,0.0521 0.34028,0.25001 0.48376,0.43987 0.69865,0.92452 2.9582,5.12531 5.60078,10.41261 0.85808,1.71685 2.00629,3.9719 2.55157,5.01123 0.7875,1.50097 0.99144,1.95542 0.99144,2.20926 0,0.6486 -0.52368,1.12463 -2.24111,2.03716 -0.59429,0.31577 -1.3183,0.71307 -1.60891,0.88288 -0.31821,0.18595 -0.58045,0.28876 -0.65933,0.25849 -0.22837,-0.0876 -1.46898,0.72396 -1.95797,1.28089 -0.28394,0.32339 -0.73342,1.18525 -1.3645,2.61635 -0.5904,1.33885 -1.28378,3.14296 -1.37952,3.58936 -0.0453,0.21125 -0.16137,0.45797 -0.25791,0.54825 -0.21261,0.19882 -5.97233,3.55782 -7.35504,4.28937 -1.0865,0.57483 -1.53354,0.74995 -1.80328,0.70644 z m -188.955219,-0.1686 c -0.60971,-0.2205 -0.9065,-0.38487 -3.88192,-2.14994 -3.24075,-1.92244 -4.49282,-2.73463 -4.61561,-2.99405 -0.049,-0.10352 -0.13307,-0.35029 -0.1868,-0.54839 -0.1273,-0.46941 -0.91389,-2.4331 -1.44274,-3.60179 -0.64069,-1.41582 -0.93337,-1.96686 -1.21492,-2.28753 -0.48856,-0.55644 -1.72922,-1.36795 -1.95749,-1.28036 -0.0789,0.0303 -0.34112,-0.0725 -0.65933,-0.25849 -0.29062,-0.16981 -1.01462,-0.56711 -1.60891,-0.88288 -1.71742,-0.91253 -2.2411,-1.38856 -2.2411,-2.03716 0,-0.25384 0.20392,-0.70829 0.99142,-2.20926 0.54528,-1.03933 1.6935,-3.29438 2.55157,-5.01123 2.6426,-5.2873 4.90215,-9.48809 5.6008,-10.41261 0.14348,-0.18986 0.36117,-0.3878 0.48375,-0.43987 0.34544,-0.1467 1.07812,-0.0449 1.62249,0.22534 0.26167,0.12993 1.13034,0.49688 1.93036,0.81545 1.53988,0.61317 2.09381,0.91041 2.30919,1.23914 0.0791,0.12066 0.1787,0.57863 0.24776,1.1388 0.0635,0.51533 0.20033,1.24617 0.304,1.62409 0.30429,1.10915 0.33745,1.30413 0.56603,3.32843 0.21774,1.92861 0.60157,3.12737 1.22084,3.81283 0.1555,0.1721 0.52087,0.50006 0.81198,0.7288 0.2911,0.22875 0.83544,0.70107 1.20962,1.04961 0.37421,0.34854 1.31066,1.14124 2.08104,1.76156 0.77038,0.62032 1.68394,1.38078 2.0301,1.68991 0.34616,0.30913 0.75271,0.6701 0.90342,0.80217 l 0.27405,0.24011 -0.19688,0.88044 c -0.1083,0.48424 -0.35772,1.33066 -0.55432,1.88093 -0.82828,2.3185 -3.38901,8.68462 -4.50574,11.20149 -0.8126,1.83145 -1.0829,2.05242 -2.07266,1.69446 z m 7.77538,-17.49617 c -0.6,-0.31903 -1.05967,-0.71707 -4.28669,-3.71194 -1.69101,-1.56935 -3.12549,-2.89095 -3.18778,-2.93687 -0.0778,-0.0574 -0.33131,-1.43107 -0.8104,-4.39143 l -0.69717,-4.30792 -1.43769,-1.07316 c -0.79073,-0.59024 -1.85833,-1.36946 -2.37245,-1.73161 -0.97121,-0.68412 -1.1863,-0.92287 -1.1863,-1.31692 0,-0.26977 0.42546,-1.16675 1.35081,-2.84799 0.83944,-1.52516 0.91634,-1.62409 1.4055,-1.80876 0.22289,-0.0842 0.80148,-0.33209 1.28571,-0.55097 0.48423,-0.21887 1.25863,-0.54616 1.72084,-0.72731 0.46224,-0.18115 1.66884,-0.72945 2.68134,-1.21845 1.01251,-0.488995 1.98708,-0.935545 2.16578,-0.992335 1.11587,-0.35467 6.74777,-0.37695 8.51952,-0.0337 0.2421,0.0469 0.73483,0.17931 1.09491,0.29424 l 0.6547,0.20895 0.13114,0.725695 c 0.23626,1.30758 0.83052,4.01271 0.97717,4.44825 0.17791,0.52846 0.0281,0.47263 3.13073,1.16613 1.30652,0.29202 2.47452,0.58209 2.59558,0.64459 0.15268,0.0788 0.22011,0.17603 0.22011,0.31724 0,0.36662 -0.48583,1.38107 -1.09176,2.27971 -0.32702,0.48499 -0.6164,0.99096 -0.64308,1.1244 -0.0306,0.15265 -0.11696,0.26861 -0.23306,0.31276 -0.13032,0.0495 -0.20072,0.15942 -0.23956,0.37393 -0.0767,0.42311 -0.22912,0.70284 -0.71096,1.30426 -0.95682,1.1943 -2.05103,2.73009 -3.56417,5.00248 -0.49833,0.74836 -1.48001,2.16418 -2.1815,3.14625 -0.70147,0.98207 -1.5848,2.27871 -1.96294,2.88143 -0.56162,0.89515 -1.31902,1.94899 -2.4194,3.3663 -0.19736,0.25416 -0.49736,0.27157 -0.90893,0.0528 z m 173.572449,0.14031 c -0.10014,-0.0187 -0.24306,-0.13039 -0.3176,-0.24824 -0.0746,-0.11786 -0.48156,-0.66451 -0.90446,-1.21478 -0.42291,-0.55027 -1.07811,-1.49363 -1.45598,-2.09634 -0.37788,-0.60272 -1.261,-1.89936 -1.96249,-2.88143 -0.70148,-0.98207 -1.68315,-2.39789 -2.18148,-3.14625 -1.51315,-2.27239 -2.60737,-3.80818 -3.56419,-5.00248 -0.48182,-0.60142 -0.6343,-0.88115 -0.71094,-1.30426 -0.0389,-0.21451 -0.10924,-0.32439 -0.23956,-0.37393 -0.11612,-0.0442 -0.20253,-0.16011 -0.23305,-0.31276 -0.0267,-0.13344 -0.31609,-0.63941 -0.6431,-1.1244 -0.60594,-0.89864 -1.09177,-1.91309 -1.09177,-2.27971 0,-0.14121 0.0675,-0.23843 0.22011,-0.31724 0.12106,-0.0625 1.28908,-0.35257 2.5956,-0.64459 3.10269,-0.6935 2.9528,-0.63767 3.13073,-1.16613 0.14665,-0.43554 0.74089,-3.14067 0.97715,-4.44825 l 0.13113,-0.725695 0.65471,-0.20895 c 0.36009,-0.11493 0.85281,-0.24734 1.09493,-0.29424 1.77174,-0.34325 7.40363,-0.32097 8.51952,0.0337 0.17867,0.0568 1.15327,0.50334 2.16577,0.992335 1.0125,0.489 2.2191,1.0373 2.68133,1.21845 0.46223,0.18115 1.23661,0.50844 1.72085,0.72731 0.48424,0.21888 1.06281,0.46681 1.28572,0.55097 0.48917,0.18467 0.56604,0.2836 1.40549,1.80876 0.92536,1.68124 1.35079,2.57822 1.35079,2.84799 0,0.39405 -0.21507,0.6328 -1.18628,1.31692 -0.51412,0.36215 -1.58173,1.14137 -2.37245,1.73161 l -1.43769,1.07316 -0.69717,4.30792 c -0.47909,2.96036 -0.73259,4.33405 -0.8104,4.39143 -0.0623,0.0459 -1.49678,1.36752 -3.18778,2.93687 -3.97817,3.69199 -4.32903,3.96573 -4.93744,3.85225 z m 30.07686,-16.45039 c -0.35698,-0.15905 -12.83844,-6.165 -19.20951,-9.24342 l -6.20307,-2.997235 -3.72185,-0.14923 c -4.45215,-0.17851 -7.07747,-0.19819 -7.35619,-0.0552 -0.25288,0.12978 -0.33476,0.38013 -0.857,2.620115 -0.57698,2.47473 -0.65346,2.73434 -0.85736,2.90984 -0.31787,0.27361 -0.92982,0.53422 -3.44064,1.4653 -4.85019,1.79856 -7.51717,2.68096 -8.15348,2.69764 -0.23529,0.006 -0.58705,-0.13384 -1.4846,-0.59089 -4.81036,-2.44954 -18.61745,-10.343245 -20.81317,-11.899175 -0.62148,-0.4404 -0.94195,-0.95938 -1.02285,-1.65647 -0.0311,-0.26793 -0.2518,-1.28018 -0.49044,-2.24944 -0.73817,-2.99803 -1.23739,-5.34222 -1.246,-5.85083 -0.0144,-0.85028 0.53715,-1.64619 1.43551,-2.07155 0.60543,-0.28665 2.08018,-0.70584 3.36371,-0.95611 1.05882,-0.20645 3.26542,-0.43265 3.35422,-0.34385 0.0269,0.0269 -0.10705,0.29365 -0.29758,0.59287 -0.19052,0.29923 -0.51292,0.8502 -0.71647,1.22438 -0.20353,0.37419 -0.57421,1.001 -0.82373,1.3929 -0.24952,0.39191 -0.45367,0.76189 -0.45367,0.82217 0,0.0603 0.17109,0.21837 0.38019,0.3513 0.61002,0.38779 2.23482,1.1955 2.40487,1.1955 0.0857,0 0.43547,0.18252 0.77721,0.40561 0.34172,0.22308 0.79506,0.47409 1.0074,0.55778 0.45655,0.17996 2.23489,1.12857 3.18451,1.6987 0.99435,0.59699 1.79182,0.86589 2.58618,0.87204 0.45887,0.004 0.59405,-0.0382 2.50601,-0.77453 0.83641,-0.3221 1.98021,-0.71654 2.54178,-0.87653 1.26467,-0.3603 1.53604,-0.47223 1.69496,-0.69912 0.17892,-0.25545 0.16022,-0.51535 -0.15844,-2.20243 -0.60373,-3.19632 -1.15775,-5.24217 -1.71762,-6.34268 -0.2926,-0.57515 -1.00887,-1.63792 -1.58735,-2.35524 -1.1734,-1.45502 -3.80219,-5.31803 -4.39021,-6.45141 -0.12057,-0.2324 -0.26173,-0.39936 -0.33644,-0.39793 -0.14543,0.003 -0.81651,0.47745 -2.29323,1.62202 -1.42533,1.10473 -1.6305,1.23428 -1.72877,1.09158 -0.1944,-0.28229 0.0725,-4.7145 0.37764,-6.27103 0.19603,-0.99993 0.59805,-1.67792 1.17913,-1.98852 0.31128,-0.16639 0.42811,-0.17834 1.61617,-0.16539 1.41904,0.0155 5.59944,0.36445 6.49808,0.54247 0.86112,0.17059 1.415,0.47723 2.17557,1.20444 0.36833,0.35218 2.05168,2.17337 3.74078,4.0471 l 3.0711,3.40677 1.66189,0.65222 c 3.04855,1.19642 3.97912,1.52784 4.67239,1.66406 0.67042,0.13172 0.70794,0.13078 1.47019,-0.0369 0.75675,-0.16643 0.79161,-0.16741 1.07045,-0.0302 0.50404,0.24799 2.39193,2.57057 2.6164,3.21884 0.046,0.13269 0.21464,0.34106 0.37488,0.46304 0.50048,0.38102 5.32303,5.5404 9.05109,9.68325 1.81901,2.0214 2.3063,2.47345 5.29783,4.91458 2.22439,1.81513 7.81452,6.282325 8.60426,6.875845 1.81518,1.36418 10.63842,8.22402 10.92141,8.49111 0.10273,0.097 -0.0243,0.084 -0.27614,-0.0282 z M 210.54405,86.802865 c 0.0713,-0.27267 -0.0268,-0.49795 -0.19749,-0.45332 -0.113,0.0296 -0.20602,-0.0462 -0.36083,-0.2937 -0.11472,-0.18343 -0.35582,-0.5136 -0.53578,-0.73371 -0.67965,-0.8313 -3.17724,-3.63495 -3.3807,-3.79499 -0.2414,-0.18989 -0.78258,-0.21969 -1.59138,-0.0876 -0.89555,0.14622 -1.06396,0.29298 -1.24059,1.08117 -0.0752,0.33547 -0.0626,0.42395 0.11531,0.81261 0.10982,0.23989 0.44996,0.76915 0.75585,1.17614 0.75935,1.01027 0.89537,1.07683 3.31208,1.62068 2.1972,0.49446 2.84595,0.66493 2.90714,0.76395 0.0729,0.11795 0.17271,0.0759 0.21639,-0.0912 z M 11.382251,110.69815 c 0,-0.0634 8.53502,-6.72132 10.7253,-8.36651 0.78771,-0.59166 6.37226,-5.054215 8.60428,-6.875565 2.99152,-2.44113 3.4788,-2.89318 5.29784,-4.91458 3.72803,-4.14285 8.55059,-9.30223 9.05107,-9.68325 0.16024,-0.12198 0.32892,-0.33035 0.37487,-0.46304 0.22449,-0.64827 2.11238,-2.97085 2.61642,-3.21884 0.27883,-0.13719 0.31371,-0.13621 1.07044,0.0302 0.76224,0.16764 0.79978,0.16858 1.47018,0.0369 0.69327,-0.13622 1.62386,-0.46764 4.67239,-1.66406 l 1.66191,-0.65222 3.07107,-3.40677 c 1.68911,-1.87373 3.37247,-3.69492 3.74081,-4.0471 0.76057,-0.72721 1.31444,-1.03385 2.17557,-1.20444 0.89861,-0.17802 5.07903,-0.52701 6.49808,-0.54247 1.18806,-0.0129 1.30489,-9.1e-4 1.61617,0.16539 0.58107,0.3106 0.9831,0.98859 1.1791,1.98852 0.30515,1.55653 0.57205,5.98874 0.37766,6.27103 -0.0983,0.1427 -0.30345,0.0132 -1.72877,-1.09158 -1.47671,-1.14457 -2.1478,-1.61923 -2.29322,-1.62202 -0.0747,-0.002 -0.21587,0.16553 -0.33645,0.39793 -0.58803,1.13338 -3.2168,4.99639 -4.39021,6.45141 -0.57849,0.71732 -1.29475,1.78009 -1.58734,2.35524 -0.55989,1.10051 -1.11391,3.14636 -1.71763,6.34268 -0.31867,1.68708 -0.33737,1.94698 -0.15843,2.20243 0.15891,0.22689 0.43029,0.33882 1.69494,0.69912 0.56159,0.15999 1.70539,0.55443 2.5418,0.87653 1.91194,0.7363 2.04713,0.77808 2.50598,0.77453 0.79437,-0.006 1.59185,-0.27505 2.58621,-0.87204 0.94961,-0.57013 2.72796,-1.51874 3.18451,-1.6987 0.21233,-0.0837 0.66568,-0.3347 1.0074,-0.55778 0.34174,-0.22309 0.69148,-0.40561 0.77721,-0.40561 0.17004,0 1.79483,-0.80771 2.40485,-1.1955 0.20913,-0.13293 0.3802,-0.29101 0.3802,-0.3513 0,-0.0603 -0.20414,-0.43026 -0.45368,-0.82217 -0.24951,-0.3919 -0.62018,-1.01871 -0.82371,-1.3929 -0.20356,-0.37418 -0.52598,-0.92515 -0.71647,-1.22438 -0.19052,-0.29922 -0.32444,-0.56601 -0.29758,-0.59287 0.0888,-0.0888 2.2954,0.1374 3.35422,0.34385 1.28353,0.25027 2.75828,0.66946 3.36369,0.95611 0.89837,0.42536 1.44991,1.22127 1.43551,2.07155 -0.008,0.50861 -0.50782,2.8528 -1.24598,5.85083 -0.23866,0.96926 -0.45934,1.98151 -0.49044,2.24944 -0.0809,0.69709 -0.40137,1.21607 -1.02285,1.65647 -2.19572,1.55593 -16.00282,9.449635 -20.81319,11.899175 -0.89755,0.45705 -1.24931,0.59706 -1.48458,0.59089 -0.63633,-0.0167 -3.30331,-0.89908 -8.15348,-2.69764 -2.51082,-0.93108 -3.12277,-1.19169 -3.44065,-1.4653 -0.2039,-0.1755 -0.2804,-0.43511 -0.85735,-2.90984 -0.52226,-2.239985 -0.60412,-2.490335 -0.85702,-2.620115 -0.27837,-0.14287 -2.89994,-0.12341 -7.35618,0.0546 l -3.72184,0.14868 -8.88441,4.296345 c -12.506,6.04771 -16.60822,7.98635 -16.60822,7.84876 z m 34.84022,-24.013325 c 0.22949,-0.0664 1.29067,-0.31693 2.35817,-0.55665 2.41711,-0.54277 2.55163,-0.60855 3.31091,-1.61874 0.3059,-0.40699 0.64604,-0.93625 0.75585,-1.17614 0.17794,-0.38866 0.1905,-0.47714 0.11532,-0.81261 -0.17664,-0.78819 -0.34504,-0.93495 -1.2406,-1.08117 -0.8088,-0.13206 -1.34996,-0.10226 -1.59136,0.0876 -0.20347,0.16004 -2.70104,2.96369 -3.38073,3.79499 -0.17993,0.22011 -0.42103,0.55028 -0.53575,0.73371 -0.15482,0.24754 -0.24784,0.32325 -0.36083,0.2937 -0.10383,-0.0271 -0.16517,0.01 -0.19285,0.11535 -0.0542,0.20729 0.0844,0.44058 0.22882,0.38516 0.0637,-0.0244 0.30357,-0.0988 0.53305,-0.16523 z"
       id="path825"
       inkscape:connector-curvature="0" />
  </g>
</svg>
