<?xml version="1.0" encoding="UTF-8" standalone="no"?>
<!-- Created with Inkscape (http://www.inkscape.org/) -->

<svg
   xmlns:dc="http://purl.org/dc/elements/1.1/"
   xmlns:cc="http://creativecommons.org/ns#"
   xmlns:rdf="http://www.w3.org/1999/02/22-rdf-syntax-ns#"
   xmlns:svg="http://www.w3.org/2000/svg"
   xmlns="http://www.w3.org/2000/svg"
   xmlns:sodipodi="http://sodipodi.sourceforge.net/DTD/sodipodi-0.dtd"
   xmlns:inkscape="http://www.inkscape.org/namespaces/inkscape"
   width="256mm"
   height="256mm"
   viewBox="0 0 256.00001 256.00002"
   version="1.1"
   id="svg952"
   inkscape:version="0.92.5 (2060ec1f9f, 2020-04-08)"
   sodipodi:docname="hegathe.svg">
  <defs
     id="defs946" />
  <sodipodi:namedview
     id="base"
     pagecolor="#ffffff"
     bordercolor="#666666"
     borderopacity="1.0"
     inkscape:pageopacity="0.0"
     inkscape:pageshadow="2"
     inkscape:zoom="1.2179914"
     inkscape:cx="462.27681"
     inkscape:cy="610.33066"
     inkscape:document-units="mm"
     inkscape:current-layer="g4458"
     showgrid="false"
     units="mm"
     inkscape:window-width="3840"
     inkscape:window-height="2056"
     inkscape:window-x="0"
     inkscape:window-y="50"
     inkscape:window-maximized="1"
     showguides="true"
     inkscape:guide-bbox="true" />
  <metadata
     id="metadata949">
    <rdf:RDF>
      <cc:Work
         rdf:about="">
        <dc:format>image/svg+xml</dc:format>
        <dc:type
           rdf:resource="http://purl.org/dc/dcmitype/StillImage" />
        <dc:title />
      </cc:Work>
    </rdf:RDF>
  </metadata>
  <g
     inkscape:label="Layer 1"
     inkscape:groupmode="layer"
     id="layer1"
     transform="translate(0,-40.999976)">
    <rect
       style="fill:#1a1a1a;fill-opacity:1;stroke:none;stroke-width:0.83444387;stroke-opacity:1"
       id="rect816"
       width="256"
       height="256"
       x="0"
       y="40.999977" />
    <g
       id="g4458"
       transform="matrix(0.52304736,0,0,0.52304736,571.78226,189.97244)"
       style="fill:#ffffff">
      <g
         id="g4376"
         style="fill:#ffffff">
        <g
           id="g4365"
           style="fill:#ffffff">
          <path
             id="path4309"
             d="m -862.49518,183.1058 c 14.039,-2.9391 27.1908,-10.88087 40.008,-24.159 6.6597,-6.89918 16.8837,-21.40464 16.8837,-23.95397 0,-2.16941 -2.1437,-1.60803 -5.2632,1.37831 l -2.8726,2.75 2.4952,-4.5 c 3.8144,-6.879 8.2018,-18.62318 10.2735,-27.5 1.4894,-6.38183 1.8571,-11.843151 1.8178,-27.000001 -0.052,-20.14231 -0.1921,-21.24908 -7.9029,-62.58546 -1.9068,-10.22201 -3.9975,-22.82201 -4.646,-28 -1.622,-12.95093 -1.6284,-44.89448 -0.01,-52.24385 0.7058,-3.20611 1.0172,-6.09539 0.692,-6.4206 -1.0666,-1.06661 -5.3395,3.81425 -8.3927,9.58689 -9.1681,17.3337 -11.4458,42.4456 -6.3184,69.66302 1.1397,6.05 3.1903,16.85 4.5568,24 6.888,36.03891 5.3764,64.07766 -4.7126,87.413421 -4.8195,11.14734 -9.9872,18.48501 -20.1545,28.61755 -10.844,10.80683 -19.8865,16.98513 -33.5226,22.90412 -11.4154,4.95506 -14.8798,6.98549 -15.7389,9.2241 -0.3256,0.84846 0.036,1.97691 0.8038,2.50766 1.9253,1.33115 22.8684,0.23034 32.004,-1.68219 z"
             style="fill:#ffffff;fill-opacity:1"
             inkscape:connector-curvature="0" />
          <path
             id="path4307"
             d="m -814.46348,173.95817 c 19.4485,-14.25912 44.5931,-44.66097 56.2866,-68.05522 13.2711,-26.550611 18.279,-53.661131 17.3023,-93.668441 -0.786,-32.1976 -4.4954,-50.86142 -13.5229,-68.04096 -4.1694,-7.93429 -13.5137,-18.57241 -16.3137,-18.57241 -2.4968,0 -2.3872,1.29239 0.5361,6.32193 5.6167,9.6636 11.4518,28.17485 14.7139,46.67807 0.7768,4.40591 1.3242,15.13208 1.3271,26 0.01,21.29963 -1.0842,27.98207 -7.9095,48.5 -7.0302,21.13391 -14.4588,36.58165 -26.7365,55.598051 -5.2387,8.11404 -7.3265,12.45013 -8.9074,18.5 -2.7663,10.58588 -8.3761,22.18594 -15.4278,31.90195 -7.7119,10.62557 -11.4882,16.60681 -11.4882,18.19578 0,2.52825 3.8497,1.25307 10.14,-3.35875 z"
             style="fill:#ffffff;fill-opacity:1"
             inkscape:connector-curvature="0" />
          <path
             id="path4305"
             d="m -853.06358,149.11715 c 5.032,-1.26978 6.7387,-2.33427 10.9601,-6.83598 12.7606,-13.60797 21.5,-37.7377 21.5,-59.362451 0,-6.61372 -0.1667,-7.27377 -1.5,-5.94044 -0.825,0.825 -1.5,2.03885 -1.5,2.69745 0,2.51857 -7.4013,19.77682 -11.5557,26.945411 -9.3172,16.07741 -20.6915,26.92553 -35.1943,33.56642 -10.2933,4.71334 -9.7363,7.81402 1.75,9.74166 5.2351,0.87857 9.7816,0.64098 15.5399,-0.81207 z"
             style="fill:#ffffff;fill-opacity:1"
             inkscape:connector-curvature="0" />
        </g>
        <path
           style="fill:#ffffff"
           d="m -773.97158,3.991529 c 8.5302,-4.04785997 14.154,-15.57673 12.9972,-26.64442 -1.9528,-18.68393 -17.1374,-30.30807 -31.1291,-23.83011 -18.6355,8.62794 -18.1681,40.6346 0.73,49.98896 5.1638,2.55602 12.6014,2.76356 17.4019,0.48557 z"
           id="path4301"
           inkscape:connector-curvature="0" />
        <g
           id="g4360"
           style="fill:#ffffff">
          <path
             id="path4303"
             d="m -791.46028,106.36392 c 16.0267,-24.710541 28.8184,-56.193221 32.4001,-79.742781 1.5117,-9.93937 2.0006,-32.03938 0.7067,-31.9457 -0.4125,0.0299 -2.1,2.15612 -3.75,4.72503003 -1.7549,2.73224997 -5.0426,5.92616997 -7.9216,7.69569997 -4.2644,2.62103 -5.8668,3.02407 -12,3.01821 -5.9697,-0.006 -7.9209,-0.47233 -12.4577,-2.97928 -2.9586,-1.63489 -6.8961,-4.95906 -8.75,-7.38704997 -4.2162,-5.52186003 -4.2701,-4.66138003 -0.8379,13.37308997 8.4154,44.21778 8.784,47.01539 8.8286,67 0.041,18.16174 -0.6125,23.897071 -3.9569,34.750001 -1.2768,4.14334 1.5476,1.03845 7.7387,-8.50722 z"
             style="fill:#ffffff;fill-opacity:1"
             inkscape:connector-curvature="0" />
          <path
             id="path4299"
             d="m -805.43068,-40.848271 c 5.7173,-9.42518 17.0351,-14.07829 27.0773,-11.13237 2.8874,0.84704 6.9135,2.67895 8.9468,4.07092 2.0334,1.39197 3.9216,2.53086 4.1962,2.53086 0.7872,0 -2.9723,-10.33226 -6.2853,-17.27404 -4.1046,-8.60057 -9.676,-15.64758 -13.7002,-17.329 -12.2588,-5.12205 -21.1325,3.65595 -23.3609,23.1088 -1.2128,10.5876 -1.3567,20.5073 -0.2967,20.46263 0.4125,-0.0174 1.9528,-2.0144 3.4228,-4.4378 z"
             style="fill:#ffffff;fill-opacity:1"
             inkscape:connector-curvature="0" />
        </g>
      </g>
      <g
         id="g4356"
         style="fill:#ffffff">
        <path
           style="fill:#ffffff;fill-opacity:1"
           d="m -846.62428,95.871139 c 2.4879,-12.76186 4.2236,-20.1384 6.5636,-27.89461 1.3515,-4.47954 2.4565,-9.65454 2.4557,-11.5 0,-4.78501 -8.103,-20.25857 -10.8203,-20.66818 -3.5497,-0.53508 -6.2656,1.76719 -9.0228,7.64861 -2.4657,5.25953 -2.6545,6.62862 -2.6432,19.16418 0.013,14.69296 1.9383,24.03527 7.0179,34.05932 3.3447,6.600561 5.0461,6.387041 6.4491,-0.80932 z"
           id="path4295"
           inkscape:connector-curvature="0" />
        <path
           style="fill:#ffffff;fill-opacity:1"
           d="m -873.74448,51.716949 c 5.9986,-8.06685 13.8627,-15.41335 19.5888,-18.2993 2.2287,-1.12329 4.1521,-2.12447 4.2743,-2.22484 0.1221,-0.10037 -1.3202,-4.77095 -3.2051,-10.37907 -1.8849,-5.60812 -3.7116,-11.88318 -4.0594,-13.94459 -1.1218,-6.64990997 -1.3693,-7.08054997 -3.7424,-6.50964997 -3.3762,0.81223997 -7.4915,5.01101997 -12.795,13.05437997 -8.3404,12.64938 -11.5911,24.35133 -9.8198,35.34997 1.0275,6.38009 2.367,9.85729 3.7973,9.85729 0.455,0 3.1376,-3.10689 5.9613,-6.90419 z"
           id="path4293"
           inkscape:connector-curvature="0" />
        <path
           style="fill:#ffffff;fill-opacity:1"
           d="m -881.60378,11.760089 c 9.0741,-9.51059 13.5796,-12.93127 19.2221,-14.59397 l 4.2782,-1.26068 1.2197,-10.34931 c 0.6708,-5.69212 1.96,-13.74358 2.8648,-17.89215 2.4389,-11.18233 2.4097,-11.49438 -1.1076,-11.83928 -8.5993,-0.84321 -33.182,22.36752 -38.0497,35.92609 -1.7468,4.86541 -3.0696,21.17482 -2.0477,25.24636 0.5097,2.03059 1.2761,2.62399 3.3893,2.62399 2.1066,0 4.4448,-1.79659 10.2309,-7.86105 z"
           id="path4291"
           inkscape:connector-curvature="0" />
        <path
           style="fill:#ffffff;fill-opacity:1"
           d="m -888.60348,-37.384381 c 9.7639,-6.50265 28.2399,-12.15502 34.5525,-10.57066 2.1722,0.5452 2.7052,0.17527 3.8107,-2.64498 0.7069,-1.80336 2.6018,-6.652 4.211,-10.77476 1.6092,-4.12276 5.0633,-11.05708 7.6758,-15.40961 2.6125,-4.35253 4.75,-8.06687 4.75,-8.25408 0,-0.88688 -6.1912,-0.17582 -11.061,1.27035 -13.1946,3.91839 -29.8539,14.57758 -37.2049,23.80506 -3.7883,4.75526 -12.7341,21.93154 -12.7341,24.4499 0,1.73371 1.1042,1.38936 6,-1.87122 z"
           id="path4289"
           inkscape:connector-curvature="0" />
      </g>
      <g
         id="g4319"
         style="fill:#ffffff">
        <path
           style="fill:#ffffff;fill-opacity:1"
           d="m -905.60348,60.840779 c 0,-0.4292 -1.5068,-4.3667 -3.3485,-8.75 -1.8417,-4.3833 -4.1279,-10.33214 -5.0804,-13.21964 l -1.7318,-5.25 h -5.0162 c -4.4513,0 -5.5402,0.4623 -9.6697,4.10531 -5.6032,4.94322 -13.7554,9.1716 -20.9551,10.86904 -3.9952,0.9419 -5.2264,1.65359 -4.9962,2.8878 0.4526,2.42541 15.7929,5.95885 30.8425,7.10414 6.9154,0.52626 13.6718,1.39562 15.0144,1.93189 3.0438,1.21584 4.941,1.33927 4.941,0.32146 z"
           id="path4285"
           inkscape:connector-curvature="0" />
        <path
           style="fill:#ffffff;fill-opacity:1"
           d="m -919.54468,28.962339 c 0.7628,-0.76276 0.079,-4.35671 -2.3689,-12.45664 -1.8925,-6.26151 -3.7611,-12.86231 -4.1523,-14.66844 -0.7576,-3.49701 -2.8237,-5.22779 -8.6771,-7.26889 -3.1747,-1.10701 -4.5157,-0.99887 -10.5,0.84679 -9.5122,2.93369 -15.6944,3.5087 -23.8605,2.21925 -5.9654,-0.94195 -17.4105,-3.89048 -22.1276,-5.70059 -1.9856,-0.76195 -1.7101,1.99062 0.7156,7.15124003 5.7401,12.21144997 28.9639,28.18617997 44.912,30.89312997 4.901,0.83186 24.9944,0.0486 26.0588,-1.01585 z"
           id="path4283"
           inkscape:connector-curvature="0" />
        <path
           style="fill:#ffffff;fill-opacity:1"
           d="m -928.10398,-18.128861 c -0.054,-9.72954 -0.2871,-11.05741 -2.4589,-13.98836 -4.038,-5.44964 -8.9309,-8.02958 -21.3374,-11.25086 -17.972,-4.66635 -28.192,-8.87044 -40.1333,-16.50923 -7.5333,-4.81897 -19.00652,-14.25771 -26.03862,-21.42126 -3.2828,-3.34416 -6.5453,-6.08029 -7.25,-6.08029 -3.5836,0 0.6336,16.26704 7.7737,29.98599 5.2643,10.11475 11.4003,16.85919 21.37822,23.4983 10.9928,7.31436 29.1678,15.87407 40.1945,18.93005 4.8797,1.35241 12.6973,3.5565 17.3723,4.89797 4.675,1.34148 8.9632,2.495 9.5294,2.56337 0.6529,0.0788 1.0077,-3.80731 0.9701,-10.62568 z"
           id="path4281"
           inkscape:connector-curvature="0" />
        <path
           style="fill:#ffffff;fill-opacity:1"
           d="m -925.52818,-40.260791 c 1.4387,-5.52212 1.4226,-5.95053 -0.263,-7.00322 -0.9875,-0.6167 -3.869,-5.24999 -6.4034,-10.29618 -6.1602,-12.26571 -8.4974,-15.04659 -17.9089,-21.30801 -9.815,-6.52993 -20.8951,-17.84551 -25.9202,-26.471239 -10.5425,-18.09628 -16.8161,-41.67179 -19.1701,-72.03942 -0.8537,-11.01432 -1.6943,-12.61759 -3.9067,-7.45137 -2.72962,6.37402 -7.20952,25.15756 -8.54582,35.83158 -1.6346,13.05665 -0.7385,31.71597 2.0158,41.97328 4.0965,15.256089 13.79982,30.660779 24.25052,38.499339 2.9021,2.17672 12.2515,7.65178 20.7765,12.16682 17.4108,9.22115 23.9021,13.31614 29,18.29452 1.925,1.87986 3.7346,3.4782 4.0214,3.55188 0.2868,0.0737 1.2111,-2.51292 2.0539,-5.74798 z"
           id="path4279"
           inkscape:connector-curvature="0" />
        <path
           style="fill:#ffffff;fill-opacity:1"
           d="m -918.56938,-51.628861 c 6.6061,-7.03779 14.9659,-24.19761 14.9659,-30.71989 0,-2.60015 -0.627,-3.31457 -4.511,-5.14028 -14.992,-7.04707 -34.4239,-43.888609 -41.3682,-78.431349 -3.5528,-17.67259 -4.4053,-29.45871 -3.8248,-52.8807 0.3096,-12.48829 1.225,-26.20411 2.1077,-31.57778 1.9562,-11.90965 1.9778,-14 0.1443,-14 -3.2854,0 -13.4369,18.94682 -17.4131,32.5 -6.7984,23.17308 -7.709,53.54752 -2.5332,84.5 2.7795,16.6222 8.1869,35.82229 12.8774,45.72408 4.8299,10.195979 7.4495,13.926559 17.5933,25.054469 4.1817,4.58741 8.0153,10.13344 10.3685,15 4.8446,10.01916 6.294,12.22145 8.0432,12.22145 0.7909,0 2.3884,-1.0125 3.55,-2.25 z"
           id="path4277"
           inkscape:connector-curvature="0" />
      </g>
      <g
         id="g4410"
         style="fill:#ffffff">
        <path
           style="fill:#ffffff;fill-opacity:1"
           d="m -822.91728,-106.32909 c 6.0586,-3.69423 7.9315,-10.41711 5.6726,-20.36203 -1.3131,-5.78043 -1.3611,-8.06461 -0.3173,-15.08051 1.3956,-9.38094 0.4494,-12.98344 -4.0415,-15.38638 -6.2126,-3.32421 -35.3397,1.88344 -48.9436,8.75066 -12.7987,6.46079 -18.0023,14.12563 -14.5412,21.41931 4.0561,8.54757 18.6328,16.16885 39.4848,20.64416 11.4999,2.46815 18.6549,2.47281 22.6862,0.0148 z"
           id="path4265"
           inkscape:connector-curvature="0" />
        <path
           style="fill:#ffffff;fill-opacity:1"
           d="m -851.60348,-125.02826 c -13.5546,-2.03818 -20.4626,-8.68784 -16.6615,-16.03837 5.0353,-9.73722 30.587,-11.4032 38.8877,-2.5355 3.5655,3.80907 4.1693,6.55773 2.2542,10.26118 -2.7097,5.24006 -15.663,9.63854 -24.4804,8.31269 z"
           id="path4263"
           inkscape:connector-curvature="0" />
        <g
           id="g4399"
           style="fill:#000000">
          <path
             id="path4261"
             d="m -839.43348,-130.40935 c 2.0185,-0.56063 4.7185,-1.89315 6,-2.96115 2.3259,-1.93838 2.3008,-1.94188 -14.1343,-1.97509 -14.9492,-0.0302 -16.32,0.11096 -14.897,1.53404 3.8713,3.87131 15.2765,5.55609 23.0313,3.4022 z"
             style="fill:#000000"
             inkscape:connector-curvature="0" />
          <path
             id="path4259"
             d="m -832.60348,-140.26492 c 0,-1.37435 -6.0034,-3.86788 -11.1307,-4.62314 -5.7107,-0.84119 -15.0185,0.98061 -18.0881,3.54034 -2.2617,1.88604 -2.1464,1.90261 13.4688,1.93559 8.6625,0.0183 15.75,-0.36546 15.75,-0.85279 z"
             style="fill:#000000"
             inkscape:connector-curvature="0" />
        </g>
        <g
           id="g4380"
           style="fill:#ffffff">
          <path
             id="path4257"
             d="m -895.19458,-113.88968 c 2.6999,-0.81905 6.6374,-1.48918 8.75,-1.48918 2.1126,0 3.8411,-0.47404 3.8411,-1.05343 0,-1.65593 -5.3591,-7.94651 -6.7699,-7.94654 -3.6039,-8e-5 -12.2301,7.56274 -12.2301,10.72248 0,1.60384 0.401,1.58924 6.4089,-0.23333 z"
             style="fill:#ffffff;fill-opacity:1"
             inkscape:connector-curvature="0" />
          <path
             id="path4255"
             d="m -887.72528,-138.62886 c 1.1417,-1.7875 2.6024,-3.96785 3.246,-4.84522 0.6709,-0.91448 0.886,-2.72813 0.504,-4.25 -0.6102,-2.43138 -1.0882,-2.65478 -5.6794,-2.65478 -6.4606,0 -10.7331,1.83825 -16.3884,7.0511 -6.6625,6.14124 -6.2242,6.81449 4.6896,7.20383 5.0875,0.18149 9.768,0.42338 10.4012,0.53753 0.6332,0.11415 2.0853,-1.25496 3.227,-3.04246 z"
             style="fill:#ffffff;fill-opacity:1"
             inkscape:connector-curvature="0" />
        </g>
      </g>
      <g
         id="g4349"
         style="fill:#ffffff">
        <path
           inkscape:connector-curvature="0"
           style="fill:#ffffff;fill-opacity:1"
           d="m -713.22348,27.784669 c 9.707,-13.22361 13.0946,-25.97271 12.3595,-46.51477 -0.5623,-15.71422 -3.0278,-27.2739 -8.7473,-41.01295 -8.8395,-21.23321 -29.0403,-42.309739 -56.2193,-58.656319 -8.8077,-5.2973 -12.7729,-6.26858 -12.7729,-3.12871 0,4.65415 2.7622,8.4201 13.7182,18.70323 13.8223,12.973439 21.6566,23.175279 28.3208,36.879589 11.5601,23.77224 16.9357,50.03278 16.9528,82.8164 0.01,18.04607 0.5165,18.91236 6.3882,10.91353 z"
           id="path4273" />
        <path
           inkscape:connector-curvature="0"
           style="fill:#ffffff;fill-opacity:1"
           d="m -677.74448,-42.628861 c 6.5694,-20.5789 7.7636,-41.24633 3.1475,-54.47278 -5.8347,-16.718259 -20.8968,-31.612299 -43.4862,-43.000869 -11.635,-5.86581 -14.8447,-6.95158 -24.4301,-8.264 -8.1178,-1.11148 -20.7839,-0.19885 -29.5606,2.12995 l -3.9705,1.0535 9.4705,3.17361 c 11.1824,3.74729 19.7345,8.36302 31.1366,16.80497 9.5193,7.04792 27.1102,24.45196 34.2806,33.916409 9.0731,11.97595 15.3593,29.00329 17.6328,47.76196 0.6764,5.58099 1.5891,10.14725 2.0282,10.14725 0.4391,0 2.1271,-4.1625 3.7512,-9.25 z"
           id="path4269" />
        <path
           inkscape:connector-curvature="0"
           style="fill:#ffffff;fill-opacity:1"
           d="m -790.15058,-154.53938 c 2.663,-1.21331 3.1177,-3.6948 1.6199,-8.83948 -2.3397,-8.03606 7.9733,-12.25713 29.9272,-12.2491 18.2112,0.007 34.7388,4.53425 57.6414,15.79039 7.2277,3.55229 13.4152,6.45871 13.75,6.45871 2.0522,0 -0.1732,-3.78054 -5.1508,-8.75 -7.4092,-7.3971 -17.177,-14.67217 -29.7751,-22.17667 -28.2629,-16.83577 -51.5727,-21.10017 -68.5247,-12.53625 -12.0454,6.08517 -18.8829,14.38855 -18.9091,22.96292 -0.018,5.96965 4.0568,13.82716 9.0447,17.4404 4.5937,3.32764 6.4825,3.67332 10.3765,1.89908 z"
           id="path4251" />
        <path
           inkscape:connector-curvature="0"
           style="fill:#ffffff;fill-opacity:1"
           d="m -837.04028,-172.91146 c 1.808,-0.36082 2.0754,-1.18817 2.1618,-6.68957 0.1229,-7.82952 2.0055,-13.09934 7.7864,-21.79493 10.7659,-16.19422 23.5978,-21.70637 47.9886,-20.61424 7.15,0.32016 14.35,0.86536 16,1.21157 2.8849,0.60532 2.9208,0.57069 0.9352,-0.90236 -3.7376,-2.77283 -14.6589,-5.81316 -26.3909,-7.3468 -24.3113,-3.17806 -51.9407,3.15812 -64.5819,14.81039 -8.6626,7.98491 -9.5751,17.77159 -2.9565,31.70861 5.0928,10.7239 5.7371,11.29747 11.9103,10.60189 2.7961,-0.31505 6.0122,-0.7581 7.147,-0.98456 z"
           id="path4245" />
      </g>
    </g>
  </g>
</svg>
