<?xml version="1.0" encoding="UTF-8" standalone="no"?>
<!-- Created with Inkscape (http://www.inkscape.org/) -->

<svg
   xmlns:dc="http://purl.org/dc/elements/1.1/"
   xmlns:cc="http://creativecommons.org/ns#"
   xmlns:rdf="http://www.w3.org/1999/02/22-rdf-syntax-ns#"
   xmlns:svg="http://www.w3.org/2000/svg"
   xmlns="http://www.w3.org/2000/svg"
   xmlns:sodipodi="http://sodipodi.sourceforge.net/DTD/sodipodi-0.dtd"
   xmlns:inkscape="http://www.inkscape.org/namespaces/inkscape"
   width="256mm"
   height="256mm"
   viewBox="0 0 256.00001 256.00002"
   version="1.1"
   id="svg952"
   inkscape:version="0.92.5 (2060ec1f9f, 2020-04-08)"
   sodipodi:docname="jehanna.svg">
  <defs
     id="defs946" />
  <sodipodi:namedview
     id="base"
     pagecolor="#ffffff"
     bordercolor="#666666"
     borderopacity="1.0"
     inkscape:pageopacity="0.0"
     inkscape:pageshadow="2"
     inkscape:zoom="1.2179914"
     inkscape:cx="227.66697"
     inkscape:cy="715.60789"
     inkscape:document-units="mm"
     inkscape:current-layer="layer1"
     showgrid="false"
     units="mm"
     inkscape:window-width="3840"
     inkscape:window-height="2056"
     inkscape:window-x="0"
     inkscape:window-y="50"
     inkscape:window-maximized="1"
     showguides="true"
     inkscape:guide-bbox="true" />
  <metadata
     id="metadata949">
    <rdf:RDF>
      <cc:Work
         rdf:about="">
        <dc:format>image/svg+xml</dc:format>
        <dc:type
           rdf:resource="http://purl.org/dc/dcmitype/StillImage" />
        <dc:title></dc:title>
      </cc:Work>
    </rdf:RDF>
  </metadata>
  <g
     inkscape:label="Layer 1"
     inkscape:groupmode="layer"
     id="layer1"
     transform="translate(0,-40.999976)">
    <rect
       style="fill:#1a1a1a;fill-opacity:1;stroke:none;stroke-width:0.83444387;stroke-opacity:1"
       id="rect816"
       width="256"
       height="256"
       x="0"
       y="40.999977" />
    <path
       style="fill:#ffffff;stroke-width:5.33333349"
       d="m 40.88894,269.47458 c -6.80516,-6.80513 -3.4947,-26.84469 5.77774,-34.9747 5.133307,-4.50091 17.147166,-12.14162 26.697175,-16.97934 L 90.72771,208.72469 80.247231,188.18119 C 72.458381,172.9141 65.798148,167.05524 54.315238,165.36992 43.17904,163.73555 39.02256,165.25905 39.43196,170.82544 40.24632,181.88672 28.61526,184.4673 24.6398,174.10758 19.9046,161.7679 24.01693,157.21946 53.339616,142.36034 79.302652,129.20381 97.971502,109.86813 92.796271,101.49429 88.119332,93.926869 76.953902,96.488058 57.720441,109.54027 47.58143,116.42086 32.24643,123.7221 23.64281,125.76527 L 8,129.48011 25.33342,118.66685 c 9.53328,-5.9473 17.33321,-14.16369 17.33321,-18.25867 0,-10.082022 33.978661,-35.37807 47.521263,-35.37807 12.634307,0 24.550807,16.57723 29.712327,41.33334 1.98753,9.53334 5.63261,17.33334 8.09988,17.33334 2.46707,0 6.11195,-7.8 8.09968,-17.33334 5.16152,-24.75611 17.07802,-41.33334 29.71233,-41.33334 13.5426,0 47.52126,25.296048 47.52126,35.37807 0,4.09498 7.79993,12.31137 17.33341,18.25867 L 248,129.48011 232.35719,125.76527 c -8.60362,-2.04317 -23.93842,-9.34441 -34.07763,-16.225 -19.23346,-13.052212 -30.39869,-15.613401 -35.07563,-8.04598 -5.17543,8.37384 13.49342,27.70952 39.45666,40.86605 29.32308,14.85912 33.4348,19.40756 28.69961,31.74724 -3.97526,10.35972 -15.60572,7.77914 -14.79216,-3.28214 0.40919,-5.56643 -3.74688,-7.08997 -14.88328,-5.45552 -11.48271,1.68537 -18.14314,7.54418 -25.93179,22.81127 l -10.48048,20.5435 17.36365,8.79585 c 25.93603,13.13815 36.03049,23.73886 36.03049,37.83691 0,15.51575 -12.69538,21.23251 -28.34,12.76156 -6.4129,-3.47235 -20.66001,-11.00675 -31.65995,-16.74309 -27.98745,-14.59508 -24.95798,-17.42536 4.93576,-4.61139 24.86426,10.65811 42.97595,10.24307 36.1337,-0.82807 -1.9835,-3.20961 -8.6137,-4.52624 -14.73351,-2.92585 -13.7343,3.5916 -46.05158,-15.45549 -47.08142,-27.74883 -3.11736,-37.21073 12.45148,-113.83508 26.46758,-130.26439 9.71469,-11.38737 4.3776,-18.78921 -6.83702,-9.48194 -4.42154,3.66963 -10.95982,20.81163 -14.52931,38.09334 -4.65577,22.54163 -8.90114,31.42128 -15.02236,31.42128 -6.12122,0 -10.36659,-8.87965 -15.02256,-31.42128 -3.56949,-17.28171 -10.10757,-34.42371 -14.529313,-38.09334 -11.214614,-9.30727 -16.55171,-1.90549 -6.836813,9.48194 14.016096,16.42931 29.584936,93.05366 26.467376,130.26439 -1.03005,12.29334 -33.346922,31.34043 -47.081221,27.74883 -6.119812,-1.60031 -12.75001,-0.28382 -14.733708,2.92585 -6.894061,11.15485 11.354104,11.45199 37.467112,0.60997 17.110277,-7.10404 22.659627,-8.10754 15.916347,-2.87823 -5.69388,4.41566 -12.515377,8.02845 -15.158829,8.02845 -2.64325,0 -10.90822,4.8 -18.366488,10.66667 -13.617184,10.71124 -28.607493,13.73674 -35.233063,7.11111 z m 59.37769,-45.51112 c 9.38049,-9.38034 7.7695,-26.09263 -4.266529,-44.26667 -12.717758,-19.20319 -13.250721,-24 -2.666633,-24 4.399975,0 7.999902,-3.60001 7.999902,-8 0,-11.02564 -20.840016,-10.15786 -25.139606,1.04677 -2.069367,5.39249 2.547301,19.82733 11.429291,35.73557 l 14.900815,26.68874 -11.852802,9.59779 c -7.676574,6.21612 -9.201688,9.59776 -4.328618,9.59776 4.138331,0 10.404284,-2.88 13.92418,-6.4 z m 65.0623,-3.19776 -11.8526,-9.59779 14.90082,-26.68874 c 8.88178,-15.90824 13.49845,-30.34308 11.42929,-35.73556 -4.29959,-11.20468 -25.13981,-12.07246 -25.13981,-1.04678 0,4.39999 3.60013,8 8.0001,8 10.58409,0 10.05113,4.79681 -2.66663,24 -16.48781,24.89578 -11.57563,50.66667 9.65745,50.66667 4.87307,0 3.34796,-3.38164 -4.32862,-9.59776 z M 64.000101,97.030113 c 0,-2.933317 -2.258444,-5.333327 -5.018608,-5.333327 -2.760164,0 -6.501795,2.40001 -8.314759,5.333327 -1.812154,2.933337 0.44548,5.333347 5.018608,5.333347 4.573127,0 8.314759,-2.40001 8.314759,-5.333347 z m 141.333369,0 c -1.81216,-2.933317 -5.5546,-5.333327 -8.31476,-5.333327 -2.76037,0 -5.01861,2.40001 -5.01861,5.333327 0,2.933337 3.74163,5.333347 8.31476,5.333347 4.57313,0 6.83137,-2.40001 5.01861,-5.333347 z M 37.06064,128.47163 c 7.18311,-2.86865 21.583215,-10.41182 31.999996,-16.76262 16.408794,-10.00403 17.870413,-10.22051 10.939465,-1.62005 -8.363742,10.37818 -37.404421,24.51774 -49.162081,23.93646 -3.76098,-0.18545 -0.96151,-2.68514 6.22262,-5.55379 z m 162.93734,-1.49972 c -8.80116,-3.8357 -19.60113,-11.43707 -24.0001,-16.8919 -6.92026,-8.58159 -5.44594,-8.36209 10.94168,1.62892 10.41679,6.3508 24.81669,13.89397 32,16.76262 7.18332,2.86863 9.46052,5.27388 5.06054,5.34502 -4.39997,0.0705 -15.20096,-3.00901 -24.00212,-6.84474 z"
       id="path956"
       inkscape:connector-curvature="0" />
  </g>
</svg>
