<?xml version="1.0" encoding="UTF-8" standalone="no"?>
<!-- Created with Inkscape (http://www.inkscape.org/) -->

<svg
   xmlns:dc="http://purl.org/dc/elements/1.1/"
   xmlns:cc="http://creativecommons.org/ns#"
   xmlns:rdf="http://www.w3.org/1999/02/22-rdf-syntax-ns#"
   xmlns:svg="http://www.w3.org/2000/svg"
   xmlns="http://www.w3.org/2000/svg"
   xmlns:sodipodi="http://sodipodi.sourceforge.net/DTD/sodipodi-0.dtd"
   xmlns:inkscape="http://www.inkscape.org/namespaces/inkscape"
   width="256mm"
   height="256mm"
   viewBox="0 0 256.00001 256.00002"
   version="1.1"
   id="svg952"
   inkscape:version="0.92.5 (2060ec1f9f, 2020-04-08)"
   sodipodi:docname="kvatch.svg">
  <defs
     id="defs946" />
  <sodipodi:namedview
     id="base"
     pagecolor="#ffffff"
     bordercolor="#666666"
     borderopacity="1.0"
     inkscape:pageopacity="0.0"
     inkscape:pageshadow="2"
     inkscape:zoom="1.2179914"
     inkscape:cx="279.17242"
     inkscape:cy="514.2185"
     inkscape:document-units="mm"
     inkscape:current-layer="layer1"
     showgrid="false"
     units="mm"
     inkscape:window-width="3840"
     inkscape:window-height="2056"
     inkscape:window-x="0"
     inkscape:window-y="50"
     inkscape:window-maximized="1"
     showguides="true"
     inkscape:guide-bbox="true" />
  <metadata
     id="metadata949">
    <rdf:RDF>
      <cc:Work
         rdf:about="">
        <dc:format>image/svg+xml</dc:format>
        <dc:type
           rdf:resource="http://purl.org/dc/dcmitype/StillImage" />
        <dc:title></dc:title>
      </cc:Work>
    </rdf:RDF>
  </metadata>
  <g
     inkscape:label="Layer 1"
     inkscape:groupmode="layer"
     id="layer1"
     transform="translate(0,-40.999976)">
    <rect
       style="fill:#1a1a1a;fill-opacity:1;stroke:none;stroke-width:0.83444387;stroke-opacity:1"
       id="rect816"
       width="256"
       height="256"
       x="0"
       y="40.999977" />
    <path
       style="fill:#ffffff;stroke-width:1.4590497"
       d="m 125.28738,287.74333 c -1.63676,-1.03706 -1.66092,-2.14834 -0.13786,-6.35956 1.01489,-2.80662 1.43559,-6.17047 0.93488,-7.47532 -1.18618,-3.0911 -9.75624,-3.29283 -9.75624,-0.2294 0,1.23635 0.8633,1.81146 2.04098,1.35955 2.78743,-1.0696 4.66242,2.34764 2.15833,3.93367 -1.10594,0.70051 -3.76542,1.28367 -5.90996,1.29597 -3.17923,0.0165 -4.21414,-0.93179 -5.60446,-5.14455 -0.93786,-2.84174 -1.3263,-6.15426 -0.86319,-7.36111 3.21347,-8.37429 36.48786,-8.37429 39.70139,0 0.46322,1.20685 0.0745,4.51937 -0.86319,7.36111 -1.39032,4.21276 -2.42523,5.16274 -5.60446,5.14455 -2.1446,-0.011 -4.80408,-0.59546 -5.90997,-1.29597 -2.50408,-1.58603 -0.62909,-5.00327 2.15833,-3.93367 1.17763,0.45164 2.04098,-0.12298 2.04098,-1.35955 0,-3.06326 -8.57006,-2.86154 -9.75623,0.2294 -0.50072,1.30485 -0.08,4.6687 0.93482,7.47532 1.52283,4.21122 1.49868,5.3225 -0.13786,6.35956 -1.09088,0.69119 -2.31169,1.25665 -2.71292,1.25665 -0.40146,0 -1.62205,-0.56546 -2.71287,-1.25665 z m -20.21584,-28.24442 c -0.77015,-1.00309 -3.5755,-9.70263 -6.234103,-19.33236 -2.65855,-9.62973 -7.152496,-22.01291 -9.986517,-27.51816 -5.478068,-10.64153 -24.40417,-32.16806 -29.782976,-33.87525 -2.973483,-0.94375 -2.991902,-1.06992 -0.429581,-2.9437 2.520852,-1.84329 2.44602,-2.04562 -1.281298,-3.46274 -2.177187,-0.82778 -6.049702,-1.52862 -8.605516,-1.55752 l -4.646919,-0.0551 4.012418,-3.28522 c 2.2068,-1.80683 4.012364,-3.84483 4.012364,-4.52879 0,-0.68397 -3.621219,-0.86986 -8.047171,-0.41304 -10.085172,1.04092 -9.303875,-0.76547 2.7727,-6.41085 l 8.922104,-4.17068 -6.565751,0.91568 c -3.611127,0.50348 -9.415709,1.75825 -12.899009,2.78809 l -6.333259,1.8724 0.934656,-3.90941 C 32.141875,148.47494 48.161661,115.29292 61.152653,90.977815 71.732532,71.175511 83.588305,56.123523 92.828045,50.76286 c 5.490696,-3.185516 4.561058,-5.381728 10.382625,24.528412 6.1461,31.577618 5.06128,28.937878 10.65824,25.935768 6.26317,-3.359386 21.99901,-3.359386 28.26213,0 5.59701,3.00211 4.5122,5.64185 10.65829,-25.935768 5.82157,-29.91014 4.89193,-27.713928 10.38263,-24.528412 9.23974,5.360663 21.09551,20.412651 31.67539,40.214955 12.99099,24.315105 29.01077,57.497125 30.23897,62.634395 l 0.93465,3.90941 -6.33326,-1.8724 c -3.48335,-1.02984 -9.28788,-2.2845 -12.89906,-2.78809 l -6.56569,-0.91568 8.92205,4.17068 c 12.07662,5.64538 12.85792,7.45177 2.7727,6.41085 -4.4259,-0.4566 -8.04712,-0.27076 -8.04712,0.41304 0,0.68396 1.80556,2.72196 4.01236,4.52879 l 4.01242,3.28522 -4.64697,0.0551 c -2.55582,0.0276 -6.42828,0.72974 -8.60546,1.55752 -3.72732,1.41712 -3.80221,1.6194 -1.2813,3.46274 2.5626,1.87378 2.54418,1.99995 -0.42903,2.9437 -5.37886,1.70719 -24.30491,23.23372 -29.78298,33.87525 -2.83402,5.50525 -7.31991,17.88838 -9.96865,27.5181 -2.64867,9.62973 -5.57639,18.34449 -6.50597,19.36617 -1.36617,1.50143 -2.8215,1.45831 -7.59244,-0.225 -6.79014,-2.39567 -25.27436,-2.1849 -31.59158,0.3601 -5.04236,2.03149 -4.72351,2.03988 -6.41945,-0.16929 z M 98.819294,180.92425 C 92.098199,176.89959 84.763228,169.8453 81.015617,163.802 c -3.612065,-5.82466 -5.48463,-4.12481 -5.518765,5.00971 -0.02757,7.69017 3.343618,10.79953 14.25696,13.14518 12.912908,2.77541 15.023308,2.53503 9.065482,-1.03264 z m 66.721316,1.10334 c 11.63756,-2.43879 14.99232,-5.4018 14.96309,-13.21588 -0.0331,-9.13452 -1.90675,-10.83437 -5.51876,-5.00971 -3.74761,6.0433 -11.08264,13.09759 -17.80368,17.12225 -5.90004,3.53304 -4.26465,3.74888 8.35935,1.10334 z"
       id="path1147"
       inkscape:connector-curvature="0" />
  </g>
</svg>
