<?xml version="1.0" encoding="UTF-8" standalone="no"?>
<!-- Created with Inkscape (http://www.inkscape.org/) -->

<svg
   xmlns:dc="http://purl.org/dc/elements/1.1/"
   xmlns:cc="http://creativecommons.org/ns#"
   xmlns:rdf="http://www.w3.org/1999/02/22-rdf-syntax-ns#"
   xmlns:svg="http://www.w3.org/2000/svg"
   xmlns="http://www.w3.org/2000/svg"
   xmlns:sodipodi="http://sodipodi.sourceforge.net/DTD/sodipodi-0.dtd"
   xmlns:inkscape="http://www.inkscape.org/namespaces/inkscape"
   width="256mm"
   height="256mm"
   viewBox="0 0 256.00001 256.00002"
   version="1.1"
   id="svg952"
   inkscape:version="0.92.5 (2060ec1f9f, 2020-04-08)"
   sodipodi:docname="markarth.svg">
  <defs
     id="defs946" />
  <sodipodi:namedview
     id="base"
     pagecolor="#ffffff"
     bordercolor="#666666"
     borderopacity="1.0"
     inkscape:pageopacity="0.0"
     inkscape:pageshadow="2"
     inkscape:zoom="0.86124998"
     inkscape:cx="-321.65225"
     inkscape:cy="473.1344"
     inkscape:document-units="mm"
     inkscape:current-layer="layer1"
     showgrid="false"
     units="mm"
     inkscape:window-width="3840"
     inkscape:window-height="2056"
     inkscape:window-x="0"
     inkscape:window-y="50"
     inkscape:window-maximized="1"
     showguides="true"
     inkscape:guide-bbox="true" />
  <metadata
     id="metadata949">
    <rdf:RDF>
      <cc:Work
         rdf:about="">
        <dc:format>image/svg+xml</dc:format>
        <dc:type
           rdf:resource="http://purl.org/dc/dcmitype/StillImage" />
        <dc:title></dc:title>
      </cc:Work>
    </rdf:RDF>
  </metadata>
  <g
     inkscape:label="Layer 1"
     inkscape:groupmode="layer"
     id="layer1"
     transform="translate(0,-40.999976)">
    <rect
       style="fill:#000000;fill-opacity:1;stroke:none;stroke-width:0.83444387;stroke-opacity:1"
       id="rect816"
       width="256"
       height="256"
       x="0"
       y="40.999977" />
    <path
       style="fill:#ffffff;stroke-width:0.47083405"
       d="m 123.38701,227.37043 c -3.84941,-13.82531 -4.30514,-15.85601 -3.80494,-16.95389 0.5413,-1.18801 0.40924,-1.40631 -2.77968,-4.59524 -5.34136,-5.34137 -6.16068,-9.63161 -3.16117,-16.5532 l 1.64968,-3.80677 -1.76738,-1.44268 c -7.63967,-6.23604 -18.456199,-16.72826 -21.706109,-21.05524 l -1.99894,-2.66142 4.02401,-5.6304 c 2.21322,-3.09672 4.02404,-5.7405 4.02404,-5.87507 0,-0.13453 -2.27766,-0.39854 -5.06147,-0.58662 -6.82852,-0.46136 -6.90792,-0.51452 -6.51393,-4.36005 0.1735,-1.69379 0.74792,-4.65576 1.27642,-6.58214 0.5285,-1.9264 0.85295,-3.61049 0.72099,-3.74244 -0.13186,-0.13186 -2.18841,0.32067 -4.56994,1.00582 -2.38152,0.68514 -5.09711,1.18151 -6.03462,1.10303 -2.07114,-0.17333 -2.57473,-1.05288 -3.62171,-6.32518 -0.40467,-2.03776 -0.82014,-3.96423 -0.92326,-4.28102 -0.12492,-0.38375 -1.25476,0.0372 -3.38524,1.26132 -4.53947,2.60825 -5.43799,2.75328 -7.46735,1.20541 -0.91879,-0.70078 -2.74526,-2.75179 -4.05884,-4.5578 -1.31358,-1.80601 -2.54875,-3.11005 -2.74482,-2.89788 -0.19605,0.21218 -1.44514,1.70734 -2.77573,3.3226 -1.33061,1.61524 -2.93866,3.06718 -3.57347,3.2265 -0.83674,0.21 -2.14304,-0.25299 -4.74904,-1.68326 -1.97713,-1.0851 -3.75296,-1.79547 -3.94628,-1.57858 -0.19331,0.21689 -0.93125,2.01395 -1.63986,3.99344 -1.47094,4.10913 -1.57898,4.16967 -7.4403,4.16967 h -3.29899 l 0.30614,2.00105 c 1.03477,6.76407 1.06513,6.54371 -1.18702,8.61341 -1.13056,1.03896 -2.54653,2.23083 -3.14662,2.64861 l -1.09107,0.7596 1.69264,3.36112 1.69263,3.36111 -1.22568,2.92862 c -0.67414,1.61074 -1.32673,3.2474 -1.45023,3.63704 -0.16123,0.5084 0.67983,1.0939 2.97829,2.07358 3.56947,1.52146 4.44283,2.37225 5.60228,5.4576 0.43793,1.16531 0.84112,2.1764 0.89596,2.24687 0.0548,0.0705 1.45457,-0.19125 3.1105,-0.58159 3.96308,-0.93418 3.72715,-0.96785 6.47784,0.92431 1.31762,0.90635 2.55968,1.64128 2.76013,1.63316 0.52494,-0.0212 6.00557,-9.76786 6.70986,-11.93266 1.10251,-3.38876 -0.19623,-7.78253 -3.24021,-10.96195 -1.15415,-1.20549 -1.28556,-1.53915 -0.6954,-1.76563 2.47412,-0.9494 6.34009,0.67003 9.10906,3.81574 2.28185,2.59233 2.70403,4.49116 1.81117,8.14603 -0.57452,2.35171 -0.57897,2.9494 -0.0297,3.99758 0.52439,1.00083 0.54187,1.73654 0.0931,3.91467 -0.94283,4.5751 -3.09531,7.66356 -5.99298,8.59892 -0.96263,0.31072 -2.59774,1.12518 -3.63357,1.80991 -1.03584,0.68472 -3.25915,1.83815 -4.94072,2.56316 -2.74087,1.18173 -3.38986,1.2848 -6.26911,0.99567 -2.66995,-0.26814 -3.57486,-0.59974 -5.36448,-1.96578 -1.90221,-1.45199 -2.29013,-1.58063 -3.3334,-1.10528 -0.93443,0.42575 -1.86406,0.36188 -4.45756,-0.30621 -2.78892,-0.71845 -3.68728,-1.2299 -6.03265,-3.43449 -2.29363,-2.15596 -2.81041,-2.93671 -3.0817,-4.65579 -0.20854,-1.32137 -0.74071,-2.42386 -1.47726,-3.06042 -0.63321,-0.54724 -2.19953,-2.32605 -3.48071,-3.95294 -2.10984,-2.67916 -2.3783,-3.30046 -2.84824,-6.59169 -0.54706,-3.8315 -0.29829,-4.97044 1.78371,-8.16596 0.77417,-1.18823 0.76401,-1.29479 -0.26079,-2.73398 -0.69473,-0.97566 -1.2406,-2.73934 -1.56638,-5.06086 -0.45953,-3.27482 -0.40892,-3.82603 0.62515,-6.80804 1.01476,-2.92637 1.39222,-3.43921 3.84692,-5.22676 2.42098,-1.763 2.72241,-2.16539 2.72775,-3.64135 0.004,-0.91262 0.53858,-3.32696 1.18948,-5.36518 1.02239,-3.20155 1.51082,-4.00248 3.58901,-5.88544 3.62364,-3.2832 4.17008,-3.48169 9.05562,-3.28969 l 4.28699,0.16852 0.14236,-2.20989 c 0.13383,-2.0752 0.33861,-2.38383 3.36182,-5.0641 5.40178,-4.789021 9.25037,-5.449404 14.67693,-2.518411 l 3.22711,1.743031 1.30213,-1.242663 c 0.71617,-0.683464 3.09256,-2.007666 5.28086,-2.942649 3.92816,-1.678364 4.02607,-1.694255 7.70171,-1.249889 3.27828,0.396319 3.91875,0.638033 5.36218,2.023575 0.90158,0.865404 2.5374,3.115156 3.63514,4.999446 l 1.9959,3.42597 2.42175,-2.60201 2.42174,-2.60201 h 4.42705 c 5.31344,0 7.86182,0.78362 10.30581,3.16899 1.911209,1.86537 2.674849,3.66677 3.127909,7.3787 l 0.29299,2.40024 5.17916,0.26286 c 3.78677,0.19219 5.74879,0.52249 7.29793,1.22853 2.9968,1.36586 7.43973,6.24752 9.89125,10.868 1.13354,2.13642 2.19122,3.8844 2.35044,3.8844 0.15927,0 1.21689,-1.74798 2.35044,-3.8844 2.45151,-4.62048 6.89445,-9.50214 9.89125,-10.868 1.54914,-0.70604 3.51116,-1.03634 7.29793,-1.22853 l 5.17916,-0.26286 0.29298,-2.40024 c 0.45307,-3.71193 1.2167,-5.51333 3.12792,-7.3787 2.44399,-2.38537 4.99236,-3.16899 10.30581,-3.16899 h 4.42704 l 2.42175,2.60201 2.42174,2.60201 1.99591,-3.42597 c 1.09774,-1.88429 2.73355,-4.134042 3.63513,-4.999446 1.44343,-1.385542 2.0839,-1.627256 5.36219,-2.023575 3.67564,-0.444366 3.77355,-0.428475 7.7017,1.249889 2.18831,0.934983 4.56469,2.259185 5.28086,2.942649 l 1.30214,1.242663 3.22711,-1.743031 c 5.42655,-2.930993 9.27514,-2.27061 14.67691,2.518411 3.02323,2.68027 3.22811,2.9889 3.36184,5.0641 l 0.14236,2.20989 4.287,-0.16852 c 4.88554,-0.192 5.43198,0.007 9.05562,3.28969 2.0782,1.88296 2.56661,2.68389 3.58901,5.88544 0.6509,2.03822 1.18616,4.45256 1.18945,5.36518 0.005,1.47596 0.30679,1.87835 2.72777,3.64135 2.45471,1.78755 2.83216,2.30039 3.84692,5.22676 1.03407,2.98201 1.08468,3.53322 0.62515,6.80804 -0.32578,2.32152 -0.87163,4.0852 -1.56638,5.06086 -1.02479,1.43919 -1.03495,1.54575 -0.26079,2.73398 2.082,3.19552 2.33078,4.33446 1.78371,8.16596 -0.46993,3.29123 -0.73839,3.91253 -2.84824,6.59169 -1.28119,1.62689 -2.8475,3.4057 -3.48071,3.95294 -0.73655,0.63656 -1.26871,1.73905 -1.47726,3.06042 -0.27129,1.71908 -0.78806,2.49983 -3.0817,4.65579 -2.34537,2.20459 -3.24373,2.71604 -6.03264,3.43449 -2.59351,0.66809 -3.52314,0.73196 -4.45757,0.30621 -1.04326,-0.47535 -1.43118,-0.34671 -3.3334,1.10528 -1.78962,1.36604 -2.69452,1.69764 -5.36448,1.96578 -2.87924,0.28913 -3.52825,0.18606 -6.26911,-0.99567 -1.68157,-0.72501 -3.90488,-1.87844 -4.94073,-2.56316 -1.03583,-0.68473 -2.67093,-1.49919 -3.63355,-1.80991 -2.89766,-0.93536 -5.05015,-4.02382 -5.99298,-8.59892 -0.44887,-2.17813 -0.43139,-2.91384 0.0931,-3.91467 0.54918,-1.04818 0.54474,-1.64587 -0.0297,-3.99758 -0.89288,-3.65487 -0.4707,-5.5537 1.81116,-8.14603 2.76896,-3.14571 6.63494,-4.76514 9.10906,-3.81574 0.59016,0.22648 0.45874,0.56014 -0.69541,1.76563 -3.04397,3.17942 -4.34271,7.57319 -3.2402,10.96195 0.70428,2.1648 6.18491,11.91143 6.70986,11.93266 0.20046,0.009 1.4425,-0.72681 2.76012,-1.63316 2.7507,-1.89216 2.51477,-1.85849 6.47785,-0.92431 1.65593,0.39034 3.05565,0.65206 3.1105,0.58159 0.0548,-0.0705 0.45803,-1.08156 0.89596,-2.24687 1.1594,-3.08535 2.03276,-3.93614 5.60223,-5.4576 2.29846,-0.97968 3.13943,-1.56518 2.97829,-2.07358 -0.1235,-0.38964 -0.7761,-2.0263 -1.45023,-3.63704 l -1.22568,-2.92862 1.69263,-3.36111 1.69264,-3.36112 -1.09107,-0.7596 c -0.60009,-0.41778 -2.01606,-1.60965 -3.14662,-2.64861 -2.25215,-2.0697 -2.22177,-1.84934 -1.187,-8.61341 l 0.30612,-2.00105 h -3.29898 c -5.86133,0 -5.96935,-0.0605 -7.44031,-4.16967 -0.70861,-1.97949 -1.44654,-3.77655 -1.63985,-3.99344 -0.19331,-0.21689 -1.96917,0.49348 -3.9463,1.57858 -2.60599,1.43027 -3.91229,1.89326 -4.74901,1.68326 -0.63483,-0.15927 -2.24289,-1.61126 -3.57348,-3.2265 -1.3306,-1.61526 -2.57969,-3.11042 -2.77574,-3.3226 -0.19607,-0.21217 -1.43124,1.09187 -2.74482,2.89788 -1.31358,1.80601 -3.14005,3.85702 -4.05884,4.5578 -2.02936,1.54787 -2.92788,1.40284 -7.46736,-1.20541 -2.13047,-1.22409 -3.26031,-1.64507 -3.38523,-1.26132 -0.10322,0.31679 -0.5186,2.24326 -0.92326,4.28102 -1.04697,5.2723 -1.55058,6.1518 -3.62172,6.32518 -0.93751,0.0785 -3.65309,-0.41789 -6.03462,-1.10303 -2.38153,-0.68515 -4.438,-1.13776 -4.56994,-1.00582 -0.13204,0.13204 0.19251,1.81604 0.721,3.74244 0.5285,1.92638 1.10288,4.88835 1.27642,6.58214 0.39399,3.84553 0.31458,3.89869 -6.51394,4.36005 -2.78381,0.18808 -5.06146,0.45205 -5.06146,0.58662 0,0.13453 1.81081,2.77835 4.02403,5.87507 l 4.02402,5.6304 -1.99895,2.66142 c -3.2499,4.32698 -14.06644,14.8192 -21.70609,21.05524 l -1.76739,1.44268 1.64968,3.80677 c 2.9995,6.92159 2.18021,11.21183 -3.16116,16.5532 -3.18894,3.18893 -3.321,3.40723 -2.7797,4.59524 0.50021,1.09788 0.0445,3.12858 -3.80494,16.95389 -2.40528,8.63863 -4.48109,15.7066 -4.6129,15.7066 -0.13186,0 -2.20761,-7.06797 -4.61288,-15.7066 z m 11.58647,-60.1046 c 4.03096,-6.47228 6.60338,-11.05618 6.4027,-11.40922 -2.0823,-3.66334 -13.07992,-20.60059 -13.37628,-20.60059 -0.29637,0 -11.29399,16.93725 -13.37629,20.60059 -0.30017,0.52806 12.75836,22.2283 13.37629,22.2283 0.12955,0 3.26759,-4.86858 6.97358,-10.81908 z"
       id="path4768"
       inkscape:connector-curvature="0" />
  </g>
</svg>
