<?xml version="1.0" encoding="UTF-8" standalone="no"?>
<!-- Created with Inkscape (http://www.inkscape.org/) -->

<svg
   xmlns:dc="http://purl.org/dc/elements/1.1/"
   xmlns:cc="http://creativecommons.org/ns#"
   xmlns:rdf="http://www.w3.org/1999/02/22-rdf-syntax-ns#"
   xmlns:svg="http://www.w3.org/2000/svg"
   xmlns="http://www.w3.org/2000/svg"
   xmlns:sodipodi="http://sodipodi.sourceforge.net/DTD/sodipodi-0.dtd"
   xmlns:inkscape="http://www.inkscape.org/namespaces/inkscape"
   width="256mm"
   height="256mm"
   viewBox="0 0 256.00001 256.00002"
   version="1.1"
   id="svg952"
   inkscape:version="0.92.5 (2060ec1f9f, 2020-04-08)"
   sodipodi:docname="moraheim.svg">
  <defs
     id="defs946" />
  <sodipodi:namedview
     id="base"
     pagecolor="#ffffff"
     bordercolor="#666666"
     borderopacity="1.0"
     inkscape:pageopacity="0.0"
     inkscape:pageshadow="2"
     inkscape:zoom="0.86124998"
     inkscape:cx="66.736733"
     inkscape:cy="473.1344"
     inkscape:document-units="mm"
     inkscape:current-layer="layer1"
     showgrid="false"
     units="mm"
     inkscape:window-width="3840"
     inkscape:window-height="2056"
     inkscape:window-x="0"
     inkscape:window-y="50"
     inkscape:window-maximized="1"
     showguides="true"
     inkscape:guide-bbox="true" />
  <metadata
     id="metadata949">
    <rdf:RDF>
      <cc:Work
         rdf:about="">
        <dc:format>image/svg+xml</dc:format>
        <dc:type
           rdf:resource="http://purl.org/dc/dcmitype/StillImage" />
        <dc:title></dc:title>
      </cc:Work>
    </rdf:RDF>
  </metadata>
  <g
     inkscape:label="Layer 1"
     inkscape:groupmode="layer"
     id="layer1"
     transform="translate(0,-40.999976)">
    <rect
       style="fill:#1a1a1a;fill-opacity:1;stroke:none;stroke-width:0.83444387;stroke-opacity:1"
       id="rect816"
       width="256"
       height="256"
       x="0"
       y="40.999977" />
    <path
       style="fill:#ffffff;stroke-width:1.05020916"
       d="m 124.38602,285.75559 c -4.08583,-4.29751 -7.43965,-5.94662 -13.81308,-6.79211 -8.38668,-1.11254 -8.32444,-0.99136 -6.27087,-12.20744 2.75058,-15.02327 4.9224,-30.82074 4.91799,-35.77322 -0.002,-2.45868 -1.88047,-10.61403 -4.17395,-18.12303 -4.4932,-14.71105 -5.218929,-15.76183 -15.073479,-21.82288 -7.48748,-4.60521 -9.42698,-9.70713 -10.26878,-27.01181 -0.7777,-15.98843 -1.39634,-19.20377 -7.35277,-38.21519 -3.86502,-12.33612 -4.70428,-14.0254 -9.47318,-19.06778 -3.33639,-3.52779 -4.80339,-5.79765 -4.04848,-6.26424 2.44542,-1.511329 10.55715,0.66069 14.10677,3.77731 3.74698,3.28983 10.18642,15.61901 14.35056,27.47597 1.36932,3.89888 3.0728,7.08893 3.78552,7.08893 0.71276,0 2.30455,-2.21409 3.53728,-4.92017 3.11483,-6.83744 2.37179,-11.15099 -4.59437,-26.67105 -10.96689,-24.433498 -19.64888,-45.255334 -19.64888,-47.123424 0,-1.025218 2.40552,-4.114172 5.34555,-6.86423 4.44203,-4.154976 5.56553,-4.756238 6.6466,-3.556888 1.14989,1.275638 7.10957,16.178006 17.53307,43.841923 3.611859,9.585869 25.364679,43.480599 28.243899,44.008949 1.00772,0.18497 4.86698,-4.58536 10.62054,-13.12759 11.63972,-17.28158 17.73403,-28.716805 22.26295,-41.773747 4.72687,-13.627602 12.16834,-32.288972 13.36829,-33.524164 0.56514,-0.581814 3.09431,1.186648 6.34215,4.434451 4.70182,4.70182 5.3086,5.780345 4.68019,8.31916 -0.39708,1.604333 -6.35898,16.039003 -13.24869,32.076974 -6.88976,16.038006 -12.52213,30.452156 -12.51649,32.031406 0.0159,4.14378 5.03277,14.52668 6.37295,13.1865 0.58586,-0.5859 2.7068,-5.48071 4.71321,-10.87739 4.4491,-11.9669 10.05115,-22.2017 13.74077,-25.10398 1.92223,-1.51201 4.2914,-2.16428 7.86091,-2.16428 5.34063,0 6.55637,1.2521 3.04196,3.13297 -2.90085,1.55246 -6.66724,8.46464 -10.34265,18.9809 -4.59902,13.15907 -7.33514,27.09171 -8.67377,44.16752 -0.65148,8.31039 -1.6372,15.95863 -2.19056,16.99603 -0.55335,1.03741 -3.3583,3.33358 -6.23327,5.10256 -6.56515,4.03963 -11.44979,10.38658 -15.52241,20.16949 -4.95922,11.91257 -5.76232,19.43557 -3.754,35.16398 0.93353,7.31105 2.36742,16.51373 3.18636,20.4504 2.10406,10.11441 1.9653,12.13349 -0.87399,12.71622 -11.9529,2.45308 -13.22167,2.96967 -17.13428,6.97656 -2.2185,2.27196 -4.55821,4.1308 -5.19933,4.1308 -0.64111,0 -2.55378,-1.45997 -4.25024,-3.24439 z m -9.97537,-99.07339 c 0.68363,-0.82374 1.09599,-3.54117 0.91631,-6.0387 -0.31953,-4.44215 -0.45254,-4.59068 -6.10293,-6.82244 -3.17687,-1.25476 -7.14105,-2.62201 -8.80929,-3.0383 -3.026549,-0.75527 -3.031509,-0.74829 -2.287949,3.21533 1.80521,9.62251 2.901879,11.37779 7.946599,12.71908 6.37685,1.69543 6.90301,1.69324 8.33726,-0.0357 z m 36.37377,-0.0421 c 3.7571,-1.56984 7.17098,-7.20697 7.97162,-13.16312 0.30325,-2.25517 -0.0357,-2.60038 -2.3908,-2.44752 -1.50907,0.098 -5.52612,1.27933 -8.92678,2.6255 -5.68206,2.24926 -6.21061,2.73589 -6.52299,6.00608 -0.80366,8.41323 1.88532,10.31482 9.86895,6.97906 z"
       id="path825"
       inkscape:connector-curvature="0" />
  </g>
</svg>
