<?xml version="1.0" encoding="UTF-8" standalone="no"?>
<!-- Created with Inkscape (http://www.inkscape.org/) -->

<svg
   xmlns:dc="http://purl.org/dc/elements/1.1/"
   xmlns:cc="http://creativecommons.org/ns#"
   xmlns:rdf="http://www.w3.org/1999/02/22-rdf-syntax-ns#"
   xmlns:svg="http://www.w3.org/2000/svg"
   xmlns="http://www.w3.org/2000/svg"
   xmlns:sodipodi="http://sodipodi.sourceforge.net/DTD/sodipodi-0.dtd"
   xmlns:inkscape="http://www.inkscape.org/namespaces/inkscape"
   width="256mm"
   height="256mm"
   viewBox="0 0 256.00001 256.00002"
   version="1.1"
   id="svg952"
   inkscape:version="0.92.5 (2060ec1f9f, 2020-04-08)"
   sodipodi:docname="windhelm.svg">
  <defs
     id="defs946" />
  <sodipodi:namedview
     id="base"
     pagecolor="#ffffff"
     bordercolor="#666666"
     borderopacity="1.0"
     inkscape:pageopacity="0.0"
     inkscape:pageshadow="2"
     inkscape:zoom="1.2179914"
     inkscape:cx="499.21811"
     inkscape:cy="618.001"
     inkscape:document-units="mm"
     inkscape:current-layer="layer1"
     showgrid="false"
     units="mm"
     inkscape:window-width="3840"
     inkscape:window-height="2056"
     inkscape:window-x="0"
     inkscape:window-y="50"
     inkscape:window-maximized="1"
     showguides="true"
     inkscape:guide-bbox="true" />
  <metadata
     id="metadata949">
    <rdf:RDF>
      <cc:Work
         rdf:about="">
        <dc:format>image/svg+xml</dc:format>
        <dc:type
           rdf:resource="http://purl.org/dc/dcmitype/StillImage" />
        <dc:title></dc:title>
      </cc:Work>
    </rdf:RDF>
  </metadata>
  <g
     inkscape:label="Layer 1"
     inkscape:groupmode="layer"
     id="layer1"
     transform="translate(0,-40.999976)">
    <rect
       style="fill:#000000;fill-opacity:1;stroke:none;stroke-width:0.83444387;stroke-opacity:1"
       id="rect816"
       width="256"
       height="256"
       x="0"
       y="40.999977" />
    <path
       style="fill:#ffffff;stroke-width:0.48268875"
       d="m 115.28166,279.7173 c -7.8864,-1.4432 -14.48836,-3.98466 -19.935784,-7.67441 -5.30063,-3.59033 -13.55629,-13.0646 -17.5542,-20.14539 -9.62632,-17.04936 -11.78637,-41.35644 -5.38321,-60.57744 2.66756,-8.00748 8.4017,-18.88754 13.48281,-25.58251 4.74325,-6.24981 13.60193,-14.03448 20.726804,-18.21389 l 3.09871,-1.81769 1.04421,-4.55287 c 0.86028,-3.75098 0.98658,-5.33795 0.71702,-9.01019 -0.8969,-12.21845 -5.36178,-22.53992 -14.021554,-32.413661 -7.1194,-8.117399 -12.9512,-12.011497 -22.87476,-15.274303 -9.11542,-2.997091 -16.80373,-3.976741 -22.9906,-2.929481 -6.53439,1.106076 -10.61785,3.286558 -15.71901,8.393585 -4.76695,4.772443 -7.13269,8.922933 -8.44298,14.81244 -1.60518,7.21501 -0.38706,12.28803 4.14002,17.24137 3.33404,3.64796 6.99298,5.37504 11.33357,5.34959 5.06153,-0.0297 7.16207,-1.48506 9.83999,-6.81774 1.26961,-2.52824 1.2955,-4.70597 0.0843,-7.08185 l -0.9363,-1.83651 1.26888,0.31848 c 3.96682,0.99561 5.67195,4.04677 5.67195,10.1494 0,3.69542 -0.19177,4.75328 -1.28415,7.08352 -3.59834,7.67595 -11.17256,11.4736 -21.40221,10.73086 -7.42552,-0.53913 -13.04108,-3.2556 -18.71452,-9.05294 -1.65356,-1.68966 -3.7278,-4.27955 -4.60939,-5.75527 -6.3960105,-10.70648 -6.4306505,-25.763318 -0.0892,-38.793688 5.24121,-10.769691 14.2362,-19.814417 23.99961,-24.132254 7.27893,-3.21909 20.39485,-5.15663 30.54698,-4.51253 10.35442,0.65692 27.73127,7.134319 37.748154,14.070989 4.57973,3.171461 16.90879,16.02354 20.29758,21.158642 1.31398,1.99108 3.65103,6.226676 5.19347,9.412421 4.72884,9.76696 7.05054,18.53837 7.57726,28.62694 l 0.28497,5.45789 3.66773,3.40059 c 4.21666,3.9095 7.08964,5.39334 15.63353,8.0744 6.7829,2.12845 17.35642,3.44849 20.24759,2.52778 0.86616,-0.27582 4.07276,-0.96781 7.12576,-1.53773 9.58676,-1.7896 15.96956,-4.8462 24.27427,-11.62445 7.44557,-6.077 12.82159,-13.20645 14.87058,-19.72071 1.38133,-4.39162 1.69097,-10.9153 0.73179,-15.41712 -0.65455,-3.072123 -1.33342,-4.449095 -4.69624,-9.525728 -6.60876,-9.976816 -10.15054,-12.505016 -17.38789,-12.411866 -4.09545,0.05272 -4.24725,0.09797 -8.50949,2.537067 -4.14014,2.36921 -4.41998,2.636274 -6.08729,5.809177 -0.96121,1.82917 -1.74819,3.837051 -1.74885,4.461923 -4.7e-4,0.624871 0.67036,2.665682 1.49114,4.535133 1.73493,3.951564 3.68773,5.598974 7.11019,5.998254 l 2.19887,0.25652 -2.11165,1.39445 c -5.45301,3.60092 -13.27998,0.22795 -16.996,-7.324328 -1.50557,-3.059866 -1.61439,-3.665879 -1.98967,-8.754323 -0.13115,-1.778322 0.21013,-3.357999 0.67202,-5.088418 l 1.89507,-4.420206 c 3.73217,-7.391934 10.46294,-13.032815 18.29865,-15.335601 9.76718,-2.870426 21.11139,-0.325425 31.28413,7.018383 3.47432,2.508151 4.62569,3.761688 9.063,9.867356 6.04749,8.321213 7.66984,11.385257 9.28534,17.536825 1.53423,5.842072 1.73879,15.555342 0.4472,21.234972 -3.86419,16.99226 -12.577,29.94004 -27.74175,41.22606 -8.45968,6.29589 -17.73078,10.64224 -28.31982,13.27653 -10.72602,2.66834 -18.91546,2.99468 -31.13344,1.24062 -6.27056,-0.90022 -7.75182,-1.36149 -18.58448,-5.78703 l -8.68937,-3.54994 -5.87107,1.8529 c -7.17646,2.26494 -10.98215,4.65728 -16.36582,10.28805 -4.96079,5.18847 -9.2475,11.52849 -11.707034,17.31464 -3.21052,7.5529 -3.99318,10.94468 -4.27922,18.54479 -0.25095,6.6676 -0.22716,6.8734 1.78572,15.44603 3.01155,12.8259 6.198414,18.80311 12.584834,23.60386 4.18522,3.14609 6.09364,4.04769 11.43666,5.40307 5.60733,1.42241 7.51413,1.44286 13.50519,0.14485 8.08303,-1.75125 11.51739,-4.05499 14.28134,-9.57977 2.10559,-4.20886 2.57774,-7.86408 1.52695,-11.82125 -1.49165,-5.61738 -3.92302,-7.92393 -9.46798,-8.98186 -2.98539,-0.56959 -3.33297,-0.54046 -5.38129,0.45112 -1.20437,0.58302 -2.70053,1.81009 -3.32478,2.7268 -1.38763,2.03773 -1.6943,2.0742 -2.09514,0.24909 -0.59306,-2.70014 2.85381,-8.2773 6.17806,-9.99633 2.40783,-1.40962 8.55154,-2.3632 11.51547,-1.59671 7.73732,2.00091 13.51713,6.9558 16.4961,15.91807 1.56524,4.70908 1.99457,9.11224 1.32204,13.55866 -0.42779,2.82828 -1.47809,4.77333 -3.78704,9.94091 -0.95962,2.14769 -2.2733,4.14024 -3.77624,6.07008 -1.42616,1.58512 -3.04201,3.10249 -4.9743,4.50685 -11.33474,8.66647 -23.79991,11.84194 -37.00166,9.42605 z"
       id="path4825"
       inkscape:connector-curvature="0"
       sodipodi:nodetypes="ccssscccscsccsscscccscccscscccccccccccccsccccsccccscccscccccscccccssccsccccsccsccscccc" />
  </g>
</svg>
