<?xml version="1.0" encoding="UTF-8" standalone="no"?>
<!-- Created with Inkscape (http://www.inkscape.org/) -->

<svg
   xmlns:dc="http://purl.org/dc/elements/1.1/"
   xmlns:cc="http://creativecommons.org/ns#"
   xmlns:rdf="http://www.w3.org/1999/02/22-rdf-syntax-ns#"
   xmlns:svg="http://www.w3.org/2000/svg"
   xmlns="http://www.w3.org/2000/svg"
   xmlns:sodipodi="http://sodipodi.sourceforge.net/DTD/sodipodi-0.dtd"
   xmlns:inkscape="http://www.inkscape.org/namespaces/inkscape"
   width="256mm"
   height="256mm"
   viewBox="0 0 256.00001 256.00002"
   version="1.1"
   id="svg952"
   inkscape:version="0.92.5 (2060ec1f9f, 2020-04-08)"
   sodipodi:docname="mournhold.svg">
  <defs
     id="defs946" />
  <sodipodi:namedview
     id="base"
     pagecolor="#ffffff"
     bordercolor="#666666"
     borderopacity="1.0"
     inkscape:pageopacity="0.0"
     inkscape:pageshadow="2"
     inkscape:zoom="1.7225"
     inkscape:cx="361.48134"
     inkscape:cy="529.841"
     inkscape:document-units="mm"
     inkscape:current-layer="layer1"
     showgrid="false"
     units="mm"
     inkscape:window-width="3840"
     inkscape:window-height="2056"
     inkscape:window-x="0"
     inkscape:window-y="50"
     inkscape:window-maximized="1"
     showguides="true"
     inkscape:guide-bbox="true" />
  <metadata
     id="metadata949">
    <rdf:RDF>
      <cc:Work
         rdf:about="">
        <dc:format>image/svg+xml</dc:format>
        <dc:type
           rdf:resource="http://purl.org/dc/dcmitype/StillImage" />
        <dc:title></dc:title>
      </cc:Work>
    </rdf:RDF>
  </metadata>
  <g
     inkscape:label="Layer 1"
     inkscape:groupmode="layer"
     id="layer1"
     transform="translate(0,-40.999976)">
    <rect
       style="fill:#1a1a1a;fill-opacity:1;stroke:none;stroke-width:0.83444387;stroke-opacity:1"
       id="rect816"
       width="256"
       height="256"
       x="0"
       y="40.999977" />
    <path
       style="fill:#ffffff;stroke-width:1.14069355"
       d="M 98.610567,280.29414 C 78.962629,276.11767 59.192469,265.98163 44.159159,252.37712 30.560119,240.07056 17.154269,217.97606 12.038379,199.43789 0.04226895,155.96856 15.355779,108.28444 50.221419,80.540992 65.051159,68.740624 84.406529,59.924396 102.52732,56.716026 c 7.55561,-1.337748 30.71043,-1.50093 37.67121,-0.265575 l 4.51543,0.801424 -8.01942,3.146331 C 118.58513,67.5032 96.938996,84.499267 85.365789,100.70046 c -25.11572,35.1592 -28.84201,81.91493 -9.58144,120.22275 13.00994,25.87588 35.212571,46.31451 62.089841,57.15678 l 6.75384,2.72452 -5.04282,0.77098 c -9.81373,1.50037 -31.00562,0.8376 -40.974643,-1.28144 z m 82.415683,-28.0258 c -21.51334,-4.67338 -38.76899,-21.11416 -44.8764,-42.7571 -0.79668,-2.8232 -1.5856,-5.31999 -1.75318,-5.5484 -0.16771,-0.2285 -2.10749,0.69894 -4.31098,2.06079 -11.40158,7.04658 -22.21311,19.05268 -26.83791,29.80329 -2.96983,6.90353 -3.435228,6.59484 -6.998977,-4.64247 -3.04023,-9.58661 -3.283904,-24.22885 -0.559949,-33.65047 2.519643,-8.71491 7.284556,-17.08363 13.944666,-24.49123 4.99294,-5.55336 5.14323,-5.91478 3.10076,-7.45602 -1.18055,-0.89088 -6.5096,-3.27118 -11.84236,-5.2896 -8.762161,-3.31641 -10.922501,-3.67433 -22.433321,-3.71697 -14.84327,-0.0548 -14.80607,0.0388 -4.17569,-10.42395 4.0811,-4.01639 9.67421,-7.88344 15.62697,-10.80437 14.003311,-6.87124 25.227601,-7.86167 43.952191,-3.87839 l 3.8824,0.82591 -0.62087,-9.05809 c -0.77672,-11.33212 -4.85265,-23.290366 -11.01623,-32.320003 -2.58531,-3.787461 -4.05498,-6.877401 -3.26589,-6.866493 5.22873,0.072 18.07945,3.932321 24.73607,7.43028 14.11096,7.415104 27.11719,24.184136 30.27456,39.033186 0.43354,2.03898 1.08752,3.70723 1.45329,3.70723 0.3656,0 3.11853,-1.57439 6.11732,-3.49869 8.41718,-5.40131 19.7102,-18.08665 23.88054,-26.82484 l 3.66205,-7.673182 1.6927,3.884162 c 4.9603,11.38222 6.33702,27.91616 3.28036,39.39581 -2.20224,8.27068 -7.93215,18.51696 -14.43546,25.81346 l -5.56798,6.24718 7.65766,3.52546 c 11.39484,5.24606 21.88389,7.37915 33.01739,6.71461 L 248,181.24897 l -3.61161,5.02907 c -7.35582,10.24279 -21.5399,18.81366 -36.03137,21.77237 -8.62049,1.76004 -17.3398,1.3139 -30.28421,-1.54956 l -3.23799,-0.71628 0.73443,6.71129 c 1.68424,15.3902 5.45998,26.09179 12.67223,35.91678 4.67111,6.36332 4.57199,6.41626 -7.21523,3.8557 z"
       id="path1344"
       inkscape:connector-curvature="0" />
  </g>
</svg>
