<?xml version="1.0" encoding="UTF-8" standalone="no"?>
<!-- Created with Inkscape (http://www.inkscape.org/) -->

<svg
   xmlns:dc="http://purl.org/dc/elements/1.1/"
   xmlns:cc="http://creativecommons.org/ns#"
   xmlns:rdf="http://www.w3.org/1999/02/22-rdf-syntax-ns#"
   xmlns:svg="http://www.w3.org/2000/svg"
   xmlns="http://www.w3.org/2000/svg"
   xmlns:sodipodi="http://sodipodi.sourceforge.net/DTD/sodipodi-0.dtd"
   xmlns:inkscape="http://www.inkscape.org/namespaces/inkscape"
   width="256mm"
   height="256mm"
   viewBox="0 0 256.00001 256.00002"
   version="1.1"
   id="svg952"
   inkscape:version="0.92.5 (2060ec1f9f, 2020-04-08)"
   sodipodi:docname="orsinium.svg">
  <defs
     id="defs946" />
  <sodipodi:namedview
     id="base"
     pagecolor="#ffffff"
     bordercolor="#666666"
     borderopacity="1.0"
     inkscape:pageopacity="0.0"
     inkscape:pageshadow="2"
     inkscape:zoom="0.5"
     inkscape:cx="-478.73678"
     inkscape:cy="298.95818"
     inkscape:document-units="mm"
     inkscape:current-layer="layer1"
     showgrid="false"
     units="mm"
     inkscape:window-width="3840"
     inkscape:window-height="2056"
     inkscape:window-x="0"
     inkscape:window-y="50"
     inkscape:window-maximized="1"
     showguides="true"
     inkscape:guide-bbox="true" />
  <metadata
     id="metadata949">
    <rdf:RDF>
      <cc:Work
         rdf:about="">
        <dc:format>image/svg+xml</dc:format>
        <dc:type
           rdf:resource="http://purl.org/dc/dcmitype/StillImage" />
        <dc:title></dc:title>
      </cc:Work>
    </rdf:RDF>
  </metadata>
  <g
     inkscape:label="Layer 1"
     inkscape:groupmode="layer"
     id="layer1"
     transform="translate(0,-40.999976)">
    <rect
       style="fill:#1a1a1a;fill-opacity:1;stroke:none;stroke-width:0.83444387;stroke-opacity:1"
       id="rect816"
       width="256"
       height="256"
       x="0"
       y="40.999977" />
    <g
       id="g1186"
       style="fill:#ffffff"
       transform="matrix(3.5345383,0,0,3.5345383,321.19827,134.70622)">
      <g
         id="g1168"
         style="fill:#ffffff">
        <path
           style="fill:#ffffff;stroke-width:0.26458332"
           d="m -77.330261,30.852689 v -2.500863 l 4.40434,-2.129345 4.40435,-2.129348 h 9.44402 9.444022 l 1.563613,0.763868 c 0.859986,0.420126 2.456582,0.975264 3.547988,1.233641 2.433265,0.576042 3.556519,1.029843 4.239432,1.712756 0.447622,0.447622 0.523068,0.885616 0.523068,3.03661 v 2.513541 h -18.785413 -18.78542 z"
           id="path1162"
           inkscape:connector-curvature="0" />
        <path
           style="fill:#ffffff;stroke-width:0.26458332"
           d="m -68.546091,22.981883 c -0.43421,-0.434203 -0.40232,-2.457733 0.0446,-2.828618 0.25845,-0.21449 2.96562,-0.280557 9.45886,-0.230833 l 9.096775,0.06966 0.08148,1.277326 c 0.0456,0.714764 -0.05607,1.44307 -0.230833,1.653646 -0.25872,0.311738 -1.841482,0.37632 -9.222832,0.37632 -6.57763,0 -8.99365,-0.08313 -9.22802,-0.3175 z"
           id="path1160"
           inkscape:connector-curvature="0" />
        <path
           style="fill:#ffffff;stroke-width:0.26458332"
           d="m -70.992531,18.570027 c -1.5928,-0.665157 -4.1904,-2.263227 -7.52835,-4.631505 -1.16156,-0.824127 -1.72632,-1.006133 -4.63021,-1.492218 -1.81901,-0.304485 -3.44521,-0.695775 -3.61376,-0.869535 -0.99719,-1.027964 -2.31907,-7.7454681 -1.67652,-8.5196918 0.28616,-0.3447971 3.16152,-0.3951949 22.54705,-0.3951949 h 22.21906 l 0.899583,0.8995833 0.899584,0.8995833 v 5.2675557 c 0,3.8233644 -0.09068,5.3777144 -0.330729,5.6693544 -0.351838,0.427442 -3.12878,2.088067 -5.415164,3.238293 l -1.380265,0.694381 -10.129109,-0.01865 -10.12911,-0.01865 -1.73206,-0.723318 z"
           id="path1158"
           inkscape:connector-curvature="0" />
        <path
           style="fill:#ffffff;stroke-width:0.26458332"
           d="m -40.500261,13.721466 c -0.220649,-0.220649 -0.3175,-1.616898 -0.3175,-4.5772924 0,-2.9603935 0.09685,-4.3566421 0.3175,-4.5772913 0.234392,-0.2343918 2.653313,-0.3175 9.241155,-0.3175 h 8.923652 l 0.813015,0.9863243 c 0.447156,0.5424805 0.813011,1.231564 0.813011,1.5313025 0,0.6141667 -1.676712,2.3130695 -4.199122,4.2546909 -0.927071,0.71361 -1.950366,1.502286 -2.273988,1.752613 -0.459264,0.355243 -1.715283,0.543563 -5.722753,0.858028 -6.213734,0.48759 -7.185107,0.498988 -7.59497,0.08912 z"
           id="path1156"
           inkscape:connector-curvature="0" />
      </g>
      <g
         id="g1174"
         style="fill:#ffffff">
        <path
           style="fill:#ffffff;stroke-width:0.26458332"
           d="m -37.371812,2.6685524 c -1.830853,-0.455631 -1.858449,-0.578141 -1.858449,-8.250092 0,-6.8185844 0.0039,-6.8657414 0.611968,-7.4738494 0.675661,-0.675661 2.569948,-1.079172 3.791942,-0.807739 1.874295,0.416323 3.295222,0.998366 3.536109,1.448468 0.406461,0.759475 0.344297,13.27838375 -0.06866,13.8283783 -0.715745,0.9532541 -4.255984,1.6920687 -6.012905,1.2548341 z"
           id="path1154"
           inkscape:connector-curvature="0" />
        <path
           style="fill:#ffffff;stroke-width:0.26458332"
           d="m -86.064411,-2.4313469 c -0.39962,-0.6554311 -0.52429,-1.3317379 -0.52429,-2.8442708 0,-2.4466365 0.60881,-3.7041667 1.7933,-3.7041667 1.24182,0 1.37972,0.3702394 1.37972,3.7041667 0,3.3339273 -0.1379,3.7041667 -1.37972,3.7041667 -0.55626,0 -0.8774,-0.2176039 -1.26901,-0.8598959 z"
           id="path1152"
           inkscape:connector-curvature="0" />
        <path
           style="fill:#ffffff;stroke-width:0.26458332"
           d="m -81.510681,-2.9472844 c -0.42419,-0.4241985 -0.42419,-4.2324681 0,-4.6566667 0.45335,-0.4533423 15.58041,-0.4533423 16.03375,0 0.19125,0.1912435 0.3175,1.1171291 0.3175,2.3283334 0,1.2112043 -0.12625,2.1370898 -0.3175,2.3283333 -0.45334,0.4533424 -15.5804,0.4533424 -16.03375,0 z"
           id="path1150"
           inkscape:connector-curvature="0" />
        <path
           style="fill:#ffffff;stroke-width:0.26458332"
           d="m -62.976611,-3.6963622 c -0.5255,-0.2112248 -0.59532,-0.42722 -0.59532,-1.8418624 0,-1.4768063 0.0533,-1.6228245 0.67869,-1.8606082 0.39816,-0.1513814 4.87477,-0.2580349 10.83069,-0.2580349 5.955912,0 10.432524,0.1066535 10.830691,0.2580349 0.625292,0.237736 0.678682,0.3839474 0.678682,1.8586317 0,1.4746843 -0.05339,1.6208957 -0.678682,1.8586318 -0.861891,0.3276918 -20.926661,0.3140393 -21.744751,-0.01479 z"
           id="path1146"
           inkscape:connector-curvature="0" />
      </g>
    </g>
  </g>
</svg>
