<?xml version="1.0" encoding="UTF-8" standalone="no"?>
<!-- Created with Inkscape (http://www.inkscape.org/) -->

<svg
   xmlns:dc="http://purl.org/dc/elements/1.1/"
   xmlns:cc="http://creativecommons.org/ns#"
   xmlns:rdf="http://www.w3.org/1999/02/22-rdf-syntax-ns#"
   xmlns:svg="http://www.w3.org/2000/svg"
   xmlns="http://www.w3.org/2000/svg"
   xmlns:sodipodi="http://sodipodi.sourceforge.net/DTD/sodipodi-0.dtd"
   xmlns:inkscape="http://www.inkscape.org/namespaces/inkscape"
   width="256mm"
   height="256mm"
   viewBox="0 0 256.00001 256.00002"
   version="1.1"
   id="svg952"
   inkscape:version="0.92.5 (2060ec1f9f, 2020-04-08)"
   sodipodi:docname="raven-rock.svg">
  <defs
     id="defs946" />
  <sodipodi:namedview
     id="base"
     pagecolor="#ffffff"
     bordercolor="#666666"
     borderopacity="1.0"
     inkscape:pageopacity="0.0"
     inkscape:pageshadow="2"
     inkscape:zoom="1.2179914"
     inkscape:cx="313.76915"
     inkscape:cy="681.42912"
     inkscape:document-units="mm"
     inkscape:current-layer="layer1"
     showgrid="false"
     units="mm"
     inkscape:window-width="3840"
     inkscape:window-height="2056"
     inkscape:window-x="0"
     inkscape:window-y="50"
     inkscape:window-maximized="1"
     showguides="true"
     inkscape:guide-bbox="true" />
  <metadata
     id="metadata949">
    <rdf:RDF>
      <cc:Work
         rdf:about="">
        <dc:format>image/svg+xml</dc:format>
        <dc:type
           rdf:resource="http://purl.org/dc/dcmitype/StillImage" />
        <dc:title></dc:title>
      </cc:Work>
    </rdf:RDF>
  </metadata>
  <g
     inkscape:label="Layer 1"
     inkscape:groupmode="layer"
     id="layer1"
     transform="translate(0,-40.999976)">
    <rect
       style="fill:#000000;fill-opacity:1;stroke:none;stroke-width:0.83444387;stroke-opacity:1"
       id="rect816"
       width="256"
       height="256"
       x="0"
       y="40.999977" />
    <path
       style="fill:#ffffff;stroke-width:1.09028256"
       d="m 119.56345,284.86846 c -5.5732,-3.75323 -11.18855,-10.50071 -11.18855,-13.44437 0,-2.84435 5.80054,-0.15989 11.68971,5.40976 6.38453,6.03822 7.49267,6.02586 12.68214,-0.14134 6.78676,-8.06563 6.48941,-18.40205 -0.84286,-29.29769 l -3.65683,-5.43408 2.57032,-2.41468 2.57032,-2.41472 2.23892,2.61326 c 5.14332,6.00328 7.98203,13.29363 8.44681,21.69321 0.40548,7.32794 0.13227,8.79917 -2.63168,14.16695 -1.97055,3.82714 -4.65868,7.0438 -7.44521,8.90906 -6.81833,4.56411 -8.13456,4.59646 -14.43309,0.3548 z m -1.75705,-14.70281 c -14.56884,-2.60732 -27.747752,-13.81676 -31.732356,-26.99019 -0.680254,-2.24894 -0.391059,-2.45313 3.473589,-2.45313 3.807906,0 4.345705,0.36016 5.561575,3.72236 1.850918,5.1186 8.777532,11.971 15.681402,15.5134 4.60515,2.36292 7.69283,3.05439 15.38512,3.44557 l 9.62368,0.48934 -0.71751,2.85869 c -0.39477,1.57227 -0.85637,2.99756 -1.02611,3.16733 -0.9024,0.90241 -11.67189,1.06588 -16.24939,0.24642 z m 28.76977,-7.88226 c 0.0371,-4.17424 0.48855,-4.97086 4.31805,-7.6189 7.85424,-5.43107 11.75614,-17.56352 7.96542,-24.7675 -1.08195,-2.05617 -3.32685,-4.73557 -4.98871,-5.9542 -2.63106,-1.92942 -3.46877,-2.04694 -6.48223,-0.90949 -2.85016,1.0758 -3.9073,1.01366 -5.99174,-0.35233 -2.15417,-1.41144 -2.34591,-2.00429 -1.28766,-3.98167 0.68388,-1.27781 1.19931,-4.52022 1.14541,-7.20535 -0.0647,-3.23223 0.62652,-5.8996 2.04591,-7.89293 1.9689,-2.76506 2.14193,-4.86595 2.11996,-25.73845 -0.0288,-25.73388 -1.00237,-29.99407 -7.81723,-34.149 -4.90802,-2.99233 -14.29871,-2.99233 -19.20669,0 -6.83382,4.16646 -7.79012,8.38328 -7.81724,34.46909 -0.0206,20.97743 0.16071,23.27578 2.03174,25.58637 1.66351,2.05436 1.94809,3.72474 1.49184,8.75647 l -0.56385,6.21785 5.74005,6.06925 c 4.81555,5.09177 5.51954,6.33483 4.37121,7.71854 -1.93881,2.3361 -3.06712,2.07245 -5.98828,-1.3992 -1.41082,-1.67665 -5.05962,-4.40616 -8.1084,-6.0655 -7.08111,-3.85402 -11.997619,-3.6214 -14.041554,0.6643 -1.164648,2.44209 -2.150374,2.99826 -5.313588,2.99826 -3.527694,0 -3.813427,-0.22499 -3.117349,-2.45312 1.282667,-4.10608 0.831691,-6.19836 -2.082505,-9.66168 -1.534816,-1.82406 -2.790616,-3.72999 -2.790616,-4.23544 0,-0.50549 -2.430255,-1.72622 -5.400576,-2.71281 -6.074485,-2.01761 -11.436409,-7.30709 -12.550908,-12.38134 -2.001985,-9.1151 -26.750075,-9.96239 -26.750075,-0.91584 0,1.36319 1.704632,5.15424 3.788085,8.42455 4.554792,7.14955 4.885606,9.76202 1.236102,9.76202 -3.832341,0 -13.590531,-9.26481 -16.627731,-15.78697 -3.66962,-7.88034 -3.41697,-15.02913 0.89927,-25.44699 4.78811,-11.55667 25.405267,-51.94978 32.933636,-64.52345 3.41083,-5.69673 6.930365,-12.853958 7.821189,-15.904955 1.604251,-5.494677 1.582576,-5.643207 -2.28879,-15.667417 -5.463624,-14.14711 -4.44654,-15.36364 5.004119,-5.9854 5.662822,5.61944 7.975924,7.27092 9.061907,6.46994 0.801981,-0.59153 3.567501,-2.67004 6.145568,-4.61892 3.713829,-2.80748 5.729001,-3.54258 9.702643,-3.53935 5.228623,0.004 11.653163,3.0089 12.794773,5.98389 0.47599,1.24039 2.13072,0.42708 7.14316,-3.51093 6.88471,-5.40891 8.8686,-8.25017 10.10388,-14.47014 1.99905,-10.06573 3.03451,-10.06607 5.50087,-0.002 1.13341,4.62485 2.78999,8.453 4.20601,9.71931 1.28489,1.14904 4.35106,3.84192 6.8137,5.98419 l 4.47757,3.89503 2.06157,-2.27799 c 3.08682,-3.41092 7.45746,-5.32558 12.15676,-5.32558 3.80164,0 8.64901,2.43407 16.25493,8.16234 1.05487,0.79446 3.39146,-0.87287 8.9415,-6.38037 4.86727,-4.82995 7.78925,-7.00963 8.29656,-6.18883 0.4307,0.69688 -1.02664,6.0457 -3.2385,11.88627 -4.95908,13.094683 -4.82268,13.830077 6.10012,32.895472 9.12693,15.93068 28.84564,55.12535 32.98732,65.56849 4.93968,12.45521 3.3529,21.71893 -5.37494,31.37963 -6.25217,6.92035 -13.54636,9.99901 -13.54636,5.71746 0,-1.0819 1.49476,-4.32411 3.3217,-7.20489 4.88144,-7.69709 5.24708,-10.87913 1.52991,-13.31471 -4.03195,-2.64182 -13.90643,-2.68494 -19.14007,-0.0836 -2.9498,1.46619 -4.24887,3.01545 -5.20538,6.20804 -1.51512,5.05699 -7.72332,10.60015 -12.97551,11.58546 -2.27478,0.42675 -4.29778,1.75342 -5.40869,3.54706 -0.97609,1.5759 -2.73565,3.95296 -3.91015,5.28231 -1.83892,2.08148 -2.00998,3.21683 -1.23189,8.17714 1.57684,10.05299 1.08701,16.3371 -1.71016,21.93782 -2.80936,5.6252 -10.63039,13.58563 -16.15422,16.4421 l -3.44223,1.78008 0.0412,-4.66173 z M 96.939811,158.86352 c 6.538359,-14.57495 13.622549,-26.16436 19.773309,-32.34829 5.1209,-5.14852 6.16819,-5.72399 10.41754,-5.72399 3.23051,0 5.98041,0.85357 8.69697,2.69952 7.54482,5.12684 19.12566,25.23436 28.74135,49.90297 2.2782,5.84462 4.26535,10.50346 4.41584,10.35296 0.15041,-0.15049 -0.65013,-4.77735 -1.77917,-10.28192 -8.92708,-43.52343 -21.04539,-70.02052 -34.34681,-75.100383 -4.08651,-1.560644 -5.64535,-1.66888 -9.10545,-0.632206 -12.90909,3.867649 -25.874047,30.582119 -34.369516,70.818829 -3.539933,16.76602 -3.477668,18.09008 0.364687,7.75703 1.690251,-4.54559 4.926319,-12.39563 7.191291,-17.44452 z m -30.697345,18.78114 c 2.221663,-1.96932 6.580266,-9.90755 5.844135,-10.6437 -1.501973,-1.50194 -20.901284,-15.6818 -21.454166,-15.6818 -0.368395,0 -2.981818,5.35893 -5.807583,11.90874 -4.712864,10.9239 -5.936151,15.27678 -4.653649,16.55926 0.266201,0.26625 5.785785,0.29678 12.265669,0.0679 8.950976,-0.31622 12.267894,-0.84728 13.805594,-2.21037 z m 149.893124,0.50187 c 0.54287,-2.81885 -9.87942,-26.91263 -11.40196,-26.35853 -1.65526,0.6024 -21.12924,14.87595 -21.12924,15.48678 0,0.26702 0.92906,2.30579 2.06458,4.53061 3.57092,6.99668 5.06214,7.73248 16.50745,8.14531 13.75927,0.49627 13.50993,0.5285 13.95917,-1.80417 z M 77.766153,152.93185 c 0.0445,-0.61216 -4.237247,-5.41111 -9.514943,-10.66434 l -9.595792,-9.55132 -3.153489,6.59788 c -3.087021,6.45881 -3.108819,6.62985 -1.034473,8.11419 1.165472,0.83399 6.044073,4.48076 10.841289,8.10397 l 8.722275,6.58765 1.827141,-4.03752 c 1.004929,-2.22062 1.863529,-4.53835 1.907992,-5.15051 z m 125.249657,-6.55433 c 0.18255,-0.1453 -1.04424,-3.2852 -2.72571,-6.97758 l -3.05714,-6.71341 -9.71633,9.7876 -9.71628,9.78761 1.88471,4.9351 1.88475,4.93511 10.55729,-7.74514 c 5.80647,-4.25982 10.70641,-7.864 10.88871,-8.00929 z m -120.842883,-3.67394 1.404106,-4.25444 -7.966117,-12.21698 -7.966116,-12.21697 -3.024592,5.84116 c -1.663507,3.21264 -3.047709,6.56686 -3.076018,7.45382 -0.0478,1.50343 17.089422,19.64786 18.557358,19.64786 0.367159,0 1.299109,-1.9145 2.071379,-4.25445 z m 103.474573,-5.78106 9.065,-9.49037 -2.76804,-6.04616 c -1.52241,-3.32539 -3.19935,-6.04616 -3.72652,-6.04616 -0.52721,0 -4.37706,5.27431 -8.5553,11.7207 l -7.59673,11.7207 1.57009,4.12526 c 0.86354,2.2689 1.8798,3.98602 2.25829,3.81583 0.3787,-0.17019 4.76747,-4.5801 9.75321,-9.7998 z M 84.822489,110.75349 c -3.502434,-7.08342 -6.828912,-12.725327 -7.392178,-12.537573 -0.563224,0.187741 -2.409734,2.794023 -4.103322,5.791733 l -3.079274,5.45037 7.881146,12.18403 7.881106,12.18404 2.590305,-5.09683 2.590264,-5.09683 z m 97.694971,-6.83636 c -1.72433,-2.98669 -3.54847,-5.568101 -4.05355,-5.736466 -0.50508,-0.168374 -3.82743,5.577336 -7.38303,12.768226 l -6.46467,13.07435 2.4823,5.1093 2.48226,5.10929 8.03596,-12.44717 8.03592,-12.44718 z m -86.15781,9.28557 c 2.80784,-5.50379 2.778995,-6.11222 -0.654293,-13.808874 -1.571367,-3.522634 -3.794719,-8.566865 -4.940783,-11.209408 l -2.083783,-4.80461 -3.223788,3.08858 c -1.773078,1.69873 -3.496583,3.948088 -3.829993,4.998592 -0.542456,1.709066 10.68536,26.05342 12.016034,26.05342 0.282683,0 1.505105,-1.94297 2.716606,-4.3177 z m 72.70013,-8.14739 6.3221,-12.465087 -3.36835,-4.161725 c -1.8526,-2.28895 -3.80489,-4.06184 -4.33845,-3.93975 -0.53351,0.1221 -3.22552,5.228622 -5.98222,11.347858 l -5.01219,11.125874 2.23027,5.27896 c 1.22667,2.90343 2.58948,5.27896 3.02851,5.27896 0.43898,0 3.64311,-5.60929 7.12033,-12.46509 z M 103.3538,90.171172 c 0.0956,-5.220154 -0.32553,-6.733454 -2.52832,-9.082394 -2.713026,-2.893 -5.002311,-3.46815 -7.499652,-1.88414 -1.101972,0.69894 -0.387351,3.15677 3.186826,10.958779 5.183126,11.314493 6.633796,11.316133 6.841146,0.0078 z m 58.96039,-10.679454 c -2.13888,-2.26385 -6.7512,-0.61452 -8.67275,3.10129 -1.97202,3.81347 -2.08646,7.75403 -0.39682,13.666878 l 1.24615,4.361134 4.62238,-9.812549 c 3.82908,-8.128603 4.37846,-10.070683 3.20116,-11.316753 z M 111.0927,257.7253 c -2.15029,-1.59749 -2.14143,-1.67451 0.85712,-7.47797 1.66639,-3.22515 6.23948,-9.38069 10.16248,-13.679 l 7.13268,-7.8151 3.1935,1.65144 c 1.75643,0.90825 3.1935,1.94977 3.1935,2.31446 0,0.36469 -3.37218,4.21306 -7.49371,8.55196 -4.90249,5.16108 -8.04226,9.54037 -9.08019,12.66489 -1.75042,5.26933 -4.32482,6.49402 -7.96538,3.78932 z M 84.933832,236.98654 c -4.797216,-1.46163 -13.628526,-4.71319 -19.625087,-7.22566 -20.256675,-8.48735 -34.65096,-6.65172 -40.72812,5.19384 l -1.9743,3.84829 -2.35872,-2.99867 c -3.12196,-3.96895 -4.75419,-10.37025 -4.42981,-17.37306 0.22046,-4.7605 -0.22458,-6.34315 -2.69608,-9.58326 C 7.8090751,201.88279 6.5065051,191.01473 9.7920651,181.06746 12.138875,173.96243 33.134275,131.1221 42.805724,113.70441 51.701853,97.682976 54.444997,94.624462 59.918141,94.624462 c 2.065362,0 3.755201,0.222232 3.755201,0.493839 0,1.699279 -2.748131,6.047859 -3.82204,6.047859 -0.710294,0 -2.066681,0.85859 -3.014207,1.90799 -4.468751,4.94914 -31.16044,56.40065 -38.88429,74.9542 -5.03647,12.09809 -4.05651,20.52067 3.42537,29.44037 1.99758,2.38147 2.50897,3.86378 1.88063,5.45139 -0.47463,1.19934 -0.89746,4.23119 -0.93957,6.73751 l -0.0767,4.55698 4.82425,-2.69634 c 11.384695,-6.36302 25.019443,-5.62392 43.237746,2.34385 20.242994,8.85327 30.003659,10.19738 36.919769,5.0841 l 3.07062,-2.27025 2.42506,2.58137 c 2.90567,3.09291 2.35262,4.24314 -3.46794,7.21259 -6.78301,3.46045 -14.143171,3.61679 -24.318258,0.51662 z m 61.313578,-1.08067 c -7.3855,-3.03716 -10.41615,-4.92698 -16.02021,-9.98994 -3.58904,-3.2425 -4.31437,-3.5192 -5.49509,-2.09656 -1.91422,2.30651 -2.94935,2.05746 -5.10174,-1.22749 -1.81622,-2.7719 -1.79698,-2.93232 0.58329,-4.85972 2.09746,-1.69845 2.27305,-2.34529 1.18731,-4.37406 -0.81846,-1.52929 -1.12088,-6.1986 -0.84549,-13.05475 0.3412,-8.4941 0.84562,-11.13452 2.47018,-12.92965 2.8378,-3.13574 6.69939,-2.87426 8.98117,0.60816 2.45828,3.75181 3.40609,20.74789 1.42389,25.53332 -1.2767,3.08224 -1.14689,3.56792 1.77476,6.6413 3.98127,4.188 10.24032,7.79964 17.67206,10.1973 4.25591,1.37307 5.63311,2.29925 5.17884,3.48298 -0.34038,0.88687 -0.61877,2.30832 -0.61877,3.15876 0,2.25645 -4.00068,1.86687 -11.1902,-1.08965 z m 85.38419,-0.50277 c -4.69288,-11.32956 -20.99532,-14.18413 -38.24026,-6.69585 -15.61872,6.78214 -20.88896,8.9082 -21.20609,8.5548 -1.14574,-1.27673 -1.668,-7.44253 -0.6304,-7.44253 0.6639,0 6.53783,-2.43532 13.05319,-5.41183 18.64373,-8.5173 32.62507,-9.42869 44.32509,-2.88943 l 4.82429,2.69634 -0.0767,-4.55698 c -0.042,-2.50632 -0.46499,-5.53817 -0.93962,-6.73751 -0.62829,-1.58761 -0.11703,-3.06992 1.88063,-5.45139 7.4819,-8.9197 8.46185,-17.34228 3.42543,-29.44037 -7.72387,-18.55355 -34.41559,-70.00506 -38.8843,-74.9542 -0.94753,-1.0494 -2.30396,-1.90799 -3.01425,-1.90799 -1.07387,0 -3.822,-4.34858 -3.822,-6.047859 0,-0.271599 1.68984,-0.493839 3.7552,-0.493839 5.47314,0 8.21625,3.058514 17.11242,19.079948 9.6714,17.41769 30.66686,60.25802 33.01363,67.36305 3.2856,9.94727 1.98303,20.81533 -3.32961,27.78056 -2.47138,3.24011 -2.91663,4.82276 -2.69609,9.58326 0.33213,7.17485 -1.41375,13.78186 -4.63058,17.52165 l -2.49219,2.89734 z"
       id="path4891"
       inkscape:connector-curvature="0" />
  </g>
</svg>
