<?xml version="1.0" encoding="UTF-8" standalone="no"?>
<!-- Created with Inkscape (http://www.inkscape.org/) -->

<svg
   xmlns:dc="http://purl.org/dc/elements/1.1/"
   xmlns:cc="http://creativecommons.org/ns#"
   xmlns:rdf="http://www.w3.org/1999/02/22-rdf-syntax-ns#"
   xmlns:svg="http://www.w3.org/2000/svg"
   xmlns="http://www.w3.org/2000/svg"
   xmlns:sodipodi="http://sodipodi.sourceforge.net/DTD/sodipodi-0.dtd"
   xmlns:inkscape="http://www.inkscape.org/namespaces/inkscape"
   width="256mm"
   height="256mm"
   viewBox="0 0 256.00001 256.00002"
   version="1.1"
   id="svg952"
   inkscape:version="0.92.5 (2060ec1f9f, 2020-04-08)"
   sodipodi:docname="riften.svg">
  <defs
     id="defs946" />
  <sodipodi:namedview
     id="base"
     pagecolor="#ffffff"
     bordercolor="#666666"
     borderopacity="1.0"
     inkscape:pageopacity="0.0"
     inkscape:pageshadow="2"
     inkscape:zoom="0.6089957"
     inkscape:cx="456.00947"
     inkscape:cy="740.90644"
     inkscape:document-units="mm"
     inkscape:current-layer="layer1"
     showgrid="false"
     units="mm"
     inkscape:window-width="3840"
     inkscape:window-height="2056"
     inkscape:window-x="0"
     inkscape:window-y="50"
     inkscape:window-maximized="1"
     showguides="true"
     inkscape:guide-bbox="true" />
  <metadata
     id="metadata949">
    <rdf:RDF>
      <cc:Work
         rdf:about="">
        <dc:format>image/svg+xml</dc:format>
        <dc:type
           rdf:resource="http://purl.org/dc/dcmitype/StillImage" />
        <dc:title></dc:title>
      </cc:Work>
    </rdf:RDF>
  </metadata>
  <g
     inkscape:label="Layer 1"
     inkscape:groupmode="layer"
     id="layer1"
     transform="translate(0,-40.999976)">
    <rect
       style="fill:#000000;fill-opacity:1;stroke:none;stroke-width:0.83444387;stroke-opacity:1"
       id="rect816"
       width="256"
       height="256"
       x="0"
       y="40.999977" />
    <path
       style="fill:#ffffff;fill-opacity:1;stroke:none;stroke-width:7.9375;stroke-miterlimit:4;stroke-dasharray:none;stroke-opacity:1;paint-order:stroke fill markers"
       d="m 205.863,246.7554 c -15.24288,-20.28926 -17.17062,-22.68773 -18.25157,-22.70836 -1.62688,-0.0311 -3.82109,-1.00063 -4.832,-2.1352 -0.45516,-0.51084 -1.11724,-0.9288 -1.4713,-0.9288 -0.35405,0 -3.19991,0.80343 -6.32413,1.78539 -5.49596,1.72743 -5.8784,1.78614 -11.77851,1.80838 -7.27891,0.0274 -10.90513,-0.78282 -16.95862,-3.78927 -5.80395,-2.88251 -6.1956,-3.30062 -6.73467,-7.18964 -0.2484,-1.79198 -0.54036,-3.79575 -0.6488,-4.45281 -0.1913,-1.15915 -0.13616,-1.19559 1.85547,-1.22637 1.12895,-0.0175 3.08361,-0.17848 4.34369,-0.35786 1.74716,-0.24872 2.41133,-0.18122 2.79774,0.28437 0.72778,0.87693 4.93522,2.9277 7.7266,3.76607 3.13083,0.94032 10.8605,1.45802 10.8605,0.72739 0,-2.23998 -9.20093,-14.91916 -19.26201,-26.54368 -6.86429,-7.93095 -18.30973,-20.41774 -18.715,-20.41774 -0.27944,0 -19.95606,22.15364 -24.30837,27.36846 -7.129961,8.54294 -14.172559,18.33036 -14.172559,19.69626 0,0.67866 7.321516,-0.004 10.427619,-0.97291 1.5539,-0.48449 4.15872,-1.68513 5.78848,-2.66809 l 2.9632,-1.78719 3.89773,0.41627 c 2.14375,0.22894 4.01233,0.53088 4.15241,0.67096 0.14009,0.14007 0.008,2.12034 -0.29403,4.40059 l -0.54874,4.1459 -3.21303,2.0026 c -5.87121,3.65936 -12.12603,5.69323 -18.763484,6.1013 -3.445934,0.21185 -4.416446,0.0648 -11.669168,-1.76865 -4.350856,-1.09986 -8.35838,-1.99062 -8.905613,-1.97948 -0.547232,0.0111 -2.010346,0.45098 -3.251369,0.97744 -2.186144,0.92739 -2.792291,1.65381 -19.467359,23.32984 -9.466022,12.30495 -17.540886,22.70094 -17.944132,23.1022 -0.686562,0.68317 -1.465175,0.66347 -12.245312,-0.30993 -6.331677,-0.57172 -11.5283169,-1.04664 -11.5480869,-1.05538 -0.0198,-0.009 -0.3967,-5.20062 -0.83762,-11.53751 -0.59719,-8.58266 -0.67614,-11.64717 -0.30949,-12.01382 0.2707,-0.2707 10.4925859,-8.03712 22.7152919,-17.25871 l 22.2231,-16.76651 0.137237,-1.89704 c 0.09726,-1.34442 0.537954,-2.39568 1.512813,-3.60876 l 1.375569,-1.71172 -0.940202,-2.3165 C 50.557877,188.38788 51.58867,174.36264 57.87571,164.14654 l 2.097585,-3.40846 4.42768,-0.53663 c 3.463512,-0.41977 4.498462,-0.42209 4.752747,-0.0106 0.17879,0.28929 0.460489,2.15166 0.625999,4.1386 0.295669,3.54947 0.278355,3.64146 -0.990592,5.26258 -2.508845,3.20513 -4.419264,9.76423 -4.427175,15.19995 -0.0019,1.24029 0.155448,2.35317 0.349449,2.47307 0.84461,0.52199 8.878077,-5.0966 21.365628,-14.94309 4.285345,-3.37902 25.323519,-21.95259 25.538969,-22.54711 0.0675,-0.18628 -4.81972,-4.20379 -10.8605,-8.92781 -8.460658,-6.6164 -11.981008,-9.08872 -15.32745,-10.76435 L 81.083848,127.90741 66.313566,101.62355 C 48.223278,69.431704 47.597877,68.297472 48.099504,68.590162 c 0.221556,0.129276 13.01188,7.315962 28.422933,15.970414 15.411053,8.654446 28.715623,16.183624 29.565713,16.731504 1.08715,0.70067 1.70545,1.52965 2.08449,2.79478 0.99565,3.32316 11.42244,17.72567 18.46052,25.49947 l 1.88846,2.08587 1.47748,-1.66864 c 7.3984,-8.35565 17.06524,-21.7452 18.49964,-25.62387 l 0.78907,-2.13367 29.71056,-16.883235 c 16.3408,-9.285777 29.79037,-16.80341 29.88793,-16.705847 0.0976,0.09756 -7.46167,13.571514 -16.7983,29.942117 l -16.97568,29.764725 -2.92059,1.23228 c -2.15271,0.90828 -6.0616,3.66631 -14.86715,10.48994 -6.5706,5.09172 -11.94655,9.41229 -11.94655,9.60128 0,0.18899 5.40702,5.13947 12.0156,11.00107 9.31114,8.25868 14.46826,12.43023 22.91251,18.53369 5.9933,4.33193 11.02449,7.87624 11.18044,7.87624 0.15594,0 0.17148,-1.90602 0.0345,-4.23559 -0.28061,-4.77316 -1.27813,-8.107 -3.58385,-11.97769 -1.57846,-2.6498 -1.68407,-3.34599 -1.23256,-8.12485 l 0.26779,-2.83435 4.39421,0.44503 4.39422,0.44503 2.21818,3.546 c 4.07941,6.52139 6.20799,15.37369 5.67599,23.60526 -0.29638,4.58586 -0.99188,7.57331 -2.70516,11.61987 -1.28533,3.03578 -1.22426,4.24487 0.37757,7.47433 0.83639,1.68626 3.80361,4.13082 23.11499,19.04339 12.18549,9.40984 22.52456,17.37362 22.97572,17.69728 0.80302,0.57608 0.79955,0.83376 -0.16539,12.23484 -0.54213,6.40551 -1.00901,11.67399 -1.03751,11.70774 -0.0285,0.0338 -5.28476,0.42919 -11.68057,0.87875 l -11.62876,0.81739 -17.04297,-22.6853 z"
       id="path1309"
       inkscape:connector-curvature="0" />
  </g>
</svg>
