<?xml version="1.0" encoding="UTF-8" standalone="no"?>
<!-- Created with Inkscape (http://www.inkscape.org/) -->

<svg
   xmlns:dc="http://purl.org/dc/elements/1.1/"
   xmlns:cc="http://creativecommons.org/ns#"
   xmlns:rdf="http://www.w3.org/1999/02/22-rdf-syntax-ns#"
   xmlns:svg="http://www.w3.org/2000/svg"
   xmlns="http://www.w3.org/2000/svg"
   xmlns:sodipodi="http://sodipodi.sourceforge.net/DTD/sodipodi-0.dtd"
   xmlns:inkscape="http://www.inkscape.org/namespaces/inkscape"
   width="256"
   height="256"
   viewBox="0 0 67.733332 67.733335"
   version="1.1"
   id="svg952"
   inkscape:version="0.92.5 (2060ec1f9f, 2020-04-08)"
   sodipodi:docname="rimmen.svg">
  <defs
     id="defs946" />
  <sodipodi:namedview
     id="base"
     pagecolor="#ffffff"
     bordercolor="#666666"
     borderopacity="1.0"
     inkscape:pageopacity="0.0"
     inkscape:pageshadow="2"
     inkscape:zoom="4.8719657"
     inkscape:cx="26.865249"
     inkscape:cy="132.64312"
     inkscape:document-units="mm"
     inkscape:current-layer="layer1"
     showgrid="false"
     units="px"
     inkscape:window-width="3840"
     inkscape:window-height="2056"
     inkscape:window-x="0"
     inkscape:window-y="50"
     inkscape:window-maximized="1"
     showguides="true"
     inkscape:guide-bbox="true" />
  <metadata
     id="metadata949">
    <rdf:RDF>
      <cc:Work
         rdf:about="">
        <dc:format>image/svg+xml</dc:format>
        <dc:type
           rdf:resource="http://purl.org/dc/dcmitype/StillImage" />
        <dc:title></dc:title>
      </cc:Work>
    </rdf:RDF>
  </metadata>
  <g
     inkscape:label="Layer 1"
     inkscape:groupmode="layer"
     id="layer1"
     transform="translate(0,-229.26665)">
    <rect
       style="fill:#1a1a1a;fill-opacity:1;stroke:none;stroke-width:0.46984312;stroke-opacity:1"
       id="rect815"
       width="67.73333"
       height="67.73333"
       x="1.7801921e-06"
       y="229.26665" />
    <g
       id="g1984"
       style="fill:#fefdfb;fill-opacity:1;stroke:none;stroke-opacity:1">
      <rect
         transform="rotate(-45)"
         y="187.9286"
         x="-158.03389"
         height="18"
         width="18"
         id="rect1949"
         style="fill:#fefdfb;fill-opacity:1;stroke:none;stroke-width:1;stroke-miterlimit:4;stroke-dasharray:none;stroke-opacity:1" />
      <path
         id="path1977"
         transform="matrix(0.26458333,0,0,0.26458333,0,229.26665)"
         d="M 38.734375 47.992188 A 120 120 0 0 0 8 128 A 120 120 0 0 0 128 248 A 120 120 0 0 0 248 128 A 120 120 0 0 0 217.50586 48.291016 A 100.15748 100.15748 0 0 1 228.1582 93.177734 A 100.15748 100.15748 0 0 1 128 193.33594 A 100.15748 100.15748 0 0 1 27.841797 93.177734 A 100.15748 100.15748 0 0 1 38.734375 47.992188 z "
         style="fill:#fefdfb;fill-opacity:1;stroke:none;stroke-width:5.73611355;stroke-miterlimit:4;stroke-dasharray:none;stroke-opacity:1" />
    </g>
  </g>
</svg>
