<?xml version="1.0" encoding="UTF-8" standalone="no"?>
<!-- Created with Inkscape (http://www.inkscape.org/) -->

<svg
   xmlns:dc="http://purl.org/dc/elements/1.1/"
   xmlns:cc="http://creativecommons.org/ns#"
   xmlns:rdf="http://www.w3.org/1999/02/22-rdf-syntax-ns#"
   xmlns:svg="http://www.w3.org/2000/svg"
   xmlns="http://www.w3.org/2000/svg"
   xmlns:sodipodi="http://sodipodi.sourceforge.net/DTD/sodipodi-0.dtd"
   xmlns:inkscape="http://www.inkscape.org/namespaces/inkscape"
   width="256mm"
   height="256mm"
   viewBox="0 0 256.00001 256.00002"
   version="1.1"
   id="svg952"
   inkscape:version="0.92.5 (2060ec1f9f, 2020-04-08)"
   sodipodi:docname="sentinel.svg">
  <defs
     id="defs946" />
  <sodipodi:namedview
     id="base"
     pagecolor="#ffffff"
     bordercolor="#666666"
     borderopacity="1.0"
     inkscape:pageopacity="0.0"
     inkscape:pageshadow="2"
     inkscape:zoom="1.2179914"
     inkscape:cx="443.37719"
     inkscape:cy="501.90315"
     inkscape:document-units="mm"
     inkscape:current-layer="layer1"
     showgrid="false"
     units="mm"
     inkscape:window-width="3840"
     inkscape:window-height="2056"
     inkscape:window-x="0"
     inkscape:window-y="50"
     inkscape:window-maximized="1"
     showguides="true"
     inkscape:guide-bbox="true" />
  <metadata
     id="metadata949">
    <rdf:RDF>
      <cc:Work
         rdf:about="">
        <dc:format>image/svg+xml</dc:format>
        <dc:type
           rdf:resource="http://purl.org/dc/dcmitype/StillImage" />
        <dc:title></dc:title>
      </cc:Work>
    </rdf:RDF>
  </metadata>
  <g
     inkscape:label="Layer 1"
     inkscape:groupmode="layer"
     id="layer1"
     transform="translate(0,-40.999976)">
    <rect
       style="fill:#1a1a1a;fill-opacity:1;stroke:none;stroke-width:0.83444387;stroke-opacity:1"
       id="rect816"
       width="256"
       height="256"
       x="0"
       y="40.999977" />
    <path
       style="fill:#ffffff;stroke-width:0.65622008"
       d="m 119.78066,288.38786 c -7.13016,-0.7446 -19.06107,-3.42568 -26.23267,-5.89492 C 85.21389,279.62343 70.40656,272.04321 63.31028,267.01353 55.56312,261.52256 40.61735,246.72176 35.2933,239.26833 24.959739,224.80183 17.633519,207.62309 14.377163,190.22358 12.926716,182.47344 12.390224,162.34159 13.416829,154.1857 20.354946,99.064522 63.8817,56.103678 119.42805,49.552721 c 9.99509,-1.178766 27.64647,-0.400156 37.4392,1.651492 13.42553,2.812747 28.91082,8.952066 39.52673,15.670808 l 3.48024,2.202618 -8.07377,0.0074 c -12.79194,0.0124 -23.54677,2.313904 -35.16907,7.522949 -5.91488,2.650988 -15.86583,9.355173 -21.33532,14.374035 -4.0498,3.716161 -10.90812,11.945077 -13.7983,16.555847 -1.07636,1.71709 -1.2283,1.76233 -2.92049,0.86956 -0.98179,-0.51797 -3.55445,-2.44923 -5.71707,-4.2917 -9.79583,-8.345677 -21.28836,-13.138593 -31.50387,-13.138593 -8.35471,0 -15.88237,2.66964 -20.60636,7.307915 -2.47097,2.426138 -5.29798,7.907258 -5.30793,10.291198 -0.005,1.42118 0.24281,1.31315 3.29423,-1.43026 4.23976,-3.81189 8.5965,-5.31524 15.07353,-5.2013 9.88802,0.17386 20.28048,4.80296 27.82,12.39153 3.74915,3.77356 6.26521,7.33051 11.87759,16.79129 3.91641,6.60195 9.30019,15.50223 11.96395,19.7784 5.51359,8.85105 7.39827,13.13875 7.39827,16.83132 v 2.5742 l -4.35035,1.3437 c -11.58627,3.57864 -25.249,4.97373 -31.21233,3.18709 -5.10914,-1.53076 -7.36342,-6.88058 -4.4565,-10.57613 1.64728,-2.09416 4.8386,-3.18284 9.32871,-3.1824 4.23834,4.2e-4 6.7461,0.89337 7.74366,2.75732 1.07651,2.01151 -0.0923,2.91396 -3.77422,2.91396 -1.65643,0 -3.12647,0.33478 -3.26744,0.74411 -0.45289,1.31513 1.79641,2.86511 4.15778,2.86511 5.75707,0 8.65355,-4.68543 5.42991,-8.78359 -2.8252,-3.59168 -8.44251,-4.98446 -14.79279,-3.66777 -3.13547,0.65011 -4.38478,1.33149 -6.71984,3.66502 -2.83395,2.83207 -2.865,2.9122 -2.59176,6.68955 0.35569,4.9176 2.0796,7.36394 6.58992,9.35163 3.01107,1.32695 4.45402,1.51805 11.04199,1.46242 l 7.5783,-0.064 1.1652,3.28069 c 0.64086,1.80437 1.06951,3.36442 0.95255,3.4668 -0.11682,0.10244 -7.54981,2.9187 -16.51745,6.25852 l -16.30485,6.07238 -2.6215,-1.47339 c -5.18015,-2.91139 -11.59871,-1.51531 -14.78741,3.21637 -2.99524,4.44468 -2.73814,9.74911 0.66013,13.61954 3.59585,4.09546 7.89324,5.11137 12.99184,3.07131 2.76307,-1.10558 6.5086,-5.35612 6.5086,-7.38619 0,-0.77661 4.63728,-2.79189 17.66028,-7.67477 l 17.66028,-6.62161 2.60014,3.68701 2.60014,3.68702 -3.30658,3.92217 c -6.47613,7.68183 -8.6529,12.67346 -5.9748,13.70116 0.57935,0.22222 3.64121,-0.48436 6.80416,-1.57037 12.32077,-4.23036 20.63783,-1.43323 24.22195,8.14615 3.83404,10.24738 -1.22681,18.09677 -11.66776,18.09677 -7.10521,0 -9.53717,-2.11904 -9.53717,-8.30999 0,-3.96225 -0.61993,-4.16389 -2.81985,-0.91721 -3.28572,4.84912 -2.50416,10.44277 2.07534,14.85319 5.07777,4.89034 12.85697,5.51828 21.02288,1.69698 7.43724,-3.48029 12.54179,-10.21714 14.25953,-18.8193 0.43106,-2.15867 0.81155,-3.9867 0.84555,-4.06235 0.034,-0.0756 2.35267,0.58994 5.15257,1.47909 23.22575,7.37555 50.27461,3.34297 70.65329,-10.53334 2.88358,-1.9635 5.24287,-3.39569 5.24287,-3.18264 0,0.21304 -1.78195,3.82268 -3.95989,8.02141 -9.10616,17.5553 -22.92168,32.86481 -40.07589,44.40973 -6.50267,4.37632 -18.97853,10.55373 -26.88758,13.31335 -15.8273,5.52242 -35.23305,7.7147 -52.41056,5.92087 z M 57.21911,194.41108 c 15.00621,-7.6042 15.04584,-28.98449 0.0677,-36.46919 -3.44739,-1.7227 -4.75738,-2.01353 -9.06953,-2.01353 -4.30442,0 -5.62421,0.29187 -9.04128,1.99939 -6.94035,3.46814 -10.653114,9.05234 -11.158034,16.78226 -0.403404,6.17568 0.984963,10.32806 4.914574,14.69872 2.80612,3.12109 6.19872,5.36386 10.03497,6.63392 3.1032,1.02738 10.72685,0.15452 14.25166,-1.63157 z m 28.72736,-41.81889 c 6.3543,-2.37745 12.04681,-7.82729 13.18215,-12.62021 l 0.43765,-1.84765 -2.54277,1.09784 c -12.87434,5.5584 -29.43713,4.32001 -39.4752,-2.95152 l -2.76889,-2.00576 v 1.87483 c 0,6.56822 6.20901,13.91197 14.05572,16.62455 4.75566,1.64402 12.46455,1.56649 17.11134,-0.17213 z m 8.20614,-16.3199 c 5.93101,-2.00185 6.14071,-2.28298 4.87712,-6.53804 -2.79013,-9.39535 -15.18367,-15.97897 -26.08113,-13.85463 -5.27455,1.02822 -11.12344,4.16741 -13.9779,7.50222 -3.07967,3.5979 -3.42635,5.30225 -1.49638,7.35657 2.04998,2.18213 8.85124,5.37435 13.9028,6.52539 5.93663,1.3527 17.29519,0.85822 22.77549,-0.99151 z"
       id="path1179"
       inkscape:connector-curvature="0" />
  </g>
</svg>
