<?xml version="1.0" encoding="UTF-8" standalone="no"?>
<!-- Created with Inkscape (http://www.inkscape.org/) -->

<svg
   xmlns:dc="http://purl.org/dc/elements/1.1/"
   xmlns:cc="http://creativecommons.org/ns#"
   xmlns:rdf="http://www.w3.org/1999/02/22-rdf-syntax-ns#"
   xmlns:svg="http://www.w3.org/2000/svg"
   xmlns="http://www.w3.org/2000/svg"
   xmlns:sodipodi="http://sodipodi.sourceforge.net/DTD/sodipodi-0.dtd"
   xmlns:inkscape="http://www.inkscape.org/namespaces/inkscape"
   width="256mm"
   height="256mm"
   viewBox="0 0 256.00001 256.00002"
   version="1.1"
   id="svg952"
   inkscape:version="0.92.5 (2060ec1f9f, 2020-04-08)"
   sodipodi:docname="skaven.svg">
  <defs
     id="defs946" />
  <sodipodi:namedview
     id="base"
     pagecolor="#ffffff"
     bordercolor="#666666"
     borderopacity="1.0"
     inkscape:pageopacity="0.0"
     inkscape:pageshadow="2"
     inkscape:zoom="1.7225"
     inkscape:cx="431.23128"
     inkscape:cy="528.85625"
     inkscape:document-units="mm"
     inkscape:current-layer="g1782"
     showgrid="false"
     units="mm"
     inkscape:window-width="3840"
     inkscape:window-height="2056"
     inkscape:window-x="0"
     inkscape:window-y="50"
     inkscape:window-maximized="1"
     showguides="true"
     inkscape:guide-bbox="true" />
  <metadata
     id="metadata949">
    <rdf:RDF>
      <cc:Work
         rdf:about="">
        <dc:format>image/svg+xml</dc:format>
        <dc:type
           rdf:resource="http://purl.org/dc/dcmitype/StillImage" />
        <dc:title></dc:title>
      </cc:Work>
    </rdf:RDF>
  </metadata>
  <g
     inkscape:label="Layer 1"
     inkscape:groupmode="layer"
     id="layer1"
     transform="translate(0,-40.999976)">
    <rect
       style="fill:#1a1a1a;fill-opacity:1;stroke:none;stroke-width:0.83444387;stroke-opacity:1"
       id="rect816"
       width="256"
       height="256"
       x="0"
       y="40.999977" />
    <g
       id="g1896"
       transform="matrix(1.0668563,0,0,1.0668563,-8.5576057,-11.298734)"
       style="fill:#ffffff">
      <g
         transform="translate(234.26537,67.478061)"
         id="g1820"
         style="fill:#ffffff">
        <g
           id="g1801"
           style="fill:#ffffff">
          <g
             id="g1782"
             style="fill:#ffffff">
            <path
               style="fill:#ffffff;stroke-width:0.26458332"
               d="m -59.045898,174.92777 c -7.46769,-0.73443 -15.80863,-5.11818 -23.09869,-12.13997 -8.18791,-7.88661 -14.08538,-17.78298 -15.93438,-26.73904 -0.55726,-2.69922 -0.63055,-6.9909 -0.15351,-8.98873 0.67314,-2.81906 3.42501,-7.55699 4.03496,-6.94704 0.12848,0.12848 0.34343,2.25014 0.47767,4.7148 0.35825,6.57745 1.38272,10.72688 4.01329,16.25516 3.71769,7.81292 10.25896,14.94426 17.56379,19.14821 5.85388,3.36891 12.06662,4.89327 18.65312,4.57672 8.14165,-0.39129 12.34436,-2.92708 14.10045,-8.50779 0.82009,-2.60618 0.79485,-8.29838 -0.0546,-12.30673 -2.69243,-12.70549 -10.88246,-20.373 -29.25943,-27.39269 -5.50444,-2.10261 -6.86082,-2.67989 -10.00376,-4.25769 -4.53401,-2.27614 -6.10173,-3.36001 -6.55422,-4.53139 -0.12648,-0.32742 -0.38819,-0.59531 -0.58159,-0.59531 -0.82372,0 -3.19832,1.88958 -6.6088,5.25892 -2.00675,1.98254 -4.48288,4.16664 -5.50253,4.85356 -3.671252,2.47325 -6.888652,2.71324 -9.643982,0.71934 -3.08093,-2.22953 -3.00902,-2.19225 -3.4796,-1.80377 -1.11263,0.91853 -1.7995,3.762 -2.60967,10.80351 -0.22526,1.95782 -0.59166,4.45813 -0.81421,5.55625 -2.72361,13.43887 -11.68623,28.34808 -21.05033,35.01696 -6.01439,4.2833 -20.25838,8.01247 -26.96919,7.06071 -5.70402,-0.80898 -12.92078,-5.82819 -16.31863,-11.34951 -4.89048,-7.94676 -4.91854,-17.21255 -0.0845,-27.90293 2.97009,-6.56829 8.79986,-13.77 13.71226,-16.93919 7.56437,-4.8801 30.09461,-13.11464 36.18375,-13.22474 l 1.85209,-0.0335 -0.0406,0.8744 c -0.15068,3.2458 -5.62512,6.60831 -16.68693,10.24943 -9.63048,3.16997 -14.69471,6.03009 -19.90764,11.24318 -6.28765,6.28785 -9.91317,13.82749 -10.2521,21.32028 -0.25259,5.58414 1.05407,9.41005 4.26775,12.49599 3.71648,3.56874 9.25263,4.78556 16.31299,3.58552 16.75661,-2.8481 29.12028,-16.29851 32.37583,-35.22159 0.9119,-5.30049 1.04447,-9.45182 0.54221,-16.97947 -0.63915,-9.57948 -0.231,-13.612961 1.79366,-17.725651 2.37205,-4.81831 7.59104,-7.18846 15.01044,-6.81683 6.681162,0.33466 9.124872,1.69644 13.356332,7.44296 5.68932,7.726361 8.28782,9.550431 18.12909,12.726111 13.68375,4.41562 16.17134,5.37033 21.02358,8.06867 4.0942,2.2768 7.02932,4.45731 9.93267,7.37901 4.21292,4.23955 6.84339,8.68565 9.08978,15.36379 1.38816,4.12676 1.92671,6.58449 2.17262,9.91503 0.54025,7.31688 -2.97018,15.26363 -8.93502,20.22668 -2.38577,1.98508 -6.93806,4.28742 -10.0003,5.05769 -2.54441,0.64003 -6.54853,0.83543 -10.05417,0.49066 z"
               id="path1710"
               inkscape:connector-curvature="0" />
            <path
               style="fill:#1a1a1a;stroke-width:0.26458332"
               d="m -111.13784,107.72965 c 0.5399,-0.27544 1.41793,-1.03323 1.95118,-1.684 1.77839,-2.17029 3.27241,-2.14687 8.03988,0.12605 4.029362,1.92102 4.798332,1.74106 4.409942,-1.03207 -0.5983,-4.27188 -2.79478,-6.523211 -7.029712,-7.205221 -4.11889,-0.66333 -9.10641,1.44076 -10.9756,4.630291 -2.52938,4.31606 -0.48216,7.24971 3.60431,5.16495 z"
               id="path1708"
               inkscape:connector-curvature="0" />
          </g>
          <g
             id="g1786"
             style="fill:#ffffff">
            <path
               style="fill:#ffffff;stroke-width:0.26458332"
               d="m -160.15068,160.91167 c -2.01938,-0.324 -4.39641,-1.89146 -6.06003,-3.9961 -3.98274,-5.03854 -2.43141,-12.16857 4.3849,-20.15334 2.57006,-3.01063 7.02943,-6.26262 8.58776,-6.26262 0.88676,0 0.91812,0.7378 0.104,2.44666 -0.63717,1.33744 -0.75971,1.91918 -0.73348,3.48213 0.0376,2.24225 0.82173,5.5194 2.09699,8.76451 2.50676,6.37884 2.30975,9.09137 -0.91649,12.61855 -0.91895,1.00467 -1.93576,1.77658 -3.01864,2.29162 -1.92683,0.91642 -2.79204,1.07381 -4.44501,0.80859 z"
               id="path1706"
               inkscape:connector-curvature="0" />
            <path
               style="fill:#ffffff;stroke-width:0.26458332"
               d="m -145.25974,149.36571 c -1.15453,-0.56884 -2.62115,-2.54296 -4.08957,-5.50467 -2.74996,-5.5465 -2.89232,-7.66276 -0.70192,-10.43383 2.22008,-2.80861 9.30166,-8.44879 12.8336,-10.22142 2.33804,-1.17342 3.03022,-1.01796 3.90279,0.87658 0.50964,1.10654 0.57684,1.68748 0.55867,4.82971 -0.0431,7.4444 -2.50275,13.9588 -7.00964,18.56472 -2.20694,2.25543 -3.70482,2.77043 -5.49393,1.88891 z"
               id="path1702"
               inkscape:connector-curvature="0" />
          </g>
          <g
             id="g1790"
             style="fill:#ffffff">
            <path
               style="fill:#ffffff;stroke-width:0.26458332"
               d="m -57.458398,160.93857 c -2.4774,-0.49118 -5.60208,-3.12556 -6.79318,-5.72725 -0.98359,-2.14846 -0.78666,-3.7482 0.91537,-7.4358 2.1694,-4.70021 2.80065,-8.30233 2.0722,-11.82472 -0.80667,-3.90066 -0.49511,-5.16042 1.19278,-4.82285 2.04002,0.40801 7.77289,5.73454 10.24073,9.51489 4.25702,6.52111 4.20309,13.00086 -0.14429,17.33625 -2.3331,2.32665 -5.11886,3.42832 -7.48361,2.95948 z"
               id="path1704"
               inkscape:connector-curvature="0" />
            <path
               style="fill:#ffffff;stroke-width:0.26458332"
               d="m -71.940118,149.43591 c -5.11712,-2.31068 -11.50638,-16.43675 -10.15853,-22.45957 1.06085,-4.74039 5.27904,-4.72822 10.78396,0.0311 4.13729,3.57695 6.73647,7.42698 7.12764,10.5578 0.46635,3.73252 -1.61821,9.86265 -3.90834,11.49337 -0.99726,0.71011 -2.73091,0.88022 -3.84473,0.37727 z"
               id="path1700"
               inkscape:connector-curvature="0" />
          </g>
        </g>
        <g
           id="g1805"
           style="fill:#ffffff">
          <path
             id="path1698"
             d="m -135.37819,87.465789 c -4.89894,-0.56791 -8.09165,-1.52053 -12.25362,-3.65618 -5.78676,-2.96937 -8.6932,-5.41484 -10.4505,-8.79301 -1.55019,-2.98003 -2.09871,-5.42945 -2.1212,-9.47221 -0.0213,-3.83059 0.34658,-5.69567 1.69323,-8.58395 1.09223,-2.34258 2.20893,-3.61936 4.95173,-5.66155 2.42217,-1.80347 3.15863,-2.76594 2.72623,-3.56285 -0.41236,-0.75996 -1.62689,-1.75169 -4.6355,-3.78513 -7.72487,-5.22105 -11.34364,-11.2197 -11.71354,-19.41694 -0.16764,-3.71487 0.22294,-6.2765 1.67465,-10.98342 1.08705,-3.52457 1.48111,-4.2203496 2.15595,-3.8066896 0.25075,0.15369 1.25905,2.2941896 2.24066,4.7566496 4.09605,10.27526 7.5085,17.09397 12.03914,24.05638 3.78456,5.81587 7.34091,9.75278 10.96772,12.14135 1.23843,0.81562 2.79886,1.96458 3.46762,2.55324 1.7007,1.49702 3.46289,4.26412 4.29656,6.74675 0.93396,2.78128 0.85725,5.80259 -0.2061,8.1174 -1.45819,3.17435 -4.5006,5.4917 -7.21428,5.49497 -4.18499,0.005 -6.10909,-4.77657 -4.62448,-11.49239 0.61102,-2.76404 0.67204,-4.86842 0.16141,-5.56675 -0.46087,-0.63028 -2.77843,-0.62104 -4.37415,0.0174 -4.12291,1.64966 -6.43213,9.76251 -4.08506,14.35183 2.59024,5.06481 15.21738,9.81846 26.14451,9.84244 4.25399,0.009 7.54757,0.74853 7.54757,1.69394 0,0.57293 -1.81064,2.0134 -3.55935,2.83167 -3.66275,1.71391 -10.35238,2.69599 -14.8292,2.17702 z"
             style="fill:#ffffff;stroke-width:0.26458332"
             inkscape:connector-curvature="0" />
          <path
             id="path1696"
             d="m -84.181308,87.358289 c -2.76768,-0.34545 -5.90886,-1.1762 -7.80832,-2.06506 -1.75685,-0.82213 -3.56877,-2.26207 -3.56877,-2.83612 0,-0.94541 3.29358,-1.68461 7.54757,-1.69394 10.92713,-0.024 23.55427,-4.77763 26.14451,-9.84244 1.78718,-3.49454 0.90899,-9.57256 -1.82196,-12.61004 -1.36666,-1.52005 -2.76087,-2.16187 -4.81353,-2.21588 -1.15184,-0.0303 -1.53843,0.0665 -1.82372,0.45665 -0.51063,0.69833 -0.44961,2.80271 0.16141,5.56675 1.48461,6.71582 -0.43949,11.49744 -4.62448,11.49239 -2.71368,-0.003 -5.75609,-2.32062 -7.21428,-5.49497 -1.06335,-2.31481 -1.14006,-5.33612 -0.2061,-8.1174 0.83367,-2.48263 2.59586,-5.24973 4.29656,-6.74675 0.66876,-0.58866 2.22919,-1.73762 3.46762,-2.55324 7.58068,-4.99254 15.59218,-17.5974 23.00686,-36.19773 0.98161,-2.46246 1.98991,-4.6029596 2.24066,-4.7566496 0.67484,-0.41366 1.0689,0.2821196 2.15595,3.8066896 1.45171,4.70692 1.84229,7.26855 1.67465,10.98342 -0.3699,8.19724 -3.98867,14.19589 -11.71354,19.41694 -3.00861,2.03344 -4.22314,3.02517 -4.6355,3.78513 -0.4324,0.79691 0.30406,1.75938 2.72623,3.56285 2.7428,2.04219 3.8595,3.31897 4.95173,5.66155 1.34665,2.88828 1.71455,4.75336 1.69323,8.58395 -0.0315,5.66265 -1.52983,9.79205 -4.70829,12.97607 -3.62032,3.62665 -11.06339,7.38871 -16.78657,8.48468 -2.57506,0.49312 -7.79299,0.67129 -10.34192,0.35315 z"
             style="fill:#ffffff;stroke-width:0.26458332"
             inkscape:connector-curvature="0" />
        </g>
      </g>
      <g
         id="g1877"
         style="fill:#ffffff">
        <circle
           style="fill:#ffffff;fill-opacity:1;stroke:none;stroke-width:4.56107378;stroke-miterlimit:4;stroke-dasharray:none;stroke-opacity:1"
           id="path1714"
           cx="128"
           cy="82.886497"
           r="26.366501" />
        <circle
           style="fill:#ffffff;fill-opacity:1;stroke:none;stroke-width:3.40984225;stroke-miterlimit:4;stroke-dasharray:none;stroke-opacity:1"
           id="path1714-7"
           cx="128"
           cy="261.76849"
           r="19.7115" />
      </g>
    </g>
  </g>
</svg>
