<?xml version="1.0" encoding="UTF-8" standalone="no"?>
<!-- Created with Inkscape (http://www.inkscape.org/) -->

<svg
   xmlns:dc="http://purl.org/dc/elements/1.1/"
   xmlns:cc="http://creativecommons.org/ns#"
   xmlns:rdf="http://www.w3.org/1999/02/22-rdf-syntax-ns#"
   xmlns:svg="http://www.w3.org/2000/svg"
   xmlns="http://www.w3.org/2000/svg"
   xmlns:sodipodi="http://sodipodi.sourceforge.net/DTD/sodipodi-0.dtd"
   xmlns:inkscape="http://www.inkscape.org/namespaces/inkscape"
   width="256mm"
   height="256mm"
   viewBox="0 0 256.00001 256.00002"
   version="1.1"
   id="svg952"
   inkscape:version="0.92.5 (2060ec1f9f, 2020-04-08)"
   sodipodi:docname="solitude.svg">
  <defs
     id="defs946" />
  <sodipodi:namedview
     id="base"
     pagecolor="#ffffff"
     bordercolor="#666666"
     borderopacity="1.0"
     inkscape:pageopacity="0.0"
     inkscape:pageshadow="2"
     inkscape:zoom="1.7225"
     inkscape:cx="422.12131"
     inkscape:cy="557.64439"
     inkscape:document-units="mm"
     inkscape:current-layer="layer1"
     showgrid="false"
     units="mm"
     inkscape:window-width="3840"
     inkscape:window-height="2056"
     inkscape:window-x="0"
     inkscape:window-y="50"
     inkscape:window-maximized="1"
     showguides="true"
     inkscape:guide-bbox="true" />
  <metadata
     id="metadata949">
    <rdf:RDF>
      <cc:Work
         rdf:about="">
        <dc:format>image/svg+xml</dc:format>
        <dc:type
           rdf:resource="http://purl.org/dc/dcmitype/StillImage" />
        <dc:title></dc:title>
      </cc:Work>
    </rdf:RDF>
  </metadata>
  <g
     inkscape:label="Layer 1"
     inkscape:groupmode="layer"
     id="layer1"
     transform="translate(0,-40.999976)">
    <rect
       style="fill:#1a1a1a;fill-opacity:1;stroke:none;stroke-width:0.83444387;stroke-opacity:1"
       id="rect816"
       width="256"
       height="256"
       x="0"
       y="40.999977" />
    <path
       style="fill:#ffffff;stroke-width:0.49027395"
       d="m 121.0467,288.24915 c -7.453,-1.255 -11.63,-3.143 -14.972,-6.769 -3.149,-3.416 -3.791,-7.149 -3.427,-19.925 0.457,-16.019 2.19,-28.276 9.233,-65.314 l 4.537,-23.857 -1.89,-2.372 c -5.521,-6.932 -11.578,-11.645 -16.744003,-13.032 -1.585,-0.426 -8.398,-1.382 -15.139,-2.125 -6.741,-0.743 -12.312,-1.388 -12.38,-1.433 -0.07,-0.05 0.871,-9.202 2.084,-20.347 1.214,-11.145 2.131,-20.34 2.039,-20.432 -0.09,-0.09 -3.087,4.219 -6.654,9.583 l -6.485,9.752 -3.884,11.794 c -4.427,13.446 -7.188,23.808 -7.648,28.705 l -0.317,3.366 1.179,-0.348 c 0.648,-0.191 4.268,-1.741 8.043,-3.444 10.384,-4.684 16.74,-7.214 17.662,-7.029 0.715,0.143 0.843,0.947 0.923,5.804 0.1,5.84 0.964,9.014 3.128,11.451 3.884,4.373 13.104,3.299 22.780003,-2.655 1.339,-0.824 2.524,-1.409 2.632,-1.301 0.109,0.109 -2.542,10.105 -5.890003,22.214 -3.349,12.108 -6.898,25.104 -7.887,28.879 -5.505,21.014 -9.113,33.615 -10.032,35.041 -0.391,0.606 -0.521,0.567 -0.811,-0.245 -1.077,-3.02 -11.007,-27.82 -18.349,-45.827 l -8.496,-20.837 -13.178,-19.519 c -7.248,-10.735 -13.287,-19.8 -13.418,-20.143 -0.132,-0.344 2.088,-5.942 4.933,-12.44 l 5.172,-11.816 -1.228,-19.52 c -0.676,-10.735 -1.229,-19.783999 -1.229,-20.108999 0,-0.324 0.967,-1.254 2.148,-2.067 l 2.149,-1.479 8.51,14.201999 c 4.68,7.811 8.678,14.202 8.882,14.202 0.53,0 0.457,-16.678 -0.12,-27.699999 -0.268,-5.124 -0.947,-16.409 -1.509,-25.078 -0.561,-8.669 -0.947,-16.226 -0.858,-16.792 0.132,-0.831 3.95,2.577 19.774,17.649 10.787,10.273 20.273,19.307 21.082,20.074 l 1.471,1.396 4.167003,-2.698 c 5.444,-3.525 10.865,-6.267 15.396,-7.788 3.775,-1.267 6.667,-1.588 6.667,-0.741 0,0.268 -0.997,19.81 -2.215,43.426999 l -2.215,42.941 4.499,5.233 c 2.474,2.878 4.655,5.233 4.846,5.233 0.191,0 2.256,-2.352 4.59,-5.227 l 4.243,-5.227 -1.971,-42.701 c -1.085,-23.485999 -1.972,-43.030999 -1.972,-43.432999 0,-2.852 12.55,2.044 22.757,8.878 l 3.954,2.647 8.584,-8.456 c 4.722,-4.651 14.045,-13.86 20.719,-20.465 11.356,-11.239 12.134,-11.911 12.134,-10.477 0,0.843 -0.544,9.004 -1.209,18.137 -2.05,28.15 -2.923,53.153999 -1.855,53.116999 0.202,0 4.339,-6.724 9.193,-14.925 4.853,-8.201999 8.943,-14.924999 9.088,-14.940999 0.145,-0.01 1.097,1.422 2.116,3.194 l 1.853,3.221 -1.268,18.119999 -1.268,18.119 5.416,11.855 c 2.979,6.52 5.321,12.103 5.204,12.406 -0.116,0.302 -6.263,9.357 -13.66,20.121 l -13.449,19.57 -13.161,33.461 c -7.238,18.404 -13.297,33.462 -13.463,33.462 -0.952,0 -25.09,-85.397 -24.348,-86.139 0.111,-0.111 1.891,0.9 3.956,2.248 12.616,8.236 21.066,6.173 23.595,-5.759 0.38,-1.791 0.695,-4.632 0.699,-6.312 0,-2.762 0.115,-3.082 1.119,-3.334 1.185,-0.297 5.806,1.488 17.765,6.864 3.775,1.697 7.395,3.248 8.044,3.446 l 1.18,0.361 -0.313,-3.7 c -0.445,-5.26 -2.357,-12.921 -5.708,-22.863 -4.301,-12.765 -5.19,-14.634 -12.278,-25.816 -6.935,-10.942 -7.669,-11.965 -7.173,-10.001 1.541,6.096 3.445,21.882 4.023,33.353 l 0.334,6.632 -13.473,1.568 c -14.804,1.722 -16.055,2.061 -21.232,5.755 -3.357,2.395 -11.501,10.778 -11.501,11.837 0,0.372 0.665,3.666 1.478,7.321 11.075,49.782 15.142,84.69 11.291,96.918 -2.138,6.789 -7.656,10.054 -20.02,11.847 l -2.102,0.305 2.535,-3.563 c 7.487,-10.524 13.307,-20.446 13.987,-23.842 0.349,-1.748 0.861,-1.615 -10.7,-2.797 -7.063,-0.722 -8.318,-0.722 -15.199,0 -11.867,1.242 -11.331,1.103 -10.983,2.844 0.68,3.399 7.468,14.898 14.477,24.524 1.129,1.55 1.764,2.796 1.413,2.768 -0.352,-0.03 -2.333,-0.335 -4.402,-0.683 z"
       id="path861"
       inkscape:connector-curvature="0" />
  </g>
</svg>
