<?xml version="1.0" encoding="UTF-8" standalone="no"?>
<!-- Created with Inkscape (http://www.inkscape.org/) -->

<svg
   xmlns:dc="http://purl.org/dc/elements/1.1/"
   xmlns:cc="http://creativecommons.org/ns#"
   xmlns:rdf="http://www.w3.org/1999/02/22-rdf-syntax-ns#"
   xmlns:svg="http://www.w3.org/2000/svg"
   xmlns="http://www.w3.org/2000/svg"
   xmlns:sodipodi="http://sodipodi.sourceforge.net/DTD/sodipodi-0.dtd"
   xmlns:inkscape="http://www.inkscape.org/namespaces/inkscape"
   width="256mm"
   height="256mm"
   viewBox="0 0 256.00001 256.00002"
   version="1.1"
   id="svg952"
   inkscape:version="0.92.5 (2060ec1f9f, 2020-04-08)"
   sodipodi:docname="taneth.svg">
  <defs
     id="defs946" />
  <sodipodi:namedview
     id="base"
     pagecolor="#ffffff"
     bordercolor="#666666"
     borderopacity="1.0"
     inkscape:pageopacity="0.0"
     inkscape:pageshadow="2"
     inkscape:zoom="0.86124998"
     inkscape:cx="-8.38392"
     inkscape:cy="832.78415"
     inkscape:document-units="mm"
     inkscape:current-layer="layer1"
     showgrid="false"
     units="mm"
     inkscape:window-width="3840"
     inkscape:window-height="2056"
     inkscape:window-x="0"
     inkscape:window-y="50"
     inkscape:window-maximized="1"
     showguides="true"
     inkscape:guide-bbox="true" />
  <metadata
     id="metadata949">
    <rdf:RDF>
      <cc:Work
         rdf:about="">
        <dc:format>image/svg+xml</dc:format>
        <dc:type
           rdf:resource="http://purl.org/dc/dcmitype/StillImage" />
        <dc:title />
      </cc:Work>
    </rdf:RDF>
  </metadata>
  <g
     inkscape:label="Layer 1"
     inkscape:groupmode="layer"
     id="layer1"
     transform="translate(0,-40.999976)">
    <rect
       style="fill:#080808;fill-opacity:1;stroke:none;stroke-width:0.83444387;stroke-opacity:1"
       id="rect816"
       width="256"
       height="256"
       x="0"
       y="40.999977" />
    <g
       id="g5442"
       transform="matrix(0.57160628,0,0,0.57160628,554.09102,119.07589)">
      <g
         id="g5140"
         transform="matrix(1.1435961,0,0,1.1435961,107.04047,-94.921918)">
        <path
           id="path4884"
           d="m -758.79096,288.90038 c 7.39541,-3.61823 10.328,-7.60039 11.40689,-15.48938 0.96437,-7.05167 1.18865,-6.74684 -8.27221,-11.24315 -6.45926,-3.06978 -7.84473,-5.33011 -4.79967,-7.83042 5.70605,-4.68525 29.73784,-3.36091 31.69785,1.7468 0.87129,2.27053 -0.99346,3.86478 -8.64653,7.39231 l -6.99863,3.22588 0.67343,5.55981 c 1.22136,10.0834 6.65139,15.87323 17.47843,18.63658 17.94542,4.58014 34.43398,-1.56137 38.86483,-14.476 3.34922,-9.76202 0.0333,-17.15238 -10.33377,-23.03166 -7.45667,-4.22874 -13.2942,-9.31403 -18.31207,-15.95233 -5.66886,-7.49953 -8.18793,-14.64737 -8.18793,-23.23319 0,-8.59327 -1.12099,-10.59183 -7.60634,-13.56091 -7.88883,-3.61163 -16.24593,-4.11939 -23.8114,-1.44672 -9.0764,3.20643 -10.20754,4.71057 -10.84304,14.41853 -0.6843,10.45338 -2.87463,16.73382 -8.29078,23.77251 -5.56892,7.23722 -9.73668,10.84505 -18.31735,15.85643 -8.5743,5.00766 -11.4168,9.09971 -11.4168,16.43556 0,6.39981 2.85483,12.31056 8.00669,16.57734 5.68129,4.70526 11.18655,6.10625 22.4501,5.71313 8.08119,-0.28205 10.58959,-0.78693 15.2583,-3.07112 z"
           style="fill:#ffffff;fill-opacity:1;stroke:none;stroke-opacity:1"
           inkscape:connector-curvature="0" />
        <g
           id="g5111">
          <g
             id="g5099">
            <path
               id="path4878"
               d="m -779.89598,235.3384 c 6.26204,-6.76375 7.61528,-10.16217 8.37859,-21.04138 0.62037,-8.84199 -1.15495,-16.99663 -5.59501,-25.69966 -6.59299,-12.92302 -19.16653,-24.43344 -30.30271,-27.74053 -10.21711,-3.03416 -23.49127,-1.63386 -36.55507,3.85621 -3.16259,1.32908 -8.67516,2.97574 -12.25016,3.65924 -3.575,0.6835 -6.62274,1.33705 -6.77275,1.45232 -0.71058,0.54604 6.33065,14.56766 10.35628,20.62308 7.31826,11.00824 14.8324,17.03874 31.28514,25.10802 16.57609,8.12978 22.80748,13.43656 27.58158,23.48904 l 2.9205,6.14948 2.68353,-1.91084 c 1.47595,-1.05097 5.19748,-4.62621 8.27008,-7.94498 z"
               style="fill:#ffffff;fill-opacity:1;stroke:none;stroke-opacity:1"
               inkscape:connector-curvature="0" />
            <path
               id="path4876"
               d="m -792.53317,223.2906 c -1.42039,-1.11728 -5.02939,-7.07978 -8.01998,-13.25 -9.30126,-19.19043 -16.53498,-24.06015 -39.08733,-26.31348 -4.70785,-0.47039 -6.49961,-1.171 -8.75,-3.42138 -4.09128,-4.09129 -3.64142,-4.9856 2.16213,-4.29825 2.7456,0.32517 7.58967,0.04 10.76461,-0.63381 10.26616,-2.17863 25.22411,1.53853 32.71125,8.12897 5.66711,4.98838 9.08355,11.50157 11.04631,21.05894 2.04118,9.93917 4.26505,14.5949 7.85924,16.45353 2.85849,1.47819 2.91427,1.62339 1.12591,2.93107 -2.69742,1.97241 -6.82148,1.69686 -9.81214,-0.65559 z"
               style="fill:#000000;fill-opacity:1;stroke:none;stroke-opacity:1"
               inkscape:connector-curvature="0" />
          </g>
          <g
             id="g5103">
            <path
               id="path4874"
               d="m -697.34713,239.80578 c 4.58739,-10.59688 12.92383,-17.7958 28.19577,-24.3484 13.25183,-5.68585 23.22167,-13.84319 31.16367,-25.49815 3.76434,-5.5242 9.76735,-17.50994 9.76735,-19.5017 0,-0.49963 -2.11956,-1.22626 -4.71013,-1.61474 -2.59057,-0.38848 -7.65307,-1.8292 -11.25,-3.2016 -17.84471,-6.80862 -29.59828,-8.08362 -40.3664,-4.37884 -18.9879,6.53279 -34.97855,29.37753 -35.04032,50.05968 -0.0371,12.41884 2.09815,17.57001 10.95383,26.42569 4.16587,4.16587 7.87552,7.56663 8.24367,7.55724 0.36814,-0.009 1.73729,-2.48401 3.04256,-5.49918 z"
               style="fill:#ffffff;fill-opacity:1;stroke:none;stroke-opacity:1"
               inkscape:connector-curvature="0" />
            <path
               id="path4872"
               d="m -707.70258,223.95868 c -1.77853,-1.3005 -1.73888,-1.44566 0.85999,-3.1485 3.66425,-2.40092 5.26669,-5.79279 7.6719,-16.23917 3.71452,-16.13297 9.82836,-23.31349 23.3903,-27.47123 5.13136,-1.57314 9.10893,-2.09245 14.56005,-1.90093 4.125,0.14492 10.74461,0.30526 14.71026,0.35632 l 7.21025,0.0928 -1.62553,2.7518 c -2.24378,3.79842 -5.36205,4.98175 -15.69403,5.95562 -10.76906,1.01507 -19.47556,4.87164 -25.1315,11.13209 -2.06017,2.28037 -5.8761,8.68851 -8.47985,14.24032 -2.60374,5.5518 -5.97793,11.33169 -7.4982,12.84419 -3.03585,3.02033 -6.98799,3.56981 -9.97364,1.38665 z"
               style="fill:#1a1a1a;fill-opacity:1;stroke:none;stroke-opacity:1"
               inkscape:connector-curvature="0" />
          </g>
        </g>
        <g
           id="g5068"
           style="fill:#ffffff">
          <g
             id="g5033"
             style="fill:#ffffff">
            <path
               id="path4882"
               d="m -796.81676,248.29149 c 1.27406,-1.23605 -1.89683,-9.05679 -5.52112,-13.61737 -3.78783,-4.76636 -11.83134,-10.85008 -16.29141,-12.32204 -3.33252,-1.09983 -3.53064,-1.00704 -7.83703,3.6708 -12.21066,13.26389 -15.75402,17.36239 -15.75402,18.22225 0,1.09757 11.69966,3.84135 21.60878,5.06764 7.71588,0.95487 22.40787,0.32429 23.7948,-1.02128 z"
               style="fill:#ffffff;fill-opacity:1;stroke:none;stroke-opacity:1"
               inkscape:connector-curvature="0" />
            <path
               id="path4870"
               d="m -844.77458,227.67152 c 5.80483,-6.40779 10.55424,-11.93576 10.55424,-12.2844 0,-0.34863 -1.2906,-1.39625 -2.86801,-2.32805 -1.5774,-0.93179 -5.10702,-3.70724 -7.8436,-6.16766 l -4.9756,-4.47349 -15.9064,7.57637 c -8.74851,4.16701 -16.26373,7.90027 -16.70049,8.29615 -1.83785,1.66586 22.5139,20.99488 26.48986,21.02612 0.38267,0.003 5.44517,-5.23726 11.25,-11.64504 z"
               style="fill:#ffffff;fill-opacity:1;stroke:none;stroke-opacity:1"
               inkscape:connector-curvature="0" />
            <path
               id="path4866"
               d="m -873.7319,200.16557 c 8.25636,-3.93605 15.19091,-7.3029 15.41013,-7.4819 0.72654,-0.59324 -4.37514,-9.36164 -5.44685,-9.36164 -0.57845,0 -1.47922,0.4137 -2.00172,0.91932 -1.75932,1.70252 -17.89971,7.86509 -23.7,9.04891 -3.43781,0.70165 -5.75,1.69461 -5.75,2.46932 0,2.40071 4.25642,11.56245 5.37176,11.56245 0.60782,0 7.86032,-3.22041 16.11668,-7.15646 z"
               style="fill:#ffffff;fill-opacity:1;stroke:none;stroke-opacity:1"
               inkscape:connector-curvature="0" />
          </g>
          <g
             id="g5038"
             style="fill:#ffffff">
            <path
               id="path4880"
               d="m -660.37988,247.67103 c 4.03726,-0.80701 8.45512,-1.89108 9.81746,-2.40904 l 2.47699,-0.94175 -2.02897,-2.74911 c -1.11594,-1.512 -5.83137,-6.7991 -10.47874,-11.7491 l -8.44976,-9 -6.53743,3.33253 c -3.59559,1.83289 -8.40083,5.35408 -10.67832,7.82485 -4.5635,4.95082 -9.68746,15.02445 -8.32478,16.36639 2.2272,2.19332 21.78555,1.80747 34.20355,-0.67477 z"
               style="fill:#ffffff;fill-opacity:1;stroke:none;stroke-opacity:1"
               inkscape:connector-curvature="0" />
            <path
               id="path4868"
               d="m -629.07632,236.16458 c 9.90168,-5.27753 23.20321,-17.3647 20.35598,-18.49758 -0.55,-0.21883 -7.94611,-3.7078 -16.43579,-7.75326 l -15.4358,-7.35539 -5.84121,4.86111 c -3.21267,2.67361 -6.76396,5.35495 -7.89176,5.95853 -1.21706,0.65135 -1.81966,1.69913 -1.48251,2.57772 0.52839,1.37697 19.65136,23.17413 20.44709,23.30645 0.19801,0.0329 3.02581,-1.36098 6.284,-3.09758 z"
               style="fill:#ffffff;fill-opacity:1;stroke:none;stroke-opacity:1"
               inkscape:connector-curvature="0" />
            <path
               id="path4864"
               d="m -598.27109,203.07203 c 3.68967,-8.53722 3.8449,-8.14644 -3.96385,-9.97905 -3.85924,-0.90571 -10.72224,-3.27837 -15.2511,-5.27258 -4.52887,-1.9942 -8.74296,-3.84963 -9.36467,-4.12318 -0.6217,-0.27354 -2.28382,1.56641 -3.6936,4.08878 l -2.56324,4.58613 15.1936,7.38531 c 8.35649,4.06193 15.78141,7.42565 16.49984,7.47495 0.71843,0.0493 2.13279,-1.82286 3.14302,-4.16036 z"
               style="fill:#ffffff;fill-opacity:1;stroke:none;stroke-opacity:1"
               inkscape:connector-curvature="0" />
          </g>
        </g>
        <g
           id="g5058">
          <path
             style="fill:#ffffff;fill-opacity:1;stroke:none;stroke-opacity:1"
             d="m -750.66941,192.53505 c 6.2181,-1.06812 15.95895,0.73054 22.59231,4.17169 l 4.64324,2.40875 2.56663,-6.95189 c 3.21873,-8.71811 10.33871,-19.52009 16.35985,-24.82011 12.60151,-11.09229 26.54835,-15.02146 53.31968,-15.02146 8.43552,0 12.11282,-0.3864 13.52623,-1.42128 1.88686,-1.38155 1.83152,-1.62619 -1.97935,-8.75 -23.30482,-43.564667 -58.51644,-68.377637 -100.07952,-70.524147 -39.00442,-2.01438 -75.68367,16.14658 -98.92235,48.979317 -5.91367,8.35511 -15.57765,26.21105 -15.57765,28.78249 0,2.48886 1.37464,2.71278 20.5,3.3393 25.17123,0.82458 35.46035,4.10821 47.34207,15.10859 8.61268,7.97382 13.73295,16.19983 18.42795,29.60555 0.49602,1.41628 1.30003,1.26428 6.39864,-1.20968 3.20724,-1.55622 8.10426,-3.21993 10.88227,-3.69712 z"
             id="path4862"
             inkscape:connector-curvature="0" />
          <g
             id="g5028"
             style="fill:#000000">
            <path
               id="path4860"
               d="m -746.60796,183.20625 c -2.20482,-7.60661 -4.80723,-28.53632 -5.27006,-42.38422 -0.61776,-18.48341 0.32752,-23.31103 4.8774,-24.90937 6.33454,-2.22527 9.44183,6.82991 8.4384,24.59096 -0.76537,13.54749 -4.49381,39.57292 -6.11763,42.70263 l -1.23703,2.38422 z"
               style="fill:#000000;fill-opacity:1;stroke:none;stroke-opacity:1"
               inkscape:connector-curvature="0" />
            <path
               id="path4858"
               d="m -764.92737,165.6608 c -5.7637,-4.9343 -16.11282,-21.13134 -17.69554,-27.69466 -1.71056,-7.09345 5.93959,-10.35991 10.78283,-4.60405 2.79403,3.32052 6.65708,14.62765 8.59334,25.15267 1.51157,8.21649 1.18613,9.60027 -1.68063,7.14604 z"
               style="fill:#000000;fill-opacity:1;stroke:none;stroke-opacity:1"
               inkscape:connector-curvature="0" />
            <path
               id="path4856"
               d="m -728.17933,163.70025 c -0.0485,-4.87054 4.07916,-21.77614 6.42384,-26.31024 2.343,-4.53086 5.17166,-7.06798 7.88016,-7.06798 2.95556,0 5.66168,2.92024 5.63303,6.07874 -0.0458,5.04493 -7.5282,17.78146 -15.81566,26.92126 l -4.08035,4.5 -0.041,-4.12178 z"
               style="fill:#000000;fill-opacity:1;stroke:none;stroke-opacity:1"
               inkscape:connector-curvature="0" />
          </g>
        </g>
        <g
           id="g5015"
           style="fill:#ffffff">
          <path
             style="fill:#ffffff;fill-opacity:1;stroke:none;stroke-opacity:1"
             d="m -853.72717,135.33719 c 1.46444,-3.24757 1.67512,-5.42156 1.13865,-11.75 -1.84765,-21.79555 -10.81779,-35.265157 -23.48499,-35.265157 -4.24069,0 -5.14683,1.04919 -5.14683,5.95934 0,3.92813 2.20383,5.42359 6.88866,4.67445 4.64049,-0.74204 6.67085,1.0008 5.69508,4.888587 -1.16052,4.62387 -7.42771,5.69975 -14.17505,2.43342 -4.92494,-2.38412 -7.40869,-6.711037 -7.40869,-12.906587 0,-11.8117 10.06431,-16.99026 23.35536,-12.01744 9.60589,3.59402 16.99286,13.42736 21.68056,28.860557 l 2.23003,7.34189 2.61702,-3.36491 c 8.32025,-10.69796 18.79112,-20.661797 30.04413,-28.589287 1.46673,-1.03328 -6.82346,-7.20258 -14.53144,-10.81384 -10.90703,-5.11004 -39.82168,-21.1416 -61.89566,-34.3177 -19.1399,-11.42472 -25.21811,-14.09284 -32.17742,-14.12474 -4.38456,-0.0201 -5.48704,0.36988 -7.19928,2.54664 -2.82389,3.59 -3.55648,10.10151 -2.33821,20.78305 1.27459,11.17538 2.74665,15.59629 8.19672,24.61646 2.32192,3.84291 5.4658,10.7137 6.9864,15.26842 7.17485,21.491087 22.78467,45.001157 32.11995,48.376067 1.87651,0.67841 8.406,1.2677 14.50997,1.30954 l 11.09812,0.0761 z"
             id="path4854"
             inkscape:connector-curvature="0" />
          <path
             style="fill:#ffffff;fill-opacity:1;stroke:none;stroke-opacity:1"
             d="m -610.03262,138.14764 c 8.99615,-2.69531 25.69275,-26.99855 31.88553,-46.411947 2.4761,-7.76219 4.63501,-12.39217 9.51868,-20.41366 4.48398,-7.36501 6.53875,-16.06226 6.73912,-28.52476 0.14609,-9.08654 -0.087,-10.67256 -1.93309,-13.1538 -1.69996,-2.28483 -2.99652,-2.87994 -6.81715,-3.12903 -6.32089,-0.4121 -12.43388,1.76853 -23.68775,8.44991 -24.48075,14.53411 -52.6779,30.34421 -66.04872,37.0334 -8.10742,4.056 -16.17447,8.80825 -17.92676,10.56055 l -3.186,3.186 3.36541,2.53886 c 8.63849,6.51688 17.76297,15.208007 23.31758,22.210177 3.34699,4.21922 6.35614,7.70672 6.68701,7.75 0.33087,0.0433 1.39612,-2.85658 2.36722,-6.44413 5.45306,-20.145237 15.71794,-31.153197 30.00179,-32.173637 4.88261,-0.34882 6.65901,-0.0341 9.33959,1.65475 8.19724,5.16449 8.10814,19.117777 -0.15667,24.533077 -5.74165,3.76207 -14.06892,2.68601 -15.23725,-1.96899 -0.97577,-3.887787 1.05459,-5.630627 5.69508,-4.888587 4.80892,0.76898 6.88866,-0.75754 6.88866,-5.05623 0,-4.06037 -1.55924,-5.57756 -5.73212,-5.57756 -7.53718,0 -13.81924,5.13101 -18.56551,15.163797 -2.77393,5.86361 -6.70237,20.10794 -6.70237,24.30247 0,2.50671 2.10125,7.59418 4.24743,10.28373 1.30598,1.63663 20.54294,1.6927 25.94029,0.0756 z"
             id="path4852"
             inkscape:connector-curvature="0" />
        </g>
      </g>
      <g
         id="g5216" />
    </g>
  </g>
</svg>
