<?xml version="1.0" encoding="UTF-8" standalone="no"?>
<!-- Created with Inkscape (http://www.inkscape.org/) -->

<svg
   xmlns:dc="http://purl.org/dc/elements/1.1/"
   xmlns:cc="http://creativecommons.org/ns#"
   xmlns:rdf="http://www.w3.org/1999/02/22-rdf-syntax-ns#"
   xmlns:svg="http://www.w3.org/2000/svg"
   xmlns="http://www.w3.org/2000/svg"
   xmlns:sodipodi="http://sodipodi.sourceforge.net/DTD/sodipodi-0.dtd"
   xmlns:inkscape="http://www.inkscape.org/namespaces/inkscape"
   width="256mm"
   height="256mm"
   viewBox="0 0 256.00001 256.00002"
   version="1.1"
   id="svg952"
   inkscape:version="0.92.5 (2060ec1f9f, 2020-04-08)"
   sodipodi:docname="taneth.svg">
  <defs
     id="defs946" />
  <sodipodi:namedview
     id="base"
     pagecolor="#ffffff"
     bordercolor="#666666"
     borderopacity="1.0"
     inkscape:pageopacity="0.0"
     inkscape:pageshadow="2"
     inkscape:zoom="2.4359828"
     inkscape:cx="261.19521"
     inkscape:cy="413.96269"
     inkscape:document-units="mm"
     inkscape:current-layer="g5140"
     showgrid="false"
     units="mm"
     inkscape:window-width="3840"
     inkscape:window-height="2056"
     inkscape:window-x="0"
     inkscape:window-y="50"
     inkscape:window-maximized="1"
     showguides="true"
     inkscape:guide-bbox="true" />
  <metadata
     id="metadata949">
    <rdf:RDF>
      <cc:Work
         rdf:about="">
        <dc:format>image/svg+xml</dc:format>
        <dc:type
           rdf:resource="http://purl.org/dc/dcmitype/StillImage" />
        <dc:title />
      </cc:Work>
    </rdf:RDF>
  </metadata>
  <g
     inkscape:label="Layer 1"
     inkscape:groupmode="layer"
     id="layer1"
     transform="translate(0,-40.999976)">
    <rect
       style="fill:#080808;fill-opacity:1;stroke:none;stroke-width:0.83444387;stroke-opacity:1"
       id="rect816"
       width="256"
       height="256"
       x="0"
       y="40.999977" />
    <g
       id="g5442"
       transform="matrix(0.57160628,0,0,0.57160628,554.09102,119.07589)">
      <g
         id="g5140"
         transform="matrix(1.1435961,0,0,1.1435961,107.04047,-94.921918)">
        <path
           id="path4884"
           d="m -758.79096,288.90038 c 7.39541,-3.61823 10.328,-7.60039 11.40689,-15.48938 0.96437,-7.05167 1.18865,-6.74684 -8.27221,-11.24315 -6.45926,-3.06978 -7.84473,-5.33011 -4.79967,-7.83042 5.70605,-4.68525 29.73784,-3.36091 31.69785,1.7468 0.87129,2.27053 -0.99346,3.86478 -8.64653,7.39231 l -6.99863,3.22588 0.67343,5.55981 c 1.22136,10.0834 6.65139,15.87323 17.47843,18.63658 17.94542,4.58014 34.43398,-1.56137 38.86483,-14.476 3.34922,-9.76202 0.0333,-17.15238 -10.33377,-23.03166 -7.45667,-4.22874 -13.2942,-9.31403 -18.31207,-15.95233 -5.66886,-7.49953 -8.18793,-14.64737 -8.18793,-23.23319 0,-8.59327 -1.12099,-10.59183 -7.60634,-13.56091 -7.88883,-3.61163 -16.24593,-4.11939 -23.8114,-1.44672 -9.0764,3.20643 -10.20754,4.71057 -10.84304,14.41853 -0.6843,10.45338 -2.87463,16.73382 -8.29078,23.77251 -5.56892,7.23722 -9.73668,10.84505 -18.31735,15.85643 -8.5743,5.00766 -11.4168,9.09971 -11.4168,16.43556 0,6.39981 2.85483,12.31056 8.00669,16.57734 5.68129,4.70526 11.18655,6.10625 22.4501,5.71313 8.08119,-0.28205 10.58959,-0.78693 15.2583,-3.07112 z"
           style="fill:#ffffff;fill-opacity:1;stroke:none;stroke-opacity:1"
           inkscape:connector-curvature="0" />
        <g
           id="g5068"
           style="fill:#ffffff">
          <g
             id="g5033"
             style="fill:#ffffff">
            <path
               id="path4882"
               d="m -796.81676,248.29149 c 1.27406,-1.23605 -1.89683,-9.05679 -5.52112,-13.61737 -3.78783,-4.76636 -11.83134,-10.85008 -16.29141,-12.32204 -3.33252,-1.09983 -3.53064,-1.00704 -7.83703,3.6708 -12.21066,13.26389 -15.75402,17.36239 -15.75402,18.22225 0,1.09757 11.69966,3.84135 21.60878,5.06764 7.71588,0.95487 22.40787,0.32429 23.7948,-1.02128 z"
               style="fill:#ffffff;fill-opacity:1;stroke:none;stroke-opacity:1"
               inkscape:connector-curvature="0" />
            <path
               id="path4870"
               d="m -844.77458,227.67152 c 5.80483,-6.40779 10.55424,-11.93576 10.55424,-12.2844 0,-0.34863 -1.2906,-1.39625 -2.86801,-2.32805 -1.5774,-0.93179 -5.10702,-3.70724 -7.8436,-6.16766 l -4.9756,-4.47349 -15.9064,7.57637 c -8.74851,4.16701 -16.26373,7.90027 -16.70049,8.29615 -1.83785,1.66586 22.5139,20.99488 26.48986,21.02612 0.38267,0.003 5.44517,-5.23726 11.25,-11.64504 z"
               style="fill:#ffffff;fill-opacity:1;stroke:none;stroke-opacity:1"
               inkscape:connector-curvature="0" />
            <path
               id="path4866"
               d="m -873.7319,200.16557 c 8.25636,-3.93605 15.19091,-7.3029 15.41013,-7.4819 0.72654,-0.59324 -4.37514,-9.36164 -5.44685,-9.36164 -0.57845,0 -1.47922,0.4137 -2.00172,0.91932 -1.75932,1.70252 -17.89971,7.86509 -23.7,9.04891 -3.43781,0.70165 -5.75,1.69461 -5.75,2.46932 0,2.40071 4.25642,11.56245 5.37176,11.56245 0.60782,0 7.86032,-3.22041 16.11668,-7.15646 z"
               style="fill:#ffffff;fill-opacity:1;stroke:none;stroke-opacity:1"
               inkscape:connector-curvature="0" />
          </g>
          <g
             id="g5038"
             style="fill:#ffffff">
            <path
               id="path4880"
               d="m -660.37988,247.67103 c 4.03726,-0.80701 8.45512,-1.89108 9.81746,-2.40904 l 2.47699,-0.94175 -2.02897,-2.74911 c -1.11594,-1.512 -5.83137,-6.7991 -10.47874,-11.7491 l -8.44976,-9 -6.53743,3.33253 c -3.59559,1.83289 -8.40083,5.35408 -10.67832,7.82485 -4.5635,4.95082 -9.68746,15.02445 -8.32478,16.36639 2.2272,2.19332 21.78555,1.80747 34.20355,-0.67477 z"
               style="fill:#ffffff;fill-opacity:1;stroke:none;stroke-opacity:1"
               inkscape:connector-curvature="0" />
            <path
               id="path4868"
               d="m -629.07632,236.16458 c 9.90168,-5.27753 23.20321,-17.3647 20.35598,-18.49758 -0.55,-0.21883 -7.94611,-3.7078 -16.43579,-7.75326 l -15.4358,-7.35539 -5.84121,4.86111 c -3.21267,2.67361 -6.76396,5.35495 -7.89176,5.95853 -1.21706,0.65135 -1.81966,1.69913 -1.48251,2.57772 0.52839,1.37697 19.65136,23.17413 20.44709,23.30645 0.19801,0.0329 3.02581,-1.36098 6.284,-3.09758 z"
               style="fill:#ffffff;fill-opacity:1;stroke:none;stroke-opacity:1"
               inkscape:connector-curvature="0" />
            <path
               id="path4864"
               d="m -598.27109,203.07203 c 3.68967,-8.53722 3.8449,-8.14644 -3.96385,-9.97905 -3.85924,-0.90571 -10.72224,-3.27837 -15.2511,-5.27258 -4.52887,-1.9942 -8.74296,-3.84963 -9.36467,-4.12318 -0.6217,-0.27354 -2.28382,1.56641 -3.6936,4.08878 l -2.56324,4.58613 15.1936,7.38531 c 8.35649,4.06193 15.78141,7.42565 16.49984,7.47495 0.71843,0.0493 2.13279,-1.82286 3.14302,-4.16036 z"
               style="fill:#ffffff;fill-opacity:1;stroke:none;stroke-opacity:1"
               inkscape:connector-curvature="0" />
          </g>
        </g>
        <g
           id="g5058">
          <path
             style="fill:#ffffff;fill-opacity:1;stroke:none;stroke-opacity:1"
             d="m -750.66941,192.53505 c 6.2181,-1.06812 15.95895,0.73054 22.59231,4.17169 l 4.64324,2.40875 2.56663,-6.95189 c 3.21873,-8.71811 10.33871,-19.52009 16.35985,-24.82011 12.60151,-11.09229 26.54835,-15.02146 53.31968,-15.02146 8.43552,0 12.11282,-0.3864 13.52623,-1.42128 1.88686,-1.38155 1.83152,-1.62619 -1.97935,-8.75 -23.30482,-43.564667 -58.51644,-68.377637 -100.07952,-70.524147 -39.00442,-2.01438 -75.68367,16.14658 -98.92235,48.979317 -5.91367,8.35511 -15.57765,26.21105 -15.57765,28.78249 0,2.48886 1.37464,2.71278 20.5,3.3393 25.17123,0.82458 35.46035,4.10821 47.34207,15.10859 8.61268,7.97382 13.73295,16.19983 18.42795,29.60555 0.49602,1.41628 1.30003,1.26428 6.39864,-1.20968 3.20724,-1.55622 8.10426,-3.21993 10.88227,-3.69712 z"
             id="path4862"
             inkscape:connector-curvature="0" />
        </g>
        <g
           id="g5015"
           style="fill:#ffffff">
          <path
             style="fill:#ffffff;fill-opacity:1;stroke:none;stroke-opacity:1"
             d="m -853.72717,135.33719 c 1.46444,-3.24757 1.67512,-5.42156 1.13865,-11.75 -1.84765,-21.79555 -10.81779,-35.265157 -23.48499,-35.265157 -4.24069,0 -5.14683,1.04919 -5.14683,5.95934 0,3.92813 2.20383,5.42359 6.88866,4.67445 4.64049,-0.74204 6.67085,1.0008 5.69508,4.888587 -1.16052,4.62387 -7.42771,5.69975 -14.17505,2.43342 -4.92494,-2.38412 -7.40869,-6.711037 -7.40869,-12.906587 0,-11.8117 10.06431,-16.99026 23.35536,-12.01744 9.60589,3.59402 16.99286,13.42736 21.68056,28.860557 l 2.23003,7.34189 2.61702,-3.36491 c 8.32025,-10.69796 18.79112,-20.661797 30.04413,-28.589287 1.46673,-1.03328 -6.82346,-7.20258 -14.53144,-10.81384 -10.90703,-5.11004 -39.82168,-21.1416 -61.89566,-34.3177 -19.1399,-11.42472 -25.21811,-14.09284 -32.17742,-14.12474 -4.38456,-0.0201 -5.48704,0.36988 -7.19928,2.54664 -2.82389,3.59 -3.55648,10.10151 -2.33821,20.78305 1.27459,11.17538 2.74665,15.59629 8.19672,24.61646 2.32192,3.84291 5.4658,10.7137 6.9864,15.26842 7.17485,21.491087 22.78467,45.001157 32.11995,48.376067 1.87651,0.67841 8.406,1.2677 14.50997,1.30954 l 11.09812,0.0761 z"
             id="path4854"
             inkscape:connector-curvature="0" />
          <path
             style="fill:#ffffff;fill-opacity:1;stroke:none;stroke-opacity:1"
             d="m -610.03262,138.14764 c 8.99615,-2.69531 25.69275,-26.99855 31.88553,-46.411947 2.4761,-7.76219 4.63501,-12.39217 9.51868,-20.41366 4.48398,-7.36501 6.53875,-16.06226 6.73912,-28.52476 0.14609,-9.08654 -0.087,-10.67256 -1.93309,-13.1538 -1.69996,-2.28483 -2.99652,-2.87994 -6.81715,-3.12903 -6.32089,-0.4121 -12.43388,1.76853 -23.68775,8.44991 -24.48075,14.53411 -52.6779,30.34421 -66.04872,37.0334 -8.10742,4.056 -16.17447,8.80825 -17.92676,10.56055 l -3.186,3.186 3.36541,2.53886 c 8.63849,6.51688 17.76297,15.208007 23.31758,22.210177 3.34699,4.21922 6.35614,7.70672 6.68701,7.75 0.33087,0.0433 1.39612,-2.85658 2.36722,-6.44413 5.45306,-20.145237 15.71794,-31.153197 30.00179,-32.173637 4.88261,-0.34882 6.65901,-0.0341 9.33959,1.65475 8.19724,5.16449 8.10814,19.117777 -0.15667,24.533077 -5.74165,3.76207 -14.06892,2.68601 -15.23725,-1.96899 -0.97577,-3.887787 1.05459,-5.630627 5.69508,-4.888587 4.80892,0.76898 6.88866,-0.75754 6.88866,-5.05623 0,-4.06037 -1.55924,-5.57756 -5.73212,-5.57756 -7.53718,0 -13.81924,5.13101 -18.56551,15.163797 -2.77393,5.86361 -6.70237,20.10794 -6.70237,24.30247 0,2.50671 2.10125,7.59418 4.24743,10.28373 1.30598,1.63663 20.54294,1.6927 25.94029,0.0756 z"
             id="path4852"
             inkscape:connector-curvature="0" />
        </g>
        <g
           id="g5111">
          <path
             style="fill:#ffffff;fill-opacity:1;stroke:none;stroke-width:2.47062683;stroke-opacity:1"
             d="M 302.25 483.55664 C 282.90286 483.51416 261.49738 488.06352 240.31641 496.96484 C 232.50283 500.2485 218.88327 504.31719 210.05078 506.00586 C 201.21829 507.69453 193.68898 509.30896 193.31836 509.59375 C 191.56278 510.94281 208.95847 545.58424 218.9043 560.54492 C 236.98499 587.74218 255.55064 602.64194 296.19922 622.57812 C 337.15255 642.66378 352.54873 655.7754 364.34375 680.61133 L 371.55859 695.80469 L 378.1875 691.08398 C 381.83402 688.48743 391.02985 679.65257 398.62109 671.45312 C 414.09226 654.74242 417.43446 646.34722 419.32031 619.46875 C 420.85302 597.62349 416.46778 577.47655 405.49805 555.97461 C 389.20923 524.04665 358.14421 495.60809 330.63086 487.4375 C 321.95369 484.86065 312.38421 483.57889 302.25 483.55664 z M 276.625 521.76367 C 299.90662 521.61519 327.12082 530.15717 342.15039 543.38672 C 356.15171 555.71114 364.59216 571.80332 369.44141 595.41602 C 374.4844 619.972 379.97947 631.47442 388.85938 636.06641 C 395.92164 639.71846 396.059 640.0778 391.64062 643.30859 C 384.97631 648.18168 374.78724 647.49953 367.39844 641.6875 C 363.88918 638.92712 354.97262 624.19744 347.58398 608.95312 C 324.60404 561.54073 306.73212 549.50854 251.01367 543.94141 C 239.38233 542.77925 234.95636 541.04813 229.39648 535.48828 C 219.28846 525.38023 220.39987 523.17096 234.73828 524.86914 C 241.52163 525.67251 253.48989 524.96747 261.33398 523.30273 C 266.08971 522.2935 271.25232 521.79794 276.625 521.76367 z "
             transform="matrix(0.40475556,0,0,0.40475556,-941.23991,-36.436337)"
             id="path4878" />
          <path
             style="fill:#ffffff;fill-opacity:1;stroke:none;stroke-width:2.47062683;stroke-opacity:1"
             d="M 665.81445 483.4043 C 654.48799 483.30429 644.16986 485.00703 634.19336 488.43945 C 587.28134 504.57954 547.7737 561.02126 547.62109 612.11914 C 547.52943 642.80146 552.80451 655.52717 574.68359 677.40625 C 584.9759 687.69856 594.14122 696.10132 595.05078 696.07812 C 595.96032 696.05589 599.34352 689.94155 602.56836 682.49219 C 613.90209 656.31125 634.49725 638.52497 672.22852 622.33594 C 704.96884 608.28832 729.60094 588.1349 749.22266 559.33984 C 758.52294 545.69161 773.35547 516.0791 773.35547 511.1582 C 773.35547 509.9238 768.11713 508.12776 761.7168 507.16797 C 755.31646 506.20818 742.8105 502.6485 733.92383 499.25781 C 706.36906 488.74434 684.69189 483.57097 665.81445 483.4043 z M 686.93164 522.77734 C 688.51401 522.77995 690.14076 522.81195 691.82422 522.87109 C 702.01555 523.22914 718.37033 523.6258 728.16797 523.75195 L 745.98047 523.98047 L 741.96484 530.7793 C 736.4213 540.16378 728.71787 543.08807 703.19141 545.49414 C 676.58508 548.002 655.07333 557.53081 641.09961 572.99805 C 636.0097 578.63199 626.58329 594.46324 620.15039 608.17969 C 613.71752 621.89611 605.38102 636.17529 601.625 639.91211 C 594.12455 647.37422 584.3608 648.73166 576.98438 643.33789 L 576.98438 643.33984 C 572.59029 640.12679 572.68658 639.76763 579.10742 635.56055 C 588.16042 629.62877 592.12012 621.24856 598.0625 595.43945 C 607.23969 555.5809 622.34507 537.84058 655.85156 527.56836 C 666.94453 524.16755 675.85505 522.75907 686.93164 522.77734 z "
             transform="matrix(0.40475556,0,0,0.40475556,-941.23991,-36.436337)"
             id="path4874" />
        </g>
      </g>
      <g
         id="g5216" />
    </g>
  </g>
</svg>
