<?xml version="1.0" encoding="UTF-8" standalone="no"?>
<!-- Created with Inkscape (http://www.inkscape.org/) -->

<svg
   xmlns:dc="http://purl.org/dc/elements/1.1/"
   xmlns:cc="http://creativecommons.org/ns#"
   xmlns:rdf="http://www.w3.org/1999/02/22-rdf-syntax-ns#"
   xmlns:svg="http://www.w3.org/2000/svg"
   xmlns="http://www.w3.org/2000/svg"
   xmlns:sodipodi="http://sodipodi.sourceforge.net/DTD/sodipodi-0.dtd"
   xmlns:inkscape="http://www.inkscape.org/namespaces/inkscape"
   width="256mm"
   height="256mm"
   viewBox="0 0 256.00001 256.00002"
   version="1.1"
   id="svg952"
   inkscape:version="0.92.5 (2060ec1f9f, 2020-04-08)"
   sodipodi:docname="corinte.svg">
  <defs
     id="defs946" />
  <sodipodi:namedview
     id="base"
     pagecolor="#ffffff"
     bordercolor="#666666"
     borderopacity="1.0"
     inkscape:pageopacity="0.0"
     inkscape:pageshadow="2"
     inkscape:zoom="0.86124998"
     inkscape:cx="331.25859"
     inkscape:cy="795.34373"
     inkscape:document-units="mm"
     inkscape:current-layer="layer1"
     showgrid="false"
     units="mm"
     inkscape:window-width="3840"
     inkscape:window-height="2056"
     inkscape:window-x="0"
     inkscape:window-y="50"
     inkscape:window-maximized="1"
     showguides="true"
     inkscape:guide-bbox="true" />
  <metadata
     id="metadata949">
    <rdf:RDF>
      <cc:Work
         rdf:about="">
        <dc:format>image/svg+xml</dc:format>
        <dc:type
           rdf:resource="http://purl.org/dc/dcmitype/StillImage" />
        <dc:title></dc:title>
      </cc:Work>
    </rdf:RDF>
  </metadata>
  <g
     inkscape:label="Layer 1"
     inkscape:groupmode="layer"
     id="layer1"
     transform="translate(0,-40.999976)">
    <rect
       style="fill:#0b0b0b;fill-opacity:1;stroke:none;stroke-width:0.83444387;stroke-opacity:1"
       id="rect816"
       width="256"
       height="256"
       x="0"
       y="40.999977" />
    <g
       id="g4840"
       transform="matrix(10.229224,0,0,10.229224,2311.412,-1140.2473)">
      <g
         transform="translate(0.185695)"
         id="g4829">
        <path
           style="fill:#ffffff;fill-opacity:1;stroke:none;stroke-width:0.42880398;stroke-miterlimit:4;stroke-dasharray:none;stroke-opacity:1;paint-order:stroke fill markers"
           d="m -213.63415,122.03779 a 3.3750001,3.3750001 0 0 0 -3.37498,3.37499 3.3750001,3.3750001 0 0 0 3.37498,3.37499 3.3750001,3.3750001 0 0 0 3.37499,-3.37499 3.3750001,3.3750001 0 0 0 -3.37499,-3.37499 z m 0,1.37459 a 2,2 0 0 1 1.99988,2.0004 2,2 0 0 1 -1.99988,1.99988 2,2 0 0 1 -1.99987,-1.99988 2,2 0 0 1 1.99987,-2.0004 z"
           id="path4771"
           inkscape:connector-curvature="0" />
        <g
           id="g4822">
          <path
             inkscape:connector-curvature="0"
             id="rect4751"
             d="m -223.06983,119.2139 a 0.5,0.5 0 0 0 -0.68281,0.1822 0.5,0.5 0 0 0 0.18284,0.68378 l 7.04638,4.06822 0.49997,-0.86597 z"
             style="fill:#ffffff;fill-opacity:1;stroke:none;stroke-width:0.38151386;stroke-miterlimit:4;stroke-dasharray:none;stroke-opacity:1;paint-order:stroke fill markers" />
          <path
             inkscape:connector-curvature="0"
             id="rect4751-2"
             d="m -204.19845,119.21378 a 0.50000001,0.50000001 0 0 1 0.68281,0.1822 0.50000001,0.50000001 0 0 1 -0.18284,0.68378 l -7.04638,4.06822 -0.49997,-0.86597 z"
             style="fill:#ffffff;fill-opacity:1;stroke:none;stroke-width:0.38151386;stroke-miterlimit:4;stroke-dasharray:none;stroke-opacity:1;paint-order:stroke fill markers" />
          <path
             id="rect4751-28"
             d="m -214.13411,136.33483 a 0.50000001,0.50000001 0 0 0 0.4992,0.50023 0.50000001,0.50000001 0 0 0 0.50074,-0.50023 v -8.13645 h -0.99994 z"
             style="fill:#ffffff;fill-opacity:1;stroke:none;stroke-width:0.38151386;stroke-miterlimit:4;stroke-dasharray:none;stroke-opacity:1;paint-order:stroke fill markers"
             inkscape:connector-curvature="0" />
        </g>
      </g>
      <g
         id="g4811">
        <path
           style="fill:#ffffff;fill-opacity:1;stroke:none;stroke-width:0.52543914;stroke-miterlimit:4;stroke-dasharray:none;stroke-opacity:1;paint-order:stroke fill markers"
           d="m -224.67982,123.26627 a 0.5,0.5 0 0 0 -0.49972,0.50023 0.5,0.5 0 0 0 0.49972,0.50023 0.5,0.5 0 0 0 5.1e-4,0 v 5.1e-4 a 5.4999995,5.4999995 0 0 1 4.76302,2.74971 5.4999995,5.4999995 0 0 1 0,5.49992 5.4999995,5.4999995 0 0 1 -4.76302,2.75022 v 5.2e-4 a 0.5,0.5 0 0 0 -0.50023,0.49971 0.5,0.5 0 0 0 0.50023,0.50023 0.5,0.5 0 0 0 0.0465,-0.003 6.4999999,6.4999999 0 0 0 5.58261,-3.24734 6.4999999,6.4999999 0 0 0 0,-6.49987 6.4999999,6.4999999 0 0 0 -5.61155,-3.24993 0.5,0.5 0 0 0 -0.0181,-0.001 z"
           id="path4757"
           inkscape:connector-curvature="0" />
        <path
           style="fill:#ffffff;fill-opacity:1;stroke:none;stroke-width:0.52543914;stroke-miterlimit:4;stroke-dasharray:none;stroke-opacity:1;paint-order:stroke fill markers"
           d="m -202.21707,123.2667 a 0.50000001,0.50000001 0 0 1 0.49972,0.50023 0.50000001,0.50000001 0 0 1 -0.49972,0.50023 0.50000001,0.50000001 0 0 1 -5.1e-4,0 v 5.1e-4 a 5.4999996,5.4999996 0 0 0 -4.76302,2.74971 5.4999996,5.4999996 0 0 0 0,5.49992 5.4999996,5.4999996 0 0 0 4.76302,2.75022 v 5.3e-4 a 0.50000001,0.50000001 0 0 1 0.50023,0.4997 0.50000001,0.50000001 0 0 1 -0.50023,0.50023 0.50000001,0.50000001 0 0 1 -0.0465,-0.003 6.5,6.5 0 0 1 -5.58261,-3.24734 6.5,6.5 0 0 1 0,-6.49987 6.5,6.5 0 0 1 5.61155,-3.24993 0.50000001,0.50000001 0 0 1 0.0181,-0.001 z"
           id="path4757-9"
           inkscape:connector-curvature="0" />
      </g>
    </g>
  </g>
</svg>
