<?xml version="1.0" encoding="UTF-8" standalone="no"?>
<!-- Created with Inkscape (http://www.inkscape.org/) -->

<svg
   xmlns:dc="http://purl.org/dc/elements/1.1/"
   xmlns:cc="http://creativecommons.org/ns#"
   xmlns:rdf="http://www.w3.org/1999/02/22-rdf-syntax-ns#"
   xmlns:svg="http://www.w3.org/2000/svg"
   xmlns="http://www.w3.org/2000/svg"
   xmlns:sodipodi="http://sodipodi.sourceforge.net/DTD/sodipodi-0.dtd"
   xmlns:inkscape="http://www.inkscape.org/namespaces/inkscape"
   width="256"
   height="256"
   viewBox="0 0 67.733332 67.733335"
   version="1.1"
   id="svg952"
   inkscape:version="0.92.5 (2060ec1f9f, 2020-04-08)"
   sodipodi:docname="volatra.svg">
  <defs
     id="defs946" />
  <sodipodi:namedview
     id="base"
     pagecolor="#ffffff"
     bordercolor="#666666"
     borderopacity="1.0"
     inkscape:pageopacity="0.0"
     inkscape:pageshadow="2"
     inkscape:zoom="3.959798"
     inkscape:cx="130.4649"
     inkscape:cy="167.37905"
     inkscape:document-units="mm"
     inkscape:current-layer="layer1"
     showgrid="false"
     units="px"
     inkscape:window-width="3840"
     inkscape:window-height="2056"
     inkscape:window-x="0"
     inkscape:window-y="50"
     inkscape:window-maximized="1" />
  <metadata
     id="metadata949">
    <rdf:RDF>
      <cc:Work
         rdf:about="">
        <dc:format>image/svg+xml</dc:format>
        <dc:type
           rdf:resource="http://purl.org/dc/dcmitype/StillImage" />
        <dc:title></dc:title>
      </cc:Work>
    </rdf:RDF>
  </metadata>
  <g
     inkscape:label="Layer 1"
     inkscape:groupmode="layer"
     id="layer1"
     transform="translate(0,-229.26665)">
    <rect
       style="fill:#000000;fill-opacity:1;stroke:none;stroke-width:1.18937039;stroke-opacity:1"
       id="rect1763"
       width="67.73333"
       height="67.73333"
       x="0"
       y="229.26665" />
    <g
       id="g1742"
       transform="matrix(1.8776454,0,0,1.8772279,-163.28569,-15.641683)"
       style="fill:#ffffff">
      <path
         inkscape:connector-curvature="0"
         id="path1664"
         d="m 101.32335,165.02416 c -0.93075,-0.2019 -2.71178,-0.87214 -3.957841,-1.48941 -4.393319,-2.17634 -7.883684,-6.67802 -8.900916,-11.4799 -2.528823,-11.9374 8.152853,-22.61908 20.090247,-20.09025 6.27453,1.32919 11.65137,6.70603 12.98056,12.98056 2.53679,11.975 -8.23606,22.67694 -20.21205,20.079 z m 6.9945,-2.63925 c 6.45742,-1.64859 10.96965,-7.35997 10.96965,-13.88491 0,-7.78579 -6.5017,-14.2875 -14.2875,-14.2875 -7.785799,0 -14.287501,6.50171 -14.287501,14.2875 0,6.46522 4.476019,12.18769 10.847921,13.86876 1.92376,0.50753 4.80571,0.51442 6.75743,0.0161 z"
         style="fill:#ffffff;stroke-width:0.26458332" />
      <g
         id="g1720"
         style="fill:#ffffff">
        <g
           id="g1694"
           style="fill:#ffffff">
          <g
             id="g1668"
             style="fill:#ffffff">
            <path
               style="fill:#ffffff;stroke-width:0.26458332"
               d="m 98.186978,159.46271 c -0.618464,-0.37067 -1.124479,-0.76057 -1.124479,-0.86643 0,-0.10586 0.625078,-0.8084 1.389062,-1.56119 l 1.389063,-1.36872 1.512766,0.73308 1.51276,0.73308 -1.52043,1.50457 c -0.83624,0.82751 -1.636051,1.50344 -1.777352,1.50207 -0.141301,-0.001 -0.762926,-0.30579 -1.38139,-0.67646 z"
               id="path1640"
               inkscape:connector-curvature="0" />
            <path
               style="fill:#ffffff;stroke-width:0.26458332"
               d="m 93.899095,155.04926 -0.792859,-1.38824 1.634799,-1.64947 1.6348,-1.64946 0.455807,1.20078 c 0.250694,0.66043 0.603443,1.37867 0.783887,1.59609 0.273596,0.32967 0.09165,0.63473 -1.095624,1.83693 -0.783037,0.79289 -1.51466,1.44161 -1.625828,1.44161 -0.111168,0 -0.55891,-0.62471 -0.994982,-1.38824 z"
               id="path1642"
               inkscape:connector-curvature="0" />
          </g>
          <g
             id="g1672"
             style="fill:#ffffff">
            <path
               style="fill:#ffffff;stroke-width:0.26458332"
               d="m 94.823202,144.8056 c -1.471895,-1.48742 -1.529582,-1.59552 -1.230836,-2.30651 0.172391,-0.41028 0.543064,-1.04362 0.823718,-1.40742 l 0.510281,-0.66146 1.455655,1.45521 1.455655,1.45521 -0.7351,1.51276 -0.735101,1.51277 z"
               id="path1654"
               inkscape:connector-curvature="0" />
            <path
               style="fill:#ffffff;stroke-width:0.26458332"
               d="m 98.376377,139.88853 -1.44617,-1.46772 0.661459,-0.5075 c 0.363802,-0.27913 0.997139,-0.64855 1.407415,-0.82094 0.710996,-0.29875 0.819099,-0.24106 2.306519,1.23084 l 1.56055,1.54427 -1.51276,0.73846 c -0.83202,0.40615 -1.516833,0.74112 -1.521804,0.74438 -0.005,0.003 -0.659815,-0.65454 -1.455209,-1.46179 z"
               id="path1652"
               inkscape:connector-curvature="0" />
          </g>
          <g
             id="g1680"
             style="fill:#ffffff">
            <path
               style="fill:#ffffff;stroke-width:0.26458332"
               d="m 108.42347,158.67021 c -0.98161,-0.99041 -1.51654,-1.70354 -1.27786,-1.70354 0.2258,0 0.99615,-0.29648 1.7119,-0.65883 l 1.30136,-0.65884 1.45546,1.4659 c 1.62981,1.64151 1.63112,1.63496 -0.55267,2.76665 l -0.94979,0.4922 z"
               id="path1644"
               inkscape:connector-curvature="0" />
            <path
               style="fill:#ffffff;stroke-width:0.26458332"
               d="m 113.48009,154.99589 c -1.18727,-1.2022 -1.36922,-1.50726 -1.09562,-1.83693 0.18044,-0.21742 0.53319,-0.93566 0.78389,-1.59609 l 0.4558,-1.20078 1.6348,1.64946 1.6348,1.64947 -0.79286,1.38824 c -0.43607,0.76353 -0.88381,1.38824 -0.99498,1.38824 -0.11117,0 -0.84279,-0.64872 -1.62583,-1.44161 z"
               id="path1646"
               inkscape:connector-curvature="0" />
          </g>
          <g
             id="g1676"
             style="fill:#ffffff">
            <path
               style="fill:#ffffff;stroke-width:0.26458332"
               d="m 109.3707,140.94329 c -0.28824,-0.21788 -0.97875,-0.53236 -1.53445,-0.69885 l -1.01038,-0.30272 1.643,-1.65773 1.643,-1.65773 0.94979,0.4922 c 2.18386,1.13172 2.18128,1.11906 0.56196,2.76651 -0.79539,0.8092 -1.50977,1.4675 -1.5875,1.46287 -0.0777,-0.005 -0.37717,-0.18668 -0.66542,-0.40455 z"
               id="path1650"
               inkscape:connector-curvature="0" />
            <path
               style="fill:#ffffff;stroke-width:0.26458332"
               d="m 112.88416,144.85452 -0.7148,-1.51389 1.45214,-1.45521 1.45213,-1.45521 0.51028,0.66146 c 0.28066,0.3638 0.65205,0.99887 0.82532,1.41127 0.3012,0.7169 0.24645,0.81817 -1.24762,2.30764 l -1.56265,1.55783 z"
               id="path1648"
               inkscape:connector-curvature="0" />
          </g>
        </g>
        <g
           id="g1700"
           style="fill:#ffffff">
          <path
             inkscape:connector-curvature="0"
             id="path1660"
             d="m 97.856249,146.77142 c 0,-0.67805 1.226813,-2.85821 2.025849,-3.60012 0.845212,-0.78479 2.768062,-1.81505 3.387572,-1.81505 0.31116,0 0.40741,0.30497 0.40741,1.29082 0,1.18671 -0.0645,1.31751 -0.79911,1.62182 -0.86843,0.35972 -1.97493,1.53254 -2.24314,2.3776 -0.13857,0.4366 -0.39961,0.5306 -1.473494,0.5306 -0.996265,0 -1.305087,-0.096 -1.305087,-0.40567 z"
             style="fill:#ffffff;stroke-width:0.26458332" />
          <path
             inkscape:connector-curvature="0"
             id="path1656"
             d="m 106.05833,154.46334 c 0,-1.26932 0.0632,-1.42391 0.64107,-1.56895 0.97488,-0.24468 2.20589,-1.40322 2.57469,-2.42311 0.31908,-0.8824 0.37642,-0.91294 1.71372,-0.91294 h 1.38358 l -0.21083,0.73513 c -0.77225,2.69269 -2.6716,4.59404 -5.35917,5.36482 l -0.74306,0.21311 z"
             style="fill:#ffffff;stroke-width:0.26458332" />
          <path
             inkscape:connector-curvature="0"
             id="path1662"
             d="m 109.23111,146.37798 c -0.3882,-0.9372 -1.62112,-2.04382 -2.53171,-2.27236 -0.57791,-0.14505 -0.64107,-0.29963 -0.64107,-1.56896 v -1.40805 l 0.73514,0.21083 c 2.19111,0.62841 3.80956,1.94858 4.792,3.90888 0.85557,1.70713 0.7714,1.92877 -0.73254,1.92877 -1.18671,0 -1.31751,-0.0644 -1.62182,-0.79911 z"
             style="fill:#ffffff;stroke-width:0.26458332" />
          <path
             inkscape:connector-curvature="0"
             id="path1658"
             d="m 101.69271,155.07311 c -1.922557,-0.99413 -3.234218,-2.62113 -3.853271,-4.77964 l -0.210835,-0.73513 h 1.408056 c 1.26932,0 1.42391,0.0632 1.56895,0.64106 0.22855,0.9106 1.33516,2.14352 2.27236,2.53172 0.73466,0.3043 0.79911,0.4351 0.79911,1.62181 0,1.50322 -0.2762,1.60346 -1.98437,0.72018 z"
             style="fill:#ffffff;stroke-width:0.26458332" />
        </g>
      </g>
    </g>
  </g>
</svg>
