<?xml version="1.0" encoding="UTF-8" standalone="no"?>
<!-- Created with Inkscape (http://www.inkscape.org/) -->

<svg
   xmlns:dc="http://purl.org/dc/elements/1.1/"
   xmlns:cc="http://creativecommons.org/ns#"
   xmlns:rdf="http://www.w3.org/1999/02/22-rdf-syntax-ns#"
   xmlns:svg="http://www.w3.org/2000/svg"
   xmlns="http://www.w3.org/2000/svg"
   xmlns:sodipodi="http://sodipodi.sourceforge.net/DTD/sodipodi-0.dtd"
   xmlns:inkscape="http://www.inkscape.org/namespaces/inkscape"
   width="256mm"
   height="256mm"
   viewBox="0 0 256.00001 256.00002"
   version="1.1"
   id="svg952"
   inkscape:version="0.92.5 (2060ec1f9f, 2020-04-08)"
   sodipodi:docname="whiterun.svg">
  <defs
     id="defs946" />
  <sodipodi:namedview
     id="base"
     pagecolor="#ffffff"
     bordercolor="#666666"
     borderopacity="1.0"
     inkscape:pageopacity="0.0"
     inkscape:pageshadow="2"
     inkscape:zoom="0.6089957"
     inkscape:cx="-576.73215"
     inkscape:cy="527.32055"
     inkscape:document-units="mm"
     inkscape:current-layer="layer1"
     showgrid="false"
     units="mm"
     inkscape:window-width="3840"
     inkscape:window-height="2056"
     inkscape:window-x="0"
     inkscape:window-y="50"
     inkscape:window-maximized="1"
     showguides="true"
     inkscape:guide-bbox="true" />
  <metadata
     id="metadata949">
    <rdf:RDF>
      <cc:Work
         rdf:about="">
        <dc:format>image/svg+xml</dc:format>
        <dc:type
           rdf:resource="http://purl.org/dc/dcmitype/StillImage" />
        <dc:title></dc:title>
      </cc:Work>
    </rdf:RDF>
  </metadata>
  <g
     inkscape:label="Layer 1"
     inkscape:groupmode="layer"
     id="layer1"
     transform="translate(0,-40.999976)">
    <rect
       style="fill:#1a1a1a;fill-opacity:1;stroke:none;stroke-width:0.83444387;stroke-opacity:1"
       id="rect816"
       width="256"
       height="256"
       x="0"
       y="40.999977" />
    <g
       id="g924"
       transform="matrix(1.7488425,0,0,1.7488425,-96.08016,-125.7005)"
       style="fill:#ffffff">
      <path
         inkscape:connector-curvature="0"
         id="path915"
         d="m 148.93752,232.28891 c -1.71631,-4.14452 -2.6491,-5.99893 -4.15264,-8.2556 -4.24301,-6.36835 -9.13082,-11.6282 -12.77151,-13.74364 -4.63805,-2.69497 -12.04139,-5.65659 -24.65087,-9.8613 -9.047994,-3.01711 -11.172502,-3.83305 -16.007296,-6.14774 -4.117778,-1.97141 -8.322045,-4.46912 -11.317713,-6.72372 -2.778462,-2.09113 -6.486548,-5.41024 -7.700178,-6.89242 l -1.026223,-1.25331 0.315969,-2.82435 c 1.607488,-14.36886 7.282659,-30.63308 14.41357,-41.3072 9.362157,-14.01404 20.775691,-21.25258 37.777041,-23.95844 l 0.71247,-0.11339 -0.40401,1.11484 c -1.22062,3.36821 0.34314,13.08085 3.27293,20.32845 l 1.02874,2.54486 -0.85261,0.30831 c -0.99912,0.36129 -2.50324,1.94418 -3.26351,3.43444 -0.29493,0.57811 -0.8213,2.04199 -1.16972,3.25307 -1.16381,4.04539 -1.36008,6.33982 -1.35391,15.828 0.005,8.02887 0.0583,9.10178 0.56404,11.3935 1.01963,4.6207 2.49623,6.72572 5.93581,8.46202 1.92228,0.97036 5.657,1.9732 8.31106,2.23166 2.86791,0.27928 2.83587,0.24156 1.43769,1.69215 -1.65684,1.71894 -2.22275,3.39121 -2.2049,6.51546 0.0255,4.45466 1.1743,7.81672 6.03963,17.67473 5.07106,10.27484 7.69449,17.03443 8.87077,22.85667 0.62996,3.11807 0.93242,7.03858 0.62284,8.07316 -0.18757,0.62681 -0.4869,0.0559 -2.42747,-4.63021 z m -36.57038,-54.09466 c -5.71563,-9.39105 -8.19322,-16.99071 -8.19785,-25.14587 -0.003,-4.67557 0.78348,-9.16342 2.18236,-12.45849 0.27038,-0.6369 2.69403,-4.17447 5.38588,-7.86128 2.69184,-3.6868 4.96453,-6.88641 5.05042,-7.11023 0.13136,-0.34231 -0.13786,-0.40695 -1.695,-0.40695 -3.22312,0 -7.36524,1.00273 -11.18021,2.70651 l -1.46538,0.65445 -1.51369,5.00025 c -2.100433,6.93847 -2.401603,8.76284 -2.419692,14.65754 -0.01733,5.64325 0.273833,7.31431 2.097502,12.03855 2.17226,5.62725 5.17783,10.88944 8.47699,14.84162 1.59648,1.91248 3.60251,4.07609 3.77921,4.07609 0.0568,0 -0.1684,-0.44649 -0.50054,-0.99219 z"
         style="fill:#ffffff;stroke-width:0.26458335" />
      <path
         inkscape:connector-curvature="0"
         id="path919"
         d="m 160.64296,125.26539 c -2.44676,-2.31995 -5.52185,-4.59865 -8.03671,-5.95536 -2.37056,-1.27886 -8.24682,-2.433 -10.82483,-2.12608 -0.95859,0.11413 -1.8413,0.21083 -1.96159,0.21489 -0.12029,0.004 -0.43554,-0.60831 -0.70054,-1.36082 -1.42826,-4.05568 -5.89113,-7.67046 -10.72242,-8.6848 -5.30099,-1.11296 -11.28465,0.22177 -19.27104,4.29865 -4.38263,2.23723 -9.743765,5.6583 -13.140417,8.3852 -1.236927,0.99303 -2.427552,1.93842 -2.645834,2.10087 -0.786632,0.58544 3.071134,-3.72652 5.445287,-6.08637 9.615494,-9.55761 20.660004,-14.87791 33.205254,-15.99545 5.14235,-0.458093 10.15893,0.0633 14.663,1.52388 8.2145,2.66385 13.47144,8.74281 15.44737,17.86282 0.49751,2.29628 1.06598,7.90391 0.79814,7.87309 -0.0583,-0.007 -1.07331,-0.92944 -2.25567,-2.05052 z"
         style="fill:#ffffff;stroke-width:0.26458335" />
      <path
         inkscape:connector-curvature="0"
         id="path917"
         d="m 162.17395,200.68383 c -0.2998,-0.25466 -1.56314,-2.05743 -2.80743,-4.00617 -2.53279,-3.96669 -2.399,-3.37349 -1.99783,-8.85805 0.15721,-2.14935 0.15625,-3.57883 -0.003,-3.87566 -0.36026,-0.67316 -3.16554,-2.37758 -6.03247,-3.66518 -3.52975,-1.58528 -6.90506,-2.82427 -14.86694,-5.45725 -3.85631,-1.27527 -7.23525,-2.51151 -7.50877,-2.74719 -0.70293,-0.60569 -1.39304,-2.32864 -1.89143,-4.72214 -1.18991,-5.71457 -0.47972,-23.277 1.06182,-26.25802 0.529,-1.02297 1.76196,-2.00407 3.81503,-3.03571 1.69647,-0.85245 6.52787,-2.52828 7.28902,-2.52828 0.20795,0 0.44287,-0.10481 0.52205,-0.23291 0.0792,-0.12811 -1.11725,-0.54895 -2.65871,-0.9352 -1.54146,-0.38626 -3.2476,-0.92927 -3.79141,-1.2067 -1.28892,-0.65757 -2.55495,-2.11862 -2.92247,-3.37264 -0.34283,-1.16982 -3.93528,-17.37931 -3.86841,-17.45465 0.0249,-0.0281 2.17914,1.75202 4.78713,3.95577 l 4.74182,4.00682 2.6025,0.33583 c 4.80098,0.61954 11.85871,3.55208 17.28657,7.18272 2.75219,1.84091 6.35556,5.45626 7.16796,7.1918 0.30653,0.65484 5.34842,11.96155 11.20419,25.12601 l 10.64685,23.93539 -0.27835,1.98363 c -0.15309,1.091 -0.4434,2.10726 -0.64514,2.25836 -0.28986,0.21711 -0.34287,0.97378 -0.25273,3.60754 0.13276,3.87889 -0.26725,5.7737 -1.45876,6.91009 -0.63327,0.60397 -1.23153,0.78273 -4.23997,1.26693 -1.92647,0.31005 -3.62481,0.48824 -3.77409,0.39598 -0.69743,-0.43103 -1.53887,-2.93037 -3.19178,-9.48063 -0.98552,-3.90547 -1.83523,-7.14423 -1.88826,-7.19725 -0.053,-0.053 -0.98537,0.0312 -2.07189,0.1871 -2.10276,0.30177 -3.07624,0.90565 -3.85119,2.38902 -0.90962,1.74115 -0.34014,3.11994 3.77829,9.14775 l 2.76123,4.04138 -0.94165,0.39344 c -2.81556,1.17642 -5.80646,1.49591 -6.72217,0.71807 z m 8.68855,-34.4652 c 0,-0.14729 -2.26219,-5.26553 -5.02708,-11.37386 -3.4005,-7.51253 -5.02709,-11.40062 -5.02709,-12.01642 0,-1.52487 -0.45397,-1.7415 -3.65692,-1.74506 -4.281,-0.005 -6.69245,-0.80117 -8.77978,-2.89963 -1.49536,-1.50333 -2.73712,-3.82986 -3.32303,-6.22595 -0.249,-1.01831 -0.54514,-1.95433 -0.65808,-2.08004 -0.29966,-0.33353 -0.60708,2.56799 -0.39299,3.70917 0.32362,1.72503 1.22192,3.78622 2.43998,5.59866 0.8863,1.31876 1.25293,2.17244 1.4414,3.35614 0.31805,1.99756 1.4762,4.51613 2.69922,5.86986 1.40239,1.55228 3.09917,2.34149 6.12303,2.84797 1.45184,0.24318 2.65897,0.46474 2.68251,0.49236 0.0652,0.0766 6.05029,9.23238 7.94552,12.15492 1.59321,2.4568 1.71721,2.57969 2.6031,2.57969 0.51162,0 0.93021,-0.12052 0.93021,-0.26781 z"
         style="fill:#ffffff;stroke-width:0.26458335" />
    </g>
  </g>
</svg>
