<?xml version="1.0" encoding="UTF-8" standalone="no"?>
<!-- Created with Inkscape (http://www.inkscape.org/) -->

<svg
   xmlns:dc="http://purl.org/dc/elements/1.1/"
   xmlns:cc="http://creativecommons.org/ns#"
   xmlns:rdf="http://www.w3.org/1999/02/22-rdf-syntax-ns#"
   xmlns:svg="http://www.w3.org/2000/svg"
   xmlns="http://www.w3.org/2000/svg"
   xmlns:sodipodi="http://sodipodi.sourceforge.net/DTD/sodipodi-0.dtd"
   xmlns:inkscape="http://www.inkscape.org/namespaces/inkscape"
   width="256mm"
   height="256mm"
   viewBox="0 0 256.00001 256.00002"
   version="1.1"
   id="svg952"
   inkscape:version="0.92.5 (2060ec1f9f, 2020-04-08)"
   sodipodi:docname="windhelm.svg">
  <defs
     id="defs946" />
  <sodipodi:namedview
     id="base"
     pagecolor="#ffffff"
     bordercolor="#666666"
     borderopacity="1.0"
     inkscape:pageopacity="0.0"
     inkscape:pageshadow="2"
     inkscape:zoom="1.2179914"
     inkscape:cx="224.58563"
     inkscape:cy="618.001"
     inkscape:document-units="mm"
     inkscape:current-layer="layer1"
     showgrid="false"
     units="mm"
     inkscape:window-width="3840"
     inkscape:window-height="2056"
     inkscape:window-x="0"
     inkscape:window-y="50"
     inkscape:window-maximized="1"
     showguides="true"
     inkscape:guide-bbox="true" />
  <metadata
     id="metadata949">
    <rdf:RDF>
      <cc:Work
         rdf:about="">
        <dc:format>image/svg+xml</dc:format>
        <dc:type
           rdf:resource="http://purl.org/dc/dcmitype/StillImage" />
        <dc:title />
      </cc:Work>
    </rdf:RDF>
  </metadata>
  <g
     inkscape:label="Layer 1"
     inkscape:groupmode="layer"
     id="layer1"
     transform="translate(0,-40.999976)">
    <rect
       style="fill:#000000;fill-opacity:1;stroke:none;stroke-width:0.83444387;stroke-opacity:1"
       id="rect816"
       width="256"
       height="256"
       x="0"
       y="40.999977" />
    <path
       style="fill:#ffffff;fill-opacity:1;stroke:none;stroke-width:16.61536789;stroke-miterlimit:4;stroke-dasharray:none;stroke-opacity:1;paint-order:stroke fill markers"
       d="m 153.14166,271.49621 c -10.36023,-5.49562 -23.01487,-14.60619 -34.10821,-24.5564 -15.16577,-13.60282 -26.957881,-30.08563 -33.561561,-46.91016 -5.69575,-14.51297 -24.03505,-57.15262 -27.61825,-64.21359 -8.0819,-15.92768 -15.42829,-26.29456 -26.49745,-37.392701 -7.52177,-7.5419 -13.51457,-12.426264 -19.64287,-16.009829 -2.8901501,-1.689229 -4.1444201,-2.891628 -3.5820901,-3.431443 0.0923,-0.09231 5.8777801,-0.791999 12.8329801,-1.537844 l 12.64614,-1.360614 12.79678,0.841845 c 7.03827,0.463384 12.89648,0.743999 13.01796,0.622153 0.24,-0.239999 -3.48665,-2.948673 -10.70695,-7.778207 -2.54676,-1.703998 -4.62774,-3.387319 -4.62774,-3.743442 0,-0.468922 2.21519,-0.895383 7.87974,-1.526767 6.5411,-0.727384 8.89974,-0.790153 13.88343,-0.348923 15.02583,1.321845 29.52052,5.234394 45.189181,12.198079 l 5.66418,2.517413 2.2008,-2.296798 c 4.04067,-4.217164 7.84928,-6.311624 13.48891,-7.418761 3.8003,-0.745845 11.6806,0.736615 14.69795,2.766643 2.67194,1.798152 5.03538,5.363994 5.41144,8.166822 0.26585,1.915937 0.39877,2.042398 4.33698,3.927873 3.01624,1.441844 5.32726,3.098766 8.91858,6.385285 4.67095,4.275503 4.88565,4.565903 5.91433,8.004915 1.76861,5.914511 4.79002,11.638321 7.66337,14.522751 1.42339,1.42892 7.5408,7.13224 13.5947,12.67457 14.72638,13.4819 20.61856,20.3038 21.70188,25.12484 0.62769,2.80227 3.59594,7.18577 6.0803,8.98559 3.49661,2.5331 7.89396,3.10707 18.07678,2.35919 l 5.83403,-0.4283 1.53415,2.11679 c 2.63206,3.63286 2.45335,6.65372 -0.63138,10.72799 -0.72,0.94893 -1.2757,2.56782 -1.47508,4.27975 -0.48923,4.23397 -1.704,7.74812 -3.49384,10.10916 -1.46585,1.93403 -2.1552,2.328 -6.86639,3.94984 l -5.23809,1.8 -1.34769,3.87064 c -1.46769,4.21643 -3.31311,7.03107 -4.94141,7.54781 -1.36615,0.432 -1.39938,0.37661 -2.0184,-3.13698 -0.40985,-2.3352 -0.888,-3.36074 -2.11421,-4.53729 l -1.58215,-1.51938 -3.65982,0.86584 c -3.28725,0.78093 -3.97956,1.17231 -6.8027,3.84129 -2.66787,2.52517 -3.23889,3.37698 -3.77907,5.63963 -0.77538,3.25052 -0.40985,6.43439 1.34585,11.75038 0.80676,2.43729 1.70215,4.19077 2.35919,4.62277 0.58339,0.384 2.68689,0.84738 4.67298,1.03199 2.41569,0.216 3.61071,0.54831 3.61071,0.97477 0,0.768 -2.7072,2.50671 -4.66837,2.99649 -1.848,0.45969 -2.0016,1.008 -1.12061,3.94338 0.48184,1.60062 0.576,2.74135 0.27323,3.30498 -1.12985,2.1096 -8.07175,3.45102 -12.80602,2.472 -3.60461,-0.744 -6.24553,-2.0664 -11.44854,-5.73045 -2.2008,-1.55077 -7.68719,-5.304 -12.19106,-8.34166 l -8.18824,-5.52313 -5.32006,2.3304 c -4.83599,2.1168 -5.71827,2.72436 -9.69765,6.66498 -2.40775,2.38319 -4.37778,4.57365 -4.37778,4.86479 0,0.28985 3.15563,9.72977 7.01243,20.97395 3.85661,11.24417 6.94522,20.51093 6.86306,20.59271 -0.0738,0.0739 -2.50652,-1.10215 -5.38633,-2.6291 z m 49.75306,-89.72002 c 2.20079,-4.89969 2.84565,-8.95845 2.48252,-15.57229 -0.24,-4.19501 -0.1477,-6.55735 0.36369,-8.50522 0.80861,-3.17852 0.82523,-12.10448 0.0185,-14.07894 -0.71262,-1.76861 -0.92862,-1.75938 -11.16313,0.39138 -11.17642,2.3496 -19.72724,5.20412 -18.61752,6.21784 0.24,0.216 3.69711,1.464 7.68738,2.76923 9.3035,3.04394 10.46639,4.04234 13.42079,11.52331 l 2.04941,5.1936 -0.55938,5.70811 -0.55939,5.70775 1.39015,1.82031 c 0.76431,1.00061 1.55631,1.8203 1.75939,1.8203 0.216,0 0.9803,-1.34584 1.71876,-2.99372 z m -67.99802,-73.22595 4.00208,-1.10031 1.62462,-3.24221 c 1.62461,-3.24221 1.62461,-3.2424 0.84369,-5.744115 -1.15569,-3.708919 -1.48431,-11.096111 -0.70523,-16.071306 l 0.66277,-4.24818 -1.27385,-1.273845 c -1.0283,-1.028306 -1.91593,-1.323691 -4.5779,-1.537844 -6.73365,-0.542769 -11.38319,2.332797 -13.1494,8.125099 -1.344,4.407318 -1.224,12.637647 0.26769,18.511551 1.41415,5.55895 1.99994,6.50953 4.40363,7.14719 2.69926,0.71815 3.41667,0.66461 7.90467,-0.56677 z"
       id="Capital_Crest_Icon-55"
       inkscape:connector-curvature="0"
       inkscape:label="Capital Crest Icon" />
  </g>
</svg>
