<?xml version="1.0" encoding="UTF-8" standalone="no"?>
<!-- Created with Inkscape (http://www.inkscape.org/) -->

<svg
   xmlns:dc="http://purl.org/dc/elements/1.1/"
   xmlns:cc="http://creativecommons.org/ns#"
   xmlns:rdf="http://www.w3.org/1999/02/22-rdf-syntax-ns#"
   xmlns:svg="http://www.w3.org/2000/svg"
   xmlns="http://www.w3.org/2000/svg"
   xmlns:sodipodi="http://sodipodi.sourceforge.net/DTD/sodipodi-0.dtd"
   xmlns:inkscape="http://www.inkscape.org/namespaces/inkscape"
   width="256mm"
   height="256mm"
   viewBox="0 0 256.00001 256.00002"
   version="1.1"
   id="svg952"
   inkscape:version="0.92.5 (2060ec1f9f, 2020-04-08)"
   sodipodi:docname="winterhold.svg">
  <defs
     id="defs946" />
  <sodipodi:namedview
     id="base"
     pagecolor="#ffffff"
     bordercolor="#666666"
     borderopacity="1.0"
     inkscape:pageopacity="0.0"
     inkscape:pageshadow="2"
     inkscape:zoom="0.6089957"
     inkscape:cx="-430.53109"
     inkscape:cy="591.70695"
     inkscape:document-units="mm"
     inkscape:current-layer="layer1"
     showgrid="false"
     units="mm"
     inkscape:window-width="3840"
     inkscape:window-height="2056"
     inkscape:window-x="0"
     inkscape:window-y="50"
     inkscape:window-maximized="1"
     showguides="true"
     inkscape:guide-bbox="true" />
  <metadata
     id="metadata949">
    <rdf:RDF>
      <cc:Work
         rdf:about="">
        <dc:format>image/svg+xml</dc:format>
        <dc:type
           rdf:resource="http://purl.org/dc/dcmitype/StillImage" />
        <dc:title></dc:title>
      </cc:Work>
    </rdf:RDF>
  </metadata>
  <g
     inkscape:label="Layer 1"
     inkscape:groupmode="layer"
     id="layer1"
     transform="translate(0,-40.999976)">
    <rect
       style="fill:#1a1a1a;fill-opacity:1;stroke:none;stroke-width:0.83444387;stroke-opacity:1"
       id="rect816"
       width="256"
       height="256"
       x="0"
       y="40.999977" />
    <path
       style="fill:#ffffff;stroke-width:0.50847906"
       d="m 36.18312,274.16518 c -1.79049,-1.17455 -1.37942,-0.50428 -15.49913,-25.2717 l -12.6829895,-22.24726 -10e-4,-3.63291 c -0.001,-3.52047 1.27472,-8.91077 2.8203195,-11.91628 0.59441,-1.15591 0.51769,-1.72986 -0.64581,-4.83055 -2.7094295,-7.22059 -1.5206495,-18.09552 2.61393,-23.91241 0.86157,-1.21212 2.18827,-3.07018 2.94825,-4.12901 1.01783,-1.41811 1.70747,-3.53133 2.61847,-8.02346 0.68019,-3.35407 3.40483,-13.53848 6.05474,-22.63203 4.08433,-14.01592 5.28779,-17.4708 7.90276,-22.68736 3.2339,-6.45124 3.56628,-6.77407 6.98972,-6.78934 1.90668,-0.008 3.641,1.70986 5.52055,5.46974 2.60638,5.21387 7.99741,22.83447 11.44148,37.39652 3.13277,13.24583 3.61224,14.80801 4.99419,16.27133 4.75814,5.03825 6.74087,10.03277 6.74087,16.98038 0,4.92118 -0.94426,9.11039 -3.05003,13.53153 l -1.45552,3.05593 1.55021,3.07097 c 3.28622,6.50996 5.63842,8.30221 10.09218,7.68967 3.99931,-0.55005 5.39996,-2.13489 10.47911,-11.85726 2.4364,-4.66368 7.11378,-12.98912 10.39417,-18.50097 l 5.96434,-10.02157 -0.99574,-3.19889 c -2.10944,-6.77677 -1.79109,-13.27277 0.94977,-19.38024 l 1.35419,-3.01755 -2.08173,-8.45157 c -1.8988,-7.70889 -2.0413,-8.74198 -1.62183,-11.75667 0.5733,-4.1203 2.81905,-8.78713 5.85163,-12.16008 l 2.3245,-2.58542 3.22153,-13.77339 c 4.06094,-17.362197 7.90633,-29.33882 11.92478,-37.140186 3.08541,-5.99 3.86167,-6.7733 6.12562,-6.18127 1.72652,0.4515 6.75811,10.983848 9.94677,20.821061 1.55584,4.799851 4.27847,14.925031 6.05033,22.500395 l 3.22153,13.77339 2.3245,2.58542 c 3.03258,3.37295 5.27833,8.03978 5.85163,12.16008 0.41947,3.01469 0.27697,4.04778 -1.62184,11.75667 l -2.08174,8.45157 1.3542,3.01755 c 2.74087,6.10747 3.05922,12.60347 0.94978,19.38024 l -0.99574,3.19889 5.96434,10.02157 c 3.28039,5.51185 7.95777,13.83729 10.39417,18.50097 5.07915,9.72237 6.47979,11.30721 10.47911,11.85726 4.45376,0.61254 6.80596,-1.17971 10.09218,-7.68967 l 1.55021,-3.07097 -1.45552,-3.05593 c -2.10577,-4.42114 -3.05003,-8.61035 -3.05003,-13.53153 0,-6.94761 1.98273,-11.94213 6.74087,-16.98038 1.38195,-1.46332 1.86142,-3.0255 4.99419,-16.27133 3.44407,-14.56205 8.8351,-32.18265 11.44148,-37.39652 1.87955,-3.75988 3.61387,-5.47823 5.52055,-5.46974 3.42344,0.0152 3.7558,0.3381 6.98972,6.78934 2.61497,5.21656 3.81843,8.67144 7.90276,22.68736 2.64991,9.09355 5.37455,19.27796 6.05474,22.63203 0.91098,4.49213 1.60064,6.60535 2.61849,8.02346 0.75996,1.05883 2.08666,2.91689 2.94823,4.12901 4.13458,5.81689 5.32334,16.69182 2.61393,23.91241 -1.1635,3.10069 -1.24022,3.67464 -0.64581,4.83055 1.5456,3.00551 2.82136,8.39581 2.82032,11.91628 l -0.001,3.63291 -12.68297,22.24726 c -14.11978,24.76742 -13.7087,24.09715 -15.4992,25.2717 -1.2332,0.80897 -1.8078,0.73601 -12.8671,-1.63362 -33.92839,-7.26973 -34.01489,-7.28382 -57.31195,-9.34085 l -21.63782,-1.91053 -21.63778,1.91053 c -23.29706,2.05703 -23.38358,2.07112 -57.31198,9.34085 -11.05929,2.36963 -11.63387,2.44259 -12.86708,1.63362 z m 103.29205,-37.62342 c 9.79234,-15.81759 10.78364,-17.62169 10.18706,-18.53969 -0.36349,-0.55932 -5.29428,-8.51066 -10.9573,-17.66964 -5.66302,-9.15898 -10.47949,-16.65269 -10.70324,-16.65269 -0.46646,0 -22.00055,34.5665 -22.01552,35.33929 -0.006,0.27967 3.60576,6.34328 8.02485,13.4747 4.41909,7.13141 9.28127,14.98034 10.80484,17.44202 1.52356,2.46171 3.00439,4.39772 3.29074,4.30229 0.28633,-0.0955 5.40219,-8.05877 11.36857,-17.69628 z"
       id="path834"
       inkscape:connector-curvature="0" />
  </g>
</svg>
