<?xml version="1.0" encoding="UTF-8" standalone="no"?>
<!-- Created with Inkscape (http://www.inkscape.org/) -->

<svg
   xmlns:dc="http://purl.org/dc/elements/1.1/"
   xmlns:cc="http://creativecommons.org/ns#"
   xmlns:rdf="http://www.w3.org/1999/02/22-rdf-syntax-ns#"
   xmlns:svg="http://www.w3.org/2000/svg"
   xmlns="http://www.w3.org/2000/svg"
   xmlns:sodipodi="http://sodipodi.sourceforge.net/DTD/sodipodi-0.dtd"
   xmlns:inkscape="http://www.inkscape.org/namespaces/inkscape"
   width="256mm"
   height="256mm"
   viewBox="0 0 256 256"
   version="1.1"
   id="svg8"
   inkscape:version="0.92.5 (2060ec1f9f, 2020-04-08)"
   sodipodi:docname="akilae.svg">
  <defs
     id="defs2" />
  <sodipodi:namedview
     id="base"
     pagecolor="#ffffff"
     bordercolor="#666666"
     borderopacity="1.0"
     inkscape:pageopacity="0.0"
     inkscape:pageshadow="2"
     inkscape:zoom="0.98994949"
     inkscape:cx="205.39707"
     inkscape:cy="726.75324"
     inkscape:document-units="mm"
     inkscape:current-layer="layer1"
     showgrid="false"
     inkscape:window-width="3840"
     inkscape:window-height="2056"
     inkscape:window-x="0"
     inkscape:window-y="50"
     inkscape:window-maximized="1" />
  <metadata
     id="metadata5">
    <rdf:RDF>
      <cc:Work
         rdf:about="">
        <dc:format>image/svg+xml</dc:format>
        <dc:type
           rdf:resource="http://purl.org/dc/dcmitype/StillImage" />
        <dc:title></dc:title>
      </cc:Work>
    </rdf:RDF>
  </metadata>
  <g
     inkscape:label="Layer 1"
     inkscape:groupmode="layer"
     id="layer1"
     transform="translate(0,-41)">
    <rect
       style="fill:#000000;fill-opacity:1;stroke:none;stroke-width:0.73613685;stroke-miterlimit:4;stroke-dasharray:none;stroke-opacity:1;paint-order:stroke fill markers"
       id="rect4747"
       width="256"
       height="256"
       x="-1.4210855e-14"
       y="41" />
    <g
       id="g4799"
       transform="translate(0.0011749,1.3664007)">
      <path
         id="path4780"
         transform="matrix(0.26458333,0,0,0.26458333,0,41)"
         d="M 885.79297,87.138672 A 317.94552,175.26148 0 0 1 631.72852,188.05078 450.71428,489.69986 0 0 1 296.94922,640.65234 c -1.08366,0.32814 -2.1661,0.6617 -3.25195,0.98047 -27.68666,8.12773 -30.61065,10.04694 -54.85157,36.00391 -45.58908,48.81634 -87.35156,118.74435 -109.20312,182.85156 -6.2073,18.21053 -14.91952,49.88187 -18.58203,66.50586 a 327.79449,276.02417 0 0 1 237.4414,-86.20898 327.79449,276.02417 0 0 1 65.35938,5.73437 144.19928,172.23099 0 0 1 143.99609,-167.35937 144.19928,172.23099 0 0 1 130.2793,98.82617 c 0.40275,-0.43693 0.7627,-1.07811 1.0957,-1.95313 1.42847,-3.75352 18.63997,-45.98921 38.24805,-93.85742 19.60823,-47.86806 34.81104,-87.87255 33.7832,-88.90039 -1.02773,-1.02758 -11.46088,1.16279 -23.18555,4.86914 -30.9831,9.79465 -81.6346,12.07326 -96.58203,4.34375 -16.13748,-8.34508 -18.68094,-23.95676 -8.38671,-51.4707 8.48602,-22.68102 35.13259,-55.40776 52.37109,-64.32227 23.42804,-12.11505 53.53807,-5.00742 87.53711,20.66211 16.6086,12.53953 19.71274,13.73796 21.31054,8.23047 6.80399,-23.45121 39.4629,-145.20991 39.4629,-147.125 0,-1.29645 -10.44961,-2.38581 -23.22071,-2.41601 -29.03452,-0.0726 -63.83882,-8.065 -76.59375,-17.5879 -29.49653,-22.02232 -10.25953,-73.31046 37.32813,-99.52148 17.16998,-9.45713 23.65729,-10.89051 49.48242,-10.94531 16.34714,-0.0343 34.21359,1.3449 39.70312,3.0664 9.36031,2.93534 10.23119,2.20195 13.99805,-11.78711 6.6539,-24.7103 11.07494,-67.13767 11.20117,-107.3789 z"
         style="fill:#ffffff;stroke-width:3.71524715"
         inkscape:connector-curvature="0" />
      <path
         id="path4774"
         d="M 109.31746,146.63499 C 106.07594,130.9587 98.632261,119.7325 88.041652,114.54786 c -4.776397,-2.33828 -6.977161,-2.7593 -15.867004,-3.03551 -12.636002,-0.39261 -24.47423,2.32821 -39.7024,9.12494 -5.48255,2.44701 -10.25334,4.4491 -10.60175,4.4491 -1.13861,0 1.99698,-10.09265 5.08327,-16.36184 6.77041,-13.75263 19.61922,-26.719679 39.814415,-40.180874 13.155616,-8.768905 37.974657,-21.216888 38.594587,-19.357098 1.76407,5.292197 13.97178,21.060509 24.95033,32.227528 11.88961,12.093732 12.63604,13.082192 12.62048,16.712958 -0.0223,4.837646 -5.04969,17.170126 -11.19397,27.450816 -5.53735,9.26516 -19.25141,28.99826 -20.15314,28.99826 -0.34477,0 -1.36587,-3.57351 -2.26901,-7.94115 z"
         style="fill:#ffffff;stroke-width:0.98299247"
         inkscape:connector-curvature="0" />
      <circle
         r="18.25"
         cy="161.386"
         cx="65.849998"
         id="path4782"
         style="fill:#ffffff;fill-opacity:1;stroke:none;stroke-width:0.49999398;stroke-miterlimit:4;stroke-dasharray:none;stroke-opacity:1;paint-order:stroke fill markers" />
    </g>
  </g>
</svg>
