<?xml version="1.0" encoding="UTF-8" standalone="no"?>
<!-- Created with Inkscape (http://www.inkscape.org/) -->

<svg
   xmlns:dc="http://purl.org/dc/elements/1.1/"
   xmlns:cc="http://creativecommons.org/ns#"
   xmlns:rdf="http://www.w3.org/1999/02/22-rdf-syntax-ns#"
   xmlns:svg="http://www.w3.org/2000/svg"
   xmlns="http://www.w3.org/2000/svg"
   xmlns:sodipodi="http://sodipodi.sourceforge.net/DTD/sodipodi-0.dtd"
   xmlns:inkscape="http://www.inkscape.org/namespaces/inkscape"
   width="256mm"
   height="256mm"
   viewBox="0 0 256 256"
   version="1.1"
   id="svg8"
   inkscape:version="0.92.5 (2060ec1f9f, 2020-04-08)"
   sodipodi:docname="raynor.svg">
  <defs
     id="defs2" />
  <sodipodi:namedview
     id="base"
     pagecolor="#ffffff"
     bordercolor="#666666"
     borderopacity="1.0"
     inkscape:pageopacity="0.0"
     inkscape:pageshadow="2"
     inkscape:zoom="0.98994949"
     inkscape:cx="183.17371"
     inkscape:cy="700.48928"
     inkscape:document-units="mm"
     inkscape:current-layer="layer1"
     showgrid="false"
     inkscape:window-width="3840"
     inkscape:window-height="2056"
     inkscape:window-x="0"
     inkscape:window-y="50"
     inkscape:window-maximized="1" />
  <metadata
     id="metadata5">
    <rdf:RDF>
      <cc:Work
         rdf:about="">
        <dc:format>image/svg+xml</dc:format>
        <dc:type
           rdf:resource="http://purl.org/dc/dcmitype/StillImage" />
        <dc:title></dc:title>
      </cc:Work>
    </rdf:RDF>
  </metadata>
  <g
     inkscape:label="Layer 1"
     inkscape:groupmode="layer"
     id="layer1"
     transform="translate(0,-41)">
    <rect
       style="fill:#000000;fill-opacity:1;stroke:none;stroke-width:0.73613685;stroke-miterlimit:4;stroke-dasharray:none;stroke-opacity:1;paint-order:stroke fill markers"
       id="rect4747"
       width="256"
       height="256"
       x="-1.4210855e-14"
       y="41" />
    <path
       style="fill:#ffffff;stroke-width:1.00597906"
       d="m 126.50689,287.75233 c -0.26843,-0.73761 -2.81091,-12.2057 -5.64973,-25.48463 -4.90064,-22.92351 -5.2291,-25.41428 -6.50053,-49.29296 -0.73651,-13.83221 -1.36322,-29.31013 -1.39269,-34.3954 -0.0304,-5.08527 -0.43177,-9.47965 -0.89395,-9.7653 -0.46223,-0.28554 -5.32864,5.18123 -10.81427,12.14863 -35.419544,44.98701 -56.472635,71.15214 -57.535905,71.50658 -0.67541,0.22508 -1.22801,-0.0829 -1.22801,-0.68465 0,-0.60173 10.63824,-22.36669 23.640519,-48.36666 13.002282,-25.99992 23.640516,-47.72265 23.640516,-48.2727 0,-0.55005 -4.009152,-3.0136 -8.909256,-5.47457 -21.016706,-10.55523 -33.788919,-25.25999 -42.850379,-49.3341 l -2.47309,-6.570343 H 66.6804 97.820686 v 11.568763 11.56877 H 89.77284 c -5.564069,0 -8.047846,0.37071 -8.047846,1.20052 0,0.66032 2.419407,3.54393 5.376472,6.40807 5.562472,5.38765 14.076424,9.49303 19.687184,9.49303 2.79981,0 2.84775,-0.0951 2.41081,-4.7784 -0.86236,-9.24296 -2.38994,-14.64263 -5.40719,-19.11336 -2.64275,-3.91581 -3.00737,-5.26621 -2.74879,-10.179546 l 0.29809,-5.664863 9.30528,-0.289342 9.30533,-0.289342 V 83.072711 c 0,-9.067767 -0.29163,-10.988448 -1.99684,-13.156383 -4.63757,-5.89569 -4.39435,-13.814758 0.56739,-18.476088 2.22671,-2.091892 3.57955,-2.440242 9.47729,-2.440242 5.89771,0 7.25054,0.348274 9.47726,2.440242 4.96173,4.66133 5.20496,12.580398 0.56738,18.476088 -1.70533,2.167935 -1.99683,4.088616 -1.99683,13.156383 v 10.617854 l 9.30533,0.289342 9.30527,0.289342 0.29809,5.664863 c 0.25854,4.913338 -0.10608,6.263738 -2.74878,10.179548 -3.01726,4.47073 -4.54484,9.8704 -5.4072,19.11336 -0.43694,4.68339 -0.38899,4.7784 2.41081,4.7784 5.61076,0 14.12472,-4.10538 19.68718,-9.49303 2.95707,-2.86414 5.37648,-5.74775 5.37648,-6.40807 0,-0.83 -2.48378,-1.20052 -8.04785,-1.20052 h -8.04785 V 105.33503 93.766266 h 31.1403 31.14028 l -2.4731,6.570334 c -9.06145,24.07412 -21.83367,38.77888 -42.85037,49.33411 -4.90011,2.46097 -8.90925,4.92452 -8.90925,5.47457 0,0.55005 10.63822,22.27278 23.64052,48.2727 13.00228,25.99997 23.64051,47.76493 23.64051,48.36666 0,0.60168 -0.5526,0.90977 -1.22801,0.68464 -1.06327,-0.35435 -22.11636,-26.51956 -57.5359,-71.50658 -5.48564,-6.96739 -10.35205,-12.43428 -10.81427,-12.14863 -0.4622,0.28554 -0.86331,4.68004 -0.89129,9.76531 -0.0266,5.08527 -0.68625,20.78953 -1.46268,34.89838 -1.35357,24.59523 -1.63134,26.66496 -6.73943,50.21867 -4.8996,22.59223 -6.83154,28.17155 -8.32981,24.05594 z"
       id="path4831"
       inkscape:connector-curvature="0" />
  </g>
</svg>
