<?xml version="1.0" encoding="UTF-8" standalone="no"?>
<!-- Created with Inkscape (http://www.inkscape.org/) -->

<svg
   xmlns:dc="http://purl.org/dc/elements/1.1/"
   xmlns:cc="http://creativecommons.org/ns#"
   xmlns:rdf="http://www.w3.org/1999/02/22-rdf-syntax-ns#"
   xmlns:svg="http://www.w3.org/2000/svg"
   xmlns="http://www.w3.org/2000/svg"
   xmlns:sodipodi="http://sodipodi.sourceforge.net/DTD/sodipodi-0.dtd"
   xmlns:inkscape="http://www.inkscape.org/namespaces/inkscape"
   width="256mm"
   height="256mm"
   viewBox="0 0 256 256"
   version="1.1"
   id="svg8"
   inkscape:version="0.92.5 (2060ec1f9f, 2020-04-08)"
   sodipodi:docname="terran.svg">
  <defs
     id="defs2" />
  <sodipodi:namedview
     id="base"
     pagecolor="#ffffff"
     bordercolor="#666666"
     borderopacity="1.0"
     inkscape:pageopacity="0.0"
     inkscape:pageshadow="2"
     inkscape:zoom="1.4"
     inkscape:cx="265.19263"
     inkscape:cy="437.65518"
     inkscape:document-units="mm"
     inkscape:current-layer="layer1"
     showgrid="false"
     inkscape:window-width="3840"
     inkscape:window-height="2056"
     inkscape:window-x="0"
     inkscape:window-y="50"
     inkscape:window-maximized="1" />
  <metadata
     id="metadata5">
    <rdf:RDF>
      <cc:Work
         rdf:about="">
        <dc:format>image/svg+xml</dc:format>
        <dc:type
           rdf:resource="http://purl.org/dc/dcmitype/StillImage" />
        <dc:title></dc:title>
      </cc:Work>
    </rdf:RDF>
  </metadata>
  <g
     inkscape:label="Layer 1"
     inkscape:groupmode="layer"
     id="layer1"
     transform="translate(0,-41)">
    <rect
       style="fill:#000000;fill-opacity:1;stroke:none;stroke-width:0.73613685;stroke-miterlimit:4;stroke-dasharray:none;stroke-opacity:1;paint-order:stroke fill markers"
       id="rect4747"
       width="256"
       height="256"
       x="-1.4210855e-14"
       y="41" />
    <g
       id="g4894">
      <path
         id="path4882"
         d="m 177.32989,281.64008 c -9.5206,-5.00116 -17.19628,-6.19603 -27.18223,-4.23139 -3.65813,0.71968 -7.2209,1.52719 -7.9173,1.79439 -0.76346,0.29303 -3.61134,-4.89677 -7.17246,-13.07054 -3.24848,-7.45605 -6.23115,-13.19832 -6.62814,-12.76059 -0.39711,0.43773 -3.14979,6.31602 -6.11721,13.06288 -2.96738,6.7469 -5.58679,12.3261 -5.82083,12.39831 -0.23401,0.0721 -4.1639,-0.50822 -8.73289,-1.28978 -10.928539,-1.86936 -18.652451,-0.82452 -27.749012,3.75374 -3.991234,2.00881 -7.382819,3.52633 -7.536829,3.37236 -0.154092,-0.15409 6.541828,-15.32942 14.879608,-33.72319 8.33778,-18.39377 15.159643,-33.69566 15.159643,-34.00425 0,-0.3086 -1.16733,0.53555 -2.593999,1.87586 -1.931234,1.81427 -2.740505,2.07037 -3.167373,1.00226 -0.315152,-0.78911 -0.611861,-0.0926 -0.658949,1.54715 -0.100816,3.5181 -3.524121,7.31913 -6.591457,7.31913 -2.286917,0 -2.917957,-1.57756 -1.084342,-2.71079 0.596369,-0.36843 1.084342,-1.87165 1.084342,-3.3402 0,-3.68427 -4.389414,-5.71104 -8.085127,-3.73312 -2.569815,1.37531 -6.010988,8.01644 -6.010988,11.60056 0,1.58858 -0.220893,1.57272 -2.127784,-0.15328 -1.170322,-1.05909 -2.646656,-3.49773 -3.280811,-5.41917 -1.628746,-4.93513 0.615098,-11.21569 5.080452,-14.22033 2.020206,-1.35933 6.150286,-2.63641 9.89698,-3.06032 4.188726,-0.47392 7.067914,-1.43232 8.260038,-2.74965 1.148765,-1.26933 1.415558,-2.27835 0.716692,-2.7103 -0.681939,-0.42146 0.34097,-3.33421 2.64014,-7.51679 2.064426,-3.75579 3.753536,-8.31426 3.753536,-10.12992 0,-6.95585 -5.94562,-7.35344 -12.289054,-0.82182 -3.115859,3.20833 -5.474289,7.85928 -7.85698,15.49435 -0.339331,1.087 -1.167125,0.9093 -3.433346,-0.73678 -1.642475,-1.19306 -5.381096,-4.29913 -8.307986,-6.90234 l -5.321672,-4.73316 3.953735,-5.74774 c 4.609487,-6.70103 6.718296,-12.87759 5.734688,-16.7966 -2.352857,-9.37458 -17.841335,-4.14038 -26.252395,8.87181 -2.3308,3.6058 -4.81906,7.44707 -5.52945,8.53616 -1.02897,1.57753 -1.30457,-1.57529 -1.35539,-15.50568 l -0.0639,-17.48584 6.03414,-0.5004 c 8.0348,-0.66631 11.40221,-3.86983 12.14013,-11.54929 0.478994,-4.98509 0.233594,-5.76022 -2.77727,-8.77106 -2.86177,-2.86177 -4.07389,-3.30008 -9.07877,-3.28306 -4.3236,0.0148 -7.22066,0.81603 -11.52073,3.18666 -5.51982,3.04303 -5.71526,3.07422 -4.99234,0.79659 0.41375,-1.30373 2.83968,-7.25119 5.39085,-13.21657 l 4.63854,-10.84615 35.594025,-0.21613 c 28.008835,-0.17008 35.164125,0.061 33.576685,1.08431 -1.1095,0.71526 -4.19696,2.71335 -6.86099,4.44019 -5.618508,3.64194 -13.350124,13.34117 -13.350124,16.74755 0,2.75769 1.341258,3.01815 3.312285,0.6432 1.782224,-2.14743 6.873003,-4.80791 9.199879,-4.80791 1.42277,0 1.21753,0.66456 -1.030452,3.33613 -1.543955,1.83488 -2.807183,3.70214 -2.807183,4.14947 0,0.44732 1.537889,0.5876 3.417565,0.31175 3.39659,-0.49852 3.40655,-0.48592 1.62645,2.05553 -3.808736,5.43776 -1.1729,10.7491 5.33442,10.7491 3.54666,0 8.05492,-2.99104 8.05492,-5.34411 0,-0.97823 -2.9816,-4.41472 -3.83033,-4.41472 -0.23237,0 -1.39183,1.04051 -2.57662,2.31224 l -2.15418,2.31222 -0.75464,-3.00666 c -1.15086,-4.58549 0.76386,-8.40538 5.54523,-11.06265 2.37195,-1.31824 5.7651,-3.21773 7.54027,-4.22108 3.79112,-2.14282 13.11308,-2.42058 16.70589,-0.49778 2.6421,1.41402 5.54789,7.16663 5.54789,10.98315 0,1.27087 0.81534,4.02885 1.81185,6.12885 1.92349,4.05345 6.81129,6.90451 10.28123,5.99711 2.61322,-0.68337 3.73846,-5.22701 2.26274,-9.13662 -1.06926,-2.83284 -0.96005,-3.06171 1.46092,-3.06171 1.43917,0 2.61662,-0.51125 2.61662,-1.13609 0,-0.62486 -1.34183,-2.40427 -2.98185,-3.95427 l -2.98189,-2.81818 3.75588,0.72059 c 2.06573,0.39633 5.02008,1.93177 6.56523,3.41211 3.586,3.4356 5.80821,3.55196 4.80874,0.25183 -1.94587,-6.42527 -8.06374,-13.30653 -16.7563,-18.84721 l -4.87943,-3.11016 34.14592,-0.28687 c 18.78027,-0.15778 34.69356,-0.0768 35.36292,0.18011 0.66932,0.25684 3.47949,5.86024 6.24475,12.45199 2.7653,6.59174 5.02783,12.22156 5.02783,12.5107 0,0.28913 -2.5617,-0.66692 -5.69264,-2.12459 -6.60154,-3.07346 -15.33511,-3.55424 -18.92235,-1.04166 -6.02894,4.22283 -5.38404,16.15666 1.08627,20.10185 1.99828,1.21842 5.42261,2.11685 8.07725,2.11918 l 4.60834,0.004 -0.0328,17.62011 -0.0328,17.6201 -2.60293,-4.33725 c -5.08216,-8.46852 -8.50043,-12.69358 -12.77432,-15.78958 -5.72083,-4.14415 -10.81202,-5.07724 -14.50388,-2.65823 -2.60248,1.70522 -2.79177,2.33278 -2.34151,7.76253 0.38974,4.69952 1.38573,7.17765 4.87137,12.12026 l 4.38146,6.21291 -8.05923,6.86852 c -4.43256,3.77768 -8.18946,6.69232 -8.34868,6.477 -0.15942,-0.21516 -1.13749,-2.68088 -2.17397,-5.47904 -2.72878,-7.36681 -6.14131,-11.96026 -10.72039,-14.4301 -3.15958,-1.70421 -4.42957,-1.90591 -5.93017,-0.94186 -3.06533,1.96931 -2.33212,8.89287 1.62231,15.3197 2.05857,3.34557 3.14611,6.32082 2.79764,7.65343 -0.74001,2.8298 1.72103,4.12463 10.53859,5.54465 8.8151,1.41966 12.92665,5.08873 13.73457,12.25648 0.48416,4.29552 0.16147,5.28065 -2.7973,8.53531 l -3.34466,3.67936 -0.0328,-3.0357 c -0.0414,-3.96312 -2.72096,-9.0559 -5.56556,-10.57826 -3.03357,-1.6235 -7.17066,-0.44777 -8.03779,2.28429 -0.41421,1.30507 0.0123,3.31393 1.03705,4.8769 1.67919,2.56276 1.64964,2.65768 -0.82636,2.65768 -3.03345,0 -5.58945,-2.63313 -6.57236,-6.77059 -0.38892,-1.63653 -1.06422,-2.87472 -1.501,-2.75153 -0.43683,0.12336 -1.87534,-0.37581 -3.19672,-1.10893 -2.33273,-1.29417 -2.31327,-1.13537 0.66956,5.46228 1.68965,3.73739 7.59572,16.79806 13.12464,29.02371 13.76408,30.43554 15.18501,33.63185 14.88928,33.49218 -0.14139,-0.0668 -3.91697,-2.04393 -8.38979,-4.39347 z"
         style="fill:#ffffff;stroke-width:1.08431435" />
      <g
         id="g4887">
        <path
           style="fill:#ffffff;stroke-width:1.08431435"
           d="m 10.11209,280.46242 c 1.16163,-1.9382 10.75969,-20.23599 21.32902,-40.66177 10.56929,-20.42578 19.74056,-37.13778 20.38062,-37.13778 1.89263,0 10.570843,5.4179 10.570843,6.59954 0,0.59755 -6.831163,14.30405 -15.180373,30.45886 -8.34926,16.1548 -15.18042,29.5516 -15.18042,29.77073 0,0.21925 6.09927,0.39834 13.55393,0.39834 15.471917,0 15.30635,-0.13319 10.82489,8.71056 l -2.72907,5.38552 H 30.84076 8 Z"
           id="path4880" />
        <path
           style="fill:#ffffff;stroke-width:1.08431435"
           d="m 199.5447,277.88781 c -1.48343,-3.35429 -2.69715,-6.52589 -2.69715,-7.04804 0,-0.52219 6.09931,-0.94943 13.55397,-0.94943 7.45465,0 13.55391,-0.29548 13.55391,-0.65682 0,-0.36105 -6.88763,-14.06476 -15.30581,-30.45226 -8.41823,-16.38745 -14.88346,-30.17731 -14.36717,-30.6441 0.51625,-0.46678 3.13438,-2.10672 5.81804,-3.64432 l 4.87944,-2.79558 13.16717,25.15096 c 7.24196,13.83301 16.92149,32.34808 21.51008,41.14458 L 248,283.98646 H 225.12092 202.2418 Z"
           id="path4878" />
        <path
           style="fill:#ffffff;stroke-width:1.08431435"
           d="m 107.93378,91.408086 c 0,-1.110377 20.02457,-39.425155 20.61561,-39.445645 0.30572,-0.0107 5.06139,9.00765 10.56826,20.040546 l 10.01255,20.059815 h -8.0389 -8.0389 l -1.86349,-4.879415 c -1.02492,-2.683675 -2.18786,-4.879415 -2.5844,-4.879415 -0.3963,0 -1.78772,2.19574 -3.09152,4.879415 l -2.37064,4.879415 h -7.60428 c -4.18234,0 -7.60429,-0.29462 -7.60429,-0.654716 z"
           id="path4874" />
      </g>
    </g>
  </g>
</svg>
