<?xml version="1.0" encoding="UTF-8" standalone="no"?>
<!-- Created with Inkscape (http://www.inkscape.org/) -->

<svg
   xmlns:dc="http://purl.org/dc/elements/1.1/"
   xmlns:cc="http://creativecommons.org/ns#"
   xmlns:rdf="http://www.w3.org/1999/02/22-rdf-syntax-ns#"
   xmlns:svg="http://www.w3.org/2000/svg"
   xmlns="http://www.w3.org/2000/svg"
   xmlns:sodipodi="http://sodipodi.sourceforge.net/DTD/sodipodi-0.dtd"
   xmlns:inkscape="http://www.inkscape.org/namespaces/inkscape"
   width="256mm"
   height="256mm"
   viewBox="0 0 256 256"
   version="1.1"
   id="svg8"
   inkscape:version="0.92.5 (2060ec1f9f, 2020-04-08)"
   sodipodi:docname="terran_alt.svg">
  <defs
     id="defs2" />
  <sodipodi:namedview
     id="base"
     pagecolor="#ffffff"
     bordercolor="#666666"
     borderopacity="1.0"
     inkscape:pageopacity="0.0"
     inkscape:pageshadow="2"
     inkscape:zoom="1.4"
     inkscape:cx="377.33549"
     inkscape:cy="539.79804"
     inkscape:document-units="mm"
     inkscape:current-layer="layer1"
     showgrid="false"
     inkscape:window-width="3840"
     inkscape:window-height="2056"
     inkscape:window-x="0"
     inkscape:window-y="50"
     inkscape:window-maximized="1" />
  <metadata
     id="metadata5">
    <rdf:RDF>
      <cc:Work
         rdf:about="">
        <dc:format>image/svg+xml</dc:format>
        <dc:type
           rdf:resource="http://purl.org/dc/dcmitype/StillImage" />
        <dc:title></dc:title>
      </cc:Work>
    </rdf:RDF>
  </metadata>
  <g
     inkscape:label="Layer 1"
     inkscape:groupmode="layer"
     id="layer1"
     transform="translate(0,-41)">
    <rect
       style="fill:#000000;fill-opacity:1;stroke:none;stroke-width:0.73613685;stroke-miterlimit:4;stroke-dasharray:none;stroke-opacity:1;paint-order:stroke fill markers"
       id="rect4747"
       width="256"
       height="256"
       x="-1.4210855e-14"
       y="41" />
    <path
       style="fill:#ffffff;stroke-width:1.30890226"
       d="m 60.269665,276.73078 c 0.412087,-0.99811 8.75219,-19.43842 18.533215,-40.97849 9.781025,-21.54012 17.78369,-39.46021 17.78369,-39.82248 0,-0.36227 -1.409112,0.6651 -3.131273,2.28302 -2.33124,2.19009 -3.30813,2.4992 -3.823413,1.20984 -0.380427,-0.95251 -0.738592,-0.11205 -0.795433,1.86763 -0.05689,1.97972 -1.281331,4.77752 -2.721115,6.2173 -1.439785,1.43979 -3.795809,2.61782 -5.235593,2.61782 -2.760592,0 -3.522336,-1.90431 -1.308935,-3.27226 0.719892,-0.44474 1.308935,-2.25936 1.308935,-4.03204 0,-2.17067 -1.072121,-3.71155 -3.283444,-4.7191 -2.532881,-1.15405 -4.01333,-1.10542 -6.476309,0.21272 -1.756048,0.93982 -4.107026,3.9936 -5.224412,6.78618 -1.117386,2.7926 -2.031598,6.04033 -2.031598,7.21718 0,1.91761 -0.266645,1.89842 -2.568499,-0.18502 -1.412724,-1.27847 -3.194843,-4.2222 -3.960346,-6.54166 -1.031753,-3.12621 -0.959824,-5.52776 0.278023,-9.28342 1.0133,-3.07457 3.315006,-6.1733 5.854763,-7.88227 2.43864,-1.64088 7.42416,-3.18248 11.946885,-3.69418 5.056312,-0.57206 8.53185,-1.72899 9.970892,-3.31917 1.386702,-1.53224 1.708754,-2.75025 0.865137,-3.27165 -0.823186,-0.50876 0.411593,-4.02481 3.186977,-9.07373 2.492018,-4.53371 4.530987,-10.03634 4.530987,-12.22807 0,-2.19173 -0.875872,-4.71186 -1.946361,-5.60029 -1.102495,-0.91498 -3.350229,-1.26299 -5.184341,-0.80266 -1.780833,0.44696 -5.247515,2.88189 -7.703716,5.41093 -3.761229,3.87284 -6.608147,9.48711 -9.484352,18.70361 -0.409614,1.31213 -1.408865,1.09765 -4.144475,-0.88939 -1.982671,-1.44018 -6.495651,-5.18958 -10.028772,-8.332 l -6.423919,-5.71351 4.772649,-6.93824 c 2.624994,-3.81604 5.445743,-9.18471 6.268335,-11.93038 0.822642,-2.74568 1.116991,-6.50101 0.654146,-8.34519 -0.463042,-1.84418 -2.074637,-4.01298 -3.58175,-4.81955 -1.507064,-0.80657 -4.635666,-1.11091 -6.952411,-0.67628 -7.353365,1.3795 -15.710195,7.78079 -21.155735,16.2052 -2.81358,4.35265 -5.81722,8.98954 -6.67473,10.3042 -1.24211,1.90429 -1.57479,-1.90156 -1.63614,-18.71727 l -0.0772,-21.10758 7.28396,-0.60405 c 5.5806,-0.46279 8.07163,-1.3917 10.65215,-3.97224 2.44769,-2.44766 3.54158,-5.1723 4.00249,-9.969189 0.57821,-6.017619 0.28198,-6.953306 -3.3525,-10.587757 -3.45451,-3.454508 -4.9177,-3.983612 -10.95921,-3.963067 -5.21912,0.01781 -8.71623,0.985053 -13.90695,3.846693 -6.6631095,3.673325 -6.8990295,3.710972 -6.0263795,0.961589 0.49946,-1.573764 3.4278495,-8.753086 6.5074295,-15.95404 l 5.5993,-13.092643 42.966408,-0.26091 c 33.810145,-0.2053 42.447465,0.0736 40.531235,1.3089 -1.33931,0.86341 -5.066258,3.275346 -8.282076,5.359867 -6.782233,4.396274 -16.115255,16.104445 -16.115255,20.216364 0,1.554352 0.516916,2.826091 1.148652,2.826091 0.631736,0 1.914105,-0.922345 2.849688,-2.04966 2.151366,-2.592215 8.296569,-5.803754 11.105395,-5.803754 1.717461,0 1.469714,0.802211 -1.243882,4.027132 -1.863745,2.214925 -3.388618,4.468936 -3.388618,5.008919 0,0.539979 1.856423,0.709316 4.125429,0.376321 4.100101,-0.601767 4.112122,-0.58656 1.963329,2.481283 -1.189118,1.697723 -2.162051,4.386153 -2.162051,5.974293 0,1.588138 0.92559,3.813108 2.056828,4.944368 2.924537,2.92451 10.474801,2.61422 13.650001,-0.56096 1.43978,-1.43979 2.61782,-3.16474 2.61782,-3.83321 0,-1.180845 -3.59916,-5.329105 -4.62369,-5.329105 -0.2805,0 -1.68012,1.256017 -3.1103,2.79115 l -2.60036,2.791145 -0.91095,-3.629409 c -0.50098,-1.996177 -0.37102,-5.166463 0.28842,-7.045079 0.66938,-1.906408 3.49967,-4.69409 6.40531,-6.308916 2.86325,-1.591287 6.95919,-3.884202 9.10205,-5.095369 4.57635,-2.586659 15.82912,-2.921949 20.16608,-0.600881 3.18935,1.706889 6.697,8.651009 6.697,13.258027 0,1.534089 0.985,4.865005 2.18891,7.402031 1.36597,2.878526 3.79897,5.285496 6.47136,6.402096 2.35533,0.98412 5.20393,1.4357 6.33027,1.00349 1.12629,-0.43222 2.42974,-2.30751 2.89654,-4.16736 0.53794,-2.143428 0.0445,-4.782214 -1.34683,-7.207057 l -2.19554,-3.825505 3.95332,0.580223 c 2.17432,0.319133 3.95332,0.138418 3.95332,-0.401551 0,-0.539983 -1.52487,-2.793995 -3.38862,-5.00892 -2.71359,-3.22492 -2.96134,-4.027131 -1.24388,-4.027131 2.80883,0 8.95403,3.211539 11.1054,5.803754 0.93558,1.127315 2.21795,2.049659 2.84968,2.049659 0.63174,0 1.14866,-1.271738 1.14866,-2.826091 0,-4.111918 -9.33303,-15.820089 -16.11526,-20.216364 -3.21582,-2.084521 -6.94276,-4.496461 -8.28207,-5.359871 -1.91624,-1.23528 6.72108,-1.51421 40.53124,-1.3089 l 42.96641,0.26091 5.59929,13.092648 c 3.07958,7.200954 6.00798,14.380275 6.50743,15.95404 0.87266,2.749383 0.63673,2.711736 -6.02633,-0.961589 -5.19077,-2.861641 -8.68788,-3.828944 -13.907,-3.846694 -6.04151,-0.02078 -7.50469,0.50856 -10.95921,3.963068 -3.63443,3.634451 -3.93071,4.570137 -3.3525,10.587757 0.46106,4.796894 1.55485,7.521524 4.00249,9.969184 2.58053,2.58054 5.07155,3.50947 10.65215,3.97225 l 7.28396,0.60404 -0.0772,21.10758 c -0.0613,16.81571 -0.39375,20.62156 -1.6361,18.71727 -0.85752,-1.31465 -3.86116,-5.95155 -6.67469,-10.30419 -5.44554,-8.42441 -13.80241,-14.82571 -21.15578,-16.20521 -2.31675,-0.43465 -5.4453,-0.13026 -6.95241,0.67628 -1.50707,0.80658 -3.11886,2.97538 -3.58175,4.81955 -0.46305,1.84418 -0.1687,5.59951 0.65414,8.34519 0.8226,2.74568 3.64339,8.11435 6.26834,11.93039 l 4.7727,6.93824 -6.42392,5.7135 c -3.53317,3.14243 -8.04615,6.89183 -10.02882,8.332 -2.73556,1.98705 -3.73501,2.20152 -4.14448,0.88939 -2.87616,-9.21649 -5.72308,-14.83077 -9.48436,-18.70361 -2.45615,-2.52904 -5.92283,-4.96395 -7.70371,-5.41092 -1.83411,-0.46033 -4.08185,-0.1123 -5.18434,0.80265 -1.07049,0.88843 -1.94636,3.40857 -1.94636,5.6003 0,2.19173 2.03897,7.69436 4.53098,12.22806 2.77524,5.04892 4.01022,8.56498 3.18698,9.07373 -0.84362,0.5214 -0.52152,1.73942 0.86514,3.27166 1.43904,1.59017 4.91458,2.74711 9.97089,3.31916 4.52277,0.5117 9.5083,2.0533 11.94689,3.69418 2.53981,1.70897 4.84146,4.8077 5.85481,7.88228 1.23775,3.75566 1.30968,6.1572 0.27803,9.28344 -0.76546,2.31941 -2.54763,5.26314 -3.9603,6.54166 -2.30191,2.08314 -2.56855,2.10234 -2.56855,0.18501 0,-1.17684 -0.91421,-4.42457 -2.0316,-7.21717 -1.11734,-2.7926 -3.46836,-5.84639 -5.22442,-6.78621 -2.46297,-1.31814 -3.94342,-1.36677 -6.47625,-0.21272 -2.21138,1.00755 -3.28345,2.54844 -3.28345,4.7191 0,1.77271 0.58899,3.58708 1.30889,4.03202 2.2134,1.36795 1.45165,3.27226 -1.30889,3.27226 -1.43978,0 -3.79581,-1.17799 -5.23564,-2.61782 -1.43979,-1.43978 -2.66427,-4.23755 -2.72112,-6.21727 -0.0569,-1.97971 -0.41456,-2.82015 -0.79543,-1.86763 -0.51528,1.28936 -1.49212,0.98025 -3.82336,-1.20985 -1.72221,-1.61792 -3.13133,-2.6369 -3.13133,-2.26439 0,0.37252 8.23483,18.84384 18.29957,41.04736 10.06474,22.20357 18.15388,40.5158 17.97579,40.69385 -0.17809,0.17809 -4.43704,-1.71182 -9.46446,-4.19979 -6.44708,-3.19049 -11.64785,-4.73836 -17.64855,-5.25266 -5.27413,-0.45215 -11.85808,-0.005 -17.32218,1.17453 l -8.81432,1.90372 -3.03892,-6.70759 c -1.6714,-3.68915 -4.75686,-10.68331 -6.85653,-15.54264 -2.09972,-4.85927 -4.14453,-8.83505 -4.54405,-8.83505 -0.39923,0 -2.44428,3.97578 -4.544,8.83505 -2.09967,4.85933 -5.18513,11.85349 -6.85654,15.54264 l -3.03891,6.70759 -8.81432,-1.90372 c -12.473797,-2.69406 -23.459375,-1.4806 -34.208583,3.77869 -4.750437,2.32426 -9.172787,4.48003 -9.827428,4.79051 -0.654641,0.31067 -0.852967,-0.2523 -0.440781,-1.25012 z"
       id="path4950"
       inkscape:connector-curvature="0" />
  </g>
</svg>
