<?xml version="1.0" encoding="UTF-8" standalone="no"?>
<!-- Created with Inkscape (http://www.inkscape.org/) -->

<svg
   xmlns:dc="http://purl.org/dc/elements/1.1/"
   xmlns:cc="http://creativecommons.org/ns#"
   xmlns:rdf="http://www.w3.org/1999/02/22-rdf-syntax-ns#"
   xmlns:svg="http://www.w3.org/2000/svg"
   xmlns="http://www.w3.org/2000/svg"
   xmlns:sodipodi="http://sodipodi.sourceforge.net/DTD/sodipodi-0.dtd"
   xmlns:inkscape="http://www.inkscape.org/namespaces/inkscape"
   version="1.1"
   id="svg2"
   xml:space="preserve"
   width="800"
   height="800"
   viewBox="0 0 800 800"
   sodipodi:docname="avengers.svg"
   inkscape:version="0.92.4 5da689c313, 2019-01-14"><metadata
     id="metadata8"><rdf:RDF><cc:Work
         rdf:about=""><dc:format>image/svg+xml</dc:format><dc:type
           rdf:resource="http://purl.org/dc/dcmitype/StillImage" /><dc:title></dc:title></cc:Work></rdf:RDF></metadata><defs
     id="defs6"><clipPath
       clipPathUnits="userSpaceOnUse"
       id="clipPath18"><path
         d="M 0,612 H 792 V 0 H 0 Z"
         id="path16"
         inkscape:connector-curvature="0" /></clipPath></defs><sodipodi:namedview
     pagecolor="#ffffff"
     bordercolor="#666666"
     borderopacity="1"
     objecttolerance="10"
     gridtolerance="10"
     guidetolerance="10"
     inkscape:pageopacity="0"
     inkscape:pageshadow="2"
     inkscape:window-width="2560"
     inkscape:window-height="1386"
     id="namedview4"
     showgrid="false"
     inkscape:zoom="0.81802549"
     inkscape:cx="539.1012"
     inkscape:cy="402.9986"
     inkscape:window-x="0"
     inkscape:window-y="28"
     inkscape:window-maximized="1"
     inkscape:current-layer="g20" /><g
     id="g10"
     inkscape:groupmode="layer"
     inkscape:label="avengers"
     transform="matrix(1.3333333,0,0,-1.3333333,0,800)"><g
       id="g12"
       transform="matrix(2.3589357,0,0,2.3589357,-635.59211,-402.00628)"><g
         id="g14"
         clip-path="url(#clipPath18)"><g
           id="g20"
           transform="translate(392.4902,373.438)"><path
             d="m 0,4.7690972 c -42.332,-2.172 -75.995,-37.5769992 -75.995,-80.9309992 0,-14.627 3.832,-28.348998 10.535,-40.194998 l -8.118,-15.765 c -11.13,15.782 -17.678,35.097998 -17.678,55.959998 0,53.278 42.704,96.473 95.382,96.473 0.753,0 1.504,-0.009 2.252,-0.027 l 13.778,28.079 H 49.59 V 8.6660976 C 79.323,-7.6699028 99.508,-39.532902 99.508,-76.161902 99.508,-129.4409 56.804,-172.6349 4.126,-172.6349 c -16.079,0 -31.229,4.025 -44.519,11.132 l 6.712,13.875 c 11.262,-6.107 24.134,-9.571 37.807,-9.571 44.249,0 80.121,36.282 80.121,81.036998 0,27.971 -14.013,52.633 -35.325,67.1969992 V -85.659902 l -26.898,25.442 V -2.0889028 L -11.193,-80.979902 h 33.217 v 12.665 l 31.141,-29.275 -32.179,-24.704998 v 13.079 h -43.805 l -28.855,-65.189 -35.709,0.699 z"
             style="fill:#000000;fill-opacity:1;fill-rule:nonzero;stroke:none"
             id="path22"
             inkscape:connector-curvature="0" /></g><g
           id="g24"
           transform="translate(413.4443,237.3955)"><path
             d="M 0,0 27.915,23.914 V 0 Z"
             style="fill:#000000;fill-opacity:1;fill-rule:nonzero;stroke:none"
             id="path26"
             inkscape:connector-curvature="0" /></g></g></g></g></svg>