<?xml version="1.0" encoding="UTF-8" standalone="no"?>
<svg
   viewBox="0 0 512 512"
   style="height: 512px; width: 512px;"
   version="1.1"
   id="svg2"
   sodipodi:docname="ui_t7su21hc77vi.svg"
   inkscape:version="1.3 (0e150ed6c4, 2023-07-21)"
   xmlns:inkscape="http://www.inkscape.org/namespaces/inkscape"
   xmlns:sodipodi="http://sodipodi.sourceforge.net/DTD/sodipodi-0.dtd"
   xmlns="http://www.w3.org/2000/svg"
   xmlns:svg="http://www.w3.org/2000/svg">
  <defs
     id="defs2" />
  <sodipodi:namedview
     id="namedview2"
     pagecolor="#ffffff"
     bordercolor="#666666"
     borderopacity="1.0"
     inkscape:showpageshadow="2"
     inkscape:pageopacity="0.0"
     inkscape:pagecheckerboard="0"
     inkscape:deskcolor="#d1d1d1"
     inkscape:zoom="1.1131408"
     inkscape:cx="139.69482"
     inkscape:cy="291.06831"
     inkscape:window-width="1920"
     inkscape:window-height="1011"
     inkscape:window-x="0"
     inkscape:window-y="32"
     inkscape:window-maximized="1"
     inkscape:current-layer="svg2" />
  <path
     d="M0 0h512v512H0z"
     fill="#000"
     fill-opacity="1"
     id="path1" />
  <path
     style="fill:#f9f9f9;stroke-width:2.83973"
     d="m 237.25975,490.26469 c -8.54117,-0.70056 -23.52112,-2.99457 -31.70364,-4.85506 l -5.16262,-1.17384 V 379.52445 274.81311 l 84.7272,-0.22402 c 84.71649,-0.22402 84.72797,-0.2243 90.57644,-1.87836 27.65954,-7.82296 47.31071,-29.22267 53.30204,-58.04481 2.14737,-10.33021 1.60524,-26.13234 -1.22416,-35.68323 -7.97397,-26.91655 -28.0578,-47.53612 -54.32264,-55.7717 l -6.61028,-2.07274 H 252.24429 137.64651 l -5.63596,1.76192 c -7.30239,2.28287 -17.21955,7.22089 -24.58106,12.23957 -10.57928,7.2124 -24.370486,22.23506 -31.897835,34.74612 l -2.761276,4.58948 144.405731,0.3756 144.40576,0.37561 4.03099,2.23196 c 7.69135,4.2587 12.33346,12.15121 12.41565,21.10914 0.09,9.81503 -5.9718,18.68778 -15.10014,22.10207 -3.96138,1.48168 -5.74492,1.50849 -100.43116,1.50849 -106.41035,0 -101.54684,-0.21409 -106.18842,4.67456 -1.28569,1.35414 -2.96725,3.64527 -3.73681,5.09137 -1.34457,2.52668 -1.40697,7.13701 -1.59871,118.13035 -0.10974,63.52559 -0.40627,115.50105 -0.65895,115.50105 -2.04552,0 -25.10401,-14.21772 -34.22256,-21.10142 C 72.495346,411.56275 42.347262,366.90632 28.647417,314.94847 15.36849,264.58701 19.445215,211.8284 40.389137,162.99391 56.733183,124.88486 84.142593,90.792387 118.57132,65.749165 161.83083,34.282464 217.0405,18.052764 269.29398,21.441984 c 71.38559,4.6302 135.14047,39.605105 176.94103,97.066986 21.41043,29.43218 35.39229,62.87612 41.5989,99.50251 9.5422,56.31032 -2.67589,115.32364 -34.0691,164.55355 -17.79101,27.89932 -44.5467,54.37691 -73.09926,72.33951 -42.35729,26.64719 -94.0958,39.40456 -143.4058,35.36015 z M 381.11984,372.19887 c 18.24,-5.64091 36.10099,-17.69297 49.15513,-33.16847 5.43864,-6.44741 12.19673,-16.15699 11.74932,-16.88066 -0.14854,-0.24021 -47.05223,-0.43624 -104.23041,-0.43544 l -103.96038,0.002 -0.19807,25.53673 c -0.10896,14.04519 -0.0306,25.97311 0.17416,26.50648 0.30123,0.78474 13.74203,0.92793 70.45967,0.75064 l 70.08743,-0.21919 z"
     id="path1-6" />
</svg>
