<?xml version="1.0" encoding="UTF-8" standalone="no"?>
<svg
   xmlns:dc="http://purl.org/dc/elements/1.1/"
   xmlns:cc="http://creativecommons.org/ns#"
   xmlns:rdf="http://www.w3.org/1999/02/22-rdf-syntax-ns#"
   xmlns:svg="http://www.w3.org/2000/svg"
   xmlns="http://www.w3.org/2000/svg"
   xmlns:sodipodi="http://sodipodi.sourceforge.net/DTD/sodipodi-0.dtd"
   xmlns:inkscape="http://www.inkscape.org/namespaces/inkscape"
   viewBox="0 0 2000 2000"
   width="2000"
   height="2000"
   version="1.1"
   id="svg6"
   sodipodi:docname="bitcoin.svg"
   inkscape:version="0.92.4 5da689c313, 2019-01-14">
  <metadata
     id="metadata12">
    <rdf:RDF>
      <cc:Work
         rdf:about="">
        <dc:format>image/svg+xml</dc:format>
        <dc:type
           rdf:resource="http://purl.org/dc/dcmitype/StillImage" />
      </cc:Work>
    </rdf:RDF>
  </metadata>
  <defs
     id="defs10" />
  <sodipodi:namedview
     pagecolor="#ffffff"
     bordercolor="#666666"
     borderopacity="1"
     objecttolerance="10"
     gridtolerance="10"
     guidetolerance="10"
     inkscape:pageopacity="0"
     inkscape:pageshadow="2"
     inkscape:window-width="2560"
     inkscape:window-height="1386"
     id="namedview8"
     showgrid="false"
     inkscape:zoom="0.3337544"
     inkscape:cx="326.24979"
     inkscape:cy="1396.0547"
     inkscape:window-x="0"
     inkscape:window-y="28"
     inkscape:window-maximized="1"
     inkscape:current-layer="svg6" />
  <path
     d="M 1897.2789,1223.8544 C 1773.807,1719.3512 1271.7981,2020.9265 776.15332,1897.2697 280.50851,1773.6128 -20.928108,1271.8537 102.73796,776.3106 226.40403,280.76756 728.16322,-20.946578 1223.6971,102.72874 c 495.5338,123.67533 797.2478,625.46227 673.5818,1121.12566 z"
     id="path2"
     style="fill:#000000;stroke-width:0.92502105"
     inkscape:connector-curvature="0" />
  <path
     d="M1441,857.53c19.88-133.07-81.44-204.61-220-252.33l45-180.25-109.76-27.34-43.84,175.51c-28.82-7.18-58.44-14-87.88-20.68l44-176.67L958.87,348.43,914,528.61,692.68,473.79,663.48,591s81.42,18.66,79.7,19.82c44.44,11.1,52.5,40.5,51.14,63.82l-123.14,493.8c-5.44,13.5-19.22,33.74-50.28,26,1.1,1.6-79.76-20-79.76-20l-54.48,125.79,221,55.8-45.42,182.35,109.6,27.34,45-180.39c30,8.12,59,15.62,87.42,22.68l-44.82,179.55,109.74,27.34,45.42-182c187.13,35.4,327.85,21.12,387-148,47.72-136.25-2.34-214.85-100.8-266.13,71.7-16.6,125.7-63.74,140.11-161.17m-250.71,351.52c-34,136.25-263.35,62.62-337.77,44.12l60.26-241.55c74.38,18.56,312.89,55.32,277.55,197.41m34-353.5c-30.94,124-221.91,61-283.89,45.54L994.91,682c62,15.48,261.51,44.3,229.25,173.59"
     fill="#fff"
     id="path4" />
</svg>
