<?xml version="1.0" encoding="UTF-8" standalone="no"?>
<!-- Created with Inkscape (http://www.inkscape.org/) -->

<svg
   xmlns:dc="http://purl.org/dc/elements/1.1/"
   xmlns:cc="http://creativecommons.org/ns#"
   xmlns:rdf="http://www.w3.org/1999/02/22-rdf-syntax-ns#"
   xmlns:svg="http://www.w3.org/2000/svg"
   xmlns="http://www.w3.org/2000/svg"
   xmlns:sodipodi="http://sodipodi.sourceforge.net/DTD/sodipodi-0.dtd"
   xmlns:inkscape="http://www.inkscape.org/namespaces/inkscape"
   width="256mm"
   height="256mm"
   viewBox="0 0 256 256"
   version="1.1"
   id="svg8"
   inkscape:version="0.92.5 (2060ec1f9f, 2020-04-08)"
   sodipodi:docname="draco.svg">
  <defs
     id="defs2" />
  <sodipodi:namedview
     id="base"
     pagecolor="#ffffff"
     bordercolor="#666666"
     borderopacity="1.0"
     inkscape:pageopacity="0.0"
     inkscape:pageshadow="2"
     inkscape:zoom="0.98994949"
     inkscape:cx="404.36548"
     inkscape:cy="694.29152"
     inkscape:document-units="mm"
     inkscape:current-layer="layer1"
     showgrid="false"
     inkscape:window-width="3840"
     inkscape:window-height="2056"
     inkscape:window-x="0"
     inkscape:window-y="50"
     inkscape:window-maximized="1" />
  <metadata
     id="metadata5">
    <rdf:RDF>
      <cc:Work
         rdf:about="">
        <dc:format>image/svg+xml</dc:format>
        <dc:type
           rdf:resource="http://purl.org/dc/dcmitype/StillImage" />
        <dc:title />
      </cc:Work>
    </rdf:RDF>
  </metadata>
  <g
     inkscape:label="Layer 1"
     inkscape:groupmode="layer"
     id="layer1"
     transform="translate(0,-41)">
    <rect
       style="fill:#000000;fill-opacity:1;stroke:none;stroke-width:0.32538173;stroke-opacity:1"
       id="rect816"
       width="256"
       height="256"
       x="0"
       y="41" />
    <path
       style="fill:#ffffff;stroke-width:1.17283475"
       d="m 113.10521,283.97777 c -3.39397,-6.98581 -7.97874,-12.13043 -12.08656,-13.56243 -5.141156,-1.79221 -5.418288,0.44718 -0.36438,2.94424 2.74977,1.3586 5.79327,4.42363 8.25157,8.30997 l 3.89489,6.15737 -3.25967,-0.059 c -1.79282,-0.031 -6.95411,-1.23767 -11.469523,-2.67815 l -8.209845,-2.61905 -0.96756,-5.82486 c -0.532155,-3.2037 -1.220168,-7.56354 -1.528913,-9.68847 -0.60051,-4.13307 -6.692234,-11.96823 -8.162206,-10.49824 -0.485892,0.48587 0.274744,2.11628 1.690329,3.62311 3.110025,3.31043 4.863427,8.98348 4.863427,15.73524 v 5.01204 l -5.582152,-2.82866 C 69.943852,272.81657 69.610438,272.26181 68.72346,258.94783 l -0.79099,-11.87315 4.940028,-3.96015 c 6.432234,-5.15631 18.318959,-19.95992 21.487769,-26.76066 1.370407,-2.9411 2.57292,-5.5062 2.672265,-5.70013 0.09934,-0.19416 3.056778,2.52344 6.572078,6.03871 10.41958,10.4196 23.84852,15.99708 38.44826,15.96885 9.87208,-0.0177 16.51404,-1.60454 25.18771,-6.01216 6.89923,-3.50596 7.08803,-3.53332 10.75547,-1.55825 7.6838,4.13803 17.09677,20.58148 18.77004,32.7893 0.64768,4.72538 0.45849,5.09485 -5.02945,9.8227 -3.13636,2.70194 -11.01258,7.56397 -17.50263,10.80445 -11.43519,5.70963 -11.90679,5.83627 -15.24688,4.0945 -4.40736,-2.2983 -11.77452,-2.37844 -12.63443,-0.13741 -0.50406,1.31342 0.19858,1.53772 3.26118,1.04076 2.14701,-0.34841 4.86393,-0.0962 6.03768,0.56079 1.83663,1.02782 1.48725,1.36259 -2.50703,2.40198 -2.55261,0.66421 -7.10119,1.55856 -10.10797,1.98743 -4.96896,0.70871 -5.64287,0.51114 -7.3989,-2.16886 -1.82826,-2.79029 -8.26175,-6.66918 -11.06138,-6.66918 -0.70882,0 -1.28879,0.82281 -1.28879,1.82847 0,1.00566 0.41722,1.57062 0.92709,1.25549 1.35735,-0.83889 8.17891,2.71312 8.92011,4.64473 0.51265,1.33595 -1.11741,1.65396 -8.47747,1.65396 h -9.11217 z M 58.429285,263.10359 c -6.93091,-6.17746 -8.061991,-8.11603 -4.735288,-8.11603 1.072178,0 4.238833,-1.34172 7.037008,-2.98152 l 5.087591,-2.98157 v 8.16337 c 0,4.48987 0.320356,8.9982 0.711897,10.01853 1.255961,3.27297 -1.249267,2.00422 -8.101208,-4.10278 z m 140.232745,-8.65922 c -2.0302,-9.67902 -7.25173,-19.27201 -14.67647,-26.96365 -4.55777,-4.72151 -6.35472,-7.36742 -5.55009,-8.17206 1.94036,-1.9404 9.03397,2.67034 13.52875,8.79345 8.54383,11.63901 13.60844,28.015 9.6741,31.28022 -1.36844,1.13572 -1.88055,0.28591 -2.97629,-4.93796 z m 6.40397,-4.14499 c -1.00513,-7.49381 -7.27571,-19.43238 -13.86728,-26.40197 -3.35019,-3.5423 -6.80632,-6.44058 -7.68038,-6.44058 -2.28318,0 -2.00515,-0.8929 1.77333,-5.69539 20.84391,-26.49289 13.17784,-63.66013 -16.84028,-81.64646 -6.35535,-3.80805 -6.76235,-4.27987 -4.25696,-4.93508 5.63922,-1.47469 14.81403,-6.88856 15.19901,-8.96863 0.21809,-1.17756 -0.57374,-2.87606 -1.75927,-3.77441 -2.01709,-1.5285 -1.95631,-1.63582 0.94621,-1.6707 1.70599,-0.0222 6.65663,-1.13528 11.00149,-2.47725 l 7.89967,-2.43997 5.19418,5.07883 c 2.87119,2.80745 7.13018,8.98455 9.52317,13.81196 4.15718,8.38656 4.34521,9.29838 4.73769,22.97744 0.29699,10.35542 -0.10329,16.24217 -1.46605,21.5621 -3.10146,12.10619 -2.73001,12.90678 3.37679,7.27771 5.9395,-5.47486 8.23274,-6.02036 9.25609,-2.20185 2.15916,8.05695 -0.26729,20.49112 -5.78763,29.65859 -5.45297,9.05561 -5.31648,10.05626 1.2491,9.15631 2.90276,-0.39806 5.27774,-0.4704 5.27774,-0.16134 0,1.65435 -4.78237,14.08204 -7.36344,19.13477 -2.78816,5.45827 -14.49553,22.84392 -15.38296,22.84392 -0.22076,0 -0.68438,-2.10969 -1.03022,-4.68819 z m -157.229565,1.3871 c -2.630534,-2.90675 -2.464855,-3.73594 0.746437,-3.73594 9.10721,0 34.28177,-23.62461 41.86319,-39.28574 2.197372,-4.53915 2.88624,-5.201 3.769867,-3.62201 3.864578,6.90558 -18.330098,35.96171 -33.809247,44.2613 -8.422312,4.51588 -10.314867,4.87453 -12.570247,2.38239 z m -5.663034,-6.96537 c -7.789984,-9.29111 -7.969612,-14.69456 -0.984335,-29.60996 5.660207,-12.08602 6.693798,-19.61121 3.17669,-23.12829 -1.715066,-1.71508 -1.816271,-1.32579 -1.202169,4.62426 0.60567,5.86835 0.202178,7.51375 -4.170492,17.00624 -2.66257,5.7801 -4.841037,11.0894 -4.841037,11.7985 0,0.70906 -0.483229,1.58786 -1.073845,1.9529 -1.287252,0.79555 -7.136001,-16.19243 -7.136001,-20.72689 0,-1.99997 2.87535,-7.39889 7.718022,-14.49175 7.716329,-11.30178 9.649292,-16.49454 8.236026,-22.12542 -1.259928,-5.01998 -2.594114,-3.35171 -2.528486,3.16161 0.05758,5.7168 -0.483424,6.94012 -7.561387,17.09709 l -7.623428,10.93969 -0.341987,-12.11252 c -0.188082,-6.66191 -0.05297,-13.27271 0.30032,-14.69066 0.353247,-1.41795 3.731995,-6.43185 7.508309,-11.14192 9.883726,-12.32773 12.047952,-17.20612 10.000406,-22.54192 -1.395478,-3.63655 -2.806607,-1.76668 -2.806607,3.71904 0,5.01195 -0.679064,6.4349 -6.732575,14.10767 -3.702912,4.69344 -6.922963,7.96234 -7.155665,7.26422 -0.797117,-2.39134 5.867797,-21.66441 10.463737,-30.2582 2.526612,-4.72444 7.075763,-11.81531 10.10923,-15.75754 l 5.515398,-7.16769 1.435057,5.62545 c 3.179798,12.46479 13.592824,23.35967 30.645373,32.06344 7.200172,3.67507 8.474572,4.75999 7.902187,6.72738 -3.637418,12.50247 -4.39479,20.10892 -2.859645,28.71978 2.59803,14.57266 2.237602,18.56276 -2.36241,26.15275 -4.473435,7.38113 -16.547241,21.28089 -20.168984,23.21917 -1.645069,0.88043 -2.767905,0.85916 -3.891983,-0.0736 -1.003245,-0.83265 -1.838988,-0.89192 -2.289827,-0.16224 -0.390482,0.63181 -0.173587,1.48024 0.482001,1.88539 0.655583,0.40516 1.191965,1.14946 1.191965,1.65391 0,0.83167 -10.648676,7.15421 -12.049345,7.15421 -0.324478,0 0.658012,-3.03471 2.18334,-6.74383 3.073223,-7.47301 3.52134,-12.73732 1.467903,-17.24411 -1.68362,-3.69514 -3.909495,-3.97348 -2.785928,-0.34841 1.992867,6.42985 1.914297,8.32601 -0.645468,15.57682 -3.20919,9.09044 -4.712512,10.75231 -7.124356,7.87573 z m 105.059379,-31.1011 c -0.0887,-22.9922 -14.68676,-39.88285 -50.961671,-58.96491 -22.185271,-11.67035 -32.135974,-18.99979 -37.117488,-27.33989 -4.944994,-8.27898 -6.709419,-21.2777 -2.888197,-21.2777 0.475148,0 0.995713,1.95715 1.156809,4.34925 0.620502,9.21358 6.99054,18.81139 17.705189,26.67666 3.080113,2.26102 13.19701,8.1339 22.48201,13.05085 28.085918,14.87311 41.824608,26.29789 48.322688,40.18391 3.11525,6.65717 3.61717,9.07759 3.676,17.72746 0.0354,5.50965 -0.47426,10.9299 -1.13727,12.04497 -0.90264,1.51821 -1.2136,-0.10196 -1.23807,-6.4506 z m 79.0669,-11.53959 c 3.51296,-6.84706 4.21259,-9.53434 4.64952,-17.8591 0.76244,-14.52577 -2.38385,-18.15354 -10.64341,-12.27224 -3.15067,2.24351 -3.51611,2.30481 -2.81276,0.47191 2.99542,-7.80605 3.63641,-26.62378 1.29896,-38.13544 -0.99324,-4.89151 4.05611,4.97847 7.74893,15.14688 4.85741,13.37527 6.2262,23.41641 5.53545,40.60626 -0.71572,17.81062 -1.3227,19.73878 -6.27963,19.94814 l -3.6323,0.15337 z M 89.582407,143.26605 C 70.469463,132.5819 61.18371,122.0181 60.171041,109.80664 c -0.524883,-6.32941 -0.442655,-6.58974 1.557841,-4.93242 1.988878,1.64774 2.06314,1.48892 1.274068,-2.72504 -0.927062,-4.95095 2.068886,-12.77624 6.387854,-16.684871 2.289002,-2.071515 2.286596,-1.996695 -0.110066,3.421379 -1.74239,3.938955 -2.213119,6.618914 -1.629403,9.276577 0.847872,3.860315 3.950756,8.946415 5.497484,9.011225 1.547743,0.0647 0.941492,-3.14309 -0.879628,-4.65449 -1.064581,-0.88349 -1.759253,-3.451078 -1.759253,-6.502418 0,-4.046534 1.063602,-6.623872 5.385721,-13.050756 6.825516,-10.149383 8.688298,-13.739828 8.688298,-16.746443 0,-5.260665 2.161507,-1.990927 2.868967,4.339898 0.53949,4.827674 0.135555,9.143369 -1.4217,15.1893 l -2.175314,8.445517 4.175737,0.350632 c 3.904777,0.328027 4.199355,0.63615 4.539742,4.748908 0.47604,5.751772 2.568083,5.703992 2.568083,-0.05852 0,-5.077414 -1.644908,-7.271584 -5.451315,-7.271584 -2.365988,0 -2.521523,-0.33069 -1.515825,-3.225278 0.61638,-1.773907 1.5657,-6.391957 2.1096,-10.262333 l 0.988912,-7.03701 0.911378,4.984553 c 1.272885,6.961785 3.453802,6.44976 2.519745,-0.59151 l -0.739695,-5.5761 6.745978,-2.586915 c 12.50728,-4.79616 11.45634,-4.695315 8.9444,-0.85827 -1.67487,2.558362 -2.20989,5.604112 -2.2466,12.789442 -0.0266,5.187218 -0.49539,11.486797 -1.04196,13.999021 -0.70618,3.245841 -0.61995,4.336652 0.29797,3.769349 2.19587,-1.357133 3.71088,-9.079979 3.71772,-18.951165 0.007,-10.029825 0.9917,-12.25614 5.42114,-12.25614 2.86704,0 4.03937,1.976745 2.78225,4.691325 -0.44808,0.967583 -1.78838,3.777863 -2.97842,6.245055 -2.46144,5.103038 -1.46184,8.154241 2.88255,8.798633 5.52487,0.819525 7.91161,-4.936417 3.68119,-8.87763 -2.2481,-2.094435 -2.17632,-2.176215 3.76096,-4.284968 4.30134,-1.527712 7.93408,-4.106512 12.55416,-8.911979 4.93983,-5.138018 8.61405,-7.660252 15.2976,-10.501344 4.83795,-2.056583 9.35193,-3.98355 10.03107,-4.282185 1.49987,-0.659505 0.76727,7.451919 -0.75823,8.394676 -0.56287,0.34797 -0.68986,4.578825 -0.28236,9.402022 0.6627,7.840005 0.53628,8.690828 -1.19263,8.027378 -1.07158,-0.41136 -1.93389,-0.168893 -1.93389,0.543142 0,0.706853 -4.2335,3.41376 -9.40773,6.015301 -11.16112,5.611702 -18.30992,11.725012 -21.24352,18.166342 -2.79983,6.147574 -2.73429,10.131294 0.22872,13.898034 2.38168,3.02784 2.57309,3.06167 13.19439,2.33239 5.92771,-0.40693 12.88882,-1.36321 15.46919,-2.12489 3.99839,-1.18022 5.18343,-1.08731 8.0209,0.62901 l 3.32935,2.0138 -5.67522,1.85015 c -3.12141,1.01758 -11.30567,2.40858 -18.18726,3.0911 -6.8816,0.68255 -15.45726,2.25432 -19.05706,3.49284 -11.97593,4.12034 -24.34111,13.93013 -26.02732,20.64855 -0.392258,1.5629 -1.051838,2.78585 -1.465703,2.71764 -0.413888,-0.0683 -4.5726,-2.25947 -9.241628,-4.86948 z M 109.7999,125.97571 c 3.74979,-1.29011 8.05462,-2.34568 9.56629,-2.34568 1.51166,0 2.74848,-0.52776 2.74848,-1.17282 0,-1.88898 -6.14021,-1.35505 -13.4876,1.17282 -7.58837,2.61081 -13.613178,2.9887 -17.183666,1.07783 -3.186892,-1.7056 -4.509375,-0.14141 -1.648897,1.95015 3.227707,2.36017 12.035433,2.05977 20.005393,-0.6823 z m 5.98656,-14.41689 c 1.35744,-2.06912 4.91993,-7.36583 7.91664,-11.770486 5.7688,-8.479073 6.71426,-12.83652 3.62136,-16.69014 -1.72717,-2.15193 -1.7988,-2.051798 -1.30813,1.82829 0.68353,5.405173 -1.30133,9.946536 -8.50787,19.466156 -5.48157,7.24101 -7.2645,11.10177 -5.06968,10.97791 0.48379,-0.0266 1.99026,-1.74256 3.34768,-3.81173 z m 43.78912,-52.299624 c 2.58515,-1.36041 2.87473,-3.654097 0.46074,-3.649177 -3.08231,0.0045 -9.77362,4.34619 -9.77362,6.339067 0,1.67793 2.24493,1.02951 9.31288,-2.68989 z m -28.46919,53.033424 c -0.42998,-0.42998 -0.7819,-1.15668 -0.7819,-1.61481 0,-1.28984 10.56736,-5.46887 16.12648,-6.37746 5.54459,-0.90623 6.79316,-2.97562 1.75927,-2.91587 -2.80416,0.0355 -10.69102,2.43519 -16.92051,5.15304 -1.58994,0.69364 -1.83813,0.36571 -1.29495,-1.71153 1.21791,-4.65719 7.58619,-6.241594 20.85434,-5.188502 15.6336,1.240862 34.22233,1.337542 39.28995,0.204349 4.08896,-0.914345 4.09308,-0.911109 1.05345,0.826003 -6.03685,3.45002 -30.47705,5.70421 -32.16878,2.96702 -0.47572,-0.76979 -1.26936,-0.82272 -2.12164,-0.1414 -0.74892,0.59851 -4.5283,1.98446 -8.39867,3.07988 -3.87033,1.09547 -8.78241,3.00639 -10.91572,4.24654 -4.18895,2.43509 -5.27282,2.68142 -6.48132,1.47288 z m 26.94202,-3.32302 c 0.37146,-0.96758 0.82604,-1.75923 1.01054,-1.75923 0.18439,0 0.63924,0.79165 1.01057,1.75923 0.40693,1.0609 0.005,1.75928 -1.01057,1.75928 -1.01648,0 -1.41761,-0.69838 -1.01054,-1.75928 z m -6.9081,-20.831227 c -1.9717,-3.009134 -1.96305,-3.176114 0.22428,-4.346632 2.77523,-1.48524 3.37808,-0.517305 2.49881,4.012132 l -0.67245,3.463808 z m -34.49594,-6.222802 c -0.38796,-1.010932 -0.14295,-2.400473 0.54439,-3.087818 1.82429,-1.8243 4.92591,-0.222968 4.92591,2.543431 0,2.892465 -4.40119,3.330472 -5.4703,0.544387 z m 5.44212,-13.476788 c -0.79875,-1.92834 -2.2992,-3.980047 -3.33434,-4.559317 -1.57374,-0.880703 -1.40443,-1.164975 1.03343,-1.735028 4.91868,-1.15017 20.02977,-4.193129 20.8227,-4.193129 1.7243,0 -8.87328,9.761519 -12.79703,11.787472 l -4.27251,2.20605 z"
       id="path826"
       inkscape:connector-curvature="0" />
  </g>
</svg>
