<?xml version="1.0" encoding="UTF-8" standalone="no"?>
<svg
   xmlns:dc="http://purl.org/dc/elements/1.1/"
   xmlns:cc="http://creativecommons.org/ns#"
   xmlns:rdf="http://www.w3.org/1999/02/22-rdf-syntax-ns#"
   xmlns:svg="http://www.w3.org/2000/svg"
   xmlns="http://www.w3.org/2000/svg"
   xmlns:sodipodi="http://sodipodi.sourceforge.net/DTD/sodipodi-0.dtd"
   xmlns:inkscape="http://www.inkscape.org/namespaces/inkscape"
   version="1.0"
   width="1280.000000pt"
   height="1188.000000pt"
   viewBox="0 0 1280.000000 1188.000000"
   preserveAspectRatio="xMidYMid meet"
   id="svg10"
   sodipodi:docname="1301943.svg"
   inkscape:version="0.92.4 5da689c313, 2019-01-14">
  <defs
     id="defs14" />
  <sodipodi:namedview
     pagecolor="#ffffff"
     bordercolor="#666666"
     borderopacity="1"
     objecttolerance="10"
     gridtolerance="10"
     guidetolerance="10"
     inkscape:pageopacity="0"
     inkscape:pageshadow="2"
     inkscape:window-width="3840"
     inkscape:window-height="2050"
     id="namedview12"
     showgrid="false"
     inkscape:zoom="0.84281414"
     inkscape:cx="842.79255"
     inkscape:cy="527.77294"
     inkscape:window-x="0"
     inkscape:window-y="50"
     inkscape:window-maximized="1"
     inkscape:current-layer="svg10" />
  <metadata
     id="metadata2">
Created by potrace 1.15, written by Peter Selinger 2001-2017
<rdf:RDF>
  <cc:Work
     rdf:about="">
    <dc:format>image/svg+xml</dc:format>
    <dc:type
       rdf:resource="http://purl.org/dc/dcmitype/StillImage" />
  </cc:Work>
</rdf:RDF>
</metadata>
  <g
     transform="translate(0.000000,1188.000000) scale(0.100000,-0.100000)"
     fill="#000000"
     stroke="none"
     id="g8"
     style="fill:#000000">
    <path
       d="M5610 10925 c-419 -38 -784 -113 -1169 -241 -1398 -466 -2528 -1532 -3071 -2898 -177 -446 -290 -920 -335 -1415 -19 -207 -19 -679 0 -876 52 -531 152 -948 345 -1434 124 -313 286 -624 468 -901 824 -1253 2146 -2064 3643 -2235 347 -39 777 -39 1114 0 988 116 1892 503 2660 1139 137 114 460 428 511 497 34 47 46 87 22 73 -14 -7 86 101 112 122 8 7 13 14 10 17 -3 2 -131 -84 -285 -190 -312 -216 -419 -284 -610 -384 -986 -515 -2151 -607 -3213 -253 -606 202 -1127 527 -1592 993 -677 678 -1088 1546 -1185 2503 -20 191 -19 601 0 797 124 1232 769 2320 1785 3010 586 397 1230 629 1940 697 234 22 665 15 885 -15 657 -89 1230 -300 1760 -648 199 -131 286 -199 530 -412 71 -63 148 -125 170 -139 22 -15 70 -52 107 -84 36 -32 69 -58 72 -58 3 0 -18 33 -47 73 -30 39 -61 88 -70 107 -21 44 -159 228 -285 380 -124 150 -465 490 -617 616 -321 265 -603 449 -985 639 -719 360 -1483 538 -2290 534 -129 -1 -300 -7 -380 -14z"
       id="path4"
       style="fill:#000000" />
    <path
       d="M9917 7579 c-20 -57 -64 -189 -98 -294 -69 -214 -168 -519 -259 -798 -42 -129 -67 -190 -80 -197 -12 -6 -277 -10 -734 -10 -394 0 -716 -1 -716 -3 0 -1 30 -35 68 -74 47 -50 178 -152 442 -344 599 -435 621 -451 637 -476 18 -27 22 -10 -107 -408 -265 -816 -310 -956 -310 -967 0 -6 11 -3 25 6 14 9 25 12 25 6 0 -5 13 -10 29 -10 34 0 69 25 660 454 233 170 437 314 452 320 22 8 36 7 62 -6 19 -9 248 -172 510 -362 492 -357 553 -400 598 -410 24 -5 27 -2 33 29 9 46 13 31 -205 704 -104 322 -189 590 -189 597 0 7 5 24 11 38 11 23 75 72 772 580 163 120 302 227 308 238 6 11 8 29 6 40 -3 11 0 21 9 25 8 3 14 9 14 14 0 5 -295 9 -698 9 -603 0 -700 2 -719 15 -23 16 -43 74 -303 872 -100 310 -136 406 -153 420 -13 10 -30 35 -38 57 l-16 39 -36 -104z"
       id="path6"
       style="fill:#000000" />
  </g>
</svg>
