<?xml version="1.0" encoding="UTF-8" standalone="no"?>
<!-- Generator: Adobe Illustrator 22.0.1, SVG Export Plug-In . SVG Version: 6.00 Build 0)  -->

<svg
   xmlns:dc="http://purl.org/dc/elements/1.1/"
   xmlns:cc="http://creativecommons.org/ns#"
   xmlns:rdf="http://www.w3.org/1999/02/22-rdf-syntax-ns#"
   xmlns:svg="http://www.w3.org/2000/svg"
   xmlns="http://www.w3.org/2000/svg"
   xmlns:sodipodi="http://sodipodi.sourceforge.net/DTD/sodipodi-0.dtd"
   xmlns:inkscape="http://www.inkscape.org/namespaces/inkscape"
   version="1.1"
   id="katman_1"
   x="0px"
   y="0px"
   viewBox="0 0 360.00001 360.00001"
   xml:space="preserve"
   sodipodi:docname="Emblem_of_Turkey.svg"
   width="360"
   height="360"
   inkscape:version="0.92.4 5da689c313, 2019-01-14"><metadata
   id="metadata17"><rdf:RDF><cc:Work
       rdf:about=""><dc:format>image/svg+xml</dc:format><dc:type
         rdf:resource="http://purl.org/dc/dcmitype/StillImage" /><dc:title>Emblem of Turkey</dc:title></cc:Work></rdf:RDF></metadata><defs
   id="defs15" /><sodipodi:namedview
   pagecolor="#ffffff"
   bordercolor="#666666"
   borderopacity="1"
   objecttolerance="10"
   gridtolerance="10"
   guidetolerance="10"
   inkscape:pageopacity="0"
   inkscape:pageshadow="2"
   inkscape:window-width="3840"
   inkscape:window-height="2050"
   id="namedview13"
   showgrid="false"
   borderlayer="false"
   units="px"
   width="297px"
   inkscape:zoom="2.5633979"
   inkscape:cx="-27.07004"
   inkscape:cy="228.53733"
   inkscape:window-x="0"
   inkscape:window-y="50"
   inkscape:window-maximized="1"
   inkscape:current-layer="katman_1" />
<style
   type="text/css"
   id="style2">
	.st0{fill:#E30A17;}
</style>
<title
   id="title4">Emblem of Turkey</title>
<g
   id="g10"
   style="fill:#1a1a1a"
   transform="translate(2.2,50)">
	<path
   class="st0"
   d="M 0,130 C 0,58.6 57.9,0.7 129.3,0.7 c 46,0 86.4,24 109.3,60.2 -18.9,-21.1 -46.4,-34.4 -77,-34.4 -57.1,0 -103.4,46.4 -103.4,103.5 0,57.1 46.3,103.5 103.5,103.5 30.6,0 58.1,-13.3 77,-34.4 -22.9,36.2 -63.3,60.2 -109.3,60.2 C 57.9,259.3 0,201.4 0,130 Z"
   id="path6"
   style="fill:#1a1a1a"
   inkscape:connector-curvature="0" />
	<polygon
   class="st0"
   points="283.3,68.5 283.3,115.5 238.7,130 283.3,144.5 283.3,191.5 310.9,153.5 355.6,168 328,130 355.6,92 310.9,106.5 "
   id="polygon8"
   style="fill:#1a1a1a" />
</g>
</svg>