<?xml version="1.0" encoding="UTF-8" standalone="no"?>
<!-- Created with Inkscape (http://www.inkscape.org/) -->

<svg
   width="900"
   height="900"
   viewBox="0 0 238.12499 238.12499"
   version="1.1"
   id="svg5"
   xml:space="preserve"
   inkscape:version="1.2.2 (b0a8486541, 2022-12-01)"
   sodipodi:docname="aqyduq0ew5gw.svg"
   xmlns:inkscape="http://www.inkscape.org/namespaces/inkscape"
   xmlns:sodipodi="http://sodipodi.sourceforge.net/DTD/sodipodi-0.dtd"
   xmlns="http://www.w3.org/2000/svg"
   xmlns:svg="http://www.w3.org/2000/svg"><sodipodi:namedview
     id="namedview7"
     pagecolor="#ffffff"
     bordercolor="#666666"
     borderopacity="1.0"
     inkscape:showpageshadow="2"
     inkscape:pageopacity="0.0"
     inkscape:pagecheckerboard="0"
     inkscape:deskcolor="#d1d1d1"
     inkscape:document-units="mm"
     showgrid="false"
     inkscape:zoom="0.52913967"
     inkscape:cx="435.61277"
     inkscape:cy="377.02711"
     inkscape:window-width="1717"
     inkscape:window-height="1106"
     inkscape:window-x="2292"
     inkscape:window-y="131"
     inkscape:window-maximized="0"
     inkscape:current-layer="layer1" /><defs
     id="defs2" /><g
     inkscape:label="Layer 1"
     inkscape:groupmode="layer"
     id="layer1"><rect
       style="fill:#000000;stroke:#000000;stroke-width:1.00557;stop-color:#000000"
       id="rect420"
       width="237.11943"
       height="237.11943"
       x="0.50278944"
       y="0.50278944" /><path
       style="fill:#ffffff;stroke-width:0.264583"
       d="m 13.390051,125.26435 c -2.68267,-3.59674 -2.60409,-8.88626 0.18751,-12.62193 0.56125,-0.75105 14.41901,-14.76009 31.63086,-31.976167 l 30.63223,-30.639302 7.4808,7.480794 7.48078,7.480787 -24.13171,24.230708 -24.13171,24.2307 -0.67191,1.57315 c -0.93205,2.18217 -0.92935,5.91063 0.006,8.07318 0.61908,1.43153 1.00018,1.90118 4.39991,5.42225 l 3.72215,3.85494 -7.46976,7.46976 -7.46975,7.46976 -10.40686,-10.45353 c -5.72381,-5.74941 -10.78996,-10.96717 -11.2582,-11.59495 z m 44.11294,29.53478 7.48079,-7.48079 24.23071,24.13171 24.230699,24.1317 1.57314,0.67192 c 2.18217,0.93205 5.91063,0.92935 8.07318,-0.006 1.43154,-0.61907 1.90118,-1.00017 5.42225,-4.3999 l 3.85494,-3.72215 7.46976,7.46976 7.46975,7.46975 -10.24663,10.23957 c -5.63583,5.63159 -10.86595,10.70207 -11.6226,11.2676 -3.81006,2.84773 -8.96666,2.83588 -12.80095,-0.0294 -0.75104,-0.56124 -14.760089,-14.41901 -31.976169,-31.63086 l -30.63929,-30.63222 z m 14.96984,-41.53644 5.23848,-5.23849 6.92229,6.92229 6.92228,6.92228 6.92227,-6.92228 6.922279,-6.92228 5.23848,5.23848 5.23849,5.23849 -9.14128,9.14129 -9.141279,9.14128 -1.03193,-0.81338 c -2.77591,-2.18801 -7.23904,-2.1873 -10.01606,0.002 l -1.02993,0.81181 -9.14129,-9.14129 -9.14129,-9.14129 z m 43.591659,40.22406 6.92228,-6.92228 -6.92228,-6.92227 -6.92228,-6.92229 5.23848,-5.23848 5.23848,-5.23848 9.14129,9.14129 9.14127,9.14127 -0.81337,1.03193 c -2.18801,2.77591 -2.1873,7.23905 0.002,10.01607 l 0.81181,1.02992 -9.14128,9.14128 -9.14129,9.14129 -5.23849,-5.23849 -5.23848,-5.23848 z m 55.38099,-4.58091 24.13171,-24.23072 0.67192,-1.57314 c 0.93205,-2.18217 0.92935,-5.91063 -0.006,-8.07317 -0.61906,-1.43155 -1.00017,-1.90119 -4.3999,-5.42225 l -3.72215,-3.85495 7.46978,-7.469768 7.46976,-7.469761 10.23935,10.246849 c 5.63166,5.63576 10.70207,10.86595 11.26761,11.6226 2.84772,3.81005 2.83587,8.96666 -0.0294,12.80094 -0.56124,0.75104 -14.41901,14.7601 -31.63085,31.97617 l -30.63223,30.6393 -7.48059,-7.4806 -7.4808,-7.48079 z m -69.2955,-53.460928 c 2.18801,-2.775914 2.1873,-7.239045 -0.002,-10.016066 l -0.8118,-1.029922 9.14128,-9.141285 9.14129,-9.141286 5.23848,5.238488 5.23848,5.23848 -6.92227,6.922278 -6.92228,6.922279 6.92228,6.922278 6.92228,6.922284 -5.23849,5.23848 -5.23847,5.23849 -9.14129,-9.14129 -9.14128,-9.141284 z m 30.35225,13.914978 9.14128,-9.14128 1.02993,0.8118 c 2.77702,2.18888 7.24015,2.18959 10.01606,0.002 l 1.03193,-0.81337 9.14128,9.14128 9.14128,9.14129 -5.23848,5.23848 -5.23848,5.23848 -6.92228,-6.92229 -6.92228,-6.92227 -6.92228,6.92229 -6.92228,6.92227 -5.23848,-5.23848 -5.23848,-5.23849 z M 101.05438,24.820292 c 5.63583,-5.631589 10.86595,-10.702054 11.6226,-11.267603 3.81005,-2.847724 8.96666,-2.835876 12.80095,0.02942 0.75104,0.561237 14.76009,14.418999 31.97616,31.630848 l 30.63951,30.632014 -7.48079,7.480791 -7.48079,7.480794 -24.23071,-24.131709 -24.2307,-24.131709 -1.57314,-0.671921 c -2.18217,-0.932044 -5.91063,-0.929343 -8.07318,0.0059 -1.43154,0.619072 -1.90118,1.000167 -5.42225,4.399901 l -3.85494,3.722147 -7.469759,-7.469756 -7.46976,-7.469756 z"
       id="path314" /></g></svg>
