<?xml version="1.0" encoding="UTF-8" standalone="no"?>
<!-- Created with Inkscape (http://www.inkscape.org/) -->

<svg
   xmlns:dc="http://purl.org/dc/elements/1.1/"
   xmlns:cc="http://creativecommons.org/ns#"
   xmlns:rdf="http://www.w3.org/1999/02/22-rdf-syntax-ns#"
   xmlns:svg="http://www.w3.org/2000/svg"
   xmlns="http://www.w3.org/2000/svg"
   xmlns:sodipodi="http://sodipodi.sourceforge.net/DTD/sodipodi-0.dtd"
   xmlns:inkscape="http://www.inkscape.org/namespaces/inkscape"
   width="256mm"
   height="256mm"
   viewBox="0 0 256 256"
   version="1.1"
   id="svg8"
   inkscape:version="0.92.5 (2060ec1f9f, 2020-04-08)"
   sodipodi:docname="lotus.svg">
  <defs
     id="defs2" />
  <sodipodi:namedview
     id="base"
     pagecolor="#ffffff"
     bordercolor="#666666"
     borderopacity="1.0"
     inkscape:pageopacity="0.0"
     inkscape:pageshadow="2"
     inkscape:zoom="0.98994949"
     inkscape:cx="-110.87764"
     inkscape:cy="523.57807"
     inkscape:document-units="mm"
     inkscape:current-layer="layer1"
     showgrid="false"
     inkscape:window-width="3840"
     inkscape:window-height="2056"
     inkscape:window-x="0"
     inkscape:window-y="50"
     inkscape:window-maximized="1" />
  <metadata
     id="metadata5">
    <rdf:RDF>
      <cc:Work
         rdf:about="">
        <dc:format>image/svg+xml</dc:format>
        <dc:type
           rdf:resource="http://purl.org/dc/dcmitype/StillImage" />
        <dc:title></dc:title>
      </cc:Work>
    </rdf:RDF>
  </metadata>
  <g
     inkscape:label="Layer 1"
     inkscape:groupmode="layer"
     id="layer1"
     transform="translate(0,-41)">
    <rect
       style="fill:#1a1a1a;fill-opacity:1;stroke:none;stroke-width:0.32538173;stroke-opacity:1"
       id="rect816"
       width="256"
       height="256"
       x="-1.0658141e-14"
       y="41" />
    <g
       id="g1222"
       transform="matrix(1.508537,0,0,1.508537,-65.032438,-86.218868)"
       style="fill:#ffffff">
      <path
         inkscape:connector-curvature="0"
         id="path1197"
         d="m 126.64369,195.27819 c -6.41851,-6.66004 -13.89614,-17.81668 -17.71633,-26.43283 -2.28599,-5.15588 -4.13827,-11.21742 -5.00705,-16.38551 -0.59425,-3.53494 -0.80064,-10.36806 -0.41546,-13.75464 1.41772,-12.46495 7.38148,-25.76163 17.31833,-38.61259 2.95542,-3.822132 6.80674,-8.210643 7.20965,-8.215256 0.27246,-0.0031 2.10962,2.047587 5.60161,6.252737 3.35837,4.044239 8.02243,10.996859 10.71247,15.968859 4.30899,7.96431 7.37039,17.55208 8.15251,25.53229 1.32414,13.51055 -3.28314,28.24698 -13.58205,43.44232 -2.44353,3.60526 -6.69496,9.0163 -9.38123,11.94003 L 128,196.68554 Z"
         style="fill:#ffffff;stroke-width:0.26458335" />
      <g
         id="g1209"
         style="fill:#ffffff">
        <path
           style="fill:#ffffff;stroke-width:0.26458335"
           d="m 140.83229,198.29385 c 0,-0.11951 1.1503,-1.69935 2.55622,-3.51077 7.85738,-10.12364 13.67592,-20.99372 16.84613,-31.47162 2.1873,-7.22929 2.9539,-13.14025 2.76506,-21.32048 l -0.12989,-5.62649 2.40885,-1.332 c 9.44946,-5.22518 21.21245,-8.63318 34.34328,-9.94999 2.19491,-0.22011 4.86703,-0.40021 5.93805,-0.40021 h 1.94731 v 1.28042 c 0,0.70423 -0.18037,3.17478 -0.40082,5.49011 -2.1901,23.00213 -10.43043,41.10583 -23.41097,51.43303 -8.92953,7.10425 -20.61307,11.94439 -34.79342,14.41386 -2.0373,0.35479 -4.41855,0.71696 -5.29167,0.80482 -0.87313,0.0879 -1.85539,0.21529 -2.18281,0.28317 -0.32743,0.0679 -0.59532,0.0256 -0.59532,-0.0939 z"
           id="path1185"
           inkscape:connector-curvature="0" />
        <path
           style="fill:#ffffff;stroke-width:0.26458335"
           d="m 111.89765,198.08226 c -7.47886,-1.02179 -14.535429,-2.66655 -20.410151,-4.75724 -4.079502,-1.45181 -4.61551,-1.68125 -8.700423,-3.72426 C 76.556268,186.48451 71.794724,182.96135 66.881248,177.83171 56.459271,166.95123 49.810862,148.78284 48.602582,127.88083 l -0.189824,-3.28376 3.545703,0.16396 c 13.928868,0.64411 28.148322,4.4285 38.759209,10.31544 l 2.405171,1.33439 -0.125089,5.84864 c -0.135985,6.35817 0.09974,9.37335 1.139362,14.57353 2.552234,12.76629 9.398056,26.73358 19.028776,38.82374 1.53946,1.9326 2.11738,2.83428 1.80302,2.81308 -0.25446,-0.0171 -1.63653,-0.19157 -3.07126,-0.38759 z"
           id="path1193"
           inkscape:connector-curvature="0" />
      </g>
      <path
         inkscape:connector-curvature="0"
         id="path1189"
         d="m 125.7662,243.85998 c -2.26312,-2.71891 -6.37126,-8.74828 -8.01057,-11.75686 -1.18151,-2.16838 -2.45698,-5.08557 -3.40375,-7.78488 l -0.73528,-2.09634 2.75952,-1.79629 c 3.10215,-2.01931 7.00677,-4.94486 9.7718,-7.32156 L 128,211.51208 l 1.32292,1.16569 c 2.28922,2.01715 7.35647,5.83116 10.24726,7.71288 l 2.78133,1.81049 -0.75463,2.23901 c -2.10319,6.24019 -6.88116,14.08788 -12.8706,21.13962 l -0.77201,0.90894 z"
         style="fill:#ffffff;stroke-width:0.26458335" />
      <g
         id="g1205"
         style="fill:#ffffff">
        <path
           style="fill:#ffffff;stroke-width:0.26458335"
           d="m 167.55521,220.03667 c -5.53305,-0.641 -10.99414,-2.31308 -16.27187,-4.98215 -3.38367,-1.71118 -9.64617,-5.6057 -9.65402,-6.00362 -0.002,-0.0912 1.15758,-0.30711 2.57641,-0.47986 4.0319,-0.49091 10.24649,-1.55824 13.29531,-2.28341 10.26381,-2.44129 20.26677,-6.61294 27.60958,-11.51436 1.72459,-1.15118 3.24236,-2.09306 3.37281,-2.09306 0.28362,0 4.15621,2.1345 6.7237,3.70598 2.16867,1.32737 4.96828,3.37405 7.46113,5.45452 2.81565,2.34989 2.65408,2.10517 1.91372,2.89843 -0.35561,0.38101 -1.65859,1.49596 -2.89552,2.47765 -8.30247,6.5893 -17.07371,10.90124 -25.01533,12.29751 -2.25315,0.39615 -7.57373,0.70103 -9.11592,0.52237 z"
           id="path1187"
           inkscape:connector-curvature="0" />
        <path
           style="fill:#ffffff;stroke-width:0.26458335"
           d="m 81.962499,219.8984 c -6.346111,-0.60484 -13.80847,-3.41825 -20.916803,-7.88593 -3.076463,-1.9336 -7.068486,-4.91234 -8.924493,-6.65923 l -1.379539,-1.29844 1.190625,-1.09814 c 2.372443,-2.18815 7.844789,-6.05897 11.514326,-8.14456 2.063057,-1.17254 3.878478,-2.13189 4.034269,-2.13189 0.155791,0 1.572888,0.87099 3.149103,1.93554 10.421729,7.03867 24.533824,11.91069 40.039803,13.82323 3.45484,0.42612 3.91748,0.52099 3.68212,0.75502 -0.62982,0.62627 -6.80996,4.46026 -8.97159,5.56573 -6.131945,3.1359 -10.908463,4.60173 -16.822652,5.16256 -3.177911,0.30135 -3.182935,0.30133 -6.595169,-0.0239 z"
           id="path1191"
           inkscape:connector-curvature="0" />
      </g>
      <g
         id="g1201"
         style="fill:#ffffff">
        <path
           style="fill:#ffffff;stroke-width:0.26458335"
           d="m 92.810416,124.34852 c -3.380549,-1.70426 -7.236727,-3.32022 -10.542683,-4.41802 l -2.605186,-0.86508 0.180301,-1.22646 c 0.561607,-3.82024 4.641265,-17.49833 5.219091,-17.49833 1.523993,0 17.081081,8.91834 16.782471,9.6208 -0.0704,0.16559 -0.90343,1.98391 -1.851204,4.04071 -1.640176,3.55942 -4.135491,10.02756 -4.144132,10.74206 -0.01167,0.96498 -0.453906,0.90739 -3.038658,-0.39568 z"
           id="path1195"
           inkscape:connector-curvature="0" />
        <path
           style="fill:#ffffff;stroke-width:0.26458335"
           d="m 159.98906,124.21796 c -0.63595,-2.21502 -3.01966,-8.22216 -4.57745,-11.53554 -0.74258,-1.57945 -1.35015,-2.90667 -1.35015,-2.94935 0,-0.14438 4.87782,-3.22811 7.54063,-4.76715 2.88821,-1.66932 8.82001,-4.62207 9.28928,-4.62406 0.59924,-0.003 4.62479,13.43369 5.28155,17.62838 l 0.17116,1.09316 -2.21162,0.72523 c -3.25614,1.06774 -7.44473,2.80875 -10.77185,4.47736 l -2.93513,1.47202 z"
           id="path1183"
           inkscape:connector-curvature="0" />
      </g>
    </g>
  </g>
</svg>
