<?xml version="1.0" encoding="UTF-8" standalone="no"?>
<svg
   viewBox="0 0 512 512"
   style="height: 512px; width: 512px;"
   version="1.1"
   id="svg2"
   sodipodi:docname="bing_cj12aerwvw6y.svg"
   inkscape:version="1.3 (0e150ed6c4, 2023-07-21)"
   xmlns:inkscape="http://www.inkscape.org/namespaces/inkscape"
   xmlns:sodipodi="http://sodipodi.sourceforge.net/DTD/sodipodi-0.dtd"
   xmlns="http://www.w3.org/2000/svg"
   xmlns:svg="http://www.w3.org/2000/svg">
  <defs
     id="defs2" />
  <sodipodi:namedview
     id="namedview2"
     pagecolor="#ffffff"
     bordercolor="#666666"
     borderopacity="1.0"
     inkscape:showpageshadow="2"
     inkscape:pageopacity="0.0"
     inkscape:pagecheckerboard="0"
     inkscape:deskcolor="#d1d1d1"
     inkscape:zoom="0.55657038"
     inkscape:cx="252.43888"
     inkscape:cy="402.46483"
     inkscape:window-width="1920"
     inkscape:window-height="1011"
     inkscape:window-x="0"
     inkscape:window-y="32"
     inkscape:window-maximized="1"
     inkscape:current-layer="svg2" />
  <path
     d="M0 0h512v512H0z"
     fill="#000"
     fill-opacity="1"
     id="path1" />
  <path
     style="fill:#f9f9f9;stroke-width:3.44374"
     d="m 38.890576,480.39046 c -1.033474,-1.03349 -0.661686,-11.26196 0.749704,-20.62564 3.417614,-22.67366 14.514586,-44.34046 32.08551,-62.64685 17.276255,-17.99941 38.34588,-29.08711 60.43976,-31.80586 6.11937,-0.75305 30.17944,-0.97112 82.88145,-0.75136 71.76939,0.29927 74.47423,0.37252 80.67729,2.18398 7.83277,2.28744 17.22351,7.17582 19.60771,10.20682 1.36462,1.73478 1.76423,1.89718 1.76423,0.71694 0,-2.70804 -3.61847,-8.71894 -7.55469,-12.54961 -6.24386,-6.07643 -7.64177,-6.84924 -63.9709,-35.3645 C 162.69423,287.80019 126.28259,268.8412 117.14631,262.88589 88.187554,244.00963 67.175587,211.86564 60.492299,176.21688 58.080182,163.35062 58.22784,140.36984 60.799653,128.38131 65.591761,106.0429 78.075987,82.942 93.062821,68.68137 108.74135,53.762539 126.81081,44.406678 149.65514,39.379381 c 6.5518,-1.441822 12.0458,-1.657881 42.15744,-1.657881 34.08702,0 34.72735,0.03443 41.3004,2.187079 9.2115,3.017468 16.29182,7.831907 27.49172,18.693609 15.95298,15.471343 22.6599,19.98363 35.99058,24.21391 8.00158,2.539167 25.48833,3.48757 34.70638,1.882309 9.12599,-1.589213 20.81357,-6.266592 28.42979,-11.377607 5.79556,-3.889212 19.87663,-17.148269 36.59147,-34.455396 8.10155,-8.388585 6.09824,-8.034742 43.94092,-7.761207 l 33.09529,0.23934 0.29926,4.555746 c 0.16461,2.505694 -0.18528,8.448197 -0.77715,13.205644 -2.97541,23.910793 -14.20501,46.592622 -32.50916,65.662933 -17.27627,17.99939 -38.34589,29.0871 -60.43977,31.80586 -6.11937,0.75304 -30.17945,0.97113 -82.88147,0.75136 -71.76935,-0.29927 -74.4742,-0.37252 -80.6773,-2.18403 -7.83276,-2.28738 -17.2235,-7.17576 -19.6077,-10.20676 -1.36459,-1.73478 -1.76423,-1.89719 -1.76423,-0.71696 0,2.70806 3.6185,8.71894 7.55472,12.54961 6.24386,6.07644 7.64178,6.84924 63.97087,35.36452 82.87643,41.95418 119.28808,60.91316 128.42436,66.86848 28.95876,18.87626 49.97072,51.02026 56.654,86.66901 2.41213,12.86626 2.26446,35.84704 -0.30718,47.83557 -4.79209,22.33842 -17.27634,45.43927 -32.26318,59.69994 -15.67853,14.9188 -33.74799,24.2747 -56.59229,29.30199 -6.55181,1.44183 -12.04584,1.65788 -42.15745,1.65788 -34.08702,0 -34.72738,-0.0345 -41.30039,-2.18708 -9.21154,-3.0175 -16.29184,-7.8319 -27.49172,-18.69364 -15.95299,-15.47131 -22.65993,-19.98363 -35.99063,-24.21388 -8.00156,-2.53917 -25.48829,-3.48756 -34.70637,-1.8823 -9.12597,1.58921 -20.81354,6.26656 -28.42978,11.3776 -5.79556,3.88922 -19.87663,17.14826 -36.59149,34.4554 -8.03748,8.32229 -6.15617,7.97755 -43.537127,7.97755 -18.006874,0 -33.013118,-0.27344 -33.347209,-0.60741 z M 356.4713,417.51911 c 20.52795,-6.37576 37.33147,-26.56924 41.35664,-49.70007 4.11023,-23.61952 -5.14308,-49.54352 -24.05054,-67.37984 -8.48996,-8.00902 -15.48801,-12.41441 -39.82479,-25.07043 -11.5261,-5.99399 -28.54192,-15.0861 -37.8129,-20.20473 -9.27101,-5.11858 -42.67208,-23.54063 -74.22465,-40.9378 -56.6426,-31.23113 -57.42429,-31.70041 -61.79443,-37.09822 -5.21364,-6.4396 -10.83972,-17.65618 -13.02514,-25.96787 -1.92867,-7.33518 -2.17884,-22.31418 -0.48698,-29.15694 2.04106,-8.25507 6.52889,-16.34543 12.74069,-22.967963 3.19278,-3.403921 6.34623,-6.188937 7.00765,-6.188937 0.66144,0 1.45218,-0.403846 1.75725,-0.897436 0.73063,-1.182198 -3.59071,-0.345544 -12.48755,2.41774 -20.52795,6.375726 -37.33147,26.569246 -41.35664,49.700036 -4.11022,23.61956 5.14308,49.54355 24.05055,67.37988 7.92688,7.47785 15.57683,12.48775 32.53558,21.30736 7.51702,3.90932 21.25267,11.18711 30.52364,16.17283 25.67102,13.8053 63.41759,34.02638 99.77138,53.4482 18.04086,9.63822 34.62077,18.57184 36.84425,19.85249 11.89065,6.84851 22.62335,22.17461 26.99672,38.55085 1.94082,7.26745 2.19651,22.23177 0.4973,29.10422 -2.04102,8.25511 -6.52886,16.34546 -12.74066,22.968 -3.19279,3.40393 -6.34625,6.18894 -7.00765,6.18894 -0.66145,0 -1.45219,0.40385 -1.75723,0.89744 -0.73067,1.18217 3.59067,0.3455 12.48751,-2.41775 z"
     id="path1-3" />
</svg>
