<?xml version="1.0" encoding="UTF-8" standalone="no"?>
<!-- Created with Inkscape (http://www.inkscape.org/) -->

<svg
   xmlns:dc="http://purl.org/dc/elements/1.1/"
   xmlns:cc="http://creativecommons.org/ns#"
   xmlns:rdf="http://www.w3.org/1999/02/22-rdf-syntax-ns#"
   xmlns:svg="http://www.w3.org/2000/svg"
   xmlns="http://www.w3.org/2000/svg"
   xmlns:sodipodi="http://sodipodi.sourceforge.net/DTD/sodipodi-0.dtd"
   xmlns:inkscape="http://www.inkscape.org/namespaces/inkscape"
   width="256mm"
   height="256mm"
   viewBox="0 0 256 256"
   version="1.1"
   id="svg8"
   inkscape:version="0.92.5 (2060ec1f9f, 2020-04-08)"
   sodipodi:docname="ra-dinasty.svg">
  <defs
     id="defs2" />
  <sodipodi:namedview
     id="base"
     pagecolor="#ffffff"
     bordercolor="#666666"
     borderopacity="1.0"
     inkscape:pageopacity="0.0"
     inkscape:pageshadow="2"
     inkscape:zoom="0.98994949"
     inkscape:cx="154.03358"
     inkscape:cy="578.98598"
     inkscape:document-units="mm"
     inkscape:current-layer="layer1"
     showgrid="false"
     inkscape:window-width="3840"
     inkscape:window-height="2056"
     inkscape:window-x="0"
     inkscape:window-y="50"
     inkscape:window-maximized="1" />
  <metadata
     id="metadata5">
    <rdf:RDF>
      <cc:Work
         rdf:about="">
        <dc:format>image/svg+xml</dc:format>
        <dc:type
           rdf:resource="http://purl.org/dc/dcmitype/StillImage" />
        <dc:title></dc:title>
      </cc:Work>
    </rdf:RDF>
  </metadata>
  <g
     inkscape:label="Layer 1"
     inkscape:groupmode="layer"
     id="layer1"
     transform="translate(0,-41)">
    <rect
       style="fill:#000000;fill-opacity:1;stroke:none;stroke-width:0.73613685;stroke-miterlimit:4;stroke-dasharray:none;stroke-opacity:1;paint-order:stroke fill markers"
       id="rect4747"
       width="256"
       height="256"
       x="-1.4210855e-14"
       y="41" />
    <g
       id="g5012">
      <g
         id="g4992">
        <path
           style="fill:#ffffff;stroke-width:0.47712299"
           d="M 111.34801,278.62259 C 97.57423,255.44427 96.32099,253.1618 97.01856,252.52506 c 1.47688,-1.3481 29.14868,-22.7602 29.66752,-22.95638 0.31021,-0.11722 2.6037,1.41472 5.09667,3.40448 2.49295,1.98978 9.62513,7.59986 15.84925,12.46684 10.52157,8.22741 11.27858,8.92033 10.77522,9.86309 -0.29776,0.55769 -2.08523,3.59046 -3.97213,6.73948 -1.8869,3.14901 -6.25972,10.50266 -9.7174,16.34144 L 138.43101,289 h -10.45809 -10.45809 z"
           id="path4969" />
        <g
           id="g4980">
          <path
             id="path4965"
             d="m 89.36406,241.27566 c -1.3856,-2.34048 -2.44571,-4.46124 -2.3558,-4.71278 0.09,-0.25154 7.78551,-6.40808 17.10134,-13.68116 9.31583,-7.2731 18.25879,-14.2677 19.87325,-15.54355 l 2.93535,-2.31973 3.98291,3.13344 c 2.19062,1.72339 4.02621,3.28179 4.07912,3.4631 0.0721,0.24717 -35.14926,28.00487 -42.0084,33.1065 -1.0853,0.80721 -1.09598,0.79702 -3.60777,-3.44582 z"
             style="fill:#ffffff;stroke-width:0.47712299" />
          <path
             id="path4961"
             d="m 79.40431,224.4914 c -2.01331,-3.49514 -2.3965,-4.48495 -1.90851,-4.92981 1.59942,-1.45804 48.60737,-37.96095 49.14212,-38.16015 0.8054,-0.30003 8.70283,5.94577 8.17547,6.46572 -0.89213,0.87961 -52.42051,41.01475 -52.64697,41.0064 -0.13362,-0.005 -1.37662,-1.97691 -2.76211,-4.38216 z"
             style="fill:#ffffff;stroke-width:0.47712299" />
          <path
             id="path4957"
             d="m 69.77077,208.15087 c -1.36051,-2.25239 -2.40332,-4.28432 -2.31736,-4.51539 0.086,-0.23107 13.60735,-10.90895 30.04755,-23.72861 16.44019,-12.81967 43.36699,-33.82905 59.8373,-46.68752 16.47031,-12.85846 30.23315,-23.55072 30.58407,-23.76057 0.51994,-0.31094 0.63804,0.8082 0.63804,6.04652 v 6.42808 l -57.45831,44.8879 c -31.60207,24.68834 -57.77318,45.00871 -58.15798,45.15637 -0.49147,0.1886 -1.43566,-0.95003 -3.17331,-3.82678 z"
             style="fill:#ffffff;stroke-width:0.47712299" />
        </g>
        <g
           id="g4975">
          <path
             id="path4967"
             d="m 149.19095,235.74837 c -7.60639,-5.93324 -14.00493,-10.94998 -14.21898,-11.14833 -0.34129,-0.31622 7.27675,-6.69136 7.99592,-6.69136 0.26045,0 23.59666,18.05303 25.01548,19.35211 0.54772,0.5015 0.24505,1.30997 -1.84851,4.93749 -1.37692,2.38578 -2.64087,4.33778 -2.8088,4.33778 -0.16788,0 -6.52872,-4.85446 -14.13511,-10.78769 z"
             style="fill:#ffffff;stroke-width:0.47712299" />
          <path
             id="path4963"
             d="m 154.4862,215.76001 c -10.21223,-7.97748 -18.85032,-14.78712 -19.19575,-15.13255 -0.51933,-0.51933 0.0893,-1.17715 3.51512,-3.79981 3.44162,-2.63468 4.27474,-3.07757 4.92012,-2.61559 0.42733,0.30589 8.42056,6.53299 17.76276,13.838 l 16.98582,13.28185 -2.41507,4.13314 c -1.32828,2.27322 -2.54787,4.28307 -2.71018,4.4663 -0.1623,0.18324 -8.65059,-6.19388 -18.86282,-14.17134 z"
             style="fill:#ffffff;stroke-width:0.47712299" />
          <path
             id="path4959"
             d="m 158.76478,194.99015 c -13.10736,-10.24183 -23.90984,-18.6998 -24.00554,-18.79549 -0.20498,-0.20498 7.74795,-6.4754 8.21293,-6.4754 0.28744,0 43.04119,33.2001 44.5658,34.60725 0.53833,0.49683 0.2164,1.32866 -1.90848,4.93147 -1.40582,2.3836 -2.66339,4.33829 -2.79459,4.34375 -0.13128,0.005 -10.96277,-8.36976 -24.07012,-18.61158 z"
             style="fill:#ffffff;stroke-width:0.47712299" />
          <path
             id="path4955"
             d="m 89.65257,140.91035 c -11.494,-8.99879 -21.21593,-16.67916 -21.60427,-17.0675 -0.56649,-0.56648 -0.67963,-1.94532 -0.57235,-6.97407 l 0.1338,-6.26799 25.04895,19.56702 c 13.77694,10.76186 25.33663,19.85005 25.68824,20.19597 0.53183,0.52323 -0.0409,1.16016 -3.40842,3.78961 -2.22624,1.73837 -4.1242,3.15116 -4.2177,3.13952 -0.0936,-0.0117 -9.57418,-7.38379 -21.0682,-16.38256 z"
             style="fill:#ffffff;stroke-width:0.47712299" />
        </g>
      </g>
      <g
         id="g4996">
        <path
           style="fill:#ffffff;stroke-width:0.47712299"
           d="m 112.35055,124.47196 -10.1283,-7.95191 -0.0108,-12.81425 -0.0108,-12.814251 -5.51481,-10.258556 c -3.03315,-5.6422 -5.44858,-10.313449 -5.36763,-10.38055 0.081,-0.06708 7.28612,-4.876338 16.01151,-10.687218 L 123.19407,49 v 41.75183 c 0,22.96351 -0.16104,41.73388 -0.35785,41.71194 -0.19681,-0.022 -4.91558,-3.61826 -10.48613,-7.99181 z"
           id="path4953" />
        <path
           style="fill:#ffffff;stroke-width:0.47712299"
           d="M 132.73698,90.791593 V 49 l 15.86435,10.565225 c 8.72539,5.81088 15.93056,10.620136 16.01151,10.687218 0.081,0.06708 -2.33448,4.73835 -5.36763,10.38055 l -5.51481,10.258556 -0.009,12.814251 -0.009,12.81425 -10.10073,7.87253 c -5.55539,4.32989 -10.27501,7.9441 -10.48803,8.03157 -0.21301,0.0875 -0.3873,-18.64718 -0.3873,-41.632557 z"
           id="path4949" />
      </g>
    </g>
  </g>
</svg>
